<?xml version="1.0" standalone="no"?>
<!DOCTYPE svg PUBLIC "-//W3C//DTD SVG 1.1//EN" "http://www.w3.org/Graphics/SVG/1.1/DTD/svg11.dtd" >
<svg xmlns="http://www.w3.org/2000/svg">
<metadata>
This is a custom SVG webfont generated by Font Squirrel.
Copyright   : Typeface  FontSite Inc 19962008 All Rights Reserved wwwfontsitecom
Designer    : FontSitecom
Foundry URL : httpwwwfontsitecom
</metadata>
<defs>
<font id="webfontIk0SMr9Y" horiz-adv-x="1024" >
<font-face units-per-em="2048" ascent="1610" descent="-438" />
<missing-glyph horiz-adv-x="512" />
<glyph unicode=" "  horiz-adv-x="512" />
<glyph unicode="&#x09;" horiz-adv-x="512" />
<glyph unicode="&#xa0;" horiz-adv-x="512" />
<glyph unicode="!" horiz-adv-x="471" d="M31 0l55 240h184l-55 -240h-184zM164 395l129 738l53 233h174l-43 -233l-211 -738h-102z" />
<glyph unicode="&#x22;" horiz-adv-x="616" d="M207 838l102 536l148 -35l-144 -526zM453 838l102 536l147 -35l-143 -526z" />
<glyph unicode="#" horiz-adv-x="1214" d="M51 467l47 106h267l112 252h-266l49 109h266l117 260h125l-117 -260h242l117 260h127l-119 -260h248l-47 -109h-250l-113 -252h248l-47 -106h-250l-119 -266h-125l119 266h-242l-118 -266h-127l120 266h-264zM487 573h244l115 252h-244z" />
<glyph unicode="$" d="M-4 0q37 115 94 406h143l-32 -140q104 -143 264 -143q111 0 186.5 67.5t75.5 163.5q0 78 -53 148.5t-195 177.5q-133 102 -184 181t-51 183q0 154 107.5 251.5t277.5 97.5l39 170h135l-45 -197q100 -27 162 -84l18 84h149q-25 -92 -83 -371h-150l33 144 q-100 117 -242 116q-100 0 -165.5 -54t-65.5 -138q0 -90 82 -170q39 -33 153 -123q139 -109 193.5 -196t54.5 -197q0 -209 -180 -330q-96 -63 -248 -70l-47 -204h-135l51 227q-68 27 -101.5 48.5t-72.5 62.5l-25 -111h-143z" />
<glyph unicode="%" horiz-adv-x="1179" d="M76 33l1061 1347l59 -47l-1061 -1347zM162 895q0 205 86 344t213 139q78 0 126 -61.5t48 -163.5q0 -221 -105 -377q-72 -104 -196 -104q-80 0 -126 59.5t-46 163.5zM262 883q0 -129 84 -129q35 0 69 27.5t54 72.5q68 152 68 320q0 55 -24 88.5t-60 33.5q-72 0 -115 -90 q-76 -147 -76 -323zM637 211q0 205 86 344t213 139q78 0 126 -61.5t48 -163.5q0 -221 -104 -377q-72 -104 -197 -104q-80 0 -126 59.5t-46 163.5zM737 199q0 -129 84 -129q35 0 69 27.5t54 72.5q68 152 68 319q0 55 -23.5 89t-60.5 34q-72 0 -115 -90q-76 -147 -76 -323z " />
<glyph unicode="&#x26;" horiz-adv-x="1331" d="M57 367q0 295 392 489q-63 135 -64 229q0 131 89 217.5t226 86.5q117 0 194 -73t77 -183q0 -213 -307 -334l213 -396q129 162 167 322q53 -4 119 -4h84q16 0 70 4l-33 -147l-141 4q-59 -141 -191 -316l76 -133l154 2l-33 -139q-39 4 -70 4h-82q-47 0 -77 -6l-84 153 q-188 -170 -383 -170q-168 0 -282 112t-114 278zM219 377q0 -109 73 -182.5t179 -73.5q168 0 293 153l-248 449q-143 -61 -220 -151.5t-77 -194.5zM537 1102q0 -86 59 -189q127 55 181 108.5t54 119.5q0 53 -40.5 89t-100.5 36q-66 0 -109.5 -47t-43.5 -117z" />
<glyph unicode="'" horiz-adv-x="370" d="M207 838l102 536l148 -35l-144 -526z" />
<glyph unicode="(" horiz-adv-x="698" d="M57 317q0 387 198 683t519 389l21 -127q-123 -39 -213 -110t-168 -194q-193 -297 -193 -686q0 -365 223 -567l-65 -113q-322 260 -322 725z" />
<glyph unicode=")" horiz-adv-x="698" d="M-92 -279q121 37 211 109t170 195q193 297 192 686q0 362 -223 565l66 113q322 -258 321 -723q0 -387 -197.5 -682t-519.5 -392z" />
<glyph unicode="*" d="M256 1118l82 142l258 -189l33 318l164 -33l-101 -305l312 67l18 -164h-322l162 -276l-151 -68l-97 305l-215 -237l-110 123l260 186z" />
<glyph unicode="+" d="M178 610l33 144h285l67 290h154l-66 -290h283l-33 -144h-283l-67 -288h-156l68 288h-285z" />
<glyph unicode="," horiz-adv-x="444" d="M-35 -254l21 88q61 6 92 42t45 124h-84l55 240h185l-50 -215q-27 -111 -39 -146t-36 -63q-61 -72 -172 -72q-11 0 -17 2z" />
<glyph unicode="-" horiz-adv-x="462" d="M-14 422l34 151h463l-34 -151h-463z" />
<glyph unicode="." horiz-adv-x="428" d="M25 0l55 240h182l-55 -240h-182z" />
<glyph unicode="/" horiz-adv-x="862" d="M-258 -383l1096 1749h149l-1096 -1749h-149z" />
<glyph unicode="0" d="M106 420q0 209 55.5 410.5t151.5 345.5q143 213 365 213q150 0 240 -121t90 -322q0 -205 -55.5 -411.5t-149.5 -350.5q-59 -94 -161.5 -150.5t-209.5 -56.5q-152 0 -239 118t-87 325zM276 397q0 -131 47.5 -203.5t131.5 -72.5q72 0 140.5 57.5t109.5 151.5q59 141 96 320 t37 333q0 117 -49.5 189.5t-129.5 72.5q-143 0 -235 -186q-148 -306 -148 -662z" />
<glyph unicode="1" d="M158 -4l32 147l168 -4l250 1088l-182 -4l33 147q57 -4 166 -4h80q29 0 53 2q31 0 55 2l-285 -1231l174 4l-32 -147q-68 4 -172 4h-172q-88 0 -168 -4z" />
<glyph unicode="2" d="M51 -4q14 213 105.5 348t335.5 309q170 119 241 201q94 113 94 219q0 74 -49 123t-123 49q-145 0 -233 -164q-37 -68 -70 -225h-153q35 219 118 338q137 195 351 195q141 0 235 -89.5t94 -222.5q0 -162 -127 -303q-61 -70 -233 -194q-252 -180 -320.5 -253t-89.5 -186 h445l73 324h146q-47 -188 -109 -469q-57 4 -143 4h-444q-72 0 -144 -4z" />
<glyph unicode="3" d="M66 371q0 27 6 82h157q-6 -61 -6 -82q0 -111 62.5 -180.5t163.5 -69.5q117 0 200.5 86t83.5 207q0 145 -123 198q-61 29 -200 31l32 141q23 -2 56 -2q141 0 234 79t93 198q0 82 -48 134t-126 52q-59 0 -115.5 -31.5t-89 -87t-51.5 -139.5h-164q35 186 150 294t278 108 q143 0 239.5 -94.5t96.5 -235.5q0 -170 -123 -273q-57 -49 -163 -84q94 -37 144 -112.5t50 -177.5q0 -180 -132 -307.5t-318 -127.5q-176 0 -281.5 107t-105.5 287z" />
<glyph unicode="4" d="M63 522l744 867h170l-199 -867h187l-33 -135h-184l-58 -248l146 2l-35 -145q-70 4 -150 4h-164q-76 0 -139 -4l33 145l137 -2l57 248h-466q-9 65 -46 135zM221 522h387l142 615z" />
<glyph unicode="5" d="M86 367q0 39 4 69h166q0 -16 -1 -34.5t-2 -29t-1 -18.5q0 -113 49 -168q59 -66 154 -65q121 0 212 117.5t91 275.5q0 92 -49.5 149.5t-130.5 57.5q-106 0 -205 -98l-125 96l149 651q66 -4 146 -4h385q66 0 143 4q-41 -129 -80 -348h-141l45 203h-385l-96 -420 q98 59 190 59q139 0 231.5 -102.5t92.5 -255.5q0 -215 -145.5 -372t-344.5 -157q-174 0 -274 123q-78 97 -78 267z" />
<glyph unicode="6" d="M111 416q0 201 58 399.5t161 349.5q154 223 381 224q150 0 231.5 -89.5t81.5 -248.5q0 -31 -6 -86h-152q6 47 6 71q0 98 -43 153.5t-120 55.5q-168 0 -283 -207q-53 -94 -104 -286q135 117 278 116.5t233.5 -105t90.5 -269.5q0 -217 -128 -367t-315 -150q-168 0 -270 115 q-100 113 -100 324zM274 418q0 -297 211 -297q117 0 187 100q82 113 82 262q0 106 -53.5 174t-135.5 68q-63 0 -121.5 -26.5t-148.5 -94.5q-21 -108 -21 -186z" />
<glyph unicode="7" d="M129 -4l33 147l139 -4q139 549 580 1086h-504l-47 -207h-148q20 72 43 178l13 60q6 30 12 53.5t14 60.5q47 -4 129 -4h551q86 0 156 4l-33 -145q-143 -145 -322.5 -479t-259.5 -607l146 4l-33 -147q-61 4 -143 4h-172q-84 0 -154 -4z" />
<glyph unicode="8" d="M84 332q0 145 82 254.5t221 148.5q-137 102 -137 260q0 72 33.5 149t89.5 132q117 113 286 113q154 0 251.5 -92.5t97.5 -237.5q0 -156 -107 -266q-51 -53 -149 -97q147 -102 147 -280q0 -182 -132 -310.5t-318 -128.5q-160 0 -262.5 99.5t-102.5 255.5zM254 326 q0 -90 56.5 -147.5t144.5 -57.5q113 0 193.5 94t80.5 223q0 90 -55.5 150.5t-136.5 60.5q-115 0 -199 -96t-84 -227zM420 950q0 -76 52 -127t130 -51q96 0 166 86t70 205q0 78 -50.5 130t-123.5 52q-100 0 -172 -87t-72 -208z" />
<glyph unicode="9" d="M92 315q0 29 6 86h156q-8 -47 -8 -71q0 -94 46 -151.5t122 -57.5q158 0 272 201q76 127 107 282q-143 -106 -279 -106q-133 0 -226 106.5t-93 257.5q0 207 124 373q55 72 140.5 113t179.5 41q178 0 276.5 -121t98.5 -338q0 -193 -61.5 -388.5t-168.5 -346.5 q-154 -217 -381 -218q-141 0 -226 92t-85 246zM365 881q0 -109 52 -174.5t138 -65.5q109 0 272 131q16 115 17 186q0 137 -53.5 212t-151.5 75q-113 0 -193.5 -106t-80.5 -258z" />
<glyph unicode=":" horiz-adv-x="428" d="M25 0l55 240h182l-55 -240h-182zM190 715l56 239h182l-55 -239h-183z" />
<glyph unicode=";" horiz-adv-x="430" d="M-35 -254l21 88q53 8 78.5 42t44.5 124h-84l55 240h184l-49 -215q-25 -106 -38 -142.5t-38 -66.5q-59 -72 -157 -72q-9 0 -17 2zM190 715l56 239h172l-56 -239h-172z" />
<glyph unicode="&#x3c;" d="M86 707v14l852 543v-88l-614 -398l614 -411v-232z" />
<glyph unicode="=" d="M147 457l33 143h707l-33 -143h-707zM219 766l33 143h706l-32 -143h-707z" />
<glyph unicode="&#x3e;" d="M86 135v88l614 398l-614 409v234l852 -572v-14z" />
<glyph unicode="?" horiz-adv-x="901" d="M213 0l55 240h183l-56 -240h-182zM215 1061q39 152 147.5 240t253.5 88q152 0 247 -92.5t95 -239.5q0 -164 -112 -287q-121 -129 -320 -129h-20l-60 -256h-118l67 406q63 -16 111 -17q119 0 202 84t83 205q0 82 -52.5 135t-130.5 53q-170 0 -231 -190h-162z" />
<glyph unicode="@" horiz-adv-x="1521" d="M102 453q0 309 220.5 529t531.5 220q254 0 432 -159.5t178 -385.5q0 -328 -280 -493q-127 -74 -219 -74q-98 0 -99 90v8q-76 -90 -200.5 -90t-202.5 84t-78 221q0 184 122 317.5t290 133.5q82 0 133 -29.5t92 -101.5l29 117h116l-137 -576q-8 -31 -8 -47q0 -35 37 -35 q35 0 89 30t95 71q135 139 135 350q0 207 -151.5 344t-380.5 137q-274 0 -463.5 -189.5t-189.5 -463.5q0 -252 166.5 -416t426.5 -164q129 0 230.5 46t224.5 159h111q-113 -131 -213 -192q-164 -98 -361 -99q-291 0 -483.5 187.5t-192.5 470.5zM530 428q0 -90 51.5 -147.5 t133.5 -57.5q137 0 205 139q47 94 47 185q0 82 -45 131t-119 49q-109 0 -191 -90t-82 -209z" />
<glyph unicode="A" horiz-adv-x="1288" d="M-94 -4l33 147l108 -4l588 1088l-146 -4l33 147q78 -4 183 -4h217q131 0 204 4l-32 -147l-127 4l129 -1088l125 4l-35 -147q-94 4 -125 4h-131q-104 0 -191 -4l35 147l144 -4l-39 353h-469l-189 -353l148 4l-35 -147q-72 4 -158 4h-135q-69 0 -135 -4zM479 621h385 l-63 612z" />
<glyph unicode="B" horiz-adv-x="1177" d="M6 -4l33 147l117 -4l252 1088l-140 -4l35 147q96 -4 137 -4h164q188 0 232.5 -3t103.5 -22q94 -29 153.5 -114.5t59.5 -192.5q0 -164 -123 -256q-53 -39 -166 -80q76 -37 119 -80q88 -88 88 -223q0 -129 -81 -234.5t-206 -135.5q-68 -16 -139.5 -20.5t-331.5 -4.5h-188 q-58 0 -119 -4zM346 143q55 -2 123 -2q203 0 291 45q53 29 87 92.5t34 139.5q0 172 -164 215q-59 14 -254 14zM492 778q45 -2 114 -2q98 0 148.5 10.5t97.5 38.5q111 68 111 203q0 57 -26 103.5t-69 66.5q-57 29 -176 29q-49 0 -96 -4z" />
<glyph unicode="C" horiz-adv-x="1431" d="M121 555q0 293 192 526q117 139 290 223.5t347 84.5q248 0 398 -156l30 133h144q-39 -154 -92 -408h-146q2 12 2 27q0 109 -97 182.5t-243 73.5q-244 0 -439.5 -211t-195.5 -475q0 -188 110.5 -310t285.5 -122q137 0 263 75.5t212 209.5l131 -111q-115 -154 -271.5 -238 t-328.5 -84q-266 0 -429 160t-163 420z" />
<glyph unicode="D" horiz-adv-x="1433" d="M-4 -4l33 147l129 -4l250 1088l-148 -4l33 147q96 -4 137 -4h199q219 0 281.5 -4t131.5 -23q168 -47 271.5 -201.5t103.5 -359.5q0 -203 -88 -381t-239 -280q-94 -66 -208 -93q-106 -26 -263 -26h-23l-283 2h-188q-61 0 -129 -4zM346 143q119 -2 211 -2h28q122 0 199 17 q86 18 162 65q125 76 203 232.5t78 328.5q0 262 -174 373q-113 68 -369 68q-51 0 -88 -2z" />
<glyph unicode="E" horiz-adv-x="1216" d="M-4 -4l33 145l127 -2l252 1088l-148 -2l33 145q94 -4 133 -4h756q72 0 139 4q-66 -227 -100 -440h-168l67 295h-526l-105 -459h447l-33 -141h-446l-113 -484h539l69 303h156q-27 -106 -104 -448q-49 4 -119 4h-762q-61 0 -127 -4z" />
<glyph unicode="F" horiz-adv-x="1136" d="M-4 -4l33 147l129 -4l250 1088l-146 -2l33 145q92 -4 133 -4h694q88 0 160 4q-16 -63 -49 -207q-14 -70 -47 -213h-158l62 275h-494l-104 -457h409l-33 -141h-409l-113 -488l143 4l-32 -147q-74 4 -144 4h-188q-61 0 -129 -4z" />
<glyph unicode="G" horiz-adv-x="1495" d="M100 563q0 217 118 407.5t317.5 304.5t425.5 114q272 0 434 -172l35 149h141l-47 -205l-45 -200h-144q-25 127 -94 186q-111 94 -295 94q-262 0 -458.5 -203.5t-196.5 -474.5q0 -195 120.5 -316.5t313.5 -121.5q174 0 307 100.5t176 261.5l-317 -4l35 150q37 -4 176 -4 h194q117 0 162 4q-57 -307 -254.5 -481.5t-490.5 -174.5q-274 0 -443.5 162t-169.5 424z" />
<glyph unicode="H" horiz-adv-x="1460" d="M0 -4l33 147l125 -4l250 1088l-146 -2l35 145q88 -4 127 -4h205q37 0 123 4l-33 -145l-123 2l-100 -439h610l100 439l-145 -2l35 145q88 -4 127 -4h204q37 0 123 4l-32 -145l-123 2l-250 -1088l143 4l-33 -147q-66 4 -127 4h-204q-59 0 -125 -4l32 147l125 -4l117 508 h-610l-117 -508l143 4l-32 -147q-66 4 -127 4h-205q-59 0 -125 -4z" />
<glyph unicode="I" horiz-adv-x="661" d="M-4 -4l33 147l127 -4l252 1088l-150 -4l33 147q88 -4 129 -4h207q37 0 123 4l-33 -147l-121 4l-252 -1088l143 4l-32 -147q-63 4 -125 4h-207q-61 0 -127 -4z" />
<glyph unicode="J" horiz-adv-x="647" d="M-274 -418l36 160q18 -2 41 -2q147 0 224 86q47 53 77.5 135t71.5 264l232 1002l-146 -4l33 147q92 -4 133 -4h201q37 0 129 4l-33 -147l-129 4l-242 -1053q-51 -219 -86 -309q-113 -287 -461 -287q-44 0 -81 4z" />
<glyph unicode="K" horiz-adv-x="1366" d="M6 -4l33 147l117 -4l252 1088l-140 -4l35 147q94 -4 137 -4h189q39 0 133 4l-35 -147l-131 4l-119 -514l606 514l-143 -4l33 147q78 -4 176 -4h174q61 0 135 4l-33 -147l-133 4l-606 -514l422 -574l137 4l-33 -147q-66 4 -139 4h-149q-100 0 -187 -4l33 147l117 -4 l-410 574l-133 -574l154 4l-33 -147q-70 4 -137 4h-203q-58 0 -119 -4z" />
<glyph unicode="L" horiz-adv-x="1142" d="M-4 -4l33 145l129 -2l250 1088l-150 -4l35 147q92 -4 133 -4h192q37 0 132 4l-33 -147l-121 4l-250 -1086h516l107 459h141l-14 -47l-125 -557q-61 4 -142 4h-704q-61 0 -129 -4z" />
<glyph unicode="M" horiz-adv-x="1828" d="M-4 -4l33 147l127 -4l252 1088l-150 -4l35 147q92 -4 131 -4h156q55 0 114 4l168 -1046l643 1046q41 -4 103 -4h188q51 0 121 4l-33 -147l-121 4l-250 -1088l140 4l-33 -147q-70 4 -139 4h-189q-59 0 -125 -4l33 147l125 -4l246 1071l-754 -1210h-69l-205 1210 l-246 -1071l149 4l-34 -147q-68 4 -133 4h-156q-61 0 -127 -4z" />
<glyph unicode="N" horiz-adv-x="1495" d="M-4 -4l33 147l127 -4l252 1088l-150 -4l35 147q92 -4 133 -4h168q39 0 74 4l391 -1139l229 996l-147 -4l33 147q94 -4 133 -4h163q35 0 132 4l-33 -147l-125 4l-285 -1227h-184l-418 1200l-246 -1061l140 4l-35 -147q-70 4 -137 4h-156q-61 0 -127 -4z" />
<glyph unicode="O" horiz-adv-x="1503" d="M111 535q0 150 55 301t153 270q236 285 596 285q262 0 418 -154t156 -410q0 -205 -85 -391t-230 -301q-199 -158 -480 -158q-266 0 -424.5 152t-158.5 406zM301 516q0 -172 115.5 -281.5t296.5 -109.5q229 0 379 172q207 236 206 549q0 172 -111.5 284.5t-281.5 112.5 q-279 0 -452 -248q-152 -217 -152 -479z" />
<glyph unicode="P" horiz-adv-x="1130" d="M4 -4l33 147l119 -4l252 1088l-138 -4l33 147q96 -4 135 -4h189q197 0 275.5 -14.5t141.5 -59.5q145 -104 146 -301q0 -154 -81 -263.5t-220 -149.5q-92 -25 -375 -25h-74l-96 -414l152 4l-35 -147q-76 4 -150 4h-188q-58 0 -119 -4zM473 694l59 2h158q145 0 227 78 t82 217q0 137 -86 191q-39 25 -91 33t-183 8h-45z" />
<glyph unicode="Q" horiz-adv-x="1501" d="M104 532q0 152 61.5 310.5t164.5 277.5q113 129 265.5 199t319.5 70q262 0 416 -152t154 -408q0 -209 -95.5 -399t-259 -305t-397.5 -133q68 -20 111 -43q96 -49 141 -62.5t105 -13.5q16 0 96 6l-70 -137q-49 -4 -55 -4q-106 0 -277 86q-145 74 -229 74q-96 0 -211 -84 l-59 112q88 63 235 80q-168 37 -270 137q-66 66 -106 171t-40 218zM295 520q0 -174 110.5 -284.5t280.5 -110.5q117 0 230.5 53t191.5 146q88 100 137 235t49 268q0 184 -105.5 299t-275.5 115q-264 0 -448 -231q-80 -100 -125 -230.5t-45 -259.5z" />
<glyph unicode="R" horiz-adv-x="1259" d="M-2 -4l33 147l125 -4l252 1088l-148 -4l33 147q92 -4 133 -4h203l106 2h72q209 0 307 -98q92 -90 92 -236q0 -96 -38 -176t-105 -125q-63 -43 -180 -65l121 -529l165 4l-32 -147q-57 4 -127 4h-95q-31 0 -57 -4l-149 655h-31h-92h-86h-37l-119 -512l148 4l-33 -147 q-74 4 -146 4h-188q-61 0 -127 -4zM494 782l147 -2h35q93 0 141 10q57 11 105 41q94 63 94 203q0 100 -53 148q-55 45 -240 45h-16l-111 -2z" />
<glyph unicode="S" horiz-adv-x="1019" d="M-6 0l49 213q25 117 45 190h141l-30 -133q119 -145 258 -145q106 0 179 67.5t73 163.5q0 76 -44 137.5t-171 159.5q-150 115 -208.5 198t-58.5 183q0 147 116 251t282 104q158 0 293 -117l22 94h141q-37 -143 -86 -377h-143l33 139q-117 113 -246 113q-98 0 -159.5 -53 t-61.5 -137t67 -154q16 -18 172 -139q133 -104 187.5 -191.5t54.5 -195.5q0 -174 -116.5 -284t-301.5 -110q-193 0 -319 134l-25 -111h-143z" />
<glyph unicode="T" horiz-adv-x="1185" d="M139 860l15 53l102 457q61 -4 129 -4h797q78 0 157 4q-31 -113 -116 -510h-148l84 365h-299l-250 -1086l148 4l-33 -147q-70 4 -135 4h-201q-61 0 -127 -4l33 147l127 -4l250 1086h-303l-84 -365h-146z" />
<glyph unicode="U" horiz-adv-x="1372" d="M197 336q0 68 22 164l168 727l-145 -4l34 147q90 -4 132 -4h200q37 0 129 4l-35 -147l-127 4l-157 -688q-31 -135 -31 -209q0 -90 71.5 -147.5t186.5 -57.5q84 0 155.5 36t110.5 99q70 104 133 381l136 586l-146 -4l33 147q92 -4 133 -4h162q39 0 131 4l-33 -147l-129 4 l-151 -652q-49 -211 -88 -304t-107 -160q-129 -133 -375 -134q-182 0 -297.5 100.5t-115.5 258.5z" />
<glyph unicode="V" horiz-adv-x="1300" d="M147 1223l33 147q57 -4 121 -4h172q96 0 178 4l-35 -147l-131 4l70 -991l627 991l-168 -4l35 147q80 -4 196 -4h144q74 0 135 4l-35 -147l-131 4l-789 -1239h-161l-101 1239z" />
<glyph unicode="W" horiz-adv-x="1898" d="M147 1223l33 147q74 -4 142 -4h163q102 0 187 4l-35 -147l-148 4l35 -957l514 957l-151 -4l33 147q72 -4 149 -4h160q55 0 176 4l-33 -147l-131 4l23 -957l530 957l-139 -4l33 147q63 -4 137 -4h168q37 0 129 4l-33 -147l-127 4l-690 -1239h-156l-29 1044l-563 -1044 h-153l-56 1239z" />
<glyph unicode="X" horiz-adv-x="1292" d="M-68 -4l33 147l115 -4l522 574l-217 514l-145 -4l32 147q53 -4 93 -4h182q55 0 176 4l-33 -147l-108 4l163 -398l359 398l-131 -4l35 147q78 -4 166 -4h161q29 0 117 4l-33 -147l-116 4l-490 -545l229 -543l127 4l-34 -147q-49 4 -88 4h-170q-94 0 -187 -4l33 147l119 -4 l-176 424l-381 -424l116 4l-32 -147q-72 4 -144 4h-176q-31 0 -117 -4z" />
<glyph unicode="Y" horiz-adv-x="1171" d="M147 1223l33 147q55 -4 101 -4h151q68 0 209 4l-33 -147l-137 4l182 -484l408 484l-154 -4l33 147q82 -4 186 -4h154q57 0 115 4l-33 -147l-113 4l-540 -647l-103 -441l144 4l-33 -147q-72 4 -142 4h-188q-63 0 -129 -4l35 147l125 -4l108 467l-243 621z" />
<glyph unicode="Z" horiz-adv-x="1122" d="M-45 -4l33 145l954 1084h-541l-67 -293h-135q20 78 51 219l49 219q66 -4 135 -4h557q76 0 232 4l-31 -131l-961 -1098h590l70 303h143q-47 -174 -102 -448q-51 4 -144 4h-638q-99 0 -195 -4z" />
<glyph unicode="[" horiz-adv-x="667" d="M-63 -383l403 1749h428l-29 -127h-276l-346 -1495h293l-31 -127h-442z" />
<glyph unicode="\" horiz-adv-x="862" d="M295 1366h135l279 -1749h-138z" />
<glyph unicode="]" horiz-adv-x="667" d="M-96 -383l28 127h277l346 1495h-293l31 127h442l-403 -1749h-428z" />
<glyph unicode="^" d="M-53 582l571 852h14l545 -852h-88l-397 614l-412 -614h-233z" />
<glyph unicode="_" d="M0 -182h1024v-101h-1024v101z" />
<glyph unicode="`" d="M430 1372h191l147 -287h-123z" />
<glyph unicode="a" horiz-adv-x="1042" d="M39 264q0 139 107.5 226.5t279.5 87.5q129 0 287 -54l28 121q8 31 9 62q0 53 -48.5 88.5t-123.5 35.5q-154 0 -289 -124l-103 84q172 184 402 184q152 0 242 -68.5t90 -185.5q0 -37 -11 -88l-116 -504l131 2l-31 -133q-63 2 -131 2h-94q-33 0 -76 -2l20 90 q-139 -109 -286 -108q-121 0 -204 81.5t-83 202.5zM213 270q0 -66 44 -106.5t116 -40.5q115 0 274 113l39 172q-117 37 -240 36q-104 0 -168.5 -48t-64.5 -126z" />
<glyph unicode="b" horiz-adv-x="1187" d="M-41 -2l31 133l119 -2l256 1112l-136 -4l31 131q92 -2 133 -2h99q20 0 73 2l-121 -520q143 127 310 127q168 0 271 -108.5t103 -286.5q0 -125 -49 -248t-135 -211q-135 -141 -330 -141q-209 0 -331 165l-35 -147q-37 2 -78 2h-92q-60 0 -119 -2zM356 358 q0 -100 66.5 -168.5t163.5 -68.5q129 0 229 106q139 150 139 344q0 115 -65.5 187.5t-169.5 72.5q-150 0 -256.5 -139t-106.5 -334z" />
<glyph unicode="c" horiz-adv-x="1003" d="M63 406q0 231 153 400t362 169q184 0 284 -135l27 114h137q-57 -215 -76 -321h-135q-8 92 -68.5 145t-158.5 53q-154 0 -250 -137q-100 -143 -100 -309q0 -113 66.5 -187.5t166.5 -74.5q168 0 291 172l112 -74q-166 -242 -413 -241q-176 0 -287 119t-111 307z" />
<glyph unicode="d" horiz-adv-x="1187" d="M59 391q0 236 160 410t373 174q215 0 311 -160l98 426l-145 -4l31 131q90 -2 131 -2h102q25 0 82 2l-287 -1239l132 2l-31 -133q-63 2 -131 2h-90q-35 0 -80 -2l22 104q-147 -123 -309 -122.5t-265.5 116t-103.5 295.5zM233 385q0 -119 64.5 -190.5t171.5 -71.5 q174 0 276 160q94 145 95 311q0 106 -63.5 171.5t-166.5 65.5q-150 0 -263.5 -134t-113.5 -312z" />
<glyph unicode="e" horiz-adv-x="1056" d="M63 397q0 240 153 409t370 169q182 0 292.5 -124t110.5 -327q0 -29 -6 -88h-754q-2 -25 -2 -55q0 -119 69 -188.5t183 -69.5q152 0 293 139l133 -63q-156 -219 -424 -219q-195 0 -306.5 112t-111.5 305zM256 553h567q-2 129 -67.5 203.5t-175.5 74.5q-139 0 -244 -124 q-51 -64 -80 -154z" />
<glyph unicode="f" horiz-adv-x="620" d="M-37 -2l31 133l123 -2l162 700l-144 -4l31 133l143 -4q51 199 82 263q88 170 260 169q96 0 191 -53l-51 -125q-70 35 -119 35q-72 0 -115 -64.5t-78 -224.5l133 4l-30 -133l-131 4l-162 -700l133 2l-31 -133q-66 2 -133 2h-170q-62 0 -125 -2z" />
<glyph unicode="g" horiz-adv-x="1175" d="M-53 -270l86 116q160 -129 334 -129q299 0 378 379q-94 -63 -154.5 -85.5t-133.5 -22.5q-176 0 -287 112.5t-111 292.5q0 238 156 410t373 172q184 0 327 -150l31 131q47 -2 70 -2h88q37 0 131 2l-31 -131l-129 4l-157 -682q-45 -193 -91.5 -294t-117.5 -160 q-145 -119 -342 -119q-240 0 -420 156zM233 393q0 -111 70 -186.5t170 -75.5q141 0 256 119q55 59 91 159.5t36 194.5q0 104 -66.5 165.5t-179.5 61.5q-166 0 -268 -137q-109 -137 -109 -301z" />
<glyph unicode="h" horiz-adv-x="1132" d="M-41 -4l31 135l119 -2l256 1112l-136 -4l31 131q92 -2 133 -2h103q16 0 32 2h37l-121 -522q164 129 326 129q111 0 179.5 -60.5t68.5 -156.5q0 -49 -19 -125l-116 -502h135l-31 -131q-23 -2 -45 -2l-90 2h-88l-57 -2q-12 0 -25 2l145 627q18 84 19 104q0 43 -37 71.5 t-90 28.5q-141 0 -318 -169l-122 -533l139 2l-31 -135q-113 4 -137 4h-172q-25 0 -119 -4z" />
<glyph unicode="i" horiz-adv-x="565" d="M-33 -2l31 133l121 -2l162 700l-138 -4l31 131q102 -2 135 -2h97q14 0 75 2l-192 -827l139 2l-31 -133q-92 2 -137 2h-170q-37 0 -123 -2zM315 1290q0 49 34 83t83 34q47 0 82 -35t35 -82t-35 -81.5t-82 -34.5t-82 34.5t-35 81.5z" />
<glyph unicode="j" horiz-adv-x="518" d="M-248 -416l33 144q51 -16 84 -17q88 0 133 71t94 281l176 766l-137 -4l31 131q94 -2 135 -2h111q16 0 61 2l-221 -960q-55 -242 -137 -332q-90 -96 -238 -96q-53 0 -125 16zM305 1290q0 49 34 83t83 34q47 0 82 -35t35 -82t-35 -81.5t-82 -34.5t-82 34.5t-35 81.5z" />
<glyph unicode="k" horiz-adv-x="1097" d="M-37 -2l31 133l115 -2l258 1112l-138 -4l31 131q92 -2 135 -2h97q20 0 40 2h35l-194 -842l415 303l-143 -4l31 131q111 -2 192 -2h158q31 0 109 2l-31 -131l-107 4l-460 -329l260 -371l166 2l-31 -133q-41 2 -72 2h-80q-39 0 -88 -2l-332 475l-79 -344l141 2l-31 -133 q-70 2 -141 2h-170q-58 0 -117 -2z" />
<glyph unicode="l" horiz-adv-x="552" d="M-37 -2l31 133l115 -2l258 1112l-136 -4l31 131q92 -2 133 -2h97q33 0 75 2l-286 -1239l141 2l-31 -133q-70 2 -141 2h-170q-58 0 -117 -2z" />
<glyph unicode="m" horiz-adv-x="1771" d="M-29 -2l31 133l117 -2l162 700l-136 -4l31 131q92 -2 133 -2h99q39 0 73 2l-30 -131q180 150 350 150q174 0 223 -172q201 172 383 172q109 0 178.5 -59.5t69.5 -153.5q0 -57 -21 -146l-112 -487l137 2l-31 -133q-92 2 -135 2h-61q-2 0 -20.5 -1t-35.5 -1h-55l141 608 q18 74 19 113q0 51 -36 81.5t-95 30.5q-166 0 -318 -169l-123 -533l133 2l-30 -133q-66 2 -131 2h-68q-57 0 -104 -2l143 625q14 68 14 102q0 47 -35.5 76.5t-95.5 29.5q-170 0 -321 -169l-125 -533l139 2l-31 -133q-68 2 -137 2h-170q-60 0 -119 -2z" />
<glyph unicode="n" horiz-adv-x="1136" d="M-33 -2l31 133l121 -2l162 700l-140 -4l31 131q102 -2 137 -2h86q20 0 86 2l-28 -120q160 139 338 139q94 0 159.5 -59.5t65.5 -145.5q0 -68 -29 -201l-100 -440l137 2l-31 -133q-92 2 -119 2h-79q-27 0 -109 -2l139 604q18 80 19 131q0 43 -38 70.5t-95 27.5 q-158 0 -299 -176l-123 -526l141 2l-31 -133q-94 2 -139 2h-170q-37 0 -123 -2z" />
<glyph unicode="o" horiz-adv-x="1083" d="M59 387q0 244 165 416t401 172q176 0 286.5 -110.5t110.5 -289.5q0 -139 -58.5 -269t-154.5 -208q-145 -119 -342 -118q-186 0 -297 110.5t-111 296.5zM233 381q0 -117 68 -187.5t178 -70.5q137 0 232 104q137 150 137 355q0 113 -63.5 181t-168.5 68q-158 0 -270.5 -133 t-112.5 -317z" />
<glyph unicode="p" horiz-adv-x="1161" d="M-152 -430l31 133l119 -2l260 1128l-137 -4l31 131q94 -2 135 -2h94q16 0 68 2l-25 -104q135 123 309 123q164 0 267.5 -111.5t103.5 -292.5q0 -250 -151.5 -420.5t-370.5 -170.5q-180 0 -316 149l-98 -428l141 2l-30 -133q-43 2 -140 2h-172q-82 0 -119 -2zM328 344 q0 -96 66.5 -158.5t168.5 -62.5q193 0 303 196q66 119 66 244q0 119 -66.5 195t-169.5 76q-135 0 -239 -115q-53 -61 -91 -170t-38 -205z" />
<glyph unicode="q" horiz-adv-x="1191" d="M59 389q0 236 158 411t369 175q201 0 329 -164l35 145h27q14 -2 33 -2h102q37 0 125 2l-31 -131l-114 4l-263 -1128l138 2l-31 -133q-39 2 -129 2h-176q-88 0 -127 -2l31 133l124 -2l93 401q-143 -123 -310 -122q-170 0 -276.5 113.5t-106.5 295.5zM233 379 q0 -109 69 -182.5t169 -73.5q76 0 148.5 41t123.5 110q47 66 79 162t32 174q0 96 -67.5 158.5t-174.5 62.5q-135 0 -233 -96q-66 -63 -106 -159.5t-40 -196.5z" />
<glyph unicode="r" horiz-adv-x="794" d="M-31 -2l31 133l119 -2l162 700l-138 -4l31 131q94 -2 135 -2h103q20 0 69 2l-55 -235q150 236 375 235q23 0 41 -2l-33 -145h-33q-154 0 -265.5 -101.5t-150.5 -269.5l-71 -309l143 2l-31 -133q-70 2 -141 2h-172q-60 0 -119 -2z" />
<glyph unicode="s" horiz-adv-x="894" d="M-8 0q23 76 67 295h119q4 -82 64.5 -127t163.5 -45q90 0 143 36t53 97q0 68 -67 117q-25 18 -150 73q-248 115 -248 271q0 113 94.5 185.5t241.5 72.5q164 0 270 -103l19 82h133q-18 -57 -66 -282h-133q0 74 -57 116.5t-156 42.5q-76 0 -124 -31.5t-48 -78.5 q0 -37 23 -55q29 -27 196 -107q127 -61 186.5 -131t59.5 -158q0 -129 -110 -217q-94 -74 -248 -73q-158 0 -271 100l-18 -80h-137z" />
<glyph unicode="t" horiz-adv-x="604" d="M100 147q0 47 23 146l125 536l-146 -4l29 133l145 -4l54 234l205 149l-89 -383l152 4l-31 -133l-149 4l-119 -518q-25 -106 -25 -131q0 -23 19.5 -40t46.5 -17q53 0 170 47l-33 -143q-98 -47 -186 -47t-139.5 44.5t-51.5 122.5z" />
<glyph unicode="u" horiz-adv-x="1130" d="M111 825l30 131q94 -2 135 -2h111q16 0 62 2l-138 -587q-16 -76 -16 -125q0 -121 133 -121q137 0 301 170l123 536l-145 -4l28 131q92 -2 133 -2h109l45 2q16 0 31 -2l-191 -825l129 2l-30 -133q-63 2 -130 2h-104q-12 0 -65 -2l26 121q-180 -139 -332 -139 q-104 0 -170.5 68.5t-66.5 174.5q0 51 12 101l117 505z" />
<glyph unicode="v" horiz-adv-x="985" d="M78 825l31 131q59 -2 84 -2h151q59 0 158 2l-31 -131l-115 4l37 -628l408 628l-135 -4l30 131q70 -2 162 -2h133q29 0 103 2l-31 -131l-98 4l-557 -849h-146l-67 849z" />
<glyph unicode="w" horiz-adv-x="1513" d="M78 825l31 131q39 -2 77 -2h136q39 0 163 2l-30 -131l-115 4l33 -643l354 643l-100 -4l30 131q47 -2 119 -2h176q41 0 127 2l-28 -131l-99 4l35 -643l369 643l-121 -4l31 131q59 -2 129 -2h125q31 0 100 2l-29 -131l-78 4l-499 -849h-160l-31 743l-415 -743h-160l-62 849 z" />
<glyph unicode="x" horiz-adv-x="997" d="M-86 -2l31 133l102 -2l361 354l-175 346l-116 -4l30 131q37 -2 68 -2h137h29q31 2 57 2h103l-31 -131l-96 4l114 -221l230 221l-105 -4l31 131q106 -2 174 -2h119q29 0 90 2l-31 -131l-98 4l-352 -346l190 -354l113 2l-31 -133h-39q-18 2 -39 2h-143q-96 0 -164 -2 l31 133l92 -2l-125 231l-238 -231l103 2l-31 -133q-27 2 -121 2h-176q-43 0 -94 -2z" />
<glyph unicode="y" horiz-adv-x="989" d="M-74 -430l31 133l156 -4l180 293l-92 837l-123 -4l31 131q37 -2 90 -2h155q98 0 162 2l-31 -131l-125 4l60 -651l375 651l-131 -4l30 131q45 -2 144 -2h147q74 0 115 2l-31 -131l-111 4l-763 -1259q-23 2 -72 2h-123q-47 0 -74 -2z" />
<glyph unicode="z" horiz-adv-x="880" d="M-47 -2l31 133l700 694h-377l-41 -174h-131q23 76 70 305q49 -2 131 -2h420q55 0 155 2l-30 -131l-705 -704h414l41 184h129q-29 -104 -72 -307q-41 2 -108 2h-498q-68 0 -129 -2z" />
<glyph unicode="{" horiz-adv-x="681" d="M104 -250q0 68 19 141l78 336q10 51 10 76q0 84 -84 111l29 125q68 18 104.5 61t54.5 125l78 336q37 156 92 219q74 86 215 86h101l-27 -123q-113 -2 -161 -42t-74 -152l-76 -334q-23 -98 -65 -153.5t-115 -84.5q47 -27 64.5 -57.5t17.5 -83.5q0 -45 -13 -98l-78 -334 q-12 -61 -12 -97q0 -98 146 -98h12l-29 -123h-102q-82 0 -137 39q-48 33 -48 125z" />
<glyph unicode="|" d="M449 -342v1708h129v-1708h-129z" />
<glyph unicode="}" horiz-adv-x="681" d="M-90 -414l29 123q111 2 158.5 42t74.5 153l78 334q23 100 63.5 154t114.5 85q-47 25 -64.5 55.5t-17.5 83.5q0 31 14 99l76 334q14 61 15 96q0 98 -146 98h-12l29 123h100q84 0 139 -39q47 -33 47 -125q0 -61 -18 -141l-78 -336q-12 -55 -12 -76q0 -84 86 -110l-31 -125 q-68 -18 -103.5 -60.5t-54.5 -126.5l-78 -336q-37 -152 -94 -219q-74 -86 -215 -86h-100z" />
<glyph unicode="~" horiz-adv-x="1366" d="M258 1272q119 205 281 205q51 0 180 -43q109 -39 162 -39q109 0 194 108l33 -20q-49 -90 -126 -146.5t-153 -56.5q-43 0 -182 47q-119 39 -176 39q-53 0 -86 -20.5t-94 -94.5z" />
<glyph unicode="&#xa1;" horiz-adv-x="471" d="M-53 -410l53 234l201 737h102l-129 -737l-53 -234h-174zM197 715l55 239h184l-55 -239h-184z" />
<glyph unicode="&#xa2;" d="M123 608q0 152 65.5 286t178.5 212q111 78 251 84l39 176h138l-45 -197q119 -27 168 -108l26 108h137q-25 -86 -73 -317h-138q-8 59 -28 92q-27 45 -84.5 75t-118.5 30q-137 0 -241.5 -133.5t-104.5 -309.5q0 -113 69.5 -192.5t167.5 -79.5q76 0 140.5 41t146.5 141 l119 -76q-152 -236 -414 -247l-47 -207h-135l51 223q-129 43 -198.5 146t-69.5 253z" />
<glyph unicode="&#xa3;" d="M23 145q0 84 58 144.5t138 60.5q70 0 133 -47q35 111 35 227q0 35 -2 68h-246l31 137h203q-20 106 -21 217q0 190 106.5 313.5t270.5 123.5q133 0 216 -80t83 -207q0 -37 -12 -88h-160q10 47 10 73q0 72 -36.5 115t-100.5 43q-96 0 -150.5 -83t-54.5 -228q0 -94 13 -199 h256l-31 -137h-223v-49q0 -158 -76 -334q72 -94 145 -94q41 0 82 25.5t66 64.5q25 43 47 123h139q-20 -143 -122.5 -250t-217.5 -107q-111 0 -215 113q-94 -113 -207 -113q-66 0 -111.5 49t-45.5 119zM131 156q0 -31 20.5 -51.5t49.5 -20.5q72 0 108 90l-6 6l-2 4 q-45 55 -100 56q-27 0 -48.5 -25.5t-21.5 -58.5z" />
<glyph unicode="&#xa4;" d="M188 412l115 114l-10 21l-10 21q-6 13 -9.5 18.5t-7.5 15.5t-5 13l-4 11.5t-4 12.5t-2 12t-1 16v15q0 41 7 61.5t36 75.5l10 21l-115 114l107 107l115 -115l20 10q55 29 75.5 35t59.5 6q41 0 61.5 -6t75.5 -35l21 -10l115 115l106 -107l-115 -114l11 -21q29 -55 35 -75.5 t6 -61.5q0 -39 -6.5 -59.5t-34.5 -75.5l-11 -21l115 -114l-106 -107l-115 115q-92 -53 -158 -53q-70 0 -155 53l-115 -115zM354 684q0 -88 61.5 -150.5t149.5 -62.5t149.5 62.5t61.5 148.5q0 88 -61.5 149.5t-149.5 61.5q-86 0 -148.5 -61.5t-62.5 -147.5z" />
<glyph unicode="&#xa5;" d="M111 526l26 119h316l-43 152h-238l29 118h176l-94 330l-105 -4l29 129q61 -4 92 -4h125q63 0 203 4l-29 -129l-145 4l122 -522l369 522l-162 -4l29 129q78 -4 180 -4h127q39 0 107 4l-29 -129l-82 4l-240 -330h166l-28 -118h-226l-110 -152h301l-27 -119h-334l-94 -405 l146 4l-29 -129q-68 4 -135 4h-191q-59 0 -118 -4l28 129l127 -4l94 405h-333z" />
<glyph unicode="&#xa6;" d="M449 313h129v-655h-129v655zM449 672v694h129v-694h-129z" />
<glyph unicode="&#xa7;" d="M16 -41h138l4 -18l4 -43q8 -86 65.5 -135.5t145.5 -49.5q100 0 168.5 55.5t68.5 137.5q0 61 -39 117.5t-139 136.5l-170 137q-92 74 -129 133t-37 135q0 133 105 221q47 39 137 68q-78 100 -78 203q0 141 109.5 236.5t271.5 95.5q113 0 201 -53.5t131 -145.5 q43 -88 43 -166h-146l-4 16l-12 39q-27 82 -86 129t-135 47q-88 0 -153.5 -56t-65.5 -134q0 -49 30.5 -92t110.5 -105l211 -161q168 -127 168 -261q0 -215 -250 -301q86 -106 86 -229q0 -143 -108.5 -237.5t-274.5 -94.5q-176 0 -273.5 92.5t-97.5 257.5v25zM248 584 q0 -76 149 -195l187 -147q88 10 141 59t53 119q0 43 -25.5 80t-88.5 86l-228 174q-82 -12 -135 -62.5t-53 -113.5z" />
<glyph unicode="&#xa8;" d="M371 1221q0 45 30.5 76.5t75.5 31.5t77 -31.5t32 -76.5q0 -43 -32 -75t-77 -32q-43 0 -74.5 32t-31.5 75zM715 1221q0 45 30.5 76.5t75.5 31.5t77 -31.5t32 -76.5q0 -43 -32 -75t-77 -32q-43 0 -74.5 32t-31.5 75z" />
<glyph unicode="&#xa9;" horiz-adv-x="1562" d="M119 682q0 299 210 507t513 208q287 0 494.5 -211t207.5 -504q0 -295 -209 -504t-504 -209q-293 0 -502.5 210t-209.5 503zM207 682q0 -260 184 -446.5t440 -186.5q258 0 441.5 186.5t183.5 448.5q0 258 -182 445.5t-434 187.5q-266 0 -449.5 -184.5t-183.5 -450.5z M420 621q0 188 145.5 329.5t339.5 141.5q139 0 225 -80l17 67h96q-10 -41 -55 -241h-96q2 8 2 18q0 59 -55.5 99t-137.5 40q-137 0 -246.5 -114.5t-109.5 -257.5q0 -104 63.5 -172t161.5 -68q166 0 270 164l88 -70q-143 -190 -356 -190q-158 0 -255 92t-97 242z" />
<glyph unicode="&#xaa;" horiz-adv-x="681" d="M29 608l16 68h682l-16 -68h-682zM180 973q0 82 66.5 132t171.5 50q74 0 168 -27l12 58q4 25 4 31q0 29 -27.5 47t-72.5 18q-88 0 -170 -70l-72 54q109 111 252 110q96 0 151.5 -41t55.5 -110q0 -25 -6 -45l-64 -275l80 2l-20 -90q-59 2 -86 2h-58q-27 0 -51 -2l6 41 q-82 -51 -160 -51q-76 0 -128 48t-52 118zM299 979q0 -35 24.5 -56.5t65.5 -21.5q68 0 158 60l18 88q-61 18 -135 18q-59 0 -95 -23.5t-36 -64.5z" />
<glyph unicode="&#xab;" horiz-adv-x="995" d="M109 571l376 383h183l-406 -413l207 -518h-152zM424 543l412 411h180l-438 -442l192 -489h-152z" />
<glyph unicode="&#xac;" d="M70 451v96h882v-547h-221v451h-661z" />
<glyph unicode="&#xad;" horiz-adv-x="462" d="M-14 422l34 151h463l-34 -151h-463z" />
<glyph unicode="&#xae;" horiz-adv-x="1562" d="M117 682q0 299 210 507t513 208q287 0 494.5 -211t207.5 -504q0 -295 -209 -504t-504 -209q-293 0 -502.5 210t-209.5 503zM205 682q0 -260 184 -446.5t440 -186.5q258 0 441.5 186.5t183.5 448.5q0 258 -182 445.5t-434 187.5q-266 0 -449.5 -184.5t-183.5 -450.5z M473 299l23 96l73 -2l138 594l-86 -2l22 96q61 -2 82 -2h119q145 0 183 -5t75 -30q84 -55 84 -159q0 -174 -185 -209l70 -283l98 2l-20 -96q-37 2 -82 2h-53q-20 0 -39 -2l-90 367h-72h-59l-62 -273l84 2l-22 -96q-45 2 -90 2h-109q-39 0 -82 -2zM774 752h78q115 0 160 26 q49 33 49 105q0 63 -37 84q-25 12 -53.5 15t-141.5 3z" />
<glyph unicode="&#xaf;" d="M340 1153l29 125h573l-29 -125h-573z" />
<glyph unicode="&#xb0;" horiz-adv-x="669" d="M207 1116q0 113 81 191.5t197 78.5q109 0 189 -80.5t80 -191.5q0 -113 -80 -193.5t-193 -80.5q-115 0 -194.5 80.5t-79.5 195.5zM324 1114q0 -66 46 -112t111 -46q63 0 109.5 46.5t46.5 111.5q0 63 -45 109.5t-109 46.5q-66 0 -112.5 -46.5t-46.5 -109.5z" />
<glyph unicode="&#xb1;" d="M68 133l32 143h723l-32 -143h-723zM195 680l32 143h283l68 289h155l-67 -289h284l-32 -143h-285l-68 -291h-153l65 291h-282z" />
<glyph unicode="&#xb2;" horiz-adv-x="679" d="M129 543q4 129 61.5 212t212.5 187q121 80 163 130t42 110q0 41 -29.5 69.5t-74.5 28.5q-86 0 -137 -90q-23 -41 -43 -139h-111q23 137 74 209q88 119 225 118q94 0 155.5 -54t61.5 -138q0 -82 -48 -145.5t-177 -151.5q-156 -106 -196 -145t-54 -101h266l45 191h105 q-25 -98 -68 -291q-41 2 -98 2h-279q-45 0 -96 -2z" />
<glyph unicode="&#xb3;" horiz-adv-x="679" d="M135 778q0 25 4 49h113q0 -12 -2 -28.5t-2 -22.5q0 -63 39 -104t100 -41q70 0 119 48t49 114q0 70 -49 101.5t-158 31.5l23 98q16 -2 41 -2q86 0 141 43t55 111q0 47 -29.5 76.5t-76.5 29.5q-121 0 -154 -154h-115q23 119 95.5 185.5t181.5 66.5q94 0 156.5 -58 t62.5 -146q0 -154 -164 -209q51 -20 81 -67.5t30 -104.5q0 -109 -84 -186t-205 -77q-115 0 -183.5 66.5t-68.5 179.5z" />
<glyph unicode="&#xb4;" d="M494 1085l204 287h197l-272 -287h-129z" />
<glyph unicode="&#xb5;" horiz-adv-x="1130" d="M-12 -299l291 1255h170l-136 -587q-16 -72 -16 -125q0 -121 133 -121q139 0 299 170l154 661h170l-191 -825l131 2l-32 -133q-63 2 -130 2h-104q-12 0 -65 -2l28 121q-180 -139 -332 -139q-88 0 -155 53l-45 -332h-170z" />
<glyph unicode="&#xb6;" d="M63 -432l35 147l166 -4l215 932q-152 0 -229 53q-109 70 -109 219q0 94 49.5 190.5t131.5 160.5q133 102 360 102l356 -2q55 0 113 2l106 2l-34 -145l-172 2l-351 -1516l174 4l-32 -147q-61 4 -168 4h-111l383 1655h-227l-381 -1655h-107q-88 0 -168 -4z" />
<glyph unicode="&#xb7;" horiz-adv-x="440" d="M104 379l56 239h182l-55 -239h-183z" />
<glyph unicode="&#xb8;" d="M225 -436l19 84q41 4 70.5 31.5t35.5 66.5h-84l35 152h174l-29 -129q-45 -205 -221 -205z" />
<glyph unicode="&#xb9;" horiz-adv-x="679" d="M195 545l22 100l107 -2l143 627l-115 -2l23 100q41 -2 112 -2h50q18 0 32 2h43l-168 -725l109 2l-23 -100q-47 2 -114 2h-109q-57 0 -112 -2z" />
<glyph unicode="&#xba;" horiz-adv-x="681" d="M29 608l16 68h682l-16 -68h-682zM188 1047q0 137 99.5 233t242.5 96q111 0 179.5 -64.5t68.5 -168.5q0 -143 -96 -238.5t-240 -95.5q-115 0 -184.5 64.5t-69.5 173.5zM307 1044q0 -63 40 -102t106 -39q84 0 145 70.5t61 171.5q0 61 -37.5 99t-97.5 38q-90 0 -153.5 -70 t-63.5 -168z" />
<glyph unicode="&#xbb;" horiz-adv-x="995" d="M-18 23l438 442l-195 489h152l196 -520l-411 -411h-180zM328 23l405 413l-205 518h150l211 -548l-379 -383h-182z" />
<glyph unicode="&#xbc;" horiz-adv-x="1662" d="M195 545l22 100l107 -2l143 627l-115 -2l23 100q41 -2 112 -2h50q18 0 32 2h43l-168 -725l109 2l-23 -100q-47 2 -114 2h-109q-57 0 -112 -2zM317 41l1053 1337l68 -51l-1053 -1339zM987 315l467 519h119l-119 -510h119l-23 -95h-116l-31 -133l92 2l-22 -100 q-51 2 -103 2h-104q-47 0 -95 -2l23 100l88 -2l31 133h-293q-8 45 -33 86zM1110 324h223l78 331z" />
<glyph unicode="&#xbd;" horiz-adv-x="1662" d="M195 545l22 100l107 -2l143 627l-115 -2l23 100q41 -2 112 -2h50q18 0 32 2h43l-168 -725l109 2l-23 -100q-47 2 -114 2h-109q-57 0 -112 -2zM317 41l1053 1337l68 -51l-1053 -1339zM987 -2q6 129 63.5 212t213.5 187q121 80 162.5 130.5t41.5 109.5q0 41 -30.5 69.5 t-75.5 28.5q-88 0 -137 -90q-23 -41 -43 -139h-111q23 139 76 209q88 119 225 119q94 0 155.5 -54.5t61.5 -138.5q0 -80 -49 -144.5t-178 -152.5q-154 -104 -195 -145t-55 -101h266l45 191h105q-25 -98 -68 -291q-41 2 -98 2h-279q-43 0 -96 -2z" />
<glyph unicode="&#xbe;" horiz-adv-x="1665" d="M135 778q0 25 4 49h113q0 -12 -2 -28.5t-2 -22.5q0 -63 39 -104t100 -41q70 0 119 48t49 114q0 70 -49 101.5t-158 31.5l23 98q16 -2 41 -2q86 0 141 43t55 111q0 47 -29.5 76.5t-76.5 29.5q-121 0 -154 -154h-115q23 119 95.5 185.5t181.5 66.5q94 0 156.5 -58 t62.5 -146q0 -154 -164 -209q51 -20 81 -67.5t30 -104.5q0 -109 -84 -186t-205 -77q-115 0 -183.5 66.5t-68.5 179.5zM317 41l1053 1337l68 -51l-1053 -1339zM989 315l467 519h117l-117 -510h117l-23 -95h-116l-31 -133l92 2l-22 -100q-51 2 -103 2h-102q-49 0 -97 -2 l25 100l86 -2l31 133h-293q-4 39 -31 86zM1112 324h223l76 331z" />
<glyph unicode="&#xbf;" horiz-adv-x="901" d="M-59 -100q0 162 112 286q121 129 318 129h22l58 256h118l-67 -405q-59 16 -109 16q-123 0 -196 -80q-88 -92 -88 -208q0 -82 52 -136.5t130 -54.5q166 0 231 193h162q-39 -154 -147.5 -242t-253.5 -88q-154 0 -248 92t-94 242zM449 715l55 239h182l-55 -239h-182z" />
<glyph unicode="&#xc0;" horiz-adv-x="1288" d="M-94 -4l33 147l108 -4l588 1088l-146 -4l33 147q78 -4 183 -4h217q131 0 204 4l-32 -147l-127 4l129 -1088l125 4l-35 -147q-94 4 -125 4h-131q-104 0 -191 -4l35 147l144 -4l-39 353h-469l-189 -353l148 4l-35 -147q-72 4 -158 4h-135q-69 0 -135 -4zM479 621h385 l-63 612zM608 1733h203l113 -244h-125z" />
<glyph unicode="&#xc1;" horiz-adv-x="1288" d="M-94 -4l33 147l108 -4l588 1088l-146 -4l33 147q78 -4 183 -4h217q131 0 204 4l-32 -147l-127 4l129 -1088l125 4l-35 -147q-94 4 -125 4h-131q-104 0 -191 -4l35 147l144 -4l-39 353h-469l-189 -353l148 4l-35 -147q-72 4 -158 4h-135q-69 0 -135 -4zM479 621h385 l-63 612zM766 1489l184 244h211l-258 -244h-137z" />
<glyph unicode="&#xc2;" horiz-adv-x="1288" d="M-94 -4l33 147l108 -4l588 1088l-146 -4l33 147q78 -4 183 -4h217q131 0 204 4l-32 -147l-127 4l129 -1088l125 4l-35 -147q-94 4 -125 4h-131q-104 0 -191 -4l35 147l144 -4l-39 353h-469l-189 -353l148 4l-35 -147q-72 4 -158 4h-135q-69 0 -135 -4zM479 621h385 l-63 612zM561 1489l246 246h215l129 -246h-143l-97 172l-192 -172h-158z" />
<glyph unicode="&#xc3;" horiz-adv-x="1288" d="M-94 -4l33 147l108 -4l588 1088l-146 -4l33 147q78 -4 183 -4h217q131 0 204 4l-32 -147l-127 4l129 -1088l125 4l-35 -147q-94 4 -125 4h-131q-104 0 -191 -4l35 147l144 -4l-39 353h-469l-189 -353l148 4l-35 -147q-72 4 -158 4h-135q-69 0 -135 -4zM479 621h385 l-63 612zM559 1501q53 223 182 223q47 0 191 -71q59 -31 82 -31q66 0 86 98h110q-51 -227 -176 -227q-61 0 -227 84q-45 20 -66 20q-25 0 -44 -26.5t-27 -69.5h-111z" />
<glyph unicode="&#xc4;" horiz-adv-x="1288" d="M-94 -4l33 147l108 -4l588 1088l-146 -4l33 147q78 -4 183 -4h217q131 0 204 4l-32 -147l-127 4l129 -1088l125 4l-35 -147q-94 4 -125 4h-131q-104 0 -191 -4l35 147l144 -4l-39 353h-469l-189 -353l148 4l-35 -147q-72 4 -158 4h-135q-69 0 -135 -4zM479 621h385 l-63 612zM586 1606q0 47 32.5 79.5t79.5 32.5q45 0 78 -33.5t33 -78.5t-34 -78t-79 -33t-77.5 33t-32.5 78zM942 1606q0 47 33 79.5t80 32.5q45 0 77.5 -33.5t32.5 -78.5t-33.5 -78t-78.5 -33t-78 33t-33 78z" />
<glyph unicode="&#xc5;" horiz-adv-x="1288" d="M-94 -4l33 147l108 -4l588 1088l-146 -4l33 147q78 -4 183 -4h217q131 0 204 4l-32 -147l-127 4l129 -1088l125 4l-35 -147q-94 4 -125 4h-131q-104 0 -191 -4l35 147l144 -4l-39 353h-469l-189 -353l148 4l-35 -147q-72 4 -158 4h-135q-69 0 -135 -4zM479 621h385 l-63 612zM680 1618q0 76 54 130t132 54q74 0 126 -53t52 -129t-53 -129t-129 -53t-129 53t-53 127zM782 1620q0 -33 23.5 -56.5t56.5 -23.5t56.5 23.5t23.5 56.5t-23.5 56.5t-56.5 23.5q-35 0 -57.5 -22.5t-22.5 -57.5z" />
<glyph unicode="&#xc6;" horiz-adv-x="1898" d="M-113 -4l33 145l127 -2l830 1088l-179 -2l33 145q100 -4 252 -4h850q84 0 170 4q-51 -178 -105 -448h-167l69 303h-526l-107 -461h451l-35 -141h-448l-111 -482h547l67 299h150q-33 -115 -102 -444q-55 4 -148 4h-735q-57 0 -119 -4l33 145l119 -2l110 484h-352 l-365 -484l158 2l-33 -145q-80 4 -200 4h-138q-68 0 -129 -4zM698 764h281l108 471h-32z" />
<glyph unicode="&#xc7;" horiz-adv-x="1431" d="M121 557q0 293 192 524q117 141 289 224.5t346 83.5q250 0 400 -156l30 133h144q-33 -127 -92 -408h-146q2 12 2 27q0 109 -97 182.5t-243 73.5q-244 0 -439.5 -211t-195.5 -475q0 -188 110.5 -309t285.5 -121q137 0 263 74.5t212 208.5l131 -111q-244 -319 -600 -320 q-266 0 -429 160t-163 420zM477 -461l21 90q84 10 110 99h-90l37 161h186l-30 -137q-23 -100 -85.5 -157.5t-148.5 -55.5z" />
<glyph unicode="&#xc8;" horiz-adv-x="1216" d="M-4 -4l33 145l127 -2l252 1088l-148 -2l33 145q94 -4 133 -4h756q72 0 139 4q-66 -227 -100 -440h-168l67 295h-526l-105 -459h447l-33 -141h-446l-113 -484h539l69 303h156q-27 -106 -104 -448q-49 4 -119 4h-762q-61 0 -127 -4zM625 1733h202l113 -244h-125z" />
<glyph unicode="&#xc9;" horiz-adv-x="1216" d="M-4 -4l33 145l127 -2l252 1088l-148 -2l33 145q94 -4 133 -4h756q72 0 139 4q-66 -227 -100 -440h-168l67 295h-526l-105 -459h447l-33 -141h-446l-113 -484h539l69 303h156q-27 -106 -104 -448q-49 4 -119 4h-762q-61 0 -127 -4zM782 1489l185 244h211l-258 -244h-138z " />
<glyph unicode="&#xca;" horiz-adv-x="1216" d="M-4 -4l33 145l127 -2l252 1088l-148 -2l33 145q94 -4 133 -4h756q72 0 139 4q-66 -227 -100 -440h-168l67 295h-526l-105 -459h447l-33 -141h-446l-113 -484h539l69 303h156q-27 -106 -104 -448q-49 4 -119 4h-762q-61 0 -127 -4zM584 1489l245 246h215l130 -246h-144 l-96 172l-193 -172h-157z" />
<glyph unicode="&#xcb;" horiz-adv-x="1216" d="M-4 -4l33 145l127 -2l252 1088l-148 -2l33 145q94 -4 133 -4h756q72 0 139 4q-66 -227 -100 -440h-168l67 295h-526l-105 -459h447l-33 -141h-446l-113 -484h539l69 303h156q-27 -106 -104 -448q-49 4 -119 4h-762q-61 0 -127 -4zM596 1606q0 47 33 79.5t80 32.5 q45 0 77.5 -33.5t32.5 -78.5t-33.5 -78t-78.5 -33t-78 33t-33 78zM981 1606q0 47 33 79.5t80 32.5q45 0 77.5 -33.5t32.5 -78.5t-33.5 -78t-78.5 -33t-78 33t-33 78z" />
<glyph unicode="&#xcc;" horiz-adv-x="661" d="M-4 -4l33 147l127 -4l252 1088l-150 -4l33 147q88 -4 129 -4h207q37 0 123 4l-33 -147l-121 4l-252 -1088l143 4l-32 -147q-63 4 -125 4h-207q-61 0 -127 -4zM299 1733h203l112 -244h-125z" />
<glyph unicode="&#xcd;" horiz-adv-x="661" d="M-4 -4l33 147l127 -4l252 1088l-150 -4l33 147q88 -4 129 -4h207q37 0 123 4l-33 -147l-121 4l-252 -1088l143 4l-32 -147q-63 4 -125 4h-207q-61 0 -127 -4zM485 1489l185 244h211l-258 -244h-138z" />
<glyph unicode="&#xce;" horiz-adv-x="661" d="M-4 -4l35 147l125 -4l252 1088l-150 -4l33 147q88 -4 129 -4h207q37 0 123 4l-33 -147l-121 4l-252 -1088l145 4l-34 -147q-63 4 -125 4h-207q-61 0 -127 -4zM272 1489l226 246h215l108 -246h-143l-76 172l-172 -172h-158z" />
<glyph unicode="&#xcf;" horiz-adv-x="661" d="M-4 -4l33 147l127 -4l252 1088l-150 -4l33 147q88 -4 129 -4h207q37 0 123 4l-33 -147l-121 4l-252 -1088l143 4l-32 -147q-63 4 -125 4h-207q-61 0 -127 -4zM311 1606q0 47 33 79.5t80 32.5q45 0 78 -33.5t33 -78.5t-34 -78t-79 -33t-78 33t-33 78zM614 1606 q0 47 33 79.5t80 32.5q45 0 78 -33.5t33 -78.5t-34 -78t-79 -33t-78 33t-33 78z" />
<glyph unicode="&#xd0;" horiz-adv-x="1433" d="M-4 -4l33 145l129 -2l116 508h-135l31 137h137l101 443l-148 -4l33 147q96 -4 137 -4h199q219 0 281.5 -4t131.5 -23q168 -47 271.5 -201.5t103.5 -361.5q0 -203 -88 -381t-239 -280q-94 -63 -208 -91t-286 -26l-283 2h-188q-61 0 -129 -4zM346 141h211q143 0 228 17.5 t161 64.5q127 78 204 232.5t77 328.5q0 262 -174 373q-109 68 -369 68q-51 0 -88 -2l-100 -439h368l-33 -137h-368z" />
<glyph unicode="&#xd1;" horiz-adv-x="1495" d="M-4 -4l33 147l127 -4l252 1088l-150 -4l35 147q92 -4 133 -4h168q39 0 74 4l391 -1139l229 996l-147 -4l33 147q94 -4 133 -4h163q35 0 132 4l-33 -147l-125 4l-285 -1227h-184l-418 1200l-246 -1061l140 4l-35 -147q-70 4 -137 4h-156q-61 0 -127 -4zM713 1501 q53 223 182 223q47 0 190 -71q59 -31 82 -31q66 0 86 98h111q-51 -227 -176 -227q-61 0 -227 84q-45 20 -66 20q-25 0 -44.5 -26.5t-27.5 -69.5h-110z" />
<glyph unicode="&#xd2;" horiz-adv-x="1503" d="M111 535q0 150 55 301t153 270q236 285 596 285q262 0 418 -154t156 -410q0 -205 -85 -391t-230 -301q-199 -158 -480 -158q-266 0 -424.5 152t-158.5 406zM301 516q0 -172 115.5 -281.5t296.5 -109.5q229 0 379 172q207 236 206 549q0 172 -111.5 284.5t-281.5 112.5 q-279 0 -452 -248q-152 -217 -152 -479zM721 1733h203l112 -244h-125z" />
<glyph unicode="&#xd3;" horiz-adv-x="1503" d="M111 535q0 150 55 301t153 270q236 285 596 285q262 0 418 -154t156 -410q0 -205 -85 -391t-230 -301q-199 -158 -480 -158q-266 0 -424.5 152t-158.5 406zM301 516q0 -172 115.5 -281.5t296.5 -109.5q229 0 379 172q207 236 206 549q0 172 -111.5 284.5t-281.5 112.5 q-279 0 -452 -248q-152 -217 -152 -479zM858 1489l184 244h211l-258 -244h-137z" />
<glyph unicode="&#xd4;" horiz-adv-x="1503" d="M111 535q0 150 55 301t153 270q236 285 596 285q262 0 418 -154t156 -410q0 -205 -85 -391t-230 -301q-199 -158 -480 -158q-266 0 -424.5 152t-158.5 406zM301 516q0 -172 115.5 -281.5t296.5 -109.5q229 0 379 172q207 236 206 549q0 172 -111.5 284.5t-281.5 112.5 q-279 0 -452 -248q-152 -217 -152 -479zM680 1489l246 246h215l129 -246h-144l-96 172l-192 -172h-158z" />
<glyph unicode="&#xd5;" horiz-adv-x="1503" d="M111 535q0 150 55 301t153 270q236 285 596 285q262 0 418 -154t156 -410q0 -205 -85 -391t-230 -301q-199 -158 -480 -158q-266 0 -424.5 152t-158.5 406zM301 516q0 -172 115.5 -281.5t296.5 -109.5q229 0 379 172q207 236 206 549q0 172 -111.5 284.5t-281.5 112.5 q-279 0 -452 -248q-152 -217 -152 -479zM698 1501q53 223 183 223q47 0 190 -71q59 -31 82 -31q66 0 86 98h111q-51 -227 -176 -227q-61 0 -228 84q-45 20 -65 20q-25 0 -44.5 -26.5t-27.5 -69.5h-111z" />
<glyph unicode="&#xd6;" horiz-adv-x="1503" d="M111 535q0 150 55 301t153 270q236 285 596 285q262 0 418 -154t156 -410q0 -205 -85 -391t-230 -301q-199 -158 -480 -158q-266 0 -424.5 152t-158.5 406zM301 516q0 -172 115.5 -281.5t296.5 -109.5q229 0 379 172q207 236 206 549q0 172 -111.5 284.5t-281.5 112.5 q-279 0 -452 -248q-152 -217 -152 -479zM709 1606q0 47 32.5 79.5t79.5 32.5q45 0 78 -33.5t33 -78.5t-34 -78t-79 -33t-77.5 33t-32.5 78zM1094 1606q0 47 32.5 79.5t79.5 32.5q45 0 78 -33.5t33 -78.5t-34 -78t-79 -33t-77.5 33t-32.5 78z" />
<glyph unicode="&#xd7;" d="M164 473l297 242l-180 235l114 94l183 -235l296 242l82 -107l-297 -242l181 -235l-117 -94l-180 235l-297 -241z" />
<glyph unicode="&#xd8;" horiz-adv-x="1503" d="M-20 115l190 153q-61 125 -61 262q0 315 208 576q229 283 592 283q287 0 459 -193l180 143l80 -104l-190 -148q51 -125 51 -262q0 -203 -85 -389t-230 -301q-199 -158 -480 -158q-287 0 -454 183l-191 -148zM299 520q0 -59 23 -135l899 702q-45 70 -132.5 112t-187.5 42 q-131 0 -250 -65.5t-200 -182.5q-152 -215 -152 -473zM383 270q127 -145 330 -145q229 0 379 172q207 233 206 551q0 55 -16 119z" />
<glyph unicode="&#xd9;" horiz-adv-x="1372" d="M197 336q0 68 22 164l168 727l-145 -4l34 147q90 -4 132 -4h200q37 0 129 4l-35 -147l-127 4l-157 -688q-31 -135 -31 -209q0 -90 71.5 -147.5t186.5 -57.5q84 0 155.5 36t110.5 99q70 104 133 381l136 586l-146 -4l33 147q92 -4 133 -4h162q39 0 131 4l-33 -147l-129 4 l-151 -652q-49 -211 -88 -304t-107 -160q-129 -133 -375 -134q-182 0 -297.5 100.5t-115.5 258.5zM676 1733h203l112 -244h-125z" />
<glyph unicode="&#xda;" horiz-adv-x="1372" d="M197 336q0 68 22 164l168 727l-145 -4l34 147q90 -4 132 -4h200q37 0 129 4l-35 -147l-127 4l-157 -688q-31 -135 -31 -209q0 -90 71.5 -147.5t186.5 -57.5q84 0 155.5 36t110.5 99q70 104 133 381l136 586l-146 -4l33 147q92 -4 133 -4h162q39 0 131 4l-33 -147l-129 4 l-151 -652q-49 -211 -88 -304t-107 -160q-129 -133 -375 -134q-182 0 -297.5 100.5t-115.5 258.5zM866 1489l185 244h211l-258 -244h-138z" />
<glyph unicode="&#xdb;" horiz-adv-x="1372" d="M197 336q0 68 22 164l168 727l-145 -4l34 147q90 -4 132 -4h200q37 0 129 4l-35 -147l-127 4l-157 -688q-31 -135 -31 -209q0 -90 71.5 -147.5t186.5 -57.5q84 0 155.5 36t110.5 99q70 104 133 381l136 586l-146 -4l33 147q92 -4 133 -4h162q39 0 131 4l-33 -147l-129 4 l-151 -652q-49 -211 -88 -304t-107 -160q-129 -133 -375 -134q-182 0 -297.5 100.5t-115.5 258.5zM643 1489l246 246h215l129 -246h-143l-97 172l-192 -172h-158z" />
<glyph unicode="&#xdc;" horiz-adv-x="1372" d="M197 336q0 68 22 164l168 727l-145 -4l34 147q90 -4 132 -4h200q37 0 129 4l-35 -147l-127 4l-157 -688q-31 -135 -31 -209q0 -90 71.5 -147.5t186.5 -57.5q84 0 155.5 36t110.5 99q70 104 133 381l136 586l-146 -4l33 147q92 -4 133 -4h162q39 0 131 4l-33 -147l-129 4 l-151 -652q-49 -211 -88 -304t-107 -160q-129 -133 -375 -134q-182 0 -297.5 100.5t-115.5 258.5zM645 1606q0 47 33 79.5t80 32.5q45 0 77.5 -33.5t32.5 -78.5t-33.5 -78t-78.5 -33t-78 33t-33 78zM1030 1606q0 47 33 79.5t80 32.5q45 0 77.5 -33.5t32.5 -78.5t-33.5 -78 t-78.5 -33t-78 33t-33 78z" />
<glyph unicode="&#xdd;" horiz-adv-x="1171" d="M147 1223l33 147q55 -4 101 -4h151q68 0 209 4l-33 -147l-137 4l182 -484l408 484l-154 -4l33 147q82 -4 186 -4h154q57 0 115 4l-33 -147l-113 4l-540 -647l-103 -441l144 4l-33 -147q-72 4 -142 4h-188q-63 0 -129 -4l35 147l125 -4l108 467l-243 621zM752 1489 l184 244h211l-258 -244h-137z" />
<glyph unicode="&#xde;" horiz-adv-x="1130" d="M4 -4l33 147l119 -4l252 1088l-138 -4l33 147q96 -4 135 -4h189q37 0 123 4l-33 -147l-121 4l-29 -121h21q178 0 257 -14.5t138 -59.5q145 -104 145 -301q0 -154 -80.5 -263.5t-220.5 -150.5q-90 -25 -374 -24h-72l-37 -154l152 4l-35 -147q-76 4 -150 4h-188 q-58 0 -119 -4zM412 434q29 2 59 2h158q145 0 227 78t82 217q0 137 -86 191q-39 25 -89 32t-183 9q-27 0 -45 2z" />
<glyph unicode="&#xdf;" horiz-adv-x="1181" d="M-43 -2l31 133l123 -2l143 614h-141l32 144h142l18 78q96 416 449 415q164 0 269 -86t105 -221q0 -141 -110 -223q-53 -39 -154 -66q215 -88 215 -333q0 -201 -115.5 -336t-287.5 -135q-111 0 -215 55l47 127q84 -39 143 -39q117 0 180 98q74 111 74 250 q0 70 -30.5 130.5t-81.5 94.5q-59 39 -170 47l30 129q18 -2 45 -2q121 0 188.5 49.5t67.5 139.5q0 74 -60 126t-146 52q-147 0 -228 -152q-33 -66 -80 -270l-157 -686l133 2l-31 -133q-66 2 -133 2h-170q-62 0 -125 -2z" />
<glyph unicode="&#xe0;" horiz-adv-x="1042" d="M39 264q0 139 107.5 226.5t279.5 87.5q129 0 287 -54l28 121q8 31 9 62q0 53 -48.5 88.5t-123.5 35.5q-154 0 -289 -124l-103 84q172 184 402 184q152 0 242 -68.5t90 -185.5q0 -37 -11 -88l-116 -504l131 2l-31 -133q-63 2 -131 2h-94q-33 0 -76 -2l20 90 q-139 -109 -286 -108q-121 0 -204 81.5t-83 202.5zM213 270q0 -66 44 -106.5t116 -40.5q115 0 274 113l39 172q-117 37 -240 36q-104 0 -168.5 -48t-64.5 -126zM397 1372h191l147 -287h-123z" />
<glyph unicode="&#xe1;" horiz-adv-x="1042" d="M39 264q0 139 107.5 226.5t279.5 87.5q129 0 287 -54l28 121q8 31 9 62q0 53 -48.5 88.5t-123.5 35.5q-154 0 -289 -124l-103 84q172 184 402 184q152 0 242 -68.5t90 -185.5q0 -37 -11 -88l-116 -504l131 2l-31 -133q-63 2 -131 2h-94q-33 0 -76 -2l20 90 q-139 -109 -286 -108q-121 0 -204 81.5t-83 202.5zM213 270q0 -66 44 -106.5t116 -40.5q115 0 274 113l39 172q-117 37 -240 36q-104 0 -168.5 -48t-64.5 -126zM549 1085l205 287h196l-272 -287h-129z" />
<glyph unicode="&#xe2;" horiz-adv-x="1042" d="M39 264q0 139 107.5 226.5t279.5 87.5q129 0 287 -54l28 121q8 31 9 62q0 53 -48.5 88.5t-123.5 35.5q-154 0 -289 -124l-103 84q172 184 402 184q152 0 242 -68.5t90 -185.5q0 -37 -11 -88l-116 -504l131 2l-31 -133q-63 2 -131 2h-94q-33 0 -76 -2l20 90 q-139 -109 -286 -108q-121 0 -204 81.5t-83 202.5zM213 270q0 -66 44 -106.5t116 -40.5q115 0 274 113l39 172q-117 37 -240 36q-104 0 -168.5 -48t-64.5 -126zM377 1087l278 285h168l135 -285h-137l-96 187l-201 -187h-147z" />
<glyph unicode="&#xe3;" horiz-adv-x="1042" d="M39 264q0 139 107.5 226.5t279.5 87.5q129 0 287 -54l28 121q8 31 9 62q0 53 -48.5 88.5t-123.5 35.5q-154 0 -289 -124l-103 84q172 184 402 184q152 0 242 -68.5t90 -185.5q0 -37 -11 -88l-116 -504l131 2l-31 -133q-63 2 -131 2h-94q-33 0 -76 -2l20 90 q-139 -109 -286 -108q-121 0 -204 81.5t-83 202.5zM213 270q0 -66 44 -106.5t116 -40.5q115 0 274 113l39 172q-117 37 -240 36q-104 0 -168.5 -48t-64.5 -126zM424 1112q20 86 41 129q18 39 56 64.5t73 25.5q45 0 172 -71q53 -31 76 -31q61 0 80 102h102 q-51 -223 -162 -223q-59 0 -211 84q-37 20 -59 20q-49 0 -68 -100h-100z" />
<glyph unicode="&#xe4;" horiz-adv-x="1044" d="M39 264q0 139 107.5 226.5t279.5 87.5q129 0 287 -54l28 121q8 31 9 62q0 53 -48.5 88.5t-123.5 35.5q-154 0 -289 -124l-103 84q172 184 402 184q152 0 242 -68.5t90 -185.5q0 -37 -11 -88l-116 -504l131 2l-31 -133q-63 2 -131 2h-94q-33 0 -76 -2l20 90 q-139 -109 -286 -108q-121 0 -204 81.5t-83 202.5zM213 270q0 -66 44 -106.5t116 -40.5q115 0 274 113l39 172q-117 37 -240 36q-104 0 -168.5 -48t-64.5 -126zM410 1221q0 45 30.5 76.5t75.5 31.5t77 -31.5t32 -76.5q0 -43 -32 -75t-77 -32q-43 0 -74.5 32t-31.5 75z M754 1221q0 45 30.5 76.5t75.5 31.5t77 -31.5t32 -76.5q0 -43 -32 -75t-77 -32q-43 0 -74.5 32t-31.5 75z" />
<glyph unicode="&#xe5;" horiz-adv-x="1042" d="M39 264q0 139 107.5 226.5t279.5 87.5q129 0 287 -54l28 121q8 31 9 62q0 53 -48.5 88.5t-123.5 35.5q-154 0 -289 -124l-103 84q172 184 402 184q152 0 242 -68.5t90 -185.5q0 -37 -11 -88l-116 -504l131 2l-31 -133q-63 2 -131 2h-94q-33 0 -76 -2l20 90 q-139 -109 -286 -108q-121 0 -204 81.5t-83 202.5zM213 270q0 -66 44 -106.5t116 -40.5q115 0 274 113l39 172q-117 37 -240 36q-104 0 -168.5 -48t-64.5 -126zM506 1233q0 74 52 126t128 52q72 0 124 -53t52 -125q0 -74 -52 -126t-126 -52t-126 52t-52 126zM604 1233 q0 -31 23.5 -54.5t54.5 -23.5q33 0 56.5 23.5t23.5 54.5q0 33 -23.5 56.5t-54.5 23.5q-33 0 -56.5 -23.5t-23.5 -56.5z" />
<glyph unicode="&#xe6;" horiz-adv-x="1695" d="M37 260q0 135 111.5 226.5t279.5 91.5q113 0 297 -54q33 131 33 176q0 63 -48 97t-139 34q-160 0 -276 -126l-107 81q160 188 408 189q242 0 297 -152q145 152 342 152q180 0 286.5 -125t106.5 -334q0 -47 -4 -80h-756q-2 -25 -2 -59q0 -115 70 -184.5t182 -69.5 q160 0 295 137l127 -65q-166 -215 -430 -215q-258 0 -362 215q-164 -215 -400 -215q-137 0 -224 77.5t-87 202.5zM211 270q0 -66 47 -106.5t123 -40.5q133 0 223 90q63 68 94 195q-111 35 -235 34q-113 0 -182.5 -48t-69.5 -124zM893 553h567q-2 123 -47 184q-70 94 -196 94 q-111 0 -201 -77.5t-123 -200.5z" />
<glyph unicode="&#xe7;" horiz-adv-x="1003" d="M63 406q0 231 152 400t363 169q180 0 284 -135l27 114h137q-57 -215 -76 -321h-135q-8 92 -68.5 145t-158.5 53q-154 0 -250 -137q-100 -143 -100 -309q0 -113 66.5 -187.5t166.5 -74.5q168 0 291 172l112 -74q-166 -242 -413 -241q-176 0 -287 119t-111 307zM246 -436 l20 84q41 4 70 31.5t35 66.5h-84l35 152h174l-29 -129q-45 -205 -221 -205z" />
<glyph unicode="&#xe8;" horiz-adv-x="1056" d="M63 397q0 240 153 409t370 169q182 0 292.5 -124t110.5 -327q0 -29 -6 -88h-754q-2 -25 -2 -55q0 -119 69 -188.5t183 -69.5q152 0 293 139l133 -63q-156 -219 -424 -219q-195 0 -306.5 112t-111.5 305zM256 553h567q-2 129 -67.5 203.5t-175.5 74.5q-139 0 -244 -124 q-51 -64 -80 -154zM379 1372h190l148 -287h-123z" />
<glyph unicode="&#xe9;" horiz-adv-x="1056" d="M63 397q0 240 153 409t370 169q182 0 292.5 -124t110.5 -327q0 -29 -6 -88h-754q-2 -25 -2 -55q0 -119 69 -188.5t183 -69.5q152 0 293 139l133 -63q-156 -219 -424 -219q-195 0 -306.5 112t-111.5 305zM256 553h567q-2 129 -67.5 203.5t-175.5 74.5q-139 0 -244 -124 q-51 -64 -80 -154zM543 1085l205 287h196l-272 -287h-129z" />
<glyph unicode="&#xea;" horiz-adv-x="1056" d="M63 397q0 240 153 409t370 169q182 0 292.5 -124t110.5 -327q0 -29 -6 -88h-754q-2 -25 -2 -55q0 -119 69 -188.5t183 -69.5q152 0 293 139l133 -63q-156 -219 -424 -219q-195 0 -306.5 112t-111.5 305zM256 553h567q-2 129 -67.5 203.5t-175.5 74.5q-139 0 -244 -124 q-51 -64 -80 -154zM356 1087l279 285h168l135 -285h-137l-96 187l-201 -187h-148z" />
<glyph unicode="&#xeb;" horiz-adv-x="1056" d="M63 397q0 240 153 409t370 169q182 0 292.5 -124t110.5 -327q0 -29 -6 -88h-754q-2 -25 -2 -55q0 -119 69 -188.5t183 -69.5q152 0 293 139l133 -63q-156 -219 -424 -219q-195 0 -306.5 112t-111.5 305zM256 553h567q-2 129 -67.5 203.5t-175.5 74.5q-139 0 -244 -124 q-51 -64 -80 -154zM393 1221q0 45 31 76.5t76 31.5t76.5 -31.5t31.5 -76.5q0 -43 -31.5 -75t-76.5 -32q-43 0 -75 32t-32 75zM737 1221q0 45 31 76.5t76 31.5t76.5 -31.5t31.5 -76.5q0 -43 -31.5 -75t-76.5 -32q-43 0 -75 32t-32 75z" />
<glyph unicode="&#xec;" horiz-adv-x="565" d="M-33 -2l31 133l121 -2l162 700l-138 -4l31 131q102 -2 135 -2h97q14 0 75 2l-192 -827l139 2l-31 -133q-92 2 -137 2h-170q-37 0 -123 -2zM131 1372h191l147 -287h-123z" />
<glyph unicode="&#xed;" horiz-adv-x="565" d="M-33 -2l31 133l121 -2l162 700l-138 -4l31 131q102 -2 135 -2h97q14 0 75 2l-192 -827l139 2l-31 -133q-92 2 -137 2h-170q-37 0 -123 -2zM344 1085l205 287h196l-272 -287h-129z" />
<glyph unicode="&#xee;" horiz-adv-x="565" d="M-33 -2l31 133l121 -2l162 700l-138 -4l31 131q102 -2 135 -2h97q14 0 75 2l-192 -827l139 2l-31 -133q-92 2 -137 2h-170q-37 0 -123 -2zM133 1087l252 285h168l106 -285h-135l-69 187l-174 -187h-148z" />
<glyph unicode="&#xef;" horiz-adv-x="565" d="M-33 -2l31 133l121 -2l162 700l-138 -4l31 131q102 -2 135 -2h97q14 0 75 2l-192 -827l139 2l-31 -133q-92 2 -137 2h-170q-37 0 -123 -2zM182 1221q0 45 31 76.5t76 31.5t76.5 -31.5t31.5 -76.5q0 -43 -31.5 -75t-76.5 -32q-43 0 -75 32t-32 75zM465 1221 q0 45 30.5 76.5t75.5 31.5t77 -31.5t32 -76.5q0 -43 -32 -75t-77 -32q-43 0 -74.5 32t-31.5 75z" />
<glyph unicode="&#xf0;" horiz-adv-x="1083" d="M59 389q0 236 158 408t373 172q72 0 160 -49q-68 131 -158 221l-180 -92l-68 77l172 93q-31 27 -35 32q-41 39 -67 54l102 86q43 -29 133 -105l172 92l74 -80l-174 -90q301 -332 301 -635q0 -137 -58.5 -268t-154.5 -207q-145 -119 -342 -118q-186 0 -297 111.5 t-111 297.5zM233 381q0 -117 68 -187.5t178 -70.5q137 0 232 104q137 150 137 355q0 113 -63.5 181t-168.5 68q-158 0 -270.5 -133t-112.5 -317z" />
<glyph unicode="&#xf1;" horiz-adv-x="1136" d="M-33 -2l31 133l121 -2l162 700l-140 -4l31 131q102 -2 137 -2h86q20 0 86 2l-28 -120q160 139 338 139q94 0 159.5 -59.5t65.5 -145.5q0 -68 -29 -201l-100 -440l137 2l-31 -133q-92 2 -119 2h-79q-27 0 -109 -2l139 604q18 80 19 131q0 43 -38 70.5t-95 27.5 q-158 0 -299 -176l-123 -526l141 2l-31 -133q-94 2 -139 2h-170q-37 0 -123 -2zM446 1112q20 86 41 129q18 39 56.5 64.5t72.5 25.5q45 0 172 -71q53 -31 76 -31q61 0 80 102h103q-51 -223 -162 -223q-59 0 -211 84q-37 20 -60 20q-49 0 -67 -100h-101z" />
<glyph unicode="&#xf2;" horiz-adv-x="1083" d="M59 387q0 244 165 416t401 172q176 0 286.5 -110.5t110.5 -289.5q0 -139 -58.5 -269t-154.5 -208q-145 -119 -342 -118q-186 0 -297 110.5t-111 296.5zM233 381q0 -117 68 -187.5t178 -70.5q137 0 232 104q137 150 137 355q0 113 -63.5 181t-168.5 68q-158 0 -270.5 -133 t-112.5 -317zM403 1372h191l147 -287h-123z" />
<glyph unicode="&#xf3;" horiz-adv-x="1083" d="M59 387q0 244 165 416t401 172q176 0 286.5 -110.5t110.5 -289.5q0 -139 -58.5 -269t-154.5 -208q-145 -119 -342 -118q-186 0 -297 110.5t-111 296.5zM233 381q0 -117 68 -187.5t178 -70.5q137 0 232 104q137 150 137 355q0 113 -63.5 181t-168.5 68q-158 0 -270.5 -133 t-112.5 -317zM582 1085l204 287h197l-272 -287h-129z" />
<glyph unicode="&#xf4;" horiz-adv-x="1083" d="M59 387q0 244 165 416t401 172q176 0 286.5 -110.5t110.5 -289.5q0 -139 -58.5 -269t-154.5 -208q-145 -119 -342 -118q-186 0 -297 110.5t-111 296.5zM233 381q0 -117 68 -187.5t178 -70.5q137 0 232 104q137 150 137 355q0 113 -63.5 181t-168.5 68q-158 0 -270.5 -133 t-112.5 -317zM377 1087l278 285h168l135 -285h-137l-96 187l-201 -187h-147z" />
<glyph unicode="&#xf5;" horiz-adv-x="1083" d="M59 387q0 244 165 416t401 172q176 0 286.5 -110.5t110.5 -289.5q0 -139 -58.5 -269t-154.5 -208q-145 -119 -342 -118q-186 0 -297 110.5t-111 296.5zM233 381q0 -117 68 -187.5t178 -70.5q137 0 232 104q137 150 137 355q0 113 -63.5 181t-168.5 68q-158 0 -270.5 -133 t-112.5 -317zM424 1112q20 86 41 129q18 39 56 64.5t73 25.5q45 0 172 -71q53 -31 76 -31q61 0 80 102h102q-51 -223 -162 -223q-59 0 -211 84q-37 20 -59 20q-49 0 -68 -100h-100z" />
<glyph unicode="&#xf6;" horiz-adv-x="1083" d="M59 387q0 244 165 416t401 172q176 0 286.5 -110.5t110.5 -289.5q0 -139 -58.5 -269t-154.5 -208q-145 -119 -342 -118q-186 0 -297 110.5t-111 296.5zM233 381q0 -117 68 -187.5t178 -70.5q137 0 232 104q137 150 137 355q0 113 -63.5 181t-168.5 68q-158 0 -270.5 -133 t-112.5 -317zM426 1221q0 45 30.5 76.5t76 31.5t77 -31.5t31.5 -76.5q0 -43 -31.5 -75t-77.5 -32q-43 0 -74.5 32t-31.5 75zM770 1221q0 45 30.5 76.5t76 31.5t77 -31.5t31.5 -76.5q0 -43 -31.5 -75t-76.5 -32q-43 0 -75 32t-32 75z" />
<glyph unicode="&#xf7;" d="M188 610l33 144h723l-33 -144h-723zM408 356q0 39 28.5 67t67.5 28q37 0 64.5 -28t27.5 -67t-27.5 -66.5t-66.5 -27.5t-66.5 27.5t-27.5 66.5zM545 1010q0 39 28.5 66.5t67.5 27.5q37 0 64.5 -27.5t27.5 -66.5t-27.5 -67t-66.5 -28t-66.5 28t-27.5 67z" />
<glyph unicode="&#xf8;" horiz-adv-x="1083" d="M-39 88l135 109q-37 100 -37 196q0 238 165 410t394 172q190 0 308 -125l133 104l63 -84l-137 -110q37 -90 37 -185q0 -139 -58.5 -269t-154.5 -208q-145 -119 -342 -118q-201 0 -313 131l-131 -105zM233 395q0 -23 11 -88l551 445q-68 80 -181 79q-162 0 -270 -135 q-111 -143 -111 -301zM289 213q70 -90 192 -90q137 0 232 104q61 70 99 162t38 174q0 23 -10 88z" />
<glyph unicode="&#xf9;" horiz-adv-x="1130" d="M111 825l30 131q94 -2 135 -2h111q16 0 62 2l-138 -587q-16 -76 -16 -125q0 -121 133 -121q137 0 301 170l123 536l-145 -4l28 131q92 -2 133 -2h109l45 2q16 0 31 -2l-191 -825l129 2l-30 -133q-63 2 -130 2h-104q-12 0 -65 -2l26 121q-180 -139 -332 -139 q-104 0 -170.5 68.5t-66.5 174.5q0 51 12 101l117 505zM414 1372h190l148 -287h-123z" />
<glyph unicode="&#xfa;" horiz-adv-x="1130" d="M111 825l30 131q94 -2 135 -2h111q16 0 62 2l-138 -587q-16 -76 -16 -125q0 -121 133 -121q137 0 301 170l123 536l-145 -4l28 131q92 -2 133 -2h109l45 2q16 0 31 -2l-191 -825l129 2l-30 -133q-63 2 -130 2h-104q-12 0 -65 -2l26 121q-180 -139 -332 -139 q-104 0 -170.5 68.5t-66.5 174.5q0 51 12 101l117 505zM586 1085l205 287h196l-272 -287h-129z" />
<glyph unicode="&#xfb;" horiz-adv-x="1130" d="M111 825l30 131q94 -2 135 -2h111q16 0 62 2l-138 -587q-16 -76 -16 -125q0 -121 133 -121q137 0 301 170l123 536l-145 -4l28 131q92 -2 133 -2h109l45 2q16 0 31 -2l-191 -825l129 2l-30 -133q-63 2 -130 2h-104q-12 0 -65 -2l26 121q-180 -139 -332 -139 q-104 0 -170.5 68.5t-66.5 174.5q0 51 12 101l117 505zM381 1087l278 285h168l136 -285h-138l-96 187l-201 -187h-147z" />
<glyph unicode="&#xfc;" horiz-adv-x="1130" d="M111 825l30 131q94 -2 135 -2h111q16 0 62 2l-138 -587q-16 -76 -16 -125q0 -121 133 -121q137 0 301 170l123 536l-145 -4l28 131q92 -2 133 -2h109l45 2q16 0 31 -2l-191 -825l129 2l-30 -133q-63 2 -130 2h-104q-12 0 -65 -2l26 121q-180 -139 -332 -139 q-104 0 -170.5 68.5t-66.5 174.5q0 51 12 101l117 505zM426 1221q0 45 30.5 76.5t76 31.5t77 -31.5t31.5 -76.5q0 -43 -31.5 -75t-77.5 -32q-43 0 -74.5 32t-31.5 75zM770 1221q0 45 30.5 76.5t76 31.5t77 -31.5t31.5 -76.5q0 -43 -31.5 -75t-76.5 -32q-43 0 -75 32t-32 75z " />
<glyph unicode="&#xfd;" horiz-adv-x="989" d="M-74 -430l31 133l156 -4l180 293l-92 837l-123 -4l31 131q37 -2 90 -2h155q98 0 162 2l-31 -131l-125 4l60 -651l375 651l-131 -4l30 131q45 -2 144 -2h147q74 0 115 2l-31 -131l-111 4l-763 -1259q-23 2 -72 2h-123q-47 0 -74 -2zM557 1085l205 287h196l-272 -287h-129z " />
<glyph unicode="&#xfe;" horiz-adv-x="1161" d="M-152 -430l31 133l119 -2l354 1540l-137 -4l31 131q96 -2 135 -2h94q16 0 68 2l-119 -516q135 123 309 123q164 0 267.5 -111.5t103.5 -292.5q0 -250 -151.5 -420.5t-370.5 -170.5q-180 0 -316 149l-98 -428l141 2l-30 -133q-43 2 -140 2h-172q-82 0 -119 -2zM328 344 q0 -96 66.5 -158.5t168.5 -62.5q193 0 303 196q66 119 66 244q0 119 -66.5 195t-169.5 76q-135 0 -239 -115q-53 -61 -91 -170t-38 -205z" />
<glyph unicode="&#xff;" horiz-adv-x="989" d="M-74 -430l31 133l156 -4l180 293l-92 837l-123 -4l31 131q37 -2 90 -2h155q98 0 162 2l-31 -131l-125 4l60 -651l375 651l-131 -4l30 131q45 -2 144 -2h147q74 0 115 2l-31 -131l-111 4l-763 -1259q-23 2 -72 2h-123q-47 0 -74 -2zM381 1221q0 45 30.5 76.5t75.5 31.5 t77 -31.5t32 -76.5q0 -43 -32 -75t-77 -32q-43 0 -74.5 32t-31.5 75zM725 1221q0 45 30.5 76.5t76 31.5t77 -31.5t31.5 -76.5q0 -43 -31.5 -75t-77.5 -32q-43 0 -74.5 32t-31.5 75z" />
<glyph unicode="&#x152;" horiz-adv-x="1982" d="M104 555q0 180 82 353t220 282q231 182 573 182q16 0 188 -4q55 -2 199 -2h555q76 0 156 4q-35 -111 -103 -444h-155l69 299h-532l-107 -459h449l-33 -141h-448l-111 -484h543l69 305h156q-49 -172 -105 -450q-80 4 -153 4h-543q-111 0 -155 -2q-152 -6 -207 -6 q-279 0 -443 151.5t-164 411.5zM295 543q0 -193 131 -299.5t369 -106.5q61 0 123 4l249 1084q-188 0 -246.5 -4t-144.5 -25q-207 -47 -344 -233.5t-137 -419.5z" />
<glyph unicode="&#x153;" horiz-adv-x="1738" d="M-25 379q0 246 164 421t393 175q268 0 351 -225q152 225 393 225q176 0 287 -121q106 -121 106 -338q0 -47 -4 -80h-747q-6 -47 -7 -78q0 -102 74 -168.5t186 -66.5q82 0 160 37t125 98l127 -68q-72 -100 -181.5 -155t-238.5 -55q-272 0 -364 221q-164 -221 -412 -221 q-186 0 -299 108.5t-113 290.5zM150 391q0 -121 69.5 -194.5t183.5 -73.5q154 0 264.5 132t110.5 314q0 119 -65.5 190.5t-175.5 71.5q-160 0 -273.5 -129t-113.5 -311zM942 553h569v29q0 109 -70.5 179t-176.5 70q-109 0 -196 -75.5t-126 -202.5z" />
<glyph unicode="&#x178;" horiz-adv-x="1171" d="M147 1223l33 147q55 -4 101 -4h151q68 0 209 4l-33 -147l-137 4l182 -484l408 484l-154 -4l33 147q82 -4 186 -4h154q57 0 115 4l-33 -147l-113 4l-540 -647l-103 -441l144 4l-33 -147q-72 4 -142 4h-188q-63 0 -129 -4l35 147l125 -4l108 467l-243 621zM547 1606 q0 47 32.5 79.5t79.5 32.5q45 0 78 -33.5t33 -78.5t-34 -78t-79 -33t-77.5 33t-32.5 78zM932 1606q0 47 32.5 79.5t79.5 32.5q45 0 78 -33.5t33 -78.5t-34 -78t-79 -33t-77.5 33t-32.5 78z" />
<glyph unicode="&#x2c6;" d="M334 1087l278 285h168l135 -285h-137l-96 187l-201 -187h-147z" />
<glyph unicode="&#x2dc;" d="M326 1112q20 86 41 129q18 39 56 64.5t73 25.5q45 0 172 -71q53 -31 75 -31q61 0 80 102h103q-51 -223 -162 -223q-59 0 -211 84q-37 20 -59 20q-49 0 -68 -100h-100z" />
<glyph unicode="&#x2000;" horiz-adv-x="901" />
<glyph unicode="&#x2001;" horiz-adv-x="1802" />
<glyph unicode="&#x2002;" horiz-adv-x="901" />
<glyph unicode="&#x2003;" horiz-adv-x="1802" />
<glyph unicode="&#x2004;" horiz-adv-x="600" />
<glyph unicode="&#x2005;" horiz-adv-x="450" />
<glyph unicode="&#x2006;" horiz-adv-x="299" />
<glyph unicode="&#x2007;" horiz-adv-x="299" />
<glyph unicode="&#x2008;" horiz-adv-x="225" />
<glyph unicode="&#x2009;" horiz-adv-x="360" />
<glyph unicode="&#x200a;" horiz-adv-x="98" />
<glyph unicode="&#x2010;" horiz-adv-x="462" d="M-14 422l34 151h463l-34 -151h-463z" />
<glyph unicode="&#x2011;" horiz-adv-x="462" d="M-14 422l34 151h463l-34 -151h-463z" />
<glyph unicode="&#x2012;" horiz-adv-x="462" d="M-14 422l34 151h463l-34 -151h-463z" />
<glyph unicode="&#x2013;" d="M100 422l35 151h797l-35 -151h-797z" />
<glyph unicode="&#x2014;" horiz-adv-x="1404" d="M-14 422l34 151h1405l-34 -151h-1405z" />
<glyph unicode="&#x2018;" horiz-adv-x="438" d="M211 893l49 215q37 164 89 220t175 61l-20 -89q-63 -8 -91 -41.5t-48 -125.5h86l-56 -240h-184z" />
<glyph unicode="&#x2019;" horiz-adv-x="432" d="M205 872l20 89q63 8 91 40.5t49 124.5h-86l55 240h184l-49 -215q-25 -106 -38 -142t-38 -67q-66 -72 -170 -72q-10 0 -18 2z" />
<glyph unicode="&#x201a;" horiz-adv-x="432" d="M-55 -254l20 88q61 6 92 42t45 124h-84l56 240h184l-49 -215q-27 -111 -39 -146t-37 -63q-61 -72 -172 -72q-10 0 -16 2z" />
<glyph unicode="&#x201c;" horiz-adv-x="759" d="M211 893l49 215q37 164 89 220t175 61l-20 -89q-63 -8 -91 -41.5t-48 -125.5h86l-56 -240h-184zM532 893l50 215q37 164 89 220t175 61l-21 -89q-61 -8 -89.5 -42.5t-47.5 -124.5h84l-55 -240h-185z" />
<glyph unicode="&#x201d;" horiz-adv-x="759" d="M213 872l20 89q63 8 91 40.5t49 124.5h-86l55 240h184l-49 -215q-25 -106 -38 -142t-38 -67q-66 -72 -170 -72q-10 0 -18 2zM535 872l20 89q63 8 91 40.5t48 124.5h-86l56 240h184l-49 -215q-27 -115 -38 -147.5t-38 -61.5q-66 -72 -170 -72q-10 0 -18 2z" />
<glyph unicode="&#x201e;" horiz-adv-x="759" d="M-47 -254l20 88q61 6 92 42t46 124h-84l55 240h184l-49 -215q-27 -111 -39 -146t-37 -63q-61 -72 -172 -72q-10 0 -16 2zM274 -254l21 88q63 6 93 42t46 124h-86l55 240h185l-49 -215q-27 -115 -38.5 -148t-37.5 -61q-61 -72 -172 -72q-9 0 -17 2z" />
<glyph unicode="&#x2022;" horiz-adv-x="1366" d="M401 692q0 119 84 202t205 83q113 0 196 -84t83 -199q0 -119 -83 -201.5t-200 -82.5t-201 82.5t-84 199.5z" />
<glyph unicode="&#x2026;" horiz-adv-x="1284" d="M10 0l56 240h182l-55 -240h-183zM438 0l56 240h182l-55 -240h-183zM866 0l56 240h182l-55 -240h-183z" />
<glyph unicode="&#x202f;" horiz-adv-x="360" />
<glyph unicode="&#x2039;" horiz-adv-x="665" d="M109 571l376 383h183l-406 -413l207 -518h-152z" />
<glyph unicode="&#x203a;" horiz-adv-x="665" d="M-2 23l405 413l-206 518h151l209 -548l-377 -383h-182z" />
<glyph unicode="&#x205f;" horiz-adv-x="450" />
<glyph unicode="&#x20ac;" horiz-adv-x="1755" d="M106 502l80 127h154q4 51 20 114h-202l80 127h163q53 121 129 211q117 139 289 223.5t346 84.5q250 0 400 -156l30 133h144q-20 -72 -94 -408h-144v25q0 111 -96 184.5t-242 73.5q-162 0 -311.5 -100.5t-241.5 -270.5h774l-79 -127h-748q-18 -63 -25 -114h697l-80 -127 h-619q16 -170 125 -273.5t269 -103.5q137 0 262 74.5t211 208.5l133 -111q-117 -154 -272.5 -237t-327.5 -83q-252 0 -412 142.5t-178 382.5h-234z" />
<glyph unicode="&#x2122;" horiz-adv-x="1867" d="M182 1069l11 37l59 262q39 -2 84 -2h477q49 0 102 2q-16 -55 -69 -299h-103l48 205h-166l-136 -594l89 2l-23 -96q-43 2 -86 2h-121q-41 0 -84 -2l23 96l75 -2l138 594h-170l-47 -205h-101zM842 586l22 96l76 -2l137 594l-88 -2l21 96q66 -2 88 -2h92q35 0 74 2l108 -573 l369 573q27 -2 65 -2h113q35 0 80 2l-23 -96l-71 2l-138 -594l84 2l-22 -96q-43 2 -88 2h-115q-39 0 -82 -2l23 96l73 -2l129 557l-423 -649h-50l-129 651l-129 -559l90 2l-22 -96q-43 2 -86 2h-94q-41 0 -84 -2z" />
<glyph unicode="&#xe000;" horiz-adv-x="955" d="M0 955h955v-955h-955v955z" />
<glyph unicode="&#xfb01;" horiz-adv-x="1159" d="M-37 -2l31 133l123 -2l162 700l-144 -4l31 131l143 -2q51 199 82 263q88 170 260 169q96 0 191 -53l-51 -125q-70 35 -119 35q-72 0 -115 -64.5t-78 -224.5h518q14 0 76 2l-190 -827l137 2l-31 -133q-92 2 -137 2h-170q-37 0 -123 -2l31 133l121 -2l161 700h-421 l-162 -700l133 2l-31 -133q-66 2 -133 2h-170q-62 0 -125 -2zM907 1290q0 49 34 83t83 34q47 0 82 -35t35 -82t-35 -81.5t-82 -34.5t-82 34.5t-35 81.5z" />
<glyph unicode="&#xfb02;" horiz-adv-x="1159" d="M-35 -2l31 133l123 -2l162 700l-144 -2l31 131l143 -2q51 201 82 261q88 172 260 172q94 0 191 -54l-51 -125q-76 35 -119 35q-72 0 -115 -63.5t-78 -225.5l133 2l-30 -131l-131 2l-162 -700l133 2l-31 -133q-66 2 -133 2h-170q-62 0 -125 -2zM569 -2l31 133l115 -2 l258 1112l-135 -4l30 131q92 -2 133 -2h97q45 0 76 4l-287 -1241l141 2l-31 -133q-70 2 -141 2h-170q-58 0 -117 -2z" />
<glyph unicode="&#xfb03;" horiz-adv-x="1757" d="M-37 -2l31 133l123 -2l162 700l-144 -4l31 131l143 -2q51 199 82 263q88 170 260 169q96 0 191 -53l-51 -125q-70 35 -119 35q-72 0 -115 -64.5t-78 -224.5h426q53 201 84 263q88 170 258 169q100 0 191 -53l-52 -125q-70 35 -118 35q-72 0 -114 -63.5t-79 -225.5h520 q16 0 78 2l-192 -827l139 2l-31 -133q-92 2 -137 2h-172q-35 0 -121 -2l31 133l121 -2l162 700h-426l-162 -700l133 2l-31 -133q-66 2 -131 2h-172q-61 0 -125 -2l31 133l125 -2l162 700h-426l-162 -700l133 2l-31 -133q-66 2 -133 2h-170q-62 0 -125 -2zM1505 1290 q0 49 34 83t83 34q47 0 82 -35t35 -82t-35 -81.5t-82 -34.5t-82 34.5t-35 81.5z" />
<glyph unicode="&#xfb04;" horiz-adv-x="1755" d="M-37 -2l31 133l123 -2l162 700l-144 -4l31 131l143 -2q51 199 82 263q88 170 260 169q96 0 191 -53l-51 -125q-70 35 -119 35q-72 0 -115 -64.5t-78 -224.5h426q53 201 84 263q88 170 258 169q100 0 191 -53l-52 -125q-70 35 -118 35q-72 0 -114 -63.5t-79 -225.5l133 2 l-30 -131l-131 4l-162 -700l133 2l-31 -133q-66 2 -131 2h-172q-61 0 -125 -2l31 133l125 -2l162 700h-426l-162 -700l133 2l-31 -133q-66 2 -133 2h-170q-62 0 -125 -2zM1163 -2l31 133l117 -2l256 1112l-135 -4l30 131q92 -2 133 -2h97q45 0 75 4l-286 -1241l143 2 l-31 -133q-70 2 -141 2h-172q-58 0 -117 -2z" />
</font>
</defs>
</svg>
