<?xml version="1.0" standalone="no"?>
<!DOCTYPE svg PUBLIC "-//W3C//DTD SVG 1.1//EN" "http://www.w3.org/Graphics/SVG/1.1/DTD/svg11.dtd" >
<svg xmlns="http://www.w3.org/2000/svg">
<metadata>
This is a custom SVG webfont generated by Font Squirrel.
Copyright   : Typeface  FontSite Inc 19962008 All Rights Reserved wwwfontsitecom
Designer    : FontSitecom
Foundry URL : httpwwwfontsitecom
</metadata>
<defs>
<font id="webfontATTf0zzv" horiz-adv-x="1024" >
<font-face units-per-em="2048" ascent="1610" descent="-438" />
<missing-glyph horiz-adv-x="512" />
<glyph unicode=" "  horiz-adv-x="512" />
<glyph unicode="&#x09;" horiz-adv-x="512" />
<glyph unicode="&#xa0;" horiz-adv-x="512" />
<glyph unicode="!" horiz-adv-x="536" d="M199 0v199h194v-199h-194zM203 745v293h190v-293l-35 -337h-125z" />
<glyph unicode="&#x22;" horiz-adv-x="598" d="M82 1366h151l-20 -547h-111zM365 1366h151l-20 -547h-111z" />
<glyph unicode="#" d="M115 453l16 106h174l39 248h-174l18 106h172l72 453h119l-72 -453h219l72 453h121l-72 -453h168l-18 -106h-168l-39 -248h174l-18 -106h-173l-71 -453h-119l72 453h-221l-72 -453h-119l72 453h-172zM422 559h221l39 248h-221z" />
<glyph unicode="$" d="M66 1024q0 156 99 252t271 104v164h117v-178q109 -25 199 -104l-4 104h151q-8 -96 -8 -154q0 -8 1 -32.5t3 -65.5t2 -82l2 -82h-151q4 113 -42.5 175.5t-152.5 88.5v-434q195 -82 274 -147q129 -102 129 -264q0 -123 -63.5 -220.5t-171.5 -142.5q-68 -27 -168 -29v-167 h-117v186q-80 25 -116.5 44t-98.5 71l4 -115h-149q4 84 4 213q0 164 -4 262h149q2 -20 2 -47q-8 -219 209 -285v502l-35 12q-106 39 -150 62.5t-85 62.5q-100 94 -100 246zM240 1032q0 -70 39.5 -111.5t156.5 -95.5v402q-94 -14 -145 -64.5t-51 -130.5zM553 129 q94 10 137 43q82 55 82 178q0 90 -49 145.5t-170 102.5v-469z" />
<glyph unicode="%" horiz-adv-x="1521" d="M47 1030q0 166 67.5 259t186.5 93q113 0 179.5 -94t66.5 -254q0 -170 -67.5 -268t-182.5 -98q-117 0 -183.5 96t-66.5 266zM160 1022q0 -121 35.5 -191.5t99.5 -70.5q66 0 102.5 71.5t36.5 200.5q0 119 -37 188.5t-98 69.5q-66 0 -102.5 -69.5t-36.5 -198.5zM266 12 l879 1403l104 -63l-878 -1401zM975 346q0 166 67.5 259t186.5 93q113 0 179.5 -94t66.5 -254q0 -170 -68 -268t-182 -98q-117 0 -183.5 96t-66.5 266zM1087 338q0 -121 36 -191.5t100 -70.5q66 0 102.5 71.5t36.5 200.5q0 119 -37 188.5t-98 69.5q-66 0 -103 -69.5 t-37 -198.5z" />
<glyph unicode="&#x26;" horiz-adv-x="1120" d="M74 307q0 106 60.5 182t197.5 146q-74 98 -74 188q0 100 70.5 168t179.5 68q111 0 182.5 -63.5t71.5 -161.5q0 -78 -44 -132.5t-153 -111.5l172 -234q49 92 76 224q66 -2 76 -2h88h31q6 2 43 2v-138l-129 2q-20 -100 -93 -211l72 -98l148 4v-141q-68 2 -82 2h-68 q-23 0 -43 -2h-45l-82 115q-135 -133 -299 -133q-150 0 -253 95t-103 232zM236 324q0 -80 62 -141.5t144 -61.5q98 0 197 106l-223 297q-180 -75 -180 -200zM418 831.5q0 -40.5 61 -126.5q78 39 103.5 64.5t25.5 64t-26.5 64.5t-67.5 26q-45 0 -70.5 -26t-25.5 -66.5z" />
<glyph unicode="'" horiz-adv-x="315" d="M82 1366h151l-20 -547h-111z" />
<glyph unicode="(" horiz-adv-x="681" d="M80 485q0 442 244 729q98 121 266 187v-160q-121 -59 -193 -178q-135 -219 -135 -569q0 -371 144 -594q61 -98 184 -170v-158q-156 59 -264 186q-246 291 -246 727z" />
<glyph unicode=")" horiz-adv-x="681" d="M94 -270q121 70 185 170q143 227 143 594q0 350 -135 569q-72 119 -193 178v160q168 -66 266 -187q244 -287 244 -731q0 -434 -246 -725q-104 -123 -264 -188v160z" />
<glyph unicode="*" d="M102 1006l52 157l315 -141l-37 344h166l-37 -342l316 139l51 -157l-338 -70l231 -258l-135 -98l-170 301l-172 -299l-135 96l231 256z" />
<glyph unicode="+" d="M150 610v144h284v290h156v-290h282v-144h-282v-288h-156v288h-284z" />
<glyph unicode="," horiz-adv-x="440" d="M123 -145q41 8 62.5 48t19.5 97h-74v199h197v-189q0 -127 -49.5 -193.5t-155.5 -86.5v125z" />
<glyph unicode="-" horiz-adv-x="432" d="M0 434v154h432v-154h-432z" />
<glyph unicode="." horiz-adv-x="440" d="M123 0v199h194v-199h-194z" />
<glyph unicode="/" horiz-adv-x="911" d="M-16 -395l684 1761h166l-684 -1761h-166z" />
<glyph unicode="0" horiz-adv-x="1079" d="M76 524q0 260 124 403.5t349 143.5q168 0 289 -102q164 -143 163 -434q0 -262 -124.5 -415t-339.5 -153q-213 0 -337 150.5t-124 406.5zM260 514q0 -180 74 -284.5t201 -104.5q133 0 207.5 107.5t74.5 295.5q0 178 -72.5 281.5t-199.5 103.5q-137 0 -211 -103t-74 -296z " />
<glyph unicode="1" horiz-adv-x="778" d="M84 889v158q182 -4 213 -5q53 0 195 5v-900l219 5v-156q-90 4 -222 4h-178q-119 0 -223 -4v156l219 -5v744z" />
<glyph unicode="2" d="M68 -4q4 170 115.5 294t377.5 261q94 49 129 87t35 93q0 76 -56.5 125t-146.5 49q-109 0 -172 -69.5t-63 -190.5v-33l-181 4q6 158 56 248q51 94 147.5 146.5t216.5 52.5q168 0 275.5 -91t107.5 -235q0 -137 -121 -229q-39 -29 -182 -107q-305 -162 -319 -251h477v151 h149q-6 -96 -6 -168q0 -80 2 -137q-78 4 -198 4h-447q-73 0 -196 -4z" />
<glyph unicode="3" d="M41 109l176 12q2 -154 73.5 -235t207.5 -81q123 0 195.5 69t72.5 185q0 115 -77 184.5t-204 69.5q-35 0 -92 -8v168q45 -6 66 -6q106 0 170.5 61.5t64.5 163.5q0 96 -55 154.5t-147 58.5q-100 0 -150.5 -59.5t-60.5 -190.5l-172 9q14 180 98 278q106 129 295 129 q168 0 272.5 -100.5t104.5 -261.5q0 -209 -199 -310q109 -33 168 -88q102 -96 102 -250q0 -186 -125 -303.5t-323 -117.5q-209 0 -330 123t-131 346z" />
<glyph unicode="4" d="M37 143l573 916h168v-916h174v-143h-174v-328h-178v328h-479zM215 143h385v658z" />
<glyph unicode="5" d="M59 76l177 18q12 -115 55 -186q66 -109 207 -109q121 0 198.5 87t77.5 220q0 131 -69.5 214t-180.5 83q-156 0 -262 -147l-131 86l55 700q137 -4 156 -4h418q31 0 133 4q-4 -98 -4 -170q0 -70 4 -170h-150v187h-413l-35 -424q129 96 270 96q135 0 244 -86 q150 -123 149 -352q0 -242 -151 -373q-127 -109 -307 -108q-233 0 -355 176q-63 90 -86 258z" />
<glyph unicode="6" d="M80 629q0 371 121 570.5t346 199.5q203 0 311 -156q59 -84 76 -250l-174 -8q-18 256 -207 256q-127 0 -203 -128t-84 -357q84 74 151.5 104.5t149.5 30.5q168 0 274.5 -122t106.5 -312q0 -219 -116.5 -354.5t-303.5 -135.5q-199 0 -313 144q-135 170 -135 518zM266 602 q0 -139 21 -244q20 -109 83.5 -171t153.5 -62q109 0 174.5 86t65.5 229q0 135 -64.5 214t-175.5 79q-139 0 -258 -131z" />
<glyph unicode="7" horiz-adv-x="942" d="M53 674q2 121 2 151l-2 168v49q86 -4 189 -4h473q47 0 170 4v-151q-100 -121 -187.5 -297t-128.5 -344q-49 -209 -47 -578h-182q-2 401 81 675t281 534h-497v-207h-152z" />
<glyph unicode="8" d="M51 381q0 121 55.5 201t182.5 143q-109 59 -155 129t-46 174q0 162 120 266.5t308 104.5q182 0 299 -102.5t117 -264.5q0 -121 -76 -209q-37 -43 -127 -94q104 -43 156 -98q90 -96 90 -250q0 -182 -128 -298t-329 -116q-209 0 -338 114t-129 300zM236 393 q0 -117 78.5 -192.5t199.5 -75.5t199 75.5t78 194.5q0 113 -78 184.5t-199 71.5q-127 0 -202.5 -70.5t-75.5 -187.5zM260 1012q0 -96 69.5 -157.5t178.5 -61.5q113 0 181.5 60t68.5 161q0 98 -70 162.5t-176 64.5q-111 0 -181.5 -64.5t-70.5 -164.5z" />
<glyph unicode="9" d="M80 592q0 209 117.5 344t300.5 135q219 0 331.5 -173t112.5 -511q0 -416 -164 -606q-55 -66 -138 -103.5t-169 -37.5q-113 0 -202 55t-136 151q-33 70 -47 207l174 8q14 -264 211 -264q156 0 229 174q43 98 56 322q-147 -135 -307 -135t-264.5 123t-104.5 311zM264 606 q0 -131 60.5 -211t162.5 -80q143 0 271 136q0 94 -17 208q-16 119 -80.5 186.5t-160.5 67.5q-106 0 -171 -85t-65 -222z" />
<glyph unicode=":" horiz-adv-x="495" d="M178 0v199h195v-199h-195zM178 752v198h195v-198h-195z" />
<glyph unicode=";" horiz-adv-x="495" d="M178 -145q41 8 62.5 48t19.5 97h-74v199h197v-189q0 -127 -49 -193.5t-156 -86.5v125zM184 752v198h195v-198h-195z" />
<glyph unicode="&#x3c;" d="M86 707v14l852 543v-88l-614 -398l614 -411v-232z" />
<glyph unicode="=" d="M158 457v143h706v-143h-706zM158 766v143h706v-143h-706z" />
<glyph unicode="&#x3e;" d="M86 135v88l614 398l-614 409v234l852 -572v-14z" />
<glyph unicode="?" horiz-adv-x="765" d="M82 707q2 162 61 237q90 115 250 115q135 0 220 -84t85 -219q0 -121 -71.5 -202t-184.5 -89l-6 -164h-127q-4 170 -24 313q53 -18 88 -18q74 0 120 45t46 117q0 70 -43 113.5t-111 43.5q-70 0 -108.5 -44t-38.5 -126q0 -23 2 -38h-158zM279 0v199h194v-199h-194z" />
<glyph unicode="@" horiz-adv-x="1484" d="M49 506q0 299 210 503.5t515 204.5q285 0 473.5 -174t188.5 -436q0 -197 -105.5 -345t-245.5 -148q-66 0 -106.5 37.5t-42.5 101.5q-94 -143 -252 -144q-127 0 -209 94.5t-82 241.5q0 174 105.5 297t255.5 123q176 0 233 -172l29 148l90 -2l-86 -443q-12 -57 -12 -92 q0 -45 23.5 -71.5t62.5 -26.5q96 0 169.5 119.5t73.5 277.5q0 227 -158.5 374.5t-404.5 147.5q-262 0 -442 -179t-180 -439q0 -254 170 -434q176 -182 473 -183q227 0 440 103l31 -90q-217 -104 -469 -105q-334 0 -541 203q-98 98 -152.5 231.5t-54.5 276.5zM502 444 q0 -106 55 -171.5t143 -65.5q104 0 175 99.5t71 244.5q0 96 -49 153.5t-135 57.5q-106 0 -183 -93.5t-77 -224.5z" />
<glyph unicode="A" horiz-adv-x="1388" d="M0 -4v154l162 -5l368 1078l-170 -4v151q94 -4 205 -4h279q70 0 196 4v-151l-170 4l357 -1078l162 5v-154q-123 4 -142 4h-203q-61 0 -178 -4v154l164 -5l-110 355h-449l-115 -355l166 5v-154l-57 2q-61 2 -113 2h-215q-41 0 -137 -4zM516 637h363l-179 575z" />
<glyph unicode="B" horiz-adv-x="1202" d="M66 -4v154l170 -5v1076l-170 -4v153q137 -4 170 -4h174l194 2h10q226 0 334 -96q106 -96 107 -258q0 -213 -197 -289q262 -86 262 -334q0 -96 -41 -179t-112 -132q-120 -82 -369 -82h-12l-195 2h-155q-41 0 -170 -4zM426 147q27 -2 61 -2q233 0 322 45q106 53 106 203 q0 125 -75.5 184.5t-235.5 59.5h-178v-490zM426 780h59q219 0 298 45t79 172q0 121 -69.5 171.5t-243.5 50.5h-123v-439z" />
<glyph unicode="C" horiz-adv-x="1472" d="M84 670q0 311 190.5 516t479.5 205q143 0 247.5 -49.5t196.5 -159.5l-6 184h156q-8 -207 -9 -274q0 -86 4 -195h-155q-33 154 -123 229q-123 102 -303 103q-209 0 -341 -153.5t-132 -395.5q0 -244 134 -392.5t355 -148.5q350 0 463 393l156 -92q-78 -223 -241 -343 t-390 -120q-305 0 -493.5 192t-188.5 501z" />
<glyph unicode="D" horiz-adv-x="1441" d="M66 -4v154l170 -5v1076l-170 -4v153q123 -4 165 -4h189l192 2h23q161 0 267 -28q114 -30 204 -97q252 -186 252 -567q0 -385 -252 -565q-88 -63 -194 -89q-98 -24 -254 -24h-25l-217 2h-185q-44 0 -165 -4zM426 147q51 -2 131 -2q158 0 239 14.5t148 55.5 q100 59 154.5 179t54.5 278q0 199 -83 335t-232 183q-96 31 -310 31q-57 0 -102 -2v-1072z" />
<glyph unicode="E" horiz-adv-x="1269" d="M66 -4v154l170 -5v1076l-170 -4v153q129 -4 167 -4h730q131 0 204 4q-2 -141 -2 -213q0 -82 2 -203h-163l4 265h-582v-449h481v-147h-481v-476h588l-6 269h161q-2 -92 -2 -230q0 -123 2 -190q-137 4 -163 4h-773q-42 0 -167 -4z" />
<glyph unicode="F" horiz-adv-x="1185" d="M66 -4v154l170 -5v1078l-170 -2v149q129 -4 167 -4h662q127 0 229 4q-2 -127 -2 -182q0 -86 4 -227h-159l4 258h-545v-449h395v-147h-395v-478l172 5v-154q-113 4 -164 4h-198q-45 0 -170 -4z" />
<glyph unicode="G" horiz-adv-x="1536" d="M84 678q0 276 156 465q92 113 234 179.5t294 66.5q141 0 249.5 -46.5t215.5 -150.5l-2 174h155q-8 -201 -8 -319q0 -76 4 -152h-153q-41 141 -113 207q-131 125 -342 125q-213 0 -349 -150.5t-136 -384.5q0 -242 142 -397.5t366 -155.5q186 0 310 104.5t146 282.5h-309 v148h524q-12 -313 -157 -479q-90 -102 -231.5 -160t-303.5 -58q-303 0 -497.5 197t-194.5 504z" />
<glyph unicode="H" horiz-adv-x="1443" d="M66 -4v151l170 -2v1076l-170 -4v153q133 -4 167 -4h195q45 0 92 2l78 2v-153l-172 4v-424h592v424l-172 -4v153l76 -2q47 -2 94 -2h194q47 0 168 4v-153l-170 4v-1076l170 2v-151q-121 4 -168 4h-194q-27 0 -170 -4v151l172 -2v504h-592v-504l172 2v-151q-33 2 -78 2 q-45 2 -92 2h-195q-40 0 -167 -4z" />
<glyph unicode="I" horiz-adv-x="663" d="M66 -4v154l170 -5v1076l-170 -4v153q152 -4 167 -4h195q39 0 170 4v-153l-172 4v-1076l172 5v-154q-127 4 -170 4h-195q-34 0 -167 -4z" />
<glyph unicode="J" horiz-adv-x="649" d="M-68 -223q68 -27 123 -27q100 0 146 66q35 51 35 194v1211l-170 -4v153q119 -4 163 -4h199q45 0 170 4v-153l-172 4v-1203q0 -121 -14.5 -184t-51.5 -119q-92 -127 -276 -127q-68 0 -152 19v170z" />
<glyph unicode="K" horiz-adv-x="1335" d="M66 -4v154l170 -5v1076l-170 -4v153q119 -4 163 -4h195q37 0 174 4v-153l-172 4v-1076l172 5v-154q-135 4 -174 4h-195q-46 0 -163 -4zM434 713l475 508l-129 -4v153q106 -4 142 -4h237q57 0 121 4v-153l-172 4l-467 -490l506 -586l147 2v-151q-84 4 -127 4h-215 q-98 0 -172 -4v151l140 -2z" />
<glyph unicode="L" horiz-adv-x="1142" d="M66 1217v153q131 -4 170 -4h192q41 0 170 4v-153l-172 4v-1074h492v125q0 213 -3 320h168q-6 -125 -6 -424q0 -20 4 -172q-59 0 -65 2l-164 2h-614q-45 0 -170 -4v154l168 -5v1076z" />
<glyph unicode="M" horiz-adv-x="1861" d="M66 -4v154l170 -5v1076l-168 -4v153q129 -4 170 -4h151q31 0 60 2l57 2l426 -1038l426 1038q102 -4 137 -4h129q41 0 166 4v-153l-166 4v-1076l166 5v-154q-123 4 -166 4h-199q-51 0 -161 -4v154l170 -5v1031l-486 -1176h-76l-483 1182v-1037l170 5v-154q-109 4 -162 4 h-157q-41 0 -174 -4z" />
<glyph unicode="N" horiz-adv-x="1488" d="M66 -4v154l170 -5v1076l-170 -4v153q145 -4 174 -4h86q33 0 131 4l657 -1091l-2 944l-170 -4v151q139 -4 172 -4h150q37 0 172 4v-153l-170 4v-1229h-181l-696 1147v-994l170 5v-154q-125 4 -170 4h-151q-41 0 -172 -4z" />
<glyph unicode="O" horiz-adv-x="1542" d="M84 682q0 369 254 563q186 143 446 144q297 0 486.5 -199t189.5 -508q0 -311 -193.5 -508t-500.5 -197q-301 0 -491.5 197t-190.5 508zM289 682q0 -242 135 -392.5t352 -150.5q213 0 346 150.5t133 392.5q0 244 -132 394.5t-345 150.5q-223 0 -356 -148.5t-133 -396.5z " />
<glyph unicode="P" horiz-adv-x="1191" d="M66 -4v154l170 -5v1076l-170 -4v153q139 -4 170 -4h161q270 0 332 -3t127 -24q135 -41 209 -142t74 -249q0 -240 -185 -350q-66 -39 -137.5 -53.5t-200.5 -14.5q-131 0 -190 2v-387l178 5v-154q-123 4 -178 4h-190q-41 0 -170 -4zM426 678q98 -2 137 -2q182 0 260 43 q53 29 85 91t32 136q0 154 -106 221q-74 49 -295 50h-113v-539z" />
<glyph unicode="Q" horiz-adv-x="1540" d="M84 688q0 309 192.5 505t497.5 196q301 0 492.5 -196t191.5 -503q0 -360 -250 -563q-137 -111 -334 -141l39 -17l78 -35q92 -39 168 -38q72 0 123 16l-61 -162q-27 -2 -60 -2q-66 0 -125 18.5t-223 88.5q-78 33 -135 32q-92 0 -180 -71l-84 100q61 53 159 88 q-236 72 -362.5 249t-126.5 435zM289 680q0 -242 134 -392.5t349 -150.5q213 0 347 149.5t134 387.5q0 248 -131 400.5t-344 152.5q-225 0 -357 -147.5t-132 -399.5z" />
<glyph unicode="R" horiz-adv-x="1263" d="M66 -4v154l170 -5v1076l-170 -4v153q145 -4 174 -4h184h121q41 0 86 1t47 1q211 0 313 -76q135 -96 135 -278q0 -162 -106 -262q-53 -47 -160 -86l246 -521l145 5v-154q-55 4 -90 4h-78q-45 0 -108 -4l-303 651h-246v-502l172 5v-154q-102 4 -160 4h-198q-39 0 -174 -4z M426 795q121 -2 195 -2q176 0 239 57q61 57 62 158q0 57 -25 105t-63 71q-68 35 -285 35q-70 0 -123 -2v-422z" />
<glyph unicode="S" horiz-adv-x="1089" d="M96 1028q0 156 107.5 258.5t271.5 102.5q178 0 307 -127l-2 104h156q-6 -121 -6 -176q0 -78 6 -234h-156q-2 86 -13 122t-46 71q-88 88 -219 88q-100 0 -164 -55.5t-64 -145.5q0 -102 105 -162q49 -29 223 -88q215 -76 306 -170t91 -239q0 -174 -115.5 -288t-291.5 -114 q-121 0 -215 50q-41 20 -119 92l6 -117h-155q6 117 6 188q0 135 -9 289h154v-53q0 -141 88 -213q92 -74 215 -74q111 0 180.5 64.5t69.5 167.5q0 94 -65.5 152.5t-243.5 121.5q-135 47 -185.5 69.5t-99.5 61.5q-123 98 -123 254z" />
<glyph unicode="T" horiz-adv-x="1216" d="M53 864q2 74 2 445v61q82 -4 256 -4h576q125 0 278 4q-2 -96 -2 -223q0 -188 4 -277h-159v349h-301v-1074l217 5v-154q-127 4 -172 4h-279q-43 0 -172 -4v154l215 -5v1074h-307l2 -355h-158z" />
<glyph unicode="U" horiz-adv-x="1353" d="M45 1219v151q133 -4 170 -4h180q31 0 183 4v-153l-172 4v-793q0 -289 282 -289q164 0 238 97q33 43 44 97t11 163v725l-172 -4v153q156 -4 178 -4h148q39 0 174 4v-153l-170 4v-740q0 -158 -27 -239.5t-96 -145.5q-131 -119 -342 -119q-217 0 -338 112t-121 312v822z" />
<glyph unicode="V" horiz-adv-x="1341" d="M0 1217v153q51 -4 129 -4h211q98 0 178 4v-153l-164 4l334 -945l318 945l-170 -4v153q70 -4 176 -4h202q31 0 127 4v-151l-153 4l-426 -1229h-158l-444 1227z" />
<glyph unicode="W" horiz-adv-x="1953" d="M0 1217v153q63 -4 135 -4h211q106 0 172 4v-153l-164 4l246 -902l238 902l-166 -4v153q68 -4 162 -4h315q86 0 151 4v-153l-157 4l237 -902l248 902l-168 -4v153q70 -4 164 -4h207q66 0 123 4v-153l-162 4l-326 -1225h-172l-317 1182l-313 -1182h-170l-328 1225z" />
<glyph unicode="X" horiz-adv-x="1384" d="M45 -4v154l172 -5l363 545l-351 531l-172 -4v153q70 -4 140 -4h204q119 0 205 4v-153l-153 4l252 -385l251 385l-159 -4l2 153q76 -4 168 -4h221q70 0 133 4v-153l-178 4l-342 -523l368 -553l172 5v-154q-55 4 -114 4h-250q-100 0 -186 -4v154l153 -5l-268 408l-270 -408 l157 5v-154q-66 4 -170 4h-231q-64 0 -117 -4z" />
<glyph unicode="Y" horiz-adv-x="1288" d="M0 1217v153q94 -4 141 -4h221q80 0 189 4v-153l-156 4l273 -455l266 455l-152 -2v151q84 -4 189 -4h188q74 0 131 4v-153l-166 4l-381 -615v-461l191 2v-151q-123 4 -170 4h-227q-43 0 -172 -4v151l188 -2v461l-379 615z" />
<glyph unicode="Z" horiz-adv-x="1130" d="M68 -4v147l741 1076h-549l4 -281h-153q4 70 4 178q0 139 -4 254q127 -4 219 -4h467q131 0 233 4v-139l-754 -1077h629l-4 284h150q-2 -78 -2 -186q0 -96 2 -256q-90 4 -228 4h-493q-158 0 -262 -4z" />
<glyph unicode="[" horiz-adv-x="681" d="M139 -395v1761h451v-129h-277v-1503h277v-129h-451z" />
<glyph unicode="\" horiz-adv-x="876" d="M86 1366h166l684 -1761h-166z" />
<glyph unicode="]" horiz-adv-x="681" d="M92 -266h277v1503h-277v129h451v-1761h-451v129z" />
<glyph unicode="^" d="M-53 582l571 852h14l545 -852h-88l-397 614l-412 -614h-233z" />
<glyph unicode="_" d="M0 -182h1024v-101h-1024v101z" />
<glyph unicode="`" d="M213 1462h193l188 -286h-131z" />
<glyph unicode="a" horiz-adv-x="1130" d="M0 -2v141l147 -4l263 768l-144 -2v139q88 -2 191 -2h233q53 0 182 2v-141l-143 2l252 -766l149 4l-2 -141q-127 2 -141 2h-149q-51 0 -170 -2v141l139 -4l-72 234h-338l-73 -234l139 4v-141q-131 2 -164 2h-158q-32 0 -141 -2zM440 500h254l-125 401z" />
<glyph unicode="b" horiz-adv-x="1007" d="M66 -2v139l149 -2v768l-149 -2v139q104 -2 147 -2h160h61q16 0 40 1t26 1q197 0 286 -75q90 -74 91 -199q0 -176 -187 -215q236 -51 236 -250q0 -156 -123 -240q-94 -63 -307 -63h-74q-20 0 -47 1t-29 1h-133q-41 0 -147 -2zM385 139q18 -2 41 -2q182 0 246 31 q74 37 73 137q0 86 -55 126t-174 40q-27 0 -131 -2v-330zM385 606h39q168 0 224.5 30t56.5 116q0 84 -50.5 116.5t-179.5 32.5q-53 0 -90 -2v-293z" />
<glyph unicode="c" horiz-adv-x="1187" d="M82 510q0 236 149.5 392.5t372.5 156.5q213 0 326 -146l-2 123h143q-6 -168 -6 -217q0 -78 4 -157h-141q-27 121 -94 174q-86 74 -224 73q-154 0 -251 -109.5t-97 -283.5t98.5 -280.5t262.5 -106.5q260 0 346 301l143 -84q-61 -178 -189 -272t-309 -94q-238 0 -385 146 t-147 384z" />
<glyph unicode="d" horiz-adv-x="1183" d="M66 -2v139l149 -2v768l-149 -2v139q104 -2 147 -2h182q205 0 284 -10t152 -45q268 -129 269 -471q0 -295 -197 -428q-72 -47 -153.5 -66.5t-219.5 -19.5q-6 0 -37.5 1t-48.5 1h-65h-166q-41 0 -147 -2zM385 137h94q121 0 180.5 10.5t108.5 38.5q152 88 152 326 q0 141 -60.5 237.5t-169.5 129.5q-74 23 -231 22q-41 0 -74 -2v-762z" />
<glyph unicode="e" horiz-adv-x="1062" d="M66 -2v141l149 -4v768l-149 -4v141q104 -2 147 -2h582q102 0 168 4q-4 -133 -5 -176q0 -55 5 -161h-154l4 194h-428v-301h377v-139h-377v-320h432l-4 199h150q-2 -72 -2 -186q0 -94 2 -156q-121 4 -136 4h-614q-41 0 -147 -2z" />
<glyph unicode="f" horiz-adv-x="989" d="M66 -2v139l149 -2v768l-149 -4v141q104 -2 147 -2h530q102 0 187 4q-2 -113 -2 -151q0 -66 2 -182h-148l2 190h-399v-301h313v-137h-313v-326l152 2v-139q-106 2 -150 2h-174q-41 0 -147 -2z" />
<glyph unicode="g" horiz-adv-x="1228" d="M82 516q0 231 151.5 387t380.5 156q217 0 342 -141l-2 120h148q-8 -176 -8 -252q0 -63 4 -127h-142q-20 115 -112 182.5t-226 67.5q-156 0 -256 -107.5t-100 -275.5q0 -174 104.5 -285.5t268.5 -111.5q133 0 225 71.5t109 188.5h-226v139h418q-8 -252 -123 -381 q-150 -168 -417 -167q-236 0 -387.5 150t-151.5 386z" />
<glyph unicode="h" horiz-adv-x="1206" d="M66 -2v139l149 -2v768l-149 -4v141q104 -2 147 -2h174q41 0 150 2v-141l-152 4v-285h434v285l-149 -4v141q104 -2 147 -2h174q41 0 150 2v-141l-152 4v-768l152 2v-139q-106 2 -150 2h-174q-41 0 -147 -2v139l149 -2v344h-434v-344l152 2v-139q-106 2 -150 2h-174 q-41 0 -147 -2z" />
<glyph unicode="i" horiz-adv-x="602" d="M66 -2v139l149 -2v768l-149 -2v139q104 -2 147 -2h174q41 0 150 2v-139l-152 2v-768l152 2v-139q-106 2 -150 2h-174q-41 0 -147 -2z" />
<glyph unicode="j" horiz-adv-x="587" d="M-23 -127q68 -31 119 -31q61 0 94 43q25 29 25 138v880l-149 -2v139q104 -2 147 -2h174q41 0 150 2v-139l-152 2v-874q0 -162 -53 -236q-72 -100 -221 -100q-51 0 -134 20v160z" />
<glyph unicode="k" horiz-adv-x="1118" d="M66 -2v139l149 -2v768l-149 -2v139q104 -2 147 -2h174q41 0 150 2v-139l-152 2v-768l152 2v-139q-106 2 -150 2h-174q-41 0 -147 -2zM387 541l332 360l-98 -2v141q123 -2 143 -2h176q63 0 127 2v-141l-160 4l-329 -348l360 -420l139 2v-139q-106 2 -133 2h-158 q-88 0 -165 -2v139l108 -2z" />
<glyph unicode="l" horiz-adv-x="958" d="M66 -2v139l149 -2v768l-149 -4v141q104 -2 147 -2h174q41 0 150 2v-141l-152 4v-764h360q2 43 3 80q0 158 -5 248h156q-4 -135 -4 -332q0 -74 2 -137h-63l-123 2h-498q-41 0 -147 -2z" />
<glyph unicode="m" horiz-adv-x="1513" d="M66 -2v139l149 -2v768l-149 -2v139q104 -2 147 -2h145q2 0 15.5 1t25.5 1q29 0 54 2l303 -749l301 749q49 -4 119 -4h110q29 0 162 2v-139l-150 2v-768l150 2v-139q-106 2 -148 2h-174q-41 0 -149 -2v139l151 -2v744l-362 -879h-61l-361 879v-744l152 2v-139 q-106 2 -150 2h-133q-41 0 -147 -2z" />
<glyph unicode="n" horiz-adv-x="1234" d="M66 -2v139l149 -2v768l-149 -2v139q104 -2 147 -2h86q20 0 102 4l502 -809v670l-149 -2v139q104 -2 147 -2h133q41 0 150 2v-139l-152 2v-909h-155l-533 848v-707l152 2v-139q-106 2 -150 2h-133q-41 0 -147 -2z" />
<glyph unicode="o" horiz-adv-x="1236" d="M82 518q0 242 150.5 391.5t394.5 149.5q231 0 379.5 -151.5t148.5 -389t-150.5 -388t-390.5 -150.5q-236 0 -384 150t-148 388zM264 518q0 -174 99.5 -281.5t259.5 -107.5q158 0 255 107.5t97 281.5q0 176 -96.5 283.5t-253.5 107.5q-164 0 -262.5 -106.5t-98.5 -284.5z " />
<glyph unicode="p" horiz-adv-x="993" d="M66 -2v139l149 -2v768l-149 -2v139q104 -2 147 -2h135q217 0 265.5 -3t101.5 -17q106 -31 165.5 -110t59.5 -193.5t-62.5 -196.5t-172.5 -110q-59 -16 -265 -17q-31 0 -55 2v-258l152 2v-139q-106 2 -150 2h-174q-41 0 -147 -2zM385 530q55 -2 98 -2q137 0 199 31 q37 18 59.5 60.5t22.5 93.5q0 102 -76 151q-51 33 -219 33h-84v-367z" />
<glyph unicode="q" horiz-adv-x="1236" d="M82 518q0 240 150.5 390.5t388.5 150.5q236 0 385 -150.5t149 -388.5q0 -162 -73.5 -286.5t-211.5 -192.5q-66 -35 -137 -47l17 -4l41 -15q57 -23 112 -22q61 0 117 22l-59 -159q-25 -2 -54 -2q-51 0 -96 14t-168 68q-51 23 -94 22q-61 0 -135 -59l-80 96q47 41 98 57 q-156 37 -253 178.5t-97 327.5zM264 518q0 -174 99.5 -281.5t259.5 -107.5q156 0 253 107.5t97 281.5q0 176 -96.5 283.5t-253.5 107.5q-164 0 -261.5 -106.5t-97.5 -284.5z" />
<glyph unicode="r" horiz-adv-x="1056" d="M66 -2v139l149 -2v768l-149 -2v139q104 -2 147 -2h170h80q33 0 68.5 1t39.5 1q164 0 250 -59q111 -76 111 -215q0 -197 -219 -270l196 -361l138 4v-141q-86 2 -105 2h-59q-39 0 -88 -2l-252 479h-158v-342l152 2v-139q-106 2 -150 2h-174q-41 0 -147 -2zM385 616 q76 -2 143 -2q119 0 171.5 34t52.5 110q0 86 -62 116q-49 25 -221 25h-84v-283z" />
<glyph unicode="s" horiz-adv-x="911" d="M96 774q0 125 88 205t226 80q156 0 219 -98v77h145q-6 -109 -6 -147q0 -47 6 -186h-145q2 4 2 12q0 96 -43 139q-68 61 -164 62q-74 0 -120 -38t-46 -100q0 -68 74 -108q41 -20 170 -64q170 -57 243.5 -129.5t73.5 -187.5q0 -137 -94 -225.5t-240 -88.5q-154 0 -237 101 l4 -78h-148q6 98 7 154q0 98 -9 227h146v-4v-19v-30q0 -100 63 -150q68 -51 158 -51q80 0 131 44t51 114q0 66 -48 104.5t-181 83.5q-104 35 -144 52.5t-81 47.5q-101 76 -101 201z" />
<glyph unicode="t" horiz-adv-x="985" d="M51 637q2 70 2 346q0 33 -2 59q74 -4 207 -4h451q90 0 221 4q-2 -72 -2 -188q0 -137 4 -211h-148l-2 256h-207v-764l152 2v-139q-106 2 -149 2h-175q-41 0 -147 -2v139l150 -2v764h-209l2 -262h-148z" />
<glyph unicode="u" horiz-adv-x="1124" d="M45 901v139q104 -2 148 -2h174q41 0 149 2v-139l-151 2v-571q0 -203 213 -203q125 0 182 68q41 45 41 184v522l-152 -2v139q106 -2 150 -2h133q41 0 147 2v-139l-149 2v-534q0 -119 -20.5 -182.5t-78.5 -114.5q-102 -92 -270 -92q-174 0 -270 87t-96 244v592z" />
<glyph unicode="v" horiz-adv-x="1095" d="M0 899v139h135h154h172v-139l-137 4l235 -678l227 678l-143 -4v141q70 -2 170 -2h150q23 0 133 2v-139l-142 2l-329 -907h-150l-330 907z" />
<glyph unicode="w" horiz-adv-x="1548" d="M0 899v141q68 -2 137 -2h129q88 0 152 2v-141l-113 4l174 -643l164 643l-113 -4v141q68 -2 158 -2h184q92 0 158 2v-141l-108 4l165 -641l175 641l-117 -4v141q68 -2 147 -2h127q68 0 129 2v-141l-133 4l-252 -905h-149l-240 909l-237 -909h-150l-252 905z" />
<glyph unicode="x" horiz-adv-x="1175" d="M45 -2l2 141l158 -4l280 385l-272 383l-158 -4v141q72 -2 142 -2h151q102 0 189 2v-141l-123 4l168 -256l174 256l-127 -4v141q78 -2 164 -2h161q66 0 138 2v-141l-162 4l-266 -364l284 -404l182 4v-141q-74 2 -147 2h-184q-72 0 -201 -2v141l147 -4l-180 275l-186 -275 l127 4v-141q-70 2 -164 2h-170q-68 0 -127 -2z" />
<glyph unicode="y" horiz-adv-x="1058" d="M0 899v141q98 -2 143 -2h162q66 0 180 2v-141l-129 4l189 -307l184 307l-125 -2v139q113 -2 178 -2h142q72 0 135 2v-141l-156 4l-289 -450v-318l150 2v-139q-106 2 -148 2h-174q-41 0 -149 -2v139l151 -2v328l-286 440z" />
<glyph unicode="z" horiz-adv-x="927" d="M66 -4v129l561 774h-389l4 -207h-146q4 61 4 146q0 94 -2 204q84 -4 176 -4h371q104 0 189 4v-122l-572 -777h449l-2 211h141q-4 -72 -4 -155q0 -63 4 -203q-78 4 -184 4h-392q-122 0 -208 -4z" />
<glyph unicode="{" horiz-adv-x="681" d="M141 422v127q66 20 91.5 60t25.5 124v328q0 145 43 219q49 86 195 86h100v-123q-84 0 -131 -29q-57 -37 -57 -165v-324q0 -100 -28 -152.5t-95 -87.5q68 -35 95.5 -87t27.5 -152v-324q0 -131 57 -168q41 -27 119 -26h12v-123h-100q-145 0 -195 86q-43 74 -43 219v328 q0 84 -25.5 125t-91.5 59z" />
<glyph unicode="|" d="M449 -342v1708h129v-1708h-129z" />
<glyph unicode="}" horiz-adv-x="681" d="M86 -272q84 0 131 28q57 37 57 166v324q0 100 28 152.5t95 86.5q-68 35 -95.5 87.5t-27.5 152.5v324q0 131 -57 168q-41 27 -119 26h-12v123h100q145 0 195 -86q43 -74 43 -219v-328q0 -84 25.5 -125t91.5 -59v-127q-66 -20 -91.5 -60t-25.5 -124v-328q0 -145 -43 -219 q-49 -86 -195 -86h-100v123z" />
<glyph unicode="~" horiz-adv-x="1366" d="M258 1272q119 205 281 205q51 0 180 -43q109 -39 162 -39q109 0 194 108l33 -20q-49 -90 -126 -146.5t-153 -56.5q-43 0 -182 47q-119 39 -176 39q-53 0 -86 -20.5t-94 -94.5z" />
<glyph unicode="&#xa1;" horiz-adv-x="536" d="M143 840v198h195v-198h-195zM145 0v293l35 338h125l31 -338v-293h-191z" />
<glyph unicode="&#xa2;" d="M35 692q0 205 119.5 345.5t308.5 152.5v164h117v-164q143 -23 241 -127l-4 113h141q-6 -119 -6 -181q0 -53 6 -196h-141q-8 96 -70.5 158.5t-166.5 76.5v-684q170 8 266 203l141 -74q-127 -258 -407 -282v-189h-117v189q-119 16 -203 69q-106 66 -165.5 178.5 t-59.5 247.5zM209 696q0 -166 100 -262q57 -55 154 -76v676q-102 -23 -154 -73q-100 -97 -100 -265z" />
<glyph unicode="&#xa3;" d="M47 186q0 88 56.5 144.5t142.5 56.5q68 0 147 -51q4 45 4 49q0 94 -51 219h-272v129h215q-57 121 -75.5 180.5t-18.5 128.5q0 158 104 253.5t276 95.5q201 0 304 -140q53 -74 67 -256l-164 -6q-2 111 -34 170q-57 100 -181 101q-88 0 -143 -52.5t-55 -136.5 q0 -61 16 -115.5t70 -179.5l16 -43h307v-129h-274q29 -109 28 -211q0 -66 -16 -141q82 -66 133 -91.5t101 -25.5q63 0 100 59.5t37 159.5v31l119 -4q0 -403 -250 -404q-66 0 -129.5 31t-163.5 113q-47 -76 -96.5 -107.5t-116.5 -31.5q-88 0 -145.5 57t-57.5 147zM162 188.5 q0 -34.5 25.5 -60.5t60.5 -26q84 0 119 107l-9 8q-59 53 -116 53q-35 0 -57.5 -23.5t-22.5 -58z" />
<glyph unicode="&#xa4;" d="M135 412l115 114l-10 21q-29 51 -36 73.5t-7 63.5q0 10 1 18.5t1 14.5t3 15t3 12.5t6 14.5t7 15t9 21l13 24l10 21l-115 114l107 107l114 -115l21 10q80 41 112 43h23q51 0 123 -36q10 -4 14 -7l21 -10l114 115l107 -107l-115 -114l10 -21q29 -55 35 -75.5t6 -59.5 q0 -41 -6 -61.5t-35 -75.5l-10 -21l115 -114l-107 -107l-114 115q-92 -51 -158 -51q-70 0 -156 51l-114 -115zM301 686q0 -88 61.5 -150.5t149.5 -62.5t149.5 62.5t61.5 148.5q0 88 -61.5 149.5t-149.5 61.5q-86 0 -148.5 -61.5t-62.5 -147.5z" />
<glyph unicode="&#xa5;" d="M6 1214v154q92 -2 107 -2h163q57 0 164 4v-156l-137 5l223 -566l211 566l-137 -5v156q51 -4 127 -4h193q27 0 100 2v-154l-127 3l-162 -429h133v-129h-182l-53 -145h235v-129h-256v-238l183 5v-156q-119 4 -164 4h-219q-41 0 -166 -4v156l182 -5v238h-264v129h260 l-58 145h-202v129h147l-178 429z" />
<glyph unicode="&#xa6;" d="M449 313h129v-655h-129v655zM449 672v694h129v-694h-129z" />
<glyph unicode="&#xa7;" horiz-adv-x="1114" d="M76 575q0 188 184 269q-66 59 -91.5 109.5t-25.5 119.5q0 145 111 232.5t297 87.5q238 0 352 -156q33 -45 47.5 -95t22.5 -145h-172q-6 240 -248 240q-115 0 -177.5 -42t-62.5 -118t66 -123q29 -23 174 -84l207 -90q274 -121 274 -334q0 -86 -41 -146t-137 -114 q125 -113 125 -278q0 -152 -113.5 -242t-306.5 -90q-211 0 -327.5 101.5t-116.5 285.5v23h170q2 -131 71.5 -194.5t210.5 -63.5q117 0 180.5 48t63.5 138q0 84 -49 133q-31 33 -156 90l-231 107q-172 78 -236.5 148t-64.5 183zM240 575q0 -63 71 -112q18 -14 146 -74 l262 -121q82 45 115.5 85t33.5 96q0 100 -166 176l-303 135q-159 -60 -159 -185z" />
<glyph unicode="&#xa8;" d="M231 1307q0 45 33 76.5t78 31.5q43 0 75 -31.5t32 -76.5t-32 -77t-77 -32t-77 32t-32 77zM575 1307q0 45 32 76.5t79 31.5q43 0 75 -31.5t32 -76.5t-32 -77t-77 -32t-77 32t-32 77z" />
<glyph unicode="&#xa9;" horiz-adv-x="1562" d="M68 682q0 299 209.5 507t513.5 208q287 0 494.5 -211t207.5 -504q0 -295 -209 -504t-504 -209q-293 0 -502.5 210t-209.5 503zM156 682q0 -260 184 -446.5t440 -186.5q258 0 441.5 186.5t183.5 448.5q0 258 -182.5 445.5t-434.5 187.5q-266 0 -449 -184.5t-183 -450.5z M391 682q0 176 112.5 293t282.5 117q158 0 250 -105l-2 90h105q-6 -117 -6 -157q0 -61 4 -117h-103q-23 92 -71 131q-66 55 -170 55q-119 0 -194 -84t-75 -217q0 -135 76 -216t201 -81q203 0 264 225l104 -59q-47 -131 -143 -200.5t-231 -69.5q-180 0 -292 109.5t-112 285.5 z" />
<glyph unicode="&#xaa;" horiz-adv-x="681" d="M41 643v78h641v-78h-641zM80 987q0 78 59.5 128t151.5 50q66 0 153 -35v48q0 109 -122 108q-96 0 -134 -76l-94 25q25 66 89.5 102.5t156.5 36.5q111 0 170 -55q47 -41 47 -145v-267l86 2v-92q-61 2 -90 2h-61q-25 0 -48 -2v53q-78 -59 -168 -59q-84 0 -140 50t-56 126z M199 987q0 -37 26.5 -61.5t67.5 -24.5q68 0 151 66v73q-88 37 -139 37q-47 0 -76.5 -24.5t-29.5 -65.5z" />
<glyph unicode="&#xab;" horiz-adv-x="1105" d="M76 508l340 461h188l-336 -461l336 -465h-188zM477 508l338 461h191l-338 -461l338 -465h-191z" />
<glyph unicode="&#xac;" d="M70 451v96h882v-547h-221v451h-661z" />
<glyph unicode="&#xad;" horiz-adv-x="432" d="M0 434v154h432v-154h-432z" />
<glyph unicode="&#xae;" horiz-adv-x="1562" d="M68 682q0 299 209.5 507t513.5 208q287 0 494.5 -211t207.5 -504q0 -295 -209 -504t-504 -209q-293 0 -502.5 210t-209.5 503zM156 682q0 -260 184 -446.5t440 -186.5q258 0 441.5 186.5t183.5 448.5q0 258 -182.5 445.5t-434.5 187.5q-266 0 -449 -184.5t-183 -450.5z M430 299v98l98 -2v590l-98 -2v98q84 -2 107 -2h108h70q18 0 35.5 1t27.5 1h13q127 0 186 -43q82 -59 82 -161q0 -145 -152 -201l135 -281l88 2v-98q-37 2 -59 2h-45q-14 0 -68 -2l-174 363h-131v-267l99 2v-98q-68 2 -99 2h-116q-19 0 -107 -2zM653 760q66 -2 107 -2 q88 0 127 27.5t39 86.5q0 68 -47 93q-37 18 -162 18h-64v-223z" />
<glyph unicode="&#xaf;" d="M233 1235v125h560v-125h-560z" />
<glyph unicode="&#xb0;" horiz-adv-x="665" d="M49 1106q0 113 84 193.5t201 80.5t199.5 -81.5t82.5 -196.5t-82.5 -197t-199.5 -82q-119 0 -202 82t-83 201zM141 1104q0 -80 56.5 -135.5t136.5 -55.5q78 0 134 55.5t56 133.5t-56 133t-134 55t-135.5 -55t-57.5 -131z" />
<glyph unicode="&#xb1;" d="M158 160v143h706v-143h-706zM158 719v143h278v268h152v-268h276v-143h-276v-264h-152v264h-278z" />
<glyph unicode="&#xb2;" horiz-adv-x="710" d="M57 545q8 147 80 247.5t250 219.5q59 41 82 72.5t23 72.5q0 53 -37 87t-97 34q-68 0 -106.5 -44t-38.5 -120q0 -23 2 -37l-131 2q2 104 39 170q74 133 242 133q117 0 188.5 -60t71.5 -159q0 -102 -80 -174q-29 -25 -119 -84q-111 -74 -163 -132t-66 -126h319v170h113 q-6 -57 -6 -147q0 -76 2 -125q-53 2 -138 2h-292q-77 0 -138 -2z" />
<glyph unicode="&#xb3;" horiz-adv-x="710" d="M39 815l127 8q4 -188 180 -188q78 0 125 40t47 107q0 66 -49 106t-131 40q-27 0 -66 -8v112q25 -4 50 -4q68 0 108.5 36t40.5 93q0 55 -35 88t-94 33q-66 0 -96.5 -35t-36.5 -115l-125 5q10 123 78.5 188t187.5 65q113 0 183.5 -61t70.5 -160q0 -123 -121 -182 q168 -45 168 -201q0 -113 -84 -184.5t-217 -71.5q-143 0 -223 75t-88 214z" />
<glyph unicode="&#xb4;" d="M430 1176l188 286h193l-250 -286h-131z" />
<glyph unicode="&#xb5;" horiz-adv-x="925" d="M-6 -291q0 53 14 125q59 330 60 721v381h172v-586q0 -166 47 -227q43 -53 121 -53q127 0 231 153v713h170v-690q0 -94 17.5 -127t64.5 -33q27 0 61 20v-34l-188 -92q-2 -2 -8 -3q-74 0 -99 127l-8 39q-109 -106 -166 -140t-135 -34q-86 0 -139 43t-86 138v-58 q0 -86 35 -278q12 -61 12 -101q0 -45 -24.5 -74.5t-63.5 -29.5t-63.5 28.5t-24.5 71.5z" />
<glyph unicode="&#xb6;" d="M29 1022q0 98 44 176t122 119q92 49 266 49h338q37 0 194 2v-113l-194 2v-1544l194 4v-114q-168 2 -194 2h-101v1652h-172v-1652h-100q-37 0 -195 -2v114l195 -4v971q-106 0 -170 18q-104 33 -165.5 118t-61.5 202z" />
<glyph unicode="&#xb7;" horiz-adv-x="440" d="M123 406v198h194v-198h-194z" />
<glyph unicode="&#xb8;" d="M424 -102h176v-136q0 -184 -176 -227v98q80 23 76 111h-76v154z" />
<glyph unicode="&#xb9;" horiz-adv-x="710" d="M184 1268v104q88 -2 138 -2q25 0 124 2v-727l127 2v-102q-57 2 -133 2h-118q-72 0 -136 -2v102l127 -2v623h-129z" />
<glyph unicode="&#xba;" horiz-adv-x="681" d="M20 643v78h642v-78h-642zM68 1090q0 127 76.5 205.5t199.5 78.5q119 0 195.5 -80t76.5 -202q0 -125 -76.5 -203t-197.5 -78t-197.5 78t-76.5 201zM186 1090q0 -82 42 -130.5t112 -48.5q72 0 115 47.5t43 128.5q0 86 -41 136.5t-113 50.5q-74 0 -116 -49t-42 -135z" />
<glyph unicode="&#xbb;" horiz-adv-x="1105" d="M102 45l336 463l-336 463h189l340 -463l-340 -463h-189zM504 45l336 463l-336 463h188l340 -463l-340 -463h-188z" />
<glyph unicode="&#xbc;" horiz-adv-x="1720" d="M184 1268v104q88 -2 138 -2q25 0 124 2v-727l127 2v-102q-57 2 -133 2h-118q-72 0 -136 -2v102l127 -2v623h-129zM369 12l878 1403l105 -63l-879 -1401zM1047 319l380 512h119v-505h115v-97h-115v-131l86 2v-102q-49 2 -104 2h-105q-61 0 -112 -2v102l106 -2v131h-313z M1180 326h237v329z" />
<glyph unicode="&#xbd;" horiz-adv-x="1720" d="M184 1268v104q88 -2 138 -2q25 0 124 2v-727l127 2v-102q-57 2 -133 2h-118q-72 0 -136 -2v102l127 -2v623h-129zM369 12l878 1403l105 -63l-879 -1401zM1067 -2q10 147 81 247.5t249 219.5q59 41 81.5 72.5t22.5 72.5q0 53 -37 87t-96 34q-68 0 -106.5 -44t-38.5 -120 q0 -23 2 -37l-131 2q2 104 39 170q74 133 241 134q117 0 188.5 -60.5t71.5 -159.5q0 -102 -80 -174q-23 -20 -118 -84q-111 -74 -163 -132t-67 -126h322v170h110q-4 -55 -4 -147v-125q-53 2 -137 2h-293q-76 0 -137 -2z" />
<glyph unicode="&#xbe;" horiz-adv-x="1720" d="M39 815l127 8q4 -188 180 -188q78 0 125 40t47 107q0 66 -49 106t-131 40q-27 0 -66 -8v112q25 -4 50 -4q68 0 108.5 36t40.5 93q0 55 -35 88t-94 33q-66 0 -96.5 -35t-36.5 -115l-125 5q10 123 78.5 188t187.5 65q113 0 183.5 -61t70.5 -160q0 -123 -121 -182 q168 -45 168 -201q0 -113 -84 -184.5t-217 -71.5q-143 0 -223 75t-88 214zM369 12l878 1403l105 -63l-879 -1401zM1047 319l380 512h119v-505h115v-97h-115v-131l86 2v-102q-49 2 -104 2h-105q-61 0 -112 -2v102l106 -2v131h-313zM1180 326h237v329z" />
<glyph unicode="&#xbf;" horiz-adv-x="765" d="M82 283q0 121 71.5 201.5t184.5 88.5l4 164h127q8 -197 25 -313q-49 18 -86 18q-74 0 -120 -45t-46 -116q0 -70 43 -114t108 -44q70 0 109 44t39 126v39h155q-2 -162 -61 -238q-86 -115 -248 -114q-135 0 -220 84t-85 219zM305 840v198h195v-198h-195z" />
<glyph unicode="&#xc0;" horiz-adv-x="1388" d="M0 -4v154l162 -5l368 1078l-170 -4v151q94 -4 205 -4h279q70 0 196 4v-151l-170 4l357 -1078l162 5v-154q-123 4 -142 4h-203q-61 0 -178 -4v154l164 -5l-110 355h-449l-115 -355l166 5v-154l-57 2q-61 2 -113 2h-215q-41 0 -137 -4zM412 1733h204l172 -242h-149z M516 637h363l-179 575z" />
<glyph unicode="&#xc1;" horiz-adv-x="1388" d="M0 -4v154l162 -5l368 1078l-170 -4v151q94 -4 205 -4h279q70 0 196 4v-151l-170 4l357 -1078l162 5v-154q-123 4 -142 4h-203q-61 0 -178 -4v154l164 -5l-110 355h-449l-115 -355l166 5v-154l-57 2q-61 2 -113 2h-215q-41 0 -137 -4zM516 637h363l-179 575zM643 1491 l172 242h205l-227 -242h-150z" />
<glyph unicode="&#xc2;" horiz-adv-x="1388" d="M0 -4v154l162 -5l368 1078l-170 -4v151q94 -4 205 -4h279q70 0 196 4v-151l-170 4l357 -1078l162 5v-154q-123 4 -142 4h-203q-61 0 -178 -4v154l164 -5l-110 355h-449l-115 -355l166 5v-154l-57 2q-61 2 -113 2h-215q-41 0 -137 -4zM418 1491l207 238h168l206 -238h-172 l-118 139l-119 -139h-172zM516 637h363l-179 575z" />
<glyph unicode="&#xc3;" horiz-adv-x="1388" d="M0 -4v154l162 -5l368 1078l-170 -4v151q94 -4 205 -4h279q70 0 196 4v-151l-170 4l357 -1078l162 5v-154q-123 4 -142 4h-203q-61 0 -178 -4v154l164 -5l-110 355h-449l-115 -355l166 5v-154l-57 2q-61 2 -113 2h-215q-41 0 -137 -4zM408 1491q14 121 34 158 q49 78 131 77q39 0 70 -12t117 -61q59 -33 92 -33q51 0 55 104h117q-8 -236 -160 -235q-72 0 -198 76q-55 33 -84 32.5t-41.5 -24t-16.5 -82.5h-116zM516 637h363l-179 575z" />
<glyph unicode="&#xc4;" horiz-adv-x="1388" d="M0 -4v154l162 -5l368 1078l-170 -4v151q94 -4 205 -4h279q70 0 196 4v-151l-170 4l357 -1078l162 5v-154q-123 4 -142 4h-203q-61 0 -178 -4v154l164 -5l-110 355h-449l-115 -355l166 5v-154l-57 2q-61 2 -113 2h-215q-41 0 -137 -4zM408 1610q0 45 32.5 76.5t77.5 31.5 q43 0 75 -31.5t32 -76.5t-32 -77t-77 -32t-76.5 32t-31.5 77zM516 637h363l-179 575zM778 1610q0 45 32 76.5t79 31.5q43 0 74.5 -31.5t31.5 -76.5t-31.5 -77t-76.5 -32t-77 32t-32 77z" />
<glyph unicode="&#xc5;" horiz-adv-x="1388" d="M0 -4v154l162 -5l368 1078l-170 -4v151q94 -4 205 -4h279q70 0 196 4v-151l-170 4l357 -1078l162 5v-154q-123 4 -142 4h-203q-61 0 -178 -4v154l164 -5l-110 355h-449l-115 -355l166 5v-154l-57 2q-61 2 -113 2h-215q-41 0 -137 -4zM516 637h363l-179 575zM528 1620 q0 74 54.5 126t130.5 52q72 0 125 -53t53 -127t-53.5 -127t-128.5 -53q-74 0 -127.5 53t-53.5 129zM629 1618q0 -33 23.5 -57.5t58.5 -24.5q33 0 57.5 23.5t24.5 56.5t-24 57.5t-56 24.5q-35 0 -59.5 -23.5t-24.5 -56.5z" />
<glyph unicode="&#xc6;" horiz-adv-x="1998" d="M0 -4v149l139 -2l570 1078l-179 -4v153q121 -4 312 -4h776q158 0 276 4q-2 -104 -2 -221q0 -113 2 -215h-159l2 285h-580v-449h488v-147h-488v-476h582l-4 297h161q-2 -68 -2 -186q0 -156 2 -262q-74 4 -208 4h-770q-43 0 -170 -4v149l219 -2v480h-392l-253 -480l170 2 v-149q-74 4 -187 4h-180q-39 0 -125 -4zM643 764h324v455h-84z" />
<glyph unicode="&#xc7;" horiz-adv-x="1472" d="M84 670q0 311 190.5 516t479.5 205q143 0 247.5 -49.5t196.5 -159.5l-6 184h156q-8 -207 -9 -274q0 -86 4 -195h-155q-33 154 -123 229q-123 102 -303 103q-209 0 -341 -153.5t-132 -395.5q0 -244 134 -392.5t355 -148.5q350 0 463 393l156 -92q-78 -223 -241 -343 t-390 -120q-305 0 -493.5 192t-188.5 501zM678 -111h188v-137q0 -188 -188 -231v100q90 27 84 109h-84v159z" />
<glyph unicode="&#xc8;" horiz-adv-x="1269" d="M66 -4v154l170 -5v1076l-170 -4v153q129 -4 167 -4h730q131 0 204 4q-2 -141 -2 -213q0 -82 2 -203h-163l4 265h-582v-449h481v-147h-481v-476h588l-6 269h161q-2 -92 -2 -230q0 -123 2 -190q-137 4 -163 4h-773q-42 0 -167 -4zM365 1733h204l172 -242h-149z" />
<glyph unicode="&#xc9;" horiz-adv-x="1269" d="M66 -4v154l170 -5v1076l-170 -4v153q129 -4 167 -4h730q131 0 204 4q-2 -141 -2 -213q0 -82 2 -203h-163l4 265h-582v-449h481v-147h-481v-476h588l-6 269h161q-2 -92 -2 -230q0 -123 2 -190q-137 4 -163 4h-773q-42 0 -167 -4zM584 1491l172 242h205l-228 -242h-149z " />
<glyph unicode="&#xca;" horiz-adv-x="1269" d="M66 -4v154l170 -5v1076l-170 -4v153q129 -4 167 -4h730q131 0 204 4q-2 -141 -2 -213q0 -82 2 -203h-163l4 265h-582v-449h481v-147h-481v-476h588l-6 269h161q-2 -92 -2 -230q0 -123 2 -190q-137 4 -163 4h-773q-42 0 -167 -4zM381 1491l207 238h168l207 -238h-172 l-119 139l-119 -139h-172z" />
<glyph unicode="&#xcb;" horiz-adv-x="1269" d="M66 -4v154l170 -5v1076l-170 -4v153q129 -4 167 -4h730q131 0 204 4q-2 -141 -2 -213q0 -82 2 -203h-163l4 265h-582v-449h481v-147h-481v-476h588l-6 269h161q-2 -92 -2 -230q0 -123 2 -190q-137 4 -163 4h-773q-42 0 -167 -4zM371 1610q0 45 32.5 76.5t77.5 31.5 q43 0 75 -31.5t32 -76.5t-32 -77t-77 -32t-76.5 32t-31.5 77zM741 1610q0 45 32 76.5t79 31.5q43 0 74.5 -31.5t31.5 -76.5t-31.5 -77t-76.5 -32t-77 32t-32 77z" />
<glyph unicode="&#xcc;" horiz-adv-x="663" d="M41 1733h205l172 -242h-150zM66 -4v154l170 -5v1076l-170 -4v153q152 -4 167 -4h195q39 0 170 4v-153l-172 4v-1076l172 5v-154q-127 4 -170 4h-195q-34 0 -167 -4z" />
<glyph unicode="&#xcd;" horiz-adv-x="663" d="M66 -4v154l170 -5v1076l-170 -4v153q152 -4 167 -4h195q39 0 170 4v-153l-172 4v-1076l172 5v-154q-127 4 -170 4h-195q-34 0 -167 -4zM260 1491l172 242h205l-227 -242h-150z" />
<glyph unicode="&#xce;" horiz-adv-x="663" d="M47 1491l207 238h168l207 -238h-172l-119 139l-119 -139h-172zM66 -4v154l170 -5v1076l-170 -4v153q152 -4 167 -4h195q39 0 170 4v-153l-172 4v-1076l172 5v-154q-127 4 -170 4h-195q-34 0 -167 -4z" />
<glyph unicode="&#xcf;" horiz-adv-x="663" d="M66 -4v154l170 -5v1076l-170 -4v153q152 -4 167 -4h195q39 0 170 4v-153l-172 4v-1076l172 5v-154q-127 4 -170 4h-195q-34 0 -167 -4zM88 1610q0 45 33 76.5t78 31.5q43 0 74.5 -31.5t31.5 -76.5t-31.5 -77t-76.5 -32t-77 32t-32 77zM373 1610q0 45 31.5 76.5t78.5 31.5 q43 0 75 -31.5t32 -76.5t-32 -77t-77 -32t-76.5 32t-31.5 77z" />
<glyph unicode="&#xd0;" horiz-adv-x="1441" d="M66 -4v154l170 -7v512h-164v138h164v428l-170 -4v153q121 -4 165 -4h189l117 2h77q176 0 291 -28.5t203 -96.5q252 -186 252 -567q0 -385 -252 -565q-88 -63 -193.5 -89t-281.5 -24l-217 2h-185q-46 0 -165 -4zM426 147q53 -2 131 -2q158 0 240 14.5t149 55.5 q100 59 154.5 179t54.5 280q0 199 -83 335t-232 183q-102 31 -312 31q-12 0 -102 -4v-426h330v-138h-330v-508z" />
<glyph unicode="&#xd1;" horiz-adv-x="1488" d="M66 -4v154l170 -5v1076l-170 -4v153q145 -4 174 -4h86q33 0 131 4l657 -1091l-2 944l-170 -4v151q139 -4 172 -4h150q37 0 172 4v-153l-170 4v-1229h-181l-696 1147v-994l170 5v-154q-125 4 -170 4h-151q-41 0 -172 -4zM471 1491q14 121 35 158q49 78 131 77 q39 0 69.5 -12t116.5 -61q59 -33 92 -33q51 0 56 104h116q-8 -236 -159 -235q-72 0 -199 76q-55 33 -84 32.5t-41 -24t-16 -82.5h-117z" />
<glyph unicode="&#xd2;" horiz-adv-x="1542" d="M84 682q0 369 254 563q186 143 446 144q297 0 486.5 -199t189.5 -508q0 -311 -193.5 -508t-500.5 -197q-301 0 -491.5 197t-190.5 508zM289 682q0 -242 135 -392.5t352 -150.5q213 0 346 150.5t133 392.5q0 244 -132 394.5t-345 150.5q-223 0 -356 -148.5t-133 -396.5z M475 1733h205l172 -242h-150z" />
<glyph unicode="&#xd3;" horiz-adv-x="1542" d="M84 682q0 369 254 563q186 143 446 144q297 0 486.5 -199t189.5 -508q0 -311 -193.5 -508t-500.5 -197q-301 0 -491.5 197t-190.5 508zM289 682q0 -242 135 -392.5t352 -150.5q213 0 346 150.5t133 392.5q0 244 -132 394.5t-345 150.5q-223 0 -356 -148.5t-133 -396.5z M713 1491l172 242h205l-228 -242h-149z" />
<glyph unicode="&#xd4;" horiz-adv-x="1542" d="M84 682q0 369 254 563q186 143 446 144q297 0 486.5 -199t189.5 -508q0 -311 -193.5 -508t-500.5 -197q-301 0 -491.5 197t-190.5 508zM289 682q0 -242 135 -392.5t352 -150.5q213 0 346 150.5t133 392.5q0 244 -132 394.5t-345 150.5q-223 0 -356 -148.5t-133 -396.5z M487 1491l207 238h168l207 -238h-172l-119 139l-119 -139h-172z" />
<glyph unicode="&#xd5;" horiz-adv-x="1542" d="M84 682q0 369 254 563q186 143 446 144q297 0 486.5 -199t189.5 -508q0 -311 -193.5 -508t-500.5 -197q-301 0 -491.5 197t-190.5 508zM289 682q0 -242 135 -392.5t352 -150.5q213 0 346 150.5t133 392.5q0 244 -132 394.5t-345 150.5q-223 0 -356 -148.5t-133 -396.5z M498 1491q14 121 34 158q49 78 132 77q39 0 69.5 -12t116.5 -61q59 -33 92 -33q51 0 55 104h117q-8 -236 -160 -235q-72 0 -198 76q-55 33 -84 32.5t-41.5 -24t-16.5 -82.5h-116z" />
<glyph unicode="&#xd6;" horiz-adv-x="1542" d="M84 682q0 369 254 563q186 143 446 144q297 0 486.5 -199t189.5 -508q0 -311 -193.5 -508t-500.5 -197q-301 0 -491.5 197t-190.5 508zM289 682q0 -242 135 -392.5t352 -150.5q213 0 346 150.5t133 392.5q0 244 -132 394.5t-345 150.5q-223 0 -356 -148.5t-133 -396.5z M485 1610q0 45 33 76.5t78 31.5q43 0 74.5 -31.5t31.5 -76.5t-31.5 -77t-76.5 -32t-77 32t-32 77zM856 1610q0 45 32 76.5t79 31.5q43 0 74.5 -31.5t31.5 -76.5t-31.5 -77t-76.5 -32t-77 32t-32 77z" />
<glyph unicode="&#xd7;" d="M170 446l236 236l-236 236l106 106l236 -236l236 236l106 -106l-236 -236l236 -236l-106 -104l-236 236l-236 -236z" />
<glyph unicode="&#xd8;" horiz-adv-x="1542" d="M84 694q0 303 194.5 499t495.5 196q246 0 426 -140l129 148l101 -86l-134 -148q164 -186 164 -479q0 -352 -237 -549q-188 -158 -459 -158q-123 0 -211 29t-219 111l-133 -144l-90 86l133 148q-160 206 -160 487zM289 690q0 -190 88 -340l702 772q-121 104 -311 105 q-213 0 -346 -149.5t-133 -387.5zM461 252q131 -113 323 -113q207 0 339 151.5t132 389.5q0 98 -18 169t-70 175z" />
<glyph unicode="&#xd9;" horiz-adv-x="1353" d="M45 1219v151q133 -4 170 -4h180q31 0 183 4v-153l-172 4v-793q0 -289 282 -289q164 0 238 97q33 43 44 97t11 163v725l-172 -4v153q156 -4 178 -4h148q39 0 174 4v-153l-170 4v-740q0 -158 -27 -239.5t-96 -145.5q-131 -119 -342 -119q-217 0 -338 112t-121 312v822z M408 1733h204l172 -242h-149z" />
<glyph unicode="&#xda;" horiz-adv-x="1353" d="M45 1219v151q133 -4 170 -4h180q31 0 183 4v-153l-172 4v-793q0 -289 282 -289q164 0 238 97q33 43 44 97t11 163v725l-172 -4v153q156 -4 178 -4h148q39 0 174 4v-153l-170 4v-740q0 -158 -27 -239.5t-96 -145.5q-131 -119 -342 -119q-217 0 -338 112t-121 312v822z M633 1491l172 242h205l-228 -242h-149z" />
<glyph unicode="&#xdb;" horiz-adv-x="1353" d="M45 1219v151q133 -4 170 -4h180q31 0 183 4v-153l-172 4v-793q0 -289 282 -289q164 0 238 97q33 43 44 97t11 163v725l-172 -4v153q156 -4 178 -4h148q39 0 174 4v-153l-170 4v-740q0 -158 -27 -239.5t-96 -145.5q-131 -119 -342 -119q-217 0 -338 112t-121 312v822z M414 1491l207 238h167l207 -238h-172l-118 139l-119 -139h-172z" />
<glyph unicode="&#xdc;" horiz-adv-x="1353" d="M45 1219v151q133 -4 170 -4h180q31 0 183 4v-153l-172 4v-793q0 -289 282 -289q164 0 238 97q33 43 44 97t11 163v725l-172 -4v153q156 -4 178 -4h148q39 0 174 4v-153l-170 4v-740q0 -158 -27 -239.5t-96 -145.5q-131 -119 -342 -119q-217 0 -338 112t-121 312v822z M403 1610q0 45 33 76.5t78 31.5q43 0 75 -31.5t32 -76.5t-32 -77t-77 -32t-77 32t-32 77zM774 1610q0 45 32 76.5t79 31.5q43 0 74.5 -31.5t31.5 -76.5t-31.5 -77t-76.5 -32t-77 32t-32 77z" />
<glyph unicode="&#xdd;" horiz-adv-x="1288" d="M0 1217v153q94 -4 141 -4h221q80 0 189 4v-153l-156 4l273 -455l266 455l-152 -2v151q84 -4 189 -4h188q74 0 131 4v-153l-166 4l-381 -615v-461l191 2v-151q-123 4 -170 4h-227q-43 0 -172 -4v151l188 -2v461l-379 615zM606 1491l172 242h205l-227 -242h-150z" />
<glyph unicode="&#xde;" horiz-adv-x="1191" d="M66 -4v151l170 -2v1078h-170v147h360v-196h39q207 0 267.5 -4.5t123.5 -22.5q135 -39 209 -141.5t74 -247.5q0 -240 -183 -350q-66 -39 -138.5 -53.5t-201.5 -14.5h-190v-195l172 2v-151q-111 4 -164 4h-196q-43 0 -172 -4zM426 485h135q184 0 262 43q53 29 85 91.5 t32 136.5q0 152 -104 219q-43 29 -104.5 39t-190.5 10h-115v-539z" />
<glyph unicode="&#xdf;" horiz-adv-x="1820" d="M96 774q0 125 88 205t226 80q156 0 219 -98v77h145q-6 -109 -6 -147q0 -47 6 -186h-145q2 4 2 12q0 96 -43 139q-68 61 -164 62q-74 0 -120 -38t-46 -100q0 -68 74 -108q41 -20 170 -64q170 -57 243.5 -129.5t73.5 -187.5q0 -137 -94 -225.5t-240 -88.5q-154 0 -237 101 l4 -78h-148q6 98 7 154q0 98 -9 227h146v-4v-19v-30q0 -100 63 -150q68 -51 158 -51q80 0 131 44t51 114q0 66 -48 104.5t-181 83.5q-104 35 -144 52.5t-81 47.5q-101 76 -101 201zM1006 774q0 125 88 205t225 80q154 0 221 -98l-2 77h148q-6 -104 -7 -147q0 -47 7 -186 h-146v12q0 98 -43 139q-68 61 -164 62q-74 0 -120 -38t-46 -100q0 -68 74 -108q49 -25 170 -64q172 -57 246 -129.5t74 -187.5q0 -137 -94.5 -225.5t-239.5 -88.5q-156 0 -238 101l2 -78h-145q4 131 4 154q0 84 -6 227h143v-23q0 -113 37 -155q72 -76 186 -76q80 0 131.5 44 t51.5 114q0 66 -48.5 104.5t-181.5 83.5q-164 53 -225 100q-102 74 -102 201z" />
<glyph unicode="&#xe0;" horiz-adv-x="1130" d="M0 -2v141l147 -4l263 768l-144 -2v139q88 -2 191 -2h233q53 0 182 2v-141l-143 2l252 -766l149 4l-2 -141q-127 2 -141 2h-149q-51 0 -170 -2v141l139 -4l-72 234h-338l-73 -234l139 4v-141q-131 2 -164 2h-158q-32 0 -141 -2zM266 1462h193l188 -286h-131zM440 500h254 l-125 401z" />
<glyph unicode="&#xe1;" horiz-adv-x="1130" d="M0 -2v141l147 -4l263 768l-144 -2v139q88 -2 191 -2h233q53 0 182 2v-141l-143 2l252 -766l149 4l-2 -141q-127 2 -141 2h-149q-51 0 -170 -2v141l139 -4l-72 234h-338l-73 -234l139 4v-141q-131 2 -164 2h-158q-32 0 -141 -2zM440 500h254l-125 401zM518 1176l189 286 h192l-250 -286h-131z" />
<glyph unicode="&#xe2;" horiz-adv-x="1130" d="M0 -2v141l147 -4l263 768l-144 -2v139q88 -2 191 -2h233q53 0 182 2v-141l-143 2l252 -766l149 4l-2 -141q-127 2 -141 2h-149q-51 0 -170 -2v141l139 -4l-72 234h-338l-73 -234l139 4v-141q-131 2 -164 2h-158q-32 0 -141 -2zM305 1176l203 286h127l203 -286h-148 l-119 167l-118 -167h-148zM440 500h254l-125 401z" />
<glyph unicode="&#xe3;" horiz-adv-x="1130" d="M0 -2v141l147 -4l263 768l-144 -2v139q88 -2 191 -2h233q53 0 182 2v-141l-143 2l252 -766l149 4l-2 -141q-127 2 -141 2h-149q-51 0 -170 -2v141l139 -4l-72 234h-338l-73 -234l139 4v-141q-131 2 -164 2h-158q-32 0 -141 -2zM315 1202q14 125 48 177.5t100 52.5 q43 0 121 -48q102 -61 131 -61q49 0 51 107h104q-8 -229 -145 -230q-57 0 -176 76q-53 35 -78 35q-45 0 -51 -109h-105zM440 500h254l-125 401z" />
<glyph unicode="&#xe4;" horiz-adv-x="1130" d="M0 -2v141l147 -4l263 768l-144 -2v139q88 -2 191 -2h233q53 0 182 2v-141l-143 2l252 -766l149 4l-2 -141q-127 2 -141 2h-149q-51 0 -170 -2v141l139 -4l-72 234h-338l-73 -234l139 4v-141q-131 2 -164 2h-158q-32 0 -141 -2zM291 1307q0 45 32.5 76.5t77.5 31.5 q43 0 75 -31.5t32 -76.5t-32 -77t-77 -32t-76.5 32t-31.5 77zM440 500h254l-125 401zM635 1307q0 45 31.5 76.5t78.5 31.5q43 0 75 -31.5t32 -76.5t-32 -77t-77 -32t-76.5 32t-31.5 77z" />
<glyph unicode="&#xe5;" horiz-adv-x="1130" d="M0 -2v141l147 -4l263 768l-144 -2v139q88 -2 191 -2h233q53 0 182 2v-141l-143 2l252 -766l149 4l-2 -141q-127 2 -141 2h-149q-51 0 -170 -2v141l139 -4l-72 234h-338l-73 -234l139 4v-141q-131 2 -164 2h-158q-32 0 -141 -2zM397 1321q0 76 53.5 128t131.5 52 q72 0 125 -53t53 -127q0 -76 -53.5 -129t-128.5 -53q-74 0 -127.5 53t-53.5 129zM440 500h254l-125 401zM498 1319q0 -33 23.5 -57.5t58 -24.5t58.5 24.5t24 57.5t-24 57.5t-56 24.5q-35 0 -59.5 -23.5t-24.5 -58.5z" />
<glyph unicode="&#xe6;" horiz-adv-x="1597" d="M0 -2v139l133 -2l404 768l-146 -4v141q109 -2 268 -2h670q102 0 168 4q-4 -133 -4 -176q0 -55 4 -161h-154l5 194h-426v-301h374v-139h-374v-320h430l-4 199h149q-2 -72 -2 -186q0 -94 2 -156q-121 4 -135 4h-612q-41 0 -150 -2v141l152 -4v324h-279l-172 -326l139 4 v-139q-123 2 -176 2h-133q-31 0 -131 -2zM539 594h213v305h-52z" />
<glyph unicode="&#xe7;" horiz-adv-x="1187" d="M82 510q0 236 149.5 392.5t372.5 156.5q213 0 326 -146l-2 123h143q-6 -168 -6 -217q0 -78 4 -157h-141q-27 121 -94 174q-86 74 -224 73q-154 0 -251 -109.5t-97 -283.5t98.5 -280.5t262.5 -106.5q260 0 346 301l143 -84q-61 -178 -189 -272t-309 -94q-238 0 -385 146 t-147 384zM516 -102h176v-136q0 -184 -176 -227v98q80 23 76 111h-76v154z" />
<glyph unicode="&#xe8;" horiz-adv-x="1062" d="M66 -2v141l149 -4v768l-149 -4v141q104 -2 147 -2h582q102 0 168 4q-4 -133 -5 -176q0 -55 5 -161h-154l4 194h-428v-301h377v-139h-377v-320h432l-4 199h150q-2 -72 -2 -186q0 -94 2 -156q-121 4 -136 4h-614q-41 0 -147 -2zM246 1462h192l189 -286h-131z" />
<glyph unicode="&#xe9;" horiz-adv-x="1062" d="M66 -2v141l149 -4v768l-149 -4v141q104 -2 147 -2h582q102 0 168 4q-4 -133 -5 -176q0 -55 5 -161h-154l4 194h-428v-301h377v-139h-377v-320h432l-4 199h150q-2 -72 -2 -186q0 -94 2 -156q-121 4 -136 4h-614q-41 0 -147 -2zM483 1176l189 286h192l-250 -286h-131z" />
<glyph unicode="&#xea;" horiz-adv-x="1062" d="M66 -2v141l149 -4v768l-149 -4v141q104 -2 147 -2h582q102 0 168 4q-4 -133 -5 -176q0 -55 5 -161h-154l4 194h-428v-301h377v-139h-377v-320h432l-4 199h150q-2 -72 -2 -186q0 -94 2 -156q-121 4 -136 4h-614q-41 0 -147 -2zM295 1176l203 286h127l202 -286h-147 l-119 167l-119 -167h-147z" />
<glyph unicode="&#xeb;" horiz-adv-x="1062" d="M66 -2v141l149 -4v768l-149 -4v141q104 -2 147 -2h582q102 0 168 4q-4 -133 -5 -176q0 -55 5 -161h-154l4 194h-428v-301h377v-139h-377v-320h432l-4 199h150q-2 -72 -2 -186q0 -94 2 -156q-121 4 -136 4h-614q-41 0 -147 -2zM274 1307q0 45 33 76.5t78 31.5 q43 0 75 -31.5t32 -76.5t-32 -77t-77 -32t-77 32t-32 77zM618 1307q0 45 32 76.5t79 31.5q43 0 75 -31.5t32 -76.5t-32 -77t-77 -32t-77 32t-32 77z" />
<glyph unicode="&#xec;" horiz-adv-x="602" d="M-12 1462h192l189 -286h-131zM66 -2v139l149 -2v768l-149 -2v139q104 -2 147 -2h174q41 0 150 2v-139l-152 2v-768l152 2v-139q-106 2 -150 2h-174q-41 0 -147 -2z" />
<glyph unicode="&#xed;" horiz-adv-x="602" d="M66 -2v139l149 -2v768l-149 -2v139q104 -2 147 -2h174q41 0 150 2v-139l-152 2v-768l152 2v-139q-106 2 -150 2h-174q-41 0 -147 -2zM248 1176l188 286h193l-250 -286h-131z" />
<glyph unicode="&#xee;" horiz-adv-x="602" d="M55 1176l189 286h127l190 -286h-147l-107 167l-104 -167h-148zM66 -2v139l149 -2v768l-149 -2v139q104 -2 147 -2h174q41 0 150 2v-139l-152 2v-768l152 2v-139q-106 2 -150 2h-174q-41 0 -147 -2z" />
<glyph unicode="&#xef;" horiz-adv-x="602" d="M57 1307q0 45 33 76.5t78 31.5q43 0 74.5 -31.5t31.5 -76.5t-31.5 -77t-76.5 -32t-77 32t-32 77zM66 -2v139l149 -2v768l-149 -2v139q104 -2 147 -2h174q41 0 150 2v-139l-152 2v-768l152 2v-139q-106 2 -150 2h-174q-41 0 -147 -2zM342 1307q0 45 32 76.5t79 31.5 q43 0 74.5 -31.5t31.5 -76.5t-31.5 -77t-76.5 -32t-77 32t-32 77z" />
<glyph unicode="&#xf0;" horiz-adv-x="1183" d="M66 -2v141l149 -4v361h-143v108h143v299l-149 -2v139q104 -2 147 -2h184q207 0 285 -10t152 -45q268 -129 268 -471q0 -289 -197 -428q-70 -47 -151.5 -66.5t-221.5 -19.5q-6 0 -37.5 1t-48.5 1h-67h-166q-41 0 -147 -2zM385 139q41 -2 94 -2q123 0 182.5 10.5 t108.5 38.5q152 88 152 326q0 141 -60.5 238.5t-169.5 128.5q-74 23 -233 22q-41 0 -74 -2v-295h268v-108h-268v-357z" />
<glyph unicode="&#xf1;" horiz-adv-x="1234" d="M66 -2v139l149 -2v768l-149 -2v139q104 -2 147 -2h86q20 0 102 4l502 -809v670l-149 -2v139q104 -2 147 -2h133q41 0 150 2v-139l-152 2v-909h-155l-533 848v-707l152 2v-139q-106 2 -150 2h-133q-41 0 -147 -2zM375 1202q14 125 48 177.5t99 52.5q43 0 121 -48 q102 -61 131 -61q49 0 51 107h105q-8 -229 -146 -230q-57 0 -176 76q-53 35 -78 35q-45 0 -51 -109h-104z" />
<glyph unicode="&#xf2;" horiz-adv-x="1236" d="M82 518q0 242 150.5 391.5t394.5 149.5q231 0 379.5 -151.5t148.5 -389t-150.5 -388t-390.5 -150.5q-236 0 -384 150t-148 388zM264 518q0 -174 99.5 -281.5t259.5 -107.5q158 0 255 107.5t97 281.5q0 176 -96.5 283.5t-253.5 107.5q-164 0 -262.5 -106.5t-98.5 -284.5z M305 1462h193l188 -286h-131z" />
<glyph unicode="&#xf3;" horiz-adv-x="1236" d="M82 518q0 242 150.5 391.5t394.5 149.5q231 0 379.5 -151.5t148.5 -389t-150.5 -388t-390.5 -150.5q-236 0 -384 150t-148 388zM264 518q0 -174 99.5 -281.5t259.5 -107.5q158 0 255 107.5t97 281.5q0 176 -96.5 283.5t-253.5 107.5q-164 0 -262.5 -106.5t-98.5 -284.5z M557 1176l188 286h193l-250 -286h-131z" />
<glyph unicode="&#xf4;" horiz-adv-x="1236" d="M82 518q0 242 150.5 391.5t394.5 149.5q231 0 379.5 -151.5t148.5 -389t-150.5 -388t-390.5 -150.5q-236 0 -384 150t-148 388zM264 518q0 -174 99.5 -281.5t259.5 -107.5q158 0 255 107.5t97 281.5q0 176 -96.5 283.5t-253.5 107.5q-164 0 -262.5 -106.5t-98.5 -284.5z M358 1176l203 286h127l203 -286h-148l-118 167l-119 -167h-148z" />
<glyph unicode="&#xf5;" horiz-adv-x="1236" d="M82 518q0 242 150.5 391.5t394.5 149.5q231 0 379.5 -151.5t148.5 -389t-150.5 -388t-390.5 -150.5q-236 0 -384 150t-148 388zM264 518q0 -174 99.5 -281.5t259.5 -107.5q158 0 255 107.5t97 281.5q0 176 -96.5 283.5t-253.5 107.5q-164 0 -262.5 -106.5t-98.5 -284.5z M369 1202q14 125 48 177.5t99 52.5q43 0 121 -48q102 -61 131 -61q49 0 51 107h105q-8 -229 -146 -230q-57 0 -176 76q-53 35 -78 35q-45 0 -51 -109h-104z" />
<glyph unicode="&#xf6;" horiz-adv-x="1236" d="M82 518q0 242 150.5 391.5t394.5 149.5q231 0 379.5 -151.5t148.5 -389t-150.5 -388t-390.5 -150.5q-236 0 -384 150t-148 388zM264 518q0 -174 99.5 -281.5t259.5 -107.5q158 0 255 107.5t97 281.5q0 176 -96.5 283.5t-253.5 107.5q-164 0 -262.5 -106.5t-98.5 -284.5z M344 1307q0 45 33 76.5t78 31.5q43 0 74.5 -31.5t31.5 -76.5t-31.5 -77t-76.5 -32t-77 32t-32 77zM688 1307q0 45 32 76.5t79 31.5q43 0 74.5 -31.5t31.5 -76.5t-31.5 -77t-76.5 -32t-77 32t-32 77z" />
<glyph unicode="&#xf7;" d="M154 612v154h716v-154h-716zM414 360q0 41 29.5 71t70.5 30t69.5 -30t28.5 -71t-29.5 -69.5t-68.5 -28.5q-41 0 -70.5 28.5t-29.5 69.5zM414 1014q0 41 29.5 70.5t70.5 29.5t69.5 -29.5t28.5 -70.5q0 -39 -29.5 -69t-68.5 -30q-41 0 -70.5 29t-29.5 70z" />
<glyph unicode="&#xf8;" horiz-adv-x="1236" d="M82 520q0 238 150.5 388.5t388.5 150.5q180 0 329 -103l103 113l77 -74l-102 -112q127 -147 127 -365q0 -238 -150.5 -388t-390.5 -150q-184 0 -323 100l-98 -111l-80 70l100 111q-131 153 -131 370zM262 522q0 -139 68 -246l512 560q-92 74 -226 73q-158 0 -256 -106.5 t-98 -280.5zM401 201q96 -72 222 -72q158 0 255 107.5t97 281.5q0 135 -64 238z" />
<glyph unicode="&#xf9;" horiz-adv-x="1124" d="M45 901v139q104 -2 148 -2h174q41 0 149 2v-139l-151 2v-571q0 -203 213 -203q125 0 182 68q41 45 41 184v522l-152 -2v139q106 -2 150 -2h133q41 0 147 2v-139l-149 2v-534q0 -119 -20.5 -182.5t-78.5 -114.5q-102 -92 -270 -92q-174 0 -270 87t-96 244v592zM270 1462 h193l188 -286h-131z" />
<glyph unicode="&#xfa;" horiz-adv-x="1124" d="M45 901v139q104 -2 148 -2h174q41 0 149 2v-139l-151 2v-571q0 -203 213 -203q125 0 182 68q41 45 41 184v522l-152 -2v139q106 -2 150 -2h133q41 0 147 2v-139l-149 2v-534q0 -119 -20.5 -182.5t-78.5 -114.5q-102 -92 -270 -92q-174 0 -270 87t-96 244v592zM528 1176 l189 286h192l-250 -286h-131z" />
<glyph unicode="&#xfb;" horiz-adv-x="1124" d="M45 901v139q104 -2 148 -2h174q41 0 149 2v-139l-151 2v-571q0 -203 213 -203q125 0 182 68q41 45 41 184v522l-152 -2v139q106 -2 150 -2h133q41 0 147 2v-139l-149 2v-534q0 -119 -20.5 -182.5t-78.5 -114.5q-102 -92 -270 -92q-174 0 -270 87t-96 244v592zM324 1176 l202 286h127l203 -286h-147l-119 167l-119 -167h-147z" />
<glyph unicode="&#xfc;" horiz-adv-x="1124" d="M45 901v139q104 -2 148 -2h174q41 0 149 2v-139l-151 2v-571q0 -203 213 -203q125 0 182 68q41 45 41 184v522l-152 -2v139q106 -2 150 -2h133q41 0 147 2v-139l-149 2v-534q0 -119 -20.5 -182.5t-78.5 -114.5q-102 -92 -270 -92q-174 0 -270 87t-96 244v592zM303 1307 q0 45 33 76.5t78 31.5q43 0 74.5 -31.5t31.5 -76.5t-31.5 -77t-76.5 -32t-77 32t-32 77zM647 1307q0 45 32 76.5t79 31.5q43 0 74.5 -31.5t31.5 -76.5t-31.5 -77t-76.5 -32t-77 32t-32 77z" />
<glyph unicode="&#xfd;" horiz-adv-x="1058" d="M0 899v141q98 -2 143 -2h162q66 0 180 2v-141l-129 4l189 -307l184 307l-125 -2v139q113 -2 178 -2h142q72 0 135 2v-141l-156 4l-289 -450v-318l150 2v-139q-106 2 -148 2h-174q-41 0 -149 -2v139l151 -2v328l-286 440zM489 1176l189 286h192l-249 -286h-132z" />
<glyph unicode="&#xfe;" horiz-adv-x="993" d="M66 -2v139l149 -2v768l-149 -2v139q104 -2 147 -2h174q41 0 150 2v-139l-152 2v-84q43 0 51 2h58q188 0 282 -43q74 -33 119 -102.5t45 -151.5q0 -100 -63.5 -176t-169.5 -104q-63 -16 -267 -17q-31 0 -55 2v-94l152 2v-139q-106 2 -150 2h-174q-41 0 -147 -2zM385 367 q72 -2 94 -2q141 0 203 26q35 16 58.5 53t23.5 78q0 86 -76 129q-51 29 -229 29h-74v-313z" />
<glyph unicode="&#xff;" horiz-adv-x="1058" d="M0 899v141q98 -2 143 -2h162q66 0 180 2v-141l-129 4l189 -307l184 307l-125 -2v139q113 -2 178 -2h142q72 0 135 2v-141l-156 4l-289 -450v-318l150 2v-139q-106 2 -148 2h-174q-41 0 -149 -2v139l151 -2v328l-286 440zM268 1307q0 45 33 76.5t78 31.5q43 0 74.5 -31.5 t31.5 -76.5t-31.5 -77t-76.5 -32t-77 32t-32 77zM612 1307q0 45 32 76.5t79 31.5q43 0 74.5 -31.5t31.5 -76.5t-31.5 -77t-76.5 -32t-77 32t-32 77z" />
<glyph unicode="&#x152;" horiz-adv-x="2019" d="M84 678q0 328 199.5 513t552.5 179l245 -4h641q104 0 197 4q-2 -115 -2 -209q0 -90 2 -229h-162l4 287h-592v-447h484v-147h-484v-478h592l-4 291h164q-4 -109 -4 -217q0 -98 4 -225q-72 4 -188 4h-682q-6 0 -23.5 -1t-50.5 -2t-64 -1q-31 -2 -82 -2q-227 0 -366 57 q-182 74 -281.5 237t-99.5 390zM289 682q0 -287 217 -446q76 -53 157.5 -72t254.5 -19h61v1072q-27 2 -59 2q-174 0 -261.5 -15.5t-152.5 -56.5q-100 -63 -158.5 -187t-58.5 -278z" />
<glyph unicode="&#x153;" horiz-adv-x="1601" d="M80 516q0 254 158.5 392.5t451.5 133.5l135 -2q12 0 27.5 -1t19.5 -1h463q102 0 168 4q-4 -133 -4 -176q0 -55 4 -161h-153l4 194h-428v-301h377v-139h-377v-320h432l-4 199h149q-2 -72 -2 -186q0 -94 2 -156q-121 4 -135 4h-518q-4 0 -38 -1t-89 -1h-59q-176 0 -287 43 q-143 57 -220 180t-77 295zM260 518q0 -205 158 -315q51 -37 105.5 -50.5t152.5 -13.5h78v760h-35q-135 0 -190.5 -10t-112.5 -43q-72 -41 -114 -129t-42 -199z" />
<glyph unicode="&#x178;" horiz-adv-x="1288" d="M0 1217v153q94 -4 141 -4h221q80 0 189 4v-153l-156 4l273 -455l266 455l-152 -2v151q84 -4 189 -4h188q74 0 131 4v-153l-166 4l-381 -615v-461l191 2v-151q-123 4 -170 4h-227q-43 0 -172 -4v151l188 -2v461l-379 615zM379 1610q0 45 32.5 76.5t77.5 31.5 q43 0 75 -31.5t32 -76.5t-32 -77t-77 -32t-76.5 32t-31.5 77zM750 1610q0 45 31.5 76.5t78.5 31.5q43 0 75 -31.5t32 -76.5t-32 -77t-77 -32t-76.5 32t-31.5 77z" />
<glyph unicode="&#x2c6;" d="M246 1176l203 286h126l203 -286h-147l-119 167l-119 -167h-147z" />
<glyph unicode="&#x2dc;" d="M236 1202q14 125 47.5 177.5t99.5 52.5q43 0 121 -48q102 -61 131 -61q49 0 51 107h105q-8 -229 -146 -230q-57 0 -176 76q-53 35 -78 35q-45 0 -51 -109h-104z" />
<glyph unicode="&#x2000;" horiz-adv-x="899" />
<glyph unicode="&#x2001;" horiz-adv-x="1798" />
<glyph unicode="&#x2002;" horiz-adv-x="899" />
<glyph unicode="&#x2003;" horiz-adv-x="1798" />
<glyph unicode="&#x2004;" horiz-adv-x="598" />
<glyph unicode="&#x2005;" horiz-adv-x="448" />
<glyph unicode="&#x2006;" horiz-adv-x="299" />
<glyph unicode="&#x2007;" horiz-adv-x="299" />
<glyph unicode="&#x2008;" horiz-adv-x="223" />
<glyph unicode="&#x2009;" horiz-adv-x="358" />
<glyph unicode="&#x200a;" horiz-adv-x="98" />
<glyph unicode="&#x2010;" horiz-adv-x="432" d="M0 434v154h432v-154h-432z" />
<glyph unicode="&#x2011;" horiz-adv-x="432" d="M0 434v154h432v-154h-432z" />
<glyph unicode="&#x2012;" horiz-adv-x="432" d="M0 434v154h432v-154h-432z" />
<glyph unicode="&#x2013;" d="M115 434v154h796v-154h-796z" />
<glyph unicode="&#x2014;" horiz-adv-x="1292" d="M0 434v154h1292v-154h-1292z" />
<glyph unicode="&#x2018;" horiz-adv-x="442" d="M117 924v188q0 125 47 191.5t155 89.5v-125q-86 -20 -79 -146h73v-198h-196z" />
<glyph unicode="&#x2019;" horiz-adv-x="440" d="M127 920v118q39 8 60.5 46t19.5 94h-72v188h187v-178q0 -121 -46.5 -184.5t-148.5 -83.5z" />
<glyph unicode="&#x201a;" horiz-adv-x="440" d="M127 -139q39 8 60.5 46t19.5 93h-72v188h187v-178q0 -121 -46.5 -184.5t-148.5 -83.5v119z" />
<glyph unicode="&#x201c;" horiz-adv-x="743" d="M117 924v188q0 125 47 191.5t155 89.5v-125q-86 -20 -79 -146h73v-198h-196zM416 924v188q0 125 48 191.5t157 89.5v-125q-41 -8 -62.5 -48t-19.5 -98h73v-198h-196z" />
<glyph unicode="&#x201d;" horiz-adv-x="743" d="M123 897v125q41 8 62.5 48t19.5 97h-74v199h197v-188q0 -127 -49.5 -194t-155.5 -87zM424 897v125q86 20 80 145h-74v199h197v-188q0 -127 -48.5 -194t-154.5 -87z" />
<glyph unicode="&#x201e;" horiz-adv-x="743" d="M123 -145q41 8 62.5 48t19.5 97h-74v199h197v-189q0 -127 -49.5 -193.5t-155.5 -86.5v125zM424 -145q86 20 80 145h-74v199h197v-189q0 -127 -48.5 -193.5t-154.5 -86.5v125z" />
<glyph unicode="&#x2022;" horiz-adv-x="1366" d="M401 694q0 119 84 202t205 83q113 0 196 -84t83 -199q0 -119 -83 -201.5t-200 -82.5t-201 82.5t-84 199.5z" />
<glyph unicode="&#x2026;" horiz-adv-x="1320" d="M123 0v199h194v-199h-194zM563 0v199h195v-199h-195zM1004 0v199h194v-199h-194z" />
<glyph unicode="&#x202f;" horiz-adv-x="358" />
<glyph unicode="&#x2039;" horiz-adv-x="706" d="M76 508l340 461h188l-336 -461l336 -465h-188z" />
<glyph unicode="&#x203a;" horiz-adv-x="706" d="M102 45l338 463l-338 463h189l340 -463l-340 -463h-189z" />
<glyph unicode="&#x205f;" horiz-adv-x="448" />
<glyph unicode="&#x20ac;" horiz-adv-x="1339" d="M96 348l54 125h83q-2 14 -2 33q0 27 2 53h-137l54 125h106q51 172 185 273.5t313 101.5q213 0 325 -146l-2 123h146q-8 -145 -9 -217q0 -2 5 -157h-142q-27 123 -94 176q-88 72 -221 71q-113 0 -197 -58t-125 -167h471l-53 -125h-444q-2 -16 -2 -43t2 -43h407l-53 -125 h-326q41 -104 126 -161.5t204 -57.5q262 0 346 303l144 -86q-61 -178 -189.5 -272t-308.5 -94q-195 0 -330 97t-180 271h-158z" />
<glyph unicode="&#x2122;" horiz-adv-x="1785" d="M25 1071v297q53 -2 155 -2h334q70 0 168 2v-129q0 -104 2 -164h-106v195h-160v-588l125 4v-100q-84 2 -107 2h-162q-20 0 -106 -2v100l125 -4v588h-164v-199h-104zM737 586v98l101 -2v590l-99 -2v98q78 -2 107 -2h86q18 0 35 2h39l241 -569l242 569q68 -2 84 -2h74 q27 0 104 2v-98l-96 2v-590l96 2v-98q-82 2 -104 2h-115q-27 0 -100 -2v98l98 -2v537l-268 -631h-54l-268 635v-541l98 2v-98q-74 2 -100 2h-92q-19 0 -109 -2z" />
<glyph unicode="&#xe000;" horiz-adv-x="1040" d="M0 1040h1040v-1040h-1040v1040z" />
<glyph unicode="&#xfb01;" horiz-adv-x="1591" d="M66 -2v139l149 -2v768l-149 -4v141q104 -2 147 -2h530q102 0 187 4q-2 -113 -2 -151q0 -66 2 -182h-148l2 190h-399v-301h313v-137h-313v-326l152 2v-139q-106 2 -150 2h-174q-41 0 -147 -2zM1055 -2v139l151 -2v768l-151 -2v139q106 -2 149 -2h174q41 0 148 2v-139 l-150 2v-768l150 2v-139q-106 2 -148 2h-174q-40 0 -149 -2z" />
<glyph unicode="&#xfb02;" horiz-adv-x="1947" d="M66 -2v139l149 -2v768l-149 -4v141q104 -2 147 -2h530q102 0 187 4q-2 -113 -2 -151q0 -66 2 -182h-148l2 190h-399v-301h313v-137h-313v-326l152 2v-139q-106 2 -150 2h-174q-41 0 -147 -2zM1055 -2v139l151 -2v768l-151 -4v141q106 -2 149 -2h174q41 0 148 2v-141 l-150 4v-764h359q2 43 2 80q0 158 -4 248h155q-4 -135 -4 -332q0 -74 2 -137h-63l-123 2h-496q-40 0 -149 -2z" />
<glyph unicode="&#xfb03;" horiz-adv-x="2580" d="M2044 -2v139l149 -2v768l-149 -2v139q104 -2 147 -2h174q41 0 150 2v-139l-152 2v-768l152 2v-139q-106 2 -150 2h-174q-41 0 -147 -2zM1055 -2v139l149 -2v768l-149 -4v141q104 -2 147 -2h530q102 0 187 4q-2 -113 -2 -151q0 -66 2 -182h-148l2 190h-399v-301h313v-137 h-313v-326l152 2v-139q-106 2 -150 2h-174q-41 0 -147 -2zM66 -2v139l149 -2v768l-149 -4v141q104 -2 147 -2h530q102 0 187 4q-2 -113 -2 -151q0 -66 2 -182h-148l2 190h-399v-301h313v-137h-313v-326l152 2v-139q-106 2 -150 2h-174q-41 0 -147 -2z" />
<glyph unicode="&#xfb04;" horiz-adv-x="2936" d="M2044 -2v139l149 -2v768l-149 -4v141q104 -2 147 -2h174q41 0 150 2v-141l-152 4v-764h360q2 43 3 80q0 158 -5 248h156q-4 -135 -4 -332q0 -74 2 -137h-63l-123 2h-498q-41 0 -147 -2zM1055 -2v139l149 -2v768l-149 -4v141q104 -2 147 -2h530q102 0 187 4 q-2 -113 -2 -151q0 -66 2 -182h-148l2 190h-399v-301h313v-137h-313v-326l152 2v-139q-106 2 -150 2h-174q-41 0 -147 -2zM66 -2v139l149 -2v768l-149 -4v141q104 -2 147 -2h530q102 0 187 4q-2 -113 -2 -151q0 -66 2 -182h-148l2 190h-399v-301h313v-137h-313v-326l152 2 v-139q-106 2 -150 2h-174q-41 0 -147 -2z" />
</font>
</defs>
</svg>
