<?xml version="1.0" standalone="no"?>
<!DOCTYPE svg PUBLIC "-//W3C//DTD SVG 1.1//EN" "http://www.w3.org/Graphics/SVG/1.1/DTD/svg11.dtd" >
<svg xmlns="http://www.w3.org/2000/svg">
<metadata>
This is a custom SVG webfont generated by Font Squirrel.
Copyright   : Typeface  FontSite Inc 19962008 All Rights Reserved wwwfontsitecom
Designer    : FontSitecom
Foundry URL : httpwwwfontsitecom
</metadata>
<defs>
<font id="webfont77WIHItj" horiz-adv-x="614" >
<font-face units-per-em="2048" ascent="1610" descent="-438" />
<missing-glyph horiz-adv-x="382" />
<glyph unicode=" "  horiz-adv-x="382" />
<glyph unicode="&#x09;" horiz-adv-x="382" />
<glyph unicode="&#xa0;" horiz-adv-x="382" />
<glyph unicode="!" horiz-adv-x="362" d="M82 0v240h199v-240h-199zM86 1053v313h190v-313q0 -117 -24 -445l-16 -243h-109l-10 157l-13 172l-10 129q-8 97 -8 230z" />
<glyph unicode="&#x22;" horiz-adv-x="458" d="M51 1366h146l-21 -547h-104zM262 1366h146l-21 -547h-104z" />
<glyph unicode="#" horiz-adv-x="747" d="M51 455l17 102h118l39 250h-119l17 102h119l71 457h115l-74 -457h115l72 457h114l-73 -457h114l-16 -102h-115l-39 -250h119l-16 -102h-119l-72 -455h-114l71 455h-112l-72 -455h-113l72 455h-119zM299 557h113l41 250h-115z" />
<glyph unicode="$" d="M39 1061q0 143 46 215t153 92v164h135v-162q94 -25 130 -99.5t34 -246.5h-150q-2 109 -12 147q-20 82 -84 82q-82 0 -82 -141q0 -84 19.5 -133t84.5 -135q119 -156 179 -254q86 -141 86 -275q0 -178 -68 -260q-47 -57 -150 -73v-189h-135v189q-100 27 -140 96t-40 221 q0 25 2 43h164v-20q0 -131 20.5 -180.5t75.5 -49.5q96 0 96 158q0 109 -40.5 193.5t-184.5 267.5q-86 111 -112.5 178.5t-26.5 171.5z" />
<glyph unicode="%" horiz-adv-x="970" d="M18 1022q0 354 175 354q160 0 159 -332q0 -207 -45 -284q-51 -86 -129 -86q-160 0 -160 348zM135 1032q0 -152 9.5 -206t35.5 -54q55 0 56 291q0 215 -48 215q-53 0 -53 -246zM193 0l495 1366h92l-489 -1366h-98zM621 338q0 354 174 354q160 0 159 -332q0 -207 -45 -284 q-51 -86 -129 -86q-159 0 -159 348zM737 348q0 -152 9.5 -206t35.5 -54q55 0 56 291q0 215 -47 215q-54 0 -54 -246z" />
<glyph unicode="&#x26;" horiz-adv-x="841" d="M41 451q0 109 43 192.5t152 183.5q-76 195 -76 301q0 113 65.5 183.5t169.5 70.5q100 0 166 -64.5t66 -164.5q0 -182 -201 -356l127 -342q43 143 43 329v23h205v-158h-62q-25 -258 -106 -405l33 -86h135v-158h-258l-23 66q-82 -82 -160 -82q-131 0 -225 137t-94 330z M217 500q0 -121 76 -267q35 -72 88 -71q43 0 82 51l-166 446q-49 -59 -64.5 -89.5t-15.5 -69.5zM326 1139q0 -59 43 -170q94 78 94 168q0 82 -68 82q-31 0 -50 -22.5t-19 -57.5z" />
<glyph unicode="'" horiz-adv-x="247" d="M51 1366h146l-21 -547h-104z" />
<glyph unicode="(" horiz-adv-x="399" d="M53 516q0 723 305 885v-103q-41 -41 -59 -84t-29 -127q-25 -188 -24 -571q0 -434 28 -600q12 -70 28.5 -105.5t55.5 -74.5v-103q-305 158 -305 883z" />
<glyph unicode=")" horiz-adv-x="399" d="M41 -264q41 41 59.5 84t28.5 127q25 188 25 569q0 434 -29 600q-12 70 -28.5 107t-55.5 75v103q305 -162 305 -885q0 -725 -305 -883v103z" />
<glyph unicode="*" d="M39 1128l43 119l160 -53v172h133v-172l160 53l43 -119l-156 -59l98 -137l-106 -80l-105 139l-106 -139l-107 80l99 137z" />
<glyph unicode="+" horiz-adv-x="681" d="M47 614v138h219v292h148v-292h221v-138h-221v-292h-148v292h-219z" />
<glyph unicode="," horiz-adv-x="321" d="M45 -201q92 35 92 201h-76v240h199v-205q0 -158 -55 -244t-160 -92v100z" />
<glyph unicode="-" horiz-adv-x="395" d="M0 395v164h395v-164h-395z" />
<glyph unicode="." horiz-adv-x="321" d="M61 0v240h199v-240h-199z" />
<glyph unicode="/" horiz-adv-x="696" d="M-86 -334l625 1700h145l-614 -1700h-156z" />
<glyph unicode="0" d="M51 711q0 322 51 487q29 88 84.5 138t124.5 50q129 0 190.5 -164.5t61.5 -514.5q0 -391 -65 -574q-27 -70 -78 -111.5t-112.5 -41.5t-112 40.5t-76.5 110.5q-68 183 -68 580zM227 813q0 -502 21 -610q14 -74 61 -74q45 0 60.5 99.5t15.5 383.5q0 502 -29 584 q-14 41 -51 41q-39 0 -53 -51q-25 -99 -25 -373z" />
<glyph unicode="1" d="M162 0v160l74 -2v962l-74 -20v174q98 27 164 112h82v-1228l73 2v-160h-319z" />
<glyph unicode="2" d="M43 0q-6 385 236 702q66 84 88 156t22 176q0 203 -82 203q-88 0 -88 -188q0 -51 10 -121h-159q-8 66 -9 114q0 168 62.5 256t183.5 88q123 0 187.5 -87t64.5 -252q0 -145 -43 -259q-25 -61 -110 -174q-106 -143 -143.5 -226t-59.5 -230h192v258h158v-416h-510z" />
<glyph unicode="3" d="M63 371v67h168q-2 -27 -2 -59q0 -250 78 -250t78 252q0 164 -27.5 218t-113.5 54v152q80 2 103.5 42t23.5 177q0 119 -16.5 166t-55.5 47t-55.5 -42t-16.5 -144q0 -35 2 -62h-155v45q0 186 54 269t175 83q238 0 238 -370q0 -121 -32 -184.5t-116 -104.5q82 -31 113 -78 q57 -86 57 -272q0 -188 -67.5 -292.5t-188.5 -104.5q-244 0 -244 391z" />
<glyph unicode="4" d="M25 541l297 845h165v-845h72v-148h-72v-235l74 2v-160h-313v160l74 -2v235h-240q-18 80 -57 148zM164 541h158v293q0 125 20 241z" />
<glyph unicode="5" d="M63 371v35h170q-2 -23 -2 -52q0 -225 74 -225q41 0 54.5 51t13.5 215q0 223 -17 281q-16 43 -53 43q-70 0 -70 -129v-21q-57 39 -143 78l21 719h407v-295h-158v137h-110l-17 -403q57 66 123 65q96 0 151.5 -113.5t55.5 -316.5q0 -461 -258 -460q-242 0 -242 391z" />
<glyph unicode="6" d="M53 670q0 387 62 557q29 72 85 115.5t124 43.5q104 0 161.5 -93t57.5 -261q0 -23 -2 -39h-144q-8 143 -23.5 193.5t-54.5 50.5q-47 0 -63 -88t-23 -383q80 49 134 49q94 0 145 -96t51 -275q0 -219 -66.5 -341.5t-185.5 -122.5q-63 0 -118.5 37.5t-79.5 99.5 q-60 145 -60 553zM227 451q0 -193 16.5 -257.5t65.5 -64.5q43 0 59.5 63.5t16.5 231.5q0 152 -18.5 210t-63.5 58q-43 0 -59.5 -52t-16.5 -189z" />
<glyph unicode="7" d="M29 1001v365h557v-82q0 -33 -4 -44t-25 -48q-168 -287 -158 -1034l70 2v-160h-324v160l72 -2q10 393 55 627.5t150 422.5h-236v-207h-157z" />
<glyph unicode="8" d="M45 387q0 170 61 272q35 53 105 78q-150 82 -150 305q0 164 64.5 254t183.5 90q117 0 181.5 -90t64.5 -254q0 -223 -149 -305q70 -25 104 -78q61 -102 61 -272q0 -188 -70.5 -297.5t-193.5 -109.5q-121 0 -191.5 109.5t-70.5 297.5zM223 391q0 -141 19.5 -201.5 t66.5 -60.5q84 0 84 258q0 147 -18.5 207.5t-65.5 60.5t-66.5 -60.5t-19.5 -203.5zM231 1038q0 -127 17.5 -178t60.5 -51q41 0 58.5 52t17.5 175q0 106 -18.5 153.5t-59.5 47.5q-76 0 -76 -199z" />
<glyph unicode="9" d="M53 922q0 219 66.5 341.5t185.5 122.5q63 0 118.5 -37.5t80.5 -99.5q59 -145 59 -553q0 -387 -61 -557q-29 -72 -85.5 -115.5t-123.5 -43.5q-104 0 -161.5 93t-57.5 261v39h145q8 -143 23.5 -193.5t54.5 -50.5q47 0 63.5 88t22.5 383q-80 -49 -133 -49q-94 0 -145.5 96.5 t-51.5 274.5zM231 942q0 -152 18.5 -210t63.5 -58q43 0 59.5 52t16.5 189q0 160 -10 232q-4 41 -23.5 65.5t-48.5 24.5q-43 0 -59.5 -63.5t-16.5 -231.5z" />
<glyph unicode=":" horiz-adv-x="321" d="M61 0v240h199v-240h-199zM61 702v240h199v-240h-199z" />
<glyph unicode=";" horiz-adv-x="307" d="M31 -201q92 35 92 201h-76v240h199v-205q0 -158 -55.5 -244t-159.5 -92v100zM47 702v240h199v-240h-199z" />
<glyph unicode="&#x3c;" horiz-adv-x="1024" d="M86 707v14l852 543v-88l-614 -398l614 -411v-232z" />
<glyph unicode="=" horiz-adv-x="681" d="M47 461v137h588v-137h-588zM47 766v137h588v-137h-588z" />
<glyph unicode="&#x3e;" horiz-adv-x="1024" d="M86 135v88l614 398l-614 409v234l852 -572v-14z" />
<glyph unicode="?" horiz-adv-x="647" d="M82 942q4 182 20 260q18 82 83 133t153 51q125 0 190.5 -104t65.5 -303q0 -317 -186 -352l-31 -250h-92l-37 397q35 -14 53 -14q68 0 88 78q12 59 12 176q0 123 -14 167t-53 44q-41 0 -58.5 -56.5t-17.5 -191.5v-35h-176zM233 0v240h199v-240h-199z" />
<glyph unicode="@" horiz-adv-x="1228" d="M61 449q0 299 176.5 509.5t426.5 210.5q217 0 360 -158.5t143 -402.5q0 -193 -92 -344t-211 -151q-100 0 -139 116q-66 -127 -176 -127q-90 0 -149.5 85t-59.5 216q0 168 87 294t202 126q51 0 82.5 -27.5t58.5 -95.5l21 101h127l-78 -408q-12 -57 -13 -98 q0 -33 13.5 -53.5t33.5 -20.5q66 0 120.5 120t54.5 261q0 199 -109 325t-278 126q-199 0 -336.5 -175.5t-137.5 -428.5q0 -217 111 -375q115 -160 328 -160q176 0 325 82l29 -117q-164 -84 -354 -84q-262 0 -414 189q-152 193 -152 465zM481 410q0 -78 28 -127.5t71 -49.5 q59 0 105 88.5t46 202.5q0 74 -24.5 117t-67.5 45q-59 4 -108.5 -81.5t-49.5 -194.5z" />
<glyph unicode="A" horiz-adv-x="808" d="M0 0v174l94 -4l152 1026l-92 -4v174h522v-174l-94 4l143 -1026l84 4v-174h-356v174l67 -4l-33 303h-153l-35 -303l76 4v-174h-375zM348 637h125l-59 620z" />
<glyph unicode="B" horiz-adv-x="761" d="M47 0v174l92 -4v1026l-92 -4v174h232q123 0 188 -16.5t113 -61.5q106 -96 106 -278q0 -119 -46 -187.5t-151 -105.5q98 -20 144 -68q86 -96 86 -258q0 -201 -119 -307q-51 -47 -117.5 -65.5t-185.5 -18.5h-250zM330 170q100 2 142 55.5t42 180.5q0 125 -39 173t-145 56 v-465zM330 801q84 2 117.5 43t33.5 143q0 109 -33.5 159t-105.5 50h-12v-395z" />
<glyph unicode="C" horiz-adv-x="706" d="M61 721q0 342 84 524q29 63 80 102t105 39q76 0 135 -73v53h170v-455h-170q-4 158 -28.5 227.5t-78.5 69.5q-51 0 -69 -69q-23 -94 -23 -449q0 -401 43 -487q25 -45 64 -45q100 0 100 262l-4 78l172 -54q0 -170 -37 -268q-35 -94 -96.5 -145t-138.5 -51q-76 0 -140.5 52 t-97.5 142q-70 189 -70 547z" />
<glyph unicode="D" horiz-adv-x="792" d="M47 0v174l92 -4v1026l-92 -4v174h211q139 0 216 -27.5t128 -97.5q129 -180 129 -567q0 -375 -137 -547q-53 -70 -131 -98.5t-207 -28.5h-209zM330 170q76 2 112 39q84 84 84 442q0 420 -84 504q-39 39 -112 41v-1026z" />
<glyph unicode="E" horiz-adv-x="737" d="M47 0v172l92 -2v1026l-92 -2v172h629v-405h-170v235h-176v-414h151v-164h-151v-448h176v258h170v-428h-629z" />
<glyph unicode="F" horiz-adv-x="718" d="M47 0v174l92 -4v1026l-92 -2v172h629v-405h-170v235h-176v-414h151v-164h-151v-448l94 4v-174h-377z" />
<glyph unicode="G" horiz-adv-x="720" d="M59 627q0 442 86 628q27 59 79 95t112 36q49 0 79.5 -20t57.5 -70v70h170v-442h-170q-2 143 -27 211q-29 74 -77 73q-43 0 -66 -53q-39 -88 -39 -565q0 -240 22.5 -336t78.5 -96q102 0 108 338h-98v163h301q-12 -336 -45 -440q-72 -240 -264 -239q-308 0 -308 647z" />
<glyph unicode="H" horiz-adv-x="880" d="M47 0v174l92 -4v1026l-92 -4v174h352v-174l-69 4v-391h219v391l-70 -4v174h352v-174l-92 4v-1026l92 4v-174h-352v174l70 -4v471h-219v-471l69 4v-174h-352z" />
<glyph unicode="I" horiz-adv-x="473" d="M47 0v174l92 -4v1026l-92 -4v174h377v-174l-94 4v-1026l94 4v-174h-377z" />
<glyph unicode="J" horiz-adv-x="452" d="M10 -150q63 0 82 4.5t29 24.5q20 41 20 182v1135l-92 -4v174h377v-174l-94 4v-1112q0 -231 -47 -309q-53 -96 -170 -97q-43 0 -105 19v153z" />
<glyph unicode="K" horiz-adv-x="839" d="M47 0v174l92 -4v1026l-92 -4v174h346v-174l-63 4v-1026l63 4v-174h-346zM352 705l195 491l-78 -4v174h328v-174l-70 4l-188 -465l209 -561l83 4v-174h-362v174l78 -4z" />
<glyph unicode="L" horiz-adv-x="706" d="M47 0v172l92 -2v1026l-92 -4v174h377v-174l-94 4v-1026h164v424h170v-594h-617z" />
<glyph unicode="M" horiz-adv-x="1089" d="M47 0v174l92 -4v1026l-92 -4v174h399l95 -723l106 723h393v-174l-92 4v-1026l92 4v-174h-368v174l92 -4v633q0 131 10 452h-10q-20 -193 -49 -374l-144 -881h-63l-148 874q-35 201 -55 369h-10q10 -178 10 -436v-637l94 4v-174h-352z" />
<glyph unicode="N" horiz-adv-x="862" d="M47 0v174l92 -4v1026l-92 -4v174h297l168 -569q47 -164 59 -228h9q-4 63 -5 142v485l-92 -4v174h344v-174l-94 4v-1196h-158l-223 760l-24 82q-8 27 -31 129h-6q6 -115 6 -146v-655l92 4v-174h-342z" />
<glyph unicode="O" horiz-adv-x="739" d="M59 676q0 362 91 541q39 80 101 124.5t134 44.5q70 0 129 -45t94 -127q74 -174 74 -491q0 -414 -88 -576q-92 -168 -236 -167q-160 0 -237 202q-62 154 -62 494zM264 696q0 -422 39 -497q18 -41 59 -41q63 0 89 137t26 465q0 246 -22.5 347t-77.5 101q-61 0 -87 -116.5 t-26 -395.5z" />
<glyph unicode="P" horiz-adv-x="763" d="M47 0v174l92 -4v1026l-92 -4v174h232q143 0 215.5 -17.5t126.5 -64.5q129 -111 129 -336q0 -207 -105 -323q-86 -98 -264 -99q-31 0 -51 2v-358l94 4v-174h-377zM330 692q125 6 170 58.5t45 187.5q0 166 -70 223q-43 35 -145 35v-504z" />
<glyph unicode="Q" horiz-adv-x="739" d="M59 672q0 362 91 545q37 78 100 123.5t135 45.5q70 0 130 -46t93 -126q74 -170 74 -497q0 -336 -62.5 -508t-201.5 -217q72 -55 108.5 -70.5t126.5 -30.5l-39 -145q-70 2 -108.5 19.5t-143.5 89.5q-49 35 -90 34q-29 0 -82 -39l-51 78l140 76q-61 33 -95 72t-63 106 q-62 158 -62 490zM264 696q0 -420 39 -491q20 -41 59 -41q63 0 89 135t26 461q0 246 -22.5 347t-77.5 101q-61 0 -87 -116.5t-26 -395.5z" />
<glyph unicode="R" horiz-adv-x="784" d="M47 0v174l92 -4v1026l-92 -4v174h268q231 0 316 -86q96 -102 96 -293q0 -231 -149 -309l131 -508l61 4v-174h-219l-139 623q-39 -8 -62 -9h-20v-444l94 4v-174h-377zM330 780q98 2 133 31q68 49 67 168q0 106 -41 168q-29 39 -133 47l-26 2v-416z" />
<glyph unicode="S" horiz-adv-x="673" d="M61 1083q0 131 61.5 217t156.5 86q47 0 74.5 -17t56.5 -64v61h163v-418h-163v92q0 98 -18.5 137.5t-65.5 39.5q-35 0 -57.5 -28t-22.5 -73q0 -68 34.5 -136.5t127.5 -180.5q119 -150 169 -259.5t50 -224.5q0 -147 -67.5 -241t-174.5 -94q-86 0 -141 69v-49h-164v473h164 v-125q0 -100 20 -143q27 -55 80 -55q41 0 66.5 41.5t25.5 107.5q0 129 -174 346q-117 145 -159 237t-42 201z" />
<glyph unicode="T" horiz-adv-x="782" d="M41 872v494h700v-494h-157v324h-101v-1026l92 4v-174h-374v174l92 -4v1026h-94v-324h-158z" />
<glyph unicode="U" horiz-adv-x="813" d="M27 1192v174h352v-174l-70 4v-821q0 -135 23 -178q25 -47 88 -47q61 0 81.5 46t20.5 179v821l-69 -4v174h331v-174l-92 4v-823q0 -127 -9 -182.5t-38 -102.5q-63 -109 -239.5 -108.5t-241.5 110.5q-45 78 -45 285v821z" />
<glyph unicode="V" horiz-adv-x="765" d="M0 1192v174h358v-174l-69 4l114 -764l93 764l-66 -4v174h336v-174l-92 4l-197 -1196h-155l-232 1196z" />
<glyph unicode="W" horiz-adv-x="1132" d="M0 1192v174h358v-174l-77 4l114 -768l113 768l-76 -4v174h295v-174l-72 4l115 -780l107 780l-72 -4v174h328v-174l-82 4l-195 -1196h-162l-116 807l-115 -807h-164l-213 1196z" />
<glyph unicode="X" horiz-adv-x="784" d="M14 0v174l78 -4l199 506l-199 520l-78 -4v174h353v-174l-68 4l98 -299l111 299l-64 -4v174h328v-174l-84 4l-203 -502l203 -524l84 4v-174h-358v174l71 -4l-104 297l-111 -297l66 4v-174h-322z" />
<glyph unicode="Y" horiz-adv-x="804" d="M0 1192v174h367v-174l-95 4l74 -213q43 -123 60 -199q14 63 55 195l69 217l-90 -4v174h365v-174l-94 4l-211 -584v-442l94 4v-174h-377v174l92 -4v442l-223 584z" />
<glyph unicode="Z" horiz-adv-x="647" d="M55 0v170l351 1026h-177v-285h-157v455h522v-170l-346 -1026h188v279h158v-449h-539z" />
<glyph unicode="[" horiz-adv-x="399" d="M59 -334v1700h295v-137h-112v-1426h112v-137h-295z" />
<glyph unicode="\" horiz-adv-x="696" d="M23 1366h143l627 -1700h-158z" />
<glyph unicode="]" horiz-adv-x="399" d="M45 -197h113v1426h-113v137h295v-1700h-295v137z" />
<glyph unicode="^" horiz-adv-x="1024" d="M-53 582l571 852h14l545 -852h-88l-397 614l-412 -614h-233z" />
<glyph unicode="_" horiz-adv-x="1024" d="M0 -182h1024v-101h-1024v101z" />
<glyph unicode="`" horiz-adv-x="1024" d="M334 1325h166l94 -268h-100z" />
<glyph unicode="a" horiz-adv-x="636" d="M59 289q0 129 54.5 210t140.5 81q63 0 123 -66v172q0 70 -13.5 96.5t-48.5 26.5q-29 0 -43 -20.5t-18 -71.5l-2 -21l-170 45q27 121 81 173.5t156 52.5q125 0 176.5 -65.5t51.5 -227.5v-516l61 2v-160h-231v78q-33 -55 -62.5 -75.5t-74.5 -20.5q-84 0 -132.5 82 t-48.5 225zM242 289q0 -150 67 -150q35 0 68 45v199q-18 47 -58 47q-77 0 -77 -141z" />
<glyph unicode="b" horiz-adv-x="661" d="M29 0v160l73 -2v1050l-73 -2v160h243v-485q70 86 146 86q193 0 192 -475q0 -510 -200 -510q-78 0 -138 106v-88h-243zM274 528q0 -289 27 -342q18 -39 53 -39q43 0 58.5 62.5t15.5 239.5q0 217 -16.5 292.5t-63.5 75.5q-43 0 -58.5 -60.5t-15.5 -228.5z" />
<glyph unicode="c" horiz-adv-x="579" d="M51 532q0 428 197 429q72 0 129 -89v70h143v-344h-143q-2 205 -72 205q-45 0 -58.5 -60.5t-13.5 -261.5q0 -199 15.5 -270.5t56.5 -71.5q37 0 53.5 49.5t18.5 165.5l160 -69q-18 -156 -73.5 -229.5t-156.5 -73.5q-68 0 -124 36.5t-81 98.5q-51 126 -51 415z" />
<glyph unicode="d" horiz-adv-x="661" d="M51 492q0 246 46 360.5t147 114.5q76 0 147 -86v327l-76 -2v160h246v-1208l62 2v-160h-232v88q-61 -106 -139 -106q-201 0 -201 510zM233 453q0 -180 15.5 -243t60.5 -63q39 0 60 52q20 66 20 329q0 168 -15.5 228.5t-60.5 60.5q-47 0 -63.5 -75.5t-16.5 -288.5z" />
<glyph unicode="e" horiz-adv-x="577" d="M51 494q0 244 57.5 358.5t180.5 114.5q240 0 239 -465v-78h-295q8 -180 21.5 -235.5t50.5 -55.5q57 0 70 154l153 -56q-16 -119 -78.5 -187.5t-152.5 -68.5q-57 0 -108.5 36t-77.5 93q-60 132 -60 390zM231 561h129q-2 111 -8 161t-18 68.5t-41 18.5q-35 0 -48.5 -48 t-13.5 -175v-25z" />
<glyph unicode="f" horiz-adv-x="423" d="M35 0v160l74 -2v626h-74v158h74v135q0 143 41 207q59 96 178 96q74 0 120 -40t78 -132l-155 -49q-6 45 -15.5 60.5t-31.5 15.5q-27 0 -36 -26.5t-9 -102.5v-164h102v-158h-102v-626l75 2v-160h-319z" />
<glyph unicode="g" horiz-adv-x="645" d="M53 485q0 475 195 476q72 0 137 -99v80h231v-160l-61 2v-585q0 -197 -11.5 -286t-43.5 -140q-70 -106 -226 -107q-106 0 -217 68l88 129q63 -39 131 -39q63 0 86 57.5t23 222.5q-31 -63 -59.5 -86.5t-71.5 -23.5q-201 -1 -201 491zM236 469q0 -182 15 -249.5t58 -67.5 t59.5 69.5t16.5 247.5q0 205 -14.5 269.5t-61.5 64.5q-45 0 -59 -66.5t-14 -267.5z" />
<glyph unicode="h" horiz-adv-x="686" d="M29 0v160l73 -2v1050l-73 -2v160h243v-465q72 66 150 66q94 0 133 -69t39 -232v-508l61 2v-160h-231v668q0 86 -12.5 113.5t-46.5 27.5q-47 0 -93 -51v-600l74 2v-160h-317z" />
<glyph unicode="i" horiz-adv-x="382" d="M35 0v160l74 -2v626l-74 -2v160h244v-784l61 2v-160h-305zM68 1272q0 45 32.5 77.5t79.5 32.5q45 0 78 -32.5t33 -77.5q0 -47 -33 -80t-80 -33q-45 0 -77.5 33t-32.5 80z" />
<glyph unicode="j" horiz-adv-x="348" d="M-10 -174h12q63 0 81.5 31.5t18.5 140.5v786l-73 -2v160h243v-946q0 -129 -18 -194.5t-66 -96.5q-51 -37 -198 -39v160zM59 1264q0 47 34 79.5t81 32.5q45 0 78 -33.5t33 -78.5q0 -47 -34 -80t-79 -33t-79 33t-34 80z" />
<glyph unicode="k" horiz-adv-x="679" d="M29 0v160l73 -2v1050l-73 -2v160h243v-846h7l131 264l-74 -2v160h309v-160l-78 2l-127 -256l142 -370l63 2v-160h-174l-192 500h-7v-342l62 2v-160h-305z" />
<glyph unicode="l" horiz-adv-x="374" d="M29 0v160l73 -2v1050l-73 -2v160h243v-1208l62 2v-160h-305z" />
<glyph unicode="m" horiz-adv-x="999" d="M35 0v160l74 -2v626l-74 -2v160h244v-84q70 102 153 103q90 0 135 -103q78 102 166 103q104 0 144 -87q31 -63 30 -210v-506l62 2v-160h-232v678q0 76 -11 100.5t-44 24.5q-47 0 -68.5 -41t-21.5 -133v-471l76 2v-160h-246v678q0 76 -11.5 100.5t-43.5 24.5 q-88 0 -88 -174v-471l73 2v-160h-317z" />
<glyph unicode="n" horiz-adv-x="702" d="M35 0v160l74 -2v626l-74 -2v160h244v-74q47 53 81.5 73t83.5 20q53 0 92 -27t56 -74q18 -61 18 -223v-479l62 2v-160h-232v639q0 96 -14 130t-57 34q-49 0 -69.5 -45t-20.5 -158v-442l73 2v-160h-317z" />
<glyph unicode="o" horiz-adv-x="610" d="M51 487q0 229 67.5 354.5t192.5 125.5q121 0 185.5 -127t64.5 -369q0 -496 -250 -496q-63 0 -119.5 40t-85.5 102q-55 124 -55 370zM233 483q0 -219 13.5 -284.5t58.5 -65.5t59.5 70.5t14.5 288.5q0 186 -15.5 251.5t-58.5 65.5t-57.5 -64.5t-14.5 -261.5z" />
<glyph unicode="p" horiz-adv-x="651" d="M18 -174l74 -2v960l-74 -2v160h244v-88q59 106 137 107q201 0 201 -510q0 -246 -46 -361t-146 -115q-76 0 -146 86v-237l74 2v-160h-318v160zM264 414q0 -168 15.5 -228.5t58.5 -60.5q47 0 63.5 75.5t16.5 288.5q0 180 -15.5 243t-60.5 63q-39 0 -57 -52 q-21 -55 -21 -329z" />
<glyph unicode="q" horiz-adv-x="651" d="M51 451q0 510 201 510q78 0 139 -107v88h244v-160l-74 2v-960l74 2v-160h-320v160l76 -2v237q-72 -86 -147 -86q-193 1 -193 476zM233 494q0 -217 16.5 -293t63.5 -76q45 0 60.5 60.5t15.5 228.5q0 289 -27 342q-18 39 -55 39q-43 0 -58.5 -62.5t-15.5 -238.5z" />
<glyph unicode="r" horiz-adv-x="505" d="M35 0v160l74 -2v626l-74 -2v160h244v-184q39 113 81.5 155.5t116.5 47.5v-187q-109 0 -160 -86q-39 -70 -38 -239v-291l90 2v-160h-334z" />
<glyph unicode="s" horiz-adv-x="567" d="M47 715q0 102 50 174t122 72q84 0 119 -107v88h158v-311h-158q-2 98 -17.5 138t-50.5 40q-47 0 -47 -84q0 -57 23.5 -91t109.5 -102q96 -74 131 -134t35 -156q0 -111 -52 -185.5t-128 -74.5q-63 0 -129 75v-57h-158v330h158q2 -190 76 -191q57 0 57 86q0 55 -27.5 92 t-113.5 105q-90 70 -124 132.5t-34 160.5z" />
<glyph unicode="t" horiz-adv-x="419" d="M23 784v158h75v199l170 92v-291h97v-158h-97v-505q0 -63 4 -101q10 -39 47 -39q16 0 46 13v-152q-55 -18 -95 -18q-104 0 -143 69q-29 49 -29 191v542h-75z" />
<glyph unicode="u" horiz-adv-x="688" d="M18 782v160h244v-651q0 -152 64 -152q59 0 90 78v567l-74 -2v160h244v-784l61 2v-160h-231v82q-47 -57 -83 -78.5t-85 -21.5q-86 0 -121 63.5t-35 216.5v522z" />
<glyph unicode="v" horiz-adv-x="645" d="M0 782v160h289v-160l-66 2l94 -522l107 522l-68 -2v160h289v-160l-59 2l-187 -784h-176l-160 784z" />
<glyph unicode="w" horiz-adv-x="923" d="M0 782v160h266v-160l-57 2l70 -485l110 643h160l102 -631l78 473l-65 -2v160h260v-160l-56 2l-139 -784h-158l-106 657l-105 -657h-163l-144 784z" />
<glyph unicode="x" horiz-adv-x="595" d="M4 0v160l96 -2l121 317l-108 309l-78 -2v160h186l33 -90l49 -172q20 72 57 172l33 90h170v-160l-76 2l-110 -286l110 -340l101 2v-160h-211l-43 133q-29 88 -43 158l-53 -160l-50 -131h-184z" />
<glyph unicode="y" horiz-adv-x="643" d="M0 782v160h293v-160l-70 2l113 -534l86 534l-66 -2v160h287v-160l-55 2l-252 -1118h-264v158h133l43 192l-189 768z" />
<glyph unicode="z" horiz-adv-x="573" d="M27 0v182l327 602h-151v-163h-146v321h475v-186l-329 -598h184v176h145v-334h-505z" />
<glyph unicode="{" horiz-adv-x="487" d="M18 457v118q66 20 91.5 61.5t25.5 125.5v299q0 145 43 219q53 86 195 86h67v-135q-72 0 -96.5 -37t-24.5 -141v-299q0 -98 -36.5 -150.5t-128.5 -87.5q92 -35 128.5 -87t36.5 -150v-299q0 -104 25 -141.5t96 -37.5v-135h-67q-141 0 -195 86q-43 74 -43 219v299 q0 84 -25.5 125.5t-91.5 61.5z" />
<glyph unicode="|" horiz-adv-x="1024" d="M449 -342v1708h129v-1708h-129z" />
<glyph unicode="}" horiz-adv-x="487" d="M47 -199q72 0 96.5 37t24.5 142v299q0 98 37 150t129 87q-92 35 -129 87t-37 151v299q0 104 -24.5 141t-96.5 37v135h68q141 0 194 -86q43 -74 43 -219v-299q0 -84 25.5 -125t91.5 -62v-118q-66 -20 -91.5 -61.5t-25.5 -125.5v-299q0 -145 -43 -219q-53 -86 -194 -86h-68 v135z" />
<glyph unicode="~" horiz-adv-x="1366" d="M258 1272q119 205 281 205q51 0 180 -43q109 -39 162 -39q109 0 194 108l33 -20q-49 -90 -126 -146.5t-153 -56.5q-43 0 -182 47q-119 39 -176 39q-53 0 -86 -20.5t-94 -94.5z" />
<glyph unicode="&#xa1;" horiz-adv-x="362" d="M82 791v239h199v-239h-199zM86 -20q0 117 25 444l16 244h109l10 -158l22 -301q8 -129 8 -229v-314h-190v314z" />
<glyph unicode="&#xa2;" d="M63 662q0 219 41 331.5t132 145.5v155h137v-155q174 -27 180 -365h-156q-12 229 -78 230q-41 0 -57 -70t-16 -244q0 -215 16.5 -297t56.5 -82q66 0 66 203q0 14 -2 27l166 -76q-16 -154 -57 -222.5t-119 -74.5v-168h-137v168q-94 25 -133.5 136.5t-39.5 357.5z" />
<glyph unicode="&#xa3;" d="M-12 180q0 82 35.5 131t95.5 49q39 0 104 -47q4 55 4 70q0 80 -39 219h-180v137h152q-8 33 -8 35l-23 96q-29 115 -29 232q0 129 66.5 206.5t177.5 77.5q117 0 171 -87t56 -277h-159q-6 129 -22.5 174t-55.5 45q-68 0 -68 -113q0 -70 9.5 -127t52.5 -262h178v-137h-158 q8 -92 8 -141q0 -127 -28 -219q70 -68 131 -68q70 0 69 125q0 33 -2 53h82q4 -33 4 -82q0 -291 -159 -290q-41 0 -74 18t-84 76l-19 20q-41 -66 -70.5 -90t-74.5 -24q-63 0 -103 56t-40 144zM63 176q0 -35 17.5 -58.5t44.5 -23.5q53 0 78 84l-10 19q-31 53 -74 53 q-56 0 -56 -74z" />
<glyph unicode="&#xa4;" horiz-adv-x="849" d="M47 408l117 116q-2 4 -6 11q-4 6 -4 8q-31 55 -38 76.5t-7 62.5t7 62.5t38 76.5l10 21l-117 116l100 101l117 -115l21 10q61 31 80.5 37t58.5 6q41 0 62.5 -6t76.5 -37l21 -10l116 115l101 -101l-117 -116l10 -19q31 -57 38 -78.5t7 -62.5t-7 -62.5t-38 -76.5l-10 -19 l117 -116l-101 -103l-116 117q-90 -53 -160 -53q-43 0 -71.5 10t-88.5 43l-117 -117zM209 686q0 -90 62.5 -153.5t152.5 -63.5q88 0 151.5 62.5t63.5 152.5q0 88 -63.5 150.5t-151.5 62.5t-151.5 -62.5t-63.5 -148.5z" />
<glyph unicode="&#xa5;" d="M-35 1192v174h311v-174l-79 4l63 -213q31 -102 49 -199q20 92 49 195l60 217l-78 -4v174h309v-174l-82 4l-104 -352h102v-137h-145l-29 -95h174v-137h-174v-303l80 2v-174h-321v174l79 -2v303h-182v137h182l-30 95h-152v137h107l-115 352z" />
<glyph unicode="&#xa6;" horiz-adv-x="1024" d="M449 313h129v-655h-129v655zM449 672v694h129v-694h-129z" />
<glyph unicode="&#xa7;" d="M39 514q0 240 158 336q-59 72 -83 130t-24 136q0 117 63.5 189.5t165.5 72.5q106 0 155.5 -84t49.5 -268h-157q-2 98 -9 125q-12 55 -51 55q-55 0 -55 -73q0 -45 23.5 -84t93.5 -111q123 -125 166 -215t43 -225q0 -115 -40 -191t-130 -129q117 -117 116 -270 q0 -115 -60.5 -184.5t-160.5 -69.5q-78 0 -133 44t-76 122q-14 57 -14 190h162q2 -109 15 -142.5t52 -33.5q49 0 49 64q0 53 -26.5 99t-91.5 105q-78 70 -113 119q-88 121 -88 293zM217 541q0 -90 34 -162t77 -72q33 0 52 49.5t19 126.5q0 96 -29.5 168t-68.5 72 q-35 0 -59.5 -53t-24.5 -129z" />
<glyph unicode="&#xa8;" horiz-adv-x="1024" d="M272 1182q0 43 31 72.5t74 29.5q41 0 70.5 -30.5t29.5 -71.5t-30.5 -72t-71.5 -31q-43 0 -73 31t-30 72zM545 1182q0 43 30.5 72.5t73.5 29.5q41 0 71 -30.5t30 -71.5t-31 -72t-72 -31q-43 0 -72.5 31t-29.5 72z" />
<glyph unicode="&#xa9;" horiz-adv-x="1562" d="M68 682q0 299 209.5 507t513.5 208q287 0 494.5 -211t207.5 -504q0 -295 -209 -504t-504 -209q-293 0 -502.5 210t-209.5 503zM166 682q0 -256 180 -439.5t434 -183.5t434.5 183.5t180.5 441.5q0 256 -179.5 439.5t-427.5 183.5q-262 0 -442 -181.5t-180 -443.5zM606 711 q0 182 42 281.5t120 99.5q41 0 72 -31v18h112v-268h-112q-2 166 -56 166q-23 0 -32 -35q-12 -45 -13 -250q0 -219 23 -268q12 -23 31 -23q51 0 51 142q0 23 -2 53l114 -35v-18q0 -115 -45 -184.5t-120 -69.5q-185 0 -185 422z" />
<glyph unicode="&#xaa;" horiz-adv-x="409" d="M27 647v72h374v-72h-374zM51 989q0 76 33 123t84 47q33 0 63 -29v80q0 61 -28 62q-23 0 -29 -45l-2 -19l-111 29q16 76 49 106.5t95 30.5q76 0 106.5 -38t30.5 -132v-282h35v-103h-146v27q-29 -37 -71 -37q-51 0 -80 48t-29 132zM168 989q0 -78 31 -78q18 0 32 21v106 q-8 23 -26 23q-37 0 -37 -72z" />
<glyph unicode="&#xab;" horiz-adv-x="720" d="M27 477l172 391h163l-176 -391l176 -397h-163zM330 477l174 391h162l-177 -391l177 -397h-162z" />
<glyph unicode="&#xac;" horiz-adv-x="1024" d="M70 451v96h882v-547h-221v451h-661z" />
<glyph unicode="&#xad;" horiz-adv-x="395" d="M0 395v164h395v-164h-395z" />
<glyph unicode="&#xae;" horiz-adv-x="1562" d="M68 682q0 299 209.5 507t513.5 208q287 0 494.5 -211t207.5 -504q0 -295 -209 -504t-504 -209q-293 0 -502.5 210t-209.5 503zM166 682q0 -256 180 -439.5t434 -183.5t434.5 183.5t180.5 441.5q0 256 -179.5 439.5t-427.5 183.5q-262 0 -442 -181.5t-180 -443.5zM563 301 v111l53 -2v561l-53 -2v110h164q137 0 188 -51q57 -61 58 -168q0 -133 -86 -176l74 -274l36 2v-111h-139l-80 346l-37 -2v-235l56 2v-111h-234zM741 752q55 2 79 26.5t24 77.5q0 82 -39 105q-14 8 -64 10v-219z" />
<glyph unicode="&#xaf;" horiz-adv-x="1024" d="M307 1116v127h410v-127h-410z" />
<glyph unicode="&#xb0;" horiz-adv-x="667" d="M51 1108q0 113 84 193.5t199 80.5q117 0 199.5 -81.5t82.5 -196.5t-82.5 -197t-199.5 -82q-119 0 -201 82t-82 201zM141 1106q0 -80 56.5 -136.5t136.5 -56.5t136 56.5t56 134.5t-56 134t-136 56q-78 0 -135.5 -56t-57.5 -132z" />
<glyph unicode="&#xb1;" horiz-adv-x="681" d="M47 137v137h588v-137h-588zM47 682v137h219v293h148v-293h221v-137h-221v-293h-148v293h-219z" />
<glyph unicode="&#xb2;" horiz-adv-x="436" d="M43 545q-6 229 154 424q43 51 57 92t14 102q0 117 -49 117q-53 0 -53 -106q0 -29 8 -76h-113q-6 45 -6 71q0 209 164 209q82 0 125 -53t43 -154q0 -82 -20.5 -134t-79.5 -124q-70 -86 -93.5 -134t-37.5 -132h116v154h111v-256h-340z" />
<glyph unicode="&#xb3;" horiz-adv-x="436" d="M55 772v43h117v-37q0 -145 47 -145t47 145q0 96 -17.5 126t-76.5 30v98q53 0 67.5 22.5t14.5 102.5q0 123 -41 123q-43 0 -43 -106q0 -23 2 -41h-111v32q0 111 37 162t115 51q160 0 160 -225q0 -127 -88 -172q104 -35 104 -207q0 -113 -45 -176t-127 -63 q-162 -1 -162 237z" />
<glyph unicode="&#xb4;" horiz-adv-x="1024" d="M430 1057l94 268h166l-160 -268h-100z" />
<glyph unicode="&#xb5;" horiz-adv-x="925" d="M-6 -291q0 39 14 125q59 315 60 721v381h172v-586q0 -166 47 -227q43 -53 121 -53q127 0 231 153v713h170v-690q0 -94 17.5 -127t64.5 -33q27 0 61 20v-34l-188 -92q-2 -2 -8 -3q-74 0 -99 127l-8 39q-109 -106 -166 -140t-135 -34q-86 0 -139 43t-86 138v-58 q0 -86 35 -278q12 -61 12 -101q0 -45 -24.5 -74.5t-63.5 -29.5t-63.5 28.5t-24.5 71.5z" />
<glyph unicode="&#xb6;" horiz-adv-x="681" d="M43 1018q0 209 107 297q59 51 169 51h318v-160l-74 2v-1384l74 2v-160h-172v1540h-82v-1540h-180v160l82 -2v862q-12 -2 -29 -2q-100 0 -156.5 89t-56.5 245z" />
<glyph unicode="&#xb7;" horiz-adv-x="321" d="M61 358v240h199v-240h-199z" />
<glyph unicode="&#xb8;" horiz-adv-x="1024" d="M430 -96h164v-125q0 -72 -11.5 -109t-41.5 -67q-37 -35 -111 -49v90q82 20 82 100q0 4 -2 6h-80v154z" />
<glyph unicode="&#xb9;" horiz-adv-x="436" d="M119 547v102h47v561l-47 -12v113q61 16 108 67h60v-729h47v-102h-215z" />
<glyph unicode="&#xba;" horiz-adv-x="409" d="M18 647v72h375v-72h-375zM53 1098q0 131 41 203.5t115 72.5q150 0 149.5 -284.5t-149.5 -284.5q-156 0 -156 293zM170 1096q0 -117 6 -153t28.5 -36t30 40t7.5 155q0 98 -8.5 134t-29 36t-27.5 -36t-7 -140z" />
<glyph unicode="&#xbb;" horiz-adv-x="720" d="M55 88l176 391l-176 398h164l172 -398l-172 -391h-164zM358 88l179 391l-179 398h164l172 -398l-172 -391h-164z" />
<glyph unicode="&#xbc;" horiz-adv-x="1044" d="M119 547v102h47v561l-47 -12v113q61 16 108 67h60v-729h47v-102h-215zM225 0l498 1366h96l-489 -1366h-105zM635 326l196 505h113v-501h47v-97h-47v-131h47v-102h-211v102h49v131h-155q-10 50 -39 93zM735 330h94v170q0 29 7 100z" />
<glyph unicode="&#xbd;" horiz-adv-x="1044" d="M119 547v102h47v561l-47 -12v113q61 16 108 67h60v-729h47v-102h-215zM225 0l498 1366h96l-489 -1366h-105zM651 0q-2 233 154 424q72 84 72 192q0 117 -50 117q-53 0 -53 -106q0 -29 8 -76h-112q-6 47 -6 72q0 209 163 208q82 0 125 -53t43 -153q0 -82 -20.5 -134.5 t-79.5 -123.5q-70 -84 -93.5 -131.5t-37.5 -133.5h117v154h110v-256h-340z" />
<glyph unicode="&#xbe;" horiz-adv-x="1044" d="M55 772v43h117v-37q0 -145 47 -145t47 145q0 96 -17.5 126t-76.5 30v98q53 0 67.5 22.5t14.5 102.5q0 123 -41 123q-43 0 -43 -106q0 -23 2 -41h-111v32q0 111 37 162t115 51q160 0 160 -225q0 -127 -88 -172q104 -35 104 -207q0 -113 -45 -176t-127 -63 q-162 -1 -162 237zM225 0l498 1366h96l-489 -1366h-105zM635 326l196 505h113v-501h47v-97h-47v-131h47v-102h-211v102h49v131h-155q-10 50 -39 93zM735 330h94v170q0 29 7 100z" />
<glyph unicode="&#xbf;" horiz-adv-x="647" d="M55 53q0 315 187 350l30 250h93l36 -397q-33 16 -55 16q-68 0 -86 -77q-12 -55 -12 -177q0 -123 13 -167t52 -44q45 0 59.5 55.5t16.5 227.5h178q-8 -197 -20 -260q-18 -82 -83 -133t-153 -51q-125 0 -190.5 104t-65.5 303zM217 791v239h199v-239h-199z" />
<glyph unicode="&#xc0;" horiz-adv-x="808" d="M0 0v174l94 -4l152 1026l-92 -4v174h522v-174l-94 4l143 -1026l84 4v-174h-356v174l67 -4l-33 303h-153l-35 -303l76 4v-174h-375zM160 1716h211l114 -237h-127zM348 637h125l-59 620z" />
<glyph unicode="&#xc1;" horiz-adv-x="808" d="M0 0v174l94 -4l152 1026l-92 -4v174h522v-174l-94 4l143 -1026l84 4v-174h-356v174l67 -4l-33 303h-153l-35 -303l76 4v-174h-375zM348 637h125l-59 620zM365 1479l114 237h211l-198 -237h-127z" />
<glyph unicode="&#xc2;" horiz-adv-x="808" d="M0 0v174l94 -4l152 1026l-92 -4v174h522v-174l-94 4l143 -1026l84 4v-174h-356v174l67 -4l-33 303h-153l-35 -303l76 4v-174h-375zM197 1473l131 237h192l131 -237h-135l-92 137l-92 -137h-135zM348 637h125l-59 620z" />
<glyph unicode="&#xc3;" horiz-adv-x="808" d="M0 0v174l94 -4l152 1026l-92 -4v174h522v-174l-94 4l143 -1026l84 4v-174h-356v174l67 -4l-33 303h-153l-35 -303l76 4v-174h-375zM193 1489q6 113 33.5 163t84.5 50q41 0 150 -60q37 -23 61 -22q49 0 51 84h103q-4 -113 -33 -164t-86 -51q-53 0 -190 76q-20 8 -31 8 q-33 0 -41 -84h-102zM348 637h125l-59 620z" />
<glyph unicode="&#xc4;" horiz-adv-x="808" d="M0 0v174l94 -4l152 1026l-92 -4v174h522v-174l-94 4l143 -1026l84 4v-174h-356v174l67 -4l-33 303h-153l-35 -303l76 4v-174h-375zM178 1591q0 43 31 73t74 30q41 0 70.5 -31t29.5 -72t-30.5 -71.5t-71.5 -30.5q-43 0 -73 30.5t-30 71.5zM348 637h125l-59 620zM465 1591 q0 43 30.5 73t73.5 30q41 0 71 -31t30 -72t-31 -71.5t-72 -30.5q-43 0 -72.5 30.5t-29.5 71.5z" />
<glyph unicode="&#xc5;" horiz-adv-x="808" d="M0 0v174l94 -4l152 1026l-92 -4v174h522v-174l-94 4l143 -1026l84 4v-174h-356v174l67 -4l-33 303h-153l-35 -303l76 4v-174h-375zM250 1605.5q0 69.5 49 118t121 48.5q68 0 117 -49.5t49 -119t-49.5 -118.5t-119 -49t-118.5 50t-49 119.5zM346 1603.5q0 -28.5 21.5 -50 t50 -21.5t50 21.5t21.5 50t-20 50t-49 21.5q-31 0 -52.5 -21.5t-21.5 -50zM348 637h125l-59 620z" />
<glyph unicode="&#xc6;" horiz-adv-x="1116" d="M-14 0v172l104 -2l221 1026l-96 -2v172h842v-410h-170v240h-172v-416h147v-164h-147v-446h172v254h170v-424h-615v172l82 -2v446h-159l-82 -446l82 2v-172h-379zM401 780h123v416h-43z" />
<glyph unicode="&#xc7;" horiz-adv-x="706" d="M61 721q0 342 84 524q29 63 80 102t105 39q76 0 135 -73v53h170v-455h-170q-4 158 -28.5 227.5t-78.5 69.5q-51 0 -69 -69q-23 -94 -23 -449q0 -401 43 -487q25 -45 64 -45q100 0 100 262l-4 78l172 -54q0 -170 -37 -268q-35 -94 -96.5 -145t-138.5 -51q-76 0 -140.5 52 t-97.5 142q-70 189 -70 547zM266 -96h174v-137q0 -96 -47 -156t-127 -64v91q35 4 59.5 32.5t24.5 67.5v4v2h-84v160z" />
<glyph unicode="&#xc8;" horiz-adv-x="737" d="M47 0v172l92 -2v1026l-92 -2v172h629v-405h-170v235h-176v-414h151v-164h-151v-448h176v258h170v-428h-629zM123 1716h211l115 -237h-127z" />
<glyph unicode="&#xc9;" horiz-adv-x="737" d="M47 0v172l92 -2v1026l-92 -2v172h629v-405h-170v235h-176v-414h151v-164h-151v-448h176v258h170v-428h-629zM322 1479l114 237h211l-198 -237h-127z" />
<glyph unicode="&#xca;" horiz-adv-x="737" d="M47 0v172l92 -2v1026l-92 -2v172h629v-405h-170v235h-176v-414h151v-164h-151v-448h176v258h170v-428h-629zM158 1479l131 237h192l131 -237h-135l-92 137l-92 -137h-135z" />
<glyph unicode="&#xcb;" horiz-adv-x="737" d="M47 0v172l92 -2v1026l-92 -2v172h629v-405h-170v235h-176v-414h151v-164h-151v-448h176v258h170v-428h-629zM147 1591q0 43 31 73t74 30q41 0 70.5 -31t29.5 -72t-30.5 -71.5t-71.5 -30.5q-43 0 -73 30.5t-30 71.5zM434 1591q0 43 31 73t74 30q41 0 70.5 -31t29.5 -72 t-30.5 -71.5t-71.5 -30.5q-43 0 -73 30.5t-30 71.5z" />
<glyph unicode="&#xcc;" horiz-adv-x="473" d="M-29 1716h211l115 -237h-127zM49 0v174l92 -4v1026l-92 -4v174h377v-174l-94 4v-1026l94 4v-174h-377z" />
<glyph unicode="&#xcd;" horiz-adv-x="473" d="M47 0v174l92 -4v1026l-92 -4v174h377v-174l-94 4v-1026l94 4v-174h-377zM188 1479l115 237h211l-199 -237h-127z" />
<glyph unicode="&#xce;" horiz-adv-x="473" d="M16 1479l131 237h193l131 -237h-135l-92 137l-92 -137h-136zM49 0v174l92 -4v1026l-92 -4v174h377v-174l-94 4v-1026l94 4v-174h-377z" />
<glyph unicode="&#xcf;" horiz-adv-x="473" d="M4 1591q0 43 31 73t74 30q41 0 70.5 -31t29.5 -72t-31 -71.5t-72 -30.5q-43 0 -72.5 30.5t-29.5 71.5zM47 0v174l94 -4v1026l-94 -4v174h377v-174l-92 4v-1026l92 4v-174h-377zM276 1591q0 43 31 73t74 30q41 0 70.5 -31t29.5 -72t-30.5 -71.5t-71.5 -30.5 q-43 0 -73 30.5t-30 71.5z" />
<glyph unicode="&#xd0;" horiz-adv-x="792" d="M47 0v172l92 -2v477h-92v137h92v410l-92 -2v174h211q141 0 218 -28.5t128 -98.5q129 -176 129 -567q0 -373 -137 -545q-53 -70 -131 -98.5t-209 -28.5h-209zM330 170q78 2 114 39q84 80 84 440q0 420 -86 506q-37 37 -112 39v-410h110v-137h-110v-477z" />
<glyph unicode="&#xd1;" horiz-adv-x="862" d="M47 0v174l92 -4v1026l-92 -4v174h297l168 -569q47 -164 59 -228h9q-4 63 -5 142v485l-92 -4v174h344v-174l-94 4v-1196h-158l-223 760l-24 82q-8 27 -31 129h-6q6 -115 6 -146v-655l92 4v-174h-342zM229 1489q6 113 34 163t85 50q41 0 150 -60q37 -23 61 -22q49 0 51 84 h103q-4 -113 -33 -164t-86 -51q-53 0 -191 76q-20 8 -30 8q-33 0 -41 -84h-103z" />
<glyph unicode="&#xd2;" horiz-adv-x="739" d="M59 676q0 362 91 541q39 80 101 124.5t134 44.5q70 0 129 -45t94 -127q74 -174 74 -491q0 -414 -88 -576q-92 -168 -236 -167q-160 0 -237 202q-62 154 -62 494zM125 1716h211l115 -237h-127zM264 696q0 -422 39 -497q18 -41 59 -41q63 0 89 137t26 465q0 246 -22.5 347 t-77.5 101q-61 0 -87 -116.5t-26 -395.5z" />
<glyph unicode="&#xd3;" horiz-adv-x="739" d="M59 676q0 362 91 541q39 80 101 124.5t134 44.5q70 0 129 -45t94 -127q74 -174 74 -491q0 -414 -88 -576q-92 -168 -236 -167q-160 0 -237 202q-62 154 -62 494zM264 696q0 -422 39 -497q18 -41 59 -41q63 0 89 137t26 465q0 246 -22.5 347t-77.5 101q-61 0 -87 -116.5 t-26 -395.5zM330 1479l114 237h211l-198 -237h-127z" />
<glyph unicode="&#xd4;" horiz-adv-x="739" d="M59 676q0 362 91 541q39 80 101 124.5t134 44.5q70 0 129 -45t94 -127q74 -174 74 -491q0 -414 -88 -576q-92 -168 -236 -167q-160 0 -237 202q-62 154 -62 494zM164 1479l131 237h192l131 -237h-135l-92 137l-92 -137h-135zM264 696q0 -422 39 -497q18 -41 59 -41 q63 0 89 137t26 465q0 246 -22.5 347t-77.5 101q-61 0 -87 -116.5t-26 -395.5z" />
<glyph unicode="&#xd5;" horiz-adv-x="739" d="M59 676q0 362 91 541q39 80 101 124.5t134 44.5q70 0 129 -45t94 -127q74 -174 74 -491q0 -414 -88 -576q-92 -168 -236 -167q-160 0 -237 202q-62 154 -62 494zM170 1489q6 113 33.5 163t85.5 50q41 0 149 -60q37 -23 62 -22q49 0 51 84h102q-4 -113 -32.5 -164 t-85.5 -51q-53 0 -191 76q-20 8 -31 8q-33 0 -41 -84h-102zM264 696q0 -422 39 -497q18 -41 59 -41q63 0 89 137t26 465q0 246 -22.5 347t-77.5 101q-61 0 -87 -116.5t-26 -395.5z" />
<glyph unicode="&#xd6;" horiz-adv-x="739" d="M59 676q0 362 91 541q39 80 101 124.5t134 44.5q70 0 129 -45t94 -127q74 -174 74 -491q0 -414 -88 -576q-92 -168 -236 -167q-160 0 -237 202q-62 154 -62 494zM145 1591q0 43 31 73t74 30q41 0 70.5 -31t29.5 -72t-30.5 -71.5t-71.5 -30.5q-43 0 -73 30.5t-30 71.5z M264 696q0 -422 39 -497q18 -41 59 -41q63 0 89 137t26 465q0 246 -22.5 347t-77.5 101q-61 0 -87 -116.5t-26 -395.5zM432 1591q0 43 31 73t74 30q41 0 70.5 -31t29.5 -72t-31 -71.5t-71 -30.5q-43 0 -73 30.5t-30 71.5z" />
<glyph unicode="&#xd7;" horiz-adv-x="681" d="M49 492l191 190l-191 192l101 101l192 -191l190 191l101 -101l-191 -192l191 -190l-101 -101l-190 191l-192 -191z" />
<glyph unicode="&#xd8;" horiz-adv-x="772" d="M59 662q0 410 109 585q84 139 225 139q100 0 174 -71l51 139l84 -35l-69 -192q82 -143 82 -498q0 -248 -26.5 -391t-90.5 -242q-76 -117 -217 -116q-100 0 -172 65l-53 -143l-84 30l73 199q-86 154 -86 531zM256 369l225 761q-18 78 -88 78q-49 0 -80 -59 q-51 -102 -51 -504v-145zM293 215q27 -57 86 -57q72 0 94 94q18 80 24.5 183.5t14.5 424.5q0 20 6 107z" />
<glyph unicode="&#xd9;" horiz-adv-x="813" d="M27 1192v174h352v-174l-70 4v-821q0 -135 23 -178q25 -47 88 -47q61 0 81.5 46t20.5 179v821l-69 -4v174h331v-174l-92 4v-823q0 -127 -9 -182.5t-38 -102.5q-63 -109 -239.5 -108.5t-241.5 110.5q-45 78 -45 285v821zM160 1716h211l114 -237h-127z" />
<glyph unicode="&#xda;" horiz-adv-x="813" d="M27 1192v174h352v-174l-70 4v-821q0 -135 23 -178q25 -47 88 -47q61 0 81.5 46t20.5 179v821l-69 -4v174h331v-174l-92 4v-823q0 -127 -9 -182.5t-38 -102.5q-63 -109 -239.5 -108.5t-241.5 110.5q-45 78 -45 285v821zM358 1479l115 237h211l-199 -237h-127z" />
<glyph unicode="&#xdb;" horiz-adv-x="813" d="M27 1192v174h352v-174l-70 4v-821q0 -135 23 -178q25 -47 88 -47q61 0 81.5 46t20.5 179v821l-69 -4v174h331v-174l-92 4v-823q0 -127 -9 -182.5t-38 -102.5q-63 -109 -239.5 -108.5t-241.5 110.5q-45 78 -45 285v821zM205 1479l131 237h192l131 -237h-135l-92 137 l-92 -137h-135z" />
<glyph unicode="&#xdc;" horiz-adv-x="813" d="M27 1192v174h352v-174l-70 4v-821q0 -135 23 -178q25 -47 88 -47q61 0 81.5 46t20.5 179v821l-69 -4v174h331v-174l-92 4v-823q0 -127 -9 -182.5t-38 -102.5q-63 -109 -239.5 -108.5t-241.5 110.5q-45 78 -45 285v821zM174 1591q0 43 31 73t74 30q41 0 70.5 -31t29.5 -72 t-31 -71.5t-72 -30.5q-43 0 -72.5 30.5t-29.5 71.5zM461 1591q0 43 30.5 73t73.5 30q41 0 71 -31t30 -72t-31 -71.5t-72 -30.5q-43 0 -72.5 30.5t-29.5 71.5z" />
<glyph unicode="&#xdd;" horiz-adv-x="804" d="M0 1192v174h367v-174l-95 4l74 -213q43 -123 60 -199q14 63 55 195l69 217l-90 -4v174h365v-174l-94 4l-211 -584v-442l94 4v-174h-377v174l92 -4v442l-223 584zM348 1479l115 237h211l-199 -237h-127z" />
<glyph unicode="&#xde;" horiz-adv-x="763" d="M47 0v174l92 -4v1024l-92 -2v174h283v-172h41q178 0 278.5 -110.5t100.5 -305.5q0 -207 -105 -323q-86 -98 -264 -99h-51v-186l94 4v-174h-377zM330 520q125 6 170 58.5t45 187.5q0 166 -70 223q-43 35 -145 35v-504z" />
<glyph unicode="&#xdf;" horiz-adv-x="665" d="M29 0v160l73 -2v915q0 94 12.5 144.5t45.5 89.5q72 84 196 84q221 0 222 -275q0 -115 -38 -171t-122 -71q63 -16 94 -36.5t53 -61.5q49 -90 49 -287q0 -508 -208 -507q-31 0 -84 18v158q18 -6 32 -6q41 0 59.5 75.5t18.5 251.5q0 209 -26 277q-18 43 -84 43v149 q41 10 57 46t16 116q0 143 -61 143q-35 0 -48.5 -41t-13.5 -153v-1059h-243z" />
<glyph unicode="&#xe0;" horiz-adv-x="636" d="M59 289q0 129 54.5 210t140.5 81q63 0 123 -66v172q0 70 -13.5 96.5t-48.5 26.5q-29 0 -43 -20.5t-18 -71.5l-2 -21l-170 45q27 121 81 173.5t156 52.5q125 0 176.5 -65.5t51.5 -227.5v-516l61 2v-160h-231v78q-33 -55 -62.5 -75.5t-74.5 -20.5q-84 0 -132.5 82 t-48.5 225zM115 1325h166l94 -268h-101zM242 289q0 -150 67 -150q35 0 68 45v199q-18 47 -58 47q-77 0 -77 -141z" />
<glyph unicode="&#xe1;" horiz-adv-x="636" d="M59 289q0 129 54.5 210t140.5 81q63 0 123 -66v172q0 70 -13.5 96.5t-48.5 26.5q-29 0 -43 -20.5t-18 -71.5l-2 -21l-170 45q27 121 81 173.5t156 52.5q125 0 176.5 -65.5t51.5 -227.5v-516l61 2v-160h-231v78q-33 -55 -62.5 -75.5t-74.5 -20.5q-84 0 -132.5 82 t-48.5 225zM242 289q0 -150 67 -150q35 0 68 45v199q-18 47 -58 47q-77 0 -77 -141zM279 1057l94 268h166l-160 -268h-100z" />
<glyph unicode="&#xe2;" horiz-adv-x="636" d="M59 289q0 129 54.5 210t140.5 81q63 0 123 -66v172q0 70 -13.5 96.5t-48.5 26.5q-29 0 -43 -20.5t-18 -71.5l-2 -21l-170 45q27 121 81 173.5t156 52.5q125 0 176.5 -65.5t51.5 -227.5v-516l61 2v-160h-231v78q-33 -55 -62.5 -75.5t-74.5 -20.5q-84 0 -132.5 82 t-48.5 225zM143 1059l117 266h164l117 -266h-111l-88 153l-88 -153h-111zM242 289q0 -150 67 -150q35 0 68 45v199q-18 47 -58 47q-77 0 -77 -141z" />
<glyph unicode="&#xe3;" horiz-adv-x="636" d="M59 289q0 129 54.5 210t140.5 81q63 0 123 -66v172q0 70 -13.5 96.5t-48.5 26.5q-29 0 -43 -20.5t-18 -71.5l-2 -21l-170 45q27 121 81 173.5t156 52.5q125 0 176.5 -65.5t51.5 -227.5v-516l61 2v-160h-231v78q-33 -55 -62.5 -75.5t-74.5 -20.5q-84 0 -132.5 82 t-48.5 225zM133 1087q8 213 107 213q33 0 131 -59q37 -23 57 -22q43 0 43 84h92q-6 -215 -106 -216q-47 0 -131 54q-49 31 -64 30q-31 0 -39 -84h-90zM242 289q0 -150 67 -150q35 0 68 45v199q-18 47 -58 47q-77 0 -77 -141z" />
<glyph unicode="&#xe4;" horiz-adv-x="636" d="M59 289q0 129 54.5 210t140.5 81q63 0 123 -66v172q0 70 -13.5 96.5t-48.5 26.5q-29 0 -43 -20.5t-18 -71.5l-2 -21l-170 45q27 121 81 173.5t156 52.5q125 0 176.5 -65.5t51.5 -227.5v-516l61 2v-160h-231v78q-33 -55 -62.5 -75.5t-74.5 -20.5q-84 0 -132.5 82 t-48.5 225zM98 1182q0 43 31 72.5t74 29.5q41 0 70.5 -30.5t29.5 -71.5t-30.5 -72t-71.5 -31q-43 0 -73 31t-30 72zM242 289q0 -150 67 -150q35 0 68 45v199q-18 47 -58 47q-77 0 -77 -141zM371 1182q0 43 30.5 72.5t73.5 29.5q41 0 70.5 -30.5t29.5 -71.5t-30.5 -72 t-71.5 -31q-43 0 -72.5 31t-29.5 72z" />
<glyph unicode="&#xe5;" horiz-adv-x="636" d="M59 289q0 129 54.5 210t140.5 81q63 0 123 -66v172q0 70 -13.5 96.5t-48.5 26.5q-29 0 -43 -20.5t-18 -71.5l-2 -21l-170 45q27 121 81 173.5t156 52.5q125 0 176.5 -65.5t51.5 -227.5v-516l61 2v-160h-231v78q-33 -55 -62.5 -75.5t-74.5 -20.5q-84 0 -132.5 82 t-48.5 225zM168 1198q0 68 48 115t118 47q66 0 114 -49t48 -115q0 -68 -48.5 -116t-116 -48t-115.5 48t-48 118zM242 289q0 -150 67 -150q35 0 68 45v199q-18 47 -58 47q-77 0 -77 -141zM264 1196q0 -29 19.5 -48.5t48 -19.5t48 19.5t19.5 48.5t-19.5 48.5t-48 19.5 t-48 -19.5t-19.5 -48.5z" />
<glyph unicode="&#xe6;" horiz-adv-x="874" d="M59 291q0 125 52.5 206t132.5 81q70 0 129 -82q-6 203 -11 243q-6 70 -49 70q-55 0 -63 -117l-174 39q55 236 227 236q88 0 158 -76q76 76 151 76q219 0 219 -451q0 -57 -2 -100h-294q6 -283 77 -283q53 0 64 139l151 -57q-51 -240 -225 -240q-63 0 -102 29t-76 100 q-49 -72 -88 -100.5t-90 -28.5q-84 0 -135.5 86.5t-51.5 229.5zM242 285q0 -152 59 -152q51 0 80 72q-10 82 -10 162q0 18 2 30q-31 31 -60 31q-71 0 -71 -143zM532 553h132q-6 172 -16.5 214t-49.5 42t-50.5 -48t-15.5 -208z" />
<glyph unicode="&#xe7;" horiz-adv-x="579" d="M51 532q0 428 197 429q72 0 129 -89v70h143v-344h-143q-2 205 -72 205q-45 0 -58.5 -60.5t-13.5 -261.5q0 -199 15.5 -270.5t56.5 -71.5q37 0 53.5 49.5t18.5 165.5l160 -69q-18 -156 -73.5 -229.5t-156.5 -73.5q-68 0 -124 36.5t-81 98.5q-51 126 -51 415zM213 -96h164 v-125q0 -72 -11.5 -109t-41.5 -67q-37 -35 -111 -49v90q82 20 82 100q0 4 -2 6h-80v154z" />
<glyph unicode="&#xe8;" horiz-adv-x="577" d="M51 494q0 244 57.5 358.5t180.5 114.5q240 0 239 -465v-78h-295q8 -180 21.5 -235.5t50.5 -55.5q57 0 70 154l153 -56q-16 -119 -78.5 -187.5t-152.5 -68.5q-57 0 -108.5 36t-77.5 93q-60 132 -60 390zM86 1325h166l94 -268h-100zM231 561h129q-2 111 -8 161t-18 68.5 t-41 18.5q-35 0 -48.5 -48t-13.5 -175v-25z" />
<glyph unicode="&#xe9;" horiz-adv-x="577" d="M51 494q0 244 57.5 358.5t180.5 114.5q240 0 239 -465v-78h-295q8 -180 21.5 -235.5t50.5 -55.5q57 0 70 154l153 -56q-16 -119 -78.5 -187.5t-152.5 -68.5q-57 0 -108.5 36t-77.5 93q-60 132 -60 390zM231 561h129q-2 111 -8 161t-18 68.5t-41 18.5q-35 0 -48.5 -48 t-13.5 -175v-25zM242 1057l94 268h166l-160 -268h-100z" />
<glyph unicode="&#xea;" horiz-adv-x="577" d="M51 494q0 244 57.5 358.5t180.5 114.5q240 0 239 -465v-78h-295q8 -180 21.5 -235.5t50.5 -55.5q57 0 70 154l153 -56q-16 -119 -78.5 -187.5t-152.5 -68.5q-57 0 -108.5 36t-77.5 93q-60 132 -60 390zM106 1059l117 266h164l117 -266h-111l-88 153l-88 -153h-111z M231 561h129q-2 111 -8 161t-18 68.5t-41 18.5q-35 0 -48.5 -48t-13.5 -175v-25z" />
<glyph unicode="&#xeb;" horiz-adv-x="579" d="M51 494q0 244 57.5 358.5t180.5 114.5q240 0 239 -465v-78h-295q8 -180 21.5 -235.5t50.5 -55.5q57 0 70 154l153 -56q-16 -119 -78.5 -187.5t-152.5 -68.5q-57 0 -108.5 36t-77.5 93q-60 132 -60 390zM66 1182q0 43 30.5 72.5t73.5 29.5q41 0 70.5 -30.5t29.5 -71.5 t-30.5 -72t-71.5 -31q-43 0 -72.5 31t-29.5 72zM231 561h129q-2 111 -8 161t-18 68.5t-41 18.5q-35 0 -48.5 -48t-13.5 -175v-25zM338 1182q0 43 30.5 72.5t73.5 29.5q41 0 71 -30.5t30 -71.5t-31 -72t-72 -31q-43 0 -72.5 31t-29.5 72z" />
<glyph unicode="&#xec;" horiz-adv-x="382" d="M-20 1325h165l95 -268h-101zM37 0v160l74 -2v626l-74 -2v160h244v-784l61 2v-160h-305z" />
<glyph unicode="&#xed;" horiz-adv-x="382" d="M35 0v160l74 -2v626l-74 -2v160h244v-784l61 2v-160h-305zM143 1057l95 268h165l-159 -268h-101z" />
<glyph unicode="&#xee;" horiz-adv-x="382" d="M-2 1059l117 266h164l116 -266h-110l-88 153l-88 -153h-111zM37 0v160l74 -2v626l-74 -2v160h244v-784l61 2v-160h-305z" />
<glyph unicode="&#xef;" horiz-adv-x="382" d="M-25 1182q0 41 29 68.5t70 27.5q39 0 66.5 -28.5t27.5 -67.5t-28.5 -68t-67.5 -29t-68 29t-29 68zM37 0v160l74 -2v626l-74 -2v160h244v-784l61 2v-160h-305zM229 1182q0 41 29 68.5t70 27.5q39 0 66.5 -28.5t27.5 -67.5t-28.5 -68t-67.5 -29t-68 29t-29 68z" />
<glyph unicode="&#xf0;" horiz-adv-x="610" d="M51 483q0 223 62.5 349t173.5 126q45 0 90 -36q-31 131 -92 221l-125 -86l-56 71l129 93q-31 41 -90 102l76 63q45 -33 107 -104l129 88l59 -74l-131 -88q178 -244 178 -716q0 -254 -57 -381q-29 -61 -81 -98.5t-112 -37.5q-63 0 -119.5 40t-85.5 102q-55 130 -55 366z M233 483q0 -219 13.5 -284.5t58.5 -65.5t59.5 70.5t14.5 288.5q0 186 -15.5 251.5t-58.5 65.5t-57.5 -64.5t-14.5 -261.5z" />
<glyph unicode="&#xf1;" horiz-adv-x="702" d="M35 0v160l74 -2v626l-74 -2v160h244v-74q47 53 81.5 73t83.5 20q53 0 92 -27t56 -74q18 -61 18 -223v-479l62 2v-160h-232v639q0 96 -14 130t-57 34q-49 0 -69.5 -45t-20.5 -158v-442l73 2v-160h-317zM160 1087q8 213 106 213q33 0 131 -59q37 -23 58 -22q43 0 43 84h92 q-6 -215 -107 -216q-47 0 -131 54q-49 31 -63 30q-31 0 -39 -84h-90z" />
<glyph unicode="&#xf2;" horiz-adv-x="610" d="M51 487q0 229 67.5 354.5t192.5 125.5q121 0 185.5 -127t64.5 -369q0 -496 -250 -496q-63 0 -119.5 40t-85.5 102q-55 124 -55 370zM104 1325h166l95 -268h-101zM233 483q0 -219 13.5 -284.5t58.5 -65.5t59.5 70.5t14.5 288.5q0 186 -15.5 251.5t-58.5 65.5t-57.5 -64.5 t-14.5 -261.5z" />
<glyph unicode="&#xf3;" horiz-adv-x="610" d="M51 487q0 229 67.5 354.5t192.5 125.5q121 0 185.5 -127t64.5 -369q0 -496 -250 -496q-63 0 -119.5 40t-85.5 102q-55 124 -55 370zM233 483q0 -219 13.5 -284.5t58.5 -65.5t59.5 70.5t14.5 288.5q0 186 -15.5 251.5t-58.5 65.5t-57.5 -64.5t-14.5 -261.5zM272 1057 l95 268h165l-159 -268h-101z" />
<glyph unicode="&#xf4;" horiz-adv-x="610" d="M51 487q0 229 67.5 354.5t192.5 125.5q121 0 185.5 -127t64.5 -369q0 -496 -250 -496q-63 0 -119.5 40t-85.5 102q-55 124 -55 370zM121 1059l117 266h163l117 -266h-110l-89 153l-88 -153h-110zM233 483q0 -219 13.5 -284.5t58.5 -65.5t59.5 70.5t14.5 288.5 q0 186 -15.5 251.5t-58.5 65.5t-57.5 -64.5t-14.5 -261.5z" />
<glyph unicode="&#xf5;" horiz-adv-x="610" d="M51 487q0 229 67.5 354.5t192.5 125.5q121 0 185.5 -127t64.5 -369q0 -496 -250 -496q-63 0 -119.5 40t-85.5 102q-55 124 -55 370zM119 1087q8 213 106 213q33 0 131 -59q37 -23 58 -22q43 0 43 84h92q-6 -215 -107 -216q-47 0 -131 54q-49 31 -63 30q-31 0 -39 -84h-90 zM233 483q0 -219 13.5 -284.5t58.5 -65.5t59.5 70.5t14.5 288.5q0 186 -15.5 251.5t-58.5 65.5t-57.5 -64.5t-14.5 -261.5z" />
<glyph unicode="&#xf6;" horiz-adv-x="610" d="M51 487q0 229 67.5 354.5t192.5 125.5q121 0 185.5 -127t64.5 -369q0 -496 -250 -496q-63 0 -119.5 40t-85.5 102q-55 124 -55 370zM82 1182q0 43 30.5 72.5t73.5 29.5q41 0 71 -30.5t30 -71.5t-31 -72t-72 -31q-43 0 -72.5 31t-29.5 72zM233 483q0 -219 13.5 -284.5 t58.5 -65.5t59.5 70.5t14.5 288.5q0 186 -15.5 251.5t-58.5 65.5t-57.5 -64.5t-14.5 -261.5zM354 1182q0 43 31 72.5t74 29.5q41 0 70.5 -30.5t29.5 -71.5t-30.5 -72t-71.5 -31q-43 0 -73 31t-30 72z" />
<glyph unicode="&#xf7;" horiz-adv-x="681" d="M47 614v138h588v-138h-588zM250 360.5q0 36.5 26.5 63.5t63.5 27t63.5 -27t26.5 -63.5t-26.5 -63.5t-63.5 -27t-63.5 27t-26.5 63.5zM250 1005.5q0 36.5 26.5 63.5t63.5 27t63.5 -27t26.5 -63.5t-26.5 -63.5t-63.5 -27t-63.5 27t-26.5 63.5z" />
<glyph unicode="&#xf8;" horiz-adv-x="645" d="M51 475q0 262 63.5 377t211.5 115q68 0 123 -31l45 131l73 -27l-57 -159q86 -119 86 -422q0 -250 -67.5 -367t-211.5 -117q-61 0 -118 29l-52 -133l-71 29l57 159q-82 127 -82 416zM217 410q0 -41 6 -142l160 533q-23 33 -57 33q-61 0 -85 -92t-24 -332zM264 143 q27 -35 60 -34q78 0 96 176q10 82 10 420z" />
<glyph unicode="&#xf9;" horiz-adv-x="688" d="M18 782v160h244v-651q0 -152 64 -152q59 0 90 78v567l-74 -2v160h244v-784l61 2v-160h-231v82q-47 -57 -83 -78.5t-85 -21.5q-86 0 -121 63.5t-35 216.5v522zM129 1325h166l94 -268h-100z" />
<glyph unicode="&#xfa;" horiz-adv-x="688" d="M18 782v160h244v-651q0 -152 64 -152q59 0 90 78v567l-74 -2v160h244v-784l61 2v-160h-231v82q-47 -57 -83 -78.5t-85 -21.5q-86 0 -121 63.5t-35 216.5v522zM276 1057l95 268h166l-160 -268h-101z" />
<glyph unicode="&#xfb;" horiz-adv-x="688" d="M18 782v160h244v-651q0 -152 64 -152q59 0 90 78v567l-74 -2v160h244v-784l61 2v-160h-231v82q-47 -57 -83 -78.5t-85 -21.5q-86 0 -121 63.5t-35 216.5v522zM135 1059l117 266h164l116 -266h-110l-88 153l-88 -153h-111z" />
<glyph unicode="&#xfc;" horiz-adv-x="688" d="M18 782v160h244v-651q0 -152 64 -152q59 0 90 78v567l-74 -2v160h244v-784l61 2v-160h-231v82q-47 -57 -83 -78.5t-85 -21.5q-86 0 -121 63.5t-35 216.5v522zM94 1182q0 43 31 72.5t74 29.5q41 0 70.5 -30.5t29.5 -71.5t-30.5 -72t-71.5 -31q-43 0 -73 31t-30 72z M367 1182q0 43 30.5 72.5t73.5 29.5q41 0 70.5 -30.5t29.5 -71.5t-30.5 -72t-71.5 -31q-43 0 -72.5 31t-29.5 72z" />
<glyph unicode="&#xfd;" horiz-adv-x="643" d="M0 782v160h293v-160l-70 2l113 -534l86 534l-66 -2v160h287v-160l-55 2l-252 -1118h-264v158h133l43 192l-189 768zM281 1057l94 268h166l-160 -268h-100z" />
<glyph unicode="&#xfe;" horiz-adv-x="651" d="M18 -174l74 -2v1384l-74 -2v160h244v-512q55 106 137 107q201 0 201 -510q0 -246 -46 -361t-146 -115q-76 0 -146 86v-237l74 2v-160h-318v160zM264 414q0 -168 15.5 -228.5t58.5 -60.5q47 0 63.5 75.5t16.5 288.5q0 180 -15.5 243t-60.5 63q-39 0 -57 -52 q-21 -55 -21 -329z" />
<glyph unicode="&#xff;" horiz-adv-x="643" d="M0 782v160h293v-160l-70 2l113 -534l86 534l-66 -2v160h287v-160l-55 2l-252 -1118h-264v158h133l43 192l-189 768zM100 1182q0 43 31 72.5t74 29.5q41 0 70.5 -30.5t29.5 -71.5t-30.5 -72t-71.5 -31q-43 0 -73 31t-30 72zM373 1182q0 43 30.5 72.5t73.5 29.5 q41 0 71 -30.5t30 -71.5t-31 -72t-72 -31q-43 0 -72.5 31t-29.5 72z" />
<glyph unicode="&#x152;" horiz-adv-x="1007" d="M59 674q0 471 129 608q47 51 104.5 67.5t182.5 16.5h473v-410h-170v240h-170v-416h146v-164h-146v-446h170v254h170v-424h-479q-133 0 -190.5 17.5t-102.5 70.5q-117 137 -117 586zM264 711q0 -297 25 -432q10 -63 37.5 -86t91.5 -23v1026q-61 0 -84 -20 q-70 -62 -70 -465z" />
<glyph unicode="&#x153;" horiz-adv-x="899" d="M51 479q0 487 260 488q86 0 144 -74q74 74 159 74q61 0 111.5 -31t73.5 -84q57 -131 57 -346q0 -43 -2 -78h-309q8 -180 18 -229q16 -66 55 -66q72 0 84 158l152 -55q-23 -125 -85 -193t-152.5 -68t-153.5 78q-80 -78 -162 -78q-250 0 -250 504zM231 494 q0 -209 17.5 -285t64.5 -76q49 0 64.5 65.5t15.5 280.5q0 199 -16.5 265.5t-65.5 66.5q-47 0 -63.5 -64.5t-16.5 -252.5zM545 565h141q-2 147 -16.5 196.5t-59.5 49.5q-41 0 -53 -45t-12 -201z" />
<glyph unicode="&#x178;" horiz-adv-x="804" d="M0 1192v174h367v-174l-95 4l74 -213q43 -123 60 -199q14 63 55 195l69 217l-90 -4v174h365v-174l-94 4l-211 -584v-442l94 4v-174h-377v174l92 -4v442l-223 584zM170 1591q0 43 30.5 73t73.5 30q41 0 71 -31t30 -72t-31 -71.5t-72 -30.5q-43 0 -72.5 30.5t-29.5 71.5z M457 1591q0 43 30.5 73t73.5 30q41 0 71 -31t30 -72t-31 -71.5t-72 -30.5q-43 0 -72.5 30.5t-29.5 71.5z" />
<glyph unicode="&#x2c6;" horiz-adv-x="1024" d="M313 1059l117 266h164l117 -266h-111l-88 153l-88 -153h-111z" />
<glyph unicode="&#x2dc;" horiz-adv-x="1024" d="M297 1087q8 213 106 213q33 0 132 -59q37 -23 57 -22q43 0 43 84h92q-6 -215 -106 -216q-47 0 -132 54q-49 31 -63 30q-31 0 -39 -84h-90z" />
<glyph unicode="&#x2000;" horiz-adv-x="884" />
<glyph unicode="&#x2001;" horiz-adv-x="1771" />
<glyph unicode="&#x2002;" horiz-adv-x="884" />
<glyph unicode="&#x2003;" horiz-adv-x="1771" />
<glyph unicode="&#x2004;" horiz-adv-x="589" />
<glyph unicode="&#x2005;" horiz-adv-x="442" />
<glyph unicode="&#x2006;" horiz-adv-x="294" />
<glyph unicode="&#x2007;" horiz-adv-x="294" />
<glyph unicode="&#x2008;" horiz-adv-x="221" />
<glyph unicode="&#x2009;" horiz-adv-x="354" />
<glyph unicode="&#x200a;" horiz-adv-x="98" />
<glyph unicode="&#x2010;" horiz-adv-x="395" d="M0 395v164h395v-164h-395z" />
<glyph unicode="&#x2011;" horiz-adv-x="395" d="M0 395v164h395v-164h-395z" />
<glyph unicode="&#x2012;" horiz-adv-x="395" d="M0 395v164h395v-164h-395z" />
<glyph unicode="&#x2013;" d="M51 395v164h512v-164h-512z" />
<glyph unicode="&#x2014;" horiz-adv-x="798" d="M0 395v164h799v-164h-799z" />
<glyph unicode="&#x2018;" horiz-adv-x="321" d="M61 846v205q0 158 55.5 243.5t159.5 91.5v-98q-92 -39 -92 -203h76v-239h-199z" />
<glyph unicode="&#x2019;" horiz-adv-x="321" d="M45 825v99q92 37 92 202h-76v240h199v-205q0 -158 -55.5 -244t-159.5 -92z" />
<glyph unicode="&#x201a;" horiz-adv-x="321" d="M45 -201q92 35 92 201h-76v240h199v-205q0 -158 -55 -244t-160 -92v100z" />
<glyph unicode="&#x201c;" horiz-adv-x="618" d="M47 846v205q0 158 55.5 243.5t159.5 91.5v-98q-92 -39 -92 -203h76v-239h-199zM344 846v205q0 324 217 335v-98q-94 -33 -94 -203h76v-239h-199z" />
<glyph unicode="&#x201d;" horiz-adv-x="618" d="M57 825v99q92 37 93 202h-76v240h198v-205q0 -158 -55.5 -244t-159.5 -92zM354 825v99q94 33 95 202h-76v240h198v-205q0 -324 -217 -336z" />
<glyph unicode="&#x201e;" horiz-adv-x="618" d="M57 -201q92 35 93 201h-76v240h198v-205q0 -158 -55 -244t-160 -92v100zM354 -201q94 31 95 201h-76v240h198v-205q0 -324 -217 -336v100z" />
<glyph unicode="&#x2022;" horiz-adv-x="1366" d="M401 692q0 119 84 202t205 83q113 0 196 -84t83 -199q0 -119 -83 -201.5t-200 -82.5t-201 82.5t-84 199.5z" />
<glyph unicode="&#x2026;" horiz-adv-x="964" d="M61 0v240h199v-240h-199zM383 0v240h199v-240h-199zM705 0v240h198v-240h-198z" />
<glyph unicode="&#x202f;" horiz-adv-x="354" />
<glyph unicode="&#x2039;" horiz-adv-x="417" d="M27 477l172 391h163l-176 -391l176 -397h-163z" />
<glyph unicode="&#x203a;" horiz-adv-x="417" d="M55 88l176 391l-176 398h164l172 -398l-172 -391h-164z" />
<glyph unicode="&#x205f;" horiz-adv-x="442" />
<glyph unicode="&#x20ac;" horiz-adv-x="798" d="M53 520l35 135h80v54h-115l35 135h82q10 258 81 400t185 142q76 0 135 -73v53h170v-455h-170q-2 160 -27.5 228.5t-80.5 68.5q-63 0 -74 -104q-10 -94 -14 -260h213l-33 -135h-182v-54h168l-35 -135h-129q8 -221 28.5 -291.5t75.5 -70.5q98 0 99 260q0 8 -1 17t-2.5 26.5 t-1.5 34.5l173 -52q0 -170 -37 -268q-35 -94 -96.5 -145t-139.5 -51q-102 0 -173 85t-103 246q-10 55 -25 209h-121z" />
<glyph unicode="&#x2122;" horiz-adv-x="1085" d="M16 1075v291h420v-291h-104v182h-45v-561l53 2v-110h-231v110l53 -2v561h-41v-182h-105zM473 588v110l55 -2v561l-55 -2v111h246l47 -365l55 365h244v-111l-55 2v-561l55 2v-110h-229v110l53 -2v346q0 59 4 170l-9 -70q-5 -40 -10 -57l-83 -497h-50l-84 495l-20 125 q2 -74 2 -161v-351l53 2v-110h-219z" />
<glyph unicode="&#xe000;" horiz-adv-x="940" d="M0 940h940v-940h-940v940z" />
<glyph unicode="&#xfb01;" horiz-adv-x="712" d="M35 0v160l74 -2v626h-74v158h74v135q0 143 47 207q68 96 200 96q109 0 187 -49t78 -117q0 -45 -33 -77.5t-78 -32.5q-78 0 -109 82q-10 31 -21 40t-34 9q-39 0 -53 -26.5t-14 -102.5v-164h331v-784l62 2v-160h-287v160l55 -2v626h-161v-626l55 2v-160h-299z" />
<glyph unicode="&#xfb02;" horiz-adv-x="712" d="M35 0v160l74 -2v626h-74v158h74v135q0 141 47 207q68 96 202 96q43 0 86 -14h166v-1208l62 2v-160h-287v160l55 -2v1018q0 23 -25.5 41t-58.5 18q-47 0 -62 -24.5t-15 -104.5v-164h102v-158h-102v-626l55 2v-160h-299z" />
<glyph unicode="&#xfb03;" horiz-adv-x="1042" d="M35 0v160l74 -2v626h-74v158h74v135q0 139 41 207q59 96 204 96q102 0 183 -37q57 37 135 37q119 0 198.5 -48t79.5 -118q0 -45 -32.5 -77.5t-77.5 -32.5q-78 0 -109 82q-10 31 -21.5 40t-33.5 9q-39 0 -53.5 -26.5t-14.5 -102.5v-164h332v-784l61 2v-160h-286v160l55 -2 v626h-162v-626l56 2v-160h-279v160l53 -2v626h-159v-626l55 2v-160h-299zM279 942h159v135q0 84 13 144q-41 14 -86 14q-53 0 -69.5 -25.5t-16.5 -103.5v-164z" />
<glyph unicode="&#xfb04;" horiz-adv-x="1042" d="M35 0v160l74 -2v626h-74v158h74v135q0 139 41 207q59 96 204 96q102 0 183 -37q57 37 151 37q35 0 86 -14h166v-1208l61 2v-160h-286v160l55 -2v1018q0 23 -25.5 41t-58.5 18q-47 0 -62.5 -24.5t-15.5 -104.5v-164h103v-158h-103v-626l56 2v-160h-279v160l53 -2v626h-159 v-626l55 2v-160h-299zM279 942h159v135q0 84 13 144q-41 14 -86 14q-53 0 -69.5 -25.5t-16.5 -103.5v-164z" />
</font>
</defs>
</svg>
