<?xml version="1.0" standalone="no"?>
<!DOCTYPE svg PUBLIC "-//W3C//DTD SVG 1.1//EN" "http://www.w3.org/Graphics/SVG/1.1/DTD/svg11.dtd" >
<svg xmlns="http://www.w3.org/2000/svg">
<metadata>
This is a custom SVG webfont generated by Font Squirrel.
Copyright   : Typeface  FontSite Inc 19962008 All Rights Reserved wwwfontsitecom
Designer    : FontSitecom
Foundry URL : httpwwwfontsitecom
</metadata>
<defs>
<font id="webfontrA9RJ36P" horiz-adv-x="1024" >
<font-face units-per-em="2048" ascent="1610" descent="-438" />
<missing-glyph horiz-adv-x="512" />
<glyph unicode=" "  horiz-adv-x="512" />
<glyph unicode="&#x09;" horiz-adv-x="512" />
<glyph unicode="&#xa0;" horiz-adv-x="512" />
<glyph unicode="!" horiz-adv-x="487" d="M170 0v233h147v-233h-147zM170 727v311h141v-311l-18 -399h-105z" />
<glyph unicode="&#x22;" horiz-adv-x="665" d="M121 1366h119l-19 -547h-84zM424 1366h119l-17 -547h-86z" />
<glyph unicode="#" d="M143 467l15 84h174l41 264h-174l12 84h174l74 467h92l-74 -467h234l73 467h93l-74 -467h170l-12 -84h-170l-43 -264h174l-13 -84h-174l-73 -467h-95l74 467h-231l-74 -467h-92l73 467h-174zM424 551h231l41 264h-231z" />
<glyph unicode="$" d="M63 1034q0 90 43.5 169t118.5 124q82 51 209 62v174h117v-185q117 -18 231 -125l-2 117h125q-6 -104 -6 -180q0 -94 6 -236h-125l2 41q6 123 -96 197q-61 45 -135 61v-483q184 -55 266 -119q143 -109 144 -278q0 -96 -48.5 -184.5t-128.5 -141.5q-86 -55 -233 -67v-236 h-117v246q-141 18 -248 137l2 -127h-122q6 111 6 211q0 129 -6 272h122q0 -109 2 -127q2 -80 73 -150.5t171 -90.5v555q-182 59 -250 112q-121 94 -121 252zM197 1032q0 -80 54 -132t183 -91v455q-104 -6 -170.5 -71t-66.5 -161zM551 102q115 2 176 52q100 78 100 208 q0 94 -65.5 159t-210.5 112v-531z" />
<glyph unicode="%" horiz-adv-x="1662" d="M72 963q0 197 84 310t227 113q133 0 216 -114.5t83 -300.5q0 -201 -84 -323t-223 -122q-137 0 -220 119t-83 318zM172 956q0 -156 54.5 -248t146.5 -92q96 0 152.5 92.5t56.5 254.5q0 154 -54.5 244.5t-146.5 90.5q-98 0 -153.5 -90t-55.5 -252zM340 29l924 1343l57 -37 l-926 -1343zM983 416q0 197 84 310.5t227 113.5q133 0 216 -115t83 -301q0 -201 -84 -322.5t-223 -121.5q-137 0 -220 118.5t-83 317.5zM1083 410q0 -156 54.5 -248t146.5 -92q96 0 152.5 92t56.5 254q0 154 -54.5 245t-146.5 91q-98 0 -153.5 -90t-55.5 -252z" />
<glyph unicode="&#x26;" horiz-adv-x="1097" d="M88 307q0 209 250 322q-78 100 -78 194q0 100 68.5 166t171.5 66q104 0 172.5 -62.5t68.5 -158.5q0 -84 -49 -142.5t-164 -109.5l195 -267q27 47 46 116t19 118q57 -2 66 -2h92q8 0 70 2v-115l-127 2q-14 -96 -88 -227l69 -98l146 2v-115h-37q-16 2 -33 2h-61 q-16 0 -35 -2h-41l-84 115q-135 -129 -289 -129q-145 0 -246.5 94t-101.5 229zM211 313q0 -88 66.5 -149.5t158.5 -61.5q119 0 215 107l-245 328q-90 -33 -142.5 -93.5t-52.5 -130.5zM389 825q0 -47 70 -147q154 59 153 151q0 47 -30.5 77t-79.5 30q-51 0 -82 -30t-31 -81z " />
<glyph unicode="'" horiz-adv-x="360" d="M121 1366h119l-19 -547h-84z" />
<glyph unicode="(" horiz-adv-x="681" d="M86 483q0 446 233 725q94 113 263 193v-139q-174 -88 -269.5 -288t-95.5 -480q0 -379 164 -607q72 -98 201 -178v-137q-164 82 -260 192q-111 127 -173.5 316.5t-62.5 402.5z" />
<glyph unicode=")" horiz-adv-x="681" d="M100 -291q129 80 201 178q164 227 164 607q0 281 -95.5 480.5t-269.5 287.5v139q168 -80 262 -193q233 -279 234 -725q0 -213 -62.5 -402.5t-173.5 -316.5q-96 -111 -260 -192v137z" />
<glyph unicode="*" d="M109 1030l43 135l325 -141l-33 354h142l-33 -352l326 139l45 -133l-346 -80l233 -266l-115 -82l-180 305l-180 -305l-115 82l234 266z" />
<glyph unicode="+" d="M150 629v108h303v307h116v-307h303v-108h-303v-307h-116v307h-303z" />
<glyph unicode="," horiz-adv-x="434" d="M141 -154q33 14 46.5 48t11.5 106h-47v231h147v-217q0 -129 -36 -192.5t-122 -89.5v114z" />
<glyph unicode="-" horiz-adv-x="419" d="M0 465v119h420v-119h-420z" />
<glyph unicode="." horiz-adv-x="434" d="M143 0v233h148v-233h-148z" />
<glyph unicode="/" horiz-adv-x="808" d="M-66 -395l695 1761h112l-694 -1761h-113z" />
<glyph unicode="0" horiz-adv-x="1050" d="M68 526q0 301 176 447q119 98 293 98q158 0 272 -96q176 -145 176 -434q0 -260 -126 -418t-335 -158q-207 0 -331.5 153.5t-124.5 407.5zM201 514q0 -195 87 -309.5t232 -114.5q154 0 243 118t89 320q0 236 -131 349q-82 70 -189 69q-158 0 -244.5 -113.5t-86.5 -318.5z " />
<glyph unicode="1" horiz-adv-x="751" d="M102 -4v127l220 -4v799h-220v131q176 -4 183 -5q14 0 174 5v-930l219 4v-127q-88 4 -219 4h-137q-132 0 -220 -4z" />
<glyph unicode="2" d="M78 -4q-2 166 114.5 297t387.5 264q111 55 150.5 95t39.5 98q0 88 -68.5 142t-179.5 54q-119 0 -190.5 -71.5t-71.5 -190.5q0 -14 2 -27h-141q4 195 112.5 304.5t294.5 109.5q166 0 270.5 -89t104.5 -232q0 -72 -26.5 -121t-90.5 -94q-33 -25 -186 -107 q-172 -94 -251 -163.5t-95 -141.5h528l-2 162h119q-4 -127 -4 -144q0 -18 4 -145q-66 4 -184 4h-459q-112 0 -178 -4z" />
<glyph unicode="3" d="M47 117h141q4 -172 86 -262.5t236 -90.5q141 0 225 77t84 208q0 127 -88 202t-239 75q-41 0 -91 -9v140q43 -8 74 -8q119 0 191.5 68.5t72.5 178.5q0 106 -63.5 172t-167.5 66q-113 0 -172.5 -66.5t-71.5 -205.5h-133q14 182 94 278q106 131 283 131q164 0 264 -101.5 t100 -262.5q0 -109 -48 -181.5t-154 -126.5q111 -27 176 -86q106 -98 106 -256q0 -188 -120.5 -302.5t-319.5 -114.5q-213 0 -338 128t-127 349z" />
<glyph unicode="4" horiz-adv-x="997" d="M39 117l579 942h119v-936h195v-123h-195v-328h-137v328h-475zM193 123h407v704z" />
<glyph unicode="5" d="M70 88l133 12q16 -135 63 -211q76 -125 236 -125q135 0 225 98.5t90 246.5q0 145 -77.5 235t-204.5 90q-174 0 -302 -162l-94 74l64 696q59 -4 123 -4h436q25 0 119 4q-4 -131 -4 -165q0 -39 4 -170h-125v208h-437l-45 -438l19 -10q117 92 262 92q123 0 229 -74 q166 -121 166 -366q0 -236 -145 -367q-125 -113 -305 -112q-188 0 -299 115.5t-131 332.5z" />
<glyph unicode="6" d="M88 612q0 385 115.5 587t335.5 202q197 0 303 -158q66 -98 71 -258h-135q-4 139 -65.5 215t-165.5 76q-143 0 -230.5 -148.5t-91.5 -398.5q57 76 144.5 120t181.5 44q170 0 278.5 -123t108.5 -315q0 -217 -115.5 -353.5t-298.5 -136.5q-193 0 -307 139q-129 162 -129 508 zM227 608q0 -264 66 -379q76 -139 229 -139q127 0 205 99.5t78 259.5q0 145 -74 232t-196 87q-181 0 -308 -160z" />
<glyph unicode="7" horiz-adv-x="915" d="M35 700q4 68 4 148q0 68 -4 194q86 -4 184 -4h496q61 0 139 4v-137q-127 -147 -238 -395q-78 -176 -109.5 -344t-31.5 -418v-76h-127q-6 416 79 703t288 530h-559l2 -205h-123z" />
<glyph unicode="8" d="M57 379q0 127 58.5 210t187.5 142q-113 57 -161 126t-48 175q0 160 119 264.5t301 104.5q176 0 293 -104.5t117 -264.5q0 -129 -82 -215q-43 -43 -127 -86q106 -35 159 -96q92 -102 93 -256q0 -176 -130 -295t-323 -119q-203 0 -330 116t-127 298zM190 383 q0 -125 91.5 -209t230.5 -84t230.5 84t91.5 213q0 123 -91.5 203t-230.5 80q-145 0 -233.5 -79t-88.5 -208zM227 1022q0 -106 80 -174t205 -68t202 66.5t77 175.5q0 111 -78 182.5t-199 71.5q-123 0 -205 -72.5t-82 -181.5z" />
<glyph unicode="9" d="M92 594q0 205 117 341t291 136q215 0 325 -184q104 -170 105 -490q0 -436 -162 -620q-117 -137 -299 -137q-109 0 -198 58t-130 157q-35 76 -37 208h134q0 -143 61 -221t174 -78q152 0 233.5 141.5t88.5 411.5q-84 -88 -160 -124.5t-172 -36.5q-162 0 -266.5 124 t-104.5 314zM225 598q0 -143 70 -230t182 -87q178 0 320 165q-10 238 -52 328q-82 172 -245 172q-121 0 -198 -98t-77 -250z" />
<glyph unicode=":" horiz-adv-x="434" d="M143 0v233h148v-233h-148zM143 750v233h148v-233h-148z" />
<glyph unicode=";" horiz-adv-x="434" d="M141 -154q33 14 46.5 48t11.5 106h-47v231h147v-217q0 -129 -36 -192.5t-122 -89.5v114zM152 750v233h147v-233h-147z" />
<glyph unicode="&#x3c;" d="M90 686v12l844 547v-65l-670 -439l670 -446v-170z" />
<glyph unicode="=" d="M158 485v109h708v-109h-708zM158 774v109h708v-109h-708z" />
<glyph unicode="&#x3e;" d="M90 125v65l670 439l-670 444v172l844 -561v-12z" />
<glyph unicode="?" horiz-adv-x="735" d="M96 702q0 92 21 162q29 88 100.5 139.5t165.5 51.5q125 0 205 -83t80 -216q0 -119 -65.5 -199t-172.5 -92v-137h-117q-2 131 -26 258q41 -12 75 -13q84 0 135.5 49.5t51.5 131.5q0 78 -47 128t-121 50q-111 0 -150 -98q-16 -41 -16 -132h-119zM297 0v233h147v-233h-147z " />
<glyph unicode="@" horiz-adv-x="1482" d="M53 506q0 297 208 500.5t511 203.5q281 0 469.5 -175t188.5 -435q0 -197 -103.5 -345.5t-241.5 -148.5q-66 0 -106.5 40t-40.5 106q-94 -147 -254 -148q-127 0 -208 94.5t-81 239.5q0 176 104.5 299t256.5 123q180 0 237 -184l31 158h76l-88 -453q-12 -55 -13 -96 q0 -47 26 -75t69 -28q102 0 179 125t77 289q0 233 -164 386t-416 153q-266 0 -449.5 -183.5t-183.5 -449.5q0 -262 174 -443q182 -190 490 -190q225 0 448 111l27 -72q-227 -113 -477 -113q-340 0 -543 207q-203 203 -203 504zM483 442q0 -115 59.5 -186.5t153.5 -71.5 q111 0 184.5 106.5t73.5 264.5q0 104 -52 164.5t-142 60.5q-113 0 -195 -99.5t-82 -238.5z" />
<glyph unicode="A" horiz-adv-x="1333" d="M-6 -4v121l168 -4l391 1140l-168 -4v121q53 -4 137 -4h316q57 0 120 4v-121l-167 4l380 -1140l170 4v-121l-38 2q-43 2 -80 2h-203q-53 0 -152 -4v121l162 -4l-125 393h-477l-127 -393l164 4v-121l-45 2q-51 2 -98 2h-209q-37 0 -80 -2zM469 623h401l-196 626z" />
<glyph unicode="B" horiz-adv-x="1179" d="M76 -4v121l178 -4v1140l-178 -4v121q125 -4 176 -4h170l174 2h8q203 0 305 -102q100 -100 101 -252q0 -217 -195 -287q266 -78 266 -336q0 -125 -65.5 -220t-179.5 -136q-63 -23 -137 -29t-298 -6h-149q-51 0 -176 -4zM383 117q37 -2 84 -2q246 0 352 49q57 27 91 87 t34 138q0 266 -332 266h-229v-538zM383 768q195 0 274.5 9t135.5 36q88 45 88 193q0 141 -86 194q-80 51 -273 51q-82 0 -139 -2v-481z" />
<glyph unicode="C" horiz-adv-x="1480" d="M96 674q0 311 185.5 513t470.5 202q307 0 467 -238l-7 215h125q-8 -131 -8 -266q0 -121 4 -197h-121q-27 164 -135 252q-129 104 -323 105q-229 0 -375 -163t-146 -419t147.5 -412.5t389.5 -156.5q186 0 308 96t200 307l113 -74q-180 -459 -627 -458q-303 0 -485.5 189.5 t-182.5 504.5z" />
<glyph unicode="D" horiz-adv-x="1427" d="M76 -4v121l178 -4v1140l-178 -4v121q113 -4 174 -4h168l192 2h11q273 0 436 -106q274 -180 274 -580q0 -236 -97 -401.5t-278 -235.5q-80 -29 -174 -37t-379 -8h-153q-59 0 -174 -4zM383 117h94q223 0 313.5 13t172.5 60q111 61 171 187.5t60 294.5q0 215 -92 360.5 t-260 192.5q-104 29 -330 28q-14 0 -129 -4v-1132z" />
<glyph unicode="E" horiz-adv-x="1286" d="M76 -4v121l178 -4v1140l-178 -4v121q119 -4 176 -4h727q125 0 186 4q-2 -96 -2 -215q0 -109 2 -186h-125l2 280h-659v-493h543v-117h-543v-522h668l-4 291h120q-2 -47 -2 -193q0 -170 2 -219q-86 4 -131 4h-784q-55 0 -176 -4z" />
<glyph unicode="F" horiz-adv-x="1183" d="M76 -4v121l178 -4v1142l-178 -4v119q115 -4 174 -4h657q106 0 199 4q-4 -74 -4 -184q0 -115 4 -213h-121l2 276h-604v-495h432v-117h-432v-524l180 4v-121q-119 4 -180 4h-133q-59 0 -174 -4z" />
<glyph unicode="G" horiz-adv-x="1533" d="M96 682q0 256 135 440q90 121 235.5 192.5t301.5 71.5q287 0 485 -223l-2 203h125q-8 -203 -8 -354q0 -66 2 -117h-119q-37 147 -114 225q-141 137 -371 137q-231 0 -382 -159.5t-151 -403.5q0 -254 156 -419.5t393 -165.5q213 0 357.5 123.5t158.5 318.5h-333v117h483 q-16 -317 -160 -478q-186 -211 -514 -210q-297 0 -487.5 197.5t-190.5 504.5z" />
<glyph unicode="H" horiz-adv-x="1441" d="M76 -4v121l178 -4v1140l-178 -4v121q123 -4 178 -4h127q53 0 180 4v-121l-178 4v-471h676v471l-178 -4v121q123 -4 178 -4h135q59 0 170 4v-121l-176 4v-1140l176 4v-121q-115 4 -172 4h-133q-51 0 -178 -4v121l178 -4v553h-676v-553l178 4v-121q-127 4 -180 4h-127 q-53 0 -178 -4z" />
<glyph unicode="I" horiz-adv-x="636" d="M76 -4v121l178 -4v1140l-178 -4v121q139 -4 184 -4h121q57 0 180 4v-121l-178 4v-1140l178 4v-121q-121 4 -180 4h-123q-49 0 -182 -4z" />
<glyph unicode="J" horiz-adv-x="624" d="M-72 -262q82 -23 133 -23q129 0 170 86q23 51 23 174v1278l-178 -4v121q119 -4 176 -4h129q57 0 178 4v-121l-176 4v-1263q0 -117 -13.5 -179.5t-50.5 -113.5q-80 -111 -247 -111q-74 0 -144 17v135z" />
<glyph unicode="K" horiz-adv-x="1261" d="M76 -4v121l178 -4v1140l-178 -4v121q86 -4 170 -4h133q57 0 174 4v-121l-170 4v-540l502 540l-121 -4v121q94 -4 123 -4h225q45 0 100 4v-121l-172 4l-505 -532l536 -608l150 4v-121q-66 4 -103 4h-186q-98 0 -158 -4v121l135 -4l-526 600v-600l170 4v-121q-115 4 -174 4 h-133q-84 0 -170 -4z" />
<glyph unicode="L" horiz-adv-x="1128" d="M76 -4v121l178 -4v1140l-178 -4v121q123 -4 178 -4h131q55 0 176 4v-121l-178 4v-1136h524q4 53 4 186q0 199 -4 270h137q-2 -98 -2 -380q0 -131 2 -197h-53l-147 4h-588q-51 0 -180 -4z" />
<glyph unicode="M" horiz-adv-x="1814" d="M76 -4v121l178 -4v1140l-178 -4v121q125 -4 180 -4h104q23 0 93 4l462 -1112l463 1112q53 -4 105 -4h78q47 0 176 4v-121l-176 4v-1140l176 4v-121q-129 4 -178 4h-140q-86 0 -166 -4v121l179 -4v1079l-502 -1192h-51l-496 1200v-1087l178 4v-121q-106 4 -166 4h-135 q-49 0 -184 -4z" />
<glyph unicode="N" horiz-adv-x="1509" d="M76 -4v121l178 -4v1140l-178 -4v121q150 -4 190 -4h70q18 0 82 4l721 -1182v1065l-178 -4v121q127 -4 180 -4h114q43 0 191 4v-121l-178 4v-1263h-144l-741 1196v-1073l178 4v-121q-119 4 -178 4h-129q-39 0 -178 -4z" />
<glyph unicode="O" horiz-adv-x="1533" d="M96 684q0 379 266 573q178 129 414 129t410 -137q252 -201 252 -569q0 -340 -232 -541q-182 -160 -444 -159q-291 0 -478.5 197.5t-187.5 506.5zM233 682q0 -254 151 -413.5t388 -159.5q233 0 380.5 160.5t147.5 414.5q0 256 -145 414.5t-381 158.5q-244 0 -392.5 -157.5 t-148.5 -417.5z" />
<glyph unicode="P" horiz-adv-x="1165" d="M76 -4v121l178 -4v1140l-178 -4v121q127 -4 180 -4h131q279 0 342.5 -5t126.5 -28q115 -45 180.5 -144t65.5 -231q0 -100 -40 -190t-106 -139q-63 -47 -143 -63.5t-246 -16.5h-184v-436l180 4v-121q-115 4 -174 4h-133q-51 0 -180 -4zM383 666q109 -2 178 -2 q115 0 172.5 10t108.5 39q55 33 89 99.5t34 143.5q0 166 -121 244q-57 35 -158 45q-57 4 -248 4h-55v-583z" />
<glyph unicode="Q" horiz-adv-x="1533" d="M96 690q0 317 207 516q186 180 467 180q293 0 479.5 -194.5t186.5 -501.5q0 -285 -153 -471t-423 -233q57 -23 121 -52q100 -43 174 -43q78 0 127 21l-55 -139q-29 -2 -51 -2q-72 0 -131.5 16t-223.5 82q-74 31 -129 31q-82 0 -172 -66l-74 86q51 47 144 82 q-236 68 -365 248t-129 440zM233 680q0 -252 148.5 -413t384.5 -161q233 0 382.5 160t149.5 412q0 256 -145 417.5t-379 161.5q-248 0 -394.5 -155.5t-146.5 -421.5z" />
<glyph unicode="R" horiz-adv-x="1228" d="M76 -4v121l178 -4v1140l-178 -4v121q133 -4 182 -4h160h108q31 0 59.5 1t47.5 1h22q190 0 291 -63q143 -92 144 -277q0 -135 -75 -227t-210 -121l258 -567l143 4v-121q-45 4 -78 4h-67q-43 0 -84 -4l-305 676h-289v-559l192 4v-121q-115 4 -174 4h-141q-49 0 -184 -4z M383 788q217 -2 246 -2q178 0 250 60q74 61 73 174q0 96 -59 162q-33 37 -89 49t-194 16q-16 0 -72.5 1t-154.5 1v-461z" />
<glyph unicode="S" horiz-adv-x="1112" d="M115 1032q0 152 109.5 252t275.5 100q184 0 325 -133l-2 115h127q-6 -100 -6 -170q0 -82 6 -242h-127q2 16 2 43q0 115 -88 191t-221 76q-117 0 -190.5 -64.5t-73.5 -169.5q0 -113 113 -176q55 -33 227 -84q190 -57 280 -129q133 -102 134 -270q0 -170 -118 -282 t-298 -112q-131 0 -232 54q-55 31 -118 94l4 -125h-123q4 63 4 154q0 127 -8 327h125q-2 -25 -2 -67q0 -160 102 -236q104 -80 246 -80q125 0 202.5 73t77.5 189q0 104 -70.5 170t-242.5 117q-164 49 -205 65.5t-90 49.5q-145 94 -145 270z" />
<glyph unicode="T" horiz-adv-x="1206" d="M63 883v41v190v211v45q63 -4 203 -4h641q94 0 240 4q-2 -74 -2 -291q0 -104 6 -184h-127l-4 354h-346v-1136l223 4v-121q-111 4 -174 4h-227q-55 0 -174 -4v121l223 -4v1136h-359l2 -366h-125z" />
<glyph unicode="U" horiz-adv-x="1374" d="M55 1249v121q121 -4 178 -4h125q55 0 174 4v-121l-170 4v-829q0 -315 320 -315q188 0 272 112q35 47 46.5 105.5t11.5 177.5v749l-172 -4v121q109 -4 172 -4h125q47 0 182 4v-121l-178 4v-757q0 -158 -24.5 -241t-90.5 -149q-127 -127 -344 -126q-211 0 -330 107.5 t-119 297.5v868z" />
<glyph unicode="V" horiz-adv-x="1316" d="M-6 1249v121q35 -4 102 -4h207q102 0 162 4v-121l-168 4l379 -1046l360 1046l-176 -4v121q53 -4 152 -4h213q53 0 98 4v-121l-156 4l-442 -1259h-104l-463 1259z" />
<glyph unicode="W" horiz-adv-x="1935" d="M-6 1249v121q45 -4 102 -4h232q96 0 147 4v-121l-172 4l287 -1050l282 1050l-180 -4v121q47 -4 148 -4h276q86 0 133 4v-121l-172 4l291 -1050l283 1050l-181 -4v121q57 -4 148 -4h221q55 0 105 4v-121l-170 4l-347 -1259h-135l-323 1169l-318 -1169h-135l-348 1259z" />
<glyph unicode="X" horiz-adv-x="1357" d="M63 -4v121l164 -4l373 575l-360 565l-166 -4v121q47 -4 110 -4h205q106 0 172 4v-121l-168 4l285 -446l287 446l-177 -4l5 121q63 -4 149 -4h246q43 0 92 4v-121l-176 4l-356 -553l382 -587l166 4v-121q-43 4 -96 4h-231q-98 0 -166 -4v121l172 -4l-305 469l-305 -469 l176 4v-121q-57 4 -162 4h-217q-56 0 -99 -4z" />
<glyph unicode="Y" horiz-adv-x="1245" d="M-6 1249v121l35 -2q39 -2 77 -2h230q102 0 168 4v-121l-172 4l303 -508l303 508l-168 -4v121q66 -4 172 -4h215q45 0 103 4v-121l-175 4l-391 -643v-497l193 4v-121q-84 4 -174 4h-164q-53 0 -174 -4v121l190 -4v497l-397 643z" />
<glyph unicode="Z" horiz-adv-x="1134" d="M88 -4v121l760 1126h-596l2 -282h-123q4 61 4 176q0 156 -4 233q78 -4 199 -4h446q150 0 240 4v-119l-758 -1128h668l-2 293h120q-4 -68 -4 -168q0 -94 4 -252q-88 4 -217 4h-458q-177 0 -281 -4z" />
<glyph unicode="[" horiz-adv-x="681" d="M156 -395v1761h419v-98h-305v-1565h305v-98h-419z" />
<glyph unicode="\" horiz-adv-x="808" d="M70 1366h112l695 -1761h-113z" />
<glyph unicode="]" horiz-adv-x="681" d="M106 -297h306v1565h-306v98h420v-1761h-420v98z" />
<glyph unicode="^" d="M-47 590l561 844h12l545 -844h-63l-439 670l-446 -670h-170z" />
<glyph unicode="_" d="M0 -178h1024v-72h-1024v72z" />
<glyph unicode="`" d="M254 1456h168l182 -282h-117z" />
<glyph unicode="a" horiz-adv-x="1079" d="M-6 -2v108l149 -4l279 834l-137 -4v108q90 -2 135 -2h258q23 0 125 2v-108l-139 4l272 -834l151 4v-108q-100 2 -122 2h-150q-53 0 -147 -2v108l135 -4l-84 273h-359l-86 -273l138 4v-108q-102 2 -140 2h-155q-27 0 -123 -2zM397 481h289l-141 457z" />
<glyph unicode="b" horiz-adv-x="995" d="M76 -2v108l157 -4v834l-157 -4v108q109 -2 153 -2h142l143 2h8q160 0 244 -79q82 -76 82 -195q0 -172 -160 -215q213 -57 213 -252q0 -94 -53 -168t-143 -104q-49 -18 -106.5 -22.5t-242.5 -4.5h-127q-42 0 -153 -2zM356 106h60q193 0 268 35q88 43 88 158q0 113 -86 158 q-43 23 -78 26.5t-157 3.5h-95v-381zM356 594h72q176 0 236.5 34t60.5 130q0 98 -61 137q-57 37 -220 37h-88v-338z" />
<glyph unicode="c" horiz-adv-x="1198" d="M96 512q0 238 145.5 390.5t372.5 152.5q233 0 338 -160l-4 141h123q-8 -115 -8 -209q0 -92 4 -159h-115q-18 125 -100 188q-96 76 -242 76q-170 0 -277.5 -117t-107.5 -299q0 -184 109.5 -297t288.5 -113q143 0 232 72t151 236l104 -72q-45 -143 -168 -246 q-133 -113 -324 -112q-236 0 -379 145t-143 383z" />
<glyph unicode="d" horiz-adv-x="1179" d="M76 -2v108l157 -4v834l-157 -4v108q109 -2 153 -2h140l155 2h11q210 0 337 -82q213 -137 213 -442q0 -178 -76.5 -304t-217.5 -177q-59 -23 -132 -29t-301 -6h-129q-42 0 -153 -2zM356 106h115q133 0 196.5 10.5t120.5 43.5q168 94 168 352q0 117 -41 210t-112 142 q-98 68 -293 68h-154v-826z" />
<glyph unicode="e" horiz-adv-x="1079" d="M76 -2v108l157 -4v834l-157 -4v108q109 -2 153 -2h582q96 0 152 4q-2 -98 -2 -170q0 -70 2 -153h-121l2 213h-488v-348h422v-107h-422v-371h494l-2 222h117q-2 -47 -2 -158q0 -123 2 -174q-63 4 -111 4h-625q-42 0 -153 -2z" />
<glyph unicode="f" horiz-adv-x="993" d="M76 -2v108l157 -4v834l-157 -4v108q109 -2 153 -2h529q84 0 160 4q-2 -66 -3 -151q0 -80 3 -170h-117l2 211h-447v-350h340v-107h-340v-373l156 4v-108q-100 2 -160 2h-123q-42 0 -153 -2z" />
<glyph unicode="g" horiz-adv-x="1232" d="M96 518q0 199 105 334q72 92 186.5 147.5t235.5 55.5q233 0 356 -160v143h121q-8 -176 -8 -278q0 -53 2 -96h-113q-29 115 -88 170q-100 96 -275 96q-170 0 -281.5 -115t-111.5 -289q0 -182 116 -301t292 -119q152 0 258 86.5t121 219.5h-246v106h387q-14 -250 -127 -375 q-150 -160 -401 -159q-231 0 -380 150.5t-149 383.5z" />
<glyph unicode="h" horiz-adv-x="1210" d="M76 -2v108l157 -4v834l-157 -4v108q109 -2 153 -2h123q57 0 160 2v-108l-156 4v-332h500v332l-158 -4v108q109 -2 154 -2h123q57 0 160 2v-108l-156 4v-834l156 4v-108q-100 2 -160 2h-123q-43 0 -154 -2v108l158 -4v396h-500v-396l156 4v-108q-100 2 -160 2h-123 q-42 0 -153 -2z" />
<glyph unicode="i" horiz-adv-x="587" d="M76 -2v108l157 -4v834l-157 -4v108q109 -2 153 -2h123q57 0 160 2v-108l-156 4v-834l156 4v-108q-100 2 -160 2h-123q-42 0 -153 -2z" />
<glyph unicode="j" horiz-adv-x="575" d="M-23 -162q70 -23 119 -22q90 0 119 57q16 33 16 123v940l-155 -4v108q106 -2 151 -2h123q57 0 162 2v-108l-158 4v-930q0 -158 -51 -225q-66 -88 -201 -88q-59 0 -125 16v129z" />
<glyph unicode="k" horiz-adv-x="1062" d="M76 -2v108l157 -4v834l-157 -4v108q109 -2 153 -2h123q57 0 160 2v-108l-156 4v-389l353 389l-93 -4v108h62q18 0 40.5 -1t24.5 -1h166l19 2h35h55v-108l-156 4l-362 -387l393 -447l129 4v-108q-80 2 -107 2h-139q-80 0 -151 -2v108l104 -4l-373 437v-437l156 4v-108 q-100 2 -160 2h-123q-42 0 -153 -2z" />
<glyph unicode="l" horiz-adv-x="954" d="M76 -2v108l157 -4v834l-157 -4v108q109 -2 153 -2h123q57 0 160 2v-108l-156 4v-830h387v189q0 100 -2 158h131q-4 -98 -4 -291q0 -104 4 -166q-27 2 -55 2l-108 2h-480q-42 0 -153 -2z" />
<glyph unicode="m" horiz-adv-x="1484" d="M76 -2v108l157 -4v834l-157 -4v108q109 -2 153 -2h121q20 0 41 2q20 0 39 2l315 -829l324 829q59 -4 82 -4h98q57 0 162 2v-108l-158 4v-834l158 4v-108q-100 2 -162 2h-123q-43 0 -151 -2v108l155 -4v795l-360 -897h-57l-357 895v-793l156 4v-108q-100 2 -160 2h-123 q-42 0 -153 -2z" />
<glyph unicode="n" horiz-adv-x="1255" d="M76 -2v108l157 -4v834l-157 -4v108q109 -2 153 -2h95q20 0 65 4l526 -868v762l-157 -4v108q109 -2 153 -2h123q57 0 160 2v-108l-156 4v-944h-143l-539 880v-770l156 4v-108q-100 2 -160 2h-123q-42 0 -153 -2z" />
<glyph unicode="o" horiz-adv-x="1236" d="M96 520q0 238 147.5 386.5t383.5 148.5q227 0 371.5 -150.5t144.5 -386t-147.5 -385t-379.5 -149.5q-227 0 -373.5 150t-146.5 386zM225 520q0 -182 110.5 -298t287.5 -116q174 0 282.5 116t108.5 298q0 184 -107.5 298t-281.5 114q-180 0 -290 -113t-110 -299z" />
<glyph unicode="p" horiz-adv-x="976" d="M76 -2v108l157 -4v834l-157 -4v108q109 -2 153 -2h117q227 0 275.5 -3t97.5 -21q92 -33 144 -111t52 -180q0 -78 -31.5 -147.5t-84.5 -108.5q-51 -35 -111.5 -48t-181.5 -13h-150v-304l156 4v-108q-100 2 -160 2h-123q-42 0 -153 -2zM356 512h121q160 0 221 35 q88 51 88 174q0 119 -88 174q-55 37 -233 37h-109v-420z" />
<glyph unicode="q" horiz-adv-x="1236" d="M96 522q0 233 147.5 383t377.5 150q231 0 376.5 -149.5t145.5 -389.5q0 -205 -114 -346t-306 -178q96 -41 118.5 -47t69.5 -6q61 0 115 26l-57 -141q-23 -2 -47 -2q-55 0 -100.5 12t-166.5 62q-57 23 -90 22q-57 0 -129 -53l-71 84q55 41 92 55q-168 51 -264.5 189.5 t-96.5 328.5zM225 518q0 -182 110.5 -298t287.5 -116q174 0 282.5 116t108.5 300.5t-107.5 298t-281.5 113.5q-180 0 -290 -113t-110 -301z" />
<glyph unicode="r" horiz-adv-x="1032" d="M76 -2v108l157 -4v834l-157 -4v108q109 -2 153 -2h109h117q35 0 71.5 1t38.5 1q139 0 223 -49q53 -33 85 -91t32 -124q0 -100 -62.5 -173t-168.5 -95l207 -406l133 4v-108h-53q-20 2 -39 2h-50q-20 0 -38 -2h-39l-248 500h-191v-396l156 4v-108q-100 2 -160 2h-123 q-42 0 -153 -2zM356 604h181q127 0 183 39t56 127q0 98 -69 137q-33 16 -68 20.5t-160 4.5h-123v-328z" />
<glyph unicode="s" horiz-adv-x="933" d="M115 383h121q0 -104 6 -136t34 -63q76 -86 218 -86q92 0 149 50.5t57 132.5q0 74 -51 116.5t-182 81.5q-174 49 -234 88q-119 70 -118 211q0 121 90 199t227 78q152 0 236 -97l-2 80h122q-6 -88 -6 -141q0 -61 6 -190h-120q0 86 -15 118q-23 49 -83 81t-132 32 q-86 0 -140 -45t-54 -117q0 -76 80 -119q47 -25 174 -61q178 -51 254.5 -123t76.5 -186q0 -133 -95 -219t-242 -86q-170 0 -256 104l2 -86h-119q4 57 4 127q0 147 -8 256z" />
<glyph unicode="t" horiz-adv-x="978" d="M61 653q4 172 5 195q0 25 -5 192q72 -2 164 -2h502q109 0 191 2q-4 -164 -5 -188q0 -23 5 -190h-121v270h-244v-830l158 4v-108q-100 2 -162 2h-123q-43 0 -154 -2v108l158 -4v830h-250v-279h-119z" />
<glyph unicode="u" horiz-adv-x="1150" d="M55 932v108q109 -2 154 -2h123q57 0 160 2v-108l-156 4v-608q0 -221 235 -222q135 0 201 78q27 33 35 74t8 129v549l-158 -4v108q109 -2 154 -2h123q57 0 162 2v-108l-158 4v-555q0 -123 -19.5 -185.5t-72.5 -113.5q-104 -98 -275 -98q-168 0 -263 84t-95 231v637z" />
<glyph unicode="v" horiz-adv-x="1067" d="M-6 932v108q72 -2 110 -2h154q57 0 154 2v-108l-140 4l275 -756l260 756l-145 -4v108q63 -2 145 -2h158q4 0 24.5 1t34.5 1h49v-108l-141 4l-340 -940h-96l-355 940z" />
<glyph unicode="w" horiz-adv-x="1538" d="M-6 932v108q82 -2 108 -2h172q47 0 144 2v-108l-144 4l201 -754l199 754l-150 -4v108q61 -2 146 -2h217q68 0 133 2v-108l-143 4l202 -754l199 754l-150 -4v108q92 -2 144 -2h162q23 0 112 2v-108l-149 4l-262 -940h-121l-242 876l-240 -876h-120l-267 940z" />
<glyph unicode="x" horiz-adv-x="1130" d="M63 -2v108l148 -4l285 420l-279 414l-149 -4v108q88 -2 116 -2h152q59 0 162 2v-108l-133 4l200 -309l201 309l-139 -4l2 108q102 -2 147 -2h182q2 0 8.5 1t16.5 1h21h55v-108l-158 4l-272 -404l289 -430l149 4v-108q-82 2 -104 2h-172q-61 0 -156 -2v108l135 -4 l-211 326l-213 -326l139 4v-108q-70 2 -153 2h-162q-29 0 -107 -2z" />
<glyph unicode="y" horiz-adv-x="1017" d="M-6 932v108q92 -2 117 -2h170q61 0 157 2v-108l-137 4l217 -358l213 358l-135 -4v108q68 -2 162 -2h157q2 0 21.5 1t36.5 1h53v-108l-156 4l-299 -479v-355l158 4v-108q-100 2 -162 2h-123q-43 0 -153 -2v108l158 -4v363l-299 471z" />
<glyph unicode="z" horiz-adv-x="942" d="M88 -4v108l582 828h-432v-221h-119q4 55 4 145q0 121 -4 186q68 -4 162 -4h358q115 0 190 4v-106l-581 -830h487v230h117q-4 -57 -4 -137q0 -74 4 -203q-76 4 -176 4h-367q-135 0 -221 -4z" />
<glyph unicode="{" horiz-adv-x="681" d="M133 436v99q66 20 91.5 62t25.5 128v334q0 152 39 219q49 88 192 88h74v-94q-86 0 -131 -31q-59 -41 -59 -172v-348q0 -98 -27 -150.5t-96 -85.5q70 -33 96.5 -85t26.5 -150v-348q0 -131 59 -172q43 -31 117 -31h14v-94h-74q-141 0 -192 88q-39 72 -39 219v334 q0 88 -25.5 129t-91.5 61z" />
<glyph unicode="|" d="M469 -342v1708h86v-1708h-86z" />
<glyph unicode="}" horiz-adv-x="681" d="M127 -301h12q92 0 133 45q43 45 43 158v348q0 98 28 150.5t95 84.5q-68 35 -95.5 86.5t-27.5 149.5v348q0 129 -57 172q-45 31 -119 31h-12v94h74q139 0 190 -88q39 -66 39 -219v-334q0 -88 25.5 -129t93.5 -61v-99q-68 -20 -93.5 -61t-25.5 -129v-334q0 -154 -39 -219 q-51 -88 -190 -88h-74v94z" />
<glyph unicode="~" horiz-adv-x="1366" d="M246 1278q123 190 286 190q55 0 189 -45q111 -37 162 -37q117 0 213 117l24 -16q-49 -82 -128 -135.5t-150 -53.5q-43 0 -135 31q-178 57 -242 57q-57 0 -94 -23.5t-101 -100.5z" />
<glyph unicode="&#xa1;" horiz-adv-x="487" d="M170 805v233h147v-233h-147zM176 0v311l19 400h104l18 -400v-311h-141z" />
<glyph unicode="&#xa2;" d="M45 707q0 127 51 237.5t140 173.5q90 68 233 86v168h117v-172q86 -20 137 -51t121 -107l-2 146h112q-6 -115 -6 -191q0 -72 6 -178h-112q-18 213 -256 266v-768q115 20 180 70.5t113 153.5l102 -64q-133 -250 -395 -272v-205h-117v205q-193 25 -308.5 162t-115.5 340z M178 709q0 -313 291 -385v761q-139 -18 -215 -116t-76 -260z" />
<glyph unicode="&#xa3;" d="M68 174q0 82 54 135t136 53q66 0 148 -53q4 49 4 53q0 106 -58 250l-266 -2v115l223 -2q-55 113 -72.5 174t-17.5 135q0 164 97.5 259t267.5 95q205 0 295 -147q49 -84 57 -262h-125q-2 121 -39 188q-59 109 -199 109q-100 0 -160.5 -59.5t-60.5 -155.5q0 -66 15.5 -124 t62.5 -179q2 -4 14 -35l322 4v-115l-291 2q39 -123 39 -233q0 -47 -12 -139q154 -135 241 -136q90 0 123 109q14 43 17 156h116q-6 -178 -53 -263q-72 -127 -196 -126q-61 0 -114.5 27.5t-170.5 119.5q-39 -78 -87 -112.5t-116 -34.5q-84 0 -139 55t-55 139zM174 174 q0 -35 24.5 -59.5t59.5 -24.5q86 0 121 109q-63 57 -121 57q-35 0 -59.5 -23.5t-24.5 -58.5z" />
<glyph unicode="&#xa4;" d="M139 389l123 123l-12 18q-49 76 -49 152q0 43 9 69.5t40 82.5l12 18l-123 123l80 80l123 -123l18 12q53 31 81 40t71 9q45 0 71.5 -8t80.5 -41l18 -12l123 123l80 -80l-123 -123l12 -18q31 -53 40 -81t9 -71q0 -45 -8 -71.5t-41 -80.5l-12 -18l123 -123l-80 -80l-123 123 q-84 -61 -170 -61q-84 0 -170 61l-123 -123zM283 684q0 -96 66.5 -163.5t162.5 -67.5q94 0 161.5 67.5t67.5 161.5q0 96 -67.5 162.5t-161.5 66.5t-161.5 -66.5t-67.5 -160.5z" />
<glyph unicode="&#xa5;" d="M-10 1249v121q39 -4 88 -4h196q84 0 134 4v-121l-140 4l246 -508l242 508l-135 -4v121q49 -4 135 -4h182q27 0 51 2l31 2v-121l-137 4l-156 -321h186v-103h-235l-98 -204h333v-103h-333v-409l157 4v-121q-102 4 -147 4h-158q-41 0 -145 -4v121l155 -4v409h-344l2 103h342 l-104 204h-240v103h191l-158 321z" />
<glyph unicode="&#xa6;" d="M469 313h86v-655h-86v655zM469 690v676h86v-676h-86z" />
<glyph unicode="&#xa7;" horiz-adv-x="1067" d="M94 578q0 106 53.5 176.5t151.5 93.5q-139 92 -139 242q0 141 100 224t275 83q229 0 333 -158q47 -74 58 -223h-117q-4 264 -274 264q-121 0 -190 -50t-69 -138q0 -84 70 -148q23 -18 176 -88l203 -92q135 -61 198.5 -138t63.5 -184q0 -102 -54 -169.5t-149 -86.5 q150 -88 150 -290q0 -150 -102.5 -236t-280.5 -86q-199 0 -308.5 97.5t-109.5 271.5v18h119q2 -133 80 -203.5t223 -70.5q125 0 194.5 56t69.5 157q0 98 -55 159q-29 31 -158 93l-223 104q-182 84 -231 147q-58 71 -58 175zM211 582q0 -82 72 -142q23 -18 149 -78l240 -110 q102 18 150 63t48 125q0 129 -174 209l-282 131q-203 -40 -203 -198z" />
<glyph unicode="&#xa8;" d="M242 1304.5q0 36.5 26.5 63.5t65.5 27q35 0 61.5 -27t26.5 -63.5t-26.5 -63.5t-63.5 -27t-63.5 27t-26.5 63.5zM602 1304.5q0 36.5 26.5 63.5t65.5 27q35 0 61.5 -27t26.5 -63.5t-26.5 -63.5t-63.5 -27t-63.5 27t-26.5 63.5z" />
<glyph unicode="&#xa9;" horiz-adv-x="1501" d="M39 682q0 299 210 507t513 208q287 0 494.5 -211t207.5 -504q0 -295 -208.5 -504t-503.5 -209q-293 0 -503 210t-210 503zM117 682q0 -266 186 -454.5t448.5 -188.5t448.5 189.5t186 455.5q0 262 -185 452.5t-441 190.5q-268 0 -455.5 -187.5t-187.5 -457.5zM369 688 q0 178 109.5 294t277.5 116q154 0 264 -117l-4 104h86q-4 -61 -4 -157q0 -68 2 -117h-82q-16 96 -85 148.5t-177 52.5q-129 0 -212 -90.5t-83 -229.5q0 -143 84 -229t221 -86q109 0 177.5 54t113.5 177l78 -51q-106 -268 -371 -268q-178 0 -286.5 109.5t-108.5 289.5z" />
<glyph unicode="&#xaa;" horiz-adv-x="681" d="M31 645v74h620v-74h-620zM70 983q0 76 58 126t148 50q61 0 158 -37l6 -4v56q0 59 -32.5 86.5t-102.5 27.5q-115 0 -149 -84l-84 25q66 135 233 135q113 0 172 -49q45 -39 45 -141v-285l90 2v-74q-41 2 -92 2h-41q-20 0 -39 -2v55q-88 -61 -176 -61q-84 0 -139 49t-55 123 zM158 981q0 -41 30.5 -68.5t77.5 -27.5q76 0 174 71v86q-94 41 -157 41q-57 0 -91 -27.5t-34 -74.5z" />
<glyph unicode="&#xab;" horiz-adv-x="1005" d="M82 524l340 461h151l-337 -461l337 -467h-151zM406 524l339 461h152l-338 -461l338 -467h-152z" />
<glyph unicode="&#xac;" d="M76 477v70h872v-547h-157v477h-715z" />
<glyph unicode="&#xad;" horiz-adv-x="419" d="M0 465v119h420v-119h-420z" />
<glyph unicode="&#xae;" horiz-adv-x="1501" d="M39 682q0 299 210 507t513 208q287 0 494.5 -211t207.5 -504q0 -295 -208.5 -504t-503.5 -209q-293 0 -503 210t-210 503zM117 682q0 -266 186 -454.5t448.5 -188.5t448.5 189.5t186 455.5q0 262 -185 452.5t-441 190.5q-268 0 -455.5 -187.5t-187.5 -457.5zM418 299v82 l102 -2v631l-102 -2v82q82 -2 112 -3h91h63q20 0 38.5 1.5t30.5 1.5h13q119 0 185.5 -52.5t66.5 -148.5q0 -76 -43 -130t-119 -71l143 -309l86 2v-82q-33 2 -51 2h-39q-25 0 -53 -2l-176 383h-158v-303l113 2v-82q-55 2 -109 2h-82q-28 0 -112 -2zM608 762q80 -2 137 -2 q180 0 181 125q0 74 -54 102q-41 20 -210 21h-54v-246z" />
<glyph unicode="&#xaf;" d="M240 1235v113h546v-113h-546z" />
<glyph unicode="&#xb0;" horiz-adv-x="819" d="M137 1116q0 113 81 191.5t198 78.5q109 0 188.5 -80.5t79.5 -191.5q0 -113 -80 -193.5t-192 -80.5q-115 0 -195 80.5t-80 195.5zM233 1114q0 -74 52.5 -126t126.5 -52q72 0 124 52t52 126q0 72 -52.5 124t-121.5 52q-76 0 -128.5 -51t-52.5 -125z" />
<glyph unicode="&#xb1;" d="M158 170v109h708v-109h-708zM158 717v108h297v285h114v-285h297v-108h-297v-279h-114v279h-297z" />
<glyph unicode="&#xb2;" horiz-adv-x="700" d="M61 545q4 139 81 246.5t249 218.5q70 45 95.5 76.5t25.5 76.5q0 59 -43 97t-109 38q-78 0 -121.5 -50t-43.5 -138v-31h-105q2 92 19 140q27 80 94 123.5t164 43.5q113 0 179 -59t66 -158q0 -100 -75 -174q-23 -20 -125 -88q-117 -78 -171.5 -140t-66.5 -134h346l-2 192 h90q-2 -49 -2 -120q0 -76 2 -160q-47 2 -125 2h-299q-72 0 -123 -2z" />
<glyph unicode="&#xb3;" horiz-adv-x="700" d="M41 823h104q6 -209 203 -209q88 0 140.5 44t52.5 118q0 72 -55.5 114t-149.5 42q-23 0 -66 -6v98q41 -6 56 -6q74 0 118.5 39t44.5 102q0 59 -39.5 96t-105.5 37q-70 0 -105.5 -39t-43.5 -123h-101q10 123 74.5 189.5t177.5 66.5q109 0 176.5 -61t67.5 -160 q0 -125 -117 -180q168 -47 168 -205q0 -113 -81 -183.5t-212 -70.5q-143 0 -225 80t-82 217z" />
<glyph unicode="&#xb4;" d="M418 1174l182 282h168l-233 -282h-117z" />
<glyph unicode="&#xb5;" horiz-adv-x="890" d="M-6 -289q0 35 14 115q55 332 55 762v348h115v-586q0 -102 12.5 -152.5t45.5 -86.5q53 -53 139 -54q82 0 145.5 41t126.5 135v703h115v-705q0 -90 16.5 -121.5t63.5 -31.5q29 0 63 26v-30l-143 -92q-2 -2 -8 -2q-39 4 -68 38q-23 31 -33 140q-121 -115 -185.5 -152 t-145.5 -37q-170 0 -226 185v-62q0 -96 21 -282q6 -47 6 -86q0 -106 -64 -107q-29 0 -47 26.5t-18 67.5z" />
<glyph unicode="&#xb6;" d="M47 1026q0 94 46 173t128 120q33 16 99.5 31.5t105.5 15.5h338q31 0 156 2v-98l-164 2v-1573l164 2v-98q-141 2 -164 2h-82v1667h-127v-1667h-82q-31 0 -164 -2v98l164 -2v993h-27q-180 0 -285.5 90t-105.5 244z" />
<glyph unicode="&#xb7;" horiz-adv-x="434" d="M143 383v231h148v-231h-148z" />
<glyph unicode="&#xb8;" d="M432 -102h162v-140q0 -162 -162 -209v89q78 35 78 116h-78v144z" />
<glyph unicode="&#xb9;" horiz-adv-x="700" d="M193 545v88l124 -2v651h-124v92q78 -4 118 -4q55 0 109 4v-743l125 2v-88q-55 2 -131 2h-90q-76 0 -131 -2z" />
<glyph unicode="&#xba;" horiz-adv-x="681" d="M31 645v74h620v-74h-620zM74 1083q0 125 74.5 203t195.5 78q117 0 191.5 -78t74.5 -200.5t-73.5 -197.5t-194.5 -75t-194.5 74.5t-73.5 195.5zM162 1081q0 -86 48 -137t128 -51q88 0 136 50t48 140q0 92 -47 146.5t-129 54.5q-88 0 -136 -53.5t-48 -149.5z" />
<glyph unicode="&#xbb;" horiz-adv-x="1005" d="M109 63l337 461l-337 467h151l340 -467l-340 -461h-151zM432 63l338 461l-338 467h152l340 -467l-340 -461h-152z" />
<glyph unicode="&#xbc;" horiz-adv-x="1630" d="M193 545v88l124 -2v651h-124v92q78 -4 118 -4q55 0 109 4v-743l125 2v-88q-55 2 -131 2h-90q-76 0 -131 -2zM326 29l923 1343l56 -37l-926 -1343zM973 309l383 522h86v-512h127v-86h-127v-149l88 2v-88q-43 2 -94 2h-90q-61 0 -107 -2v88l100 -2v149h-305zM1094 319h245 v349z" />
<glyph unicode="&#xbd;" horiz-adv-x="1630" d="M193 545v88l124 -2v651h-124v92q78 -4 118 -4q55 0 109 4v-743l125 2v-88q-55 2 -131 2h-90q-76 0 -131 -2zM326 29l923 1343l56 -37l-926 -1343zM991 -2q4 139 81 246.5t249 218.5q70 45 95.5 76.5t25.5 76.5q0 59 -43 97.5t-109 38.5q-78 0 -122 -50.5t-44 -138.5v-31 h-104q2 92 18 140q27 80 94.5 124t163.5 44q113 0 179.5 -59.5t66.5 -157.5q0 -100 -76 -174q-23 -20 -125 -89q-117 -78 -171 -140t-66 -134h346l-2 193h90q-2 -49 -2 -121q0 -76 2 -160q-47 2 -125 2h-299q-72 0 -123 -2z" />
<glyph unicode="&#xbe;" horiz-adv-x="1630" d="M41 823h104q6 -209 203 -209q88 0 140.5 44t52.5 118q0 72 -55.5 114t-149.5 42q-23 0 -66 -6v98q41 -6 56 -6q74 0 118.5 39t44.5 102q0 59 -39.5 96t-105.5 37q-70 0 -105.5 -39t-43.5 -123h-101q10 123 74.5 189.5t177.5 66.5q109 0 176.5 -61t67.5 -160 q0 -125 -117 -180q168 -47 168 -205q0 -113 -81 -183.5t-212 -70.5q-143 0 -225 80t-82 217zM326 29l923 1343l56 -37l-926 -1343zM973 309l383 522h86v-512h127v-86h-127v-149l88 2v-88q-43 2 -94 2h-90q-61 0 -107 -2v88l100 -2v149h-305zM1094 319h245v349z" />
<glyph unicode="&#xbf;" horiz-adv-x="735" d="M96 283q0 119 65.5 198.5t172.5 91.5v138h117q2 -131 26 -258q-41 12 -76 12q-84 0 -135 -49t-51 -131q0 -78 47 -128.5t121 -50.5q111 0 149 99q16 41 17 131h119q0 -92 -21 -162q-29 -88 -100.5 -139t-165.5 -51q-125 0 -205 83t-80 216zM319 805v233h148v-233h-148z " />
<glyph unicode="&#xc0;" horiz-adv-x="1333" d="M-6 -4v121l168 -4l391 1140l-168 -4v121q53 -4 137 -4h316q57 0 120 4v-121l-167 4l380 -1140l170 4v-121l-38 2q-43 2 -80 2h-203q-53 0 -152 -4v121l162 -4l-125 393h-477l-127 -393l164 4v-121l-45 2q-51 2 -98 2h-209q-37 0 -80 -2zM389 1729h176l178 -240h-129z M469 623h401l-196 626z" />
<glyph unicode="&#xc1;" horiz-adv-x="1333" d="M-6 -4v121l168 -4l391 1140l-168 -4v121q53 -4 137 -4h316q57 0 120 4v-121l-167 4l380 -1140l170 4v-121l-38 2q-43 2 -80 2h-203q-53 0 -152 -4v121l162 -4l-125 393h-477l-127 -393l164 4v-121l-45 2q-51 2 -98 2h-209q-37 0 -80 -2zM469 623h401l-196 626zM621 1489 l176 240h178l-225 -240h-129z" />
<glyph unicode="&#xc2;" horiz-adv-x="1333" d="M-6 -4v121l168 -4l391 1140l-168 -4v121q53 -4 137 -4h316q57 0 120 4v-121l-167 4l380 -1140l170 4v-121l-38 2q-43 2 -80 2h-203q-53 0 -152 -4v121l162 -4l-125 393h-477l-127 -393l164 4v-121l-45 2q-51 2 -98 2h-209q-37 0 -80 -2zM403 1489l209 240h146l209 -240 h-146l-135 153l-137 -153h-146zM469 623h401l-196 626z" />
<glyph unicode="&#xc3;" horiz-adv-x="1333" d="M-6 -4v121l168 -4l391 1140l-168 -4v121q53 -4 137 -4h316q57 0 120 4v-121l-167 4l380 -1140l170 4v-121l-38 2q-43 2 -80 2h-203q-53 0 -152 -4v121l162 -4l-125 393h-477l-127 -393l164 4v-121l-45 2q-51 2 -98 2h-209q-37 0 -80 -2zM395 1499q20 225 152 225 q53 0 145 -55q104 -61 131 -61q59 0 70 114h94q-6 -109 -45 -168t-102 -59q-33 0 -71 16.5t-148 81.5q-41 23 -68 23q-49 0 -61 -117h-97zM469 623h401l-196 626z" />
<glyph unicode="&#xc4;" horiz-adv-x="1333" d="M-6 -4v121l168 -4l391 1140l-168 -4v121q53 -4 137 -4h316q57 0 120 4v-121l-167 4l380 -1140l170 4v-121l-38 2q-43 2 -80 2h-203q-53 0 -152 -4v121l162 -4l-125 393h-477l-127 -393l164 4v-121l-45 2q-51 2 -98 2h-209q-37 0 -80 -2zM373 1610q0 41 28.5 68.5 t69.5 27.5q39 0 66.5 -28.5t27.5 -67.5q0 -41 -28.5 -69t-67.5 -28t-67.5 28t-28.5 69zM469 623h401l-196 626zM764 1610q0 41 28.5 68.5t69.5 27.5q39 0 66.5 -28.5t27.5 -67.5q0 -41 -27.5 -69t-68.5 -28t-68.5 28t-27.5 69z" />
<glyph unicode="&#xc5;" horiz-adv-x="1333" d="M-6 -4v121l168 -4l391 1140l-168 -4v121q53 -4 137 -4h316q57 0 120 4v-121l-167 4l380 -1140l170 4v-121l-38 2q-43 2 -80 2h-203q-53 0 -152 -4v121l162 -4l-125 393h-477l-127 -393l164 4v-121l-45 2q-51 2 -98 2h-209q-37 0 -80 -2zM469 623h401l-196 626zM504 1616 q0 70 52 121t124 51q70 0 121 -51t51 -123t-51 -123t-123 -51t-123 51t-51 125zM596 1614q0 -33 23.5 -57.5t58.5 -24.5t58.5 24.5t23.5 57.5t-23.5 56.5t-56.5 23.5q-35 0 -59.5 -23.5t-24.5 -56.5z" />
<glyph unicode="&#xc6;" horiz-adv-x="2015" d="M-6 -4v117l139 -2l639 1142l-172 -4v121q76 -4 221 -4h848q139 0 229 4q-2 -66 -2 -217q0 -150 2 -213h-120l2 309h-660v-493h551v-117h-551v-522h662l-4 329h123q-2 -55 -3 -239q0 -154 3 -211q-61 4 -185 4h-792q-55 0 -174 -4v117l241 -4v530h-420l-295 -530l170 4 v-117q-61 4 -172 4h-192q-61 0 -88 -4zM633 756h358v493h-84z" />
<glyph unicode="&#xc7;" horiz-adv-x="1480" d="M96 674q0 311 185.5 513t470.5 202q307 0 467 -238l-7 215h125q-8 -131 -8 -266q0 -121 4 -197h-121q-27 164 -135 252q-129 104 -323 105q-229 0 -375 -163t-146 -419t147.5 -412.5t389.5 -156.5q186 0 308 96t200 307l113 -74q-180 -459 -627 -458q-303 0 -485.5 189.5 t-182.5 504.5zM680 -109h174v-135q0 -82 -41 -133t-133 -84v90q88 33 84 113h-84v149z" />
<glyph unicode="&#xc8;" horiz-adv-x="1286" d="M76 -4v121l178 -4v1140l-178 -4v121q119 -4 176 -4h727q125 0 186 4q-2 -96 -2 -215q0 -109 2 -186h-125l2 280h-659v-493h543v-117h-543v-522h668l-4 291h120q-2 -47 -2 -193q0 -170 2 -219q-86 4 -131 4h-784q-55 0 -176 -4zM403 1729h177l178 -240h-129z" />
<glyph unicode="&#xc9;" horiz-adv-x="1286" d="M76 -4v121l178 -4v1140l-178 -4v121q119 -4 176 -4h727q125 0 186 4q-2 -96 -2 -215q0 -109 2 -186h-125l2 280h-659v-493h543v-117h-543v-522h668l-4 291h120q-2 -47 -2 -193q0 -170 2 -219q-86 4 -131 4h-784q-55 0 -176 -4zM602 1489l176 240h178l-225 -240h-129z" />
<glyph unicode="&#xca;" horiz-adv-x="1286" d="M76 -4v121l178 -4v1140l-178 -4v121q119 -4 176 -4h727q125 0 186 4q-2 -96 -2 -215q0 -109 2 -186h-125l2 280h-659v-493h543v-117h-543v-522h668l-4 291h120q-2 -47 -2 -193q0 -170 2 -219q-86 4 -131 4h-784q-55 0 -176 -4zM401 1489l209 240h146l209 -240h-146 l-135 153l-137 -153h-146z" />
<glyph unicode="&#xcb;" horiz-adv-x="1286" d="M76 -4v121l178 -4v1140l-178 -4v121q119 -4 176 -4h727q125 0 186 4q-2 -96 -2 -215q0 -109 2 -186h-125l2 280h-659v-493h543v-117h-543v-522h668l-4 291h120q-2 -47 -2 -193q0 -170 2 -219q-86 4 -131 4h-784q-55 0 -176 -4zM381 1610q0 41 28.5 68.5t69.5 27.5 q39 0 66.5 -28.5t27.5 -67.5q0 -41 -28.5 -69t-67.5 -28t-67.5 28t-28.5 69zM772 1610q0 41 28.5 68.5t69.5 27.5q39 0 67 -28.5t28 -67.5q0 -41 -28 -69t-69 -28t-68.5 28t-27.5 69z" />
<glyph unicode="&#xcc;" horiz-adv-x="636" d="M33 1729h176l178 -240h-129zM76 -4v121l178 -4v1140l-178 -4v121q139 -4 184 -4h121q57 0 180 4v-121l-178 4v-1140l178 4v-121q-121 4 -180 4h-123q-49 0 -182 -4z" />
<glyph unicode="&#xcd;" horiz-adv-x="636" d="M76 -4v121l178 -4v1140l-178 -4v121q139 -4 184 -4h121q57 0 180 4v-121l-178 4v-1140l178 4v-121q-121 4 -180 4h-123q-49 0 -182 -4zM264 1489l176 240h178l-225 -240h-129z" />
<glyph unicode="&#xce;" horiz-adv-x="636" d="M57 1489l195 240h145l197 -240h-145l-123 153l-123 -153h-146zM76 -4v121l178 -4v1140l-178 -4v121q139 -4 184 -4h121q57 0 180 4v-121l-178 4v-1140l178 4v-121q-121 4 -180 4h-123q-49 0 -182 -4z" />
<glyph unicode="&#xcf;" horiz-adv-x="636" d="M76 -4v121l178 -4v1140l-178 -4v121q139 -4 184 -4h121q57 0 180 4v-121l-178 4v-1140l178 4v-121q-121 4 -180 4h-123q-49 0 -182 -4zM76 1610q0 41 29.5 70.5t72.5 29.5q41 0 69.5 -29.5t28.5 -70.5t-29.5 -71t-70.5 -30t-70.5 30t-29.5 71zM373 1608q0 41 29.5 70.5 t72.5 29.5q41 0 69.5 -29.5t28.5 -70.5t-29.5 -71t-70.5 -30t-70.5 30t-29.5 71z" />
<glyph unicode="&#xd0;" horiz-adv-x="1427" d="M76 -4v121l178 -4v553h-164v116h164v471l-178 -4v121q113 -4 174 -4h168l192 2q279 2 447 -106q274 -180 274 -580q0 -238 -98 -402.5t-279 -234.5q-78 -29 -172 -37t-379 -8h-153q-57 0 -174 -4zM383 117h94q223 0 313.5 13t172.5 58q111 63 171 189.5t60 294.5 q0 215 -92 360.5t-260 192.5q-109 29 -330 28q-14 0 -129 -4v-467h354v-116h-354v-549z" />
<glyph unicode="&#xd1;" horiz-adv-x="1509" d="M76 -4v121l178 -4v1140l-178 -4v121q150 -4 190 -4h70q18 0 82 4l721 -1182v1065l-178 -4v121q127 -4 180 -4h114q43 0 191 4v-121l-178 4v-1263h-144l-741 1196v-1073l178 4v-121q-119 4 -178 4h-129q-39 0 -178 -4zM492 1499q20 225 151 225q53 0 145 -55 q104 -61 132 -61q59 0 69 114h94q-6 -109 -45 -168t-102 -59q-33 0 -71 16.5t-148 81.5q-41 23 -68 23q-49 0 -61 -117h-96z" />
<glyph unicode="&#xd2;" horiz-adv-x="1533" d="M96 684q0 379 266 573q178 129 414 129t410 -137q252 -201 252 -569q0 -340 -232 -541q-182 -160 -444 -159q-291 0 -478.5 197.5t-187.5 506.5zM233 682q0 -254 151 -413.5t388 -159.5q233 0 380.5 160.5t147.5 414.5q0 256 -145 414.5t-381 158.5q-244 0 -392.5 -157.5 t-148.5 -417.5zM481 1729h176l179 -240h-129z" />
<glyph unicode="&#xd3;" horiz-adv-x="1533" d="M96 684q0 379 266 573q178 129 414 129t410 -137q252 -201 252 -569q0 -340 -232 -541q-182 -160 -444 -159q-291 0 -478.5 197.5t-187.5 506.5zM233 682q0 -254 151 -413.5t388 -159.5q233 0 380.5 160.5t147.5 414.5q0 256 -145 414.5t-381 158.5q-244 0 -392.5 -157.5 t-148.5 -417.5zM713 1489l176 240h178l-225 -240h-129z" />
<glyph unicode="&#xd4;" horiz-adv-x="1533" d="M96 684q0 379 266 573q178 129 414 129t410 -137q252 -201 252 -569q0 -340 -232 -541q-182 -160 -444 -159q-291 0 -478.5 197.5t-187.5 506.5zM233 682q0 -254 151 -413.5t388 -159.5q233 0 380.5 160.5t147.5 414.5q0 256 -145 414.5t-381 158.5q-244 0 -392.5 -157.5 t-148.5 -417.5zM492 1489l208 240h146l209 -240h-146l-135 153l-137 -153h-145z" />
<glyph unicode="&#xd5;" horiz-adv-x="1533" d="M96 684q0 379 266 573q178 129 414 129t410 -137q252 -201 252 -569q0 -340 -232 -541q-182 -160 -444 -159q-291 0 -478.5 197.5t-187.5 506.5zM233 682q0 -254 151 -413.5t388 -159.5q233 0 380.5 160.5t147.5 414.5q0 256 -145 414.5t-381 158.5q-244 0 -392.5 -157.5 t-148.5 -417.5zM504 1499q20 225 151 225q53 0 146 -55q104 -61 131 -61q59 0 69 114h95q-6 -109 -45 -168t-103 -59q-33 0 -70.5 16.5t-148.5 81.5q-41 23 -67 23q-49 0 -62 -117h-96z" />
<glyph unicode="&#xd6;" horiz-adv-x="1533" d="M96 684q0 379 266 573q178 129 414 129t410 -137q252 -201 252 -569q0 -340 -232 -541q-182 -160 -444 -159q-291 0 -478.5 197.5t-187.5 506.5zM233 682q0 -254 151 -413.5t388 -159.5q233 0 380.5 160.5t147.5 414.5q0 256 -145 414.5t-381 158.5q-244 0 -392.5 -157.5 t-148.5 -417.5zM481 1610q0 41 29 68.5t70 27.5q39 0 66.5 -28.5t27.5 -67.5q0 -41 -28 -69t-68.5 -28t-68.5 28t-28 69zM872 1610q0 41 29 68.5t70 27.5q39 0 66.5 -28.5t27.5 -67.5q0 -41 -28.5 -69t-67.5 -28t-68 28t-29 69z" />
<glyph unicode="&#xd7;" d="M176 428l254 254l-254 256l80 80l256 -254l254 254l80 -80l-254 -256l254 -254l-80 -80l-254 254l-256 -254z" />
<glyph unicode="&#xd8;" horiz-adv-x="1533" d="M96 690q0 362 264 563q172 133 410 133q258 0 424 -147l139 150l86 -74l-143 -158q162 -162 162 -477q0 -309 -191.5 -504.5t-490.5 -195.5q-229 0 -416 145l-129 -143l-80 73l131 146q-166 190 -166 489zM233 678q0 -221 121 -377l758 842q-139 115 -346 114 q-238 0 -385.5 -160.5t-147.5 -418.5zM430 223q156 -115 342 -114q231 0 379.5 159.5t148.5 409.5q0 221 -114 381z" />
<glyph unicode="&#xd9;" horiz-adv-x="1374" d="M55 1249v121q121 -4 178 -4h125q55 0 174 4v-121l-170 4v-829q0 -315 320 -315q188 0 272 112q35 47 46.5 105.5t11.5 177.5v749l-172 -4v121q109 -4 172 -4h125q47 0 182 4v-121l-178 4v-757q0 -158 -24.5 -241t-90.5 -149q-127 -127 -344 -126q-211 0 -330 107.5 t-119 297.5v868zM414 1729h176l178 -240h-129z" />
<glyph unicode="&#xda;" horiz-adv-x="1374" d="M55 1249v121q121 -4 178 -4h125q55 0 174 4v-121l-170 4v-829q0 -315 320 -315q188 0 272 112q35 47 46.5 105.5t11.5 177.5v749l-172 -4v121q109 -4 172 -4h125q47 0 182 4v-121l-178 4v-757q0 -158 -24.5 -241t-90.5 -149q-127 -127 -344 -126q-211 0 -330 107.5 t-119 297.5v868zM639 1489l176 240h178l-225 -240h-129z" />
<glyph unicode="&#xdb;" horiz-adv-x="1374" d="M55 1249v121q121 -4 178 -4h125q55 0 174 4v-121l-170 4v-829q0 -315 320 -315q188 0 272 112q35 47 46.5 105.5t11.5 177.5v749l-172 -4v121q109 -4 172 -4h125q47 0 182 4v-121l-178 4v-757q0 -158 -24.5 -241t-90.5 -149q-127 -127 -344 -126q-211 0 -330 107.5 t-119 297.5v868zM418 1489l209 240h145l209 -240h-145l-136 153l-137 -153h-145z" />
<glyph unicode="&#xdc;" horiz-adv-x="1374" d="M55 1249v121q121 -4 178 -4h125q55 0 174 4v-121l-170 4v-829q0 -315 320 -315q188 0 272 112q35 47 46.5 105.5t11.5 177.5v749l-172 -4v121q109 -4 172 -4h125q47 0 182 4v-121l-178 4v-757q0 -158 -24.5 -241t-90.5 -149q-127 -127 -344 -126q-211 0 -330 107.5 t-119 297.5v868zM401 1610q0 41 29 68.5t70 27.5q39 0 66.5 -28.5t27.5 -67.5q0 -41 -28.5 -69t-67.5 -28t-68 28t-29 69zM793 1610q0 41 28.5 68.5t69.5 27.5q39 0 66.5 -28.5t27.5 -67.5q0 -41 -27.5 -69t-68.5 -28t-68.5 28t-27.5 69z" />
<glyph unicode="&#xdd;" horiz-adv-x="1245" d="M-6 1249v121l35 -2q39 -2 77 -2h230q102 0 168 4v-121l-172 4l303 -508l303 508l-168 -4v121q66 -4 172 -4h215q45 0 103 4v-121l-175 4l-391 -643v-497l193 4v-121q-84 4 -174 4h-164q-53 0 -174 -4v121l190 -4v497l-397 643zM584 1489l176 240h178l-225 -240h-129z" />
<glyph unicode="&#xde;" horiz-adv-x="1165" d="M76 -4v121l178 -4v1140l-178 -4v121q127 -4 180 -4h131q43 0 174 4v-121l-178 4v-106q289 0 375 -8q154 -16 249 -127t95 -273q0 -100 -40 -190t-106 -139q-63 -47 -141 -61.5t-248 -16.5l-184 -2v-217l180 4v-121q-115 4 -174 4h-133q-51 0 -180 -4zM383 446 q100 -2 178 -2q115 0 172.5 10.5t108.5 39.5q55 33 89 99t34 144q0 168 -121 244q-57 35 -158 45q-57 4 -248 4q-31 0 -55 2v-586z" />
<glyph unicode="&#xdf;" horiz-adv-x="1867" d="M115 383h121q0 -104 6 -136t34 -63q76 -86 218 -86q92 0 149 50.5t57 132.5q0 74 -51 116.5t-182 81.5q-174 49 -234 88q-119 70 -118 211q0 121 90 199t227 78q152 0 236 -97l-2 80h122q-6 -88 -6 -141q0 -61 6 -190h-120q0 86 -15 118q-23 49 -83 81t-132 32 q-86 0 -140 -45t-54 -117q0 -76 80 -119q47 -25 174 -61q178 -51 254.5 -123t76.5 -186q0 -133 -95 -219t-242 -86q-170 0 -256 104l2 -86h-119q4 57 4 127q0 147 -8 256zM1049 383h120q0 -102 7.5 -135t35.5 -64q76 -86 215 -86q92 0 149.5 50.5t57.5 132.5q0 74 -51 116.5 t-182 81.5q-174 49 -234 88q-119 70 -118 211q0 121 90 199t227 78q152 0 236 -97v80h120q-6 -88 -6 -141q0 -57 6 -190h-120v22q0 57 -10.5 86t-39.5 55q-72 68 -180 68q-86 0 -140 -45t-54 -117q0 -76 79 -119q47 -25 175 -61q178 -51 254.5 -123t76.5 -186 q0 -133 -95 -219t-243 -86q-170 0 -256 104l2 -86h-118q4 57 4 127q0 135 -8 256z" />
<glyph unicode="&#xe0;" horiz-adv-x="1079" d="M-6 -2v108l149 -4l279 834l-137 -4v108q90 -2 135 -2h258q23 0 125 2v-108l-139 4l272 -834l151 4v-108q-100 2 -122 2h-150q-53 0 -147 -2v108l135 -4l-84 273h-359l-86 -273l138 4v-108q-102 2 -140 2h-155q-27 0 -123 -2zM256 1456h168l182 -282h-117zM397 481h289 l-141 457z" />
<glyph unicode="&#xe1;" horiz-adv-x="1079" d="M-6 -2v108l149 -4l279 834l-137 -4v108q90 -2 135 -2h258q23 0 125 2v-108l-139 4l272 -834l151 4v-108q-100 2 -122 2h-150q-53 0 -147 -2v108l135 -4l-84 273h-359l-86 -273l138 4v-108q-102 2 -140 2h-155q-27 0 -123 -2zM397 481h289l-141 457zM496 1174l182 282h168 l-234 -282h-116z" />
<glyph unicode="&#xe2;" horiz-adv-x="1079" d="M-6 -2v108l149 -4l279 834l-137 -4v108q90 -2 135 -2h258q23 0 125 2v-108l-139 4l272 -834l151 4v-108q-100 2 -122 2h-150q-53 0 -147 -2v108l135 -4l-84 273h-359l-86 -273l138 4v-108q-102 2 -140 2h-155q-27 0 -123 -2zM283 1174l211 286h108l211 -286h-127 l-139 176l-137 -176h-127zM397 481h289l-141 457z" />
<glyph unicode="&#xe3;" horiz-adv-x="1079" d="M-6 -2v108l149 -4l279 834l-137 -4v108q90 -2 135 -2h258q23 0 125 2v-108l-139 4l272 -834l151 4v-108q-100 2 -122 2h-150q-53 0 -147 -2v108l135 -4l-84 273h-359l-86 -273l138 4v-108q-102 2 -140 2h-155q-27 0 -123 -2zM289 1194q8 98 28 145q35 80 111 80 q45 0 133 -55q96 -61 121 -61q55 0 61 114h88q-6 -86 -22 -131q-35 -94 -113 -94q-45 0 -139 57q-102 61 -123 62q-47 0 -55 -94l-2 -23h-88zM397 481h289l-141 457z" />
<glyph unicode="&#xe4;" horiz-adv-x="1079" d="M-6 -2v108l149 -4l279 834l-137 -4v108q90 -2 135 -2h258q23 0 125 2v-108l-139 4l272 -834l151 4v-108q-100 2 -122 2h-150q-53 0 -147 -2v108l135 -4l-84 273h-359l-86 -273l138 4v-108q-102 2 -140 2h-155q-27 0 -123 -2zM270 1304.5q0 36.5 27 63.5t65 27 q35 0 62 -27t27 -63.5t-27 -63.5t-63.5 -27t-63.5 27t-27 63.5zM397 481h289l-141 457zM631 1304.5q0 36.5 26.5 63.5t65.5 27q35 0 61.5 -27t26.5 -63.5t-26.5 -63.5t-63.5 -27t-63.5 27t-26.5 63.5z" />
<glyph unicode="&#xe5;" horiz-adv-x="1079" d="M-6 -2v108l149 -4l279 834l-137 -4v108q90 -2 135 -2h258q23 0 125 2v-108l-139 4l272 -834l151 4v-108q-100 2 -122 2h-150q-53 0 -147 -2v108l135 -4l-84 273h-359l-86 -273l138 4v-108q-102 2 -140 2h-155q-27 0 -123 -2zM377 1319q0 70 50 119t122 49q70 0 119 -50.5 t49 -119.5q0 -72 -49.5 -121t-121 -49t-120.5 50t-49 122zM397 481h289l-141 457zM465 1317q0 -35 23.5 -58.5t58.5 -23.5t58.5 23.5t23.5 58.5q0 33 -23.5 56.5t-56.5 23.5q-35 0 -59.5 -23.5t-24.5 -56.5z" />
<glyph unicode="&#xe6;" horiz-adv-x="1570" d="M-14 -2v108l108 -4l457 834l-117 -4v108q74 -2 176 -2h690q96 0 152 4q-2 -98 -2 -170q0 -70 2 -153h-121l2 213h-473v-348h408v-107h-408v-371h479l-2 222h117q-2 -47 -2 -158q0 -123 2 -174q-63 4 -111 4h-610q-43 0 -153 -2v108l157 -4v375h-303l-203 -375l117 4v-108 q-63 2 -141 2h-144q-36 0 -77 -2zM494 584h243v348h-53z" />
<glyph unicode="&#xe7;" horiz-adv-x="1198" d="M96 512q0 238 145.5 390.5t372.5 152.5q233 0 338 -160l-4 141h123q-8 -115 -8 -209q0 -92 4 -159h-115q-18 125 -100 188q-96 76 -242 76q-170 0 -277.5 -117t-107.5 -299q0 -184 109.5 -297t288.5 -113q143 0 232 72t151 236l104 -72q-45 -143 -168 -246 q-133 -113 -324 -112q-236 0 -379 145t-143 383zM537 -102h161v-140q0 -162 -161 -209v89q78 35 77 116h-77v144z" />
<glyph unicode="&#xe8;" horiz-adv-x="1079" d="M76 -2v108l157 -4v834l-157 -4v108q109 -2 153 -2h582q96 0 152 4q-2 -98 -2 -170q0 -70 2 -153h-121l2 213h-488v-348h422v-107h-422v-371h494l-2 222h117q-2 -47 -2 -158q0 -123 2 -174q-63 4 -111 4h-625q-42 0 -153 -2zM283 1456h168l182 -282h-117z" />
<glyph unicode="&#xe9;" horiz-adv-x="1079" d="M76 -2v108l157 -4v834l-157 -4v108q109 -2 153 -2h582q96 0 152 4q-2 -98 -2 -170q0 -70 2 -153h-121l2 213h-488v-348h422v-107h-422v-371h494l-2 222h117q-2 -47 -2 -158q0 -123 2 -174q-63 4 -111 4h-625q-42 0 -153 -2zM502 1174l182 282h168l-234 -282h-116z" />
<glyph unicode="&#xea;" horiz-adv-x="1079" d="M76 -2v108l157 -4v834l-157 -4v108q109 -2 153 -2h582q96 0 152 4q-2 -98 -2 -170q0 -70 2 -153h-121l2 213h-488v-348h422v-107h-422v-371h494l-2 222h117q-2 -47 -2 -158q0 -123 2 -174q-63 4 -111 4h-625q-42 0 -153 -2zM303 1174l211 286h109l211 -286h-127l-140 176 l-137 -176h-127z" />
<glyph unicode="&#xeb;" horiz-adv-x="1079" d="M76 -2v108l157 -4v834l-157 -4v108q109 -2 153 -2h582q96 0 152 4q-2 -98 -2 -170q0 -70 2 -153h-121l2 213h-488v-348h422v-107h-422v-371h494l-2 222h117q-2 -47 -2 -158q0 -123 2 -174q-63 4 -111 4h-625q-42 0 -153 -2zM291 1304.5q0 36.5 26.5 63.5t65.5 27 q35 0 61.5 -27t26.5 -63.5t-26.5 -63.5t-63.5 -27t-63.5 27t-26.5 63.5zM651 1304.5q0 36.5 27 63.5t65 27q35 0 61.5 -27t26.5 -63.5t-26.5 -63.5t-63 -27t-63.5 27t-27 63.5z" />
<glyph unicode="&#xec;" horiz-adv-x="587" d="M2 1456h168l182 -282h-116zM76 -2v108l157 -4v834l-157 -4v108q109 -2 153 -2h123q57 0 160 2v-108l-156 4v-834l156 4v-108q-100 2 -160 2h-123q-42 0 -153 -2z" />
<glyph unicode="&#xed;" horiz-adv-x="587" d="M76 -2v108l157 -4v834l-157 -4v108q109 -2 153 -2h123q57 0 160 2v-108l-156 4v-834l156 4v-108q-100 2 -160 2h-123q-42 0 -153 -2zM250 1174l182 282h168l-233 -282h-117z" />
<glyph unicode="&#xee;" horiz-adv-x="587" d="M55 1174l191 286h108l191 -286h-127l-119 176l-117 -176h-127zM74 -2v108l157 -4v834l-157 -4v108q109 -2 153 -2h123q57 0 162 2v-108l-158 4v-834l158 4v-108q-100 2 -162 2h-123q-42 0 -153 -2z" />
<glyph unicode="&#xef;" horiz-adv-x="587" d="M76 -2v108l157 -4v834l-157 -4v108q109 -2 153 -2h123q57 0 160 2v-108l-156 4v-834l156 4v-108q-100 2 -160 2h-123q-42 0 -153 -2zM86 1304.5q0 36.5 26.5 63.5t65.5 27q35 0 61.5 -27t26.5 -63.5t-26.5 -63.5t-63.5 -27t-63.5 27t-26.5 63.5zM334 1304.5 q0 36.5 26.5 63.5t65.5 27q35 0 61.5 -27t26.5 -63.5t-26.5 -63.5t-63.5 -27t-63.5 27t-26.5 63.5z" />
<glyph unicode="&#xf0;" horiz-adv-x="1179" d="M76 -2v108l157 -4v396h-151v102h151v336l-157 -4v108q106 -2 153 -2h140l155 2q217 2 348 -82q213 -137 213 -444q0 -176 -76.5 -302t-217.5 -177q-59 -23 -132 -29t-301 -6h-129q-44 0 -153 -2zM356 106h115q133 0 196.5 10.5t120.5 43.5q168 94 168 350q0 246 -153 354 q-98 68 -293 68h-154v-332h287v-102h-287v-392z" />
<glyph unicode="&#xf1;" horiz-adv-x="1255" d="M76 -2v108l157 -4v834l-157 -4v108q109 -2 153 -2h95q20 0 65 4l526 -868v762l-157 -4v108q109 -2 153 -2h123q57 0 160 2v-108l-156 4v-944h-143l-539 880v-770l156 4v-108q-100 2 -160 2h-123q-42 0 -153 -2zM391 1194q8 98 29 145q35 80 110 80q45 0 134 -55 q96 -61 120 -61q55 0 62 114h88q-6 -86 -23 -131q-35 -94 -112 -94q-45 0 -140 57q-102 61 -122 62q-47 0 -56 -94l-2 -23h-88z" />
<glyph unicode="&#xf2;" horiz-adv-x="1236" d="M96 520q0 238 147.5 386.5t383.5 148.5q227 0 371.5 -150.5t144.5 -386t-147.5 -385t-379.5 -149.5q-227 0 -373.5 150t-146.5 386zM225 520q0 -182 110.5 -298t287.5 -116q174 0 282.5 116t108.5 298q0 184 -107.5 298t-281.5 114q-180 0 -290 -113t-110 -299zM342 1456 h168l182 -282h-117z" />
<glyph unicode="&#xf3;" horiz-adv-x="1236" d="M96 520q0 238 147.5 386.5t383.5 148.5q227 0 371.5 -150.5t144.5 -386t-147.5 -385t-379.5 -149.5q-227 0 -373.5 150t-146.5 386zM225 520q0 -182 110.5 -298t287.5 -116q174 0 282.5 116t108.5 298q0 184 -107.5 298t-281.5 114q-180 0 -290 -113t-110 -299zM575 1174 l183 282h168l-234 -282h-117z" />
<glyph unicode="&#xf4;" horiz-adv-x="1236" d="M96 520q0 238 147.5 386.5t383.5 148.5q227 0 371.5 -150.5t144.5 -386t-147.5 -385t-379.5 -149.5q-227 0 -373.5 150t-146.5 386zM225 520q0 -182 110.5 -298t287.5 -116q174 0 282.5 116t108.5 298q0 184 -107.5 298t-281.5 114q-180 0 -290 -113t-110 -299zM360 1174 l211 286h109l211 -286h-127l-139 176l-138 -176h-127z" />
<glyph unicode="&#xf5;" horiz-adv-x="1236" d="M96 520q0 238 147.5 386.5t383.5 148.5q227 0 371.5 -150.5t144.5 -386t-147.5 -385t-379.5 -149.5q-227 0 -373.5 150t-146.5 386zM225 520q0 -182 110.5 -298t287.5 -116q174 0 282.5 116t108.5 298q0 184 -107.5 298t-281.5 114q-180 0 -290 -113t-110 -299zM375 1194 q8 98 28 145q35 80 111 80q45 0 133 -55q96 -61 121 -61q55 0 61 114h89q-6 -86 -23 -131q-35 -94 -113 -94q-45 0 -139 57q-102 61 -123 62q-47 0 -55 -94l-2 -23h-88z" />
<glyph unicode="&#xf6;" horiz-adv-x="1236" d="M96 520q0 238 147.5 386.5t383.5 148.5q227 0 371.5 -150.5t144.5 -386t-147.5 -385t-379.5 -149.5q-227 0 -373.5 150t-146.5 386zM225 520q0 -182 110.5 -298t287.5 -116q174 0 282.5 116t108.5 298q0 184 -107.5 298t-281.5 114q-180 0 -290 -113t-110 -299z M356 1304.5q0 36.5 27 63.5t66 27q35 0 61.5 -27t26.5 -63.5t-27 -63.5t-63.5 -27t-63.5 27t-27 63.5zM717 1304.5q0 36.5 26.5 63.5t65.5 27q35 0 61.5 -27t26.5 -63.5t-26.5 -63.5t-63.5 -27t-63.5 27t-26.5 63.5z" />
<glyph unicode="&#xf7;" d="M158 629v108h708v-108h-708zM436 372.5q0 30.5 22.5 53.5t53.5 23t53.5 -23t22.5 -53.5t-22.5 -53t-53.5 -22.5t-53.5 22.5t-22.5 53zM436 991.5q0 30.5 22.5 53t53.5 22.5t53.5 -22.5t22.5 -53t-22.5 -53.5t-53.5 -23t-53.5 23t-22.5 53.5z" />
<glyph unicode="&#xf8;" horiz-adv-x="1236" d="M96 524q0 233 147.5 382t379.5 149q178 0 319 -103l98 107l74 -64l-100 -110q129 -152 129 -367q0 -236 -147.5 -385t-379.5 -149q-178 0 -323 104l-100 -113l-70 66l102 113q-129 153 -129 370zM225 520q0 -143 84 -270l553 608q-109 74 -244 74q-174 0 -283.5 -115 t-109.5 -297zM379 182q111 -76 244 -76q172 0 281.5 116t109.5 296q0 160 -84 275z" />
<glyph unicode="&#xf9;" horiz-adv-x="1150" d="M55 932v108q109 -2 154 -2h123q57 0 160 2v-108l-156 4v-608q0 -221 235 -222q135 0 201 78q27 33 35 74t8 129v549l-158 -4v108q109 -2 154 -2h123q57 0 162 2v-108l-158 4v-555q0 -123 -19.5 -185.5t-72.5 -113.5q-104 -98 -275 -98q-168 0 -263 84t-95 231v637z M303 1456h168l182 -282h-116z" />
<glyph unicode="&#xfa;" horiz-adv-x="1150" d="M55 932v108q109 -2 154 -2h123q57 0 160 2v-108l-156 4v-608q0 -221 235 -222q135 0 201 78q27 33 35 74t8 129v549l-158 -4v108q109 -2 154 -2h123q57 0 162 2v-108l-158 4v-555q0 -123 -19.5 -185.5t-72.5 -113.5q-104 -98 -275 -98q-168 0 -263 84t-95 231v637z M524 1174l183 282h167l-233 -282h-117z" />
<glyph unicode="&#xfb;" horiz-adv-x="1150" d="M55 932v108q109 -2 154 -2h123q57 0 160 2v-108l-156 4v-608q0 -221 235 -222q135 0 201 78q27 33 35 74t8 129v549l-158 -4v108q109 -2 154 -2h123q57 0 162 2v-108l-158 4v-555q0 -123 -19.5 -185.5t-72.5 -113.5q-104 -98 -275 -98q-168 0 -263 84t-95 231v637z M324 1174l211 286h108l211 -286h-127l-139 176l-137 -176h-127z" />
<glyph unicode="&#xfc;" horiz-adv-x="1150" d="M55 932v108q109 -2 154 -2h123q57 0 160 2v-108l-156 4v-608q0 -221 235 -222q135 0 201 78q27 33 35 74t8 129v549l-158 -4v108q109 -2 154 -2h123q57 0 162 2v-108l-158 4v-555q0 -123 -19.5 -185.5t-72.5 -113.5q-104 -98 -275 -98q-168 0 -263 84t-95 231v637z M311 1304.5q0 36.5 27 63.5t65 27q35 0 62 -27t27 -63.5t-27 -63.5t-63.5 -27t-63.5 27t-27 63.5zM672 1304.5q0 36.5 26.5 63.5t65.5 27q35 0 61.5 -27t26.5 -63.5t-26.5 -63.5t-63.5 -27t-63.5 27t-26.5 63.5z" />
<glyph unicode="&#xfd;" horiz-adv-x="1017" d="M-6 932v108q92 -2 117 -2h170q61 0 157 2v-108l-137 4l217 -358l213 358l-135 -4v108q68 -2 162 -2h157q2 0 21.5 1t36.5 1h53v-108l-156 4l-299 -479v-355l158 4v-108q-100 2 -162 2h-123q-43 0 -153 -2v108l158 -4v363l-299 471zM471 1174l182 282h168l-233 -282h-117z " />
<glyph unicode="&#xfe;" horiz-adv-x="976" d="M76 -2v108l157 -4v834l-157 -4v108q109 -2 153 -2h123q57 0 160 2v-108l-156 4v-96q227 0 283 -6q121 -12 198.5 -98.5t77.5 -211.5q0 -78 -31.5 -147.5t-84.5 -108.5q-51 -35 -111.5 -48t-181.5 -13h-150v-105l156 4v-108q-100 2 -160 2h-123q-42 0 -153 -2zM356 313 h121q160 0 221 35q88 51 88 174q0 119 -88 174q-55 37 -233 37h-109v-420z" />
<glyph unicode="&#xff;" horiz-adv-x="1017" d="M-6 932v108q92 -2 117 -2h170q61 0 157 2v-108l-137 4l217 -358l213 358l-135 -4v108q68 -2 162 -2h157q2 0 21.5 1t36.5 1h53v-108l-156 4l-299 -479v-355l158 4v-108q-100 2 -162 2h-123q-43 0 -153 -2v108l158 -4v363l-299 471zM254 1304.5q0 36.5 26.5 63.5t65.5 27 q35 0 61.5 -27t26.5 -63.5t-26.5 -63.5t-63.5 -27t-63.5 27t-26.5 63.5zM614 1304.5q0 36.5 27 63.5t66 27q35 0 61.5 -27t26.5 -63.5t-27 -63.5t-63.5 -27t-63.5 27t-27 63.5z" />
<glyph unicode="&#x152;" horiz-adv-x="2045" d="M96 670q0 326 191 520q182 186 514 180l297 -4h669q88 0 162 4q-4 -70 -4 -213t4 -217h-123l2 309h-675v-491h546v-117h-546v-524h675l-2 321h123q-4 -164 -4 -215q0 -47 4 -227q-59 4 -157 4h-719l-217 -4q-287 -6 -476 119q-127 82 -195.5 226.5t-68.5 328.5zM233 676 q0 -168 73 -300t198 -192q86 -41 171 -54t277 -13h52v1132q-276 -2 -349 -12q-244 -35 -352 -258q-70 -143 -70 -303z" />
<glyph unicode="&#x153;" horiz-adv-x="1628" d="M96 510q0 248 148 395q72 74 170 105.5t254 29.5l198 -2h494q98 0 151 2q-2 -94 -2 -168q0 -70 2 -153h-120l2 213h-488v-348h422v-107h-422v-371h494l-2 222h116q-2 -47 -2 -158q0 -123 2 -172q-59 2 -110 2h-572l-161 -2q-231 -2 -369 88q-205 135 -205 424zM225 514 q0 -123 53.5 -219t143.5 -139q104 -49 248 -50h112v826h-139q-205 0 -307 -107q-51 -53 -81 -138t-30 -173z" />
<glyph unicode="&#x178;" horiz-adv-x="1245" d="M-6 1249v121l35 -2q39 -2 77 -2h230q102 0 168 4v-121l-172 4l303 -508l303 508l-168 -4v121q66 -4 172 -4h215q45 0 103 4v-121l-175 4l-391 -643v-497l193 4v-121q-84 4 -174 4h-164q-53 0 -174 -4v121l190 -4v497l-397 643zM358 1610q0 41 29 68.5t70 27.5 q39 0 66.5 -28.5t27.5 -67.5q0 -41 -27.5 -69t-68.5 -28t-69 28t-28 69zM750 1610q0 41 28.5 68.5t69.5 27.5q39 0 66.5 -28.5t27.5 -67.5q0 -41 -28.5 -69t-67.5 -28t-67.5 28t-28.5 69z" />
<glyph unicode="&#x2c6;" d="M248 1174l211 286h108l211 -286h-127l-139 176l-137 -176h-127z" />
<glyph unicode="&#x2dc;" d="M242 1194q8 98 28 145q35 80 111 80q45 0 133 -55q96 -61 121 -61q55 0 61 114h88q-6 -86 -22 -131q-35 -94 -113 -94q-45 0 -139 57q-102 61 -123 62q-47 0 -55 -94l-2 -23h-88z" />
<glyph unicode="&#x2000;" horiz-adv-x="892" />
<glyph unicode="&#x2001;" horiz-adv-x="1787" />
<glyph unicode="&#x2002;" horiz-adv-x="892" />
<glyph unicode="&#x2003;" horiz-adv-x="1787" />
<glyph unicode="&#x2004;" horiz-adv-x="595" />
<glyph unicode="&#x2005;" horiz-adv-x="446" />
<glyph unicode="&#x2006;" horiz-adv-x="296" />
<glyph unicode="&#x2007;" horiz-adv-x="296" />
<glyph unicode="&#x2008;" horiz-adv-x="223" />
<glyph unicode="&#x2009;" horiz-adv-x="356" />
<glyph unicode="&#x200a;" horiz-adv-x="98" />
<glyph unicode="&#x2010;" horiz-adv-x="419" d="M0 465v119h420v-119h-420z" />
<glyph unicode="&#x2011;" horiz-adv-x="419" d="M0 465v119h420v-119h-420z" />
<glyph unicode="&#x2012;" horiz-adv-x="419" d="M0 465v119h420v-119h-420z" />
<glyph unicode="&#x2013;" d="M160 465v119h706v-119h-706z" />
<glyph unicode="&#x2014;" horiz-adv-x="1257" d="M0 465v119h1257v-119h-1257z" />
<glyph unicode="&#x2018;" horiz-adv-x="438" d="M137 887v215q0 131 36 194.5t122 89.5v-116q-33 -14 -46 -48t-11 -106h47v-229h-148z" />
<glyph unicode="&#x2019;" horiz-adv-x="438" d="M143 891v110q33 14 46.5 47t11.5 99h-47v219h147v-205q0 -123 -36 -184t-122 -86z" />
<glyph unicode="&#x201a;" horiz-adv-x="438" d="M143 -145q33 14 46.5 46.5t11.5 98.5h-47v219h147v-205q0 -123 -36 -184t-122 -86v111z" />
<glyph unicode="&#x201c;" horiz-adv-x="727" d="M137 887v215q0 131 36 194.5t122 89.5v-116q-33 -14 -46 -48t-11 -106h47v-229h-148zM426 887v215q0 131 36 194.5t122 89.5v-116q-33 -14 -46.5 -48t-11.5 -106h47v-229h-147z" />
<glyph unicode="&#x201d;" horiz-adv-x="727" d="M143 866v115q33 14 46.5 48t11.5 106h-47v231h147v-217q0 -129 -36 -192.5t-122 -90.5zM432 866v115q33 14 46.5 48t10.5 106h-47v231h148v-217q0 -129 -36 -192.5t-122 -90.5z" />
<glyph unicode="&#x201e;" horiz-adv-x="727" d="M143 -154q33 14 46.5 48t11.5 106h-47v231h147v-217q0 -129 -36 -192.5t-122 -89.5v114zM432 -154q33 14 46.5 48t10.5 106h-47v231h148v-217q0 -129 -36 -192.5t-122 -89.5v114z" />
<glyph unicode="&#x2022;" horiz-adv-x="1366" d="M401 692q0 119 84 202t205 83q113 0 196 -84t83 -199q0 -119 -83 -201.5t-200 -82.5t-201 82.5t-84 199.5z" />
<glyph unicode="&#x2026;" horiz-adv-x="1300" d="M143 0v233h148v-233h-148zM578 0v233h147v-233h-147zM1010 0v233h147v-233h-147z" />
<glyph unicode="&#x202f;" horiz-adv-x="356" />
<glyph unicode="&#x2039;" horiz-adv-x="681" d="M82 524l340 461h151l-337 -461l337 -467h-151z" />
<glyph unicode="&#x203a;" horiz-adv-x="681" d="M109 63l337 461l-337 467h151l340 -467l-340 -461h-151z" />
<glyph unicode="&#x205f;" horiz-adv-x="446" />
<glyph unicode="&#x20ac;" horiz-adv-x="1312" d="M88 360l49 115h96q-2 18 -2 39q0 29 2 47h-145l49 115h117q45 174 180 276.5t318 102.5q229 0 338 -160l-5 141h121q-6 -129 -6 -209q0 -92 4 -159h-117q-20 127 -100 190q-96 74 -242 74q-127 0 -223 -68.5t-135 -187.5h528l-49 -115h-504q-2 -25 -2 -47q0 -18 2 -39 h467l-49 -115h-395q41 -121 138.5 -187.5t234.5 -66.5q143 0 232 72t151 236l106 -72q-43 -141 -168 -246q-133 -113 -323 -112q-195 0 -329 99t-177 277h-162z" />
<glyph unicode="&#x2122;" horiz-adv-x="1753" d="M29 1087v29v109v118v33q43 -2 123 -2h374q53 0 146 2q-2 -66 -2 -170q0 -76 4 -112h-88l-2 200h-189v-628l131 2v-82q-53 2 -108 2h-131q-53 0 -109 -2v82l129 -2v628h-194l2 -207h-86zM737 586v82l103 -2v630l-103 -2v82q59 -2 111 -2h59q12 0 60 2l264 -618l264 618 q35 -2 66 -2h43q29 0 110 2v-82l-102 2v-630l102 2v-82q-80 2 -110 2h-80q-55 0 -105 -2v82l105 -2v571l-281 -649h-39l-276 653v-575l104 2v-82q-51 2 -104 2h-78q-29 0 -113 -2z" />
<glyph unicode="&#xe000;" horiz-adv-x="1040" d="M0 1040h1040v-1040h-1040v1040z" />
<glyph unicode="&#xfb01;" horiz-adv-x="1579" d="M76 -2v108l157 -4v834l-157 -4v108q109 -2 153 -2h529q84 0 160 4q-2 -66 -3 -151q0 -80 3 -170h-117l2 211h-447v-350h340v-107h-340v-373l156 4v-108q-100 2 -160 2h-123q-42 0 -153 -2zM1069 -2v108l156 -4v834l-156 -4v108q106 -2 152 -2h122q57 0 162 2v-108l-157 4 v-834l157 4v-108q-100 2 -162 2h-122q-43 0 -152 -2z" />
<glyph unicode="&#xfb02;" horiz-adv-x="1947" d="M76 -2v108l157 -4v834l-157 -4v108q109 -2 153 -2h529q84 0 160 4q-2 -66 -3 -151q0 -80 3 -170h-117l2 211h-447v-350h340v-107h-340v-373l156 4v-108q-100 2 -160 2h-123q-42 0 -153 -2zM1069 -2v108l156 -4v834l-156 -4v108q106 -2 152 -2h122q57 0 162 2v-108l-157 4 v-830h389v189q0 100 -2 158h131q-4 -98 -4 -291q0 -104 4 -166q-27 2 -56 2l-108 2h-481q-43 0 -152 -2z" />
<glyph unicode="&#xfb03;" horiz-adv-x="2574" d="M2063 -2v108l157 -4v834l-157 -4v108q109 -2 153 -2h123q57 0 160 2v-108l-156 4v-834l156 4v-108q-100 2 -160 2h-123q-42 0 -153 -2zM1069 -2v108l157 -4v834l-157 -4v108q109 -2 153 -2h529q84 0 160 4q-2 -66 -3 -151q0 -80 3 -170h-117l2 211h-447v-350h340v-107 h-340v-373l156 4v-108q-100 2 -160 2h-123q-42 0 -153 -2zM76 -2v108l157 -4v834l-157 -4v108q109 -2 153 -2h529q84 0 160 4q-2 -66 -3 -151q0 -80 3 -170h-117l2 211h-447v-350h340v-107h-340v-373l156 4v-108q-100 2 -160 2h-123q-42 0 -153 -2z" />
<glyph unicode="&#xfb04;" horiz-adv-x="2940" d="M2063 -2v108l157 -4v834l-157 -4v108q109 -2 153 -2h123q57 0 160 2v-108l-156 4v-830h387v189q0 100 -2 158h131q-4 -98 -4 -291q0 -104 4 -166q-27 2 -55 2l-108 2h-480q-42 0 -153 -2zM1069 -2v108l157 -4v834l-157 -4v108q109 -2 153 -2h529q84 0 160 4 q-2 -66 -3 -151q0 -80 3 -170h-117l2 211h-447v-350h340v-107h-340v-373l156 4v-108q-100 2 -160 2h-123q-42 0 -153 -2zM76 -2v108l157 -4v834l-157 -4v108q109 -2 153 -2h529q84 0 160 4q-2 -66 -3 -151q0 -80 3 -170h-117l2 211h-447v-350h340v-107h-340v-373l156 4v-108 q-100 2 -160 2h-123q-42 0 -153 -2z" />
</font>
</defs>
</svg>
