<?xml version="1.0" standalone="no"?>
<!DOCTYPE svg PUBLIC "-//W3C//DTD SVG 1.1//EN" "http://www.w3.org/Graphics/SVG/1.1/DTD/svg11.dtd" >
<svg xmlns="http://www.w3.org/2000/svg">
<metadata>
This is a custom SVG webfont generated by Font Squirrel.
Copyright   : Typeface  FontSite Inc 19962008 All Rights Reserved wwwfontsitecom
Designer    : FontSitecom
Foundry URL : httpwwwfontsitecom
</metadata>
<defs>
<font id="webfont4uE5KiPB" horiz-adv-x="1228" >
<font-face units-per-em="2048" ascent="1610" descent="-438" />
<missing-glyph horiz-adv-x="512" />
<glyph unicode=" "  horiz-adv-x="512" />
<glyph unicode="&#x09;" horiz-adv-x="512" />
<glyph unicode="&#xa0;" horiz-adv-x="512" />
<glyph unicode="!" horiz-adv-x="663" d="M96 0v369h473v-369h-473zM111 963v403h452v-403l-67 -416h-324z" />
<glyph unicode="&#x22;" horiz-adv-x="815" d="M55 1366h297l-43 -547h-211zM463 1366h295l-43 -547h-211z" />
<glyph unicode="#" d="M23 422l59 151h201l84 205h-205l63 154h203l176 434h199l-176 -434h176l176 434h199l-177 -434h205l-61 -154h-205l-84 -205h205l-62 -151h-204l-172 -422h-197l172 422h-178l-172 -422h-199l172 422h-198zM481 573h178l82 205h-178z" />
<glyph unicode="$" d="M80 977q0 166 135 278q59 47 122.5 67.5t164.5 23.5v208h205v-239q6 -2 47 -27l14 -10v47h297v-176v-207h-324q-6 70 -46 106.5t-107 36.5q-53 0 -87 -28.5t-34 -73.5q0 -49 41 -77.5t180 -74.5q252 -84 357.5 -186t105.5 -264q0 -197 -152 -297q-115 -80 -292 -90v-242 h-205v271q-68 29 -111 61v-45h-299v207v207h320q0 -88 54 -142.5t142 -54.5q59 0 99.5 35t40.5 86q0 53 -36 80.5t-169 77.5q-162 59 -211 80.5t-90 52.5q-76 53 -119 136t-43 173z" />
<glyph unicode="%" horiz-adv-x="1486" d="M55 1006q0 172 84 276t221 104q131 0 215 -105t84 -269t-83.5 -266.5t-215.5 -102.5q-137 0 -221 100.5t-84 262.5zM211 45l903 1362l154 -104l-901 -1360zM291 1036q0 -227 65 -227q68 0 68 215q0 197 -62 197q-71 -1 -71 -185zM827 330q0 172 84 276.5t224 104.5 q131 0 215 -105.5t84 -269.5t-84 -266.5t-215 -102.5q-137 0 -222.5 100.5t-85.5 262.5zM1063 360q0 -227 65 -227q70 0 70 215q0 197 -63 197q-72 -1 -72 -185z" />
<glyph unicode="&#x26;" horiz-adv-x="1693" d="M55 399q0 164 117 283t324 166q-49 98 -50 176q0 168 136.5 265t369.5 97q102 0 201 -12v-301q-31 4 -53 4q-45 0 -77 -26.5t-32 -65.5q0 -25 33 -72l170 -243q80 98 145 280h301v-336l-100 2q-84 -131 -154 -208l64 -99l190 2v-313q-68 2 -149 2h-207q-131 0 -209 -2 l-78 117q-207 -135 -432 -135t-367.5 116.5t-142.5 302.5zM500 461q0 -80 58 -142.5t134 -62.5q78 0 156 61l-223 308q-74 -43 -99.5 -76t-25.5 -88z" />
<glyph unicode="'" horiz-adv-x="407" d="M55 1366h297l-43 -547h-211z" />
<glyph unicode="(" horiz-adv-x="819" d="M47 530q0 432 289 678q164 141 399 172v-254q-88 -49 -131 -112.5t-60.5 -172t-17.5 -309.5q0 -295 41 -413.5t168 -188.5v-258q-221 45 -370 152q-154 111 -236 293t-82 413z" />
<glyph unicode=")" horiz-adv-x="819" d="M84 -70q127 70 168 189t41 413q0 201 -17.5 309.5t-60.5 172t-131 112.5v254q231 -31 399 -172q289 -246 289 -678q0 -231 -82 -413.5t-235 -292.5q-150 -106 -371 -152v258z" />
<glyph unicode="*" d="M152 893l116 356l232 -151l-72 268h375l-72 -268l232 151l116 -356l-278 -14l217 -174l-303 -222l-101 260l-98 -260l-303 222l217 174z" />
<glyph unicode="+" d="M152 539v286h307v322h313v-322h307v-286h-307v-320h-313v320h-307z" />
<glyph unicode="," horiz-adv-x="659" d="M88 0v369h483v-369q0 -90 -15 -139t-56 -88q-53 -51 -126 -71.5t-196 -20.5q-53 0 -90 2v202q18 -2 51 -2q63 0 98 27t33 72q0 12 -2 18h-180z" />
<glyph unicode="-" horiz-adv-x="614" d="M0 313v416h614v-416h-614z" />
<glyph unicode="." horiz-adv-x="649" d="M88 0v369h473v-369h-473z" />
<glyph unicode="/" horiz-adv-x="942" d="M-92 -313l672 1679h335l-673 -1679h-334z" />
<glyph unicode="0" d="M55 684q0 332 149.5 517t418.5 185q252 0 400 -189t148 -511q0 -330 -150.5 -518t-410.5 -188q-256 0 -405.5 190t-149.5 514zM483 678q0 -289 39 -354q35 -55 90 -56q57 0 85 44t36 145q10 102 10 323q0 170 -28.5 243t-98.5 75q-76 4 -104.5 -87t-28.5 -333z" />
<glyph unicode="1" d="M260 -2v321l186 -4v623q-66 -20 -129 -20q-31 0 -57 4v309q258 2 379 162h231v-1078l183 4v-321q-127 2 -183 2h-419q-58 0 -191 -2z" />
<glyph unicode="2" d="M49 59q0 430 445 709q154 96 182 129q35 43 35 98.5t-35 90t-90 34.5q-139 0 -154 -164h-360q14 156 65 238q123 193 471 192q250 0 390.5 -102t140.5 -285q0 -209 -183 -340l-19 -13l-15 -11q-8 -6 -17.5 -11.5t-15.5 -9.5t-20.5 -10t-23.5 -11t-31.5 -15.5l-37.5 -17.5 l-48 -23l-58 -29q-162 -78 -228 -195h418v140h279q-4 -86 -4 -226q0 -141 4 -229q-141 2 -228 2h-649q-98 0 -211 -2q-2 26 -2 61z" />
<glyph unicode="3" d="M27 467l354 18q2 -109 51 -166t139 -57q72 0 118 46t46 118t-51 121t-127 49q-25 0 -43 -2v225q76 -2 121 23q80 45 80 127q0 63 -41 104t-103 41q-125 0 -149 -156l-365 17q16 109 47 171t93 116q145 125 401 124q246 0 388 -103t142 -279q0 -104 -56 -181.5 t-152 -101.5v-14q100 -16 159 -84q84 -96 84 -226q0 -188 -157.5 -302.5t-417.5 -114.5q-311 0 -457 170q-53 61 -77.5 132.5t-26.5 184.5z" />
<glyph unicode="4" d="M20 743l607 650h409v-674h142v-256h-142v-148l142 2v-319q-129 2 -142 2h-411q-47 0 -166 -2v319l166 -2v150h-519zM332 719h299v317z" />
<glyph unicode="5" d="M45 369l361 34q53 -135 184 -135q70 0 118 47t48 115q0 72 -49.5 120t-124.5 48q-86 0 -183 -59l-301 92l45 737q135 -2 254 -2h561q70 0 170 2v-70l-2 -118l2 -138v-59h-237l-29 90h-446l-27 -276q127 78 291 77q221 0 362.5 -119.5t141.5 -305.5q0 -205 -162 -337 t-416 -132q-215 0 -359.5 99.5t-201.5 289.5z" />
<glyph unicode="6" d="M51 664q0 332 160 527t430 195q221 0 360.5 -95t172.5 -269l-338 -23q-45 106 -156 107q-100 0 -148.5 -75t-52.5 -232q115 70 254 69q199 0 323 -117.5t124 -306.5q0 -199 -148.5 -331.5t-374.5 -132.5q-285 0 -445.5 181t-160.5 503zM471 530q0 -270 154 -270 q63 0 104 46t41 118q0 78 -38 122t-103 44q-74 -1 -158 -60z" />
<glyph unicode="7" d="M51 854q2 84 2 350q0 104 -2 164q100 -2 281 -2h581q96 0 236 2v-278q-94 -84 -208 -333t-144 -442l143 2v-319q-135 2 -172 2h-406q-33 0 -147 -2v319l158 -2q29 182 124 358.5t283 399.5h-448v-219h-281z" />
<glyph unicode="8" d="M45 383q0 125 67.5 210t190.5 118v10q-219 76 -219 287q0 156 117 254q145 125 434 124q242 0 381 -106q137 -104 137 -270q0 -106 -59.5 -185.5t-159.5 -107.5l-2 -15q119 -27 185.5 -109.5t66.5 -207.5q0 -193 -149.5 -299t-418.5 -106q-264 0 -417.5 108.5 t-153.5 294.5zM449 416q0 -76 45 -121t120 -45q74 0 120 46t46 120q0 76 -45 121t-119 45q-76 0 -121.5 -45t-45.5 -121zM471 979q0 -61 43 -103t104 -42q59 0 101.5 42t42.5 103t-42 105t-102 44q-63 0 -105 -43t-42 -106z" />
<glyph unicode="9" d="M51 920q0 207 146.5 336.5t375.5 129.5q289 0 448 -179t159 -502q0 -334 -161 -529.5t-435 -195.5q-133 0 -247 43t-181 120q-68 76 -99 201l340 25q37 -106 162 -107q94 0 143.5 79t49.5 228q-117 -70 -256 -69q-195 0 -320 118t-125 302zM459 942q0 -74 38 -119t99 -45 q92 0 164 66v10v8q0 115 -41 180.5t-115 65.5q-68 0 -106.5 -44t-38.5 -122z" />
<glyph unicode=":" horiz-adv-x="649" d="M88 0v369h473v-369h-473zM88 608v369h473v-369h-473z" />
<glyph unicode=";" horiz-adv-x="659" d="M88 0v369h483v-369q0 -98 -14 -143t-57 -86q-98 -90 -324 -90q-51 0 -88 2v202q18 -2 51 -2q63 0 98 27t33 72q0 12 -2 18h-180zM88 608v369h473v-369h-473z" />
<glyph unicode="&#x3c;" horiz-adv-x="1024" d="M74 772v21l874 536v-166l-424 -260l424 -293v-444z" />
<glyph unicode="=" d="M152 330v286h927v-286h-927zM152 748v286h927v-286h-927z" />
<glyph unicode="&#x3e;" horiz-adv-x="1024" d="M74 166v168l424 258l-424 295v442l874 -606v-21z" />
<glyph unicode="?" horiz-adv-x="1243" d="M55 1004q35 180 144 266q147 117 430 116q260 0 409.5 -102t149.5 -280q0 -94 -48 -173t-130 -122q-94 -49 -273 -58l-22 -102h-256l-8 160q-4 94 -11 168q66 -27 129 -27q74 0 119 38t45 101q0 59 -39 97t-100 38q-121 0 -150 -120h-389zM360 0v369h474v-369h-474z" />
<glyph unicode="@" horiz-adv-x="1544" d="M55 504q0 305 218.5 516t533.5 211q293 0 487.5 -175t194.5 -438q0 -197 -112.5 -344t-264.5 -147q-61 0 -104 30.5t-54 78.5q-92 -119 -245 -119q-129 0 -214 95t-85 239q0 168 109.5 293.5t254.5 125.5q150 0 209 -127l21 105l157 -2l-80 -410q-10 -51 -10 -76 q0 -68 57 -67q72 0 128.5 96t56.5 221q0 201 -139.5 328t-360.5 127q-242 0 -405.5 -163t-163.5 -400q0 -231 155 -391q150 -150 416 -150q209 0 389 72l45 -166q-190 -72 -434 -72q-332 0 -536 191q-106 98 -165 235.5t-59 282.5zM606 457q0 -72 39 -117t103 -45 q74 0 129 70.5t55 166.5q0 72 -37 114t-98 42q-78 0 -134.5 -68.5t-56.5 -162.5z" />
<glyph unicode="A" horiz-adv-x="1327" d="M-14 -2v313l75 -2l226 748l-94 -2v313q117 -2 159 -2h549q111 0 240 2v-313l-97 2l220 -748l71 2l4 -313q-53 2 -135 2h-354q-63 0 -182 -2v295l108 -2l-43 178h-311l-55 -178l110 2v-295q-115 2 -198 2h-189q-30 0 -104 -2zM477 655h211l-92 379z" />
<glyph unicode="B" horiz-adv-x="1585" d="M68 -2v313l108 -2v748l-108 -2v313q84 -2 120 -2h512q342 0 435.5 -8t164.5 -45q199 -102 199 -312q0 -117 -74.5 -194.5t-195.5 -87.5v-10q121 -25 190 -76q135 -96 135 -254q0 -100 -62 -185t-173 -137q-78 -35 -189.5 -46t-410.5 -11h-531q-34 0 -120 -2zM698 297 q27 -2 62 -2q117 0 170 32.5t53 106.5q0 39 -20.5 73t-53.5 46q-45 18 -157 18q-31 0 -54 -2v-272zM698 809h52q129 0 174 28.5t45 98.5q0 84 -60 113q-41 20 -141 20q-39 0 -70 -2v-258z" />
<glyph unicode="C" horiz-adv-x="1435" d="M41 690q0 268 135 447q88 115 226.5 182t287.5 67q178 0 348 -112l-4 110h328v-53v-153q0 -119 2 -320h-352q-18 100 -68.5 152.5t-126.5 52.5q-102 0 -149 -98q-47 -100 -47 -293q0 -219 59 -305q51 -72 141 -72q115 0 174 111q35 70 41 192l379 -106 q-47 -244 -221 -378t-440 -134q-262 0 -455 145q-258 196 -258 565z" />
<glyph unicode="D" horiz-adv-x="1619" d="M68 -2v313l108 -4v750l-108 -2v313q98 -2 127 -2h514q233 0 332.5 -18.5t195.5 -77.5q158 -96 250 -256t92 -336q0 -205 -118 -378t-308 -247q-139 -53 -399 -53h-559q-31 0 -127 -2zM709 317h24q150 0 208 75t58 267q0 217 -53 300t-192 83h-45v-725z" />
<glyph unicode="E" horiz-adv-x="1347" d="M68 -2v313l108 -2v748l-108 -2v313q80 -2 118 -2h893q102 0 219 2q-2 -74 -2 -209q0 -156 2 -239h-335v129h-254v-228h237v-276h-237v-228h258l-2 129h333q-2 -119 -2 -231q0 -106 2 -217q-10 0 -22 1t-18.5 2t-8.5 1l-164 -2h-899q-36 0 -118 -2z" />
<glyph unicode="F" horiz-adv-x="1318" d="M68 -2v313l108 -2v748l-108 -2v313q88 -2 120 -2h875q106 0 244 2q-2 -133 -2 -225q0 -82 2 -244h-328l2 150h-272v-230h211v-266h-211v-244l139 2v-313q-86 2 -119 2h-541q-32 0 -120 -2z" />
<glyph unicode="G" horiz-adv-x="1480" d="M41 662q0 246 127 440q190 285 584 284q172 0 329 -94l-2 74h324q-4 -86 -4 -233q0 -152 4 -244h-316q-35 78 -73 112q-66 61 -156 62q-61 0 -113.5 -34t-76.5 -87q-47 -106 -47 -305q0 -186 48 -273.5t150 -87.5q143 0 152 148l-123 -2v260h606v-51q0 -322 -143 -473 q-172 -178 -518 -178q-365 0 -568 204q-184 189 -184 478z" />
<glyph unicode="H" horiz-adv-x="1673" d="M68 -2v313l108 -2v748l-108 -2v313q88 -2 122 -2h480q33 0 121 2v-313l-82 2v-228h254v228l-82 -2v313q88 -2 123 -2h499q66 0 103 2v-313l-111 2v-748l111 2v-313q-86 2 -123 2h-477q-33 0 -125 -2v313l82 -2v236h-254v-236l82 2v-313q-88 2 -123 2h-478q-34 0 -122 -2z " />
<glyph unicode="I" horiz-adv-x="915" d="M82 -2v313l108 -2v748l-108 -2v313q74 -2 115 -2h520q39 0 117 2v-313l-111 2v-748l111 2v-313q-80 2 -121 2h-516q-39 0 -115 -2z" />
<glyph unicode="J" horiz-adv-x="866" d="M23 33q25 -6 57 -6q59 0 77.5 33.5t18.5 144.5v852l-127 -2v313q88 -2 123 -2h539q61 0 108 2v-313l-110 2v-840q0 -164 -12.5 -231.5t-51.5 -128.5q-111 -168 -409 -168q-80 0 -213 14v330z" />
<glyph unicode="K" horiz-adv-x="1619" d="M68 -2v313l108 -2v748l-108 -2v313q100 -2 127 -2h495q61 0 105 2v-313l-86 2v-350l311 350l-96 -2v313q86 -2 202 -2h271q74 0 137 2v-313l-107 2l-217 -246l344 -502l58 2v-313q-57 2 -142 2h-378q-96 0 -168 -2v313l59 -2l-274 398v-398l86 2v-313q-88 2 -123 2h-477 q-29 0 -127 -2z" />
<glyph unicode="L" horiz-adv-x="1314" d="M68 -2v313l108 -2v748l-108 -2v313q53 -2 110 -2h527q55 0 114 2v-313l-110 2v-740h262v17l2 115l-2 88v30h323v-78v-178v-248v-65q-78 2 -225 2h-891q-57 0 -110 -2z" />
<glyph unicode="M" horiz-adv-x="2105" d="M68 -2v313l108 -2v748l-108 -2v313q117 -2 133 -2h444q100 0 232 2l180 -502l192 502q127 -2 205 -2h453q27 0 129 2v-313l-109 2v-748l109 2v-313q-98 2 -148 2h-461q-57 0 -112 -2v313l108 -2v692l-364 -1001h-211l-359 997v-688l111 2v-313q-100 2 -129 2h-270 q-24 0 -133 -2z" />
<glyph unicode="N" horiz-adv-x="1579" d="M68 -2v313l108 -2v748l-108 -2v313q98 -2 127 -2h305q61 0 194 2l406 -659v348l-109 -2v313q115 -2 131 -2h273q27 0 129 2v-313l-111 2v-1057h-459l-465 737v-428l111 2v-313q-90 2 -125 2h-280q-31 0 -127 -2z" />
<glyph unicode="O" horiz-adv-x="1564" d="M41 678q0 303 214 505.5t533 202.5q215 0 406 -114q162 -94 246 -247t84 -345q0 -305 -209 -502.5t-537 -197.5q-317 0 -527 198.5t-210 499.5zM621 670q0 -205 36.5 -293t122.5 -88q84 0 125 84q39 88 39 268q0 240 -37 338t-125 98q-90 0 -125.5 -90t-35.5 -317z" />
<glyph unicode="P" horiz-adv-x="1548" d="M68 -2v313l108 -2v748l-108 -2v313q78 -2 116 -2h566q268 0 380.5 -13.5t182.5 -52.5q215 -123 215 -356q0 -115 -56.5 -211t-152.5 -145q-78 -41 -162 -55.5t-250 -14.5q-137 0 -198 -2v-207l131 2v-313q-92 2 -127 2h-529q-36 0 -116 -2zM709 803l30 2l65 4q32 2 46 2 t29.5 1t21.5 4t13.5 6t13.5 9q45 39 45 111q0 66 -45 98q-27 18 -51.5 22.5t-137.5 4.5h-30v-264z" />
<glyph unicode="Q" horiz-adv-x="1564" d="M41 686q0 338 256 539q211 162 479 161q121 0 250 -39.5t223 -107.5q274 -199 275 -555q0 -258 -149.5 -438t-418.5 -246q111 -35 191 -35q90 0 194 43l-104 -303q-57 -10 -107 -10q-113 0 -183 14.5t-171 54.5q-109 47 -184 48q-88 0 -189 -64l-137 189q41 43 109 68 q63 24 128 24h11q-182 63 -291 182q-182 194 -182 475zM621 670q0 -205 36.5 -293t122.5 -88q84 0 125 84q39 88 39 268q0 240 -37 338t-125 98q-90 0 -125.5 -90t-35.5 -317z" />
<glyph unicode="R" horiz-adv-x="1632" d="M68 -2v313l108 -4v750l-108 -2v313q115 -2 131 -2h600q311 0 415 -25q145 -35 232.5 -139t87.5 -244q0 -213 -203 -327l199 -324l96 4v-313q-78 2 -188 2h-191q-55 0 -145 -2l-248 551h-145v-242l110 4v-313q-117 2 -133 2h-487q-25 0 -131 -2zM709 801q35 -2 79 -2 q102 0 146.5 30.5t44.5 102.5q0 70 -44 99.5t-149 29.5q-43 0 -77 -2v-258z" />
<glyph unicode="S" horiz-adv-x="1134" d="M55 983q0 170 121 286.5t295 116.5q170 0 291 -88l-2 68h307q2 -51 2 -154q0 -154 -2 -243h-297q-35 162 -164 161q-49 0 -81.5 -26.5t-32.5 -67.5q0 -39 36.5 -69.5t135.5 -73.5q162 -72 219 -104.5t100 -77.5q127 -131 127 -295q0 -180 -130 -308t-314 -128 q-158 0 -308 106l2 -86h-299q2 80 2 242q0 133 -2 198h299q2 -92 56 -137q49 -43 108 -43q53 0 86 26.5t33 69.5q0 59 -57 95q-16 12 -174 86q-176 82 -254 172q-103 118 -103 274z" />
<glyph unicode="T" horiz-adv-x="1374" d="M27 760q2 121 2 289q0 182 -2 319q158 -2 299 -2h782q113 0 242 2q-2 -104 -2 -246q0 -201 2 -362h-265v289h-131v-740l109 2v-313q-57 2 -115 2h-518q-41 0 -119 -2v313l111 -2v740h-135v-289h-260z" />
<glyph unicode="U" horiz-adv-x="1404" d="M61 1055v313q121 -2 136 -2h450q33 0 127 2v-313l-72 2v-604q0 -160 113 -160q61 0 89 43t28 137v584l-68 -2v313q88 -2 123 -2h234q25 0 133 2v-313l-109 2v-570q0 -129 -30.5 -216t-102.5 -158q-135 -133 -387 -133q-281 0 -418 143q-137 139 -137 383v551z" />
<glyph unicode="V" horiz-adv-x="1351" d="M-14 1055v313q57 -2 151 -2h316q143 0 237 2v-313l-104 2l182 -520l190 520l-104 -2v313q115 -2 178 -2h236q53 0 96 2v-313l-76 2l-393 -1057h-426l-399 1057z" />
<glyph unicode="W" horiz-adv-x="2050" d="M-14 1055v313q47 -2 143 -2h322q147 0 221 2v-313l-90 2l135 -543l176 543l-86 -2v313q72 -2 164 -2h282q94 0 166 2v-313l-100 2l149 -537l158 537l-84 -2l2 313q63 -2 180 -2h224q20 0 114 2v-313l-84 2l-391 -1057h-418l-145 512l-172 -512h-410l-374 1057z" />
<glyph unicode="X" horiz-adv-x="1781" d="M14 -2v313l125 -2l408 348l-406 400l-121 -2v313q68 -2 152 -2h502q84 0 217 2v-297l-98 4l159 -172l176 172l-104 -4v297q78 -2 225 -2h336q31 0 154 2l-2 -313l-178 2l-359 -334l471 -414l107 2l4 -313q-74 2 -170 2h-459q-113 0 -244 -2v297l119 -4l-213 194 l-199 -192l125 2v-297q-127 2 -229 2h-358q-85 0 -140 -2z" />
<glyph unicode="Y" horiz-adv-x="1329" d="M-14 1055v313q92 -2 135 -2h442q47 0 150 2l2 -313l-84 2l125 -264l159 264l-73 -2v313q68 -2 178 -2h219q31 0 104 2v-313l-86 2l-325 -520v-228l110 2v-313q-102 2 -129 2h-487q-27 0 -129 -2v313l109 -2v246l-338 502z" />
<glyph unicode="Z" horiz-adv-x="1374" d="M20 -2v276l637 791h-305l2 -170h-313q2 63 2 186q0 205 -2 287q55 -2 190 -2h865q133 0 221 2v-256l-645 -807h340l-4 189h315q-2 -25 -2 -58q0 -340 4 -438q-115 2 -223 2h-770q-99 0 -312 -2z" />
<glyph unicode="[" horiz-adv-x="819" d="M106 -313v1679h644v-276h-232v-1127h232v-276h-644z" />
<glyph unicode="\" horiz-adv-x="942" d="M31 1366h334l673 -1679h-336z" />
<glyph unicode="]" horiz-adv-x="819" d="M68 -37h231v1127h-231v276h643v-1679h-643v276z" />
<glyph unicode="^" horiz-adv-x="1024" d="M-70 559l607 875h22l537 -875h-168l-260 424l-293 -424h-445z" />
<glyph unicode="_" horiz-adv-x="1024" d="M0 -190h1024v-201h-1024v201z" />
<glyph unicode="`" horiz-adv-x="1024" d="M209 1378h332l131 -286h-246z" />
<glyph unicode="a" horiz-adv-x="1374" d="M61 670q43 162 186.5 234.5t418.5 72.5q291 0 434 -94q135 -86 135 -275v-307l121 2v-305h-45h-20q-9 0 -17 1t-13 1h-10h-4h-258q-106 0 -229 -2v65q-158 -84 -322 -83q-168 0 -269 80.5t-101 213.5q0 137 102 209q133 94 346 95q125 0 244 -41v110q0 53 -42 85t-114 32 q-121 0 -164 -105zM526 289q0 -41 28 -71t64 -30q61 0 142 50v124q-74 35 -123 35q-47 0 -79 -30.5t-32 -77.5z" />
<glyph unicode="b" horiz-adv-x="1445" d="M31 -2v305l121 -2v764l-121 -2v305h57l66 -2h202q147 0 265 2v-479q152 88 286 88q221 0 359.5 -138.5t138.5 -357.5q0 -272 -215 -413q-137 -88 -287 -88q-143 0 -272 75l4 -57q-72 2 -254 2h-227l-66 -2h-57zM618 479q0 -80 44 -155q41 -63 114 -64q72 0 113 59.5 t41 159.5q0 98 -40 155.5t-108 57.5q-78 0 -114 -53q-50 -68 -50 -160z" />
<glyph unicode="c" horiz-adv-x="1224" d="M43 485q0 215 153.5 353.5t393.5 138.5q141 0 276 -74l-2 53h291q-2 -137 -2 -194q0 -63 2 -199h-291q-37 160 -174 160q-82 0 -127 -69.5t-45 -196.5q0 -111 43 -171.5t123 -60.5q131 0 164 166l340 -82q-106 -330 -539 -329q-246 0 -395 96q-98 63 -154.5 171.5 t-56.5 237.5z" />
<glyph unicode="d" horiz-adv-x="1433" d="M43 483q0 213 138 353.5t347 140.5q156 0 291 -82v170l-119 -2v305q76 -2 91 -2h213l284 2v-1067l121 2v-305h-43h-15h-14h-11q-5 0 -9 1t-7 1h-5h-2h-216q-150 0 -268 -2l2 59q-92 -78 -262 -77q-231 0 -373.5 138t-142.5 365zM518 477q0 -106 41 -164.5t113 -58.5 q152 0 151 219q0 231 -149 232q-156 -1 -156 -228z" />
<glyph unicode="e" horiz-adv-x="1247" d="M43 469q0 219 169 363.5t427 144.5q252 0 412.5 -144.5t160.5 -373.5v-43h-702q0 -195 145 -195q86 0 136 103l407 -48q-147 -297 -551 -296q-272 0 -438 134t-166 355zM512 575h242q-6 162 -123 162t-119 -162z" />
<glyph unicode="f" horiz-adv-x="843" d="M43 -2v305l121 -2v354l-115 -2v305l115 -2v21q0 178 104 287q123 123 441 122q63 0 180 -8v-266q-14 0 -17 2l-26 2q-8 2 -41 2q-176 0 -176 -139v-23l174 2v-305l-170 2v-354l145 2v-305h-35q-14 0 -28.5 1t-23.5 1h-11h-537h-11q-9 0 -24.5 -1t-29.5 -1h-35z" />
<glyph unicode="g" horiz-adv-x="1417" d="M43 500q0 201 134 339t329 138q147 0 313 -100l-2 81q92 -2 260 -2h219q29 0 103 2v-305l-121 4v-409q0 -174 -29.5 -265.5t-107.5 -158.5q-158 -137 -520 -137q-268 0 -531 65l117 242q129 -59 307 -60q158 0 240 54q55 35 63 118v19q-131 -80 -293 -80q-219 0 -350 124 t-131 331zM510 481q0 -92 42 -150.5t107 -58.5q72 0 115 58.5t43 156.5q0 90 -41 145.5t-110 55.5q-72 0 -114 -55.5t-42 -151.5z" />
<glyph unicode="h" horiz-adv-x="1466" d="M31 -2v305l121 -2v764l-121 -2v305h32h43l23 -2h227q143 0 267 2v-520q66 59 161 94t185 35q360 0 360 -430v-246l121 2v-305h-41q-16 0 -30.5 1t-24.5 1h-11h-241q-125 0 -242 -2v534q0 57 -30.5 92t-81.5 35q-68 0 -127 -53v-305l118 2v-305q-47 2 -84 2h-526h-23 q-23 -2 -43 -2h-32z" />
<glyph unicode="i" horiz-adv-x="784" d="M43 -2v305l121 -2v356l-121 -2v306q80 -2 98 -3l197 -2h39q12 0 62 1t100 1h94v-657l119 2v-305h-58h-15h-13h-12q-5 0 -9 1t-7 1h-5h-2h-488h-8q-10 0 -25.5 -1t-29.5 -1h-37zM125 1214q0 78 71.5 125t188.5 47q115 0 185.5 -46t70.5 -121q0 -82 -68.5 -130.5 t-189.5 -48.5q-119 0 -188.5 47t-69.5 127z" />
<glyph unicode="j" horiz-adv-x="729" d="M-6 -45q12 -2 26 -2q10 -2 23 -2q53 0 86 37q27 29 27 123v544l-95 -2v305h33h31h22l11 -2h217q102 0 250 2v-847q0 -231 -106.5 -330.5t-356.5 -99.5q-49 0 -168 10v264zM131 1212q0 78 71.5 126t188.5 48q115 0 185.5 -47t70.5 -122q0 -82 -68.5 -130.5t-189.5 -48.5 q-119 0 -188.5 47t-69.5 127z" />
<glyph unicode="k" horiz-adv-x="1345" d="M31 -2v305l121 -2v764l-121 -2v305h47h32h25l8 -2h205q121 0 273 2v-926l251 273l-143 -2v245q57 -2 168 -2h297q23 0 104 2v-245l-92 2l-164 -176l179 -238l82 2v-305q-121 2 -189 2q-66 0 -188 -2l-305 405v-405q-104 2 -259 2h-219h-8q-10 0 -25.5 -1t-31.5 -1h-47z " />
<glyph unicode="l" horiz-adv-x="749" d="M31 -2v305l121 -2v764l-121 -2v305h35h29q15 0 23.5 -1t10.5 -1h221q125 0 271 2v-1067l118 2v-305h-71h-19q-10 0 -17 1t-14 1h-10h-4h-475h-10q-8 0 -23.5 -1t-29.5 -1h-35z" />
<glyph unicode="m" horiz-adv-x="2148" d="M43 -2v305l121 -2v354l-121 -2v305q45 -2 94 -2h344q25 0 146 2l-2 -124q70 57 168 93t184 36q180 0 293 -152q203 152 397 152q156 0 252 -93q92 -86 92 -258v-311l119 2v-305h-51h-17h-14q-6 0 -12 1t-10 1h-7h-2h-233q-133 0 -242 -2v524q0 57 -24.5 89t-69.5 32 q-51 0 -127 -41v-301l121 2v-305q-63 2 -88 2h-244q-123 0 -258 -2v510q0 135 -92 135q-29 0 -70 -15.5t-57 -31.5v-295l119 2v-305h-33q-14 0 -29.5 1t-24.5 1h-12h-516q-24 0 -94 -2z" />
<glyph unicode="n" horiz-adv-x="1480" d="M43 -2v305l121 -2v354l-121 -2v305q63 -2 98 -2h236q117 0 258 2l-4 -120q78 61 183.5 100t193.5 39q166 0 264 -121q72 -92 71 -233v-322l119 2v-305h-47q-16 0 -30.5 1t-24.5 1h-8h-209q-127 0 -269 -2v514q0 72 -22 100q-33 37 -88 37q-59 0 -131 -49v-299l119 2v-305 q-51 2 -84 2h-527h-10q-8 0 -23.5 -1t-29.5 -1h-35z" />
<glyph unicode="o" horiz-adv-x="1294" d="M43 473q0 227 167 365.5t441 138.5q268 0 433 -139.5t165 -362.5t-168 -359t-444 -136q-264 0 -429 137t-165 356zM518 467q0 -211 127 -211q129 0 129 219q0 225 -123 225q-70 0 -101.5 -56t-31.5 -177z" />
<glyph unicode="p" horiz-adv-x="1421" d="M18 -35l121 -2v694l-121 -2v303q39 -2 99 -2h221q131 0 270 2l-2 -67q104 86 275 86q217 0 356 -134t139 -345q0 -203 -134 -345.5t-324 -142.5q-166 0 -310 101v-162l119 4v-268h-31h-29q-15 0 -23.5 1t-10.5 1h-516q-2 0 -11.5 -1t-23.5 -1h-29h-35v280zM606 483 q0 -98 39 -143q41 -47 107 -47q70 0 109.5 53t39.5 147.5t-38 146.5t-107 52q-150 0 -150 -209z" />
<glyph unicode="q" horiz-adv-x="1419" d="M43 500q0 211 138 344t356 133q141 0 274 -80l-2 61q145 -2 256 -2h233q55 0 103 2v-305l-121 2v-692l121 2v-280h-35h-30q-15 0 -24 1t-12 1h-509l-9 -2h-24h-31h-35v268l119 -4v164q-158 -100 -295 -101q-203 0 -338 139.5t-135 348.5zM518 496q0 -94 40 -148.5 t109.5 -54.5t107.5 49t38 137q0 102 -38 157.5t-107.5 55.5t-109.5 -52t-40 -144z" />
<glyph unicode="r" horiz-adv-x="1026" d="M43 -2v305l121 -2v354l-121 -2v305q66 -2 98 -2h217q127 0 240 2l-2 -200q82 121 157.5 167t196.5 46q25 0 45 -2v-412q-53 10 -98 10q-270 0 -270 -237v-29l139 2v-305h-35q-14 0 -29.5 1t-23.5 1h-10h-527h-10q-8 0 -23.5 -1t-29.5 -1h-35z" />
<glyph unicode="s" horiz-adv-x="1087" d="M43 668q0 137 112.5 223t293.5 86q158 0 260 -45l-2 39h290q-2 -61 -2 -146q0 -90 2 -159h-272q-74 106 -231 106q-51 0 -82 -15.5t-31 -41.5q0 -39 86 -53q303 -49 395 -93q188 -86 189 -264q0 -133 -113 -227q-117 -98 -317 -98q-61 0 -102.5 9t-147.5 44v-33h-310v156 v151h310q70 -109 229 -108q104 0 105 55q0 29 -37 45q-20 8 -232 45q-393 72 -393 324z" />
<glyph unicode="t" horiz-adv-x="796" d="M14 659v299l101 -2v181l475 202v-383l160 2v-299l-166 3v-244q0 -94 57 -94q47 0 109 43v-310q-158 -78 -287 -77q-184 0 -279 96q-74 76 -73 235v351z" />
<glyph unicode="u" horiz-adv-x="1460" d="M18 653v305q100 -2 113 -2h244q145 0 233 2v-505q0 -139 105 -140q37 0 114 39l21 10v293l-119 -2v305q70 -2 100 -2h236q127 0 252 2v-657l121 2v-305h-41q-16 0 -30.5 1t-23.5 1h-10h-268q-88 0 -225 -2l2 106q-213 -125 -361 -124q-176 0 -274 126q-39 51 -53.5 110.5 t-14.5 176.5v262z" />
<glyph unicode="v" horiz-adv-x="1226" d="M-10 653v305q51 -2 141 -2h322q137 0 198 2v-305l-82 2l142 -268l129 268l-90 -2v305q109 -2 172 -2h219q20 0 98 2v-305l-100 2l-322 -655h-391l-369 655z" />
<glyph unicode="w" horiz-adv-x="1896" d="M-10 653v305q104 -2 129 -2h352q141 0 217 2v-305l-106 2l92 -262l217 565h43q20 -2 37 -2h170l18 2h31h47l190 -561l111 258l-104 -2v305q94 -2 163 -2h205q20 0 107 2v-303l-80 2l-299 -657h-389l-180 416l-177 -416h-391l-315 655z" />
<glyph unicode="x" horiz-adv-x="1212" d="M23 653v305q125 -2 139 -2h194q47 0 131 2l162 -272l170 272q68 -2 111 -2h141q57 0 100 2l3 -305l-119 2l-97 -147l136 -207l94 2v-305q-61 2 -174 2h-158q-78 0 -133 -2l-143 268l-191 -268q-82 2 -129 2h-139q-31 0 -86 -2v305l119 -2l127 164l-162 190z" />
<glyph unicode="y" horiz-adv-x="1234" d="M-10 653v305q84 -2 141 -2h307q100 0 221 2v-305l-81 2l129 -278l131 278l-82 -2v305q98 -2 170 -2h217q57 0 104 2v-305l-98 2l-481 -979q-66 2 -187 2q-150 0 -231 -2v279h108q72 0 72 33q0 14 -12 32l-357 635z" />
<glyph unicode="z" horiz-adv-x="1257" d="M23 -2v254l524 446h-285l2 -102h-233v33q0 2 1 26.5t1 46.5v80q-2 119 -2 176q184 -2 262 -2h627q121 0 286 2v-241l-524 -451h283v111h239q-2 -115 -2 -197t2 -182q-203 2 -246 2h-714q-53 0 -221 -2z" />
<glyph unicode="{" horiz-adv-x="819" d="M49 403v246q111 23 111 164v258q0 152 63.5 223.5t200.5 71.5h315v-270h-57q-109 0 -139 -19q-25 -16 -31 -33.5t-6 -74.5v-189q0 -102 -27.5 -160.5t-95.5 -93.5q68 -35 95.5 -93t27.5 -161v-188q0 -59 7 -77.5t34 -33.5q27 -16 137 -16h55v-270h-315 q-137 0 -200.5 71.5t-63.5 223.5v258q0 140 -111 163z" />
<glyph unicode="|" horiz-adv-x="1024" d="M377 -342v1708h270v-1708h-270z" />
<glyph unicode="}" horiz-adv-x="819" d="M80 -43h57q106 0 137 18q25 16 31 34t6 75v188q0 102 28 161t95 93q-68 35 -95.5 93.5t-27.5 160.5v189q0 57 -7 76.5t-34 33.5q-27 16 -135 17h-55v270h313q137 0 200.5 -71.5t63.5 -223.5v-258q0 -141 113 -164v-246q-59 -12 -86 -50t-27 -113v-258 q0 -152 -63.5 -223.5t-200.5 -71.5h-313v270z" />
<glyph unicode="~" horiz-adv-x="1366" d="M299 1255q76 139 133 194.5t127 55.5q47 0 154 -39q115 -39 161 -39q66 0 132 74l59 -35q-41 -84 -115 -174q-35 -41 -69.5 -57t-89.5 -16q-51 0 -183 53q-66 25 -116 24q-59 0 -117 -57l-19 -18z" />
<glyph unicode="&#xa1;" horiz-adv-x="663" d="M96 682v369h473v-369h-473zM102 90l68 416h324l61 -416v-403h-453v403z" />
<glyph unicode="&#xa2;" d="M43 729q0 199 120 326t339 162v174h205v-181q88 -25 159 -61l-2 53h291q-2 -133 -2 -194q0 -55 2 -199h-291q-16 76 -62 118t-112 42q-82 0 -127 -70t-45 -197q0 -111 43 -171t123 -60q131 0 164 164l340 -80q-90 -305 -481 -328v-241h-205v250q-152 25 -248 86 q-98 66 -154.5 173t-56.5 234z" />
<glyph unicode="&#xa3;" d="M61 238q0 106 70 171.5t182 65.5q45 0 125 -24q-2 70 -90 170l-262 -5v195l150 -6q-53 106 -54 184q0 170 149.5 283.5t373.5 113.5q221 0 362 -129q57 -53 83 -111.5t28 -148.5l-314 -32q-25 174 -155 174q-49 0 -83 -31t-34 -76q0 -41 29 -98l43 -92l16 -33l276 2v-195 l-225 5q23 -74 23 -143.5t-29 -143.5q59 -25 117 -25q113 0 137 115l242 -70q-31 -174 -127.5 -274t-233.5 -100q-115 0 -266 112q-115 -113 -256 -112q-115 0 -196 74.5t-81 183.5zM252 238q0 -31 23.5 -51.5t58.5 -20.5q78 0 112 98l-4 4l-2 2q-39 39 -98 39 q-41 0 -65.5 -19t-24.5 -52z" />
<glyph unicode="&#xa4;" d="M113 393l135 135l-8 23q-29 76 -29 131t29 133l8 23l-135 135l213 213l135 -135l22 8q78 29 133 28q49 0 132 -28q12 -6 22 -8l135 135l213 -213l-135 -135l8 -23q29 -78 29 -133t-29 -131l-8 -23l135 -135l-213 -213l-135 135q-90 -37 -156 -36q-59 0 -153 36l-135 -135 zM434 686q0 -78 53.5 -131t128.5 -53q74 0 127.5 53t53.5 129q0 74 -53.5 127t-127.5 53q-76 0 -129 -53t-53 -125z" />
<glyph unicode="&#xa5;" d="M98 1055v313q70 -2 103 -2h338q35 0 112 2l2 -313l-63 2l94 -264l123 264l-57 -2v313q51 -2 135 -2h166q25 0 79 2v-313l-67 2l-148 -314h107v-100h-154l-49 -104h203v-101h-203v-129l82 2v-313q-76 2 -96 2h-371q-23 0 -98 -2v313l82 -2v129h-213v101h213v16l-45 88 h-168v100h119l-162 314z" />
<glyph unicode="&#xa6;" horiz-adv-x="1024" d="M377 313h270v-655h-270v655zM377 612v754h270v-754h-270z" />
<glyph unicode="&#xa7;" horiz-adv-x="1253" d="M41 612q0 180 201 254q-135 76 -136 193q0 152 145.5 241t395.5 89q438 0 498 -326h-336q-18 109 -158 108q-66 0 -103.5 -25.5t-37.5 -70.5q0 -43 35 -70.5t147 -72.5l203 -80q319 -127 319 -342q0 -80 -37.5 -138.5t-134.5 -129.5q119 -113 119 -232q0 -70 -44 -138.5 t-116 -109.5q-156 -86 -399.5 -86t-375.5 96.5t-134 276.5h340q12 -84 53 -121t121 -37q154 0 154 119q0 86 -117 140l-278 126q-186 84 -255 155.5t-69 180.5zM387 639q0 -49 32 -79t134 -77l242 -110q72 43 71 116q0 88 -118 142l-287 131q-74 -53 -74 -123z" />
<glyph unicode="&#xa8;" horiz-adv-x="1024" d="M66 1243q0 70 55 113t141 43q82 0 136.5 -45t54.5 -110.5t-56.5 -112t-138.5 -46.5t-137 45t-55 113zM571 1243q0 70 55.5 113t141.5 43q82 0 136 -45t54 -110.5t-56 -112t-138 -46.5t-137.5 45t-55.5 113z" />
<glyph unicode="&#xa9;" horiz-adv-x="1562" d="M68 682q0 299 209.5 507t513.5 208q287 0 494.5 -211t207.5 -504q0 -295 -209 -504t-504 -209q-293 0 -502.5 210t-209.5 503zM182 682q0 -250 176.5 -428t421.5 -178q248 0 423 178t175 430q0 248 -174 427t-416 179q-254 0 -430 -176t-176 -432zM375 692 q0 174 108.5 286t274.5 112q94 0 194 -56l-2 56h205q-2 -70 -2 -113q0 -74 2 -197h-215q-20 115 -111 115q-104 0 -104 -213q0 -203 109 -203q113 0 118 170l234 -61q-29 -143 -130.5 -221t-260.5 -78q-186 0 -303 111.5t-117 291.5z" />
<glyph unicode="&#xaa;" horiz-adv-x="819" d="M18 596v117h797v-117h-797zM41 1202q27 90 111 132t245 42q174 0 255 -51t81 -160v-174l72 2v-176l-27 2h-39h-151q-59 0 -135 -2v39q-92 -49 -190.5 -49t-159 46t-60.5 122q0 80 71.5 127t194.5 47q76 0 144 -25v64q0 31 -25 49t-68 18q-72 0 -96 -59zM313 985 q0 -23 16.5 -40t39.5 -17q39 0 84 28v70q-45 20 -74 20.5t-47.5 -17t-18.5 -44.5z" />
<glyph unicode="&#xab;" horiz-adv-x="1122" d="M55 522l295 426l201 -145l-201 -281l215 -346l-203 -133zM530 522l295 426l201 -145l-201 -281l215 -346l-202 -133z" />
<glyph unicode="&#xac;" horiz-adv-x="1024" d="M53 365v182h920v-547h-428v365h-492z" />
<glyph unicode="&#xad;" horiz-adv-x="614" d="M0 313v416h614v-416h-614z" />
<glyph unicode="&#xae;" horiz-adv-x="1562" d="M68 682q0 299 209.5 507t513.5 208q287 0 494.5 -211t207.5 -504q0 -295 -209 -504t-504 -209q-293 0 -502.5 210t-209.5 503zM182 682q0 -250 176.5 -428t421.5 -178q248 0 423 178t175 430q0 248 -174 427t-416 179q-254 0 -430 -176t-176 -432zM367 299v190l57 -2v406 l-57 -2v190l36 -2h39h314q162 0 217 -14q78 -20 125 -80.5t47 -140.5q0 -119 -103 -185l99 -172l53 2v-190q-45 2 -104 2h-101q-25 0 -80 -2l-129 309h-65v-121l57 2v-190l-37 2h-39h-254h-39zM715 764q16 -2 35 -2q51 0 71.5 15.5t20.5 51.5q0 35 -20.5 50.5t-71.5 15.5 q-20 0 -35 -2v-129z" />
<glyph unicode="&#xaf;" horiz-adv-x="1024" d="M131 1145v190h762v-190h-762z" />
<glyph unicode="&#xb0;" horiz-adv-x="681" d="M68 1116q0 113 80.5 191.5t197.5 78.5q109 0 188.5 -80.5t79.5 -191.5q0 -113 -79.5 -193.5t-192.5 -80.5q-115 0 -194.5 80.5t-79.5 195.5zM246 1114q0 -39 27.5 -67.5t66.5 -28.5q41 0 68.5 27.5t27.5 68.5q0 39 -27.5 66.5t-66.5 27.5t-67.5 -27.5t-28.5 -66.5z" />
<glyph unicode="&#xb1;" d="M152 70v286h927v-286h-927zM152 735v287h309v270h309v-270h309v-287h-309v-270h-309v270h-309z" />
<glyph unicode="&#xb2;" horiz-adv-x="796" d="M41 588q0 256 278 424q90 53 111 72.5t21 54.5q0 31 -19.5 49t-50.5 18q-43 0 -63.5 -22.5t-26.5 -73.5h-238q10 100 43 152q80 117 299 116q158 0 246 -62.5t88 -172.5q0 -125 -117 -205q-53 -35 -176 -92q-98 -45 -131 -101h240l-2 82h186q-2 -57 -2 -139q0 -84 2 -143 q-94 2 -145 2h-404q-59 0 -137 -2q-2 18 -2 43z" />
<glyph unicode="&#xb3;" horiz-adv-x="796" d="M27 836l233 10q6 -131 113 -131q43 0 69.5 24.5t26.5 65.5q0 39 -30.5 66.5t-73.5 27.5q-6 0 -35 -4v147q125 0 125 82q0 35 -23.5 57.5t-58.5 22.5q-74 0 -88 -92l-240 10q12 72 31.5 110t58.5 71q94 76 254 75q156 0 246 -62.5t90 -170.5q0 -63 -39 -112.5t-94 -57.5 q66 -4 111 -57.5t45 -129.5q0 -115 -100.5 -184t-264.5 -69q-197 0 -289 102q-61 68 -67 199z" />
<glyph unicode="&#xb4;" horiz-adv-x="1024" d="M352 1092l131 286h332l-215 -286h-248z" />
<glyph unicode="&#xb5;" horiz-adv-x="1038" d="M-16 -276q0 53 20 141q68 285 68 579v492h360v-590q0 -135 14 -182q8 -20 28 -34.5t36 -14.5q37 0 100 73v748h359v-643q0 -115 17.5 -147.5t78.5 -32.5h8q12 0 35 2v-47l-330 -93q-6 -2 -14 -2q-80 0 -129 123q-78 -129 -221 -129q-78 0 -124 35t-89 129q-2 -10 -2 -22 q0 -80 88 -283q33 -76 32 -111q0 -53 -47 -90t-116 -37q-78 0 -125 37.5t-47 98.5z" />
<glyph unicode="&#xb6;" d="M51 1001q0 365 488 365h454q33 0 183 2v-229l-170 2v-1229l170 2v-229q-127 2 -170 2h-193v1454h-154v-1454h-192q-43 0 -178 -2v229l178 -2v731h-29q-150 0 -260 78q-127 90 -127 280z" />
<glyph unicode="&#xb7;" horiz-adv-x="649" d="M88 313v369h473v-369h-473z" />
<glyph unicode="&#xb8;" horiz-adv-x="1024" d="M377 -109h270v-163q0 -117 -69.5 -181.5t-194.5 -64.5v106q106 10 106 99h-112v204z" />
<glyph unicode="&#xb9;" horiz-adv-x="796" d="M172 545v203h115v350q-37 -10 -74 -11q-23 0 -41 5v194q168 0 238 96h153v-634h115v-203q-90 2 -121 2h-260q-39 0 -125 -2z" />
<glyph unicode="&#xba;" horiz-adv-x="819" d="M12 596v117h797v-117h-797zM53 1090q0 129 98.5 207.5t260.5 78.5q158 0 256 -78.5t98 -205.5t-99.5 -205t-263.5 -78q-156 0 -253 78t-97 203zM334 1087q0 -121 75.5 -120.5t75.5 125.5q0 127 -73 127q-78 -1 -78 -132z" />
<glyph unicode="&#xbb;" horiz-adv-x="1122" d="M82 176l215 346l-201 281l201 145l295 -426l-307 -479zM557 176l215 346l-201 281l201 145l295 -426l-307 -479z" />
<glyph unicode="&#xbc;" horiz-adv-x="2103" d="M172 545v203h115v350q-37 -10 -74 -11q-23 0 -41 5v194q168 0 238 96h153v-634h115v-203q-90 2 -121 2h-260q-39 0 -125 -2zM524 45l903 1362l154 -104l-903 -1360zM1331 449l379 387h264v-398h88v-166h-88v-73l88 2v-203q-59 2 -94 2h-256q-27 0 -108 -2v203l102 -2v75 h-320zM1548 438h162v164z" />
<glyph unicode="&#xbd;" horiz-adv-x="2103" d="M172 545v203h115v350q-37 -10 -74 -11q-23 0 -41 5v194q168 0 238 96h153v-634h115v-203q-90 2 -121 2h-260q-39 0 -125 -2zM524 45l903 1362l154 -104l-903 -1360zM1350 -2v43q0 258 278 424q88 53 109.5 74.5t21.5 56.5q0 29 -19.5 47.5t-51.5 18.5q-80 0 -89 -97h-237 q8 96 43 150q80 117 297 116q158 0 247 -62t89 -171q0 -127 -117 -207q-43 -31 -178 -92q-94 -43 -131 -100h239v82h187q-2 -57 -2 -140q0 -84 2 -143q-96 2 -148 2h-401q-59 0 -139 -2z" />
<glyph unicode="&#xbe;" horiz-adv-x="2103" d="M27 836l233 10q6 -131 113 -131q43 0 69.5 24.5t26.5 65.5q0 39 -30.5 66.5t-73.5 27.5q-6 0 -35 -4v147q125 0 125 82q0 35 -23.5 57.5t-58.5 22.5q-74 0 -88 -92l-240 10q12 72 31.5 110t58.5 71q94 76 254 75q156 0 246 -62.5t90 -170.5q0 -63 -39 -112.5t-94 -57.5 q66 -4 111 -57.5t45 -129.5q0 -115 -100.5 -184t-264.5 -69q-197 0 -289 102q-61 68 -67 199zM524 45l901 1362l156 -104l-903 -1360zM1329 449l381 387h264v-398h88v-166h-88v-73l88 2v-203q-59 2 -94 2h-256q-27 0 -110 -2v203l104 -2v75h-322zM1546 438h164v164z" />
<glyph unicode="&#xbf;" horiz-adv-x="1243" d="M55 68q0 94 48.5 172.5t129.5 121.5q94 49 273 58l22 102h258l7 -160q4 -106 12 -167q-68 27 -131 26q-74 0 -119 -38t-45 -101q0 -59 39 -97t100 -38q123 0 152 121h387q-31 -178 -144 -267q-147 -115 -430 -114q-260 0 -409.5 102.5t-149.5 278.5zM410 702v369h473 v-369h-473z" />
<glyph unicode="&#xc0;" horiz-adv-x="1327" d="M-14 -2v313l75 -2l226 748l-94 -2v313q117 -2 159 -2h549q111 0 240 2v-313l-97 2l220 -748l71 2l4 -313q-53 2 -135 2h-354q-63 0 -182 -2v295l108 -2l-43 178h-311l-55 -178l110 2v-295q-115 2 -198 2h-189q-30 0 -104 -2zM328 1782h340l131 -287h-254zM477 655h211 l-92 379z" />
<glyph unicode="&#xc1;" horiz-adv-x="1327" d="M-14 -2v313l75 -2l226 748l-94 -2v313q117 -2 159 -2h549q111 0 240 2v-313l-97 2l220 -748l71 2l4 -313q-53 2 -135 2h-354q-63 0 -182 -2v295l108 -2l-43 178h-311l-55 -178l110 2v-295q-115 2 -198 2h-189q-30 0 -104 -2zM477 655h211l-92 379zM557 1495l131 287h340 l-217 -287h-254z" />
<glyph unicode="&#xc2;" horiz-adv-x="1327" d="M-14 -2v313l75 -2l226 748l-94 -2v313q117 -2 159 -2h549q111 0 240 2v-313l-97 2l220 -748l71 2l4 -313q-53 2 -135 2h-354q-63 0 -182 -2v295l108 -2l-43 178h-311l-55 -178l110 2v-295q-115 2 -198 2h-189q-30 0 -104 -2zM266 1495l211 287h406l211 -287h-301 l-113 160l-113 -160h-301zM477 655h211l-92 379z" />
<glyph unicode="&#xc3;" horiz-adv-x="1327" d="M-14 -2v313l75 -2l226 748l-94 -2v313q117 -2 159 -2h549q111 0 240 2v-313l-97 2l220 -748l71 2l4 -313q-53 2 -135 2h-354q-63 0 -182 -2v295l108 -2l-43 178h-311l-55 -178l110 2v-295q-115 2 -198 2h-189q-30 0 -104 -2zM279 1599q102 186 268 187q61 0 158 -41 q102 -45 139 -45q61 0 117 82l153 -101q-45 -90 -94 -131q-68 -55 -160 -55q-57 0 -217 59q-66 25 -94 25q-33 0 -58.5 -17.5t-60.5 -64.5zM477 655h211l-92 379z" />
<glyph unicode="&#xc4;" horiz-adv-x="1327" d="M-14 -2v313l75 -2l226 748l-94 -2v313q117 -2 159 -2h549q111 0 240 2v-313l-97 2l220 -748l71 2l4 -313q-53 2 -135 2h-354q-63 0 -182 -2v295l108 -2l-43 178h-311l-55 -178l110 2v-295q-115 2 -198 2h-189q-30 0 -104 -2zM215 1645q0 70 55.5 112.5t145.5 42.5 q82 0 137 -44t55 -109.5t-57 -111.5t-139 -46q-84 0 -140.5 45t-56.5 111zM477 655h211l-92 379zM737 1645q0 70 55.5 112.5t145.5 42.5q84 0 139.5 -44t55.5 -109.5t-57.5 -111.5t-141.5 -46t-140.5 45t-56.5 111z" />
<glyph unicode="&#xc5;" horiz-adv-x="1327" d="M-14 -2v313l75 -2l226 748l-94 -2v313q117 -2 159 -2h549q111 0 240 2v-313l-97 2l220 -748l71 2l4 -313q-53 2 -135 2h-354q-63 0 -182 -2v295l108 -2l-43 178h-311l-55 -178l110 2v-295q-115 2 -198 2h-189q-30 0 -104 -2zM410 1645q0 80 72.5 134t181.5 54 q102 0 174.5 -53.5t72.5 -128.5q0 -78 -74.5 -134.5t-179 -56.5t-176 53.5t-71.5 131.5zM477 655h211l-92 379zM582 1646.5q0 -34.5 21.5 -56t56 -21.5t57 21.5t22.5 54t-22.5 56t-54.5 23.5q-35 0 -57.5 -21.5t-22.5 -56z" />
<glyph unicode="&#xc6;" horiz-adv-x="1986" d="M-14 -2v315l84 -4l331 748l-102 -2v313q78 -2 217 -2h1210q82 0 211 2v-242v-213h-329v136h-258v-228h237v-280h-237v-224h256l-2 134h335q-2 -66 -2 -215q0 -166 2 -238q-82 2 -258 2h-852q-31 0 -124 -2v313l110 -2v242h-307l-100 -242l108 2v-313q-72 2 -158 2h-284 q-49 0 -88 -2zM618 809h197v264h-82z" />
<glyph unicode="&#xc7;" horiz-adv-x="1435" d="M41 690q0 268 135 447q88 115 226.5 182t287.5 67q178 0 348 -112l-4 110h328v-53v-153q0 -119 2 -320h-352q-18 100 -68.5 152.5t-126.5 52.5q-102 0 -149 -98q-47 -100 -47 -293q0 -219 59 -305q51 -72 141 -72q115 0 174 111q35 70 41 192l379 -106 q-47 -244 -221 -378t-440 -134q-262 0 -455 145q-258 196 -258 565zM606 -109h277v-163q0 -115 -71 -180.5t-196 -65.5v106q102 10 107 99h-117v204z" />
<glyph unicode="&#xc8;" horiz-adv-x="1347" d="M68 -2v313l108 -2v748l-108 -2v313q80 -2 118 -2h893q102 0 219 2q-2 -74 -2 -209q0 -156 2 -239h-335v129h-254v-228h237v-276h-237v-228h258l-2 129h333q-2 -119 -2 -231q0 -106 2 -217q-10 0 -22 1t-18.5 2t-8.5 1l-164 -2h-899q-36 0 -118 -2zM373 1782h340l131 -287 h-254z" />
<glyph unicode="&#xc9;" horiz-adv-x="1347" d="M68 -2v313l108 -2v748l-108 -2v313q80 -2 118 -2h893q102 0 219 2q-2 -74 -2 -209q0 -156 2 -239h-335v129h-254v-228h237v-276h-237v-228h258l-2 129h333q-2 -119 -2 -231q0 -106 2 -217q-10 0 -22 1t-18.5 2t-8.5 1l-164 -2h-899q-36 0 -118 -2zM618 1495l132 287h340 l-218 -287h-254z" />
<glyph unicode="&#xca;" horiz-adv-x="1347" d="M68 -2v313l108 -2v748l-108 -2v313q80 -2 118 -2h893q102 0 219 2q-2 -74 -2 -209q0 -156 2 -239h-335v129h-254v-228h237v-276h-237v-228h258l-2 129h333q-2 -119 -2 -231q0 -106 2 -217q-10 0 -22 1t-18.5 2t-8.5 1l-164 -2h-899q-36 0 -118 -2zM311 1495l211 287h406 l211 -287h-301l-113 160l-113 -160h-301z" />
<glyph unicode="&#xcb;" horiz-adv-x="1347" d="M68 -2v313l108 -2v748l-108 -2v313q80 -2 118 -2h893q102 0 219 2q-2 -74 -2 -209q0 -156 2 -239h-335v129h-254v-228h237v-276h-237v-228h258l-2 129h333q-2 -119 -2 -231q0 -106 2 -217q-10 0 -22 1t-18.5 2t-8.5 1l-164 -2h-899q-36 0 -118 -2zM266 1645 q0 70 55.5 112.5t145.5 42.5q82 0 137 -44t55 -109.5t-57 -111.5t-139 -46q-84 0 -140.5 45t-56.5 111zM788 1645q0 70 55.5 112.5t145.5 42.5q84 0 139.5 -44t55.5 -109.5t-57.5 -111.5t-141.5 -46t-140.5 45t-56.5 111z" />
<glyph unicode="&#xcc;" horiz-adv-x="915" d="M82 -2v313l108 -2v748l-108 -2v313q74 -2 115 -2h520q39 0 117 2v-313l-111 2v-748l111 2v-313q-80 2 -121 2h-516q-39 0 -115 -2zM127 1782h340l131 -287h-254z" />
<glyph unicode="&#xcd;" horiz-adv-x="915" d="M82 -2v313l108 -2v748l-108 -2v313q74 -2 115 -2h520q39 0 117 2v-313l-111 2v-748l111 2v-313q-80 2 -121 2h-516q-39 0 -115 -2zM365 1495l131 287h340l-218 -287h-253z" />
<glyph unicode="&#xce;" horiz-adv-x="915" d="M78 1495l196 287h408l197 -287h-297l-105 160l-102 -160h-297zM82 -2v313l108 -2v748l-108 -2v313q74 -2 115 -2h520q39 0 117 2v-313l-111 2v-748l111 2v-313q-80 2 -121 2h-516q-39 0 -115 -2z" />
<glyph unicode="&#xcf;" horiz-adv-x="915" d="M72 1645q0 70 54 112.5t138 42.5q80 0 133.5 -44t53.5 -109.5t-55.5 -111.5t-135.5 -46t-134 45t-54 111zM82 -2v313l111 -2v748l-111 -2v313q76 -2 117 -2h520q39 0 115 2v-313l-109 2v-748l109 2v-313q-80 2 -119 2h-516q-39 0 -117 -2zM520 1645q0 70 54.5 112.5 t138.5 42.5q80 0 133 -44t53 -109.5t-55.5 -111.5t-135 -46t-134 45t-54.5 111z" />
<glyph unicode="&#xd0;" horiz-adv-x="1617" d="M68 -2v313l108 -4v279h-108v194h108v277l-108 -2v313q98 -2 127 -2h514q236 0 335 -18.5t195 -77.5q158 -98 250 -257t92 -335q0 -205 -119 -378t-307 -247q-139 -53 -401 -53h-559q-31 0 -127 -2zM709 317h24q152 0 210 75t58 267q0 219 -53 301t-194 82h-45v-262h135 v-194h-135v-269z" />
<glyph unicode="&#xd1;" horiz-adv-x="1579" d="M68 -2v313l108 -2v748l-108 -2v313q98 -2 127 -2h305q61 0 194 2l406 -659v348l-109 -2v313q115 -2 131 -2h273q27 0 129 2v-313l-111 2v-1057h-459l-465 737v-428l111 2v-313q-90 2 -125 2h-280q-31 0 -127 -2zM446 1599q102 186 269 187q61 0 157 -41q102 -45 140 -45 q61 0 116 82l154 -101q-45 -90 -94 -131q-68 -55 -160 -55q-57 0 -217 59q-66 25 -94 25q-33 0 -58.5 -17.5t-60.5 -64.5z" />
<glyph unicode="&#xd2;" horiz-adv-x="1564" d="M41 678q0 303 214 505.5t533 202.5q215 0 406 -114q162 -94 246 -247t84 -345q0 -305 -209 -502.5t-537 -197.5q-317 0 -527 198.5t-210 499.5zM444 1782h340l131 -287h-253zM621 670q0 -205 36.5 -293t122.5 -88q84 0 125 84q39 88 39 268q0 240 -37 338t-125 98 q-90 0 -125.5 -90t-35.5 -317z" />
<glyph unicode="&#xd3;" horiz-adv-x="1564" d="M41 678q0 303 214 505.5t533 202.5q215 0 406 -114q162 -94 246 -247t84 -345q0 -305 -209 -502.5t-537 -197.5q-317 0 -527 198.5t-210 499.5zM621 670q0 -205 36.5 -293t122.5 -88q84 0 125 84q39 88 39 268q0 240 -37 338t-125 98q-90 0 -125.5 -90t-35.5 -317z M676 1495l131 287h340l-217 -287h-254z" />
<glyph unicode="&#xd4;" horiz-adv-x="1564" d="M41 678q0 303 214 505.5t533 202.5q215 0 406 -114q162 -94 246 -247t84 -345q0 -305 -209 -502.5t-537 -197.5q-317 0 -527 198.5t-210 499.5zM375 1495l211 287h405l211 -287h-301l-113 160l-112 -160h-301zM621 670q0 -205 36.5 -293t122.5 -88q84 0 125 84 q39 88 39 268q0 240 -37 338t-125 98q-90 0 -125.5 -90t-35.5 -317z" />
<glyph unicode="&#xd5;" horiz-adv-x="1564" d="M41 678q0 303 214 505.5t533 202.5q215 0 406 -114q162 -94 246 -247t84 -345q0 -305 -209 -502.5t-537 -197.5q-317 0 -527 198.5t-210 499.5zM426 1599q102 186 268 187q61 0 158 -41q102 -45 139 -45q61 0 117 82l154 -101q-45 -90 -95 -131q-68 -55 -159 -55 q-57 0 -217 59q-66 25 -95 25q-33 0 -58.5 -17.5t-59.5 -64.5zM621 670q0 -205 36.5 -293t122.5 -88q84 0 125 84q39 88 39 268q0 240 -37 338t-125 98q-90 0 -125.5 -90t-35.5 -317z" />
<glyph unicode="&#xd6;" horiz-adv-x="1564" d="M41 678q0 303 214 505.5t533 202.5q215 0 406 -114q162 -94 246 -247t84 -345q0 -305 -209 -502.5t-537 -197.5q-317 0 -527 198.5t-210 499.5zM344 1645q0 70 55.5 112.5t145.5 42.5q82 0 137 -44t55 -109.5t-57 -111.5t-139 -46q-84 0 -140.5 45t-56.5 111zM621 670 q0 -205 36.5 -293t122.5 -88q84 0 125 84q39 88 39 268q0 240 -37 338t-125 98q-90 0 -125.5 -90t-35.5 -317zM866 1645q0 70 55.5 112.5t145.5 42.5q84 0 139.5 -44t55.5 -109.5t-57.5 -111.5t-141.5 -46t-140.5 45t-56.5 111z" />
<glyph unicode="&#xd7;" d="M143 424l258 258l-258 260l213 213l258 -260l260 260l213 -213l-260 -260l260 -258l-213 -213l-260 258l-258 -258z" />
<glyph unicode="&#xd8;" horiz-adv-x="1564" d="M41 680q0 158 66.5 298t187.5 239q96 78 226 123.5t257 45.5q184 0 340 -75q45 -20 135 -82l172 160l93 -107l-156 -152q160 -178 160 -448q0 -383 -299 -576q-195 -127 -441 -126q-268 0 -477 155l-176 -170l-86 109l160 157q-162 189 -162 449zM621 612l305 310 q-20 86 -52 120.5t-92 34.5q-61 0 -97 -45t-52 -141q-12 -72 -12 -279zM633 444q20 -74 29 -88q35 -68 116 -67q141 0 160 227q4 51 4 240z" />
<glyph unicode="&#xd9;" horiz-adv-x="1404" d="M61 1055v313q121 -2 136 -2h450q33 0 127 2v-313l-72 2v-604q0 -160 113 -160q61 0 89 43t28 137v584l-68 -2v313q88 -2 123 -2h234q25 0 133 2v-313l-109 2v-570q0 -129 -30.5 -216t-102.5 -158q-135 -133 -387 -133q-281 0 -418 143q-137 139 -137 383v551zM424 1782 h340l131 -287h-254z" />
<glyph unicode="&#xda;" horiz-adv-x="1404" d="M61 1055v313q121 -2 136 -2h450q33 0 127 2v-313l-72 2v-604q0 -160 113 -160q61 0 89 43t28 137v584l-68 -2v313q88 -2 123 -2h234q25 0 133 2v-313l-109 2v-570q0 -129 -30.5 -216t-102.5 -158q-135 -133 -387 -133q-281 0 -418 143q-137 139 -137 383v551zM649 1495 l131 287h340l-217 -287h-254z" />
<glyph unicode="&#xdb;" horiz-adv-x="1404" d="M61 1055v313q121 -2 136 -2h450q33 0 127 2v-313l-72 2v-604q0 -160 113 -160q61 0 89 43t28 137v584l-68 -2v313q88 -2 123 -2h234q25 0 133 2v-313l-109 2v-570q0 -129 -30.5 -216t-102.5 -158q-135 -133 -387 -133q-281 0 -418 143q-137 139 -137 383v551zM356 1495 l211 287h406l211 -287h-301l-113 160l-113 -160h-301z" />
<glyph unicode="&#xdc;" horiz-adv-x="1404" d="M61 1055v313q121 -2 136 -2h450q33 0 127 2v-313l-72 2v-604q0 -160 113 -160q61 0 89 43t28 137v584l-68 -2v313q88 -2 123 -2h234q25 0 133 2v-313l-109 2v-570q0 -129 -30.5 -216t-102.5 -158q-135 -133 -387 -133q-281 0 -418 143q-137 139 -137 383v551zM311 1645 q0 70 55.5 112.5t145.5 42.5q82 0 137.5 -44t55.5 -109.5t-57.5 -111.5t-139.5 -46q-84 0 -140.5 45t-56.5 111zM834 1645q0 70 55 112.5t145 42.5q84 0 139.5 -44t55.5 -109.5t-57.5 -111.5t-141.5 -46t-140 45t-56 111z" />
<glyph unicode="&#xdd;" horiz-adv-x="1329" d="M-14 1055v313q92 -2 135 -2h442q47 0 150 2l2 -313l-84 2l125 -264l159 264l-73 -2v313q68 -2 178 -2h219q31 0 104 2v-313l-86 2l-325 -520v-228l110 2v-313q-102 2 -129 2h-487q-27 0 -129 -2v313l109 -2v246l-338 502zM627 1495l131 287h340l-217 -287h-254z" />
<glyph unicode="&#xde;" horiz-adv-x="1548" d="M68 -2v313l108 -2v748l-108 -2v313q78 -2 116 -2h525v-123q332 -4 397 -10q213 -18 330 -158q92 -109 92 -254q0 -115 -56.5 -211t-152.5 -145q-78 -41 -162 -55.5t-250 -14.5q-139 0 -198 -2v-84l131 2v-313q-90 2 -131 2h-525q-36 0 -116 -2zM709 680l30 2l64 4 q33 2 47 3l30 2q15 1 21 3t13.5 5t13.5 10q45 39 45 110q0 66 -45 99q-27 18 -51.5 22t-137.5 4h-30v-264z" />
<glyph unicode="&#xdf;" horiz-adv-x="1435" d="M25 -2v305l120 -2v696q0 207 132.5 298t431.5 91q248 0 376 -55q84 -37 133.5 -112.5t49.5 -169.5q0 -145 -131 -240q121 -27 186.5 -130.5t65.5 -266.5q0 -240 -127 -344q-96 -82 -304 -82q-94 0 -178 12v305q88 0 121 36t33 130q0 113 -38 161t-126 48q-29 0 -47 -2 v223q117 2 117 121q0 147 -111 147q-61 0 -88 -32.5t-27 -108.5v-725l97 2v-305h-33q-14 0 -29.5 1t-23.5 1h-11h-491h-10q-8 0 -23.5 -1t-30.5 -1h-34z" />
<glyph unicode="&#xe0;" horiz-adv-x="1374" d="M61 670q43 162 186.5 234.5t418.5 72.5q291 0 434 -94q135 -86 135 -275v-307l121 2v-305h-45h-20q-9 0 -17 1t-13 1h-10h-4h-258q-106 0 -229 -2v65q-158 -84 -322 -83q-168 0 -269 80.5t-101 213.5q0 137 102 209q133 94 346 95q125 0 244 -41v110q0 53 -42 85t-114 32 q-121 0 -164 -105zM340 1378h332l131 -286h-246zM526 289q0 -41 28 -71t64 -30q61 0 142 50v124q-74 35 -123 35q-47 0 -79 -30.5t-32 -77.5z" />
<glyph unicode="&#xe1;" horiz-adv-x="1374" d="M61 670q43 162 186.5 234.5t418.5 72.5q291 0 434 -94q135 -86 135 -275v-307l121 2v-305h-45h-20q-9 0 -17 1t-13 1h-10h-4h-258q-106 0 -229 -2v65q-158 -84 -322 -83q-168 0 -269 80.5t-101 213.5q0 137 102 209q133 94 346 95q125 0 244 -41v110q0 53 -42 85t-114 32 q-121 0 -164 -105zM526 289q0 -41 28 -71t64 -30q61 0 142 50v124q-74 35 -123 35q-47 0 -79 -30.5t-32 -77.5zM586 1092l131 286h332l-215 -286h-248z" />
<glyph unicode="&#xe2;" horiz-adv-x="1374" d="M61 670q43 162 186.5 234.5t418.5 72.5q291 0 434 -94q135 -86 135 -275v-307l121 2v-305h-45h-20q-9 0 -17 1t-13 1h-10h-4h-258q-106 0 -229 -2v65q-158 -84 -322 -83q-168 0 -269 80.5t-101 213.5q0 137 102 209q133 94 346 95q125 0 244 -41v110q0 53 -42 85t-114 32 q-121 0 -164 -105zM307 1092l211 286h379l211 -286h-287l-114 159l-113 -159h-287zM526 289q0 -41 28 -71t64 -30q61 0 142 50v124q-74 35 -123 35q-47 0 -79 -30.5t-32 -77.5z" />
<glyph unicode="&#xe3;" horiz-adv-x="1374" d="M61 670q43 162 186.5 234.5t418.5 72.5q291 0 434 -94q135 -86 135 -275v-307l121 2v-305h-45h-20q-9 0 -17 1t-13 1h-10h-4h-258q-106 0 -229 -2v65q-158 -84 -322 -83q-168 0 -269 80.5t-101 213.5q0 137 102 209q133 94 346 95q125 0 244 -41v110q0 53 -42 85t-114 32 q-121 0 -164 -105zM324 1198q102 186 268 186q45 0 85 -13t140 -60q25 -12 55 -13q63 0 119 82l154 -102q-45 -90 -94 -129q-72 -55 -160 -55q-51 0 -139 34q-119 49 -160 50q-33 0 -57.5 -17.5t-59.5 -64.5zM526 289q0 -41 28 -71t64 -30q61 0 142 50v124q-74 35 -123 35 q-47 0 -79 -30.5t-32 -77.5z" />
<glyph unicode="&#xe4;" horiz-adv-x="1374" d="M61 670q43 162 186.5 234.5t418.5 72.5q291 0 434 -94q135 -86 135 -275v-307l121 2v-305h-45h-20q-9 0 -17 1t-13 1h-10h-4h-258q-106 0 -229 -2v65q-158 -84 -322 -83q-168 0 -269 80.5t-101 213.5q0 137 102 209q133 94 346 95q125 0 244 -41v110q0 53 -42 85t-114 32 q-121 0 -164 -105zM291 1243q0 70 55 113t141 43q82 0 136.5 -45t54.5 -110.5t-56.5 -112t-138.5 -46.5t-137 45t-55 113zM526 289q0 -41 28 -71t64 -30q61 0 142 50v124q-74 35 -123 35q-47 0 -79 -30.5t-32 -77.5zM797 1243q0 70 55 113t141 43q82 0 136.5 -45 t54.5 -110.5t-56.5 -112t-138.5 -46.5t-137 45t-55 113z" />
<glyph unicode="&#xe5;" horiz-adv-x="1374" d="M61 670q43 162 186.5 234.5t418.5 72.5q291 0 434 -94q135 -86 135 -275v-307l121 2v-305h-45h-20q-9 0 -17 1t-13 1h-10h-4h-258q-106 0 -229 -2v65q-158 -84 -322 -83q-168 0 -269 80.5t-101 213.5q0 137 102 209q133 94 346 95q125 0 244 -41v110q0 53 -42 85t-114 32 q-121 0 -164 -105zM457 1249q0 80 72.5 134.5t181.5 54.5q102 0 174.5 -53.5t72.5 -129.5q0 -78 -74.5 -134t-179 -56t-176 53t-71.5 131zM526 289q0 -41 28 -71t64 -30q61 0 142 50v124q-74 35 -123 35q-47 0 -79 -30.5t-32 -77.5zM629 1251.5q0 -34.5 21.5 -56t56 -21.5 t57 21.5t22.5 54t-22.5 56t-54.5 23.5q-35 0 -57.5 -21.5t-22.5 -56z" />
<glyph unicode="&#xe6;" horiz-adv-x="1949" d="M61 276.5q0 133.5 123 216t318 82.5q135 0 254 -38v92q0 70 -40 107.5t-116 37.5q-109 0 -158 -106l-381 14q29 115 103 172q156 123 452 123q262 0 428 -64q119 63 285 64q217 0 363 -90q225 -137 225 -391q0 -18 -4 -72h-694q0 -94 26 -141q33 -63 119 -64 q98 0 135 100l408 -53q-84 -150 -214 -218t-327 -68q-291 0 -457 147q-193 -147 -430 -147q-186 0 -302 81.5t-116 215zM518 295q0 -47 28.5 -76t76.5 -29q51 0 133 41v140q-72 35 -127 35q-49 0 -80 -30t-31 -81zM1217 573h245q-2 88 -29.5 127t-91.5 39q-124 0 -124 -166z " />
<glyph unicode="&#xe7;" horiz-adv-x="1224" d="M43 485q0 215 153.5 353.5t393.5 138.5q141 0 276 -74l-2 53h291q-2 -137 -2 -194q0 -63 2 -199h-291q-37 160 -174 160q-82 0 -127 -69.5t-45 -196.5q0 -111 43 -171.5t123 -60.5q131 0 164 166l340 -82q-106 -330 -539 -329q-246 0 -395 96q-98 63 -154.5 171.5 t-56.5 237.5zM500 -109h270v-163q0 -117 -68.5 -181.5t-193.5 -64.5v106q102 10 106 99h-114v204z" />
<glyph unicode="&#xe8;" horiz-adv-x="1247" d="M43 469q0 219 169 363.5t427 144.5q252 0 412.5 -144.5t160.5 -373.5v-43h-702q0 -195 145 -195q86 0 136 103l407 -48q-147 -297 -551 -296q-272 0 -438 134t-166 355zM301 1378h332l131 -286h-246zM512 575h242q-6 162 -123 162t-119 -162z" />
<glyph unicode="&#xe9;" horiz-adv-x="1247" d="M43 469q0 219 169 363.5t427 144.5q252 0 412.5 -144.5t160.5 -373.5v-43h-702q0 -195 145 -195q86 0 136 103l407 -48q-147 -297 -551 -296q-272 0 -438 134t-166 355zM512 575h242q-6 162 -123 162t-119 -162zM526 1092l131 286h332l-215 -286h-248z" />
<glyph unicode="&#xea;" horiz-adv-x="1247" d="M43 469q0 219 169 363.5t427 144.5q252 0 412.5 -144.5t160.5 -373.5v-43h-702q0 -195 145 -195q86 0 136 103l407 -48q-147 -297 -551 -296q-272 0 -438 134t-166 355zM254 1092l211 286h379l211 -286h-287l-115 159l-112 -159h-287zM512 575h242q-6 162 -123 162 t-119 -162z" />
<glyph unicode="&#xeb;" horiz-adv-x="1247" d="M43 469q0 219 169 363.5t427 144.5q252 0 412.5 -144.5t160.5 -373.5v-43h-702q0 -195 145 -195q86 0 136 103l407 -48q-147 -297 -551 -296q-272 0 -438 134t-166 355zM217 1243q0 70 55.5 113t141.5 43q82 0 136 -45t54 -110.5t-56 -112t-138 -46.5t-137.5 45 t-55.5 113zM512 575h242q-6 162 -123 162t-119 -162zM723 1243q0 70 55.5 113t141.5 43q82 0 136 -45t54 -110.5t-56.5 -112t-138 -46.5t-137 45t-55.5 113z" />
<glyph unicode="&#xec;" horiz-adv-x="784" d="M43 -2v305l121 -2v356l-121 -2v306q80 -2 98 -3l197 -2h39q12 0 62 1t100 1h94v-657l119 2v-305h-58h-15h-13h-12q-5 0 -9 1t-7 1h-5h-2h-488h-8q-10 0 -25.5 -1t-29.5 -1h-37zM49 1378h332l131 -286h-246z" />
<glyph unicode="&#xed;" horiz-adv-x="784" d="M43 -2v305l121 -2v356l-121 -2v306q80 -2 98 -3l197 -2h39q12 0 62 1t100 1h94v-657l119 2v-305h-58h-15h-13h-12q-5 0 -9 1t-7 1h-5h-2h-488h-8q-10 0 -25.5 -1t-29.5 -1h-37zM301 1092l131 286h332l-215 -286h-248z" />
<glyph unicode="&#xee;" horiz-adv-x="784" d="M4 1092l197 286h379l198 -286h-284l-103 159l-104 -159h-283zM43 -2v305l121 -2v356l-121 -2v306q80 -2 98 -3l197 -2h39q12 0 62 1t100 1h94v-657l119 2v-305h-58h-15h-13h-12q-5 0 -9 1t-7 1h-5h-2h-488h-8q-10 0 -25.5 -1t-29.5 -1h-37z" />
<glyph unicode="&#xef;" horiz-adv-x="784" d="M2 1243q0 70 53.5 113t137.5 43q78 0 131 -45t53 -110.5t-54.5 -112t-134.5 -46.5q-78 0 -132 45t-54 113zM45 -2v305l119 -2v356l-119 -2v306q78 -2 96 -3l197 -2h39q12 0 62 1t100 1h94v-657l121 2v-305h-60l-63 2h-486h-10q-8 0 -23.5 -1t-29.5 -1h-37zM451 1243 q0 70 53 113t137 43q78 0 131 -45t53 -110.5t-54 -112t-134 -46.5q-78 0 -132 45t-54 113z" />
<glyph unicode="&#xf0;" horiz-adv-x="1294" d="M43 471q0 219 158 348q78 63 184.5 102.5t200.5 39.5q29 0 51 -3q-31 47 -96 121l-164 -75l-49 98l137 65q-59 59 -123 115l348 119l105 -86l168 80l55 -103l-141 -65q98 -92 198 -238q174 -258 174 -504q0 -231 -167 -368t-445 -137q-264 0 -429 136t-165 355zM518 467 q0 -211 127 -211q129 0 129 217q0 225 -123 225q-133 0 -133 -231z" />
<glyph unicode="&#xf1;" horiz-adv-x="1480" d="M43 -2v305l121 -2v354l-121 -2v305q63 -2 98 -2h236q117 0 258 2l-4 -120q78 61 183.5 100t193.5 39q166 0 264 -121q72 -92 71 -233v-322l119 2v-305h-47q-16 0 -30.5 1t-24.5 1h-8h-209q-127 0 -269 -2v514q0 72 -22 100q-33 37 -88 37q-59 0 -131 -49v-299l119 2v-305 q-51 2 -84 2h-527h-10q-8 0 -23.5 -1t-29.5 -1h-35zM377 1198q102 186 268 186q45 0 85 -13t140 -60q25 -12 56 -13q63 0 118 82l154 -102q-45 -90 -94 -129q-72 -55 -160 -55q-51 0 -139 34q-119 49 -160 50q-33 0 -57.5 -17.5t-59.5 -64.5z" />
<glyph unicode="&#xf2;" horiz-adv-x="1294" d="M43 473q0 227 167 365.5t441 138.5q268 0 433 -139.5t165 -362.5t-168 -359t-444 -136q-264 0 -429 137t-165 356zM319 1378h332l131 -286h-245zM518 467q0 -211 127 -211q129 0 129 219q0 225 -123 225q-70 0 -101.5 -56t-31.5 -177z" />
<glyph unicode="&#xf3;" horiz-adv-x="1294" d="M43 473q0 227 167 365.5t441 138.5q268 0 433 -139.5t165 -362.5t-168 -359t-444 -136q-264 0 -429 137t-165 356zM518 467q0 -211 127 -211q129 0 129 219q0 225 -123 225q-70 0 -101.5 -56t-31.5 -177zM551 1092l131 286h332l-215 -286h-248z" />
<glyph unicode="&#xf4;" horiz-adv-x="1294" d="M43 473q0 227 167 365.5t441 138.5q268 0 433 -139.5t165 -362.5t-168 -359t-444 -136q-264 0 -429 137t-165 356zM254 1092l211 286h379l211 -286h-287l-115 159l-112 -159h-287zM518 467q0 -211 127 -211q129 0 129 219q0 225 -123 225q-70 0 -101.5 -56t-31.5 -177z " />
<glyph unicode="&#xf5;" horiz-adv-x="1294" d="M43 473q0 227 167 365.5t441 138.5q268 0 433 -139.5t165 -362.5t-168 -359t-444 -136q-264 0 -429 137t-165 356zM291 1198q102 186 268 186q45 0 85 -13t140 -60q25 -12 56 -13q63 0 118 82l154 -102q-45 -90 -94 -129q-72 -55 -160 -55q-51 0 -139 34q-119 49 -160 50 q-33 0 -57.5 -17.5t-59.5 -64.5zM518 467q0 -211 127 -211q129 0 129 219q0 225 -123 225q-70 0 -101.5 -56t-31.5 -177z" />
<glyph unicode="&#xf6;" horiz-adv-x="1294" d="M43 473q0 227 167 365.5t441 138.5q268 0 433 -139.5t165 -362.5t-168 -359t-444 -136q-264 0 -429 137t-165 356zM221 1243q0 70 55.5 113t141.5 43q82 0 136 -45t54 -110.5t-56 -112t-138 -46.5t-137.5 45t-55.5 113zM518 467q0 -211 127 -211q129 0 129 219 q0 225 -123 225q-70 0 -101.5 -56t-31.5 -177zM727 1243q0 70 55.5 113t141.5 43q82 0 136 -45t54 -110.5t-56.5 -112t-138 -46.5t-137 45t-55.5 113z" />
<glyph unicode="&#xf7;" d="M152 539v286h927v-286h-927zM436 270.5q0 73.5 52.5 126t127.5 52.5q72 0 124.5 -52.5t52.5 -126t-52.5 -126t-126 -52.5t-126 52.5t-52.5 126zM436 1095.5q0 73.5 52.5 126t127.5 52.5q72 0 124.5 -52.5t52.5 -126t-52.5 -125.5t-126 -52t-126 52t-52.5 125.5z" />
<glyph unicode="&#xf8;" horiz-adv-x="1294" d="M57 473q0 225 166 364.5t434 139.5q223 0 383 -96l136 118l86 -92l-121 -108q123 -137 123 -324q0 -223 -168 -359t-441 -136q-215 0 -364 90l-144 -123l-77 96l118 107q-131 133 -131 323zM532 477q0 -33 3 -57l227 221q-33 59 -98 59q-132 0 -132 -223zM565 307 q37 -51 94 -51q129 0 129 215v51z" />
<glyph unicode="&#xf9;" horiz-adv-x="1460" d="M18 653v305q100 -2 113 -2h244q145 0 233 2v-505q0 -139 105 -140q37 0 114 39l21 10v293l-119 -2v305q70 -2 100 -2h236q127 0 252 2v-657l121 2v-305h-41q-16 0 -30.5 1t-23.5 1h-10h-268q-88 0 -225 -2l2 106q-213 -125 -361 -124q-176 0 -274 126q-39 51 -53.5 110.5 t-14.5 176.5v262zM387 1378h332l131 -286h-246z" />
<glyph unicode="&#xfa;" horiz-adv-x="1460" d="M18 653v305q100 -2 113 -2h244q145 0 233 2v-505q0 -139 105 -140q37 0 114 39l21 10v293l-119 -2v305q70 -2 100 -2h236q127 0 252 2v-657l121 2v-305h-41q-16 0 -30.5 1t-23.5 1h-10h-268q-88 0 -225 -2l2 106q-213 -125 -361 -124q-176 0 -274 126q-39 51 -53.5 110.5 t-14.5 176.5v262zM604 1092l131 286h332l-215 -286h-248z" />
<glyph unicode="&#xfb;" horiz-adv-x="1460" d="M18 653v305q100 -2 113 -2h244q145 0 233 2v-505q0 -139 105 -140q37 0 114 39l21 10v293l-119 -2v305q70 -2 100 -2h236q127 0 252 2v-657l121 2v-305h-41q-16 0 -30.5 1t-23.5 1h-10h-268q-88 0 -225 -2l2 106q-213 -125 -361 -124q-176 0 -274 126q-39 51 -53.5 110.5 t-14.5 176.5v262zM313 1092l211 286h379l211 -286h-287l-114 159l-113 -159h-287z" />
<glyph unicode="&#xfc;" horiz-adv-x="1460" d="M18 653v305q100 -2 113 -2h244q145 0 233 2v-505q0 -139 105 -140q37 0 114 39l21 10v293l-119 -2v305q70 -2 100 -2h236q127 0 252 2v-657l121 2v-305h-41q-16 0 -30.5 1t-23.5 1h-10h-268q-88 0 -225 -2l2 106q-213 -125 -361 -124q-176 0 -274 126q-39 51 -53.5 110.5 t-14.5 176.5v262zM283 1243q0 70 55 113t141 43q82 0 136.5 -45t54.5 -110.5t-56.5 -112t-138.5 -46.5t-137 45t-55 113zM788 1243q0 70 55.5 113t141.5 43q82 0 136.5 -45t54.5 -110.5t-56.5 -112t-138.5 -46.5t-137.5 45t-55.5 113z" />
<glyph unicode="&#xfd;" horiz-adv-x="1234" d="M-10 653v305q84 -2 141 -2h307q100 0 221 2v-305l-81 2l129 -278l131 278l-82 -2v305q98 -2 170 -2h217q57 0 104 2v-305l-98 2l-481 -979q-66 2 -187 2q-150 0 -231 -2v279h108q72 0 72 33q0 14 -12 32l-357 635zM557 1092l131 286h332l-215 -286h-248z" />
<glyph unicode="&#xfe;" horiz-adv-x="1421" d="M18 -35l121 -2v1106l-121 -4v303q39 -2 99 -2h221q131 0 270 2l-2 -477q104 86 275 86q217 0 356 -134t139 -345q0 -203 -134 -345.5t-324 -142.5q-166 0 -310 101v-162l119 4v-268h-31h-29q-15 0 -23.5 1t-10.5 1h-516q-2 0 -11.5 -1t-23.5 -1h-29h-35v280zM606 483 q0 -98 39 -143q41 -47 107 -47q70 0 109.5 53t39.5 147.5t-38 146.5t-107 52q-150 0 -150 -209z" />
<glyph unicode="&#xff;" horiz-adv-x="1234" d="M-10 653v305q84 -2 141 -2h307q100 0 221 2v-305l-81 2l129 -278l131 278l-82 -2v305q98 -2 170 -2h217q57 0 104 2v-305l-98 2l-481 -979q-66 2 -187 2q-150 0 -231 -2v279h108q72 0 72 33q0 14 -12 32l-357 635zM227 1243q0 70 55.5 113t141.5 43q82 0 136 -45 t54 -110.5t-56 -112t-138 -46.5t-137.5 45t-55.5 113zM733 1243q0 70 55.5 113t141.5 43q82 0 136 -45t54 -110.5t-56 -112t-138 -46.5t-137.5 45t-55.5 113z" />
<glyph unicode="&#x152;" horiz-adv-x="2097" d="M41 672q0 223 112.5 394t307.5 247q133 51 280 51q14 2 373 2h766q94 0 168 2q-2 -82 -2 -233q0 -141 2 -220h-332v134h-278v-224h248v-280h-248v-228h278v129h332v-63l-2 -170q0 -70 2 -215q-100 2 -152 2h-837l-309 -2q-172 -2 -290 37t-212 129q-207 195 -207 508z M592 678q0 -295 190 -352q49 -14 170 -17v740q-195 2 -277.5 -84t-82.5 -287z" />
<glyph unicode="&#x153;" horiz-adv-x="2011" d="M43 473q0 104 47 205.5t127 169.5q154 129 424 129q209 0 393 -88q145 88 348 88q231 0 377 -98q104 -70 160.5 -176.5t56.5 -233.5q0 -25 -2 -43h-719q2 -104 31 -147q41 -57 121 -58q104 0 152 105l401 -41q-129 -305 -559 -305q-231 0 -379 92q-141 -92 -356 -92 q-287 0 -443 124q-84 66 -132 164.5t-48 204.5zM518 481q0 -106 38 -167.5t101 -61.5q66 0 104 59.5t38 163.5q0 111 -37 172.5t-103 61.5q-141 -1 -141 -228zM1253 575h267v17q0 76 -35 118t-99 42q-129 -1 -133 -177z" />
<glyph unicode="&#x178;" horiz-adv-x="1329" d="M-14 1055v313q92 -2 135 -2h442q47 0 150 2l2 -313l-84 2l125 -264l159 264l-73 -2v313q68 -2 178 -2h219q31 0 104 2v-313l-86 2l-325 -520v-228l110 2v-313q-102 2 -129 2h-487q-27 0 -129 -2v313l109 -2v246l-338 502zM274 1645q0 70 55.5 112.5t145.5 42.5 q82 0 137.5 -44t55.5 -109.5t-57.5 -111.5t-139.5 -46q-84 0 -140.5 45t-56.5 111zM797 1645q0 70 55 112.5t145 42.5q84 0 139.5 -44t55.5 -109.5t-57.5 -111.5t-141.5 -46t-140 45t-56 111z" />
<glyph unicode="&#x2c6;" horiz-adv-x="1024" d="M113 1092l211 286h378l211 -286h-286l-115 159l-113 -159h-286z" />
<glyph unicode="&#x2dc;" horiz-adv-x="1024" d="M102 1198q102 186 269 186q45 0 85 -13t140 -60q25 -12 55 -13q63 0 119 82l154 -102q-45 -90 -95 -129q-72 -55 -159 -55q-51 0 -140 34q-119 49 -159 50q-33 0 -57.5 -17.5t-59.5 -64.5z" />
<glyph unicode="&#x2000;" horiz-adv-x="915" />
<glyph unicode="&#x2001;" horiz-adv-x="1832" />
<glyph unicode="&#x2002;" horiz-adv-x="915" />
<glyph unicode="&#x2003;" horiz-adv-x="1832" />
<glyph unicode="&#x2004;" horiz-adv-x="610" />
<glyph unicode="&#x2005;" horiz-adv-x="456" />
<glyph unicode="&#x2006;" horiz-adv-x="305" />
<glyph unicode="&#x2007;" horiz-adv-x="305" />
<glyph unicode="&#x2008;" horiz-adv-x="227" />
<glyph unicode="&#x2009;" horiz-adv-x="366" />
<glyph unicode="&#x200a;" horiz-adv-x="100" />
<glyph unicode="&#x2010;" horiz-adv-x="614" d="M0 313v416h614v-416h-614z" />
<glyph unicode="&#x2011;" horiz-adv-x="614" d="M0 313v416h614v-416h-614z" />
<glyph unicode="&#x2012;" horiz-adv-x="614" d="M0 313v416h614v-416h-614z" />
<glyph unicode="&#x2013;" d="M55 313v416h1121l-2 -416h-1119z" />
<glyph unicode="&#x2014;" horiz-adv-x="1845" d="M0 313v416h1845v-416h-1845z" />
<glyph unicode="&#x2018;" horiz-adv-x="563" d="M88 741v326q0 147 64 213q94 100 237 100q16 0 78 -4v-157h-31q-152 0 -151 -127v-11h188v-340h-385z" />
<glyph unicode="&#x2019;" horiz-adv-x="563" d="M98 1044v322h367v-307q0 -139 -62 -203q-88 -94 -225 -94q-16 0 -74 4v149q70 0 105 13q31 10 50.5 39.5t19.5 66.5v10h-181z" />
<glyph unicode="&#x201a;" horiz-adv-x="563" d="M98 0v322h367v-308q0 -139 -62 -202q-88 -94 -225 -95q-16 0 -74 4v150q70 0 105 12q31 10 50.5 40t19.5 67v10h-181z" />
<glyph unicode="&#x201c;" horiz-adv-x="1067" d="M88 741v326q0 147 64 213q94 100 237 100q16 0 78 -4v-157h-31q-152 0 -151 -127v-11h188v-340h-385zM594 741v326q0 147 63 213q94 100 238 100q16 0 78 -4v-157h-31q-152 0 -151 -127v-11h188v-340h-385z" />
<glyph unicode="&#x201d;" horiz-adv-x="1067" d="M88 1026v340h385v-326q0 -147 -63 -213q-94 -100 -238 -100q-33 0 -78 6v156h31q152 0 151 127v10h-188zM594 1026v340h385v-326q0 -147 -64 -213q-94 -100 -239 -100q-33 0 -78 6v156h31q78 0 112.5 31.5t38.5 105.5h-186z" />
<glyph unicode="&#x201e;" horiz-adv-x="1067" d="M88 0v340h385v-326q0 -143 -63 -213q-94 -98 -238 -98q-16 0 -78 4v158q74 0 109 12q74 23 73 113v10h-188zM594 0v340h385v-326q0 -143 -64 -213q-94 -98 -239 -98q-16 0 -78 4v158q102 0 141 28.5t41 106.5h-186z" />
<glyph unicode="&#x2022;" horiz-adv-x="1366" d="M401 694q0 119 84 202t205 83q113 0 196 -84t83 -199q0 -119 -83 -201.5t-200 -82.5t-201 82.5t-84 199.5z" />
<glyph unicode="&#x2026;" horiz-adv-x="1949" d="M88 0v369h473v-369h-473zM737 0v369h473v-369h-473zM1389 0v369h473v-369h-473z" />
<glyph unicode="&#x202f;" horiz-adv-x="366" />
<glyph unicode="&#x2039;" horiz-adv-x="647" d="M55 522l295 426l201 -145l-201 -281l215 -346l-203 -133z" />
<glyph unicode="&#x203a;" horiz-adv-x="647" d="M82 176l215 346l-201 281l201 145l295 -426l-307 -479z" />
<glyph unicode="&#x205f;" horiz-adv-x="456" />
<glyph unicode="&#x20ac;" horiz-adv-x="1640" d="M55 522l54 127h102q-2 23 -2 39q2 31 2 35h-156l54 127h116q39 236 217.5 386t415.5 150q178 0 348 -112l-2 110h328q-2 -111 -2 -200q0 -135 2 -326h-350q-18 100 -68.5 152.5t-128.5 52.5q-150 0 -184 -213h278l-53 -125h-235q-2 -55 -3 -76h205l-53 -127h-143 q29 -229 194 -229q115 0 172 110q35 68 41 193l379 -104q-47 -244 -220 -378t-439 -134q-272 0 -463 148t-236 394h-170z" />
<glyph unicode="&#x2122;" horiz-adv-x="2017" d="M8 1014q2 57 2 172q0 123 -2 182q106 -2 180 -2h455q57 0 145 2v-143v-211h-165v162h-64v-402l64 2v-190q-51 2 -74 2h-301q-18 0 -74 -2v190l64 -2v402h-64v-162h-166zM829 586v190l64 -2v406l-64 -2v190l41 -2h43h258q51 0 140 2l98 -270l107 270q84 -2 124 -2h263h43 l39 2v-190l-64 2v-406l64 2v-190q-76 2 -95 2h-266q-20 0 -72 -2v190l64 -2v344l-201 -530h-131l-194 526v-340l61 2v-190l-37 2h-43h-158h-43z" />
<glyph unicode="&#xe000;" horiz-adv-x="960" d="M0 960h960v-960h-960v960z" />
<glyph unicode="&#xfb01;" horiz-adv-x="1497" d="M45 -2v305l121 -2v354l-115 -2v305l115 -2v21q0 104 45 189t123 132q92 53 221 72t416 19q205 0 295 -40t90 -130q0 -84 -69.5 -131.5t-190.5 -47.5q-80 0 -178 45q-66 33 -115 33q-172 0 -172 -139v-23h420q82 0 295 2v-657l118 2v-305h-57h-15h-14h-11q-5 0 -9 1t-7 1 h-5h-3h-466q-16 0 -82 -2v305l82 -2v354h-242v-354l80 2v-305h-39q-16 0 -32.5 1t-27.5 1h-12h-459h-11q-9 0 -24.5 -1t-29.5 -1h-35z" />
<glyph unicode="&#xfb02;" horiz-adv-x="1476" d="M45 -2v305l121 -2v354l-115 -2v305l115 -2v21q0 178 104 287q123 123 443 122q31 0 66.5 -2t117.5 -8t178 -10q184 -8 195 2h76v-1067l118 2v-305h-71h-19q-10 0 -17 1t-14 1h-10h-4h-452q-18 0 -82 -2v305l82 -2v811q-43 6 -70 6q-176 0 -176 -139v-23l174 2v-305 l-170 2v-354l80 2v-305h-39q-16 0 -32.5 1t-27.5 1h-12h-459h-11q-9 0 -24.5 -1t-29.5 -1h-35z" />
<glyph unicode="&#xfb03;" horiz-adv-x="2207" d="M45 -2v305l121 -2v354l-115 -2v305l115 -2v21q0 180 119 289q137 121 473 120q197 0 342 -59q92 37 208.5 49.5t374.5 12.5q219 0 299 -41q84 -41 84 -131q0 -82 -69.5 -129.5t-190.5 -47.5q-86 0 -178 45q-66 33 -115 33q-172 0 -172 -139v-23h420q82 0 295 2v-657 l121 2v-305h-59l-64 2h-467q-16 0 -82 -2v305l82 -2v354h-241v-354l81 2v-305h-38q-16 0 -34 1t-28 1h-12h-438q-16 0 -82 -2v305l82 -2v354h-242v-354l80 2v-305h-39q-16 0 -32.5 1t-27.5 1h-12h-459h-11q-9 0 -24.5 -1t-29.5 -1h-35zM631 956h246v21q0 53 16 125 q-41 16 -84 16q-178 0 -178 -139v-23z" />
<glyph unicode="&#xfb04;" horiz-adv-x="2187" d="M45 -2v305l121 -2v354l-115 -2v305l115 -2v21q0 180 119 287q135 123 475 122q143 0 344 -47q123 47 321 47q25 0 47.5 -1t48 -3t99.5 -6t166 -10q184 -8 194 2h76v-1067l121 2v-305h-72h-18q-10 0 -18.5 1t-14.5 1h-10h-4h-453h-37q-6 -2 -45 -2v305l82 -2v813 q-57 4 -67 4q-178 0 -179 -139v-23l177 2v-305l-172 2v-354l81 2v-305q-51 2 -86 2h-464q-45 0 -82 -2v305l82 -2v354h-242v-354l80 2v-305h-39q-16 0 -32.5 1t-27.5 1h-12h-459h-11q-9 0 -24.5 -1t-29.5 -1h-35zM631 956h246v21q0 53 16 125q-41 16 -84 16 q-178 0 -178 -139v-23z" />
</font>
</defs>
</svg>
