<?xml version="1.0" standalone="no"?>
<!DOCTYPE svg PUBLIC "-//W3C//DTD SVG 1.1//EN" "http://www.w3.org/Graphics/SVG/1.1/DTD/svg11.dtd" >
<svg xmlns="http://www.w3.org/2000/svg">
<metadata>
This is a custom SVG webfont generated by Font Squirrel.
Copyright   : Typeface  FontSite Inc 19962008 All Rights Reserved wwwfontsitecom
Designer    : FontSitecom
Foundry URL : httpwwwfontsitecom
</metadata>
<defs>
<font id="webfont5vlzdAXk" horiz-adv-x="1024" >
<font-face units-per-em="2048" ascent="1610" descent="-438" />
<missing-glyph horiz-adv-x="512" />
<glyph unicode=" "  horiz-adv-x="512" />
<glyph unicode="&#x09;" horiz-adv-x="512" />
<glyph unicode="&#xa0;" horiz-adv-x="512" />
<glyph unicode="!" horiz-adv-x="475" d="M59 0l50 213h133l-49 -213h-134zM156 344l219 1022h133l-250 -1022h-102z" />
<glyph unicode="&#x22;" horiz-adv-x="512" d="M186 836l107 536l115 -26l-140 -529zM391 836l107 536l114 -26l-139 -529z" />
<glyph unicode="#" horiz-adv-x="1263" d="M68 479l36 80h277l129 283h-279l39 86h279l129 280h98l-131 -280h283l129 280h100l-131 -280h270l-34 -86h-273l-131 -283h277l-39 -80h-273l-133 -291h-96l131 291h-283l-133 -291h-100l135 291h-276zM479 559h285l127 283h-283z" />
<glyph unicode="$" d="M0 0q53 205 92 393h117l-39 -166q74 -86 190 -116l134 577q-129 92 -184.5 175t-55.5 188q0 150 109.5 248t275.5 98h18l39 168h113l-43 -183q74 -14 186 -94l23 94h123q-47 -160 -90 -389h-123l41 178q-78 68 -187 101l-116 -512q143 -106 202.5 -194.5t59.5 -198.5 q0 -178 -121 -285t-324 -107l-49 -221h-112l53 238q-78 31 -113 52.5t-76 66.5l-26 -111h-117zM381 1059q0 -84 53 -148q25 -29 92 -80l103 449q-113 -4 -180.5 -64.5t-67.5 -156.5zM469 94q125 4 207 77t82 175q0 125 -170 268z" />
<glyph unicode="%" horiz-adv-x="1245" d="M111 29l1054 1362l56 -43l-1055 -1364zM186 897q0 225 103 381q74 109 188 108q80 0 126 -59t46 -162q0 -231 -104 -393q-68 -100 -189 -100q-170 0 -170 225zM272 899q0 -152 95 -151q84 0 131 104q66 147 65 313q0 63 -25.5 102.5t-68.5 39.5q-74 0 -121 -88 q-76 -146 -76 -320zM692 211q0 225 103 383q70 109 186 108q80 0 126 -59t46 -162q0 -231 -104 -393q-68 -100 -189 -100q-168 0 -168 223zM778 213q0 -150 92 -150q84 0 131 105q66 147 66 313q0 63 -25.5 102.5t-66.5 39.5q-74 0 -121 -88q-76 -146 -76 -322z" />
<glyph unicode="&#x26;" horiz-adv-x="1308" d="M70 352q0 150 90 264.5t301 233.5q-63 143 -64 244q0 129 83 213t212 84q111 0 183.5 -72t72.5 -180.5t-76.5 -191.5t-244.5 -152l213 -441q139 166 186 330q51 -2 104 -2h76q14 0 66 2l-27 -119l-131 2q-88 -168 -215 -336l62 -129l178 4l-25 -110q-35 4 -76 4h-80 q-27 0 -90 -4l-65 141q-168 -162 -357 -162q-158 0 -267 109.5t-109 267.5zM195 365q0 -113 73.5 -192t177.5 -79q186 0 302 160l-234 489q-109 -55 -178 -112q-66 -53 -103.5 -124.5t-37.5 -141.5zM516 1104q0 -94 64 -213q74 37 106 57q145 88 145 197q0 57 -44 96 t-105 39q-72 0 -119 -50t-47 -126z" />
<glyph unicode="'" horiz-adv-x="307" d="M186 836l107 536l115 -26l-140 -529z" />
<glyph unicode="(" horiz-adv-x="722" d="M61 289q0 399 196 696t525 399l43 -106q-291 -86 -466 -358.5t-175 -640.5q0 -393 262 -644l-77 -84q-80 72 -125 130.5t-82 138.5q-101 213 -101 469z" />
<glyph unicode=")" horiz-adv-x="722" d="M-106 -342q291 84 466 356.5t175 640.5q0 395 -263 645l78 84q139 -127 207 -268q100 -213 100 -471q0 -399 -195.5 -696t-524.5 -398z" />
<glyph unicode="*" d="M268 1124l72 119l262 -192l45 321l135 -31l-102 -309l319 60l13 -140l-326 2l156 -286l-129 -56l-99 312l-225 -236l-92 105l264 190z" />
<glyph unicode="+" d="M154 645l26 117h324l74 317h116l-73 -317h352l-27 -117h-352l-74 -317h-114l71 317h-323z" />
<glyph unicode="," horiz-adv-x="421" d="M-23 -231l17 69q57 8 79.5 36t37.5 103l4 23h-60l49 213h138l-45 -195q-29 -127 -36 -150.5t-26 -43.5q-45 -55 -141 -55h-17z" />
<glyph unicode="-" horiz-adv-x="446" d="M-6 457l26 116h447l-27 -116h-446z" />
<glyph unicode="." horiz-adv-x="421" d="M45 0l49 213h135l-49 -213h-135z" />
<glyph unicode="/" horiz-adv-x="784" d="M-295 -432l1104 1798h111l-1102 -1798h-113z" />
<glyph unicode="0" d="M119 414q0 211 53 414.5t147 349.5q137 213 357 213q152 0 237.5 -116t85.5 -317q0 -215 -55 -428t-149 -358q-57 -90 -154.5 -143.5t-204.5 -53.5q-156 0 -236.5 112t-80.5 327zM246 412q0 -326 207 -326q84 0 162.5 61.5t123.5 165.5q133 299 133 650q0 141 -56 224 t-150 83q-164 0 -265 -193q-155 -294 -155 -665z" />
<glyph unicode="1" d="M188 -4l29 127l166 -4l260 1124h-186l28 127q66 -4 168 -4h88q14 0 62 4l-289 -1251l174 4l-29 -127q-74 4 -174 4h-131q-45 0 -166 -4z" />
<glyph unicode="2" d="M53 -4q6 348 457 653q178 121 248 205q94 115 94 227q0 82 -55.5 136.5t-137.5 54.5q-160 0 -256 -178q-35 -68 -77 -242h-129q55 223 127 332q66 96 155.5 151.5t186.5 55.5q131 0 221 -92.5t90 -225.5q0 -129 -85 -246.5t-276 -251.5q-211 -147 -300 -242t-128 -220 h482l84 360h116q-51 -199 -110 -477q-59 4 -117 4h-469q-37 0 -68 -2z" />
<glyph unicode="3" d="M76 375q0 27 6 82h123q-2 -12 -2 -29v-49q0 -125 68.5 -203t179.5 -78q129 0 222 92.5t93 219.5q0 154 -135 215q-68 31 -223 30l26 119q27 -2 64 -2q154 0 255 83t101 208q0 90 -56.5 149.5t-142.5 59.5q-66 0 -128 -36t-101 -97q-35 -57 -51 -152h-131 q33 184 146.5 294t271.5 110q137 0 228 -95.5t91 -234.5q0 -164 -117 -268q-53 -51 -159 -86q88 -35 138 -112t50 -173q0 -180 -131 -313.5t-309 -133.5q-172 0 -274.5 109t-102.5 291z" />
<glyph unicode="4" d="M63 514l775 885h120l-204 -885h194l-28 -119h-193l-63 -276l149 4l-31 -127q-68 4 -147 4h-121q-47 0 -152 -4l29 127l150 -4l63 276h-498zM207 514h426l153 670z" />
<glyph unicode="5" d="M92 352q0 29 6 88h131q-8 -63 -8 -104q0 -109 61.5 -174.5t166.5 -65.5q133 0 232 120t99 278q0 109 -56 176t-149 67q-111 0 -227 -110l-96 84l172 659q57 -4 115 -4h407q31 0 125 4q-49 -186 -84 -362h-123l56 245h-402l-123 -467q96 68 203 68q135 0 225 -101.5 t90 -252.5q0 -213 -140 -369t-331 -156q-160 0 -255 102.5t-95 274.5z" />
<glyph unicode="6" d="M123 422q0 186 55 381.5t154 351.5q150 236 370 236q121 0 195 -64q109 -98 109 -272q0 -39 -7 -94h-120q4 41 4 83q0 113 -46 174.5t-128 61.5q-145 0 -259 -152.5t-165 -412.5q145 160 309 159q139 0 227 -105t88 -269q0 -115 -40 -225.5t-109 -182.5 q-111 -117 -279 -117q-164 0 -261 121t-97 326zM250 424q-2 -162 59.5 -246t177.5 -84q131 0 209 113q86 123 86 287q0 121 -58 194.5t-153 73.5q-80 0 -167 -59.5t-152 -159.5z" />
<glyph unicode="7" d="M135 -4l29 127l149 -4q80 293 238 590t364 544h-548l-54 -231h-123q41 158 80 348q41 -4 111 -4h586q61 0 127 4l-25 -106q-57 -49 -162.5 -205t-212.5 -350q-147 -268 -254 -590l160 4l-31 -127q-57 4 -147 4h-127q-80 0 -160 -4z" />
<glyph unicode="8" d="M100 330q0 178 117 301q68 76 176 104q-123 104 -123 258q0 164 116 281t278 117q143 0 239 -92.5t96 -231.5q0 -70 -28.5 -144.5t-73.5 -123.5q-47 -51 -143 -99q135 -117 135 -284q0 -180 -129 -310.5t-307 -130.5q-154 0 -253.5 99.5t-99.5 255.5zM227 328 q0 -104 64.5 -169t167.5 -65q123 0 213 96.5t90 227.5q0 106 -62.5 172.5t-162.5 66.5q-125 0 -217.5 -98t-92.5 -231zM397 965q0 -88 60.5 -144.5t152.5 -56.5q106 0 184 91t78 214q0 88 -58 145.5t-148 57.5q-115 0 -192 -88t-77 -219z" />
<glyph unicode="9" d="M113 324q0 29 6 79h123l-2 -32v-35q0 -117 47 -184.5t129 -67.5q141 0 253.5 153.5t161.5 413.5q-88 -90 -155.5 -124.5t-149.5 -34.5q-137 0 -229 105t-92 263q0 211 123 381q51 70 132 110t175 40q168 0 262 -120t94 -335q0 -182 -53 -373.5t-145 -343.5 q-150 -244 -383 -244q-137 0 -217 94.5t-80 254.5zM332 872q0 -123 58.5 -195.5t154.5 -72.5q80 0 165 58.5t154 162.5q8 115 8 154q0 131 -65.5 212t-171.5 81q-127 0 -215 -116t-88 -284z" />
<glyph unicode=":" horiz-adv-x="421" d="M45 0l49 213h135l-49 -213h-135zM217 743l49 213h135l-49 -213h-135z" />
<glyph unicode=";" horiz-adv-x="421" d="M-23 -231l17 69q57 10 79.5 36t37.5 103q0 2 4 23h-60l49 213h138l-45 -195q-29 -127 -36 -150.5t-26 -43.5q-45 -55 -141 -55h-17zM225 743l49 213h134l-50 -213h-133z" />
<glyph unicode="&#x3c;" d="M90 686v12l844 547v-65l-670 -439l670 -446v-170z" />
<glyph unicode="=" d="M127 535l27 116h792l-26 -116h-793zM178 754l27 116h790l-26 -116h-791z" />
<glyph unicode="&#x3e;" d="M90 125v65l670 439l-670 444v172l844 -561v-12z" />
<glyph unicode="?" horiz-adv-x="872" d="M211 0l49 213h135l-49 -213h-135zM231 1069q45 150 150.5 236t241.5 86q141 0 226 -88.5t85 -233.5q0 -176 -118 -303t-281 -121l-54 2l-69 -299h-111l100 432q53 -20 107 -20q135 0 213 84q90 100 90 231q0 86 -53 141.5t-135 55.5q-86 0 -157 -55.5t-97 -147.5h-138z " />
<glyph unicode="@" horiz-adv-x="1536" d="M109 453q0 309 219 528t530 219q254 0 433 -159.5t179 -385.5q0 -160 -72.5 -288.5t-207.5 -206.5q-127 -72 -217 -72q-49 0 -77 25.5t-24 66.5q0 4 2 8q-76 -92 -200.5 -92t-203.5 85t-79 222q0 170 119 314q113 135 293 135q82 0 133 -30.5t94 -106.5l31 123h96 l-137 -590q-8 -25 -8 -45q0 -14 12 -25.5t29 -11.5q35 0 91 28.5t99 69.5q154 143 154 369q0 211 -157 351t-388 140q-281 0 -474.5 -192.5t-193.5 -470.5q0 -258 172 -426t435 -168q137 0 242.5 48t230.5 169h96q-119 -135 -213 -193q-160 -96 -361 -96q-291 0 -484 187.5 t-193 470.5zM514 424q0 -96 55.5 -158.5t143.5 -62.5q145 0 215 147q51 106 51 209q0 84 -48 135t-126 51q-117 0 -204 -96t-87 -225z" />
<glyph unicode="A" horiz-adv-x="1306" d="M-90 -4l29 121l118 -4l629 1142l-160 -4l27 119q88 -4 178 -4h187q123 0 192 4l-27 -119l-131 4l131 -1142l138 4l-27 -121q-111 4 -133 4h-100q-68 0 -189 -4l29 121l151 -4l-47 399h-493l-219 -399l159 4l-26 -121q-115 4 -160 4h-119q-41 0 -137 -4zM475 629h420 l-76 626z" />
<glyph unicode="B" horiz-adv-x="1155" d="M8 -4l29 121l131 -4l262 1142l-147 -4l28 119q106 -4 142 -4h118q199 0 242 -3t102 -22q90 -29 148.5 -114.5t58.5 -190.5q0 -166 -127 -260q-51 -37 -159 -76q80 -43 116 -82q78 -88 78 -221q0 -131 -78 -235.5t-200 -138.5q-57 -16 -118 -19.5t-351 -3.5h-131 q-35 0 -144 -4zM303 117q49 -2 109 -2q248 0 348 47q61 29 97 95.5t36 152.5q0 139 -92 194q-49 31 -109.5 42t-183.5 11q-45 0 -80 -2zM455 770h94q137 0 201.5 11.5t123.5 45.5q123 72 123 205q0 131 -112 185q-47 23 -83 26.5t-198 3.5q-2 0 -7 1t-14.5 2t-17.5 1z" />
<glyph unicode="C" horiz-adv-x="1464" d="M135 561q0 332 254 581t592 249q297 0 418 -191l39 170h118q-53 -193 -92 -401h-118q0 137 -86 209q-111 94 -287 94q-274 0 -487.5 -215t-213.5 -494q0 -203 125 -336t316 -133q297 0 518 285l98 -92q-252 -311 -602 -312q-266 0 -429 161t-163 425z" />
<glyph unicode="D" horiz-adv-x="1439" d="M4 -4l29 121l135 -4l262 1142l-149 -4l28 119q106 -4 142 -4h131q270 0 331.5 -3t130.5 -24q162 -43 264.5 -198.5t102.5 -358.5q0 -195 -87 -372t-237 -283q-96 -70 -211.5 -99.5t-295.5 -29.5q-4 0 -60.5 1t-95.5 1h-148h-129q-34 0 -143 -4zM303 117h45h248 q346 0 520 215q158 199 158 454q0 137 -54.5 247t-148.5 161q-104 59 -366 59q-74 0 -140 -2z" />
<glyph unicode="E" horiz-adv-x="1224" d="M4 -4l29 121l135 -2l262 1140l-149 -6l26 121q106 -4 144 -4h727q63 0 125 4q-63 -223 -101 -438h-125l74 317h-586l-114 -497h495l-26 -117h-496l-121 -518h598l76 329h121l-103 -450q-55 4 -121 4h-727q-34 0 -143 -4z" />
<glyph unicode="F" horiz-adv-x="1132" d="M8 -4l27 121l133 -4l264 1142l-151 -6l28 121q106 -4 144 -4h686q37 0 121 4q-55 -223 -95 -409h-118l65 288h-547l-112 -487h456l-26 -117h-457l-123 -532l133 4l-28 -121q-61 4 -127 4h-134q-39 0 -139 -4z" />
<glyph unicode="G" horiz-adv-x="1488" d="M113 557q0 221 115.5 413.5t311 306.5t418.5 114q297 0 463 -201l41 180h117l-47 -196l-45 -201h-115q-16 80 -36.5 121t-61.5 75q-123 102 -326 103q-274 0 -487 -213t-213 -492q0 -209 131 -341t338 -132q197 0 346 112.5t203 301.5h-359l27 121q66 -4 164 -4h168 q86 0 172 4q-63 -311 -252 -482.5t-469 -171.5q-272 0 -438 160t-166 422z" />
<glyph unicode="H" horiz-adv-x="1449" d="M8 -4l27 121l133 -4l262 1142l-149 -4l28 119q102 -4 135 -4h144q33 0 137 4l-27 -119l-133 4l-108 -479h671l109 479l-150 -4l29 119q104 -4 137 -4h144q35 0 135 4l-27 -119l-133 4l-262 -1142l150 4l-29 -121q-100 4 -135 4h-144q-33 0 -137 -4l27 121l133 -4l127 546 h-672l-127 -546l150 4l-29 -121q-106 4 -137 4h-142q-33 0 -137 -4z" />
<glyph unicode="I" horiz-adv-x="643" d="M8 -4l29 121l131 -4l262 1142l-149 -4l26 119q102 -4 135 -4h148q33 0 133 4l-27 -119l-131 4l-262 -1142l150 4l-29 -121q-98 4 -133 4h-146q-35 0 -137 -4z" />
<glyph unicode="J" horiz-adv-x="628" d="M-274 -432l28 121q86 4 140.5 17t100.5 43t77.5 93.5t59.5 148.5t61 228l237 1036l-149 -4l28 119q102 -4 140 -4h137q41 0 139 4l-29 -119l-131 4l-248 -1075q-59 -258 -104 -361.5t-121 -160.5q-53 -41 -142 -67.5t-169 -26.5q-6 0 -55 4z" />
<glyph unicode="K" horiz-adv-x="1318" d="M8 -4l27 121l133 -4l262 1142l-149 -4l28 119q106 -4 142 -4h135q39 0 139 4l-27 -119l-133 4l-123 -534l623 534l-139 -4l26 119q76 -4 164 -4h141q43 0 150 4l-27 -119l-141 4l-647 -544l440 -598l160 4l-27 -121q-98 4 -149 4h-113q-49 0 -176 -4l29 121l110 -4 l-426 598l-137 -598l150 4l-29 -121q-102 4 -141 4h-131q-38 0 -144 -4z" />
<glyph unicode="L" horiz-adv-x="1138" d="M8 -4l27 121l133 -2l262 1140l-149 -4l28 119q102 -4 142 -4h131q35 0 143 4l-27 -119l-133 4l-262 -1138h549l111 475h116l-137 -596q-86 4 -117 4h-678q-39 0 -139 -4z" />
<glyph unicode="M" horiz-adv-x="1787" d="M8 -4l27 121l133 -4l262 1142l-149 -4l28 119q102 -4 142 -4h141q23 0 45 2l33 2l172 -1106l682 1106q39 -4 78 -4h127q35 0 141 4l-29 -119l-131 4l-264 -1142l133 4l-27 -121q-63 4 -125 4h-133q-39 0 -141 -4l27 121l131 -4l258 1112l-762 -1225h-45l-203 1225 l-256 -1112l150 4l-29 -121q-102 4 -141 4h-136q-39 0 -139 -4z" />
<glyph unicode="N" horiz-adv-x="1533" d="M8 -4l27 121l133 -4l262 1142l-149 -4l28 119q102 -4 142 -4h141q14 0 63 4l430 -1200l250 1085l-149 -4l28 119q102 -4 142 -4h131q35 0 143 4l-26 -119l-134 4l-288 -1255h-154l-465 1243l-260 -1130l150 4l-29 -121q-102 4 -141 4h-136q-39 0 -139 -4z" />
<glyph unicode="O" horiz-adv-x="1511" d="M123 522q0 315 199 572q227 297 589 297q260 0 416 -154t156 -408q0 -203 -84 -391t-228 -309q-182 -154 -466 -154q-238 0 -390 123q-90 74 -141 185.5t-51 238.5zM260 516q0 -188 126 -305t327 -117q244 0 409 182q106 115 165 262.5t59 303.5q0 201 -140 321 q-131 109 -293 109q-301 0 -499 -275q-154 -215 -154 -481z" />
<glyph unicode="P" horiz-adv-x="1085" d="M10 -4l27 121l133 -4l264 1142l-151 -4l28 119q109 -4 144 -4h139q193 0 264 -12q168 -29 236 -160q45 -90 45 -197q0 -180 -102.5 -294.5t-272.5 -129.5q-96 -6 -354 -6l-105 -454l150 4l-29 -121q-104 4 -141 4h-135q-40 0 -140 -4zM436 684h56q207 0 265 8t117 43 q127 78 127 262q0 190 -170 234q-55 14 -264 20z" />
<glyph unicode="Q" horiz-adv-x="1511" d="M119 526q0 150 60.5 307.5t164.5 286.5q106 127 256 199t315 72q258 0 413 -149.5t155 -401.5q0 -205 -94.5 -398.5t-247.5 -308.5q-158 -117 -396 -137q59 -16 123 -47q100 -51 140.5 -64.5t91.5 -13.5q12 0 104 6l-80 -121q-20 -2 -43 -2q-61 0 -114.5 18.5 t-171.5 80.5q-131 70 -224 69q-102 0 -221 -80l-69 101q86 59 235 73q-156 33 -258 136q-63 63 -101 165.5t-38 208.5zM256 520q0 -184 121 -303t307 -119q119 0 243 55.5t214 149.5q94 100 149.5 243.5t55.5 287.5q0 193 -117 315.5t-301 122.5q-270 0 -471 -224.5 t-201 -527.5z" />
<glyph unicode="R" horiz-adv-x="1243" d="M8 -4l27 121h133l262 1138l-149 -4l28 119q102 -4 142 -4h141l121 2h80q195 0 288 -100q78 -88 78 -219q0 -98 -40 -181.5t-107 -126.5q-70 -43 -187 -59l127 -565h183l-27 -121q-66 4 -135 4h-78q-14 0 -53 -4l-148 674q-86 -2 -131 -2h-14q-12 0 -32.5 1t-43.5 1h-41 l-129 -553h150l-29 -121q-100 4 -141 4h-131q-35 0 -144 -4zM459 786q76 -2 182 -2q123 0 182.5 11.5t106.5 44.5q92 63 92 207q0 121 -67.5 162.5t-260.5 41.5h-129z" />
<glyph unicode="S" horiz-adv-x="1021" d="M-2 -4l92 397h117l-39 -168q129 -131 289 -131q119 0 202.5 74t83.5 180q0 76 -47 141.5t-164 153.5q-160 123 -206 184q-78 98 -78 203q0 152 114.5 256.5t278.5 104.5t315 -119l23 102h115q-51 -207 -90 -391h-115l41 176q-119 113 -283 113q-119 0 -190.5 -60.5 t-71.5 -160.5q0 -78 42 -132.5t196 -164.5q143 -106 199.5 -191.5t56.5 -197.5q0 -170 -117 -280t-299 -110q-174 0 -322 134l-26 -113h-117z" />
<glyph unicode="T" horiz-adv-x="1153" d="M141 831q41 164 125 539q57 -4 107 -4h788q35 0 131 4l-61 -256q-41 -188 -64 -283h-120l96 418h-324l-262 -1136l150 4l-29 -121q-104 4 -141 4h-136q-39 0 -139 -4l27 121l133 -4l262 1136h-326l-96 -418h-121z" />
<glyph unicode="U" horiz-adv-x="1359" d="M213 317q0 82 25 187l174 751l-150 -4l27 119q104 -4 141 -4h131q39 0 144 4l-27 -119l-131 4l-164 -712q-33 -135 -33 -234q0 -96 75 -155.5t193 -59.5q88 0 163 40t116 112q72 127 139 424l133 585l-149 -4l29 119q104 -4 141 -4h129q31 0 145 4l-26 -119l-133 4 l-152 -659q-53 -229 -88 -318.5t-98 -158.5q-131 -143 -369 -144q-168 0 -276.5 96t-108.5 246z" />
<glyph unicode="V" horiz-adv-x="1331" d="M164 1249l29 121q66 -4 133 -4h135q92 0 174 4l-29 -121h-137l53 -1085l715 1085h-182l28 121q94 -4 220 -4h108q76 0 143 4l-28 -121h-142l-847 -1265h-123l-78 1265h-172z" />
<glyph unicode="W" horiz-adv-x="1968" d="M164 1251l29 119q104 -4 157 -4h125q96 0 191 4l-29 -119l-158 4l23 -1073l567 1073l-158 -4l29 119q78 -4 160 -4h168q47 0 174 4l-29 -119l-135 4l10 -1073l588 1073l-137 -4l26 119q70 -4 142 -4h129q37 0 135 4l-29 -119l-131 4l-711 -1271h-120l-19 1212l-653 -1212 h-117l-41 1271z" />
<glyph unicode="X" horiz-adv-x="1292" d="M-49 -4l29 121l116 -4l537 589l-207 547h-158l29 121q76 -4 104 -4h144q43 0 157 4l-28 -121h-103l162 -434l395 434h-127l27 121q84 -4 170 -4h121q31 0 115 4l-27 -121h-115l-512 -559l215 -577l140 4l-27 -121l-43 2q-25 2 -53 2h-129q-51 0 -176 -4l26 121l125 -4 l-176 479l-432 -479l123 4l-27 -121q-100 4 -139 4h-144q-31 0 -59 -2z" />
<glyph unicode="Y" horiz-adv-x="1206" d="M164 1249l29 121q74 -4 110 -4h123q59 0 207 4l-29 -121h-143l192 -518l449 518h-160l27 121q86 -4 188 -4h127q59 0 125 4l-27 -121h-125l-569 -657l-110 -479l149 4l-27 -121q-104 4 -141 4h-133q-35 0 -141 -4l26 121l131 -4l117 505l-240 631h-155z" />
<glyph unicode="Z" horiz-adv-x="1095" d="M-25 -4l39 115l957 1138h-561l-72 -315h-121q16 63 102 436q90 -4 119 -4h559q51 0 181 4l-25 -104l-965 -1149h611l78 340h124q-55 -184 -106 -461q-59 4 -129 4h-643q-50 0 -148 -4z" />
<glyph unicode="[" horiz-adv-x="659" d="M-68 -432l416 1798h420l-23 -98h-301l-368 -1602h301l-25 -98h-420z" />
<glyph unicode="\" horiz-adv-x="729" d="M238 1366h98l285 -1798h-99z" />
<glyph unicode="]" horiz-adv-x="659" d="M-115 -432l23 98h301l369 1602h-299l22 98h420l-416 -1798h-420z" />
<glyph unicode="^" d="M-47 590l561 844h12l545 -844h-63l-439 670l-446 -670h-170z" />
<glyph unicode="_" d="M0 -178h1024v-72h-1024v72z" />
<glyph unicode="`" d="M459 1372h164l133 -280h-107z" />
<glyph unicode="a" horiz-adv-x="1050" d="M51 260q0 137 103.5 223t269.5 86q150 0 311 -63l33 147q6 25 6 52q0 78 -47 120.5t-131 42.5q-174 0 -299 -161l-98 49q80 119 172 170t221 51q145 0 224 -64.5t79 -183.5q0 -39 -10 -86l-123 -541l149 4l-24 -108q-106 2 -146 2h-67q-16 0 -33 -2h-23l21 96 q-141 -115 -307 -114q-119 0 -200 80.5t-81 199.5zM174 262q0 -76 48 -121t126 -45q135 0 322 131l43 179q-145 51 -281 51q-115 0 -186.5 -54.5t-71.5 -140.5z" />
<glyph unicode="b" horiz-adv-x="1212" d="M-37 -2l25 108l137 -4l266 1162l-149 -4l24 108q106 -2 146 -2h65q25 0 58 2l-117 -504q150 113 319 113q180 0 290 -107.5t110 -283.5q0 -254 -155 -430t-376 -176q-199 0 -356 155l-31 -137h-24q-16 2 -33 2h-56q-41 0 -143 -2zM281 264q84 -94 157.5 -135t163.5 -41 q168 0 290 142.5t122 338.5q0 139 -76 220t-207 81q-78 0 -154.5 -30.5t-189.5 -108.5z" />
<glyph unicode="c" horiz-adv-x="1019" d="M78 406q0 231 150.5 401t357.5 170q94 0 164.5 -37t136.5 -119l31 135h110q-63 -242 -72 -313h-110q-8 102 -78 161.5t-178 59.5q-172 0 -279 -151q-111 -156 -110 -334q0 -121 75.5 -204t184.5 -83q184 0 319 176l84 -65q-94 -119 -188 -171t-211 -52q-172 0 -279.5 119 t-107.5 307z" />
<glyph unicode="d" horiz-adv-x="1210" d="M70 393q0 238 165.5 411t391.5 173q203 0 325 -160l105 447l-152 -4l25 108q94 -2 139 -2h61q33 0 68 2l-291 -1266l152 4l-27 -108q-106 2 -145 2h-62q-14 0 -61 -2l20 92q-174 -111 -321 -110q-174 0 -283.5 115.5t-109.5 297.5zM193 387q0 -133 76.5 -213t201.5 -80 q82 0 158 29t186 100l113 484q-139 154 -291 153q-174 0 -309 -143.5t-135 -329.5z" />
<glyph unicode="e" horiz-adv-x="1069" d="M78 399q0 244 149.5 411t368.5 167q176 0 284.5 -119t108.5 -313q0 -10 -4 -96h-784q-4 -61 -4 -76q0 -127 77.5 -207t202.5 -80q170 0 334 164l96 -55q-76 -102 -186.5 -158.5t-235.5 -56.5q-190 0 -298.5 111t-108.5 308zM221 557h649q-6 135 -65 209q-78 98 -217 98 q-123 0 -221.5 -83t-145.5 -224z" />
<glyph unicode="f" horiz-adv-x="620" d="M-29 -2l25 108l137 -4l172 748l-145 -4l24 112l146 -2q55 205 80 263q76 170 235 170q104 0 207 -68l-49 -104q-88 57 -152 57q-76 0 -121 -70.5t-81 -247.5l141 2l-25 -112l-141 2l-172 -746l149 4l-24 -108q-100 2 -144 2h-118q-42 0 -144 -2z" />
<glyph unicode="g" horiz-adv-x="1208" d="M-33 -254l86 78q141 -145 332 -146q199 0 313 160q66 90 101 244q-106 -61 -166 -81.5t-133 -20.5q-195 0 -311.5 111.5t-116.5 295.5q0 242 160.5 416t385.5 174q100 0 177 -34t174 -118l30 133q47 -2 62 -2h51q78 0 143 5l-24 -109l-135 4l-156 -676 q-86 -373 -209 -483q-141 -131 -344 -131q-174 0 -301 76q-60 36 -119 104zM195 391q0 -131 81.5 -214t208.5 -83q96 0 177 35t174 117l104 456q-135 158 -317.5 158t-303.5 -141q-124 -148 -124 -328z" />
<glyph unicode="h" horiz-adv-x="1136" d="M-37 -2l25 108l137 -4l266 1162l-149 -4l24 108q102 -2 144 -2h71q12 0 27 2h31l-125 -541q178 152 344 152q100 0 166.5 -60.5t66.5 -150.5q0 -37 -26 -160l-115 -506l149 4l-24 -108q-102 2 -144 2h-118q-41 0 -144 -2l25 108l137 -4l121 529q16 76 16 112 q0 59 -37.5 95t-99.5 36q-82 0 -165 -48t-193 -160l-129 -564l149 4l-24 -108q-106 2 -148 2h-115q-41 0 -143 -2z" />
<glyph unicode="i" horiz-adv-x="550" d="M-29 -2l25 108l137 -4l172 754l-151 -4l26 106q115 -2 150 -2h55q18 0 37 2h27l-197 -856l149 4l-24 -108q-117 2 -150 2h-106q-35 0 -150 -2zM358 1313q0 41 30 69.5t71 28.5q39 0 67.5 -28.5t28.5 -69.5q0 -39 -29.5 -69t-68.5 -30t-69 30t-30 69z" />
<glyph unicode="j" horiz-adv-x="503" d="M-231 -418l24 109q59 -12 92 -13q102 0 146 97q2 2 7 14t6 14t6 13.5t6 16.5t6.5 19.5t8.5 26.5l8 32l11 43l13 53l16 67l182 790l-151 -4l26 111q66 -4 141 -4h82q12 0 45 2l-225 -973q-59 -256 -125 -332q-88 -96 -217 -96q-65 0 -108 14zM334 1313q0 41 29.5 69.5 t70.5 28.5q39 0 67.5 -29.5t28.5 -68.5t-29.5 -69t-68.5 -30t-68.5 30t-29.5 69z" />
<glyph unicode="k" horiz-adv-x="1093" d="M-37 -2l25 108l137 -4l266 1162l-149 -4l24 108q100 -2 144 -2h65q16 0 33 2h27l-193 -836l459 322l-170 -4l24 108q117 -2 199 -2h145q31 0 111 2l-25 -108l-108 4l-520 -362l282 -390l191 4l-27 -108q-49 2 -69 2h-76q-27 0 -92 -2l-342 459l-80 -355l149 4l-24 -108 q-100 2 -144 2h-114q-37 0 -148 -2z" />
<glyph unicode="l" horiz-adv-x="544" d="M-35 -2l25 108l137 -4l266 1162l-149 -4l24 108q106 -2 146 -2h61q27 0 62 2l-291 -1266l149 4l-24 -108q-96 2 -144 2h-116q-37 0 -146 -2z" />
<glyph unicode="m" horiz-adv-x="1755" d="M-29 -2l25 108l137 -4l172 754l-151 -4l26 109q70 -4 146 -5h61q35 0 62 2l-33 -139q102 86 183 122t173 36q168 0 217 -174q195 174 383 174q104 0 170 -57.5t66 -147.5q0 -68 -23 -164l-117 -506l152 4l-25 -108q-96 2 -143 2h-119q-41 0 -143 -2l24 108l136 -4 l118 512q18 80 19 134q0 51 -39 83.5t-102 32.5q-186 0 -355 -198l-129 -564l150 4l-25 -108q-100 2 -143 2h-119q-41 0 -143 -2l24 108l137 -4l119 523q18 88 19 129q0 51 -37 81.5t-103 30.5q-188 0 -360 -200l-129 -564l149 4l-24 -108q-102 2 -144 2h-114q-39 0 -148 -2 z" />
<glyph unicode="n" horiz-adv-x="1140" d="M-29 -2l25 108l137 -4l172 754l-151 -4l26 106q115 -2 150 -2h51q20 0 37 2h28l-28 -122q180 141 340 141q102 0 165.5 -59.5t63.5 -155.5q0 -82 -22 -178l-111 -482l154 4l-27 -108q-117 2 -150 2h-104q-31 0 -152 -2l25 108l135 -4l113 484q23 100 22 166 q0 51 -39.5 83.5t-103.5 32.5q-180 0 -348 -209l-127 -557l154 4l-27 -108q-119 2 -152 2h-106q-37 0 -150 -2z" />
<glyph unicode="o" horiz-adv-x="1101" d="M74 385q0 244 166 418t399 174q176 0 282.5 -108.5t106.5 -288.5q0 -137 -57.5 -268.5t-151.5 -211.5q-141 -121 -342 -120q-182 0 -292.5 111.5t-110.5 293.5zM199 391q0 -143 76.5 -225t209.5 -82q170 0 295 145.5t125 343.5q0 133 -73.5 215t-192.5 82 q-180 0 -310 -142t-130 -337z" />
<glyph unicode="p" horiz-adv-x="1183" d="M-152 -434l25 108l135 -4l275 1186l-152 -4l27 109q66 -4 141 -5h59q14 0 60 2l-21 -90q164 109 322 109q133 0 237 -76q150 -109 150 -328q0 -256 -154.5 -424.5t-388.5 -168.5q-184 0 -332 133l-104 -443l152 4l-25 -108q-102 2 -143 2h-119q-42 0 -144 -2zM256 219 q131 -131 303 -131t298 143.5t126 341.5q0 131 -79 214t-204 83q-162 0 -329 -145z" />
<glyph unicode="q" horiz-adv-x="1214" d="M76 395q0 236 159.5 409t378.5 173q211 0 359 -160l33 141h26q14 -2 29 -2h51q76 0 145 5l-24 -109l-135 4l-269 -1186l152 4l-25 -108q-100 2 -143 2h-123q-41 0 -143 -2l24 108l138 -4l96 418q-162 -109 -318 -108q-186 0 -298.5 113.5t-112.5 301.5zM199 379 q0 -127 87 -211t220 -84q82 0 157.5 36t176.5 122l106 460q-139 160 -319 160q-176 0 -302 -142t-126 -341z" />
<glyph unicode="r" horiz-adv-x="800" d="M-29 -2l25 108l137 -4l172 754l-151 -4l26 109q66 -4 142 -5h79q20 0 48 2l-52 -219q51 98 187 172q122 66 230 67q12 0 24 -1l-31 -123q-178 -6 -304 -118.5t-169 -303.5l-76 -330l152 4l-27 -108q-100 2 -143 2h-125q-42 0 -144 -2z" />
<glyph unicode="s" horiz-adv-x="890" d="M-2 0q23 78 68 287h102q-6 -29 -6 -45q0 -63 70.5 -106.5t173.5 -43.5q100 0 158.5 42t58.5 114q0 61 -41 102t-170 109q-141 76 -195.5 135t-54.5 139q0 106 89 175t228 69q170 0 283 -115l22 94h109q-45 -160 -68 -292h-106q8 27 8 53q0 59 -72.5 103t-171.5 44 q-86 0 -142 -36.5t-56 -94.5q0 -37 22 -59q31 -31 193 -121q133 -76 189 -143.5t56 -153.5q0 -119 -98 -205q-86 -72 -241 -71q-164 0 -275 108l-20 -88h-113z" />
<glyph unicode="t" horiz-adv-x="598" d="M117 125q0 63 20 149l131 574l-145 -2l24 110h146l59 263l148 118l-88 -381h157l-26 -110l-154 2l-135 -574q-16 -76 -16 -120q0 -31 18 -50.5t49 -19.5q49 0 178 57l-24 -123q-100 -39 -170 -38q-76 0 -124 39.5t-48 105.5z" />
<glyph unicode="u" horiz-adv-x="1128" d="M129 852l25 109q66 -4 141 -5h82q12 0 24 2h21l-125 -567q-25 -104 -25 -172q0 -59 40 -95t110 -36q160 0 336 205l131 561l-158 -4l25 108q100 -2 143 -2h68q18 0 34 2h29l-196 -856l149 4l-25 -108q-102 2 -141 2h-74q-12 0 -24 -2h-27l25 125q-119 -86 -185.5 -114.5 t-148.5 -28.5q-100 0 -166.5 66.5t-66.5 166.5q0 55 16 127l115 516z" />
<glyph unicode="v" horiz-adv-x="999" d="M90 850l25 108q63 -2 92 -2h117q80 0 151 2l-26 -108l-117 4l20 -704l459 706l-135 -4l26 109q61 -4 168 -5h101q25 0 100 2l-24 -108l-101 4l-586 -887l-112 4l-39 883z" />
<glyph unicode="w" horiz-adv-x="1536" d="M90 850l25 108q41 -2 86 -2h100q31 0 154 2l-25 -108l-115 4l15 -727l418 727l-123 -4l26 108q55 -2 144 -2h143q49 0 145 2l-24 -108l-117 4l6 -725l436 725l-122 -4l24 108q57 -2 137 -2h93q29 0 92 2l-25 -108l-70 4l-550 -885h-119l-6 838l-486 -838h-125l-28 885z " />
<glyph unicode="x" horiz-adv-x="1040" d="M-78 -2l25 108l102 -4l402 390l-189 362l-125 -4l27 108q39 -2 76 -2h129q57 0 161 2l-24 -108l-117 4l146 -279l290 279l-141 -4l25 108q100 -2 170 -2h114q35 0 101 2l-25 -108l-92 4l-393 -379l192 -373l117 4l-27 -108h-41q-20 2 -41 2h-114q-51 0 -160 -2l27 108 l110 -4l-149 289l-299 -289l147 4l-24 -108q-66 2 -175 2h-122q-27 0 -103 -2z" />
<glyph unicode="y" horiz-adv-x="1007" d="M-113 -438l25 108l176 -6l197 324l-68 866l-127 -4l27 108q70 -2 102 -2h113q51 0 157 2l-24 -108l-129 4l51 -707l422 709l-133 -4l24 109q49 -4 144 -5h121q66 0 114 2l-24 -108l-119 4l-782 -1292q-57 2 -84 2h-111q-20 0 -39 -2h-33z" />
<glyph unicode="z" horiz-adv-x="866" d="M-29 -2l27 113l717 749h-412l-43 -217h-110l71 315q39 -2 105 -2h426q66 0 122 2l-28 -122l-711 -734h440l48 201h106q-6 -20 -72 -305q-66 2 -102 2h-459q-41 0 -125 -2z" />
<glyph unicode="{" horiz-adv-x="681" d="M76 -281q0 72 20 156l82 352q10 47 10 80q0 45 -19 70.5t-65 40.5l23 98q68 18 104.5 61.5t57.5 129.5l82 352q35 158 88 219q76 88 213 88h73l-22 -94q-109 -4 -159 -47t-77 -156l-84 -367q-23 -100 -63.5 -153t-114.5 -82q82 -43 82 -135q0 -45 -12 -101l-86 -366 q-12 -45 -12 -98q0 -49 38.5 -77t108.5 -28h23l-23 -94h-88q-180 -1 -180 151z" />
<glyph unicode="|" d="M469 -342v1708h86v-1708h-86z" />
<glyph unicode="}" horiz-adv-x="681" d="M-61 -432l22 94q109 4 159 47t77 156l84 366q23 100 63.5 153.5t114.5 82.5q-82 43 -82 135q0 49 12 100l84 367q14 53 14 98q0 49 -38.5 77t-108.5 28h-23l23 94h86q182 0 182 -152q0 -68 -20 -155l-82 -352q-10 -45 -10 -80q0 -82 84 -111l-23 -98 q-68 -18 -104.5 -61.5t-57.5 -129.5l-82 -352q-35 -154 -90 -219q-72 -88 -211 -88h-73z" />
<glyph unicode="~" horiz-adv-x="1366" d="M246 1278q123 190 286 190q55 0 189 -45q111 -37 162 -37q117 0 213 117l24 -16q-49 -82 -128 -135.5t-150 -53.5q-43 0 -135 31q-178 57 -242 57q-57 0 -94 -23.5t-101 -100.5z" />
<glyph unicode="&#xa1;" horiz-adv-x="475" d="M-35 -410l250 1020h102l-219 -1020h-133zM229 743l50 213h135l-49 -213h-136z" />
<glyph unicode="&#xa2;" d="M133 610q0 246 144.5 416t357.5 174l35 154h112l-37 -164q115 -39 189 -137l29 123h114q-39 -152 -69 -306h-107q-4 80 -54 137.5t-128 71.5l-176 -770q90 16 149.5 54t138.5 135l91 -70q-88 -121 -180.5 -174t-225.5 -57l-45 -197h-113l48 209q-273 96 -273 401z M252 602q0 -195 180 -278l176 763q-127 -12 -225 -120q-59 -68 -95 -169.5t-36 -195.5z" />
<glyph unicode="&#xa3;" d="M23 137q0 80 53 138.5t129 58.5q61 0 141 -60q51 135 51 297q0 25 -2 43h-233l24 109h203q-14 164 -14 221q0 190 102.5 318.5t255.5 128.5q123 0 203 -81t80 -204q0 -33 -15 -92h-118q6 59 6 76q0 84 -42 133t-114 49q-106 0 -168.5 -95.5t-62.5 -256.5q0 -98 16 -197 h236l-27 -109h-213q2 -20 2 -47q0 -168 -82 -377q68 -94 152 -94q92 0 166 99q31 39 77 127h127q-49 -143 -156.5 -245t-210 -102t-216.5 115q-86 -115 -205 -115q-61 0 -103 46t-42 116zM127 141q0 -29 18.5 -48t44.5 -19q72 0 111 94q0 2 -2 6q-12 27 -37.5 44.5 t-52.5 17.5q-33 0 -57.5 -29t-24.5 -66z" />
<glyph unicode="&#xa4;" d="M180 391l123 123l-12 18q-31 47 -40 76t-9 76q0 66 49 152l12 18l-123 121l80 82l123 -123q14 10 18 10q51 31 79 40t73 9t70.5 -8t81.5 -41l4 -2q2 -2 6 -4l8 -4l123 123l80 -82l-123 -121l12 -18q49 -86 49 -152q0 -45 -8 -71.5t-41 -80.5l-12 -18l123 -123l-80 -80 l-123 121q-84 -59 -170 -59q-82 0 -170 59l-123 -121zM324 686q0 -96 66.5 -163.5t162.5 -67.5q94 0 161.5 67.5t67.5 161.5t-67.5 160.5t-161.5 66.5t-161.5 -66.5t-67.5 -158.5z" />
<glyph unicode="&#xa5;" d="M94 530l25 107h356l-41 158h-278l24 106h223l-96 354h-127l27 109q78 -4 119 -4h96q57 0 115 2l73 2l-26 -109h-148l131 -540l396 540h-164l24 109q111 -4 168 -4h115q37 0 119 4l-25 -109h-121l-256 -354h224l-25 -106h-274l-115 -158h352l-24 -107h-375l-101 -430 l152 4l-25 -108q-98 4 -137 4h-133q-35 0 -137 -4l24 108l133 -4l99 430h-367z" />
<glyph unicode="&#xa6;" d="M469 313h86v-655h-86v655zM469 690v676h86v-676h-86z" />
<glyph unicode="&#xa7;" d="M-6 -205q0 63 24 142h119q-27 -72 -26 -111q0 -74 65.5 -121t167.5 -47q123 0 205 63.5t82 159.5q0 70 -42 132.5t-151 154.5l-170 145q-90 76 -122.5 129.5t-32.5 124.5q0 137 106 221q47 39 129 58q-70 98 -69 194q0 152 109.5 251.5t275.5 99.5q164 0 261 -92.5 t97 -249.5q0 -20 -2 -41h-123q4 29 4 57q0 94 -64.5 150.5t-170.5 56.5q-113 0 -190 -63.5t-77 -157.5q0 -98 152 -217l231 -185q141 -113 142 -231q0 -141 -109 -230q-47 -39 -139 -67q80 -98 80 -227q0 -154 -110.5 -251.5t-287.5 -97.5q-162 0 -263 69.5t-101 180.5z M236 575q0 -80 139 -192l207 -166h18q80 0 138.5 54.5t58.5 125.5q0 78 -103 158l-248 199q-90 -4 -150 -56.5t-60 -122.5z" />
<glyph unicode="&#xa8;" d="M387 1219q0 41 28.5 69.5t69.5 28.5q39 0 69 -30t30 -68.5t-30 -68.5t-69 -30t-68.5 30t-29.5 69zM721 1219q0 41 28.5 69.5t69.5 28.5t70 -30t29 -68.5t-29 -68.5t-70 -30t-69.5 30t-28.5 69z" />
<glyph unicode="&#xa9;" horiz-adv-x="1562" d="M113 682q0 299 209.5 507t513.5 208q287 0 494.5 -211t207.5 -504q0 -295 -209 -504t-504 -209q-293 0 -502.5 210t-209.5 503zM190 682q0 -266 186.5 -454.5t448.5 -188.5t448.5 189.5t186.5 455.5q0 262 -185 452.5t-441 190.5q-268 0 -456 -187.5t-188 -457.5z M408 625q0 188 148.5 328.5t346.5 140.5q160 0 238 -97l20 84h82q-25 -90 -55 -237h-80v12q0 70 -58.5 114t-154.5 44q-156 0 -275.5 -117t-119.5 -268q0 -113 71.5 -187.5t180.5 -74.5q170 0 299 163l65 -59q-147 -184 -358 -184q-158 0 -254 93t-96 245z" />
<glyph unicode="&#xaa;" horiz-adv-x="681" d="M29 608l16 68h682l-16 -68h-682zM193 973q0 78 64.5 128t164.5 50q90 0 182 -33l17 72q2 8 2 27q0 88 -105 88q-100 0 -174 -95l-72 33q51 74 108.5 104.5t137.5 30.5q90 0 140.5 -39t50.5 -108q0 -14 -4 -47l-68 -293l88 2l-16 -76q-66 2 -95 2h-39q-6 0 -40 -2l10 45 q-88 -55 -176 -55q-74 0 -125 48t-51 118zM281 975q0 -41 27.5 -65.5t72.5 -24.5q78 0 186 71l21 91q-80 27 -164 26q-63 0 -103 -27.5t-40 -70.5z" />
<glyph unicode="&#xab;" horiz-adv-x="987" d="M119 588l405 373h156l-430 -396l215 -530h-123zM395 547l453 414h153l-475 -437l199 -489h-123z" />
<glyph unicode="&#xac;" d="M76 477v70h872v-547h-157v477h-715z" />
<glyph unicode="&#xad;" horiz-adv-x="446" d="M-6 457l26 116h447l-27 -116h-446z" />
<glyph unicode="&#xae;" horiz-adv-x="1562" d="M113 682q0 299 209.5 507t513.5 208q287 0 494.5 -211t207.5 -504q0 -295 -209 -504t-504 -209q-293 0 -502.5 210t-209.5 503zM190 682q0 -266 186.5 -454.5t448.5 -188.5t448.5 189.5t186.5 455.5q0 262 -185 452.5t-441 190.5q-268 0 -456 -187.5t-188 -457.5z M487 299l19 80h76l145 625l-88 -3l18 80q66 -2 91 -2h81l115 2q106 2 162.5 -47t56.5 -139t-49 -144.5t-139 -66.5l74 -305h108l-18 -80q-41 2 -86 2h-45q-6 0 -35 -2l-90 377l-72 -2l-51 2h-17l-69 -297h86l-19 -80q-51 2 -88 2h-75q-23 0 -91 -2zM760 754h100 q119 0 165 30.5t46 108.5q0 66 -39 89.5t-145 21.5l-70 -3z" />
<glyph unicode="&#xaf;" d="M350 1155l25 107h543l-25 -107h-543z" />
<glyph unicode="&#xb0;" horiz-adv-x="681" d="M213 1116q0 113 81 191.5t198 78.5q109 0 188.5 -80.5t79.5 -191.5q0 -113 -80 -193.5t-193 -80.5q-115 0 -194.5 80.5t-79.5 195.5zM309 1114q0 -74 52.5 -126t125.5 -52q72 0 124.5 52t52.5 126q0 72 -52.5 124t-122.5 52q-76 0 -128 -51t-52 -125z" />
<glyph unicode="&#xb1;" d="M43 168l27 117h792l-26 -117h-793zM170 713l27 116h323l74 318h115l-72 -318h350l-26 -116h-351l-73 -318h-117l74 318h-324z" />
<glyph unicode="&#xb2;" horiz-adv-x="659" d="M129 545q0 215 277 397q117 78 159.5 131t42.5 117q0 45 -30.5 75.5t-77.5 30.5q-92 0 -148 -102q-20 -41 -47 -145h-92q39 147 80 206q86 125 211 125q80 0 136 -56t56 -136q0 -152 -219 -301q-125 -86 -175 -138.5t-75 -121.5h273l51 213h84l-70 -295q-37 2 -76 2h-280 q-14 0 -80 -2z" />
<glyph unicode="&#xb3;" horiz-adv-x="659" d="M143 776q0 29 4 53h86v-14q0 -96 27 -137q39 -59 113 -60q76 0 130 52.5t54 124.5q0 88 -76 120q-47 18 -141 19l20 84q16 -2 41 -2q90 0 149.5 47t59.5 119q0 49 -31.5 81.5t-80.5 32.5q-66 0 -108 -44t-54 -124h-92q20 115 89.5 183.5t168.5 68.5q84 0 141 -58t57 -144 q0 -72 -41 -128.5t-112 -80.5q43 -18 71.5 -65.5t28.5 -100.5q0 -109 -81 -190t-189 -81q-106 0 -170 66.5t-64 177.5z" />
<glyph unicode="&#xb4;" d="M547 1092l221 280h170l-272 -280h-119z" />
<glyph unicode="&#xb5;" horiz-adv-x="1128" d="M10 -332l293 1290h119l-125 -567q-23 -106 -23 -172q0 -59 40 -95t110 -36q156 0 336 205l153 665h119l-198 -856l151 4l-24 -108q-104 2 -144 2h-72q-14 0 -26 -2h-25l23 125q-119 -88 -184.5 -115.5t-147.5 -27.5q-100 0 -168 67l-88 -379h-119z" />
<glyph unicode="&#xb6;" d="M53 -434l29 129l192 -4l220 946h-29q-145 0 -229 73.5t-84 200.5q0 98 50 195.5t134 161.5q131 98 348 98h387q35 0 70 2q31 0 59 2l-31 -129l-170 2l-358 -1556l176 4l-31 -127q-74 4 -174 4h-88l387 1675h-188l-385 -1675h-98q-23 0 -187 -2z" />
<glyph unicode="&#xb7;" horiz-adv-x="421" d="M123 391l49 213h135l-49 -213h-135z" />
<glyph unicode="&#xb8;" d="M240 -418l20 80q84 14 102 109h-77l30 127h156l-31 -134q-40 -182 -200 -182z" />
<glyph unicode="&#xb9;" horiz-adv-x="659" d="M205 545l20 88l101 -2l151 649h-112l20 88q43 -2 109 -2h51q6 0 45 4l-172 -739l104 2l-20 -88q-45 2 -111 2h-78q-28 0 -108 -2z" />
<glyph unicode="&#xba;" horiz-adv-x="681" d="M29 608l16 68h682l-16 -68h-682zM174 1047q0 137 100.5 234t241.5 97q109 0 176.5 -64.5t67.5 -164.5q0 -145 -95.5 -242.5t-238.5 -97.5q-115 0 -183.5 66t-68.5 172zM262 1051q0 -78 46 -124t124 -46q98 0 169 76.5t71 183.5q0 74 -43 119t-115 45q-102 0 -177 -75 t-75 -179z" />
<glyph unicode="&#xbb;" horiz-adv-x="987" d="M-8 35l475 438l-199 488h123l207 -510l-453 -416h-153zM313 35l430 397l-215 529h123l223 -553l-405 -373h-156z" />
<glyph unicode="&#xbc;" horiz-adv-x="1576" d="M205 545l20 88l101 -2l151 649h-112l20 88q43 -2 109 -2h51q6 0 45 4l-172 -739l104 2l-20 -88q-45 2 -111 2h-78q-28 0 -108 -2zM281 29l1050 1355l58 -45l-1049 -1357zM926 311l469 527h84l-123 -521h117l-21 -84h-115l-37 -149l91 2l-21 -88q-43 2 -94 2h-74 q-47 0 -98 -2l20 88l90 -2l35 149h-295zM1034 317h236l84 363z" />
<glyph unicode="&#xbd;" horiz-adv-x="1576" d="M205 545l20 88l101 -2l151 649h-112l20 88q43 -2 109 -2h51q6 0 45 4l-172 -739l104 2l-20 -88q-45 2 -111 2h-78q-28 0 -108 -2zM281 29l1050 1355l58 -45l-1049 -1357zM920 -2q0 211 278 397q117 78 160 131.5t43 116.5q0 45 -31 76t-78 31q-94 0 -147 -103 q-20 -33 -49 -145h-92q39 145 79 207q86 125 213 125q80 0 136.5 -56.5t56.5 -138.5q0 -150 -219 -299q-125 -86 -176.5 -138t-75.5 -122h274l49 213h84l-69 -295q-37 2 -74 2h-283q-11 0 -79 -2z" />
<glyph unicode="&#xbe;" horiz-adv-x="1576" d="M143 776q0 29 4 53h86v-14q0 -96 27 -137q39 -59 113 -60q76 0 130 52.5t54 124.5q0 88 -76 120q-47 18 -141 19l20 84q16 -2 41 -2q90 0 149.5 47t59.5 119q0 49 -31.5 81.5t-80.5 32.5q-66 0 -108 -44t-54 -124h-92q20 115 89.5 183.5t168.5 68.5q84 0 141 -58t57 -144 q0 -72 -41 -128.5t-112 -80.5q43 -18 71.5 -65.5t28.5 -100.5q0 -109 -81 -190t-189 -81q-106 0 -170 66.5t-64 177.5zM281 29l1050 1355l58 -45l-1049 -1357zM926 311l469 527h84l-123 -521h117l-21 -84h-115l-37 -149l91 2l-21 -88q-43 2 -94 2h-74q-47 0 -98 -2l20 88 l90 -2l35 149h-295zM1034 317h236l84 363z" />
<glyph unicode="&#xbf;" horiz-adv-x="872" d="M-63 -115q0 176 116.5 300t282.5 124q33 0 51 -2l70 301h112l-100 -432q-55 18 -107 19q-135 0 -212 -84q-90 -100 -91 -232q0 -84 53.5 -139t135.5 -55q86 0 155.5 55t98.5 145h137q-45 -145 -151.5 -231t-241.5 -86q-139 0 -224 87t-85 230zM475 743l49 213h133 l-49 -213h-133z" />
<glyph unicode="&#xc0;" horiz-adv-x="1306" d="M-90 -4l29 121l118 -4l629 1142l-160 -4l27 119q88 -4 178 -4h187q123 0 192 4l-27 -119l-131 4l131 -1142l138 4l-27 -121q-111 4 -133 4h-100q-68 0 -189 -4l29 121l151 -4l-47 399h-493l-219 -399l159 4l-26 -121q-115 4 -160 4h-119q-41 0 -137 -4zM475 629h420 l-76 626zM629 1726h172l139 -237h-125z" />
<glyph unicode="&#xc1;" horiz-adv-x="1306" d="M-90 -4l29 121l118 -4l629 1142l-160 -4l27 119q88 -4 178 -4h187q123 0 192 4l-27 -119l-131 4l131 -1142l138 4l-27 -121q-111 4 -133 4h-100q-68 0 -189 -4l29 121l151 -4l-47 399h-493l-219 -399l159 4l-26 -121q-115 4 -160 4h-119q-41 0 -137 -4zM475 629h420 l-76 626zM788 1489l201 237h187l-258 -237h-130z" />
<glyph unicode="&#xc2;" horiz-adv-x="1306" d="M-90 -4l29 121l118 -4l629 1142l-160 -4l27 119q88 -4 178 -4h187q123 0 192 4l-27 -119l-131 4l131 -1142l138 4l-27 -121q-111 4 -133 4h-100q-68 0 -189 -4l29 121l151 -4l-47 399h-493l-219 -399l159 4l-26 -121q-115 4 -160 4h-119q-41 0 -137 -4zM475 629h420 l-76 626zM586 1489l270 237h152l139 -237h-133l-92 160l-193 -160h-143z" />
<glyph unicode="&#xc3;" horiz-adv-x="1306" d="M-90 -4l29 121l118 -4l629 1142l-160 -4l27 119q88 -4 178 -4h187q123 0 192 4l-27 -119l-131 4l131 -1142l138 4l-27 -121q-111 4 -133 4h-100q-68 0 -189 -4l29 121l151 -4l-47 399h-493l-219 -399l159 4l-26 -121q-115 4 -160 4h-119q-41 0 -137 -4zM475 629h420 l-76 626zM588 1499q43 215 172 215q33 0 54.5 -9t127.5 -69q55 -31 84 -30q61 0 88 108h98q-47 -219 -184 -219q-66 0 -154 55q-84 51 -116 52q-55 0 -72 -103h-98z" />
<glyph unicode="&#xc4;" horiz-adv-x="1306" d="M-90 -4l29 121l118 -4l629 1142l-160 -4l27 119q88 -4 178 -4h187q123 0 192 4l-27 -119l-131 4l131 -1142l138 4l-27 -121q-111 4 -133 4h-100q-68 0 -189 -4l29 121l151 -4l-47 399h-493l-219 -399l159 4l-26 -121q-115 4 -160 4h-119q-41 0 -137 -4zM475 629h420 l-76 626zM618 1599q0 41 29 70t70 29t69.5 -30t28.5 -68.5t-28.5 -68.5t-69.5 -30t-70 29.5t-29 68.5zM967 1599q0 41 28.5 70t69.5 29t69.5 -30t28.5 -68.5t-28.5 -68.5t-69.5 -30t-69.5 29.5t-28.5 68.5z" />
<glyph unicode="&#xc5;" horiz-adv-x="1306" d="M-90 -4l29 121l118 -4l629 1142l-160 -4l27 119q88 -4 178 -4h187q123 0 192 4l-27 -119l-131 4l131 -1142l138 4l-27 -121q-111 4 -133 4h-100q-68 0 -189 -4l29 121l151 -4l-47 399h-493l-219 -399l159 4l-26 -121q-115 4 -160 4h-119q-41 0 -137 -4zM475 629h420 l-76 626zM698 1616q0 70 52.5 121t123.5 51q70 0 121.5 -51t51.5 -123t-51.5 -123t-123 -51t-123 51t-51.5 125zM791 1614q0 -33 24.5 -57.5t57 -24.5t57 24.5t24.5 57.5t-23.5 56.5t-56.5 23.5q-35 0 -59 -23.5t-24 -56.5z" />
<glyph unicode="&#xc6;" horiz-adv-x="1916" d="M-111 -4l29 121l143 -2l906 1140l-195 -6l27 121q106 -4 262 -4h807q39 0 129 4q-57 -231 -103 -444h-127l74 323h-581l-115 -499h495l-26 -117h-496l-119 -516h596l76 325h119q-70 -264 -102 -446q-57 4 -119 4h-721q-33 0 -146 -4l29 121l131 -2l121 518h-362 l-416 -518l172 2l-29 -121q-92 4 -211 4h-119q-41 0 -129 -4zM715 750h295l118 518z" />
<glyph unicode="&#xc7;" horiz-adv-x="1464" d="M135 561q0 332 254 581t592 249q295 0 418 -191l39 170h118q-53 -193 -92 -401h-118v16q0 127 -104.5 207t-268.5 80q-274 0 -487.5 -215t-213.5 -494q0 -203 125 -336t316 -133q297 0 518 285l96 -92q-121 -150 -276.5 -231t-323.5 -81q-266 0 -429 162t-163 424z M530 -426l23 84q78 10 104 98h-82l31 135h166l-31 -127q-47 -190 -211 -190z" />
<glyph unicode="&#xc8;" horiz-adv-x="1224" d="M4 -4l29 121l135 -2l262 1140l-149 -6l26 121q106 -4 144 -4h727q63 0 125 4q-63 -223 -101 -438h-125l74 317h-586l-114 -497h495l-26 -117h-496l-121 -518h598l76 329h121l-103 -450q-55 4 -121 4h-727q-34 0 -143 -4zM637 1726h172l139 -237h-125z" />
<glyph unicode="&#xc9;" horiz-adv-x="1224" d="M4 -4l29 121l135 -2l262 1140l-149 -6l26 121q106 -4 144 -4h727q63 0 125 4q-63 -223 -101 -438h-125l74 317h-586l-114 -497h495l-26 -117h-496l-121 -518h598l76 329h121l-103 -450q-55 4 -121 4h-727q-34 0 -143 -4zM782 1489l201 237h186l-258 -237h-129z" />
<glyph unicode="&#xca;" horiz-adv-x="1224" d="M4 -4l29 121l135 -2l262 1140l-149 -6l26 121q106 -4 144 -4h727q63 0 125 4q-63 -223 -101 -438h-125l74 317h-586l-114 -497h495l-26 -117h-496l-121 -518h598l76 329h121l-103 -450q-55 4 -121 4h-727q-34 0 -143 -4zM604 1489l270 237h152l139 -237h-133l-92 160 l-192 -160h-144z" />
<glyph unicode="&#xcb;" horiz-adv-x="1224" d="M4 -4l29 121l135 -2l262 1140l-149 -6l26 121q106 -4 144 -4h727q63 0 125 4q-63 -223 -101 -438h-125l74 317h-586l-114 -497h495l-26 -117h-496l-121 -518h598l76 329h121l-103 -450q-55 4 -121 4h-727q-34 0 -143 -4zM627 1599q0 41 28.5 70t69.5 29t69.5 -30 t28.5 -68.5t-28.5 -68.5t-69.5 -30t-69.5 29.5t-28.5 68.5zM975 1599q0 41 28.5 70t69.5 29t69.5 -30t28.5 -68.5t-28.5 -68.5t-69.5 -30t-69.5 29.5t-28.5 68.5z" />
<glyph unicode="&#xcc;" horiz-adv-x="643" d="M6 -4l29 121l131 -4l262 1142l-149 -4l26 119q102 -4 135 -4h148q33 0 133 4l-27 -119l-131 4l-262 -1142l150 4l-29 -121q-98 4 -133 4h-146q-35 0 -137 -4zM301 1726h172l139 -237h-125z" />
<glyph unicode="&#xcd;" horiz-adv-x="643" d="M8 -4l29 121l131 -4l262 1142l-149 -4l26 119q102 -4 135 -4h148q33 0 133 4l-27 -119l-131 4l-262 -1142l150 4l-29 -121q-98 4 -133 4h-146q-35 0 -137 -4zM481 1489l201 237h186l-258 -237h-129z" />
<glyph unicode="&#xce;" horiz-adv-x="643" d="M8 -4l27 121l133 -4l262 1142l-149 -4l28 119q98 -4 133 -4h148q31 0 135 4l-27 -119l-133 4l-262 -1142l150 4l-29 -121q-98 4 -133 4h-146q-33 0 -137 -4zM262 1489l256 237h152l127 -237h-133l-78 160l-178 -160h-146z" />
<glyph unicode="&#xcf;" horiz-adv-x="643" d="M8 -4l29 121l131 -4l262 1142l-149 -4l26 119q102 -4 135 -4h148q33 0 133 4l-27 -119l-131 4l-262 -1142l150 4l-29 -121q-98 4 -133 4h-146q-35 0 -137 -4zM342 1599q0 41 28.5 70t69.5 29q39 0 69 -30t30 -68.5t-30 -68.5t-69 -30t-68.5 29.5t-29.5 68.5zM606 1599 q0 41 29 70t69.5 29t69.5 -30t29 -68.5t-29 -68.5t-69.5 -30t-69.5 29.5t-29 68.5z" />
<glyph unicode="&#xd0;" horiz-adv-x="1439" d="M8 -4l29 121l131 -4l125 546h-150l27 117h149l111 479l-149 -4l28 119q106 -4 142 -4h131q264 0 327.5 -4t134.5 -23q162 -43 264.5 -197.5t102.5 -357.5q0 -197 -87 -374t-234 -283q-180 -129 -500 -129q-10 0 -68.5 1t-97.5 1h-148h-129q-39 0 -139 -4zM303 117h45h252 q344 0 516 217q160 197 160 452q0 137 -54.5 247t-148.5 161q-115 61 -362 59l-146 -2l-110 -475h356l-27 -117h-356z" />
<glyph unicode="&#xd1;" horiz-adv-x="1533" d="M8 -4l27 121l133 -4l262 1142l-149 -4l28 119q102 -4 142 -4h141q14 0 63 4l430 -1200l250 1085l-149 -4l28 119q102 -4 142 -4h131q35 0 143 4l-26 -119l-134 4l-288 -1255h-154l-465 1243l-260 -1130l150 4l-29 -121q-102 4 -141 4h-136q-39 0 -139 -4zM745 1499 q43 215 173 215q33 0 54 -9t128 -69q55 -31 84 -30q61 0 88 108h98q-47 -219 -184 -219q-66 0 -154 55q-84 51 -117 52q-55 0 -71 -103h-99z" />
<glyph unicode="&#xd2;" horiz-adv-x="1511" d="M123 522q0 315 199 572q227 297 589 297q260 0 416 -154t156 -408q0 -203 -84 -391t-228 -309q-182 -154 -466 -154q-238 0 -390 123q-90 74 -141 185.5t-51 238.5zM260 516q0 -188 126 -305t327 -117q244 0 409 182q106 115 165 262.5t59 303.5q0 201 -140 321 q-131 109 -293 109q-301 0 -499 -275q-154 -215 -154 -481zM698 1726h172l140 -237h-125z" />
<glyph unicode="&#xd3;" horiz-adv-x="1511" d="M123 522q0 315 199 572q227 297 589 297q260 0 416 -154t156 -408q0 -203 -84 -391t-228 -309q-182 -154 -466 -154q-238 0 -390 123q-90 74 -141 185.5t-51 238.5zM260 516q0 -188 126 -305t327 -117q244 0 409 182q106 115 165 262.5t59 303.5q0 201 -140 321 q-131 109 -293 109q-301 0 -499 -275q-154 -215 -154 -481zM866 1489l201 237h186l-258 -237h-129z" />
<glyph unicode="&#xd4;" horiz-adv-x="1511" d="M123 522q0 315 199 572q227 297 589 297q260 0 416 -154t156 -408q0 -203 -84 -391t-228 -309q-182 -154 -466 -154q-238 0 -390 123q-90 74 -141 185.5t-51 238.5zM260 516q0 -188 126 -305t327 -117q244 0 409 182q106 115 165 262.5t59 303.5q0 201 -140 321 q-131 109 -293 109q-301 0 -499 -275q-154 -215 -154 -481zM692 1489l271 237h151l139 -237h-133l-92 160l-192 -160h-144z" />
<glyph unicode="&#xd5;" horiz-adv-x="1511" d="M123 522q0 315 199 572q227 297 589 297q260 0 416 -154t156 -408q0 -203 -84 -391t-228 -309q-182 -154 -466 -154q-238 0 -390 123q-90 74 -141 185.5t-51 238.5zM260 516q0 -188 126 -305t327 -117q244 0 409 182q106 115 165 262.5t59 303.5q0 201 -140 321 q-131 109 -293 109q-301 0 -499 -275q-154 -215 -154 -481zM709 1499q43 215 172 215q33 0 54 -9t128 -69q55 -31 84 -30q61 0 88 108h98q-47 -219 -184 -219q-66 0 -154 55q-84 51 -116 52q-55 0 -72 -103h-98z" />
<glyph unicode="&#xd6;" horiz-adv-x="1511" d="M123 522q0 315 199 572q227 297 589 297q260 0 416 -154t156 -408q0 -203 -84 -391t-228 -309q-182 -154 -466 -154q-238 0 -390 123q-90 74 -141 185.5t-51 238.5zM260 516q0 -188 126 -305t327 -117q244 0 409 182q106 115 165 262.5t59 303.5q0 201 -140 321 q-131 109 -293 109q-301 0 -499 -275q-154 -215 -154 -481zM733 1599q0 41 29 70t69.5 29t69.5 -30t29 -68.5t-29 -68.5t-69.5 -30t-69.5 29.5t-29 68.5zM1081 1599q0 41 29 70t70 29t69.5 -30t28.5 -68.5t-28.5 -68.5t-69.5 -30t-70 29.5t-29 68.5z" />
<glyph unicode="&#xd7;" d="M119 420l362 293l-239 293l90 73l239 -295l363 295l74 -90l-363 -295l240 -293l-90 -73l-240 295l-362 -293z" />
<glyph unicode="&#xd8;" horiz-adv-x="1511" d="M90 41l143 143q-109 158 -108 353q0 137 53 287.5t146 273.5q223 293 585 293q256 0 414 -146l125 123l74 -74l-131 -127q96 -129 96 -344q0 -197 -84 -385t-227 -307q-184 -156 -465 -156q-240 0 -404 131l-143 -139zM262 520q0 -141 66 -246l895 881q-113 117 -310 117 q-260 0 -455.5 -226.5t-195.5 -525.5zM399 199q143 -104 322 -105q240 0 403 180q106 113 166 263.5t60 300.5q0 131 -56 233z" />
<glyph unicode="&#xd9;" horiz-adv-x="1359" d="M213 317q0 82 25 187l174 751l-150 -4l27 119q104 -4 141 -4h131q39 0 144 4l-27 -119l-131 4l-164 -712q-33 -135 -33 -234q0 -96 75 -155.5t193 -59.5q88 0 163 40t116 112q72 127 139 424l133 585l-149 -4l29 119q104 -4 141 -4h129q31 0 145 4l-26 -119l-133 4 l-152 -659q-53 -229 -88 -318.5t-98 -158.5q-131 -143 -369 -144q-168 0 -276.5 96t-108.5 246zM684 1726h172l139 -237h-125z" />
<glyph unicode="&#xda;" horiz-adv-x="1359" d="M213 317q0 82 25 187l174 751l-150 -4l27 119q104 -4 141 -4h131q39 0 144 4l-27 -119l-131 4l-164 -712q-33 -135 -33 -234q0 -96 75 -155.5t193 -59.5q88 0 163 40t116 112q72 127 139 424l133 585l-149 -4l29 119q104 -4 141 -4h129q31 0 145 4l-26 -119l-133 4 l-152 -659q-53 -229 -88 -318.5t-98 -158.5q-131 -143 -369 -144q-168 0 -276.5 96t-108.5 246zM850 1489l201 237h186l-258 -237h-129z" />
<glyph unicode="&#xdb;" horiz-adv-x="1359" d="M213 317q0 82 25 187l174 751l-150 -4l27 119q104 -4 141 -4h131q39 0 144 4l-27 -119l-131 4l-164 -712q-33 -135 -33 -234q0 -96 75 -155.5t193 -59.5q88 0 163 40t116 112q72 127 139 424l133 585l-149 -4l29 119q104 -4 141 -4h129q31 0 145 4l-26 -119l-133 4 l-152 -659q-53 -229 -88 -318.5t-98 -158.5q-131 -143 -369 -144q-168 0 -276.5 96t-108.5 246zM633 1489l270 237h152l139 -237h-133l-92 160l-193 -160h-143z" />
<glyph unicode="&#xdc;" horiz-adv-x="1359" d="M213 317q0 82 25 187l174 751l-150 -4l27 119q104 -4 141 -4h131q39 0 144 4l-27 -119l-131 4l-164 -712q-33 -135 -33 -234q0 -96 75 -155.5t193 -59.5q88 0 163 40t116 112q72 127 139 424l133 585l-149 -4l29 119q104 -4 141 -4h129q31 0 145 4l-26 -119l-133 4 l-152 -659q-53 -229 -88 -318.5t-98 -158.5q-131 -143 -369 -144q-168 0 -276.5 96t-108.5 246zM672 1599q0 41 28.5 70t69.5 29t69.5 -30t28.5 -68.5t-28.5 -68.5t-69.5 -30t-69.5 29.5t-28.5 68.5zM1020 1599q0 41 28.5 70t69.5 29t70 -30t29 -68.5t-29 -68.5t-70 -30 t-69.5 29.5t-28.5 68.5z" />
<glyph unicode="&#xdd;" horiz-adv-x="1206" d="M164 1249l29 121q74 -4 110 -4h123q59 0 207 4l-29 -121h-143l192 -518l449 518h-160l27 121q86 -4 188 -4h127q59 0 125 4l-27 -121h-125l-569 -657l-110 -479l149 4l-27 -121q-104 4 -141 4h-133q-35 0 -141 -4l26 121l131 -4l117 505l-240 631h-155zM770 1489l201 237 h186l-258 -237h-129z" />
<glyph unicode="&#xde;" horiz-adv-x="1085" d="M10 -4l27 121l133 -4l262 1140l-149 -4l28 121q104 -4 138 -4h145q31 0 131 4l-27 -121l-131 4l-30 -139q190 -2 235 -6t111 -29q90 -33 144 -124t54 -212q0 -178 -102 -292.5t-272 -128.5q-86 -6 -355 -9l-47 -200l150 4l-29 -121q-104 4 -141 4h-135q-40 0 -140 -4z M379 430q25 2 55 2q211 0 270.5 8.5t119 43t94 104t34.5 157.5q0 190 -174 234q-74 16 -268 18z" />
<glyph unicode="&#xdf;" horiz-adv-x="1204" d="M-37 -2l25 108l137 -4l164 711q63 281 149 408q109 158 342 157q158 0 258.5 -86t100.5 -221q0 -152 -117 -235q-51 -37 -156 -66q201 -96 201 -334q0 -193 -114.5 -324.5t-280.5 -131.5q-123 0 -230 65l50 102q100 -51 174 -51q133 0 204 109q74 113 74 235 q0 76 -35 145.5t-92 106.5q-61 41 -188 49l22 105q154 0 217 24q68 29 107 81.5t39 117.5q0 86 -71 144.5t-173 58.5q-168 0 -250 -137q-63 -106 -127 -377l-149 -656l149 4l-24 -108q-104 2 -148 2h-115q-41 0 -143 -2z" />
<glyph unicode="&#xe0;" horiz-adv-x="1050" d="M51 260q0 137 103.5 223t269.5 86q150 0 311 -63l33 147q6 25 6 52q0 78 -47 120.5t-131 42.5q-174 0 -299 -161l-98 49q80 119 172 170t221 51q145 0 224 -64.5t79 -183.5q0 -39 -10 -86l-123 -541l149 4l-24 -108q-106 2 -146 2h-67q-16 0 -33 -2h-23l21 96 q-141 -115 -307 -114q-119 0 -200 80.5t-81 199.5zM174 262q0 -76 48 -121t126 -45q135 0 322 131l43 179q-145 51 -281 51q-115 0 -186.5 -54.5t-71.5 -140.5zM422 1372h164l133 -280h-107z" />
<glyph unicode="&#xe1;" horiz-adv-x="1050" d="M51 260q0 137 103.5 223t269.5 86q150 0 311 -63l33 147q6 25 6 52q0 78 -47 120.5t-131 42.5q-174 0 -299 -161l-98 49q80 119 172 170t221 51q145 0 224 -64.5t79 -183.5q0 -39 -10 -86l-123 -541l149 4l-24 -108q-106 2 -146 2h-67q-16 0 -33 -2h-23l21 96 q-141 -115 -307 -114q-119 0 -200 80.5t-81 199.5zM174 262q0 -76 48 -121t126 -45q135 0 322 131l43 179q-145 51 -281 51q-115 0 -186.5 -54.5t-71.5 -140.5zM553 1092l221 280h170l-272 -280h-119z" />
<glyph unicode="&#xe2;" horiz-adv-x="1050" d="M51 260q0 137 103.5 223t269.5 86q150 0 311 -63l33 147q6 25 6 52q0 78 -47 120.5t-131 42.5q-174 0 -299 -161l-98 49q80 119 172 170t221 51q145 0 224 -64.5t79 -183.5q0 -39 -10 -86l-123 -541l149 4l-24 -108q-106 2 -146 2h-67q-16 0 -33 -2h-23l21 96 q-141 -115 -307 -114q-119 0 -200 80.5t-81 199.5zM174 262q0 -76 48 -121t126 -45q135 0 322 131l43 179q-145 51 -281 51q-115 0 -186.5 -54.5t-71.5 -140.5zM367 1092l274 280h129l139 -280h-114l-105 186l-196 -186h-127z" />
<glyph unicode="&#xe3;" horiz-adv-x="1050" d="M51 260q0 137 103.5 223t269.5 86q150 0 311 -63l33 147q6 25 6 52q0 78 -47 120.5t-131 42.5q-174 0 -299 -161l-98 49q80 119 172 170t221 51q145 0 224 -64.5t79 -183.5q0 -39 -10 -86l-123 -541l149 4l-24 -108q-106 2 -146 2h-67q-16 0 -33 -2h-23l21 96 q-141 -115 -307 -114q-119 0 -200 80.5t-81 199.5zM174 262q0 -76 48 -121t126 -45q135 0 322 131l43 179q-145 51 -281 51q-115 0 -186.5 -54.5t-71.5 -140.5zM391 1114q39 215 158 215q33 0 53.5 -10t110.5 -70q51 -33 73 -32q55 0 80 112h95q-45 -221 -170 -221 q-49 0 -136 57q-78 53 -106 54q-43 0 -64 -105h-94z" />
<glyph unicode="&#xe4;" horiz-adv-x="1050" d="M51 260q0 137 103.5 223t269.5 86q150 0 311 -63l33 147q6 25 6 52q0 78 -47 120.5t-131 42.5q-174 0 -299 -161l-98 49q80 119 172 170t221 51q145 0 224 -64.5t79 -183.5q0 -39 -10 -86l-123 -541l149 4l-24 -108q-106 2 -146 2h-67q-16 0 -33 -2h-23l21 96 q-141 -115 -307 -114q-119 0 -200 80.5t-81 199.5zM174 262q0 -76 48 -121t126 -45q135 0 322 131l43 179q-145 51 -281 51q-115 0 -186.5 -54.5t-71.5 -140.5zM434 1219q0 41 29 69.5t69.5 28.5t69.5 -30t29 -68.5t-29 -68.5t-69.5 -30t-69.5 30t-29 69zM768 1219 q0 41 28.5 69.5t69.5 28.5q39 0 69 -30t30 -68.5t-30 -68.5t-69 -30t-68.5 30t-29.5 69z" />
<glyph unicode="&#xe5;" horiz-adv-x="1050" d="M51 260q0 137 103.5 223t269.5 86q150 0 311 -63l33 147q6 25 6 52q0 78 -47 120.5t-131 42.5q-174 0 -299 -161l-98 49q80 119 172 170t221 51q145 0 224 -64.5t79 -183.5q0 -39 -10 -86l-123 -541l149 4l-24 -108q-106 2 -146 2h-67q-16 0 -33 -2h-23l21 96 q-141 -115 -307 -114q-119 0 -200 80.5t-81 199.5zM174 262q0 -76 48 -121t126 -45q135 0 322 131l43 179q-145 51 -281 51q-115 0 -186.5 -54.5t-71.5 -140.5zM506 1235q0 70 52 121t124 51q70 0 121 -51t51 -123t-51 -123t-123 -51t-123 51t-51 125zM598 1233 q0 -33 24.5 -57.5t57.5 -24.5t57.5 24.5t24.5 57.5t-23.5 56.5t-56.5 23.5q-35 0 -59.5 -23.5t-24.5 -56.5z" />
<glyph unicode="&#xe6;" horiz-adv-x="1724" d="M51 260q0 133 105.5 221t265.5 88q106 0 321 -63q37 150 37 207q0 152 -192 151q-84 0 -163 -45t-128 -121l-100 54q139 225 405 225q121 0 194.5 -45t90.5 -129q147 174 360 174q180 0 287.5 -123t107.5 -326q0 -12 -4 -82h-786q-6 -43 -6 -65q0 -127 77.5 -206 t202.5 -79q182 0 336 154l99 -55q-176 -215 -433 -215q-137 0 -224 57t-136 182q-160 -240 -410 -239q-137 0 -222 76.5t-85 203.5zM174 258q0 -78 51 -123t140 -45q137 0 234 86t122 230q-123 57 -262 57q-125 0 -205 -57.5t-80 -147.5zM872 551h646q-2 150 -76 230.5 t-207 80.5q-121 0 -223.5 -88t-139.5 -223z" />
<glyph unicode="&#xe7;" horiz-adv-x="1019" d="M78 406q0 231 150.5 401t357.5 170q94 0 164.5 -37t136.5 -119l31 135h110q-63 -242 -72 -313h-110q-8 102 -78 161.5t-178 59.5q-172 0 -279 -151q-111 -156 -110 -334q0 -121 75.5 -204t184.5 -83q184 0 319 176l84 -65q-94 -119 -188 -171t-211 -52q-172 0 -279.5 119 t-107.5 307zM258 -418l18 80q84 12 103 109h-78l31 127h157l-30 -134q-41 -182 -201 -182z" />
<glyph unicode="&#xe8;" horiz-adv-x="1069" d="M78 399q0 244 149.5 411t368.5 167q176 0 284.5 -119t108.5 -313q0 -10 -4 -96h-784q-4 -61 -4 -76q0 -127 77.5 -207t202.5 -80q170 0 334 164l96 -55q-76 -102 -186.5 -158.5t-235.5 -56.5q-190 0 -298.5 111t-108.5 308zM221 557h649q-6 135 -65 209q-78 98 -217 98 q-123 0 -221.5 -83t-145.5 -224zM426 1372h164l133 -280h-107z" />
<glyph unicode="&#xe9;" horiz-adv-x="1069" d="M78 399q0 244 149.5 411t368.5 167q176 0 284.5 -119t108.5 -313q0 -10 -4 -96h-784q-4 -61 -4 -76q0 -127 77.5 -207t202.5 -80q170 0 334 164l96 -55q-76 -102 -186.5 -158.5t-235.5 -56.5q-190 0 -298.5 111t-108.5 308zM221 557h649q-6 135 -65 209q-78 98 -217 98 q-123 0 -221.5 -83t-145.5 -224zM549 1092l221 280h170l-272 -280h-119z" />
<glyph unicode="&#xea;" horiz-adv-x="1069" d="M78 399q0 244 149.5 411t368.5 167q176 0 284.5 -119t108.5 -313q0 -10 -4 -96h-784q-4 -61 -4 -76q0 -127 77.5 -207t202.5 -80q170 0 334 164l96 -55q-76 -102 -186.5 -158.5t-235.5 -56.5q-190 0 -298.5 111t-108.5 308zM221 557h649q-6 135 -65 209q-78 98 -217 98 q-123 0 -221.5 -83t-145.5 -224zM397 1092l275 280h129l139 -280h-115l-104 186l-197 -186h-127z" />
<glyph unicode="&#xeb;" horiz-adv-x="1069" d="M78 399q0 244 149.5 411t368.5 167q176 0 284.5 -119t108.5 -313q0 -10 -4 -96h-784q-4 -61 -4 -76q0 -127 77.5 -207t202.5 -80q170 0 334 164l96 -55q-76 -102 -186.5 -158.5t-235.5 -56.5q-190 0 -298.5 111t-108.5 308zM221 557h649q-6 135 -65 209q-78 98 -217 98 q-123 0 -221.5 -83t-145.5 -224zM426 1219q0 41 28.5 69.5t69.5 28.5t70 -30t29 -68.5t-29 -68.5t-70 -30t-69.5 30t-28.5 69zM760 1219q0 41 28.5 69.5t69.5 28.5q39 0 68.5 -30t29.5 -68.5t-29.5 -68.5t-68.5 -30t-68.5 30t-29.5 69z" />
<glyph unicode="&#xec;" horiz-adv-x="550" d="M-29 -2l25 108l137 -4l172 754l-151 -4l26 106q115 -2 150 -2h55q18 0 37 2h27l-197 -856l149 4l-24 -108q-117 2 -150 2h-106q-35 0 -150 -2zM166 1372h164l133 -280h-107z" />
<glyph unicode="&#xed;" horiz-adv-x="550" d="M-29 -2l25 108l137 -4l172 754l-151 -4l26 106q115 -2 150 -2h55q18 0 37 2h27l-197 -856l149 4l-24 -108q-117 2 -150 2h-106q-35 0 -150 -2zM346 1092l221 280h170l-272 -280h-119z" />
<glyph unicode="&#xee;" horiz-adv-x="550" d="M-29 -2l25 108l137 -4l172 754l-151 -4l26 106q115 -2 150 -2h55q18 0 37 2h27l-197 -856l149 4l-24 -108q-117 2 -150 2h-106q-35 0 -150 -2zM152 1092l245 280h129l113 -280h-115l-78 186l-167 -186h-127z" />
<glyph unicode="&#xef;" horiz-adv-x="550" d="M-29 -2l25 108l137 -4l172 754l-151 -4l26 106q115 -2 150 -2h55q18 0 37 2h27l-197 -856l149 4l-24 -108q-117 2 -150 2h-106q-35 0 -150 -2zM188 1219q0 41 29 69.5t70 28.5t69.5 -30t28.5 -68.5t-28.5 -68.5t-69.5 -30t-70 30t-29 69zM453 1219q0 41 28.5 69.5 t69.5 28.5q39 0 68.5 -30t29.5 -68.5t-29.5 -68.5t-68.5 -30t-68.5 30t-29.5 69z" />
<glyph unicode="&#xf0;" horiz-adv-x="1101" d="M74 387q0 238 163.5 413t387.5 175q68 0 114.5 -19.5t114.5 -74.5q-70 186 -164 286l-170 -92l-59 74l155 88q-25 23 -73 53q-2 0 -9 5l-17 12q-9 6 -17 12l75 72q66 -35 146 -101l160 86l67 -71l-157 -88q109 -125 173 -290t64 -325q0 -152 -56.5 -287t-152.5 -215 q-143 -121 -342 -120q-182 0 -292.5 111.5t-110.5 295.5zM199 393q0 -143 76.5 -226t209.5 -83q150 0 266.5 114.5t147.5 293.5q2 63 2 133q-14 117 -83.5 181t-178.5 64q-180 0 -310 -141t-130 -336z" />
<glyph unicode="&#xf1;" horiz-adv-x="1140" d="M-29 -2l25 108l137 -4l172 754l-151 -4l26 106q115 -2 150 -2h51q20 0 37 2h28l-28 -122q180 141 340 141q102 0 165.5 -59.5t63.5 -155.5q0 -82 -22 -178l-111 -482l154 4l-27 -108q-117 2 -150 2h-104q-31 0 -152 -2l25 108l135 -4l113 484q23 100 22 166 q0 51 -39.5 83.5t-103.5 32.5q-180 0 -348 -209l-127 -557l154 4l-27 -108q-119 2 -152 2h-106q-37 0 -150 -2zM436 1114q39 215 158 215q33 0 53.5 -10t110.5 -70q51 -33 73 -32q55 0 80 112h95q-45 -221 -170 -221q-49 0 -136 57q-78 53 -106 54q-43 0 -64 -105h-94z" />
<glyph unicode="&#xf2;" horiz-adv-x="1101" d="M74 385q0 244 166 418t399 174q176 0 282.5 -108.5t106.5 -288.5q0 -137 -57.5 -268.5t-151.5 -211.5q-141 -121 -342 -120q-182 0 -292.5 111.5t-110.5 293.5zM199 391q0 -143 76.5 -225t209.5 -82q170 0 295 145.5t125 343.5q0 133 -73.5 215t-192.5 82 q-180 0 -310 -142t-130 -337zM430 1372h164l133 -280h-106z" />
<glyph unicode="&#xf3;" horiz-adv-x="1101" d="M74 385q0 244 166 418t399 174q176 0 282.5 -108.5t106.5 -288.5q0 -137 -57.5 -268.5t-151.5 -211.5q-141 -121 -342 -120q-182 0 -292.5 111.5t-110.5 293.5zM199 391q0 -143 76.5 -225t209.5 -82q170 0 295 145.5t125 343.5q0 133 -73.5 215t-192.5 82 q-180 0 -310 -142t-130 -337zM594 1092l221 280h170l-272 -280h-119z" />
<glyph unicode="&#xf4;" horiz-adv-x="1101" d="M74 385q0 244 166 418t399 174q176 0 282.5 -108.5t106.5 -288.5q0 -137 -57.5 -268.5t-151.5 -211.5q-141 -121 -342 -120q-182 0 -292.5 111.5t-110.5 293.5zM199 391q0 -143 76.5 -225t209.5 -82q170 0 295 145.5t125 343.5q0 133 -73.5 215t-192.5 82 q-180 0 -310 -142t-130 -337zM420 1092l274 280h129l140 -280h-115l-105 186l-196 -186h-127z" />
<glyph unicode="&#xf5;" horiz-adv-x="1101" d="M74 385q0 244 166 418t399 174q176 0 282.5 -108.5t106.5 -288.5q0 -137 -57.5 -268.5t-151.5 -211.5q-141 -121 -342 -120q-182 0 -292.5 111.5t-110.5 293.5zM199 391q0 -143 76.5 -225t209.5 -82q170 0 295 145.5t125 343.5q0 133 -73.5 215t-192.5 82 q-180 0 -310 -142t-130 -337zM444 1114q39 215 158 215q33 0 53.5 -10t110.5 -70q51 -33 74 -32q55 0 80 112h94q-45 -221 -170 -221q-49 0 -135 57q-78 53 -107 54q-43 0 -63 -105h-95z" />
<glyph unicode="&#xf6;" horiz-adv-x="1101" d="M74 385q0 244 166 418t399 174q176 0 282.5 -108.5t106.5 -288.5q0 -137 -57.5 -268.5t-151.5 -211.5q-141 -121 -342 -120q-182 0 -292.5 111.5t-110.5 293.5zM199 391q0 -143 76.5 -225t209.5 -82q170 0 295 145.5t125 343.5q0 133 -73.5 215t-192.5 82 q-180 0 -310 -142t-130 -337zM432 1219q0 41 28.5 69.5t69.5 28.5q39 0 69 -30t30 -68.5t-30 -68.5t-68.5 -30t-68.5 30t-30 69zM766 1219q0 41 28.5 69.5t69.5 28.5t70 -30t29 -68.5t-29 -68.5t-70 -30t-69.5 30t-28.5 69z" />
<glyph unicode="&#xf7;" d="M154 645l26 117h793l-27 -117h-792zM375 422q0 47 34.5 81t84.5 34q47 0 80.5 -35t33.5 -82t-34.5 -82t-82 -35t-82 35t-34.5 84zM498 983q0 47 34.5 81t83.5 34q47 0 81 -35t34 -82t-34.5 -82t-82 -35t-82 35t-34.5 84z" />
<glyph unicode="&#xf8;" horiz-adv-x="1103" d="M31 41l110 109q-68 111 -67 233q0 248 166 424t401 176q158 0 260 -90l107 106l65 -61l-110 -111q68 -90 67 -241q0 -135 -56 -266.5t-149 -213.5q-147 -127 -346 -126q-152 0 -278 102l-107 -107zM197 397q0 -78 34 -159l588 575q-72 61 -172 61q-182 0 -316 -142 t-134 -335zM283 162q88 -72 202 -72q152 0 263 111q160 160 159 381q0 92 -30 161z" />
<glyph unicode="&#xf9;" horiz-adv-x="1128" d="M129 852l25 109q66 -4 141 -5h82q12 0 24 2h21l-125 -567q-25 -104 -25 -172q0 -59 40 -95t110 -36q160 0 336 205l131 561l-158 -4l25 108q100 -2 143 -2h68q18 0 34 2h29l-196 -856l149 4l-25 -108q-102 2 -141 2h-74q-12 0 -24 -2h-27l25 125q-119 -86 -185.5 -114.5 t-148.5 -28.5q-100 0 -166.5 66.5t-66.5 166.5q0 55 16 127l115 516zM453 1372h163l134 -280h-107z" />
<glyph unicode="&#xfa;" horiz-adv-x="1128" d="M129 852l25 109q66 -4 141 -5h82q12 0 24 2h21l-125 -567q-25 -104 -25 -172q0 -59 40 -95t110 -36q160 0 336 205l131 561l-158 -4l25 108q100 -2 143 -2h68q18 0 34 2h29l-196 -856l149 4l-25 -108q-102 2 -141 2h-74q-12 0 -24 -2h-27l25 125q-119 -86 -185.5 -114.5 t-148.5 -28.5q-100 0 -166.5 66.5t-66.5 166.5q0 55 16 127l115 516zM602 1092l221 280h170l-272 -280h-119z" />
<glyph unicode="&#xfb;" horiz-adv-x="1128" d="M129 852l25 109q66 -4 141 -5h82q12 0 24 2h21l-125 -567q-25 -104 -25 -172q0 -59 40 -95t110 -36q160 0 336 205l131 561l-158 -4l25 108q100 -2 143 -2h68q18 0 34 2h29l-196 -856l149 4l-25 -108q-102 2 -141 2h-74q-12 0 -24 -2h-27l25 125q-119 -86 -185.5 -114.5 t-148.5 -28.5q-100 0 -166.5 66.5t-66.5 166.5q0 55 16 127l115 516zM403 1092l275 280h129l139 -280h-115l-104 186l-197 -186h-127z" />
<glyph unicode="&#xfc;" horiz-adv-x="1128" d="M129 852l25 109q66 -4 141 -5h82q12 0 24 2h21l-125 -567q-25 -104 -25 -172q0 -59 40 -95t110 -36q160 0 336 205l131 561l-158 -4l25 108q100 -2 143 -2h68q18 0 34 2h29l-196 -856l149 4l-25 -108q-102 2 -141 2h-74q-12 0 -24 -2h-27l25 125q-119 -86 -185.5 -114.5 t-148.5 -28.5q-100 0 -166.5 66.5t-66.5 166.5q0 55 16 127l115 516zM440 1219q0 41 29 69.5t70 28.5q39 0 68.5 -30t29.5 -68.5t-29.5 -68.5t-68.5 -30t-69 30t-30 69zM774 1219q0 41 28.5 69.5t69.5 28.5t70 -30t29 -68.5t-29 -68.5t-70 -30t-69.5 30t-28.5 69z" />
<glyph unicode="&#xfd;" horiz-adv-x="1007" d="M-113 -438l25 108l176 -6l197 324l-68 866l-127 -4l27 108q70 -2 102 -2h113q51 0 157 2l-24 -108l-129 4l51 -707l422 709l-133 -4l24 109q49 -4 144 -5h121q66 0 114 2l-24 -108l-119 4l-782 -1292q-57 2 -84 2h-111q-20 0 -39 -2h-33zM561 1092l221 280h170l-272 -280 h-119z" />
<glyph unicode="&#xfe;" horiz-adv-x="1183" d="M-150 -434l25 108l135 -4l369 1594l-152 -4l27 108q98 -2 141 -2h60q14 0 61 2l-117 -500q162 109 324 109q133 0 238 -76q150 -109 149 -328q0 -256 -154.5 -424.5t-390.5 -168.5q-186 0 -332 133l-104 -443l152 4l-25 -108q-100 2 -143 2h-119q-42 0 -144 -2zM258 219 q57 -59 141 -95t162 -36q174 0 301 144.5t127 342.5q0 129 -80 212t-204 83q-164 0 -332 -145z" />
<glyph unicode="&#xff;" horiz-adv-x="1007" d="M-113 -438l25 108l176 -6l197 324l-68 866l-127 -4l27 108q70 -2 102 -2h113q51 0 157 2l-24 -108l-129 4l51 -707l422 709l-133 -4l24 109q49 -4 144 -5h121q66 0 114 2l-24 -108l-119 4l-782 -1292q-57 2 -84 2h-111q-20 0 -39 -2h-33zM391 1219q0 41 29 69.5t69 28.5 q39 0 69 -30t30 -68.5t-30 -68.5t-68.5 -30t-68.5 30t-30 69zM725 1219q0 41 28.5 69.5t69.5 28.5t70 -30t29 -68.5t-29 -68.5t-70 -30t-69.5 30t-28.5 69z" />
<glyph unicode="&#x152;" horiz-adv-x="2000" d="M115 559q0 188 87 363.5t234 281.5q106 80 262 126t314 46q66 0 188 -6q123 -4 158 -4h596q39 0 125 4q-41 -143 -103 -438h-123l74 317h-588l-114 -497h497l-26 -117h-498l-119 -518h596l78 332h121q-63 -229 -105 -453l-55 2q-33 2 -65 2h-588q-96 0 -131 -2 q-205 -10 -217 -10q-111 0 -225.5 39t-192.5 104q-84 72 -132 185.5t-48 242.5zM252 551q0 -205 145.5 -323.5t397.5 -118.5q37 0 149 8l260 1132q-80 8 -143 8q-190 0 -321.5 -38.5t-233.5 -124.5q-119 -100 -186.5 -244.5t-67.5 -298.5z" />
<glyph unicode="&#x153;" horiz-adv-x="1871" d="M66 375q0 248 163.5 425t391.5 177q287 0 362 -256q156 256 420 256q178 0 289 -125q57 -63 78.5 -131t21.5 -174q0 -49 -2 -94h-782q-8 -47 -9 -88q0 -121 82 -201t207 -80q90 0 180.5 46t143.5 118l96 -58q-150 -211 -416 -210q-299 0 -385 258q-166 -258 -438 -258 q-184 0 -293.5 107.5t-109.5 287.5zM188 397q0 -143 80 -228t215 -85q170 0 295 141.5t125 331.5q0 139 -75.5 224t-200.5 85q-178 0 -308.5 -139.5t-130.5 -329.5zM1028 555h645q-4 143 -78.5 225t-203.5 82q-154 0 -273 -135q-49 -57 -90 -172z" />
<glyph unicode="&#x178;" horiz-adv-x="1206" d="M164 1249l29 121q74 -4 110 -4h123q59 0 207 4l-29 -121h-143l192 -518l449 518h-160l27 121q86 -4 188 -4h127q59 0 125 4l-27 -121h-125l-569 -657l-110 -479l149 4l-27 -121q-104 4 -141 4h-133q-35 0 -141 -4l26 121l131 -4l117 505l-240 631h-155zM582 1599 q0 41 28.5 70t69.5 29t69.5 -30t28.5 -68.5t-28.5 -68.5t-69.5 -30t-69.5 29.5t-28.5 68.5zM930 1599q0 41 28.5 70t69.5 29t69.5 -30t28.5 -68.5t-28.5 -68.5t-69.5 -30t-69.5 29.5t-28.5 68.5z" />
<glyph unicode="&#x2c6;" d="M354 1092l275 280h129l139 -280h-115l-104 186l-197 -186h-127z" />
<glyph unicode="&#x2dc;" d="M344 1114q39 215 158 215q33 0 53 -10t111 -70q51 -33 73 -32q55 0 80 112h94q-45 -221 -170 -221q-49 0 -135 57q-78 53 -106 54q-43 0 -64 -105h-94z" />
<glyph unicode="&#x2000;" horiz-adv-x="892" />
<glyph unicode="&#x2001;" horiz-adv-x="1787" />
<glyph unicode="&#x2002;" horiz-adv-x="892" />
<glyph unicode="&#x2003;" horiz-adv-x="1787" />
<glyph unicode="&#x2004;" horiz-adv-x="595" />
<glyph unicode="&#x2005;" horiz-adv-x="446" />
<glyph unicode="&#x2006;" horiz-adv-x="296" />
<glyph unicode="&#x2007;" horiz-adv-x="296" />
<glyph unicode="&#x2008;" horiz-adv-x="223" />
<glyph unicode="&#x2009;" horiz-adv-x="356" />
<glyph unicode="&#x200a;" horiz-adv-x="98" />
<glyph unicode="&#x2010;" horiz-adv-x="446" d="M-6 457l26 116h447l-27 -116h-446z" />
<glyph unicode="&#x2011;" horiz-adv-x="446" d="M-6 457l26 116h447l-27 -116h-446z" />
<glyph unicode="&#x2012;" horiz-adv-x="446" d="M-6 457l26 116h447l-27 -116h-446z" />
<glyph unicode="&#x2013;" d="M111 457l26 116h789l-27 -116h-788z" />
<glyph unicode="&#x2014;" horiz-adv-x="1335" d="M-6 457l26 116h1336l-27 -116h-1335z" />
<glyph unicode="&#x2018;" horiz-adv-x="442" d="M244 944l45 195l9 44q5 24 8 36l7 27l6 24q2 8 4.5 17t4.5 13.5t4 10.5t4 9t5 7t7 8q49 55 144 56h16l-16 -72q-57 -8 -80 -35t-37 -104q0 -2 -4 -23h57l-49 -213h-135z" />
<glyph unicode="&#x2019;" horiz-adv-x="436" d="M238 922l16 71q57 8 79.5 34t37.5 103q0 2 4 23h-60l50 213h137l-45 -195q-29 -127 -36 -150.5t-26 -43.5q-45 -55 -141 -55h-16z" />
<glyph unicode="&#x201a;" horiz-adv-x="436" d="M-29 -231l17 69q57 8 79.5 36t36.5 103l5 23h-60l49 213h138l-46 -195q-29 -127 -36 -150.5t-25 -43.5q-45 -55 -141 -55h-17z" />
<glyph unicode="&#x201c;" horiz-adv-x="673" d="M217 944l45 195l9 44q5 24 9 36l7 27l6 24q2 8 4 17t4 13.5t4 10.5t4 9t5 7t8 8q49 55 143 56h16l-16 -72q-57 -8 -80 -35t-37 -104q0 -2 -4 -23h57l-49 -213h-135zM504 944l45 195l9 44q5 24 8 36l7 27l7 24q2 8 4 17t4 13.5t4 10.5t4 9t5 7t7 8q49 55 144 56h16 l-16 -72q-57 -8 -80 -35t-37 -104q0 -2 -4 -23h57l-49 -213h-135z" />
<glyph unicode="&#x201d;" horiz-adv-x="729" d="M244 922l16 71q57 8 79.5 34t37.5 103q0 2 4 23h-59l49 213h137l-45 -195q-29 -127 -36 -150.5t-26 -43.5q-45 -55 -141 -55h-16zM530 922l17 71q57 8 79.5 34t37.5 103q0 2 4 23h-60l49 213h138l-45 -195q-29 -127 -36 -150.5t-26 -43.5q-45 -55 -141 -55h-17z" />
<glyph unicode="&#x201e;" horiz-adv-x="729" d="M-23 -231l17 69q57 8 79.5 36t37.5 103l4 23h-60l49 213h138l-45 -195q-29 -127 -36 -150.5t-26 -43.5q-45 -55 -141 -55h-17zM264 -231l17 69q57 8 79.5 36t36.5 103l4 23h-59l49 213h137l-45 -195q-29 -127 -36 -150.5t-25 -43.5q-45 -55 -141 -55h-17z" />
<glyph unicode="&#x2022;" horiz-adv-x="1366" d="M514 694q0 119 84 202t205 83q113 0 195.5 -84t82.5 -199q0 -119 -83 -201.5t-199.5 -82.5t-200.5 82.5t-84 199.5z" />
<glyph unicode="&#x2026;" horiz-adv-x="1263" d="M31 0l49 213h135l-49 -213h-135zM453 0l49 213h133l-49 -213h-133zM872 0l52 213h133l-49 -213h-136z" />
<glyph unicode="&#x202f;" horiz-adv-x="356" />
<glyph unicode="&#x2039;" horiz-adv-x="665" d="M119 588l405 373h156l-430 -396l215 -530h-123z" />
<glyph unicode="&#x203a;" horiz-adv-x="665" d="M-8 35l430 397l-217 529h125l223 -553l-408 -373h-153z" />
<glyph unicode="&#x205f;" horiz-adv-x="446" />
<glyph unicode="&#x20ac;" horiz-adv-x="1785" d="M119 514l74 115h149q8 78 18 108l2 6h-194l72 115h159q104 240 320.5 386.5t466.5 146.5q295 0 418 -191l38 170h119q-53 -193 -92 -401h-119v14q0 129 -103.5 209t-268.5 80q-188 0 -365.5 -116t-265.5 -298h829l-71 -115h-803q-16 -61 -23 -114h752l-74 -115h-678 q14 -184 137 -302t302 -118q293 0 518 285l96 -90q-250 -313 -600 -314q-254 0 -412 144.5t-178 394.5h-223z" />
<glyph unicode="&#x2122;" horiz-adv-x="1804" d="M186 1053q47 188 74 315q51 -2 70 -2h473q18 0 86 2q-27 -109 -35 -149q-29 -119 -37 -166h-88l55 235h-182l-143 -622l90 2l-19 -82q-72 2 -92 2h-82q-20 0 -92 -2l19 82l79 -2l146 622h-180l-56 -235h-86zM809 586l18 82l82 -2l146 624l-92 -2l20 80q76 -2 92 -2h84 q14 0 27 2h24l113 -608l391 608q29 -2 51 -2h76q18 0 90 2l-18 -80l-78 2l-143 -624l86 2l-19 -82q-70 2 -90 2h-80q-20 0 -92 -2l19 82l79 -2l136 579l-428 -657h-37l-127 659l-135 -581l92 2l-19 -82q-72 2 -94 2h-80q-20 0 -94 -2z" />
<glyph unicode="&#xe000;" horiz-adv-x="960" d="M0 960h960v-960h-960v960z" />
<glyph unicode="&#xfb01;" horiz-adv-x="1153" d="M-29 -2l25 108l137 -4l172 748l-145 -2l24 110l146 -2q55 209 80 263q76 170 235 170q104 0 207 -68l-49 -104q-88 57 -152 57q-76 0 -122 -72t-80 -246h540q18 0 35 2h29l-199 -856l152 4l-25 -108q-117 2 -150 2h-106q-35 0 -150 -2l25 108l135 -4l172 748h-483 l-172 -748l149 4l-24 -108q-100 2 -144 2h-118q-42 0 -144 -2zM963 1313q0 41 29.5 69.5t70.5 28.5q39 0 67.5 -28.5t28.5 -69.5q0 -39 -28.5 -69t-69.5 -30t-69.5 30t-28.5 69z" />
<glyph unicode="&#xfb02;" horiz-adv-x="1148" d="M-35 -2l25 108l137 -4l172 748l-145 -4l24 112l146 -2q55 205 79 263q76 170 236 170q104 0 207 -68l-49 -104q-88 57 -152 57q-76 0 -121 -70.5t-82 -247.5l252 2l-26 -112l-250 2l-172 -746l149 4l-24 -108q-100 2 -144 2h-118q-42 0 -144 -2zM569 -2l25 108l135 -4 l268 1162l-151 -4l26 108q104 -2 146 -2h61q27 0 62 2l-293 -1266l151 4l-24 -108q-96 2 -144 2h-116q-40 0 -146 -2z" />
<glyph unicode="&#xfb03;" horiz-adv-x="1757" d="M-29 -2l25 108l137 -4l172 748l-145 -2l24 110l146 -2q55 205 80 263q76 170 235 170q104 0 207 -68l-49 -104q-88 57 -152 57q-76 0 -121 -70.5t-81 -247.5h483q61 219 82 263q76 170 235 170q104 0 207 -68l-49 -104q-88 57 -152 57q-76 0 -122 -72t-82 -246h542 q18 0 35 2h27l-197 -856l152 4l-27 -108q-115 2 -149 2h-105q-35 0 -151 -2l26 108l135 -4l172 748h-485l-172 -748l152 4l-25 -108q-100 2 -143 2h-119q-41 0 -144 -2l25 108l135 -4l172 748h-483l-172 -748l149 4l-24 -108q-100 2 -144 2h-118q-42 0 -144 -2zM1567 1313 q0 41 29.5 69.5t70.5 28.5q39 0 67.5 -28.5t28.5 -69.5q0 -39 -29.5 -69t-68.5 -30t-68.5 30t-29.5 69z" />
<glyph unicode="&#xfb04;" horiz-adv-x="1751" d="M-35 -2l25 108l137 -4l172 748l-145 -2l24 110l146 -2q55 205 79 263q76 170 236 170q104 0 207 -68l-49 -104q-88 57 -152 57q-76 0 -121 -70.5t-82 -247.5h484q61 219 82 263q76 170 235 170q104 0 207 -68l-49 -104q-88 57 -152 57q-76 0 -122 -72t-83 -246l252 2 l-24 -112l-252 4l-172 -748l151 4l-24 -108q-100 2 -144 2h-118q-41 0 -144 -2l25 108l135 -4l172 748h-483l-172 -748l149 4l-24 -108q-100 2 -144 2h-118q-42 0 -144 -2zM1171 -2l27 108l135 -4l269 1162l-152 -4l25 108q106 -2 145 -2h63q27 0 62 2l-293 -1266l152 4 l-27 -108q-96 2 -143 2h-115q-39 0 -148 -2z" />
</font>
</defs>
</svg>
