<?xml version="1.0" standalone="no"?>
<!DOCTYPE svg PUBLIC "-//W3C//DTD SVG 1.1//EN" "http://www.w3.org/Graphics/SVG/1.1/DTD/svg11.dtd" >
<svg xmlns="http://www.w3.org/2000/svg">
<metadata>
This is a custom SVG webfont generated by Font Squirrel.
Designer    : HARENDAL Hirwen
Foundry     : Arkandis Digital Foundry.
Foundry URL : http://arkandis.tuxfamily.org
</metadata>
<defs>
<font id="webfontvAYyTRi1" horiz-adv-x="500" >
<font-face units-per-em="1000" ascent="730" descent="-270" />
<missing-glyph horiz-adv-x="300" />
<glyph unicode=" "  horiz-adv-x="300" />
<glyph unicode="&#x09;" horiz-adv-x="300" />
<glyph unicode="&#xa0;" horiz-adv-x="300" />
<glyph unicode="!" horiz-adv-x="319" d="M231 606l-34 -268q-4 -27 -14.5 -42t-23.5 -15t-23.5 15t-14.5 42l-34 268q-1 8 -1 22q0 33 16 50.5t57 17.5t57 -17.5t16 -50.5q0 -14 -1 -22zM155 -17q-38 0 -65.5 27.5t-27.5 65.5t27.5 66t65.5 28t66 -28t28 -66t-28 -65.5t-66 -27.5z" />
<glyph unicode="&#x22;" horiz-adv-x="509" d="M356 398q2 26 2 39q0 105 -62 229h192q-11 -93 -53 -172.5t-79 -95.5zM104 398q3 22 3 46q0 58 -18 120t-45 102h192q-11 -93 -53 -172.5t-79 -95.5z" />
<glyph unicode="#" horiz-adv-x="573" d="M382 226l-66 -226h-78l67 226h-93l-66 -226h-77l66 226h-109l12 70h117l27 89h-108l12 70h116l62 212h76l-62 -212h93l62 212h77l-61 -212h98l-12 -70h-106l-27 -89h99l-12 -70h-107zM324 296l27 89h-93l-26 -89h92z" />
<glyph unicode="$" horiz-adv-x="594" d="M332 776v-93q68 -4 128 -44t60 -103q0 -24 -16.5 -42.5t-40.5 -18.5q-27 0 -42.5 19t-20.5 43t-22 47t-46 30v-191q48 -21 76 -35.5t64 -41t53.5 -62t17.5 -79.5q0 -89 -60 -144t-151 -65v-100h-56v100q-45 4 -93.5 19.5t-90 51t-41.5 81.5q0 26 20 46.5t47 20.5 q33 0 53.5 -20.5t28.5 -46.5t27 -51.5t49 -33.5v203q-47 19 -77 34.5t-63.5 41.5t-50 61.5t-16.5 80.5q0 83 61 139t146 60v93h56zM276 444v175q-38 -5 -62.5 -26t-24.5 -58q0 -57 87 -91zM332 246v-184q39 7 65 32t26 64q0 24 -15.5 42.5t-31.5 26.5t-44 19z" />
<glyph unicode="%" horiz-adv-x="816" d="M708 181q0 163 -63 163q-22 0 -37 -19t-21 -49.5t-8 -52.5t-2 -44t2 -43.5t8 -50.5t20.5 -47t36.5 -18q64 0 64 161zM592 660l-307 -660h-52l307 660h52zM786 181q0 -73 -38 -130.5t-107 -57.5q-67 0 -104.5 59t-37.5 129t40.5 129.5t107.5 59.5q66 0 102.5 -59.5 t36.5 -129.5zM317 483q0 -72 -38 -129.5t-106 -57.5q-67 0 -105 58.5t-38 129.5q0 70 40.5 129.5t107.5 59.5q66 0 102.5 -59.5t36.5 -130.5zM239 484q0 163 -62 163q-22 0 -37 -19t-21.5 -49.5t-8.5 -53t-2 -44.5q0 -21 2 -43t8 -51t21 -47t36 -18q64 0 64 162z" />
<glyph unicode="&#x26;" horiz-adv-x="796" d="M733 114l36 -52q-77 -82 -170 -82q-79 0 -149 68q-90 -67 -187 -67q-84 0 -147 47t-63 128q0 69 45 117.5t120 87.5q-52 87 -52 136q0 67 53.5 105t123.5 38q56 0 105 -31t49 -83q0 -78 -127 -141q14 -19 39.5 -57.5t47 -68t43.5 -54.5q31 62 31 97q0 26 -19 38t-47 12 v54h233v-54q-35 -4 -61.5 -27t-39.5 -48t-31 -65.5t-29 -59.5q18 -26 30 -40t35 -29t47 -15q45 0 84 46zM339 428q70 45 70 107q0 22 -18 36.5t-40 14.5q-23 0 -42 -14.5t-19 -37.5q0 -34 49 -106zM409 95q-30 35 -78.5 108.5t-74.5 105.5q-55 -38 -55 -98q0 -56 43 -100.5 t99 -44.5q39 0 66 29z" />
<glyph unicode="'" horiz-adv-x="279" d="M104 398q2 13 2 41q0 114 -62 227h192q-11 -93 -53 -172.5t-79 -95.5z" />
<glyph unicode="(" horiz-adv-x="457" d="M272 700h127q-149 -240 -149 -473q0 -128 38.5 -252.5t111.5 -229.5h-123q-71 102 -108.5 227.5t-37.5 254.5q0 216 141 473z" />
<glyph unicode=")" horiz-adv-x="457" d="M185 700q141 -261 141 -472q0 -265 -146 -483h-123q73 105 111.5 230t38.5 253q0 232 -149 472h127z" />
<glyph unicode="*" horiz-adv-x="594" d="M274 523q-3 8 -13 31t-16 41t-6 30q0 25 17.5 43t42.5 18q24 0 41 -16.5t19 -40.5q0 -17 -6 -35t-15 -38t-13 -33q9 6 30 25.5t39 30.5t37 11q25 0 43 -18t18 -43q0 -23 -19 -41.5t-42 -18.5q-15 0 -45.5 2.5t-45.5 2.5q5 -4 36.5 -22t46 -33.5t18.5 -37.5q0 -27 -17 -47 t-44 -20q-23 0 -38 15.5t-20.5 32.5t-12 44.5t-10.5 37.5q-4 -10 -10.5 -37.5t-12 -44.5t-21 -32.5t-37.5 -15.5q-24 0 -42 18t-18 42q0 25 14 42t47 35.5t39 22.5q-15 0 -45.5 -2.5t-45.5 -2.5q-22 0 -40.5 17t-19.5 39q0 27 16.5 46t43.5 19q18 0 36 -10.5t41.5 -31.5 t29.5 -25z" />
<glyph unicode="+" d="M0 419h200v205h98v-205h202v-94h-202v-205h-98v205h-200v94z" />
<glyph unicode="," horiz-adv-x="365" d="M90 -139q121 45 121 121q0 5 -1.5 15t-1.5 11q-17 -8 -41 -8q-40 0 -67 27.5t-27 66.5q0 41 30 67.5t71 26.5q58 0 91 -42t33 -102q0 -83 -54 -139.5t-138 -72.5z" />
<glyph unicode="-" horiz-adv-x="418" d="M78 188v80h262v-80h-262z" />
<glyph unicode="." horiz-adv-x="363" d="M181 -17q-39 0 -67 28t-28 67t28 67t67 28t67 -28t28 -67t-28 -67t-67 -28z" />
<glyph unicode="/" horiz-adv-x="550" d="M562 700l-458 -955h-104l459 955h103z" />
<glyph unicode="0" horiz-adv-x="643" d="M577 335q0 -60 -15 -119t-44 -110.5t-79.5 -83.5t-114.5 -32q-82 0 -143.5 51t-89.5 125.5t-28 159.5q0 62 16 121t46.5 110t82 82t116.5 31q84 0 143 -51t84.5 -124.5t25.5 -159.5zM427 331q0 19 -0.5 37t-3.5 56t-9.5 68.5t-17.5 61.5t-30 49.5t-43 20.5 q-110 0 -110 -295q0 -38 3.5 -77.5t13 -93.5t34 -88t60.5 -34q28 0 48.5 25.5t30.5 59.5t16 80.5t7 74t1 55.5z" />
<glyph unicode="1" horiz-adv-x="412" d="M60 608q37 1 72 7.5t60.5 17t43 19.5t30.5 18l13 9q10 0 10 -15v-527q0 -47 18.5 -62t65.5 -15v-60h-331v60q56 0 76.5 14.5t20.5 65.5v412h-79v56z" />
<glyph unicode="2" horiz-adv-x="599" d="M540 167l-40 -167h-454l15 62q52 36 103.5 84t99.5 106.5t77.5 125t29.5 126.5q0 50 -27.5 86.5t-75.5 36.5t-76 -30.5t-28 -70.5q0 -65 58 -90q-30 -39 -79 -39q-35 0 -59.5 26.5t-24.5 78.5q0 54 35 94.5t84 59t101 18.5q57 0 111.5 -19.5t94 -63t39.5 -102.5 q0 -63 -30 -123.5t-83.5 -112t-101.5 -87t-109 -73.5h202q43 0 60 15.5t31 58.5h47z" />
<glyph unicode="3" horiz-adv-x="577" d="M209 490q-24 -12 -55 -12q-32 0 -53 15.5t-21 50.5q0 46 33.5 77t75 42t86.5 11q52 0 101 -16t85.5 -54.5t36.5 -92.5q0 -55 -35.5 -101.5t-87.5 -62.5q137 -52 137 -170q0 -65 -44 -109.5t-101 -61t-120 -16.5q-31 0 -62.5 5t-65 17t-54 36.5t-20.5 58.5q5 41 28 78.5 t44 37.5q13 0 22.5 -19.5t9.5 -60.5q0 -46 26 -75t72 -29q54 0 81 38.5t27 95.5q0 41 -15 86.5t-47 45.5q-9 0 -43 -15.5t-51 -15.5q-37 0 -37 60q0 37 85 37q30 0 54 -4q38 35 38 125q0 64 -23.5 99t-58.5 35q-52 0 -82 -66q0 -34 34 -70z" />
<glyph unicode="4" horiz-adv-x="587" d="M416 667v-447h4q77 0 95 54h43l-32 -116h-110v-52q0 -16 6 -26t18 -14t22.5 -5t26.5 -1v-60h-298v60q36 0 55.5 9.5t19.5 41.5v47h-234v43l289 466h95zM266 221v248l-153 -248h153z" />
<glyph unicode="5" horiz-adv-x="575" d="M524 668q-37 -73 -82 -111q-31 -27 -103 -27t-125 9l-20 -150q50 38 120 38q86 0 141.5 -52t55.5 -137q0 -117 -83.5 -182.5t-202.5 -65.5q-31 0 -62.5 7.5t-60.5 22t-47 40.5t-18 60q0 25 18.5 45.5t44.5 20.5q27 0 40.5 -15.5t16.5 -37.5t6.5 -44t18.5 -37.5t45 -15.5 q35 0 61.5 20.5t40 53.5t19.5 66t6 65q0 51 -19.5 90t-66.5 39q-31 0 -46.5 -16t-24.5 -48q-6 -24 -37 -24q-32 0 -32 21q0 8 1 12l42 342q106 -17 231 -17q25 0 41 8.5t32 29.5z" />
<glyph unicode="6" horiz-adv-x="623" d="M225 403q49 43 115 43q90 0 152.5 -65t62.5 -155q0 -105 -69 -170.5t-174 -65.5q-119 0 -185 78t-66 200q0 98 35 188.5t110 154t174 63.5q61 0 115 -33.5t54 -91.5q0 -27 -17.5 -46t-44.5 -19q-33 0 -47.5 22.5t-15.5 49.5t-15 49.5t-46 22.5q-33 0 -59 -23.5t-41.5 -63 t-24 -71.5t-13.5 -67zM405 221q0 26 -3.5 52t-12.5 56.5t-29 49t-48 18.5q-38 0 -62 -29.5t-31.5 -63.5t-7.5 -72q0 -29 3.5 -57.5t13 -62.5t30.5 -55t51 -21t50.5 19t29.5 51t12.5 59t3.5 56z" />
<glyph unicode="7" horiz-adv-x="532" d="M156 111l197 365q39 72 52 88q-8 -6 -56 -6q-9 0 -12 1h-146q-84 0 -102 -90h-52l35 222h46q5 -16 15.5 -20t32.5 -4h334l-173 -526l-9 -27q-6 -20 -9.5 -29t-11 -26.5t-15 -26.5t-18 -19.5t-24 -15t-29.5 -4.5q-73 0 -73 57q0 29 18 61z" />
<glyph unicode="8" horiz-adv-x="602" d="M409 362q123 -61 131 -170q0 -100 -70.5 -151t-174.5 -51q-91 0 -164 44.5t-73 129.5q0 103 135 159q-46 23 -76 71t-30 99q0 88 61 135t152 47q84 0 150 -42t66 -120q0 -50 -30 -90t-77 -61zM343 394q40 50 40 104q0 127 -79 127q-36 0 -64 -23.5t-28 -56.5 q0 -81 131 -151zM252 292q-58 -62 -58 -127q0 -55 26.5 -91t77.5 -36q45 0 75 28t30 71q0 28 -13.5 52.5t-40.5 44.5t-46.5 31.5t-50.5 26.5z" />
<glyph unicode="9" horiz-adv-x="635" d="M405 242q-23 -21 -40.5 -29t-44.5 -8q-102 0 -175 66.5t-73 165.5q0 100 73 168.5t173 68.5q118 0 184.5 -86t66.5 -209q0 -77 -17 -144.5t-51.5 -123.5t-94.5 -88.5t-140 -32.5q-31 0 -64 7t-66 21t-54 40t-21 60q0 27 17.5 47t43.5 21q29 0 43.5 -15.5t18 -37.5 t7.5 -44t22 -37.5t52 -15.5q37 0 63.5 14t40.5 32t22 50.5t10 53.5t4 56zM410 446q0 26 -3.5 52.5t-12 56.5t-28 49t-46.5 19q-29 0 -50 -19.5t-30.5 -51t-13.5 -60t-4 -55.5q0 -29 3 -55.5t12 -58t30 -50t51 -18.5q92 0 92 191z" />
<glyph unicode=":" horiz-adv-x="363" d="M181 268q-39 0 -67 28t-28 67t28 67t67 28t67 -28t28 -67t-28 -67t-67 -28zM181 -17q-39 0 -67 28t-28 67t28 67t67 28t67 -28t28 -67t-28 -67t-67 -28z" />
<glyph unicode=";" horiz-adv-x="398" d="M119 -168l-16 29q74 27 98 47.5t24 51.5q0 10 -4 48q-16 -8 -38 -8q-39 0 -68 25.5t-29 68.5q0 41 30 67.5t71 26.5q58 0 91 -42t33 -102q0 -83 -54 -139.5t-138 -72.5zM198 268q-38 0 -66.5 28t-28.5 67t28.5 67t66.5 28q39 0 67 -28t28 -67t-28 -67t-67 -28z" />
<glyph unicode="&#x3c;" d="M463 646v-79l-213 -131l213 -148v-209l-426 295v10z" />
<glyph unicode="=" d="M0 496h500v-91h-500v91zM0 338h500v-91h-500v91z" />
<glyph unicode="&#x3e;" d="M37 79v79l214 131l-214 148v209l426 -295v-10z" />
<glyph unicode="?" horiz-adv-x="477" d="M217 263h-72v174h44q3 -12 5.5 -19t12 -14t25.5 -7q53 0 53 112q0 119 -79 119q-25 0 -39.5 -15.5t-19.5 -34t-18 -34t-34 -15.5q-26 0 -42 16.5t-16 39.5q0 39 45 70t136 31q90 0 150 -48.5t60 -136.5q0 -82 -61.5 -121.5t-149.5 -39.5v-77zM180 -17q-38 0 -65.5 27.5 t-27.5 65.5t27.5 66t65.5 28t65.5 -28t27.5 -66t-27.5 -65.5t-65.5 -27.5z" />
<glyph unicode="@" horiz-adv-x="789" d="M652 179h66q-42 -86 -127 -137.5t-183 -51.5q-140 0 -240.5 102t-100.5 243q0 137 99 238.5t236 101.5q130 0 224.5 -81.5t94.5 -208.5q0 -90 -66 -167t-155 -77q-55 0 -78 40q-13 -6 -31.5 -19t-34.5 -19t-41 -6q-55 0 -89 43t-34 100q0 83 61 164.5t141 81.5 q66 0 100 -44l11 28h23q48 0 72 2l-84 -260q-12 -36 -12 -41q0 -17 21 -21q51 0 97 65.5t46 128.5q0 102 -81.5 169.5t-185.5 67.5q-114 0 -196.5 -83.5t-82.5 -198.5q0 -117 84.5 -204.5t201.5 -87.5q74 0 140.5 35t103.5 97zM417 261l49 147q4 12 4 19q0 21 -12 37.5 t-32 16.5q-40 0 -73.5 -47.5t-50 -103.5t-16.5 -96q0 -22 11 -38t32 -16q31 0 54 24t34 57z" />
<glyph unicode="A" horiz-adv-x="847" d="M499 667l190 -483q26 -64 51.5 -90t85.5 -27v-67h-385v67q4 -1 12 -1q56 0 69 31q0 16 -7 38t-18 48.5t-15 37.5h-230q-2 -4 -16 -34.5t-22 -53t-8 -35.5q0 -31 69 -31h11v-67h-264v67q51 0 74.5 24t47.5 80l216 496h139zM458 285l-62 179q-3 12 -8 30l-8 31q-4 13 -4 23 q-9 -55 -16 -71l-82 -192h180z" />
<glyph unicode="B" horiz-adv-x="717" d="M472 354q212 -11 212 -172q0 -91 -64 -136.5t-159 -45.5h-434v67q64 0 80 17.5t16 81.5v334q0 64 -16.5 82t-79.5 18v67h392q37 0 65.5 -2.5t62 -12t55.5 -26.5t37 -47.5t15 -72.5q0 -73 -53 -111.5t-129 -40.5zM303 385q34 0 52.5 1t42 7t35 17t20 33t8.5 54 q0 61 -32 82.5t-88 21.5q-25 0 -38 -1v-215zM303 318v-182q0 -38 20.5 -54.5t61.5 -16.5q104 0 104 122q0 70 -34.5 100.5t-105.5 30.5h-46z" />
<glyph unicode="C" horiz-adv-x="780" d="M693 672v-235h-67q-9 90 -62 137q-52 46 -141 46q-55 0 -95.5 -27.5t-61 -73.5t-30 -93.5t-9.5 -99.5q0 -77 20 -136t71 -98t130 -39q76 0 138 36.5t103 101.5l58 -43q-63 -88 -141 -128t-186 -40q-161 0 -270.5 93.5t-109.5 251.5q0 151 106.5 256.5t257.5 105.5 q122 0 204 -60q13 19 18 45h67z" />
<glyph unicode="D" horiz-adv-x="835" d="M27 0v67q64 0 80 17.5t16 81.5v334q0 64 -16.5 82t-79.5 18v67h368q79 0 149.5 -19.5t127 -58t90 -103.5t33.5 -148q0 -129 -72 -219q-95 -119 -313 -119h-383zM304 601v-457v-4q0 -45 19.5 -60t67.5 -15q113 0 165.5 78t52.5 197q0 61 -18.5 116.5t-63 97t-106.5 45.5 q-39 2 -117 2z" />
<glyph unicode="E" horiz-adv-x="710" d="M621 667l18 -187h-67q-2 64 -29 92t-91 28h-150v-216h66q47 0 64.5 21t19.5 70h47v-249h-47q-1 52 -17.5 73.5t-66.5 21.5h-66v-172q0 -27 8.5 -44.5t26 -25t34.5 -9.5t45 -2q92 0 141.5 27.5t59.5 110.5h63l-14 -206h-640v67q64 0 80 17.5t16 81.5v334q0 64 -16.5 82 t-79.5 18v67h595z" />
<glyph unicode="F" horiz-adv-x="664" d="M616 667l21 -183h-69q-6 59 -31.5 87.5t-82.5 28.5h-152v-217h66q46 0 62 21t18 68h48v-249h-48q0 47 -17 71.5t-63 24.5h-66v-153q0 -64 16 -81.5t80 -17.5v-67h-372v67q64 0 80 17.5t16 81.5v334q0 64 -16.5 82t-79.5 18v67h590z" />
<glyph unicode="G" horiz-adv-x="843" d="M726 667v-230h-68q-22 92 -70 136q-52 47 -143 47q-59 0 -103 -25t-68 -67.5t-35.5 -91.5t-11.5 -105t10 -102.5t32.5 -88t65 -64.5t101.5 -23q110 0 110 66v65q0 21 -6.5 34.5t-21 19t-27 7t-33.5 1.5h-8v65h366v-65q-18 0 -31 -2t-27.5 -8t-22.5 -20.5t-9 -35.5v-162 q-99 -1 -190 -19.5t-135 -18.5q-159 0 -260 96.5t-101 254.5q0 161 108 258.5t271 97.5q130 0 228 -61q14 20 18 41h61z" />
<glyph unicode="H" horiz-adv-x="900" d="M302 378h287v122q0 64 -16.5 82t-79.5 18v67h372v-67q-63 0 -79.5 -18t-16.5 -82v-334q0 -64 16 -81.5t80 -17.5v-67h-372v67q64 0 80 17.5t16 81.5v148h-287v-148q0 -64 16 -81.5t80 -17.5v-67h-372v67q64 0 80 17.5t16 81.5v334q0 64 -16.5 82t-79.5 18v67h372v-67 q-63 0 -79.5 -18t-16.5 -82v-122z" />
<glyph unicode="I" horiz-adv-x="425" d="M26 667h372v-67q-63 0 -79.5 -18t-16.5 -82v-334q0 -64 16 -81.5t80 -17.5v-67h-372v67q64 0 80 17.5t16 81.5v334q0 64 -16.5 82t-79.5 18v67z" />
<glyph unicode="J" horiz-adv-x="532" d="M80 600v66h372v-66q-64 -1 -80 -18.5t-16 -81.5v-483q0 -85 -26 -137q-36 -68 -103 -101.5t-148 -33.5q-223 0 -223 132q0 39 28.5 67t67.5 28q36 0 62 -24.5t28 -60.5q0 -15 -9 -37t-9 -30q0 -10 17.5 -17.5t37.5 -8.5q27 0 46 10.5t29 24.5t15 38.5t6 43t1 48.5v541 q0 64 -16 81.5t-80 18.5z" />
<glyph unicode="K" horiz-adv-x="824" d="M750 667v-67q-49 0 -81.5 -13t-68.5 -46l-121 -111l217 -296q28 -40 54 -53t74 -14v-67h-382v67q61 4 61 27q0 11 -12 23l-144 192l-51 -46v-97q0 -61 14 -79.5t73 -19.5v-67h-357v67q57 0 73 20.5t16 78.5v334q0 60 -16.5 80t-72.5 20v67h357v-67q-59 -1 -73 -19.5 t-14 -80.5v-129l183 170q23 21 23 37q0 22 -60 22v67h308z" />
<glyph unicode="L" horiz-adv-x="682" d="M682 222l-14 -222h-641v67q64 0 80 17.5t16 81.5v334q0 64 -16.5 82t-79.5 18v67h372v-67q-63 0 -79.5 -18t-16.5 -82v-362q0 -24 6.5 -38.5t21 -21t28 -8t38.5 -1.5q49 0 74 1.5t56 9.5t46.5 24t28 45t16.5 73h64z" />
<glyph unicode="M" horiz-adv-x="993" d="M336 667l172 -419l160 419h291v-67q-63 0 -79.5 -18t-16.5 -82v-334q0 -67 17.5 -83t85.5 -16v-67h-386v67q67 0 84 16.5t18 82.5v329l-194 -495h-79l-203 501v-357q0 -15 3 -26.5t6.5 -19t11.5 -13.5t13.5 -9t16.5 -5t16.5 -2.5t18.5 -1t17 -0.5v-67h-283v67q64 1 83 21 t19 85v327q0 64 -16 82t-79 18v67h303z" />
<glyph unicode="N" horiz-adv-x="841" d="M315 667l322 -464v310q0 30 -6.5 48.5t-21.5 26.5t-28.5 10t-37.5 2h-11v67h289v-67h-12q-21 0 -33.5 -2t-27.5 -9.5t-22.5 -26.5t-7.5 -49v-513h-141l-371 540v-387q1 -51 24.5 -66t79.5 -16v-71h-283v71q11 2 30.5 4t28 4t19.5 8.5t15 21.5t4 39v352q0 64 -16 82 t-79 18v67h286z" />
<glyph unicode="O" horiz-adv-x="839" d="M799 332q0 -161 -108.5 -256.5t-271.5 -95.5q-167 0 -273 94.5t-106 259.5q0 160 108 256.5t270 96.5q165 0 273 -96t108 -259zM612 334q0 286 -192 286q-53 0 -93 -27t-60.5 -71.5t-30 -91.5t-9.5 -97q0 -53 9 -99.5t29 -90.5t60 -70t96 -26q57 0 97 26t59 71t27 90.5 t8 99.5z" />
<glyph unicode="P" horiz-adv-x="670" d="M303 295v-129q0 -64 16 -81.5t80 -17.5v-67h-372v67q64 0 80 17.5t16 81.5v334q0 64 -16.5 82t-79.5 18v67h372q43 0 78 -4t71 -16.5t60.5 -32.5t40 -54.5t15.5 -81.5q0 -49 -18 -84t-44 -54t-67 -30t-75.5 -13.5t-81.5 -2.5q-14 0 -39 0.5t-36 0.5zM303 355h59 q53 0 84 32.5t31 85.5q0 75 -29.5 98t-88.5 23q-9 0 -27.5 -0.5t-28.5 -0.5v-238z" />
<glyph unicode="Q" horiz-adv-x="839" d="M410 -18l-5 -2q-157 0 -261 99t-104 255q0 160 108 256.5t270 96.5q164 0 272.5 -96.5t108.5 -258.5q0 -131 -79 -227q-50 -61 -157 -116t-207 -86q15 2 76.5 15.5t85.5 13.5q48 0 90 -12.5t67 -27.5t58 -27.5t66 -12.5q22 0 48 24t48 47.5t33 23.5q12 0 18 -27 q-4 -65 -67.5 -120t-130.5 -55q-101 0 -209 66q-6 4 -25 15l-28 16q-7 5 -23.5 13t-27 11.5t-25.5 6.5t-29 3q-33 0 -79 -34t-54 -34q-12 -5 -20 -5q-18 0 -31 13t-13 31q0 39 56 53q83 25 170 82zM612 334q0 286 -192 286q-53 0 -93 -27t-60.5 -71.5t-30 -92t-9.5 -97.5 q0 -53 9 -99.5t29 -91t60 -71t96 -26.5q57 0 97 26.5t59 72t27 91.5t8 100z" />
<glyph unicode="R" horiz-adv-x="810" d="M803 67v-67h-223q-13 49 -101.5 166t-130.5 129h-45v-129q0 -64 16 -81.5t80 -17.5v-67h-372v67q64 0 80 17.5t16 81.5v334q0 64 -16.5 82t-79.5 18v66h457q73 0 125 -47.5t55 -128.5q0 -45 -13.5 -78.5t-36.5 -51t-46.5 -25.5t-49.5 -9q37 -33 87 -100t79 -116 q14 -20 35.5 -29.5t36.5 -11t47 -2.5zM303 600v-239q6 0 19.5 -0.5t19.5 -0.5q64 0 99.5 31t36.5 89q-1 72 -33.5 96t-98.5 24h-43z" />
<glyph unicode="S" horiz-adv-x="624" d="M540 678v-191h-62q-11 61 -62.5 101t-114.5 40q-49 -1 -75.5 -22.5t-26.5 -50.5q0 -26 22 -49t61 -32l108 -48q46 -21 73.5 -36.5t58 -41t45 -60t14.5 -78.5q0 -106 -69.5 -168t-177.5 -62q-112 0 -217 64l-10 -44h-63v214h63q24 -74 84.5 -122t136.5 -48q45 0 78 26 t33 70q0 18 -9.5 35t-22.5 28.5t-34.5 24t-36.5 18.5l-39 17q-24 10 -32 14q-33 15 -50 23.5t-44.5 24t-42.5 30t-31 35t-23 45.5t-7 55q0 93 66.5 145t161.5 52q79 0 171 -47l12 38h62z" />
<glyph unicode="T" horiz-adv-x="730" d="M716 667v-197h-65q-4 65 -25.5 97.5t-80.5 32.5h-92v-434q0 -67 17.5 -83t85.5 -16v-67h-386v67q68 0 85.5 16t17.5 83v434h-102q-51 0 -70 -35.5t-23 -94.5h-56v197h694z" />
<glyph unicode="U" horiz-adv-x="873" d="M846 667v-67q-38 -1 -56.5 -4.5t-31.5 -21.5t-13 -55v-279q0 -64 -10.5 -109.5t-46.5 -77.5q-82 -73 -242 -73q-50 0 -92.5 5.5t-86.5 20.5t-75 39.5t-50.5 65.5t-19.5 94v295q0 64 -16.5 82t-79.5 18v67h372v-67q-63 0 -79.5 -18t-16.5 -82v-269q0 -178 174 -178 q187 0 187 176v288q0 29 -6 47t-19.5 25t-26 9t-35.5 2h-7v67h277z" />
<glyph unicode="V" horiz-adv-x="816" d="M802 667l-2 -67q-32 -1 -50 -4.5t-36 -17t-29 -39.5l-231 -549h-106l-224 530q-17 43 -36 61.5t-60 18.5h-15v67h370v-67q-37 -2 -54 -11.5t-17 -31.5q0 -11 2 -18l138 -343l138 335q12 31 12 42q0 16 -19 21.5t-71 5.5v67h290z" />
<glyph unicode="W" horiz-adv-x="1083" d="M1069 600h-2q-46 0 -73 -14.5t-39 -55.5l-154 -538h-131l-126 394l-115 -394h-128l-172 549q-12 39 -32.5 49t-66.5 10h-17v67h375v-67q-27 0 -51 -12t-24 -36q0 -7 3 -16l95 -346l135 477h81l163 -481l96 362q1 3 1 8q0 24 -30 34t-66 10v67h278v-67z" />
<glyph unicode="X" horiz-adv-x="818" d="M497 382l197 -261q26 -34 46.5 -44t64.5 -10v-67h-390v67h7q67 0 67 22q0 13 -15 29l-104 140l-118 -134q-17 -18 -17 -32q0 -25 68 -25v-67h-290v67q45 4 75 19t61 48l175 187l-171 230q-23 30 -48 39.5t-66 9.5v67h388v-67q-24 0 -42.5 -9.5t-18.5 -24.5q0 -10 7 -18 l77 -104l89 104q18 20 18 30q0 22 -64 22v67h291v-67q-44 0 -72.5 -10.5t-56.5 -40.5z" />
<glyph unicode="Y" horiz-adv-x="751" d="M738 667v-67q-91 0 -116 -48l-158 -264v-122q0 -67 16.5 -83t83.5 -16v-67h-385v67q67 0 83.5 16t16.5 83v122l-156 254q-22 35 -44.5 46.5t-65.5 11.5v67h375v-67q-71 0 -71 -18v-8q0 -12 7 -24l106 -186l110 184q3 5 3 9.5t-1 9.5t-1 7q0 26 -70 26v67h267z" />
<glyph unicode="Z" horiz-adv-x="690" d="M648 667v-50l-396 -550h207q69 0 98.5 35.5t39.5 108.5h63l-21 -211h-609v53l395 547h-195q-61 0 -83 -30.5t-33 -98.5h-68l26 196h576z" />
<glyph unicode="[" horiz-adv-x="457" d="M114 -255v955h240v-63h-127v-829h127v-63h-240z" />
<glyph unicode="\" horiz-adv-x="670" d="M113 700h103l454 -955h-104z" />
<glyph unicode="]" horiz-adv-x="457" d="M334 -255h-240v63h127v829h-127v63h240v-955z" />
<glyph unicode="^" d="M533 274h-79l-131 214l-148 -214h-209l295 426h10z" />
<glyph unicode="_" d="M0 -93h500v-94h-500v94z" />
<glyph unicode="`" d="M284 657l100 -114q6 -6 6 -23q0 -23 -23 -23q-9 0 -19 3l-220 115q-6 3 -12.5 11.5t-6.5 15.5q0 17 32 17q33 -18 68 -18q29 0 75 16z" />
<glyph unicode="a" horiz-adv-x="596" d="M596 113q-4 -66 -46 -100q-36 -32 -93 -32q-82 0 -138 61q-22 -29 -64 -46.5t-87 -17.5q-60 0 -101 31.5t-41 94.5q0 44 18 74.5t51.5 47t66 25t78 18t69.5 18.5v54q0 51 -59 51q-28 0 -41 -10.5t-16 -26t-6.5 -31t-18 -26t-43.5 -10.5q-22 1 -37 19.5t-15 42.5 q0 41 45.5 72.5t140.5 31.5q108 0 162.5 -34.5t54.5 -132.5v-207q0 -27 23 -27q30 0 33 60h64zM309 221l-29 -10q-23 -8 -34 -13.5t-27 -15.5t-23 -23.5t-7 -30.5q0 -29 19 -45.5t44 -16.5q24 0 40.5 15.5t16.5 43.5v96z" />
<glyph unicode="b" horiz-adv-x="651" d="M182 0h-89v557q0 33 -11 42.5t-36 9.5h-29v61q123 0 242 30v-317q42 75 153 75q100 0 153 -69t53 -173q0 -102 -59 -170t-159 -68q-111 0 -162 73zM259 250v-78q0 -116 91 -116q88 0 88 156q0 30 -2.5 51.5t-10.5 47t-27 39t-48 13.5q-45 0 -68 -33t-23 -80z" />
<glyph unicode="c" horiz-adv-x="551" d="M517 108q-25 -65 -84.5 -97.5t-134.5 -32.5q-115 0 -190 62t-75 175q0 114 75.5 178.5t191.5 64.5q43 0 85 -10.5t77.5 -40.5t35.5 -75q0 -29 -23 -45t-53 -16q-20 0 -34.5 15t-14.5 38q0 29 -20.5 48t-49.5 19q-25 0 -42.5 -13t-26.5 -30t-14 -44t-6 -45t-1 -43 q0 -37 3 -61.5t13 -52.5t33.5 -42.5t59.5 -14.5q94 0 132 81z" />
<glyph unicode="d" horiz-adv-x="665" d="M643 60v-60l-124 -3q-60 -3 -110 -10q-8 20 -13 49q-55 -58 -145 -58q-100 0 -159 68t-59 171q0 100 55 170.5t153 70.5q91 0 155 -52v152q0 51 -32 51h-43v61q123 0 242 30v-586q0 -33 13 -43.5t45 -10.5h22zM396 186v75q0 51 -23 83t-73 32q-87 0 -87 -155 q0 -24 1 -40.5t5.5 -42t12.5 -41t25 -27.5t41 -12q98 0 98 128z" />
<glyph unicode="e" horiz-adv-x="553" d="M449 140l74 -25q-72 -137 -231 -137q-116 0 -189 64.5t-73 179.5q0 109 76 172.5t188 63.5q109 0 168 -65t60 -175h-307q0 -35 3.5 -59.5t13.5 -50t33 -39t58 -13.5q81 0 126 84zM363 281q0 2 0.5 5.5t0.5 4.5q0 99 -71 99q-23 0 -38.5 -9t-23 -27.5t-10 -32.5t-5.5 -40 h147z" />
<glyph unicode="f" horiz-adv-x="425" d="M381 437v-64h-99v-239q0 -50 17.5 -62t69.5 -12v-60h-344v60q4 0 16.5 1t15.5 1t13 1.5t12 3t9.5 4t9 5.5t5.5 8t5.5 11.5t2.5 15t1 18.5v244h-82v64h84q0 113 53 181.5t157 68.5q36 0 68.5 -8.5t58.5 -32.5t26 -60q0 -30 -19.5 -48.5t-49.5 -18.5q-35 0 -50.5 25 t-15.5 59v7q-1 13 -21 13q-42 0 -42 -63v-123h99z" />
<glyph unicode="g" horiz-adv-x="603" d="M453 411q34 47 82 47q26 0 46.5 -14.5t20.5 -39.5q0 -52 -44 -56q-24 0 -37 10t-17 20l-3 10h-1q-9 0 -18 -15q24 -31 24 -75q0 -101 -108 -142q-24 -9 -76 -12t-86.5 -9.5t-35.5 -28.5q0 -19 36 -28.5t87.5 -15t103 -17t87.5 -44.5t36 -87q0 -50 -24.5 -85t-66 -52.5 t-83.5 -24.5t-91 -7q-37 0 -74.5 5t-80.5 18t-70 41t-27 68q0 35 28.5 56t64.5 21q46 0 46 -19q0 -5 -5.5 -24.5t-5.5 -32.5q0 -29 23 -46.5t48 -22.5t54 -5q30 0 59.5 5t58 24t28.5 50q0 35 -37 54.5t-89 26.5l-106 16q-53 8 -90 30t-38 62q1 25 14.5 41t30 23.5t47.5 16.5 q-47 20 -78 54.5t-31 80.5q0 57 37.5 97.5t88 56.5t106.5 16q100 0 166 -47zM345 295q0 38 -13.5 68t-47.5 30q-37 0 -53 -29t-16 -70q0 -39 15 -69.5t50 -30.5q36 0 50.5 30.5t14.5 70.5z" />
<glyph unicode="h" horiz-adv-x="688" d="M267 378q69 80 169 80q76 0 120.5 -35t44.5 -109v-200q0 -35 15 -44.5t55 -9.5v-60h-295v60q35 0 49.5 10t14.5 41v155q0 44 -13.5 68t-54.5 24t-73 -31.5t-32 -71.5v-121q0 -45 10.5 -59.5t53.5 -14.5v-60h-301v60q47 0 59 13.5t12 60.5v426q0 31 -10.5 40t-34.5 9h-30 v61q116 0 241 30v-322z" />
<glyph unicode="i" horiz-adv-x="363" d="M177 513q-38 0 -66 28t-28 66t28 65.5t66 27.5t65.5 -27.5t27.5 -65.5t-27.5 -66t-65.5 -28zM268 453v-340q0 -18 4.5 -29.5t15.5 -16.5t20.5 -6t26.5 -1h8v-60h-317v60q76 3 76 34v214q0 20 -4.5 31.5t-16.5 16t-22.5 5.5t-32.5 1v60q89 0 242 31z" />
<glyph unicode="j" horiz-adv-x="400" d="M77 362v60q76 3 241 32v-528q0 -85 -60.5 -133t-148.5 -48q-37 0 -74 10t-67.5 36.5t-30.5 65.5q0 28 19.5 47.5t47.5 19.5q29 0 44 -17.5t17.5 -39t13.5 -39t33 -17.5q40 0 40 63v437q0 32 -10.5 41.5t-35.5 9.5h-29zM229 513q-38 0 -66 27.5t-28 65.5t28 66t66 28 t65.5 -28t27.5 -66t-27.5 -65.5t-65.5 -27.5z" />
<glyph unicode="k" horiz-adv-x="695" d="M629 436v-60q-49 -2 -87 -30l-82 -58l132 -185q18 -25 33.5 -33t46.5 -10v-60h-309v60q46 0 46 21q0 7 -9 18l-78 109l-54 -36q0 -10 -1 -22t-1 -22q0 -44 13.5 -56t45.5 -12v-60h-294v60q46 0 58 14t12 60v427q0 30 -10.5 39t-34.5 9h-29v61q116 0 241 30v-448l138 88 q4 5 4 12q0 12 -16.5 18t-30.5 6v60h266z" />
<glyph unicode="l" horiz-adv-x="366" d="M338 60v-60h-307v60q44 0 57 12.5t13 56.5v433q0 29 -10.5 38t-34.5 9h-29v61q81 0 241 30v-566q0 -49 11.5 -61.5t58.5 -12.5z" />
<glyph unicode="m" horiz-adv-x="965" d="M247 453q9 -29 13 -79q69 84 160 84q98 0 145 -88q70 88 162 88q72 0 112.5 -36t40.5 -106v-196q0 -39 13.5 -49t54.5 -11v-60h-286v60q2 0 5 -0.5t5 -0.5q21 0 31.5 11.5t11.5 44.5v165q0 27 -3 41.5t-16 25.5t-38 11q-38 0 -63 -31t-25 -70v-145q1 -28 14 -40.5 t30 -12.5q6 0 9 1v-60h-270v60q8 3 17.5 4t14.5 2t9.5 4.5t6.5 13t2 25.5v174q0 37 -11 56t-44 19q-40 0 -64 -29.5t-24 -70.5v-155q0 -26 12.5 -34t39.5 -9v-60h-286v60q23 0 35 2t22 12.5t10 32.5v196q0 36 -15 47.5t-52 11.5v60q72 2 221 31z" />
<glyph unicode="n" horiz-adv-x="681" d="M270 384q82 74 170 74q154 0 154 -155v-184q1 -41 15.5 -50t54.5 -9v-60h-297v60q37 0 48.5 12.5t11.5 48.5v157q0 80 -62 80q-98 0 -98 -112v-119q0 -41 10 -54t51 -13v-60h-297v60q46 0 58 14t12 60v199q0 15 -6.5 24.5t-19 13t-22.5 4.5t-26 1v60h40q130 0 194 17 q7 -35 9 -69z" />
<glyph unicode="o" horiz-adv-x="609" d="M576 218q0 -110 -79 -175t-192 -65q-114 0 -193 64t-79 175t78.5 176t192.5 65q115 0 193.5 -64t78.5 -176zM392 221q0 27 -0.5 42.5t-5 43t-13 43.5t-25.5 28.5t-42 12.5q-30 0 -50 -16.5t-27.5 -46t-10 -52.5t-2.5 -55q0 -34 2 -56t9.5 -54t27.5 -49t51 -17q24 0 41 11 t25.5 25.5t13 40t5.5 43.5t1 46v10z" />
<glyph unicode="p" horiz-adv-x="662" d="M257 454q10 -37 11 -69q51 74 154 74q99 0 153 -68.5t54 -172.5q0 -99 -54 -172t-142 -73q-78 0 -165 63v-157q0 -44 11.5 -59t52.5 -15v-60h-294v60q41 0 52.5 15t11.5 59v418q0 45 -14 55t-61 10v60l57 6q37 3 60 5.5t54.5 8t58.5 12.5zM268 251v-3q0 -11 -0.5 -31.5 t-0.5 -29.5q0 -58 18 -89.5t76 -41.5q87 0 87 154q0 31 -2.5 52t-10.5 47t-27 40t-49 14q-45 0 -68 -33t-23 -79z" />
<glyph unicode="q" horiz-adv-x="656" d="M559 464v-585q0 -50 13.5 -62t49.5 -12h7v-60h-307v60q46 0 58 13.5t12 60.5v150q-57 -50 -142 -50q-105 0 -161 68t-56 174q0 102 58 170.5t158 68.5q95 0 143 -45zM396 196q0 79 -10.5 119t-28 51.5t-53.5 13.5q-91 0 -91 -160q0 -26 1 -43t6 -41.5t14 -38.5t27 -25 t43 -11q92 0 92 135z" />
<glyph unicode="r" horiz-adv-x="490" d="M27 362v60q116 5 225 31q12 -28 15 -70q63 75 133 75q34 0 57 -24t23 -58q0 -32 -20 -54.5t-51 -25.5q-23 0 -46 23.5t-41 23.5q-32 0 -55 -49v-175q0 -24 8 -36.5t17.5 -14.5t28.5 -3.5t30 -4.5v-60h-324v60q4 1 28 3.5t34.5 10.5t10.5 26v195q0 41 -14 51.5t-59 15.5z " />
<glyph unicode="s" horiz-adv-x="431" d="M388 458v-160h-60q-11 41 -40 66.5t-71 25.5q-15 0 -28.5 -8.5t-13.5 -22.5q0 -10 7 -19t13 -13t21 -11l16 -8q8 -5 32.5 -18.5t35.5 -20.5l30 -21q21 -13 30.5 -24.5t21.5 -28t17 -35t5 -39.5q0 -62 -44 -101t-108 -42q-94 0 -145 50l-17 -28h-64v167h64 q19 -53 53.5 -88.5t84.5 -35.5q19 0 32.5 9t13.5 27q0 20 -25.5 39.5t-62 38t-73 40t-62 54t-25.5 71.5q0 60 47 98t108 38q68 0 135 -32l12 32h60z" />
<glyph unicode="t" horiz-adv-x="441" d="M260 621v-184h111v-63h-111v-270q0 -46 31 -46q41 0 62 69l61 -23q-25 -64 -64.5 -95t-105.5 -31q-68 0 -109 34t-41 100v262h-68v63q86 9 119.5 52t40.5 132h74z" />
<glyph unicode="u" horiz-adv-x="669" d="M642 61v-60q-131 0 -230 -13q-9 31 -11 68q-61 -66 -171 -77q-82 0 -120 41t-38 124v178q0 32 -12 43.5t-44 11.5v60h221v-259q0 -100 70 -100q45 0 68 29.5t23 75.5v143q0 34 -15.5 42.5t-54.5 8.5v60h236v-322q0 -19 4.5 -30.5t15.5 -16t20 -6t26 -1.5h12z" />
<glyph unicode="v" horiz-adv-x="592" d="M579 437v-61q-34 -1 -51 -14.5t-30 -45.5l-125 -316h-163l-122 326q-12 31 -26 40.5t-48 9.5v61h285v-61h-8q-40 0 -40 -20q0 -8 7 -26l82 -216l75 207q7 17 7 26q0 29 -49 29v61h206z" />
<glyph unicode="w" horiz-adv-x="835" d="M822 437v-61q-47 0 -60 -10.5t-24 -48.5l-103 -317h-158l-57 212l-68 -212h-161l-108 331q-10 30 -20.5 37.5t-35.5 7.5h-13v61h285v-61h-6q-25 -1 -34 -5.5t-9 -14.5q0 -4 10 -36l57 -187l96 304h91l94 -304l60 194q8 28 8 32q0 17 -48 17v61h204z" />
<glyph unicode="x" horiz-adv-x="588" d="M546 437v-61h-6q-34 0 -49.5 -5t-36.5 -28l-87 -92l126 -155q18 -21 32 -28.5t40 -7.5v-60h-293v60q5 -1 12 -1q11 0 18 7.5t9 8.5q0 8 -24 33.5t-28 43.5q-4 -8 -29.5 -33.5t-25.5 -44.5v-1q0 -13 27 -13h5v-60h-212v60q69 5 102 40l88 93l-122 151q-16 20 -29 26t-39 6 v61h287v-61l-37 -10q0 -11 23 -39t26 -34q6 12 29.5 39t23.5 34q0 10 -34 10v61h204z" />
<glyph unicode="y" horiz-adv-x="608" d="M595 437v-61q-33 0 -50.5 -8.5t-30.5 -33.5l-202 -419q-14 -30 -22.5 -46t-26 -43.5t-33 -42t-39 -26.5t-48.5 -12q-43 0 -63.5 23.5t-20.5 57.5q0 38 19 67q41 -46 70 -46q18 0 34.5 8.5t27.5 19t24 31t19 32.5t16.5 36t13.5 30l-199 337q-14 23 -27 29t-43 6v61h312 v-61q-57 0 -57 -25q0 -8 7 -19l88 -154l73 164q6 12 6 19q0 9 -11.5 12t-40.5 3v61h204z" />
<glyph unicode="z" horiz-adv-x="501" d="M471 170v-170h-446v52l245 322h-109q-22 0 -38 -16.5t-22 -32.5t-13 -42h-55v154h431v-57l-241 -318h113q62 0 79 108h56z" />
<glyph unicode="{" d="M104 242v30q40 3 52.5 22.5t12.5 62.5q0 35 -2 107q1 32 5 58t9 45.5t15 34.5t18 24.5t23.5 16.5t26 10.5t30.5 5.5t32.5 2.5t36.5 1t38 1.5v-29q-55 -2 -73.5 -32t-18.5 -92q0 -23 0.5 -67t0.5 -67q0 -57 -29.5 -83t-90.5 -36v-2q118 -19 118 -114v-171q0 -120 93 -120 v-29q-236 43 -236 147q0 38 1 103t1 101q0 65 -63 69z" />
<glyph unicode="|" d="M187 666h127v-833h-127v833z" />
<glyph unicode="}" d="M396 272v-30q-33 -2 -48 -18.5t-15 -50.5q0 -25 1 -75t1 -75q0 -42 -6 -73.5t-15 -53t-27 -36t-33 -22t-43 -11.5t-47 -4.5t-54 -0.5h-11v29q52 0 72.5 28.5t20.5 82.5q0 24 -1 64.5t-1 57.5q0 83 23 122.5t97 49.5v2q-119 19 -119 97q0 28 -0.5 84.5t-0.5 84.5 q0 55 -20 81.5t-71 29.5v29q1 0 4 -1q150 -23 205 -103q25 -37 25 -84q0 -18 -1 -56t-1 -56q0 -23 1.5 -35.5t7.5 -26.5t20 -21t36 -9z" />
<glyph unicode="~" d="M446 440l33 -17q-70 -120 -159 -120q-32 0 -92.5 19t-92.5 19q-31 0 -83 -38l-32 17q23 35 39.5 55.5t47 41.5t63.5 23q33 0 95.5 -19t95.5 -19q45 0 85 38z" />
<glyph unicode="&#xa1;" horiz-adv-x="373" d="M118 -165l34 268q8 57 38 57q13 0 23.5 -15t14.5 -42l34 -268q1 -6 1 -16q0 -32 -19 -53t-54 -21q-41 0 -57 17.5t-16 50.5q0 14 1 22zM186 458q38 0 66 -27.5t28 -65.5t-28 -65.5t-66 -27.5t-65.5 27.5t-27.5 65.5t27.5 65.5t65.5 27.5z" />
<glyph unicode="&#xa2;" horiz-adv-x="594" d="M309 99q-107 7 -174 69t-67 167t65.5 169.5t171.5 72.5h4v96h53v-96q37 0 75 -13.5t67 -43t29 -67.5q0 -25 -19 -42.5t-44 -17.5q-25 3 -43.5 16t-18.5 36q0 22 -12.5 39.5t-33.5 24.5v-344q96 7 134 88l56 -24q-45 -115 -190 -129v-100h-53v99zM309 173v333 q-21 -9 -34.5 -27.5t-18.5 -45t-6.5 -45t-1.5 -47.5v-5q0 -138 61 -163z" />
<glyph unicode="&#xa3;" horiz-adv-x="602" d="M503 348v-54h-136q-11 -105 -72 -187q47 -24 97 -24q53 0 93.5 24.5t40.5 73.5l41 -27q0 -72 -43.5 -123.5t-113.5 -51.5q-76 0 -163 77q-59 -64 -125 -64q-42 0 -82.5 19.5t-40.5 57.5t38.5 59.5t78.5 21.5q34 0 80 -16q13 42 13 140v20h-119v54h119q0 113 25 173l1 2 q4 12 9 24t22 39t37.5 46.5t56 36.5t76.5 19q52 0 107.5 -26.5t58.5 -71.5q0 -50 -38 -81t-86 -31q-18 0 -31 4q10 10 25.5 46t15.5 64q0 48 -49 48q-68 0 -68 -102q0 -22 3.5 -58t3.5 -45q0 -29 -6 -87h131zM175 85q-26 23 -62 23q-20 0 -36 -9t-16 -28q0 -16 13.5 -26 t29.5 -10q42 0 71 50z" />
<glyph unicode="&#xa4;" horiz-adv-x="667" d="M14 86l101 101q-42 82 -42 157q0 71 42 152l-101 102l63 62l102 -102q64 41 154 41q75 0 151 -43l107 106l62 -63l-108 -108q40 -72 40 -157q0 -73 -40 -142l105 -106l-62 -63l-103 103q-75 -43 -153 -43q-83 0 -153 43l-102 -103zM448 341q0 47 -34 81t-81 34 q-48 0 -83 -33.5t-35 -81.5t35 -82t83 -34q47 0 81 34.5t34 81.5z" />
<glyph unicode="&#xa5;" horiz-adv-x="554" d="M367 242h145v-49h-145v-91q0 -48 17.5 -64t64.5 -16v-22h-320v22q50 0 66.5 15.5t16.5 64.5v91h-146v49h146l-28 83h-118v49h97l-78 191q-16 38 -32.5 55.5t-52.5 24.5v22h282v-22q-52 0 -52 -22q0 -11 11 -37l104 -266l88 233q15 41 15 54q0 30 -67 38v22h173v-22 q-32 -7 -50 -30t-33 -63l-69 -178h110v-49h-129l-16 -42v-41z" />
<glyph unicode="&#xa6;" d="M187 666h127v-345h-127v345zM187 153h127v-320h-127v320z" />
<glyph unicode="&#xa7;" horiz-adv-x="594" d="M245 518l200 -153q39 -29 58.5 -54.5t19.5 -63.5q0 -70 -74 -148q51 -37 51 -99q0 -71 -65.5 -115.5t-139.5 -44.5q-70 0 -135.5 41.5t-65.5 108.5q0 27 18.5 44t45.5 17q54 0 56 -74q1 -32 27.5 -52t59.5 -20q28 0 52 14.5t24 40.5q0 7 -2.5 13.5t-8 12.5t-9.5 9.5 t-13 9.5l-11 8l-192 145q-70 52 -70 116q0 74 79 155q-51 38 -51 105q0 68 56 110.5t126 42.5q71 0 130.5 -38t63.5 -105q0 -25 -16 -43t-41 -18q-30 0 -44.5 21.5t-17.5 47.5t-22 47.5t-58 21.5q-26 0 -48.5 -12.5t-22.5 -37.5q0 -22 40 -53zM227 264l168 -125q18 32 18 52 q0 36 -53 76l-160 121q-17 -32 -17 -60q0 -30 44 -64z" />
<glyph unicode="&#xa8;" d="M141 507q-31 0 -54.5 23.5t-23.5 54.5q0 32 23 55.5t55 23.5t55.5 -23.5t23.5 -55.5t-23.5 -55t-55.5 -23zM358 507q-32 0 -55 23t-23 55t23 55.5t55 23.5t55 -23.5t23 -55.5t-23 -55t-55 -23z" />
<glyph unicode="&#xa9;" horiz-adv-x="804" d="M547 523v-125h-18q-13 36 -38.5 62t-59.5 26q-25 0 -42.5 -16t-25.5 -42t-11 -48.5t-3 -46.5q0 -150 79 -150q62 0 119 90v-52q-60 -75 -145 -75q-81 0 -136 50.5t-55 130.5q0 83 55 138.5t137 55.5q26 0 59 -11t42 -11q14 0 24 21zM402 -13q-143 0 -245 102t-102 245 t102 244.5t245 101.5t244.5 -101.5t101.5 -244.5t-101.5 -245t-244.5 -102zM402 35q123 0 210.5 88t87.5 211t-87.5 210.5t-210.5 87.5t-211 -87.5t-88 -210.5t88 -211t211 -88z" />
<glyph unicode="&#xaa;" horiz-adv-x="348" d="M304 447l13 -10q-23 -42 -71 -42q-42 0 -61 37q-51 -38 -98 -38q-48 0 -48 59q0 70 145 110v45q0 18 -6 27t-23 9q-30 0 -30 -11q0 -5 8.5 -19t8.5 -20q0 -18 -15 -30t-33 -12q-20 0 -35 14t-15 34q0 36 43 54.5t84 18.5q53 0 82 -16.5t29 -64.5v-156q15 0 22 11z M184 535q-46 -24 -46 -61q0 -28 16 -28q13 0 30 15v74zM324 337v-51h-299v51h299z" />
<glyph unicode="&#xab;" horiz-adv-x="582" d="M268 228l161 172q34 33 53 33t19 -26q0 -13 -4 -21l-60 -158l57 -152q3 -15 3 -24q0 -28 -19 -28q-16 0 -38 17zM33 228l161 172q34 30 55 30q18 0 18 -23q0 -7 -4 -21l-60 -158l56 -152q4 -8 4 -26q0 -25 -18 -25q-15 0 -39 16z" />
<glyph unicode="&#xac;" d="M272 0v181h-246v86h448v-267h-202z" />
<glyph unicode="&#xad;" horiz-adv-x="418" d="M78 188v80h262v-80h-262z" />
<glyph unicode="&#xae;" horiz-adv-x="804" d="M402 -13q-143 0 -245 102t-102 245t102 244.5t245 101.5t244.5 -101.5t101.5 -244.5t-101.5 -245t-244.5 -102zM402 35q123 0 210.5 88t87.5 211t-87.5 210.5t-210.5 87.5t-211 -87.5t-88 -210.5t88 -211t211 -88zM490 152l-98 173h-17v-115q0 -25 8.5 -31.5t30.5 -6.5 h11v-20h-221v20q27 0 37.5 6.5t10.5 31.5v247q0 24 -9 31t-28 7h-14v21h226q148 0 148 -100q0 -35 -17 -56.5t-52 -36.5l76 -128q14 -23 41 -23v-20h-133zM375 485v-142q42 0 59.5 16.5t17.5 56.5q0 39 -18.5 54t-58.5 15z" />
<glyph unicode="&#xaf;" d="M92 549v75h316v-75h-316z" />
<glyph unicode="&#xb0;" horiz-adv-x="509" d="M258 671q57 0 95.5 -42.5t38.5 -99.5q0 -56 -43.5 -95t-99.5 -39q-55 0 -94 43.5t-39 98.5q0 57 42 95.5t100 38.5zM258 595q-26 0 -46 -16.5t-20 -41.5q0 -26 16.5 -46t41.5 -20t45.5 16.5t20.5 41.5q0 26 -16 45.5t-42 20.5z" />
<glyph unicode="&#xb1;" d="M0 91h500v-94h-500v94zM0 418h200v205h98v-205h202v-94h-202v-195h-98v195h-200v94z" />
<glyph unicode="&#xb2;" horiz-adv-x="379" d="M338 365l-25 -102h-278l19 39q70 48 124.5 117t54.5 139q0 29 -17 51t-45 22q-31 0 -46.5 -16t-15.5 -39q0 -18 10 -34.5t26 -23.5q-19 -26 -52 -26q-21 0 -35.5 16.5t-14.5 48.5q0 48 42 75.5t93 27.5q56 0 103 -29t47 -82q0 -20 -6 -40t-12 -34.5t-23 -33t-25 -28 t-32 -27.5l-32 -22q-6 -5 -34.5 -23.5t-30.5 -20.5h120q26 0 36.5 9.5t18.5 35.5h30z" />
<glyph unicode="&#xb3;" horiz-adv-x="340" d="M127 547q-16 -8 -36 -8q-45 0 -45 40q0 41 37.5 60t82.5 19q51 0 94 -25.5t43 -73.5q0 -63 -73 -88q81 -31 81 -101q0 -58 -49.5 -85.5t-112.5 -27.5q-45 0 -84.5 16.5t-39.5 54.5q0 27 11 42t26 15q14 0 21.5 -15t9.5 -33.5t16 -33.5t40 -15q33 0 49 22.5t16 56.5 q0 25 -8.5 51.5t-28.5 26.5q-10 0 -29 -9.5t-27 -9.5q-17 0 -24 33q0 27 59 27q12 0 26 -2q23 20 23 64q0 31 -13.5 55t-42.5 24q-44 0 -44 -32q0 -24 22 -48z" />
<glyph unicode="&#xb4;" d="M219 657q39 -12 73 -12q36 0 70 14q31 0 31 -20q0 -15 -18 -24l-219 -115q-14 -6 -26 -6q-27 0 -27 18q0 12 16 31z" />
<glyph unicode="&#xb5;" horiz-adv-x="560" d="M571 34l-165 -46q-39 0 -59 61q-43 -61 -103 -64q-44 0 -68.5 18.5t-44.5 61.5q-1 -5 -1 -15q0 -38 28.5 -102.5t28.5 -86.5q0 -27 -23.5 -44t-52.5 -17q-38 0 -60.5 17.5t-22.5 51.5q0 6 21.5 121.5t21.5 230.5v216h170v-316q3 -66 36 -66q24 0 58 39v343h168v-312 q0 -15 1 -24.5t4.5 -21.5t12.5 -18.5t23 -6.5q9 0 27 2v-22z" />
<glyph unicode="&#xb6;" horiz-adv-x="672" d="M594 667v-38h-11q-36 0 -44.5 -9t-8.5 -41v-604q0 -16 39 -16h11v-37h-143v704h-59v-704h-172l37 37q29 1 36 6.5t7 22.5v351q-47 0 -86.5 8t-74.5 26.5t-55 53.5t-20 83q0 55 40 92t93.5 51t115.5 14h295zM286 379v250q-25 0 -42 -7t-26 -16.5t-13.5 -29t-5.5 -35 t-1 -42.5q0 -56 8 -82t21 -32t43 -6h16z" />
<glyph unicode="&#xb7;" horiz-adv-x="270" d="M135 133q-39 0 -67 28t-28 67t28 67t67 28t67 -28t28 -67t-28 -67t-67 -28z" />
<glyph unicode="&#xb8;" d="M298 0l-18 -63q90 -19 90 -93q0 -47 -37 -77t-85 -30q-65 0 -117 37l31 53l19 -9l20 -10q7 -4 16.5 -7t16.5 -3q21 0 30 24q0 23 -20 43t-42 25l31 110h65z" />
<glyph unicode="&#xb9;" horiz-adv-x="379" d="M100 628q38 0 70 11t49 21.5t19 10.5q4 0 4 -7q0 -1 -0.5 -4.5t-0.5 -5.5v-309q0 -44 51 -44v-38h-203v37q5 2 24 2.5t27 9.5t8 35v246h-48v35z" />
<glyph unicode="&#xba;" horiz-adv-x="348" d="M174 673q62 0 101 -38.5t39 -101.5q0 -62 -39.5 -102t-100.5 -40t-100.5 40t-39.5 102q0 63 39 101.5t101 38.5zM174 647q-36 0 -36 -82q0 -6 0.5 -17.5t0.5 -15.5v-25q0 -91 35 -91q36 0 36 97q0 5 0.5 20.5t0.5 25.5q0 88 -37 88zM324 337v-51h-299v51h299z" />
<glyph unicode="&#xbb;" horiz-adv-x="582" d="M155 399l160 -171l-172 -187q-13 -15 -29 -15q-12 0 -19.5 9t-7.5 25q0 4 2 16l57 152l-60 158v6q0 33 20 33q17 0 48 -25zM389 400l161 -172l-173 -187q-14 -16 -39 -16q-21 0 -21 21q0 12 7 30l56 152l-60 158q-1 5 -1 12q0 27 19 27q6 0 13 -2.5t13 -6.5l12 -8 q6 -3 10 -6z" />
<glyph unicode="&#xbc;" horiz-adv-x="907" d="M792 402v-268q44 0 58 31h29l-19 -71h-68v-30q0 -22 45 -27v-37h-183v37q5 2 19.5 3t20 6.5t5.5 20.5v27h-142v27l176 281h59zM635 660l-306 -660h-57l307 660h56zM699 134v126q0 5 3.5 21.5t3.5 18.5q-11 -22 -19 -34l-84 -132h96zM292 263h-203v38q33 0 46 8.5t13 38.5 v245h-48v35q35 1 74.5 12t59.5 31q2 0 3.5 -0.5t2.5 -2t1 -3.5v-319q0 -29 10.5 -37t33.5 -8h7v-38z" />
<glyph unicode="&#xbd;" horiz-adv-x="907" d="M292 263h-203v38q33 0 46 8.5t13 38.5v245h-48v35q35 1 74.5 12t59.5 31q8 0 8 -7q0 -1 -0.5 -4t-0.5 -5v-309q0 -29 10.5 -37t33.5 -8h7v-38zM635 660l-306 -660h-57l307 660h56zM866 102l-25 -102h-278l17 48q74 50 127.5 114t53.5 133q0 29 -17 51t-45 22 q-32 0 -47.5 -15t-15.5 -37q0 -19 10.5 -36.5t26.5 -24.5q-22 -26 -55 -26q-47 0 -47 65q0 48 42 75.5t93 27.5q56 0 103 -29t47 -82q0 -20 -6 -40t-12 -34.5t-23 -33t-25 -28t-32 -27.5l-32 -23l-34.5 -22.5t-30.5 -20.5h120q26 0 36.5 9.5t18.5 35.5h30z" />
<glyph unicode="&#xbe;" horiz-adv-x="869" d="M754 402v-268q16 0 24.5 1t18 7t14.5 19q2 2 2 4h28l-20 -71h-67v-30q0 -22 45 -27v-37h-184v37q5 1 15.5 2.5t15.5 3t10 7.5t5 17v27h-143v27l177 281h59zM597 660l-307 -660h-57l307 660h57zM661 134v126q0 4 0.5 12.5t0.5 12.5q-4 -11 -9 -19l-83 -132h91zM127 547 q-16 -8 -35 -8q-46 0 -46 41q0 40 37.5 59t82.5 19q51 0 94 -25t43 -73q0 -65 -73 -88q81 -33 81 -102q0 -58 -50 -85.5t-112 -27.5q-45 0 -84.5 16.5t-39.5 54.5q0 28 11 43t26 15q14 0 21.5 -15.5t9.5 -33.5t16 -33.5t40 -15.5q32 0 48.5 22.5t16.5 56.5q0 25 -8.5 51.5 t-28.5 26.5q-9 0 -28.5 -8.5t-27.5 -8.5q-18 0 -24 32q0 27 43 27q8 0 22.5 -1t19.5 -1q23 20 23 64q0 30 -13.5 54t-42.5 24q-44 0 -44 -31q0 -25 22 -49z" />
<glyph unicode="&#xbf;" horiz-adv-x="533" d="M257 168h72v-178h-41q0 2 -2 11.5t-4 12.5t-7 9.5t-15.5 8.5t-25.5 2q-46 0 -46 -112q0 -48 18 -83.5t61 -35.5q24 0 39 15.5t20.5 34t18 34t33.5 15.5q26 0 42 -16t16 -40q0 -39 -45.5 -70t-134.5 -31q-91 0 -150.5 48.5t-59.5 137.5q0 159 211 159v78zM294 448 q38 0 65.5 -27.5t27.5 -65.5t-27.5 -65.5t-65.5 -27.5t-66 27.5t-28 65.5t28 65.5t66 27.5z" />
<glyph unicode="&#xc0;" horiz-adv-x="804" d="M477 667l190 -483q26 -64 51.5 -90t85.5 -27v-67h-385v67q4 -1 12 -1q56 0 69 31q0 16 -7 38t-18 48.5t-15 37.5h-230q-2 -4 -16 -34.5t-22 -53t-8 -35.5q0 -31 69 -31h11v-67h-264v67q51 0 74.5 24t47.5 80l216 496h139zM436 285l-62 179q-3 12 -8 30l-8 31q-4 13 -4 23 q-9 -55 -16 -71l-82 -192h180zM457 874l100 -114q6 -6 6 -23q0 -23 -23 -23q-8 0 -19 3l-220 115q-19 10 -19 27t32 17q33 -18 68 -18q29 0 75 16z" />
<glyph unicode="&#xc1;" horiz-adv-x="847" d="M386 870q39 -12 73 -12q36 0 70 14q31 0 31 -20q0 -15 -18 -24l-219 -115q-14 -6 -26 -6q-27 0 -27 18q0 12 16 31zM499 667l190 -483q26 -64 51.5 -90t85.5 -27v-67h-385v67q4 -1 12 -1q56 0 69 31q0 16 -7 38t-18 48.5t-15 37.5h-230q-2 -4 -16 -34.5t-22 -53t-8 -35.5 q0 -31 69 -31h11v-67h-264v67q51 0 74.5 24t47.5 80l216 496h139zM458 285l-62 179q-3 12 -8 30l-8 31q-4 13 -4 23q-9 -55 -16 -71l-82 -192h180z" />
<glyph unicode="&#xc2;" horiz-adv-x="847" d="M499 667l190 -483q26 -64 51.5 -90t85.5 -27v-67h-385v67q4 -1 12 -1q56 0 69 31q0 16 -7 38t-18 48.5t-15 37.5h-230q-2 -4 -16 -34.5t-22 -53t-8 -35.5q0 -31 69 -31h11v-67h-264v67q51 0 74.5 24t47.5 80l216 496h139zM458 285l-62 179q-3 12 -8 30l-8 31q-4 13 -4 23 q-9 -55 -16 -71l-82 -192h180zM424 879l128 -118q25 -23 25 -39q0 -10 -8 -18t-18 -8q-15 0 -26 7l-100 68l-98 -65q-16 -10 -29 -10q-11 0 -19 8t-8 19q0 12 20 30z" />
<glyph unicode="&#xc3;" horiz-adv-x="847" d="M573 846l44 -39q-58 -90 -123 -90q-27 0 -77.5 19.5t-76.5 19.5q-28 0 -57 -42l-51 34q21 41 58 72t78 31q27 0 75.5 -19t74.5 -19q28 0 55 33zM499 667l190 -483q26 -64 51.5 -90t85.5 -27v-67h-385v67q41 1 57.5 6t23.5 24q0 16 -7 38t-18 48.5t-15 37.5h-230 q-2 -4 -16 -34.5t-22 -53t-8 -35.5q0 -31 69 -31h11v-67h-264v67q51 0 74.5 24t47.5 80l216 496h139zM458 285l-64 183q-1 5 -9 35.5t-9 44.5q-7 -45 -22 -82l-76 -181h180z" />
<glyph unicode="&#xc4;" horiz-adv-x="847" d="M499 667l190 -483q26 -64 51.5 -90t85.5 -27v-67h-385v67q4 -1 12 -1q56 0 69 31q0 16 -7 38t-18 48.5t-15 37.5h-230q-2 -4 -16 -34.5t-22 -53t-8 -35.5q0 -31 69 -31h11v-67h-264v67q51 0 74.5 24t47.5 80l216 496h139zM458 285l-62 179q-3 12 -8 30l-8 31q-4 13 -4 23 q-9 -55 -16 -71l-82 -192h180zM316 707q-32 0 -55 23.5t-23 54.5q0 32 23 55.5t55 23.5t55.5 -23.5t23.5 -55.5t-23.5 -55t-55.5 -23zM533 707q-32 0 -55 23t-23 55t23 55.5t55 23.5t55 -23.5t23 -55.5t-23 -55t-55 -23z" />
<glyph unicode="&#xc5;" horiz-adv-x="847" d="M499 667l190 -483q26 -64 51.5 -90t85.5 -27v-67h-385v67q4 -1 12 -1q56 0 69 31q0 16 -7 38t-18 48.5t-15 37.5h-230q-2 -4 -16 -34.5t-22 -53t-8 -35.5q0 -31 69 -31h11v-67h-264v67q51 0 74.5 24t47.5 80l216 496h139zM458 285l-62 179q-3 12 -8 30l-8 31q-4 13 -4 23 q-9 -55 -16 -71l-82 -192h180zM425 702q-46 0 -79 33t-33 79t33 78.5t79 32.5t78.5 -32.5t32.5 -78.5t-32.5 -79t-78.5 -33zM425 762q21 0 36 15.5t15 36.5t-15 36t-36 15t-36.5 -15t-15.5 -36t15.5 -36.5t36.5 -15.5z" />
<glyph unicode="&#xc6;" horiz-adv-x="1030" d="M938 667l18 -183h-66q-4 55 -35 85.5t-87 30.5h-146v-232h70q74 0 76 91h60v-249h-60q0 47 -15.5 71t-59.5 24h-71v-153q2 -35 18.5 -61t48.5 -26h25q121 0 166.5 27t57.5 112h62l-15 -204h-640v67q64 0 80 17.5t16 81.5v139h-153l-78 -163q-13 -26 -13 -41q0 -34 76 -34 v-67h-273v67q53 0 75 17.5t48 69.5l194 389q10 17 10 29q0 28 -68 28h-16v67h695zM441 368v242l-123 -242h123z" />
<glyph unicode="&#xc7;" horiz-adv-x="780" d="M457 -19l-13 -44q90 -19 90 -93q0 -47 -37 -77t-85 -30q-63 0 -117 37l31 53q58 -34 73 -34q22 0 29 33q0 22 -19.5 40.5t-41.5 23.5l25 91h-3q-154 9 -251.5 100.5t-97.5 243.5q0 151 106.5 256.5t257.5 105.5q122 0 204 -61q13 21 18 46h67v-236h-67q-9 90 -62 137 q-52 47 -141 47q-55 0 -95.5 -27.5t-61 -73.5t-30 -93.5t-9.5 -99.5q0 -77 20 -136t71 -98t130 -39q76 0 138 37t103 102l58 -44q-123 -167 -290 -167z" />
<glyph unicode="&#xc8;" horiz-adv-x="710" d="M621 667l18 -187h-67q-2 64 -29 92t-91 28h-150v-216h66q47 0 64.5 21t19.5 70h49v-249h-49q-1 52 -17.5 73.5t-66.5 21.5h-66v-172q0 -27 8.5 -44.5t26 -25t34.5 -9.5t45 -2q92 0 141.5 27.5t59.5 110.5h63l-14 -206h-640v67q64 0 80 17.5t16 81.5v334q0 64 -16.5 82 t-79.5 18v67h595zM365 872l100 -114q6 -6 6 -23q0 -23 -23 -23q-8 0 -19 3l-220 115q-19 10 -19 27t32 17q33 -18 68 -18q29 0 75 16z" />
<glyph unicode="&#xc9;" horiz-adv-x="710" d="M304 884q39 -12 73 -12q36 0 70 14q31 0 31 -20q0 -15 -18 -24l-219 -115q-14 -6 -26 -6q-27 0 -27 18q0 12 16 31zM621 667l18 -187h-67q-2 64 -29 92t-91 28h-150v-216h66q47 0 64.5 21t19.5 70h49v-249h-49q-1 52 -17.5 73.5t-66.5 21.5h-66v-172q0 -27 8.5 -44.5 t26 -25t34.5 -9.5t45 -2q92 0 141.5 27.5t59.5 110.5h63l-14 -206h-640v67q64 0 80 17.5t16 81.5v334q0 64 -16.5 82t-79.5 18v67h595z" />
<glyph unicode="&#xca;" horiz-adv-x="710" d="M621 667l18 -187h-67q-2 64 -29 92t-91 28h-150v-216h66q47 0 64.5 21t19.5 70h56v-249h-56q-1 52 -17.5 73.5t-66.5 21.5h-66v-172q0 -27 8.5 -44.5t26 -25t34.5 -9.5t45 -2q92 0 141.5 27.5t59.5 110.5h63l-14 -206h-640v67q64 0 80 17.5t16 81.5v334q0 64 -16.5 82 t-79.5 18v67h595zM355 879l128 -118q22 -17 22 -37q0 -12 -7.5 -19.5t-20.5 -7.5q-11 0 -21 6l-100 68l-92 -57q-16 -10 -31 -10q-27 0 -27 23q0 10 16 26z" />
<glyph unicode="&#xcb;" horiz-adv-x="710" d="M621 667l18 -187h-67q-2 64 -29 92t-91 28h-150v-216h66q47 0 64.5 21t19.5 70h49v-249h-49q-1 52 -17.5 73.5t-66.5 21.5h-66v-172q0 -27 8.5 -44.5t26 -25t34.5 -9.5t45 -2q92 0 141.5 27.5t59.5 110.5h63l-14 -206h-640v67q64 0 80 17.5t16 81.5v334q0 64 -16.5 82 t-79.5 18v67h595zM246 707q-32 0 -55 23.5t-23 54.5q0 32 23 55.5t55 23.5t55.5 -23.5t23.5 -55.5t-23.5 -55t-55.5 -23zM463 707q-32 0 -55 23t-23 55t23 55.5t55 23.5t55 -23.5t23 -55.5t-23 -55t-55 -23z" />
<glyph unicode="&#xcc;" horiz-adv-x="425" d="M26 667h372v-67q-63 0 -79.5 -18t-16.5 -82v-334q0 -64 16 -81.5t80 -17.5v-67h-372v67q64 0 80 17.5t16 81.5v334q0 64 -16.5 82t-79.5 18v67zM269 874l100 -114q6 -6 6 -23q0 -23 -23 -23q-8 0 -19 3l-220 115q-19 10 -19 27t32 17q33 -18 68 -18q29 0 75 16z" />
<glyph unicode="&#xcd;" horiz-adv-x="425" d="M162 884q39 -12 73 -12q36 0 70 14q31 0 31 -20q0 -15 -18 -24l-219 -115q-14 -6 -26 -6q-27 0 -27 18q0 12 16 31zM26 667h372v-67q-63 0 -79.5 -18t-16.5 -82v-334q0 -64 16 -81.5t80 -17.5v-67h-372v67q64 0 80 17.5t16 81.5v334q0 64 -16.5 82t-79.5 18v67z" />
<glyph unicode="&#xce;" horiz-adv-x="425" d="M26 667h372v-67q-63 0 -79.5 -18t-16.5 -82v-334q0 -64 16 -81.5t80 -17.5v-67h-372v67q64 0 80 17.5t16 81.5v334q0 64 -16.5 82t-79.5 18v67zM212 879l128 -118q22 -16 22 -36q0 -11 -8 -19t-20 -8q-11 0 -21 5l-100 68l-98 -65q-18 -7 -30 -7q-23 0 -23 21q0 23 17 33 z" />
<glyph unicode="&#xcf;" horiz-adv-x="425" d="M26 667h372v-67q-63 0 -79.5 -18t-16.5 -82v-334q0 -64 16 -81.5t80 -17.5v-67h-372v67q64 0 80 17.5t16 81.5v334q0 64 -16.5 82t-79.5 18v67zM103 708q-31 0 -54.5 23t-23.5 55t23 55.5t55 23.5t55.5 -23.5t23.5 -55.5t-23.5 -55t-55.5 -23zM320 708q-32 0 -55 23 t-23 55t23 55.5t55 23.5t55 -23.5t23 -55.5t-23 -55t-55 -23z" />
<glyph unicode="&#xd0;" horiz-adv-x="842" d="M130 383v117q0 64 -16.5 82t-79.5 18v67h368q79 0 149.5 -19.5t127 -58t90 -103.5t33.5 -148q0 -129 -72 -219q-95 -119 -313 -119h-383v67q64 0 80 17.5t16 81.5v151h-96v66h96zM311 383h159v-66h-159v-173q0 -48 19.5 -63.5t68.5 -15.5q60 0 103.5 22t67.5 61.5t35 87 t11 104.5q-1 42 -6.5 76.5t-14 60.5t-24 45.5t-29.5 32.5t-38 22t-41 13.5t-47.5 7t-50 3t-54.5 0.5v-218z" />
<glyph unicode="&#xd1;" horiz-adv-x="841" d="M315 667l322 -464v310q0 30 -6.5 48.5t-21.5 26.5t-28.5 10t-37.5 2h-11v67h289v-67h-12q-21 0 -33.5 -2t-27.5 -9.5t-22.5 -26.5t-7.5 -49v-513h-141l-371 540v-387q1 -51 24.5 -66t79.5 -16v-71h-283v71q11 2 30.5 4t28 4t19.5 8.5t15 21.5t4 39v352q0 64 -16 82 t-79 18v67h286zM565 874l44 -39q-58 -90 -123 -90q-27 0 -77.5 19.5t-76.5 19.5q-28 0 -57 -42l-51 34q21 41 58 72t78 31q27 0 75.5 -19t74.5 -19q28 0 55 33z" />
<glyph unicode="&#xd2;" horiz-adv-x="839" d="M799 332q0 -161 -108.5 -256.5t-271.5 -95.5q-167 0 -273 94.5t-106 259.5q0 160 108 256.5t270 96.5q165 0 273 -96t108 -259zM612 334q0 286 -192 286q-53 0 -93 -27t-60.5 -71.5t-30 -91.5t-9.5 -97q0 -53 9 -99.5t29 -90.5t60 -70t96 -26q57 0 97 26t59 71t27 90.5 t8 99.5zM478 870l100 -114q6 -6 6 -23q0 -23 -23 -23q-9 0 -19 3l-220 115q-19 10 -19 27t32 17q33 -18 68 -18q29 0 75 16z" />
<glyph unicode="&#xd3;" horiz-adv-x="839" d="M358 870q39 -12 73 -12q36 0 70 14q31 0 31 -20q0 -15 -18 -24l-219 -115q-14 -6 -26 -6q-27 0 -27 18q0 12 16 31zM799 332q0 -161 -108.5 -256.5t-271.5 -95.5q-167 0 -273 94.5t-106 259.5q0 160 108 256.5t270 96.5q165 0 273 -96t108 -259zM612 334q0 286 -192 286 q-53 0 -93 -27t-60.5 -71.5t-30 -91.5t-9.5 -97q0 -53 9 -99.5t29 -90.5t60 -70t96 -26q57 0 97 26t59 71t27 90.5t8 99.5z" />
<glyph unicode="&#xd4;" horiz-adv-x="839" d="M799 332q0 -161 -108.5 -256.5t-271.5 -95.5q-167 0 -273 94.5t-106 259.5q0 160 108 256.5t270 96.5q165 0 273 -96t108 -259zM612 334q0 286 -192 286q-53 0 -93 -27t-60.5 -71.5t-30 -91.5t-9.5 -97q0 -53 9 -99.5t29 -90.5t60 -70t96 -26q57 0 97 26t59 71t27 90.5 t8 99.5zM419 879l128 -118q12 -2 20 -14.5t8 -25.5q0 -24 -26 -24q-11 0 -29 6l-100 68l-78 -55q-26 -16 -53 -16q-23 0 -23 15q0 14 20 38z" />
<glyph unicode="&#xd5;" horiz-adv-x="839" d="M568 846l44 -39q-58 -90 -123 -90q-27 0 -77.5 19.5t-76.5 19.5q-28 0 -57 -42l-51 34q21 41 58 72t78 31q27 0 75.5 -19t74.5 -19q27 0 55 33zM799 332q0 -161 -108.5 -256.5t-271.5 -95.5q-167 0 -273 94.5t-106 259.5q0 160 108 256.5t270 96.5q165 0 273 -96 t108 -259zM612 334q0 286 -192 286q-53 0 -93 -27t-60.5 -71.5t-30 -91.5t-9.5 -97q0 -53 9 -99.5t29 -90.5t60 -70t96 -26q57 0 97 26t59 71t27 90.5t8 99.5z" />
<glyph unicode="&#xd6;" horiz-adv-x="839" d="M311 707q-31 0 -54.5 23.5t-23.5 54.5q0 32 23 55.5t55 23.5t55.5 -23.5t23.5 -55.5t-23.5 -55t-55.5 -23zM528 707q-32 0 -55 23t-23 55t23 55.5t55 23.5t55 -23.5t23 -55.5t-23 -55t-55 -23zM799 332q0 -161 -108.5 -256.5t-271.5 -95.5q-167 0 -273 94.5t-106 259.5 q0 160 108 256.5t270 96.5q165 0 273 -96t108 -259zM612 334q0 286 -192 286q-53 0 -93 -27t-60.5 -71.5t-30 -91.5t-9.5 -97q0 -53 9 -99.5t29 -90.5t60 -70t96 -26q57 0 97 26t59 71t27 90.5t8 99.5z" />
<glyph unicode="&#xd7;" d="M107 581l141 -142l144 145l69 -69l-145 -144l143 -142l-66 -66l-142 143l-144 -145l-69 69l145 144l-142 141z" />
<glyph unicode="&#xd8;" horiz-adv-x="839" d="M669 612q63 -48 96.5 -122.5t33.5 -157.5q0 -161 -108.5 -256.5t-271.5 -95.5q-110 0 -193 40l-59 -79l-54 40l55 74l-2 2q-62 49 -94 122t-32 155q0 160 108 256.5t270 96.5q113 0 194 -40l61 80l52 -41zM586 508l-290 -411q44 -50 125 -50q57 0 96.5 26t59 71 t27.5 90.5t8 99.5q0 109 -26 174zM257 161l288 409q-49 50 -125 50q-53 0 -93 -27t-60.5 -71.5t-30 -91.5t-9.5 -97q0 -105 30 -172z" />
<glyph unicode="&#xd9;" horiz-adv-x="873" d="M492 872l100 -114q6 -6 6 -23q0 -23 -23 -23q-9 0 -19 3l-220 115q-19 10 -19 27t32 17q33 -18 68 -18q29 0 75 16zM846 667v-67q-38 -1 -56.5 -4.5t-31.5 -21.5t-13 -55v-279q0 -64 -10.5 -109.5t-46.5 -77.5q-82 -73 -242 -73q-50 0 -92.5 5.5t-86.5 20.5t-75 39.5 t-50.5 65.5t-19.5 94v295q0 64 -16.5 82t-79.5 18v67h372v-67q-63 0 -79.5 -18t-16.5 -82v-269q0 -178 174 -178q187 0 187 176v288q0 48 -21.5 65.5t-72.5 17.5v67h277z" />
<glyph unicode="&#xda;" horiz-adv-x="873" d="M418 874q39 -12 73 -12q36 0 70 14q31 0 31 -20q0 -15 -18 -24l-219 -115q-14 -6 -26 -6q-27 0 -27 18q0 12 16 31zM846 667v-67q-38 -1 -56.5 -4.5t-31.5 -21.5t-13 -55v-279q0 -64 -10.5 -109.5t-46.5 -77.5q-82 -73 -242 -73q-50 0 -92.5 5.5t-86.5 20.5t-75 39.5 t-50.5 65.5t-19.5 94v295q0 64 -16.5 82t-79.5 18v67h372v-67q-63 0 -79.5 -18t-16.5 -82v-269q0 -178 174 -178q187 0 187 176v288q0 29 -6 47t-19.5 25t-26 9t-35.5 2h-7v67h277z" />
<glyph unicode="&#xdb;" horiz-adv-x="873" d="M846 667v-67q-38 -1 -56.5 -4.5t-31.5 -21.5t-13 -55v-279q0 -64 -10.5 -109.5t-46.5 -77.5q-82 -73 -242 -73q-50 0 -92.5 5.5t-86.5 20.5t-75 39.5t-50.5 65.5t-19.5 94v295q0 64 -16.5 82t-79.5 18v67h372v-67q-63 0 -79.5 -18t-16.5 -82v-269q0 -178 174 -178 q187 0 187 176v288q0 29 -6 47t-19.5 25t-26 9t-35.5 2h-7v67h277zM436 879l128 -118q25 -23 25 -39q0 -10 -8 -18t-18 -8q-15 0 -26 7l-100 68l-98 -65q-16 -10 -29 -10q-11 0 -19 8t-8 19q0 12 20 30z" />
<glyph unicode="&#xdc;" horiz-adv-x="873" d="M846 667v-67q-38 -1 -56.5 -4.5t-31.5 -21.5t-13 -55v-279q0 -64 -10.5 -109.5t-46.5 -77.5q-82 -73 -242 -73q-50 0 -92.5 5.5t-86.5 20.5t-75 39.5t-50.5 65.5t-19.5 94v295q0 64 -16.5 82t-79.5 18v67h372v-67q-63 0 -79.5 -18t-16.5 -82v-269q0 -178 174 -178 q187 0 187 176v288q0 29 -6 47t-19.5 25t-26 9t-35.5 2h-7v67h277zM328 707q-32 0 -55 23.5t-23 54.5q0 32 23 55.5t55 23.5t55.5 -23.5t23.5 -55.5t-23.5 -55t-55.5 -23zM545 707q-32 0 -55 23t-23 55t23 55.5t55 23.5t55 -23.5t23 -55.5t-23 -55t-55 -23z" />
<glyph unicode="&#xdd;" horiz-adv-x="751" d="M366 885q39 -12 73 -12q36 0 70 14q31 0 31 -20q0 -15 -18 -24l-219 -115q-14 -6 -26 -6q-27 0 -27 18q0 12 16 31zM738 667v-67q-91 0 -116 -48l-158 -264v-122q0 -67 16.5 -83t83.5 -16v-67h-385v67q67 0 83.5 16t16.5 83v122l-156 254q-22 35 -44.5 46.5t-65.5 11.5 v67h375v-67q-71 0 -71 -18v-8q0 -12 7 -24l106 -186l110 184q3 5 3 9.5t-1 9.5t-1 7q0 26 -70 26v67h267z" />
<glyph unicode="&#xde;" horiz-adv-x="677" d="M399 667v-67q-19 0 -29 -0.5t-25 -3.5t-22.5 -9.5t-13.5 -19t-6 -30.5q152 0 227 -13q61 -10 97.5 -61t36.5 -115q0 -51 -21.5 -88t-58.5 -57t-78.5 -29t-89.5 -9h-113q1 -64 17 -81t79 -17v-67h-372v67q64 0 80 17.5t16 81.5v334q0 64 -16.5 82t-79.5 18v67h372z M303 225q6 0 24.5 1t26.5 2l26 3q17 2 26 5t22 8.5t20.5 13t15 18t10.5 24.5t3 32q0 82 -28.5 107t-89.5 25q-9 0 -27.5 -0.5t-28.5 -0.5v-238z" />
<glyph unicode="&#xdf;" horiz-adv-x="665" d="M348 25l17 71q20 -7 37 -7q61 0 61 88q0 95 -41.5 134.5t-131.5 39.5v61q62 0 92 29t30 90q0 43 -18 74.5t-57 31.5q-37 0 -55 -25.5t-18 -63.5v-416q0 -5 -0.5 -13.5t-0.5 -12.5q0 -29 10 -37.5t45 -8.5l-12 -60h-279v60q46 0 58 14t12 60v335q0 122 57 174 q72 65 193 65q52 0 99 -16t81 -53.5t37 -90.5q0 -52 -23.5 -92.5t-70.5 -53.5q75 -17 118.5 -71t43.5 -131q0 -80 -42.5 -143.5t-117.5 -63.5q-65 0 -124 32z" />
<glyph unicode="&#xe0;" horiz-adv-x="596" d="M596 113q-3 -65 -45 -100q-37 -31 -93 -31q-85 0 -139 60q-22 -30 -64 -47.5t-87 -17.5q-60 0 -101 32t-41 95q0 44 18 74.5t51.5 47t66 25t78 18t69.5 18.5v54q0 51 -59 51q-28 0 -41 -10.5t-16 -26t-6.5 -31t-18 -26t-43.5 -10.5q-22 1 -37 19.5t-15 42.5 q0 41 45.5 72.5t140.5 31.5q108 0 162.5 -34.5t54.5 -132.5v-207q0 -27 23 -27q30 0 33 60h64zM309 221l-29 -10q-23 -8 -34 -13.5t-27 -15.5t-23 -23.5t-7 -30.5q0 -29 19 -45.5t44 -16.5q24 0 40.5 15.5t16.5 43.5v96zM309 657l100 -114q6 -6 6 -23q0 -23 -23 -23 q-8 0 -19 3l-220 115q-7 3 -13 11.5t-6 15.5q0 17 32 17q33 -18 68 -18q29 0 75 16z" />
<glyph unicode="&#xe1;" horiz-adv-x="596" d="M248 657q39 -12 73 -12q36 0 70 14q31 0 31 -20q0 -15 -18 -24l-219 -115q-14 -6 -26 -6q-27 0 -27 18q0 12 16 31zM596 113q-3 -65 -45 -100q-37 -31 -93 -31q-85 0 -139 60q-22 -30 -64 -47.5t-87 -17.5q-60 0 -101 32t-41 95q0 44 18 74.5t51.5 47t66 25t78 18 t69.5 18.5v54q0 51 -59 51q-28 0 -41 -10.5t-16 -26t-6.5 -31t-18 -26t-43.5 -10.5q-22 1 -37 19.5t-15 42.5q0 41 45.5 72.5t140.5 31.5q108 0 162.5 -34.5t54.5 -132.5v-207q0 -27 23 -27q30 0 33 60h64zM309 221l-29 -10q-23 -8 -34 -13.5t-27 -15.5t-23 -23.5t-7 -30.5 q0 -29 19 -45.5t44 -16.5q24 0 40.5 15.5t16.5 43.5v96z" />
<glyph unicode="&#xe2;" horiz-adv-x="596" d="M298 673l128 -118q25 -23 25 -39q0 -10 -8 -18t-18 -8q-15 0 -26 7l-100 68l-98 -65q-16 -10 -29 -10q-11 0 -19 8t-8 19q0 12 20 30zM596 113q-3 -65 -45 -100q-37 -31 -93 -31q-85 0 -139 60q-22 -30 -64 -47.5t-87 -17.5q-60 0 -101 32t-41 95q0 44 18 74.5t51.5 47 t66 25t78 18t69.5 18.5v54q0 51 -59 51q-28 0 -41 -10.5t-16 -26t-6.5 -31t-18 -26t-43.5 -10.5q-22 1 -37 19.5t-15 42.5q0 41 45.5 72.5t140.5 31.5q108 0 162.5 -34.5t54.5 -132.5v-207q0 -27 23 -27q30 0 33 60h64zM309 221l-29 -10q-23 -8 -34 -13.5t-27 -15.5 t-23 -23.5t-7 -30.5q0 -29 19 -45.5t44 -16.5q24 0 40.5 15.5t16.5 43.5v96z" />
<glyph unicode="&#xe3;" horiz-adv-x="596" d="M446 648l44 -39q-58 -90 -123 -90q-27 0 -77.5 19.5t-76.5 19.5q-28 0 -57 -42l-51 34q21 41 58 72t78 31q27 0 75.5 -19t74.5 -19q27 0 55 33zM596 113q-3 -65 -45 -100q-37 -31 -93 -31q-85 0 -139 60q-22 -30 -64 -47.5t-87 -17.5q-60 0 -101 32t-41 95q0 44 18 74.5 t51.5 47t66 25t78 18t69.5 18.5v54q0 51 -59 51q-28 0 -41 -10.5t-16 -26t-6.5 -31t-18 -26t-43.5 -10.5q-22 1 -37 19.5t-15 42.5q0 41 45.5 72.5t140.5 31.5q108 0 162.5 -34.5t54.5 -132.5v-207q0 -27 23 -27q30 0 33 60h64zM309 221l-29 -10q-23 -8 -34 -13.5t-27 -15.5 t-23 -23.5t-7 -30.5q0 -29 19 -45.5t44 -16.5q24 0 40.5 15.5t16.5 43.5v96z" />
<glyph unicode="&#xe4;" horiz-adv-x="596" d="M596 113q-3 -65 -45 -100q-37 -31 -93 -31q-85 0 -139 60q-22 -30 -64 -47.5t-87 -17.5q-60 0 -101 32t-41 95q0 44 18 74.5t51.5 47t66 25t78 18t69.5 18.5v54q0 51 -59 51q-28 0 -41 -10.5t-16 -26t-6.5 -31t-18 -26t-43.5 -10.5q-22 1 -37 19.5t-15 42.5 q0 41 45.5 72.5t140.5 31.5q108 0 162.5 -34.5t54.5 -132.5v-207q0 -27 23 -27q30 0 33 60h64zM309 221l-29 -10q-23 -8 -34 -13.5t-27 -15.5t-23 -23.5t-7 -30.5q0 -29 19 -45.5t44 -16.5q24 0 40.5 15.5t16.5 43.5v96zM189 506q-31 0 -54.5 23t-23.5 55t23 55.5t55 23.5 t55.5 -23.5t23.5 -55.5t-23.5 -55t-55.5 -23zM406 506q-32 0 -55 23t-23 55t23 55.5t55 23.5t55 -23.5t23 -55.5t-23 -55t-55 -23z" />
<glyph unicode="&#xe5;" horiz-adv-x="596" d="M298 500q-46 0 -79 33t-33 79t33 78.5t79 32.5t78.5 -32.5t32.5 -78.5t-32.5 -79t-78.5 -33zM298 560q21 0 36 15.5t15 36.5t-15 36t-36 15t-36.5 -15t-15.5 -36t15.5 -36.5t36.5 -15.5zM596 113q-3 -65 -45 -100q-37 -31 -93 -31q-85 0 -139 60q-22 -30 -64 -47.5 t-87 -17.5q-60 0 -101 32t-41 95q0 44 18 74.5t51.5 47t66 25t78 18t69.5 18.5v54q0 51 -59 51q-28 0 -41 -10.5t-16 -26t-6.5 -31t-18 -26t-43.5 -10.5q-22 1 -37 19.5t-15 42.5q0 41 45.5 72.5t140.5 31.5q108 0 162.5 -34.5t54.5 -132.5v-207q0 -27 23 -27q30 0 33 60h64 zM309 221l-29 -10q-23 -8 -34 -13.5t-27 -15.5t-23 -23.5t-7 -30.5q0 -29 19 -45.5t44 -16.5q24 0 40.5 15.5t16.5 43.5v96z" />
<glyph unicode="&#xe6;" horiz-adv-x="814" d="M707 141l73 -25q-29 -69 -90 -103.5t-139 -34.5q-62 0 -107.5 17t-94.5 57q-11 -22 -75.5 -49t-125.5 -27q-57 0 -92.5 30.5t-35.5 98.5q0 30 9.5 53.5t29.5 40t39.5 28t51.5 20.5t52 13.5t55 10t48 8.5v42q0 70 -67 70q-31 0 -43.5 -16.5t-13 -37t-16 -37t-52.5 -16.5 q-25 0 -41.5 18t-16.5 44q0 44 49.5 78t151.5 34q109 0 153 -46q52 46 158 46q97 0 155 -72t58 -170h-308q0 -163 106 -163q83 0 129 88zM472 279h150q0 112 -72 112q-23 0 -38.5 -9.5t-23.5 -28t-11 -35t-5 -39.5zM316 102q-12 44 -12 87q0 20 1 30q-29 -9 -44 -15t-37 -18 t-32 -30.5t-10 -43.5q0 -44 61 -44q14 0 24.5 3t15.5 6t15.5 11.5t17.5 13.5z" />
<glyph unicode="&#xe7;" horiz-adv-x="544" d="M325 -20l-10 -36q80 -16 80 -82q0 -44 -32.5 -70t-76.5 -26q-58 0 -104 33l28 47q35 -23 57 -23t31 23q0 20 -16.5 36t-35.5 21l21 76q-105 10 -169.5 71.5t-64.5 164.5q0 114 75.5 178.5t191.5 64.5q31 0 63 -6.5t63.5 -20t51.5 -39t20 -59.5q0 -30 -23.5 -46t-54.5 -16 q-21 0 -34 16t-13 38q0 29 -20.5 48t-49.5 19q-31 0 -50.5 -17.5t-27.5 -49t-10 -54.5t-2 -55q0 -37 3 -61.5t13 -52.5t33.5 -42.5t59.5 -14.5q92 0 132 87l63 -23q-23 -59 -74 -91.5t-118 -37.5z" />
<glyph unicode="&#xe8;" horiz-adv-x="553" d="M449 140l74 -25q-72 -137 -231 -137q-116 0 -189 64.5t-73 179.5q0 109 76 172.5t188 63.5q109 0 168 -65t60 -175h-307q0 -35 3.5 -59.5t13.5 -50t33 -39t58 -13.5q81 0 126 84zM363 281q0 2 0.5 5.5t0.5 4.5q0 99 -71 99q-23 0 -38.5 -9t-23 -27.5t-10 -32.5t-5.5 -40 h147zM336 657l100 -114q6 -6 6 -23q0 -23 -23 -23q-9 0 -19 3l-220 115q-6 3 -12.5 11.5t-6.5 15.5q0 17 32 17q33 -18 68 -18q29 0 75 16z" />
<glyph unicode="&#xe9;" horiz-adv-x="553" d="M257 657q39 -12 73 -12q36 0 70 14q31 0 31 -20q0 -15 -18 -24l-219 -115q-14 -6 -26 -6q-27 0 -27 18q0 12 16 31zM449 140l74 -25q-72 -137 -231 -137q-116 0 -189 64.5t-73 179.5q0 109 76 172.5t188 63.5q109 0 168 -65t60 -175h-307q0 -35 3.5 -59.5t13.5 -50 t33 -39t58 -13.5q81 0 126 84zM363 281q0 2 0.5 5.5t0.5 4.5q0 99 -71 99q-23 0 -38.5 -9t-23 -27.5t-10 -32.5t-5.5 -40h147z" />
<glyph unicode="&#xea;" horiz-adv-x="553" d="M449 140l74 -25q-72 -137 -231 -137q-116 0 -189 64.5t-73 179.5q0 109 76 172.5t188 63.5q109 0 168 -65t60 -175h-307q0 -35 3.5 -59.5t13.5 -50t33 -39t58 -13.5q81 0 126 84zM363 281q0 2 0.5 5.5t0.5 4.5q0 99 -71 99q-23 0 -38.5 -9t-23 -27.5t-10 -32.5t-5.5 -40 h147zM277 673l128 -118q25 -23 25 -39q0 -10 -8 -18t-18 -8q-15 0 -26 7l-100 68l-98 -65q-16 -10 -29 -10q-11 0 -19 8t-8 19q0 12 20 30z" />
<glyph unicode="&#xeb;" horiz-adv-x="553" d="M449 140l74 -25q-72 -137 -231 -137q-116 0 -189 64.5t-73 179.5q0 109 76 172.5t188 63.5q109 0 168 -65t60 -175h-307q0 -35 3.5 -59.5t13.5 -50t33 -39t58 -13.5q81 0 126 84zM363 281q0 2 0.5 5.5t0.5 4.5q0 99 -71 99q-23 0 -38.5 -9t-23 -27.5t-10 -32.5t-5.5 -40 h147zM168 506q-32 0 -55 23t-23 55t23 55.5t55 23.5t55.5 -23.5t23.5 -55.5t-23.5 -55t-55.5 -23zM385 506q-32 0 -55 23t-23 55t23 55.5t55 23.5t55 -23.5t23 -55.5t-23 -55t-55 -23z" />
<glyph unicode="&#xec;" horiz-adv-x="370" d="M212 662l100 -114q6 -6 6 -23q0 -23 -23 -23q-9 0 -19 3l-220 115q-19 10 -19 27t32 17q33 -18 68 -18q29 0 75 16zM268 453v-340q0 -18 4.5 -29.5t15.5 -16.5t20.5 -6t26.5 -1h8v-60h-317v60q76 3 76 34v214q0 20 -4.5 31.5t-16.5 16t-22.5 5.5t-32.5 1v60q89 0 242 31z " />
<glyph unicode="&#xed;" horiz-adv-x="370" d="M122 657q39 -12 73 -12q36 0 70 14q31 0 31 -20q0 -15 -18 -24l-219 -115q-14 -6 -26 -6q-27 0 -27 18q0 12 16 31zM268 453v-340q0 -18 4.5 -29.5t15.5 -16.5t20.5 -6t26.5 -1h8v-60h-317v60q76 3 76 34v214q0 20 -4.5 31.5t-16.5 16t-22.5 5.5t-32.5 1v60q89 0 242 31z " />
<glyph unicode="&#xee;" horiz-adv-x="370" d="M184 673l128 -118q21 -25 21 -41q0 -19 -28 -19q-6 0 -20 2l-100 68l-98 -65q-17 -5 -25 -5q-26 0 -26 23q0 19 15 29zM268 453v-340q0 -18 4.5 -29.5t15.5 -16.5t20.5 -6t26.5 -1h8v-60h-317v60q76 3 76 34v214q0 20 -4.5 31.5t-16.5 16t-22.5 5.5t-32.5 1v60 q89 0 242 31z" />
<glyph unicode="&#xef;" horiz-adv-x="370" d="M76 507q-32 0 -55 23.5t-23 54.5q0 32 23 55.5t55 23.5t55.5 -23.5t23.5 -55.5t-23.5 -55t-55.5 -23zM293 507q-32 0 -55 23t-23 55t23 55.5t55 23.5t55 -23.5t23 -55.5t-23 -55t-55 -23zM268 453v-340q0 -18 4.5 -29.5t15.5 -16.5t20.5 -6t26.5 -1h8v-60h-317v60 q76 3 76 34v214q0 20 -4.5 31.5t-16.5 16t-22.5 5.5t-32.5 1v60q89 0 242 31z" />
<glyph unicode="&#xf0;" horiz-adv-x="609" d="M406 758l34 -55l-81 -52q107 -57 162.5 -165.5t55.5 -236.5q0 -124 -74 -197.5t-198 -73.5q-113 0 -192.5 64.5t-79.5 174.5q0 50 10 88.5t36.5 75t80.5 56.5t133 20q31 0 67 -3q-29 88 -90 131l-116 -73l-34 52l89 59q-43 19 -108 26l27 58q85 -2 157 -26zM391 221 q0 27 -0.5 42.5t-5 43t-13 43.5t-25.5 28.5t-42 12.5q-30 0 -50 -16.5t-27.5 -46t-10 -52.5t-2.5 -55q0 -34 2 -56t9.5 -54t27.5 -49t51 -17q24 0 41 11t25.5 25.5t13 40t5.5 43.5t1 46v10z" />
<glyph unicode="&#xf1;" horiz-adv-x="681" d="M489 649l44 -39q-58 -90 -123 -90q-27 0 -77.5 19.5t-76.5 19.5q-28 0 -57 -42l-51 34q21 41 58 72t78 31q27 0 75.5 -19t74.5 -19q28 0 55 33zM29 436h62q105 0 170 17q7 -35 9 -69q82 74 170 74q154 0 154 -155v-169q0 -50 13.5 -62t49.5 -12h7v-60h-297v60 q28 0 41.5 9.5t16 21t2.5 35.5v8v144q0 80 -62 80q-98 0 -98 -112v-112q0 -43 10.5 -58.5t50.5 -15.5v-60h-297v60q46 0 58 14t12 60v199q0 15 -6.5 24.5t-19 13t-22.5 4.5t-26 1z" />
<glyph unicode="&#xf2;" horiz-adv-x="609" d="M576 218q0 -110 -79 -175t-192 -65q-114 0 -193 64t-79 175t78.5 176t192.5 65q115 0 193.5 -64t78.5 -176zM392 221q0 27 -0.5 42.5t-5 43t-13 43.5t-25.5 28.5t-42 12.5q-30 0 -50 -16.5t-27.5 -46t-10 -52.5t-2.5 -55q0 -34 2 -56t9.5 -54t27.5 -49t51 -17 q29 0 48 15.5t26.5 44t9.5 50.5t2 54v12zM363 657l100 -114q6 -6 6 -23q0 -23 -23 -23q-8 0 -19 3l-220 115q-7 3 -13 11.5t-6 15.5q0 17 32 17q33 -18 68 -18q29 0 75 16z" />
<glyph unicode="&#xf3;" horiz-adv-x="609" d="M258 657q39 -12 73 -12q36 0 70 14q31 0 31 -20q0 -15 -18 -24l-219 -115q-14 -6 -26 -6q-27 0 -27 18q0 12 16 31zM576 218q0 -110 -79 -175t-192 -65q-114 0 -193 64t-79 175t78.5 176t192.5 65q115 0 193.5 -64t78.5 -176zM392 221q0 27 -0.5 42.5t-5 43t-13 43.5 t-25.5 28.5t-42 12.5q-30 0 -50 -16.5t-27.5 -46t-10 -52.5t-2.5 -55q0 -34 2 -56t9.5 -54t27.5 -49t51 -17q24 0 41 11t25.5 25.5t13 40t5.5 43.5t1 46v10z" />
<glyph unicode="&#xf4;" horiz-adv-x="609" d="M576 218q0 -110 -79 -175t-192 -65q-114 0 -193 64t-79 175t78.5 176t192.5 65q115 0 193.5 -64t78.5 -176zM392 221q0 27 -0.5 42.5t-5 43t-13 43.5t-25.5 28.5t-42 12.5q-30 0 -50 -16.5t-27.5 -46t-10 -52.5t-2.5 -55q0 -34 2 -56t9.5 -54t27.5 -49t51 -17 q29 0 48 15.5t26.5 44t9.5 50.5t2 54v12zM304 673l128 -118q21 -19 21 -40t-28 -21q-8 0 -20 3l-100 68l-98 -65q-20 -10 -34 -10q-23 0 -23 26q0 12 5.5 21.5t12.5 9.5h3z" />
<glyph unicode="&#xf5;" horiz-adv-x="609" d="M576 218q0 -110 -79 -175t-192 -65q-114 0 -193 64t-79 175t78.5 176t192.5 65q115 0 193.5 -64t78.5 -176zM392 221q0 27 -0.5 42.5t-5 43t-13 43.5t-25.5 28.5t-42 12.5q-30 0 -50 -16.5t-27.5 -46t-10 -52.5t-2.5 -55q0 -34 2 -56t9.5 -54t27.5 -49t51 -17q24 0 41 11 t25.5 25.5t13 40t5.5 43.5t1 46v10zM453 648l44 -39q-58 -90 -123 -90q-27 0 -77.5 19.5t-76.5 19.5q-28 0 -57 -42l-51 34q21 41 58 72t78 31q27 0 75.5 -19t74.5 -19q28 0 55 33z" />
<glyph unicode="&#xf6;" horiz-adv-x="609" d="M576 218q0 -110 -79 -175t-192 -65q-114 0 -193 64t-79 175t78.5 176t192.5 65q115 0 193.5 -64t78.5 -176zM392 221q0 27 -0.5 42.5t-5 43t-13 43.5t-25.5 28.5t-42 12.5q-30 0 -50 -16.5t-27.5 -46t-10 -52.5t-2.5 -55q0 -34 2 -56t9.5 -54t27.5 -49t51 -17 q29 0 48 15.5t26.5 44t9.5 50.5t2 54v12zM196 506q-32 0 -55 23t-23 55t23 55.5t55 23.5t55.5 -23.5t23.5 -55.5t-23.5 -55t-55.5 -23zM413 506q-32 0 -55 23t-23 55t23 55.5t55 23.5t55 -23.5t23 -55.5t-23 -55t-55 -23z" />
<glyph unicode="&#xf7;" d="M0 419h500v-94h-500v94zM250 604q28 0 48.5 -20t20.5 -48t-20.5 -48t-48.5 -20t-48 20t-20 48t20 48t48 20zM250 276q28 0 48 -20.5t20 -48.5t-20 -48t-48 -20t-48.5 20t-20.5 48q0 29 20.5 49t48.5 20z" />
<glyph unicode="&#xf8;" horiz-adv-x="613" d="M495 397q81 -65 81 -179q0 -110 -79.5 -175t-191.5 -65q-87 0 -158 40l-66 -71l-44 40l62 66q-66 62 -66 164q0 111 78.5 176t192.5 65q80 0 141 -29l70 76l43 -41zM390 285l-159 -186q21 -54 75 -54q29 0 48 15.5t26.5 44t9.5 50.5t2 54q0 13 -1 38t-1 38zM218 178 l152 179q-20 34 -64 34q-30 0 -50 -16.5t-27.5 -46t-10 -52.5t-2.5 -55q0 -7 1 -21.5t1 -21.5z" />
<glyph unicode="&#xf9;" horiz-adv-x="669" d="M642 61v-60q-131 0 -230 -13q-9 31 -11 68q-61 -66 -171 -77q-82 0 -120 41t-38 124v178q0 32 -12 43.5t-44 11.5v60h221v-259q0 -100 70 -100q45 0 68 29.5t23 75.5v143q0 34 -15.5 42.5t-54.5 8.5v60h236v-322q0 -19 4.5 -30.5t15.5 -16t20 -6t26 -1.5h12zM345 657 l100 -114q6 -6 6 -23q0 -23 -23 -23q-8 0 -19 3l-220 115q-7 3 -13 11.5t-6 15.5q0 17 32 17q33 -18 68 -18q29 0 75 16z" />
<glyph unicode="&#xfa;" horiz-adv-x="669" d="M254 657q39 -12 73 -12q36 0 70 14q31 0 31 -20q0 -15 -18 -24l-219 -115q-14 -6 -26 -6q-27 0 -27 18q0 12 16 31zM642 61v-60q-131 0 -230 -13q-9 31 -11 68q-61 -66 -171 -77q-82 0 -120 41t-38 124v178q0 32 -12 43.5t-44 11.5v60h221v-259q0 -100 70 -100 q45 0 68 29.5t23 75.5v143q0 34 -15.5 42.5t-54.5 8.5v60h236v-322q0 -19 4.5 -30.5t15.5 -16t20 -6t26 -1.5h12z" />
<glyph unicode="&#xfb;" horiz-adv-x="669" d="M642 61v-60q-131 0 -230 -13q-9 31 -11 68q-61 -66 -171 -77q-82 0 -120 41t-38 124v178q0 32 -12 43.5t-44 11.5v60h221v-259q0 -100 70 -100q45 0 68 29.5t23 75.5v143q0 34 -15.5 42.5t-54.5 8.5v60h236v-322q0 -19 4.5 -30.5t15.5 -16t20 -6t26 -1.5h12zM334 673 l128 -118q25 -23 25 -39q0 -10 -8 -18t-18 -8q-15 0 -26 7l-100 68l-98 -65q-16 -10 -29 -10q-11 0 -19 8t-8 19q0 12 20 30z" />
<glyph unicode="&#xfc;" horiz-adv-x="669" d="M642 61v-60q-131 0 -230 -13q-9 31 -11 68q-61 -66 -171 -77q-82 0 -120 41t-38 124v178q0 32 -12 43.5t-44 11.5v60h221v-259q0 -100 70 -100q45 0 68 29.5t23 75.5v143q0 34 -15.5 42.5t-54.5 8.5v60h236v-322q0 -19 4.5 -30.5t15.5 -16t20 -6t26 -1.5h12zM226 506 q-32 0 -55 23t-23 55t23 55.5t55 23.5t55.5 -23.5t23.5 -55.5t-23.5 -55t-55.5 -23zM443 506q-32 0 -55 23t-23 55t23 55.5t55 23.5t55 -23.5t23 -55.5t-23 -55t-55 -23z" />
<glyph unicode="&#xfd;" horiz-adv-x="608" d="M318 657q39 -12 73 -12q36 0 70 14q31 0 31 -20q0 -15 -18 -24l-219 -115q-14 -6 -26 -6q-27 0 -27 18q0 12 16 31zM595 437v-61q-33 0 -50.5 -8.5t-30.5 -33.5l-202 -419l-22 -45q-9 -17 -26.5 -44t-33 -42t-39 -26.5t-48.5 -11.5q-43 0 -63.5 23.5t-20.5 57.5 q0 39 19 67q41 -46 70 -46q18 0 34.5 8.5t27.5 18.5t24 31t18.5 32t17 36t13.5 30l-199 337q-14 23 -27 29t-43 6v61h312v-61q-57 0 -57 -25q0 -8 7 -19l88 -154l73 164q6 12 6 19q0 9 -11.5 12t-40.5 3v61h204z" />
<glyph unicode="&#xfe;" horiz-adv-x="662" d="M268 700v-315q51 74 154 74q97 0 152 -66t55 -166q0 -108 -58.5 -178t-165.5 -70q-95 0 -137 57v-157q0 -44 11.5 -59t52.5 -15v-60h-294v60q41 0 52.5 15t11.5 59v664q0 43 -14.5 54.5t-49.5 11.5h-11v60q115 0 241 31zM268 251v-66q0 -60 19 -94.5t74 -34.5 q87 0 87 154q0 31 -2.5 52t-10.5 47t-27 40t-49 14q-45 0 -68 -33t-23 -79z" />
<glyph unicode="&#xff;" horiz-adv-x="608" d="M196 507q-32 0 -55 23.5t-23 54.5q0 32 23 55.5t55 23.5t55.5 -23.5t23.5 -55.5t-23.5 -55t-55.5 -23zM413 507q-32 0 -55 23t-23 55t23 55.5t55 23.5t55 -23.5t23 -55.5t-23 -55t-55 -23zM595 437v-61q-33 0 -50.5 -8.5t-30.5 -33.5l-202 -419l-22 -45q-9 -17 -26.5 -44 t-33 -42t-39 -26.5t-48.5 -11.5q-43 0 -63.5 23.5t-20.5 57.5q0 39 19 67q41 -46 70 -46q18 0 34.5 8.5t27.5 18.5t24 31t18.5 32t17 36t13.5 30l-199 337q-14 23 -27 29t-43 6v61h312v-61q-57 0 -57 -25q0 -8 7 -19l88 -154l73 164q6 12 6 19q0 9 -11.5 12t-40.5 3v61h204z " />
<glyph unicode="&#x152;" horiz-adv-x="1093" d="M1006 667l19 -182h-64q-8 54 -33 84.5t-76 30.5h-167v-230h65q80 0 85 89h57v-250h-57q-1 50 -18.5 74t-65.5 24h-66v-156q0 -51 27.5 -68.5t79.5 -17.5q111 0 155 27t53 117h52v-209h-633q-165 0 -272 86.5t-107 247.5q0 156 102 244.5t260 88.5h604zM504 595 q-29 18 -90 18q-53 0 -91.5 -25.5t-58 -68t-28.5 -88t-9 -95.5q0 -54 9.5 -99t30.5 -85.5t61.5 -63.5t97.5 -23q78 0 78 80v450z" />
<glyph unicode="&#x153;" horiz-adv-x="920" d="M815 143l72 -28q-78 -132 -224 -132q-111 0 -180 48q-77 -53 -186 -53q-111 0 -187.5 64t-76.5 173q0 114 75.5 178.5t192.5 64.5q111 0 175 -55q66 55 179 55q108 0 169 -64t63 -173h-309q0 -35 4 -60t15 -51t34.5 -39.5t59.5 -13.5q39 0 72 24t52 62zM726 284 q0 107 -71 107q-76 0 -76 -107h147zM391 227q0 164 -87 164q-88 0 -88 -175q0 -25 1 -42.5t5.5 -44t13.5 -43t26.5 -29t41.5 -12.5q30 0 49 15t26.5 45t9.5 52.5t2 59.5v10z" />
<glyph unicode="&#x178;" horiz-adv-x="751" d="M280 730q-32 0 -55 23t-23 55t23 55.5t55 23.5t55.5 -23.5t23.5 -55.5t-23.5 -55t-55.5 -23zM497 730q-32 0 -55 23t-23 55t23 55.5t55 23.5t55 -23.5t23 -55.5t-23 -55t-55 -23zM738 667v-67q-91 0 -116 -48l-158 -264v-122q0 -67 16.5 -83t83.5 -16v-67h-385v67 q67 0 83.5 16t16.5 83v122l-156 254q-22 35 -44.5 46.5t-65.5 11.5v67h375v-67q-71 0 -71 -18v-8q0 -12 7 -24l106 -186l108 184q3 6 3 26q0 26 -70 26v67h267z" />
<glyph unicode="&#x2c6;" d="M251 673l128 -118q25 -18 25 -37q0 -12 -10 -20t-23 -8q-12 0 -19 7l-100 68l-98 -65q-8 -5 -26 -5q-27 0 -27 17q0 14 17 35z" />
<glyph unicode="&#x2dc;" d="M398 648l44 -39q-58 -90 -123 -90q-27 0 -77.5 19.5t-76.5 19.5q-28 0 -57 -42l-51 34q21 41 58 72t78 31q27 0 75.5 -19t74.5 -19q27 0 55 33z" />
<glyph unicode="&#x2000;" horiz-adv-x="462" />
<glyph unicode="&#x2001;" horiz-adv-x="925" />
<glyph unicode="&#x2002;" horiz-adv-x="462" />
<glyph unicode="&#x2003;" horiz-adv-x="925" />
<glyph unicode="&#x2004;" horiz-adv-x="308" />
<glyph unicode="&#x2005;" horiz-adv-x="231" />
<glyph unicode="&#x2006;" horiz-adv-x="154" />
<glyph unicode="&#x2007;" horiz-adv-x="154" />
<glyph unicode="&#x2008;" horiz-adv-x="115" />
<glyph unicode="&#x2009;" horiz-adv-x="185" />
<glyph unicode="&#x200a;" horiz-adv-x="51" />
<glyph unicode="&#x2010;" horiz-adv-x="418" d="M78 188v80h262v-80h-262z" />
<glyph unicode="&#x2011;" horiz-adv-x="418" d="M78 188v80h262v-80h-262z" />
<glyph unicode="&#x2013;" d="M78 188v80h344v-80h-344z" />
<glyph unicode="&#x2014;" horiz-adv-x="1000" d="M78 188v80h844v-80h-844z" />
<glyph unicode="&#x2018;" horiz-adv-x="389" d="M290 660q-24 -10 -68.5 -53.5t-44.5 -84.5q0 -10 2 -15q21 8 45 8q38 0 65 -22.5t27 -69.5q0 -45 -30 -72t-75 -27q-56 0 -90 43.5t-34 101.5q0 83 51.5 138.5t136.5 85.5z" />
<glyph unicode="&#x2019;" horiz-adv-x="342" d="M86 350q24 10 68.5 53.5t44.5 83.5q0 6 -2 16q-29 -9 -53 -9q-84 0 -84 93q0 45 30 72t75 27q56 0 90 -43.5t34 -101.5q0 -83 -51.5 -138.5t-136.5 -85.5z" />
<glyph unicode="&#x201a;" horiz-adv-x="365" d="M106 -168l-16 29q74 27 98 47.5t24 51.5q0 10 -4 48q-16 -8 -38 -8q-39 0 -68 25.5t-29 68.5q0 41 30 67.5t71 26.5q58 0 91 -42t33 -102q0 -83 -54 -139.5t-138 -72.5z" />
<glyph unicode="&#x201c;" horiz-adv-x="595" d="M250 660q-24 -10 -68.5 -53.5t-44.5 -84.5q0 -10 2 -15q21 8 45 8q38 0 65 -22.5t27 -69.5q0 -45 -30 -72t-75 -27q-56 0 -90 43.5t-34 101.5q0 83 51.5 138.5t136.5 85.5zM523 660q-25 -10 -69.5 -53.5t-44.5 -84.5q0 -10 2 -15q21 8 45 8q38 0 65 -22.5t27 -69.5 q0 -45 -30 -72t-75 -27q-56 0 -90 43.5t-34 101.5q0 83 51.5 138.5t136.5 85.5z" />
<glyph unicode="&#x201d;" horiz-adv-x="635" d="M93 350q24 10 68.5 53.5t44.5 83.5q0 6 -2 16q-29 -9 -53 -9q-84 0 -84 93q0 45 30 72t75 27q56 0 90 -43.5t34 -101.5q0 -83 -51.5 -138.5t-136.5 -85.5zM365 350q30 13 71.5 55t41.5 82q0 6 -2 16q-29 -9 -53 -9q-84 0 -84 93q0 45 30 72t75 27q56 0 90 -43.5 t34 -101.5q0 -83 -51.5 -138.5t-136.5 -85.5z" />
<glyph unicode="&#x201e;" horiz-adv-x="621" d="M86 -145q24 10 68.5 53.5t44.5 83.5q0 6 -2 16q-29 -9 -53 -9q-84 0 -84 93q0 45 30 72t75 27q56 0 90 -43.5t34 -101.5q0 -83 -51.5 -138.5t-136.5 -85.5zM358 -145q30 13 71.5 55t41.5 82q0 6 -2 16q-29 -9 -53 -9q-84 0 -84 93q0 45 30 72t75 27q56 0 90 -43.5 t34 -101.5q0 -83 -51.5 -138.5t-136.5 -85.5z" />
<glyph unicode="&#x2022;" horiz-adv-x="359" d="M178 428q54 0 94 -40t40 -96t-40 -96t-94 -40t-94 40t-40 96t40 96t94 40z" />
<glyph unicode="&#x2026;" horiz-adv-x="1089" d="M181 -17q-39 0 -67 28t-28 67t28 67t67 28t67 -28t28 -67t-28 -67t-67 -28zM544 -17q-39 0 -67 28t-28 67t28 67t67 28t67 -28t28 -67t-28 -67t-67 -28zM907 -17q-39 0 -67 28t-28 67t28 67t67 28t67 -28t28 -67t-28 -67t-67 -28z" />
<glyph unicode="&#x202f;" horiz-adv-x="185" />
<glyph unicode="&#x2039;" horiz-adv-x="347" d="M33 228l161 172q30 30 52 30q20 0 20 -25q0 -9 -3 -19l-60 -158l56 -152q8 -20 8 -34q0 -20 -16 -20q-17 0 -45 19z" />
<glyph unicode="&#x203a;" horiz-adv-x="347" d="M315 228l-172 -187q-15 -12 -30 -12q-13 0 -20.5 8t-7.5 21q0 10 4 18l57 152l-60 158q-2 3 -2 11q0 12 8.5 20.5t20.5 8.5q20 0 41 -26z" />
<glyph unicode="&#x205f;" horiz-adv-x="231" />
<glyph unicode="&#x20ac;" horiz-adv-x="560" d="M49 401h41q18 127 84 204.5t137 77.5q31 0 72.5 -17.5t50.5 -17.5q19 0 26 31l61 3v-204l-56 2q-19 56 -52.5 105.5t-75.5 49.5t-80 -55t-48 -179h220l-44 -60h-181v-42h158l-40 -60h-113q8 -87 54 -150.5t74 -63.5q17 0 34.5 19t30.5 42t35.5 42t49.5 19q26 0 50 -25v-2 q0 -75 -63 -98q-77 -41 -133 -41q-79 0 -167 74q-62 68 -82 184h-84l41 60h36v42h-77z" />
<glyph unicode="&#x2122;" horiz-adv-x="701" d="M297 604h-38q-12 43 -44 43h-25v-168q0 -13 5.5 -16t20.5 -3h11v-26h-145v26h10q10 0 14.5 1t8 5t3.5 13v168h-24q-16 0 -24 -10.5t-14 -32.5h-40l9 70h262zM654 434h-146v26h11q15 0 19 2.5t4 14.5v8v78l-59 -129h-34l-65 135v-67q0 -17 1.5 -24t10 -12.5t27.5 -5.5v-26 h-123v26q23 0 29.5 7t6.5 27v138q0 16 -30 16h-6v26h106l71 -153l70 153h107v-26q-12 0 -16.5 -0.5t-10 -2.5t-7.5 -5.5t-2 -10.5v-153q0 -8 2.5 -11.5t5 -4t7.5 -0.5h21v-26z" />
</font>
</defs>
</svg>
