<?xml version="1.0" standalone="no"?>
<!DOCTYPE svg PUBLIC "-//W3C//DTD SVG 1.1//EN" "http://www.w3.org/Graphics/SVG/1.1/DTD/svg11.dtd" >
<svg xmlns="http://www.w3.org/2000/svg">
<metadata>
This is a custom SVG webfont generated by Font Squirrel.
Designer    : Ethan Dunham
Foundry     : Fonthead Design Inc
Foundry URL : httpwwwfontheadcom
</metadata>
<defs>
<font id="webfontxcBn4PIB" horiz-adv-x="436" >
<font-face units-per-em="1000" ascent="750" descent="-250" />
<missing-glyph horiz-adv-x="275" />
<glyph unicode=" "  horiz-adv-x="275" />
<glyph unicode="&#x09;" horiz-adv-x="275" />
<glyph unicode="&#xa0;" horiz-adv-x="275" />
<glyph unicode="!" horiz-adv-x="250" d="M151 743q11 5 31 5h7q25 -1 33 -13q8 -10 8 -30q0 -13 -3 -25q-3 -13 -7.5 -30.5t-5.5 -25.5q-4 -29 -13.5 -109.5t-15.5 -123.5q-13 -86 -26 -103q-11 -15 -35 -26q-16 -7 -33 -7q-8 0 -15 2q-25 5 -31 30q-2 15 -2 26q0 9 1 15q3 14 12 48t12 52q23 139 23 142 q2 15 3.5 42t3.5 44t7 36.5t16.5 32t29.5 18.5zM80 99q8 2 15 2q27 0 41 -21q7 -11 7 -24q0 -16 -11 -33q-14 -21 -44 -27q-8 -1 -16 -1q-21 0 -38 11q-24 13 -24 40q0 19 12 30t24 15t34 8z" />
<glyph unicode="&#x22;" horiz-adv-x="381" d="M117 693h5q5 0 10 -1q7 -2 11 -7.5t7.5 -11.5t5 -16t2.5 -18t0.5 -20.5t-0.5 -20.5t-1 -20.5t-1 -18.5q-7 -140 -22 -172q-13 -30 -48 -41q-9 -3 -17 -3q-23 0 -36 24q-4 20 -4 33q0 10 5 51q4 36 5 47q9 118 20 158q9 29 58 37zM249 655q14 32 53 32q13 0 28 -3 q18 -16 20 -57v-20q0 -29 -4 -55q-9 -112 -17 -159q-4 -30 -34 -47q-14 -8 -28 -8q-17 0 -35 11q-7 5 -10 20q-3 13 -3 32q0 3 1 6q0 23 1.5 43.5t4 49t3.5 41.5q8 88 20 114z" />
<glyph unicode="#" horiz-adv-x="696" d="M141 259q-12 4 -47.5 6t-55.5 15q-22 13 -22 48q0 31 24 40q25 10 67 10h5q3 -1 6 -1q40 0 58 6q24 7 24 61q-11 10 -52 11.5t-44 2.5q-17 4 -26 26q-6 15 -6 32q0 7 1 15q4 29 41 35q21 4 44 4q16 0 33 -2q28 -3 40 -3q4 0 6 1q7 4 29 51.5t30 58.5q14 18 40 18 q14 0 32 -5q13 -4 18.5 -14t3.5 -25.5t-5 -28.5t-9 -31.5t-8 -26.5q5 -12 35 -15h18q16 0 25 3q18 17 36.5 63t36.5 59q17 16 50 16q1 0 2 -1q34 0 40 -26q1 -4 1 -8q0 -21 -20 -52q-21 -33 -21 -51q0 -3 1 -6q3 -13 20 -17q15 -5 32 -5q2 0 4 1h2q17 0 32 -8q16 -7 17 -27 v-8q0 -50 -45 -54h-5q-14 0 -43 4q-18 2 -29 2.5t-16 -2.5q-12 -3 -26 -34q-7 -16 -7 -25t6 -11q23 -10 59.5 -12.5t50.5 -10.5q11 -6 11 -25q0 -5 -1 -11q-3 -26 -14 -37.5t-42 -16.5q-16 -2 -41 -2q-23 0 -54 2q-14 1 -21.5 -14t-9 -34.5t-5 -39.5t-9.5 -26 q-11 -12 -34 -18q-10 -2 -20 -2q-12 0 -24 4q-21 6 -26 28q-1 5 -1 11q0 18 9 45q11 28 11 38q0 3 -1 4q-3 13 -31 21q-11 3 -21 3q-15 0 -27 -7q-2 -1 -18 -53.5t-38 -67.5q-15 -12 -38 -12h-11q-31 4 -41 29q-3 8 -3 18q0 15 6 33q12 32 11 51zM331 442q-14 -20 -14 -39 q0 -9 3 -18q14 -15 65 -15q25 18 25 63v7q-14 12 -40 14h-6q-22 0 -33 -12z" />
<glyph unicode="$" horiz-adv-x="548" d="M354 527q-7 -3 -9.5 -21.5t-3 -45.5t-2.5 -38q7 -7 48 -21t53 -22q68 -41 77 -96q4 -28 4 -52q0 -53 -20 -85q-29 -47 -105 -82q-8 -4 -34 -9t-34 -9q-9 -4 -14 -31t-11 -35q-11 -18 -41 -18q-13 0 -31 4t-19.5 36t-12.5 38q-27 14 -78 21q-86 13 -86 58q0 16 10 36 q3 5 6.5 9t6.5 6.5t8 3.5t8.5 1.5t10 0t10 -1t11.5 -2.5l10 -4l11 -4l11 -3q33 -11 52 -11q15 0 22 7q4 4 6.5 33.5t5 70.5t4.5 58q-51 6 -99 27q-86 38 -86 121v11q4 81 52 128q18 21 77 39t66 22q7 6 10.5 36t12.5 40q14 14 37 15h3q22 0 37 -14q14 -13 14 -42 q0 -1 -0.5 -4t-0.5 -7q0 -24 3 -38q2 -5 7.5 -9t15.5 -7.5t17 -5.5t21.5 -5t18.5 -4q50 -13 75 -35q7 -6 7 -24.5t-9 -37.5q-6 -12 -25 -19q-14 -5 -28 -5q-6 0 -12 1q-9 1 -22 4l-23 7q-11 3 -21 7l-16 5zM147 487q4 -22 35 -41q23 -14 40 -14q6 0 11 1q5 16 9 59 q1 20 1 34q0 16 -2 23q-7 1 -15 1q-28 0 -53 -15q-27 -16 -27 -39q0 -4 1 -9zM337 306q-7 -30 -10 -74q-3 -33 -3 -56q0 -19 2 -32q63 7 77 60q4 13 4 25q0 30 -21 54q-20 23 -49 23z" />
<glyph unicode="%" horiz-adv-x="787" d="M527 641q11 2 20 2q31 0 38 -23q1 -17 0.5 -28t-11 -35t-17.5 -37l-19 -34q-12 -21 -15 -27q-12 -23 -113 -240q-1 -2 -15.5 -35t-21.5 -46.5t-23 -33.5t-32 -27q-18 -8 -34 -8q-12 0 -24 5q-28 12 -28 46q0 14 7 32q8 20 21.5 42.5t17.5 31.5q35 72 60 129 q49 107 103 206q2 3 8.5 15t8.5 15t7.5 12t8.5 11.5t9.5 8.5t12 8.5t14 5t17.5 4.5zM160 632q8 1 16 1q41 0 82 -29q51 -34 62 -76q4 -15 4 -30q0 -26 -12 -52q-19 -42 -57 -66t-88 -28h-9q-46 0 -93 33q-33 22 -40 81q-2 14 -2 27q0 41 17 68q13 24 48.5 45t71.5 26z M217 480v6q0 20 -16 32q-13 9 -28 9q-8 0 -16 -2q-21 -15 -21 -32q0 -12 10 -24q16 -20 38 -20q4 0 8 1q22 3 25 30zM620 331q5 1 10 1q40 0 85 -45q39 -39 39 -87q0 -13 -3 -27q-4 -22 -28 -49t-49 -41q-32 -18 -79 -25q-18 -3 -35 -3q-26 0 -49 7q-37 14 -49 70 q-3 19 -3 37q0 35 15 68q16 33 59.5 61t86.5 33zM645 195q0 31 -24 31q-3 0 -7 -1q-29 -5 -47 -30q-7 -10 -7 -18q0 -15 21 -23q11 -4 20 -4q13 0 25 7q19 12 19 38z" />
<glyph unicode="&#x26;" horiz-adv-x="653" d="M297 676q20 5 40 5q23 0 45 -7q40 -11 59 -44q16 -26 16 -58q0 -24 -9 -51q-13 -42 -66 -109q-8 -11 -22 -24l-22 -20q-9 -8 -9 -12q0 -5 21 -40t34 -48l12 -12q13 -13 20.5 -19t20 -13t21.5 -6q5 0 19 26l31 62q17 34 25 46q18 23 40 23q1 0 1 -1q23 0 39 -17 q7 -8 9 -19t-2 -25t-8 -24t-12 -25l-9 -20l-8 -16q-6 -13 -9 -20.5t-5.5 -18t-0.5 -18.5q4 -15 28.5 -29.5t29.5 -29.5q3 -9 3 -17q0 -17 -12 -33q-18 -23 -51 -25h-2q-25 0 -52 20q-29 21 -44 21q-14 0 -55.5 -17.5t-49.5 -19.5q-92 -30 -158 -30q-59 0 -98 23 q-40 23 -63 88q-13 38 -13 72q0 24 7 47q17 55 79 105q12 10 27 17t24 10.5t10 6.5q3 8 3 21q0 19 -7 47q-10 46 -10 60q0 41 26 93q13 23 43 44.5t64 30.5zM271 444q12 -5 28 5t29.5 29.5t21.5 40.5q5 13 5 25q0 7 -2 14q-5 19 -25 26q-4 1 -9 1q-13 0 -27 -13 q-17 -19 -26 -45q-10 -25 -10 -49q0 -28 15 -34zM283 226q-3 4 -12 20l-15 24q-6 10 -16 19q-9 8 -16 8h-2q-24 -1 -53 -35.5t-27 -57.5q1 -35 25 -58t62 -27q7 -1 14 -1q22 0 47 7q32 9 53 26q-49 59 -60 75z" />
<glyph unicode="'" horiz-adv-x="184" d="M108 703h3q41 0 41 -133q0 -22 -1 -47q0 -10 -1 -35t-1.5 -40t-3 -34.5t-6.5 -33.5q-8 -26 -28.5 -40t-35.5 -14q-13 0 -27 10.5t-17 27.5q-1 11 -1 23v12q1 18 4 50t3 36q11 134 20 177q4 21 16 30t35 11z" />
<glyph unicode="(" horiz-adv-x="318" d="M236 723q6 1 11 1q20 0 34 -12q18 -16 20 -36q-13 -26 -61 -78.5t-60 -93.5q-30 -75 -30 -184v-23q4 -124 50 -192q4 -6 18.5 -22.5t21 -30t5.5 -29.5q-2 -22 -26 -33q-16 -7 -36 -7q-9 0 -19 2q-14 5 -26.5 15t-21 18t-19.5 25t-15 24l-15 27l-13 25q-20 51 -23 121 q-1 18 -1 35q0 52 7 101q9 64 26 119q45 177 173 228z" />
<glyph unicode=")" horiz-adv-x="310" d="M92 762h7q31 0 65 -29q39 -33 60 -71q48 -87 54 -224q1 -18 1 -36q0 -116 -33 -215q-16 -47 -50 -114t-60 -87q-13 -11 -35 -11h-4q-25 1 -38 14q-12 11 -13 27q-1 2 -1 5q0 13 7 27q7 17 15 30t18.5 27t11.5 16q32 54 51 135q18 72 18 151v21q-3 91 -35 153 q-10 24 -47 58.5t-45 66.5q0 49 53 56z" />
<glyph unicode="*" horiz-adv-x="574" d="M345 560h1q7 0 24 17l42 41q24 22 39 27q7 2 13 2q18 0 36 -19q24 -25 27 -51q2 -27 -24.5 -46.5t-58 -37.5t-37.5 -37q7 -15 32 -27.5t50.5 -20t47 -22.5t23.5 -36q1 -29 -11 -52q-11 -22 -33 -22h-4q-35 2 -85.5 28.5t-62.5 29.5v-7q0 -16 6 -52q4 -29 4 -48 q0 -11 -1 -18q-5 -25 -33 -35q-12 -4 -24 -4q-17 0 -34 8q-19 9 -25.5 36t-8 60t-8.5 47q-12 -4 -29 -23.5t-31.5 -38t-37.5 -30.5q-15 -8 -32 -8q-8 0 -17 2q-18 4 -31 25q-11 16 -11 34q0 6 1 11q8 25 63 64t63 65q-1 4 -24 12.5t-56.5 22.5t-53.5 29q-15 14 -15 36 q0 25 19 50q17 23 39 23q30 -1 72.5 -27t60.5 -30q8 4 8 29q0 15 -2 36q-4 30 -4 47t3 22q12 20 53 24q6 1 12 1q31 0 46 -17q8 -8 8 -40q0 -9 -1 -21q-1 -19 -1 -32q0 -21 3 -27z" />
<glyph unicode="+" horiz-adv-x="444" d="M300 312q18 -1 41 -1t44 1h2q20 0 33 -12q15 -12 15 -38q0 -44 -37 -57q-13 -5 -41 -7h-31h-19l-22 1q1 -13 1 -25q0 -60 -13 -89q-16 -33 -64 -35q-22 0 -34.5 7.5t-16.5 24.5q-3 15 -3 28q0 14 4 46q3 27 3 42q-8 1 -62 1t-65 8q-11 4 -14 12t-5 29q-1 6 -1 12 q0 17 7 29q9 16 26 21.5t38 8.5q15 2 30 2q7 0 14 -1h20q12 0 24 1q5 17 7.5 51t6.5 49q10 37 58 38q14 0 32 -11.5t21 -26.5q3 -9 3 -31v-26q-2 -30 -2 -44v-8z" />
<glyph unicode="," horiz-adv-x="227" d="M135 134h4q26 0 37 -24q10 -21 10 -48v-16q-4 -37 -12.5 -71.5t-18.5 -50.5q-19 -29 -46 -54t-50 -25q-16 0 -29.5 8.5t-15.5 23.5q1 20 32 57.5t30 64.5q1 8 1 18q0 14 -1 33q-1 9 -1 17q0 18 4 23q14 39 56 44z" />
<glyph unicode="-" horiz-adv-x="521" d="M83 321q20 3 176 3q13 0 61 2h42.5h33.5q29 -2 47 -7q26 -8 37 -37q6 -13 6 -28q0 -14 -6 -29q-4 -9 -17.5 -15.5t-38 -9.5t-40.5 -4t-48.5 -1.5t-38.5 -0.5q-59 -2 -104 -2q-104 0 -129 10q-18 6 -28 26t-9 44q0 43 56 49z" />
<glyph unicode="." horiz-adv-x="222" d="M137 154q27 -14 36 -44q5 -16 5 -32q0 -14 -4 -28q-8 -30 -30.5 -53t-51.5 -24h-3l-45 14q-24 15 -25 38v5q0 42 31 88q26 38 66 38q10 0 21 -2z" />
<glyph unicode="/" horiz-adv-x="452" d="M363 693q11 2 21 2q16 0 30 -5q26 -8 30 -26v-5q0 -9 -4 -19q-6 -15 -18 -34l-14 -23q-56 -101 -148 -291l-127 -260q-18 -22 -47 -32q-12 -4 -22 -4q-17 0 -30 10q-19 13 -19 46q0 7 1 15q130 287 229 463q6 10 22.5 43t28.5 54t31 41.5t36 24.5z" />
<glyph unicode="0" horiz-adv-x="573" d="M272 617q12 2 23 2q34 0 66 -16q43 -21 68 -50t42 -62q14 -26 20 -67q5 -31 4 -66v-24q-2 -48 -17 -98.5t-39.5 -93.5t-66.5 -76t-96 -44q-21 -5 -42 -5q-70 0 -151 47q-31 18 -45 63q-13 42 -13 81v6q1 41 9 75q26 295 238 328zM172 413q-27 -46 -32 -125q-2 -19 -2 -36 q0 -51 13 -75q12 -23 49 -37q25 -11 47 -11q9 0 17 2q43 9 73.5 56t40.5 101q6 35 6 65q0 18 -2 35q-4 31 -40 69q-34 37 -68 37h-2q-27 -1 -55.5 -27t-44.5 -54z" />
<glyph unicode="1" horiz-adv-x="287" d="M134 624q11 6 27 6q8 0 19 -2q28 -5 38 -29q3 -14 3 -25q0 -5 -1 -10q-2 -14 -9 -45t-9 -44q-6 -45 -14 -146.5t-13 -140.5q-2 -11 -3 -66.5t-10 -74.5q-9 -18 -33 -33q-20 -12 -37 -12h-6q-12 2 -20.5 9t-11.5 21t-4 24q-1 4 -1 10q0 8 1 21q3 20 4.5 27t4.5 26 q12 67 21.5 187t13.5 151q1 11 2 33l3 37q1 15 4.5 32t11 28t19.5 16z" />
<glyph unicode="2" horiz-adv-x="468" d="M205 151q9 -3 30 -3q31 0 87 6q32 3 55 3q46 0 56 -13q9 -11 9 -30q0 -12 -4 -27q-10 -38 -35 -46q-49 -8 -160 -8q-51 0 -114 2q-29 1 -49 11q-22 11 -22 30q0 16 6 34q7 22 16 36.5t23 34.5t17 26q16 27 40 62l40 63q18 28 34 63q3 7 11.5 21.5t13.5 25t10 24.5t5 28 t-6 27q-4 8 -8.5 13t-10.5 6t-12 0.5t-13.5 -4.5t-13.5 -7.5t-14 -10.5l-13 -10q-5 -4 -12 -10.5t-10 -8.5q-10 -8 -28.5 -30t-35 -35t-33.5 -14h-3q-22 0 -33.5 14t-11.5 35q0 32 50 83q50 49 87 69q24 21 69 28q15 2 30 2q30 0 60 -9q44 -15 57 -53q4 -25 4 -49 q0 -43 -13 -83q-22 -63 -67 -139l-39 -63q-37 -58 -49 -94z" />
<glyph unicode="3" horiz-adv-x="483" d="M259 661q10 1 21 1q46 0 96 -24q63 -30 68 -79q2 -8 2 -18q0 -34 -36 -79q-46 -55 -73 -64q10 -4 24.5 -11t42 -30.5t34.5 -48.5q8 -28 8 -54q0 -33 -12 -63q-22 -55 -60 -93q-26 -26 -69.5 -49t-87.5 -29q-44 -8 -76 -8q-80 0 -86 48v6q0 18 9 32q11 17 30 24h24h26 q6 0 22.5 0.5t25 2.5t22.5 5t24 7.5t22.5 11.5t23.5 16q55 46 55 92q0 7 -1 13q-5 30 -36 43t-65.5 13.5t-63 10.5t-29.5 35q-1 13 1.5 23.5t5 17t12 13t13.5 9t19.5 9.5t21.5 10q110 55 110 87q0 26 -49 27q-6 1 -11 1q-35 0 -50 -9q-20 -6 -63.5 -32t-56.5 -31 q-10 -2 -19 -2q-16 0 -29 6q-21 9 -25 25q0 9 -1 15.5t-1 7.5q0 6 4 12q5 8 8.5 12.5t11.5 10.5l13 10l14 8t13 8q71 39 173 51z" />
<glyph unicode="4" horiz-adv-x="500" d="M260 17q-5 18 -5 42q0 27 6 63q10 57 10 85v9q-23 11 -65 11q-16 0 -36 -2q-16 -1 -30 -1q-100 0 -118 54q-2 7 -3 16q-1 5 -1 10.5t1 11.5q1 12 2.5 21.5t5 24t5 21.5t5.5 22.5t5 17.5q27 102 34 131q2 9 5.5 29t6.5 30t9 22.5t17 19t27 7.5h4q21 0 36 -9q17 -10 20 -29 q1 -5 1 -10q0 -42 -31 -144q-30 -103 -30 -124q0 -3 1 -4q7 -7 68.5 -7t88.5 3q23 61 41 157l6 39q4 26 6.5 40t8.5 34t12.5 30.5t18.5 19t28 8.5h10q26 0 38 -8q10 -8 10 -30q0 -8 -1 -18q-6 -40 -57 -284q-8 -36 -19 -106l-19 -123q-9 -54 -14 -65q-13 -24 -48 -30 q-8 -1 -15 -1q-26 0 -45 16z" />
<glyph unicode="5" horiz-adv-x="474" d="M161 403q9 -1 34 -2t47 -3t40 -7q70 -13 118 -55q40 -36 40 -88q0 -11 -2 -23q-18 -85 -84.5 -147t-150.5 -74q-23 -3 -46 -3q-37 0 -71 9q-53 13 -59 46q-1 7 -1 13q0 16 6 34q10 25 32 30q5 1 10 1q20 0 48 -10q38 -14 52 -14q53 3 92.5 30t49.5 73q-2 35 -29 54 t-63 19q-5 1 -10 1q-30 0 -62 -3q-36 -6 -55 -6q-12 0 -18 2q-23 9 -31 46v8q0 50 12 143q12 100 14 130q1 26 21.5 43t47.5 18q11 1 32.5 2.5t31 2t27.5 0.5t37.5 -1t46.5 -4q10 -1 32 -2t35.5 -2t29 -5t24.5 -12.5t11 -21.5q1 -8 1 -16q0 -21 -10 -37q-14 -22 -38 -24h-11 q-24 0 -94 2q-25 1 -43 1q-50 0 -54 -6q-9 -4 -16 -16t-11 -31t-6.5 -33.5t-4.5 -36t-2 -25.5z" />
<glyph unicode="6" horiz-adv-x="505" d="M189 375q13 1 46 6t47 6h11q13 0 30 -1q76 -14 121 -60q40 -39 40 -104q0 -9 -1 -20q-9 -88 -107 -152q-86 -56 -171 -56q-14 0 -27 1q-152 17 -152 195q0 16 1 33q6 89 48.5 198t91.5 163q23 27 59 60.5t55 35.5q4 1 8 1q18 0 41 -11q30 -15 30 -35q0 -16 -14 -35 q-15 -19 -40.5 -41t-28.5 -26q-65 -69 -88 -158zM155 226q-10 -26 -10 -49q0 -18 7 -35q14 -37 52 -39h9q58 0 105 35q47 36 47 92v7q-10 37 -57 45q-15 2 -29 2q-33 0 -66 -12q-47 -18 -58 -46z" />
<glyph unicode="7" horiz-adv-x="478" d="M110 679q9 2 84 2q19 0 42 -1h145q27 -1 51.5 -14.5t26.5 -34.5v-7q0 -14 -6 -28q-8 -18 -23.5 -40t-18.5 -27q-68 -116 -107 -223q-55 -127 -68 -274q-2 -22 -38 -34q-20 -6 -35 -6t-27 5q-7 3 -12.5 8t-8 12t-4 13t-1 16t0.5 16.5t2.5 17.5t3.5 16.5t4 17t4 14.5 q39 162 61 216q31 80 94 216q-6 1 -30 1q-28 0 -82 -1q-19 -1 -34 -1q-73 0 -99 13q-12 12 -13 38q-1 4 -1 7q0 21 8 36q3 4 7 7.5t7.5 6t10.5 4.5l10 3q3 1 11.5 2t11.5 1.5t12.5 1t10.5 0.5z" />
<glyph unicode="8" horiz-adv-x="542" d="M416 354q3 -4 15.5 -17t20.5 -24t18 -28.5t15.5 -40.5t6.5 -49v-6q0 -139 -141 -183q-55 -17 -104 -17q-69 0 -125 35q-29 17 -55.5 51t-29.5 63q-1 11 -1 22q0 61 34 105l50 63q-8 10 -21 38.5t-17 46.5q-13 55 -13 97q0 10 1 18q3 49 35 89q29 37 101 59q47 13 88 13 q24 0 45 -4q49 -3 85 -29.5t52 -64.5q14 -35 14 -76v-7q-2 -46 -22 -85q-21 -41 -52 -69zM376 190q0 22 -26 48q-28 26 -60 30q-10 1 -20 1q-41 0 -76 -20q-43 -25 -43 -72q0 -29 25 -52.5t60 -24.5q28 0 49 2.5t43 10.5t34 27q14 21 14 50zM262 401h4q40 0 70 19 q31 21 36 52q3 15 3 27q0 32 -16 53q-22 29 -57 30q-4 1 -8 1q-32 0 -65 -12q-34 -15 -40 -57q-1 -9 -1 -17q0 -32 16 -60q22 -36 58 -36z" />
<glyph unicode="9" horiz-adv-x="504" d="M242 681q10 1 21 1q34 0 75 -10q52 -13 81 -44q31 -31 37 -94q3 -22 3 -44q0 -42 -9 -84q-12 -65 -34 -119q-39 -94 -87.5 -161.5t-122.5 -118.5q-10 -6 -25.5 -9.5t-32.5 -3.5q-1 -1 -2 -1q-17 0 -29 11q-13 10 -15 32q-1 13 2.5 23.5t12.5 20.5t16 16t20.5 16t18.5 14 q20 16 46.5 48t30.5 48q-4 2 -49.5 13.5t-61.5 19.5q-60 29 -90 73q-24 34 -24 89q0 15 2 31q9 89 74 157t142 76zM144 397q19 -40 68 -54q29 -9 58 -9q19 0 37 4q42 64 42 118q0 62 -24 92q-19 24 -55 24q-11 0 -23 -2q-51 -8 -87 -61q-23 -34 -23 -71q0 -20 7 -41z" />
<glyph unicode=":" horiz-adv-x="225" d="M145 431q30 -7 43 -39q5 -14 5 -30q0 -20 -9 -42q-13 -29 -50 -42q-19 -7 -36 -7q-18 0 -35 7q-33 15 -33 57q0 39 34 73q26 25 60 25q10 0 21 -2zM136 154q28 -14 37 -44q5 -16 5 -32q0 -14 -4 -28q-8 -30 -30.5 -53t-51.5 -24h-3l-45 14q-24 15 -25 38v5q0 42 30 88 q26 38 66 38q10 0 21 -2z" />
<glyph unicode=";" horiz-adv-x="242" d="M147 431q24 0 45.5 -16t25.5 -38q2 -9 2 -18q0 -30 -22 -56q-27 -33 -64 -38q-9 -1 -17 -1q-27 0 -48 12q-29 17 -29 51q0 31 18 57q19 26 41 35q26 12 48 12zM142 134h4q26 0 38 -24q9 -21 9 -48q0 -8 -1 -16q-3 -37 -11.5 -71.5t-18.5 -50.5q-17 -28 -44.5 -53.5 t-51.5 -25.5q-16 0 -29.5 8.5t-14.5 23.5q0 20 31.5 57.5t29.5 64.5q1 9 1 22t-1 29q-1 9 -1 17q0 18 4 23q16 40 56 44z" />
<glyph unicode="&#x3c;" horiz-adv-x="417" d="M259 510q23 17 60 20h1l33 -21q12 -16 12 -29q0 -6 -2 -11q-12 -36 -92 -123t-93 -114q19 -19 100.5 -51t103.5 -61v-9q0 -25 -15 -51q-15 -24 -45 -24q-7 0 -15 1q-16 2 -103 38t-114 49l-24 10q-17 6 -24.5 10t-17 11.5t-13.5 18.5q-3 9 -3 20v6q1 40 66 108 q7 7 86.5 98t98.5 104z" />
<glyph unicode="=" horiz-adv-x="453" d="M368 377q20 -2 41 -15q20 -11 20 -30q0 -16 -3 -26t-9 -16t-15 -9t-22 -4.5t-30 -1.5h-37h-47q-38 -3 -97 -6q-6 0 -25.5 -1.5t-31 -2t-29 0.5t-27.5 5.5t-18.5 13.5t-9.5 23v6q0 13 7 28q9 19 21 27q19 12 141 13q22 1 41 1q90 0 130 -6zM331 217l10 -1q10 0 13.5 -0.5 t13 -1.5t14.5 -4l12 -6q6 -3 9 -8.5t4 -12.5q1 -6 1 -11q0 -36 -32 -46q-25 -8 -152 -11q-35 -1 -62 -1q-72 0 -89 6q-23 8 -31 28q-4 9 -4 18q0 12 6 25q17 30 160 30q54 0 127 -4z" />
<glyph unicode="&#x3e;" horiz-adv-x="425" d="M83 490h4q39 0 202 -80q3 -1 13 -6l16 -10l18 -9q12 -6 20 -11t18.5 -11t17.5 -12t13 -12t9.5 -11.5t3.5 -11.5q0 -30 -115 -131q-143 -129 -168 -134q-11 -2 -20 -2q-21 0 -35 11q-17 14 -17 41v6q-1 31 107 106q85 63 84 74q-27 25 -96 52q-131 52 -135 80v6 q0 24 15 41q18 20 45 24z" />
<glyph unicode="?" horiz-adv-x="468" d="M220 192q-21 -5 -36 -5q-42 0 -48 37q-14 91 -14 126v11q2 9 6 16t12 13.5t13 10t18 10t18 9.5q14 10 44 27l48 28q18 11 36.5 31.5t25.5 44.5q1 28 -19 46.5t-45 20.5h-6q-37 0 -76 -35q-42 -38 -61 -73q-5 -9 -9.5 -28t-12 -30t-23.5 -15q-5 -1 -10 -1q-17 0 -37 11 q-24 14 -28 31q-1 4 -1 10q0 34 46 104q40 61 121 96q42 18 84 18q37 0 74 -15q49 -19 82 -55q29 -33 29 -79v-9q-4 -54 -39.5 -93t-93 -75t-76.5 -56q-1 -5 -1 -12q0 -14 3 -36q4 -20 4 -36q0 -11 -2 -20q-3 -22 -26 -28zM177 114q12 3 23 3q25 0 44 -19q13 -14 13 -29 q0 -14 -10 -28q-14 -19 -40 -19q-10 0 -21 2q-42 11 -46 40q-1 4 -1 8q0 31 38 42z" />
<glyph unicode="@" horiz-adv-x="730" d="M428 714h3q74 0 142 -52q69 -54 103 -126q24 -50 24 -108q0 -16 -2 -33q-8 -77 -50 -124q-22 -23 -57 -40q-27 -13 -55 -13q-9 0 -17 1q-34 4 -76 35q-55 -28 -95 -30h-6q-39 0 -72 26q-34 28 -39 74q14 189 187 198q43 -2 82 -26q42 -25 42 -55q0 -10 -10 -44 q-8 -29 -8 -51q0 -6 1 -12q3 -26 33 -28h2q22 0 36 26q16 28 18 56q1 9 1 18q0 60 -35 112q-39 59 -92 85q-41 18 -87 18h-9q-52 -2 -94 -20q-83 -36 -130 -122q-30 -56 -30 -126q0 -37 9 -79q11 -57 46.5 -86.5t101.5 -47.5q3 -1 10.5 -2.5t11.5 -2.5t10.5 -3t10.5 -4.5 t8.5 -5t7 -6.5t3.5 -8t1 -8q0 -17 -15 -38q-18 -24 -39 -27q-3 -1 -7 -1q-19 0 -57 12q-45 15 -68 27q-52 27 -87 73q-47 66 -49 187v11q0 113 38 172q43 71 83 109.5t106 62.5t165 26zM343 332q15 -12 29 -12q16 0 30 19q21 27 21 58q0 8 -2 17q-14 11 -28 11 q-17 0 -33 -18q-21 -23 -21 -50q0 -12 4 -25z" />
<glyph unicode="A" horiz-adv-x="488" d="M176 190q-10 -36 -32 -92t-40 -84q-18 -17 -40 -17q-8 0 -16 3q-36 9 -36 35q0 8 2 19q4 14 12 37t11 31q53 160 155 418q6 15 18 54t20.5 59.5t27 40.5t43.5 22h8q34 0 42 -31q3 -9 8 -65q10 -88 39 -227t37 -190q4 -24 16.5 -82.5t16.5 -80.5q-1 -21 -25 -36 q-22 -13 -42 -13h-3q-26 3 -37.5 47t-19.5 100.5t-21 76.5q-7 -1 -43.5 -5t-60 -8.5t-40.5 -11.5zM275 473h-9q-13 -25 -30.5 -82t-21.5 -92q8 -2 19 -2q13 0 29 3q31 5 41 14v6q0 31 -9 82q-9 55 -19 71z" />
<glyph unicode="B" horiz-adv-x="449" d="M305 414q14 -15 40 -30t36 -25q30 -30 46 -78q9 -28 9 -55q0 -18 -4 -36q-17 -64 -68.5 -104.5t-113.5 -54.5q-47 -11 -100 -11q-15 0 -30 1q-73 4 -86 40q3 96 19 292q1 15 4 65t5.5 81.5t9 73t14.5 66.5q17 24 72 33q37 6 75 6q16 0 33 -1q48 -5 91 -34t47 -63v-7 q0 -15 -6 -31q-8 -20 -13.5 -28t-20.5 -27q-6 -8 -28 -31.5t-31 -41.5zM257 490q11 8 19 24q10 18 10 29q0 22 -36 35q-20 7 -37 7t-31 -6q-8 -20 -12 -65v-24q0 -28 6 -47q2 -2 5.5 -2t10.5 4l14 7q6 4 14 10l15 12l13 9q7 5 9 7zM322 198q2 10 2 20q0 45 -45.5 83.5 t-87.5 38.5q-9 0 -18 -2q-9 -9 -12 -25.5t-3.5 -46t-1.5 -35.5q-3 -33 -3 -56q0 -32 6 -46q14 -4 30 -4q31 0 69 16q57 24 64 57z" />
<glyph unicode="C" horiz-adv-x="498" d="M281 645q31 4 55 4q75 0 79 -39v-6q0 -35 -50 -50q-13 -3 -42.5 -7t-52.5 -11q-30 -9 -63.5 -38.5t-46.5 -65.5q-21 -55 -23 -105v-11q0 -44 14 -80q16 -40 61 -62q37 -20 92 -20q10 0 20 1q13 1 39 11t38 12q10 2 20 2q12 0 24 -4q21 -6 26 -21q2 -7 2 -14 q0 -29 -44 -56q-34 -20 -66.5 -27.5t-84.5 -7.5q-67 0 -143 41q-43 24 -72.5 67t-33.5 99q-2 23 -2 45q0 54 11 102q15 67 43.5 109t56 67.5t56.5 39.5q34 18 87 25z" />
<glyph unicode="D" horiz-adv-x="518" d="M136 696q15 0 53 -9q143 -37 197 -85q26 -24 47 -59q37 -58 48 -130q4 -24 4 -50q0 -51 -15 -108q-23 -74 -54.5 -114t-95.5 -73q-59 -30 -110 -42q-32 -7 -73 -7q-25 0 -53 3q-31 3 -42 11.5t-13 28.5q23 233 29 388q2 20 2 41q0 13 -1 27q-1 15 -1 30q0 18 2 36 q2 31 7.5 55.5t23 40t45.5 16.5zM162 464q-2 -27 -6 -104t-7 -123q0 -5 -1.5 -23.5t-1.5 -27.5v-21q0 -13 2 -20.5t6 -10.5q16 -3 31 -3q69 0 122 51q65 63 70 167v11q0 91 -66 156q-23 22 -63 40q-28 12 -49 12q-11 0 -20 -3q-5 -2 -8 -9t-4.5 -19.5t-2.5 -22.5t-1.5 -26.5 t-0.5 -23.5z" />
<glyph unicode="E" horiz-adv-x="449" d="M143 135l1 -1h20q43 0 108 6q8 1 38 7t47 8q7 1 14 1q11 0 24 -2q14 -4 22 -26q4 -11 4 -22.5t-4 -24.5q-6 -18 -18 -29t-33 -15.5t-35 -5.5t-41 -2q-63 0 -179 -8q-9 -1 -17 -1q-36 0 -46 15q-13 18 -15 78v8q0 35 7 129q3 68 16 262q1 40 1.5 57t6 43t15.5 37 q29 32 159 32q37 0 58 -1.5t46 -5.5t37.5 -13t14.5 -23v-12q0 -22 -6 -34q-8 -16 -35 -17q-11 -1 -42 -1q-109 -2 -130 -16q-12 -8 -16 -49q0 -2 -2.5 -19t-3.5 -27.5t-1.5 -26t2 -26t8.5 -16.5q10 -9 29 -9q15 0 49 7.5t49 7.5q32 0 41 -30q1 -8 1 -15q0 -39 -43 -53 q-13 -2 -44 -6q-80 -9 -97 -22q-13 -14 -13 -67q0 -45 2 -62q0 -2 0.5 -5.5t0.5 -4.5z" />
<glyph unicode="F" horiz-adv-x="479" d="M483 676q8 -17 8 -30q0 -23 -21 -35q-33 -20 -88 -22h-22q-19 0 -46 1h-42.5h-35.5q-31 -2 -49 -11q-5 -21 -9 -101q0 -10 -1.5 -29t-2 -31t1 -27t5.5 -27q17 -5 109 -14q3 0 12 -1t12.5 -1.5t12 -2t12.5 -2.5t10.5 -3t10 -4t8 -5t6.5 -7t3 -9q2 -11 2 -20q0 -16 -5 -29 q-9 -19 -30 -23q-12 -2 -27 -2q-13 0 -27 1q-23 3 -47 3q-10 0 -21 -1q-35 -1 -47 -14q-4 -4 -6.5 -12.5t-4 -21t-2 -21t-1 -22.5t-0.5 -16q-1 -44 -2.5 -59t-10 -36t-26.5 -34q-21 -15 -38 -15q-4 0 -7 1q-24 5 -29 30q-3 11 -3 28q0 20 3 49q7 53 7 68q1 54 5.5 172 t5.5 186v27q0 71 9 99q5 14 14.5 23.5t27 13.5t28 5.5t36.5 2t33 0.5q18 1 37 1q46 0 103 -5q10 -1 41 -2t51 -4t37 -12z" />
<glyph unicode="G" horiz-adv-x="548" d="M399 254q-12 6 -29 6q-9 0 -20 -2q-12 -2 -26 -2q-17 0 -36 4q-32 7 -39 35q-2 6 -2 11q0 12 7 21q11 14 33 21.5t41.5 12t40.5 7.5q6 1 8 1q37 5 65 5q44 0 66 -13q8 -5 12 -14q4 -8 4 -21t-2 -26q-1 -9 -4.5 -27.5t-3.5 -20.5q-11 -57 -26 -95.5t-46 -75.5 q-74 -77 -191 -77h-3q-97 1 -153 45t-65 143q-4 30 -4 60q0 110 49 215q22 64 108 157q59 64 165 64h3q40 -1 100.5 -20.5t63.5 -50.5q1 -9 -2 -16t-5.5 -10.5t-8 -8t-6.5 -5.5q-22 -22 -48 -22q-19 0 -41 11q-28 8 -54 8q-31 0 -59 -11q-52 -21 -78 -66q-44 -72 -64 -173 q-6 -27 -7 -58v-7q0 -27 6 -57q8 -35 26 -54q20 -19 63 -30q20 -5 40 -5q24 0 48 7q72 30 74 134z" />
<glyph unicode="H" horiz-adv-x="481" d="M174 382q18 -16 78 -16q60 2 73 19q21 49 24 242v25q0 39 5 51q11 22 40 31q10 4 19 4q18 0 34 -11q12 -9 13 -41v-11q0 -29 -4 -71q-5 -51 -5 -64q-2 -229 -21 -364q-1 -11 -4.5 -44t-7 -56.5t-7.5 -31.5q-9 -23 -36 -23q-19 0 -46 11q-17 5 -17 45v9q2 48 10 96 q4 20 4 37q0 23 -7 41q-7 3 -16 3.5t-22 -1t-20 -1.5q-9 0 -31 1q-12 1 -23 1h-12q-14 -1 -24 -6q-15 -45 -18 -139.5t-7 -119.5q-7 -21 -33 -38q-16 -10 -33 -10q-11 0 -22 4q-23 8 -24 36q-1 6 -1 12q0 24 5 54v19q0 25 2 51q2 37 7 86t7 71q9 218 19 286q1 10 2 45.5 t3 51t7 39.5t16 35t27 14q5 1 10 1q11 0 23 -3q17 -5 23 -11q11 -12 12 -39v-8q0 -26 -6 -72l-7 -53q-10 -113 -10 -165q0 -13 1 -22z" />
<glyph unicode="I" horiz-adv-x="212" d="M132 724q36 0 44 -23q4 -22 5 -43q0 -7 -1 -14q-2 -29 -8 -80.5t-7 -65.5q-1 -21 -7.5 -125t-6.5 -164q0 -159 -14 -180q-11 -16 -38 -26q-16 -6 -28 -6q-8 0 -15 3q-21 8 -24 44q-2 16 -2 30q0 20 3 39q1 14 1.5 67.5t1.5 69.5q2 40 9.5 137t10.5 148q10 147 14 157 q7 13 26 22t36 10z" />
<glyph unicode="J" horiz-adv-x="475" d="M102 297q23 -21 29 -80t11 -73q7 -19 25.5 -36.5t41.5 -18.5h4q38 0 65 53q30 55 38 119q9 117 9 242q0 42 -1 85q0 11 -2.5 29t-3 26t2.5 22q9 26 45 35q12 4 23 4q22 0 39 -14q8 -7 12 -25t4 -35.5t-0.5 -46t-0.5 -41.5q1 -27 1 -61v-53q-2 -66 -5.5 -127.5 t-18.5 -122.5t-40 -98q-28 -41 -73 -68.5t-100 -31.5h-10q-50 0 -98 34q-20 15 -43 44.5t-31 53.5q-8 25 -13 67q-3 26 -3 49q0 14 1 26q15 44 74 44q9 0 18 -1z" />
<glyph unicode="K" horiz-adv-x="491" d="M147 463q36 15 101.5 80t94.5 82l19 15q14 11 23.5 17.5t18.5 8.5q6 1 12 1q20 0 35 -10q20 -13 20 -33q0 -26 -56 -66q-114 -92 -190 -178q0 -18 28 -44q76 -70 162 -188q3 -4 15 -18t18 -22t12 -21.5t6 -24.5q-1 -25 -22 -43q-18 -16 -39 -16h-5q-12 0 -25.5 10.5 t-20 19t-18.5 25.5q-45 64 -108 138q-34 42 -75 82q-5 -18 -5 -67v-39q1 -20 1 -37q0 -52 -6 -73q-8 -23 -28 -36q-14 -10 -32 -10q-8 0 -17 2q-16 3 -26 24.5t-11 51.5v15q0 46 5 131q6 100 7 144q3 25 4.5 89t7 116.5t18.5 81.5q18 28 45 33q5 1 9 1q23 0 41 -22 q2 -23 2 -42q0 -15 -1 -27q-3 -30 -11 -81t-9 -70z" />
<glyph unicode="L" horiz-adv-x="434" d="M158 696h4q27 0 37 -12q7 -9 7 -35v-11q-2 -34 -6 -61l-10 -62q-5 -35 -6 -47q-2 -18 -10.5 -87.5t-10.5 -104.5q0 -7 -4 -57t-4 -65t4 -37q16 -3 40 -3q27 0 63 4q38 6 52 8h14q11 0 24 -1q23 -2 34 -13q16 -16 16 -34q0 -9 -4 -18q-10 -28 -38 -32q-76 -10 -246 -19 q-9 0 -20 -1q-8 -1 -14 -1q-2 0 -4 1q-7 0 -13 3q-21 10 -24 45q-1 10 -1 20q0 26 6 56q11 153 34 340q9 129 24 171q19 53 55 53h1z" />
<glyph unicode="M" horiz-adv-x="718" d="M553 464q-6 -10 -52 -105q-24 -62 -58 -129q-4 -8 -14 -32.5t-16.5 -37t-20 -24.5t-29.5 -12q-45 4 -79 112q-39 74 -94 210q-1 -10 -3 -47t-4.5 -69.5t-6.5 -48.5q-3 -15 -21 -111l-11 -61q-14 -78 -27 -99q-11 -18 -43 -18q-6 0 -13 1q-34 3 -42 35q-4 15 -4 31 q0 21 6 45l64 387q2 47 16 103.5t32 82.5q12 14 37 17q6 1 12 1q19 0 34 -9q5 -3 9.5 -10t10.5 -18l8 -20q4 -7 9.5 -22t6.5 -17q12 -31 60 -173q31 -97 43 -115q29 43 52 122q15 40 40 100t32 78q36 76 49 89q17 19 47 22q4 1 8 1q24 0 39 -19q6 -10 13 -43t8 -51 q3 -34 9.5 -96.5t10 -109t6.5 -99.5l5 -83q4 -66 7 -101l4 -29q3 -22 4 -34v-10q0 -9 -1 -20q-1 -17 -7 -30q-6 -16 -41 -19q-8 -1 -15 -1q-24 0 -36 9q-24 19 -29 134q-4 74 -6 108q-1 26 -2 78.5t-2.5 92.5t-4.5 64z" />
<glyph unicode="N" horiz-adv-x="568" d="M403 236q8 29 13 141q2 32 4.5 85.5t4.5 89.5q1 6 1 14.5t-1 20t-1 22t1 19.5q1 19 5 31q4 11 16.5 23.5t28.5 15.5q13 2 23 2q25 0 34 -14q9 -12 9 -47q0 -37 -10 -101q-4 -26 -13 -199t-9 -201v-28q0 -24 -1 -34.5t-4 -26.5t-9 -25q-10 -15 -35 -22q-12 -4 -23 -4 q-13 0 -24 4q-14 6 -35 50q-13 25 -41 75t-48 89.5t-36 77.5q-4 10 -20.5 39.5t-31 60t-21.5 56.5q-7 -36 -14 -148.5t-10 -134.5q-9 -130 -30 -151q-11 -13 -35 -16q-5 -1 -10 -1q-18 0 -33 9q-14 9 -16 34v13q0 23 5 57q7 43 7 47q4 71 18.5 200.5t18.5 204.5 q8 107 22 122q9 10 33 16q11 2 21 2q12 0 22 -3q8 -3 14.5 -9.5t12.5 -18t10 -20t11 -25.5l10 -26l89 -206q61 -137 77 -160z" />
<glyph unicode="O" horiz-adv-x="642" d="M334 696h7q53 0 105 -14q54 -16 84 -52q55 -53 72 -138q9 -47 9 -94q0 -39 -6 -78q-11 -65 -22 -98t-37 -71q-93 -151 -277 -152q-115 1 -182 104q-34 52 -45 93q-9 31 -9 81q0 17 1 37q11 196 101 280q85 101 199 102zM188 492q-17 -34 -28 -107q-7 -47 -7 -86 q0 -21 2 -40q4 -41 41.5 -89t72.5 -60q22 -8 42 -8q28 0 55 14q46 25 71 64q49 74 53 204q-2 58 -32 112t-68 66q-41 13 -78 13h-14q-32 -3 -63.5 -28.5t-46.5 -54.5z" />
<glyph unicode="P" horiz-adv-x="529" d="M160 206q-4 -20 -6.5 -68t-6.5 -69q-1 -6 -2.5 -18t-3.5 -19.5t-5 -12.5q-12 -17 -40 -27q-11 -4 -21 -4q-16 0 -30 11q-7 7 -10 37q-3 26 -3 64v12q1 47 2.5 83t4 82t2.5 47q12 251 13 267q2 28 4.5 45t9 35.5t20 28t34.5 10.5h7q7 0 15 -1q13 -2 32 -7l29 -6 q153 -30 223 -92q22 -19 44 -53t29 -61q4 -21 4 -41q0 -17 -3 -33q-6 -37 -23 -64q-34 -53 -112 -91q-33 -15 -102.5 -29t-104.5 -26zM389 436q0 41 -35 74q-38 36 -86 54t-92 21q-1 -7 -5.5 -27.5t-6 -38.5t-2.5 -52v-8q0 -21 -4 -68q-1 -23 -1 -39q0 -26 4 -37 q52 1 100.5 12t86.5 39q41 29 41 70z" />
<glyph unicode="Q" horiz-adv-x="639" d="M298 666q71 -1 144 -40t111 -94q18 -32 27 -50t18 -47.5t11 -60.5q1 -11 1 -21q0 -72 -25 -128q-28 -64 -88 -131q-6 -6 -21 -17.5t-23 -20.5q-9 -9 -9 -21q0 -17 12 -50q11 -30 11 -49q0 -6 -1 -11q-4 -19 -27 -33q-20 -13 -37 -13h-5q-32 2 -51 49q-4 10 -7.5 27.5 t-8 29t-12.5 16.5q-9 5 -26 5h-10q-10 -1 -19 -1q-14 0 -26 2q-148 37 -187 154q-17 55 -20 128v21q0 61 13 112q15 59 51.5 113t86.5 87q51 37 117 44zM470 234q26 51 26 103q0 50 -24 101q-12 27 -44.5 58.5t-55.5 43.5q-26 14 -61 14q-11 0 -24 -2q-32 -4 -67.5 -36 t-48.5 -68q-20 -55 -20 -127q0 -13 1 -26q4 -88 32 -136q12 -22 41 -35q20 -10 40 -10q8 0 17 2q3 8 3 18q0 18 -8 44q-10 32 -10 51q0 6 1 11q4 20 19.5 36t33.5 17h3q29 0 42 -21q14 -22 23 -56.5t22 -48.5q12 4 24.5 17t18.5 22.5t16 27.5z" />
<glyph unicode="R" horiz-adv-x="543" d="M154 729q5 1 11 1q18 0 49 -4q42 -6 69 -15q5 -2 24 -8t25 -9l24 -8q17 -7 24 -11l21 -12q14 -8 21 -15l16 -18q10 -11 15.5 -22.5t10.5 -26.5t7 -32q3 -18 3 -35q0 -84 -63 -141q-4 -4 -17.5 -12t-23 -15.5t-9.5 -15.5q-1 -9 5.5 -23t19.5 -33.5t15 -23.5 q13 -22 39.5 -71t46.5 -82q1 -2 9 -15t11 -18.5t8 -16t6 -19.5q0 -4 0.5 -8.5t-0.5 -8.5q-5 -27 -41 -38q-15 -5 -29 -5q-17 0 -32 8q-9 5 -17 14.5t-18 29.5l-11 21q-10 18 -33.5 68t-41.5 80q-5 6 -19 30.5t-27 31.5q-4 1 -9 1q-13 0 -31 -8q-23 -10 -30 -23 q-7 -21 -12 -102.5t-19 -108.5q-10 -19 -36 -29q-11 -4 -22 -4q-16 0 -32 8q-13 8 -17 25q-4 14 -4 26v5q1 14 5 40t5 35q12 121 14 210q0 32 6 199q1 15 0.5 30t-0.5 30v17q0 21 2 42q2 31 9 46q15 35 73 39zM272 407q4 3 21 12.5t27.5 16.5t21.5 18.5t14 23.5q2 10 2 20 q0 16 -4 32q-8 27 -29 45q-18 16 -67 23q-24 3 -42 3.5t-28 -3.5q-12 -34 -12 -115q0 -51 5 -121q8 0 16.5 2t14.5 4.5t16.5 8.5t13.5 9l16 11q12 9 14 10z" />
<glyph unicode="S" horiz-adv-x="444" d="M189 691q26 10 58 10q4 0 9 -1q38 -1 76.5 -24t52.5 -59q8 -11 18.5 -33.5t11.5 -29.5q1 -6 1 -12q0 -20 -13 -42q-17 -29 -43 -29h-2q-9 0 -18 7.5t-14 15.5l-14 22l-11 18q-25 35 -43 43q-12 5 -24 3q-37 -6 -62 -34q-22 -24 -22 -47q0 -5 1 -9q9 -46 40.5 -70 t81.5 -39.5t68 -26.5q34 -22 57 -64q19 -35 19 -73q0 -8 -1 -16q-6 -57 -34 -99q-21 -32 -60 -58t-90 -36q-9 0 -33 -3.5t-39 -4.5h-6q-13 0 -29 4q-19 4 -31 16q-14 19 -14 39q0 6 1 12q4 29 50 42q14 4 64.5 7.5t72.5 19.5q18 12 27 34q4 11 4 23q0 13 -5 28 q-3 7 -10.5 13.5t-15 11t-20.5 10.5t-19.5 8.5t-20 7t-15.5 5.5q-112 33 -144 131q-12 43 -12 79q0 29 8 55q17 56 63 96q36 30 81 49z" />
<glyph unicode="T" horiz-adv-x="527" d="M316 37q-9 -30 -45 -31h-2q-35 0 -49 28q-4 5 -7 13t-4 19t-1.5 20.5t0 23.5t1 22t2 23t1.5 19q6 100 6 176q-1 8 -1 53.5t-4 80t-15 51.5q-5 5 -49 5h-27h-15q-57 0 -76 14q-9 7 -13 28q-1 8 -1 16q0 13 4 24q11 24 99 28q34 2 61 2q42 0 66 -4q24 -1 45 -1q10 0 20 1 q28 0 76.5 2.5t63.5 2.5h8q14 0 31 -5q21 -8 24 -23q1 -5 1 -9q0 -15 -7 -29q-9 -19 -22 -26q-12 -6 -66.5 -9.5t-67.5 -15.5q-9 -8 -13.5 -27t-4.5 -37t1 -50v-20q0 -17 -1 -28q-2 -31 -2 -88q0 -15 1 -30v-20q0 -66 -4 -110q-3 -51 -14 -89z" />
<glyph unicode="U" horiz-adv-x="540" d="M451 695q7 1 13 1q19 0 29 -11q11 -13 11 -35v-6q-2 -27 -5 -59q-1 -4 -1 -6q-6 -48 -10 -172.5t-15 -180.5q-26 -133 -101 -187q-33 -24 -80 -33q-19 -4 -39 -4q-29 0 -60 8q-38 12 -76 46t-53 71q-11 27 -19 58q-4 19 -9 55q-5 50 -5 104q0 90 14 194q1 9 3.5 29.5 l3.5 28.5l5 24q3 15 7 22.5t10 17t14.5 15t20.5 9.5q17 5 30 5q19 0 29 -11q6 -7 6 -24q1 -3 1 -7q0 -13 -2 -27q-2 -16 -6 -39t-5 -32l-8 -99q-2 -21 -2 -55v-29q1 -53 8 -99q12 -79 36 -114q12 -19 38 -33q18 -10 39 -10q10 0 21 2q29 6 47.5 52t24 97t6.5 108q0 22 2 48 q0 32 4 118q0 2 0.5 33t2 51t5.5 30q7 18 26 30.5t39 15.5z" />
<glyph unicode="V" horiz-adv-x="601" d="M116 652q8 -14 19.5 -55t23.5 -92.5t14 -58.5q16 -57 38 -147l31 -125q17 42 60 134t60 134q5 12 29 78.5t45.5 112t43.5 71.5q22 14 40 14q12 0 22 -5q27 -14 30 -42q0 -27 -17.5 -71.5t-47 -106t-39.5 -87.5q-61 -149 -176 -381q-14 -24 -46 -38q-14 -6 -28 -6 q-17 0 -32 9q-6 4 -10 14.5t-9 32t-7 29.5l-35 122q-20 69 -33 118.5t-31 124.5q-39 141 -39 176q0 4 1 7q1 30 19 42q15 11 32 11q4 0 8 -1q20 -3 34 -14z" />
<glyph unicode="W" horiz-adv-x="814" d="M211 224q6 20 17.5 45.5t26.5 55.5t17 35l67 166q23 64 39 76q18 13 44 16h8q21 0 37 -14q7 -8 11 -23t5 -26t2 -35t2 -32q2 -14 9.5 -73.5t15 -104.5t14.5 -68q7 16 24.5 65t25.5 62q13 34 32 94l30 89l10 32q9 25 15.5 41.5t13.5 28.5q16 24 55 35q11 3 20 3 q24 0 37 -20q2 -5 2 -15t-2 -25q-4 -31 -11 -51l-30 -85l-36 -100q-16 -44 -30 -94q-62 -221 -117 -266q-24 -21 -48 -21q-6 0 -11 1q-15 2 -27 15t-21 36.5t-13 38.5l-11 41q-5 14 -19 69.5t-32 81.5q-27 -32 -61 -109t-60 -112q-4 -7 -11 -23.5t-14 -26t-17 -14.5 q-19 -8 -36 -8q-8 0 -16 2q-24 5 -37 26q-10 30 -17.5 62.5t-13.5 73.5l-10 63q-4 22 -10 73t-7 62q-5 28 -13.5 93.5t-14.5 97.5q-13 72 -13 97q0 8 1 11q9 23 56 28q10 2 19 2q31 0 43 -16q6 -8 9.5 -25.5t6 -43t3.5 -33.5q29 -150 41 -354z" />
<glyph unicode="X" horiz-adv-x="505" d="M337 -1q-15 56 -41 113l-11 24q-8 18 -12.5 27t-13 21.5t-17.5 20.5q-5 -2 -9.5 -6.5t-6.5 -7.5t-7 -11.5t-7 -11.5q-8 -12 -33 -57t-40 -62q-15 -15 -39 -23q-12 -3 -23 -3q-13 0 -25 5q-22 8 -26 34q-1 4 -1 8q0 11 5 23q5 16 12 26t19 25t15 19q34 48 52 79 q3 5 14.5 22.5t15.5 24.5t9 19q6 14 6 22q0 25 -26 70q-16 29 -48.5 93.5t-48.5 92.5l-10 14l-10 17q-3 6 -6.5 15t-3.5 16q1 21 27 42t46 23h4q11 0 20 -5q11 -5 19.5 -17.5t14 -23t13.5 -29.5l12 -27l33 -69l7 -14l7 -15q3 -6 7 -13t8.5 -10.5t9.5 -3.5q10 0 22.5 15 t26 39t15.5 27q12 20 32 48q5 6 13.5 18.5t13 18.5t15 13.5t23.5 11.5q8 3 17 3q13 0 27 -7q23 -11 27 -34q1 -4 1 -9q0 -12 -7 -24q-8 -17 -29 -39t-24 -26q-14 -17 -31 -43l-14 -21q-10 -15 -15 -24l-15 -25q-11 -17 -16.5 -27t-10.5 -24t-4 -26q0 -8 4 -18.5t8 -17.5 l13 -21q8 -14 11 -20q41 -71 73 -147l16 -31q11 -21 14 -30t0 -24t-17 -30q-28 -28 -57 -28q-21 0 -43 15z" />
<glyph unicode="Y" horiz-adv-x="583" d="M269 402q12 6 21.5 17t20 29t14.5 24l102 143q20 25 30 41q30 45 31 46q9 7 24 10h8q12 0 24 -6q17 -8 22 -26q2 -5 2 -11q0 -8 -4 -18q-6 -16 -13.5 -26.5t-20.5 -25t-14 -16.5l-49 -61q-31 -38 -51.5 -65.5t-45.5 -65.5q-15 -23 -31 -52q-27 -41 -30 -56q-5 -21 -8 -91 q-1 -29 -9 -105q-6 -60 -8 -68q-6 -15 -26 -27q-16 -10 -35 -10h-7q-17 2 -26 17t-10 39v12q0 18 2 34q1 23 5 50t4 38q1 21 1 40q0 60 -12 94q-4 11 -17 32t-18 32q-9 26 -35 70.5t-34 61.5l-33 67q-3 5 -9.5 17t-9.5 18.5t-6 16.5t-3 18q0 33 37 61q21 17 40 17 q14 0 26 -8q5 -3 11 -14t10 -21l10 -24q6 -14 7 -17l38 -79q8 -18 21.5 -54t25 -58.5t28.5 -39.5z" />
<glyph unicode="Z" horiz-adv-x="512" d="M220 185q-22 -41 -24 -60q21 -10 59 -10q12 0 26 1q10 0 35 -1q12 -1 21 -1t15 1q52 0 61 -1q38 -2 44 -11q11 -16 11 -34q0 -16 -8 -34q-17 -39 -47 -43q-28 -4 -108 -6q-6 0 -33 -1q-14 0 -24.5 -0.5t-18 0t-18.5 0.5q-20 0 -53 -1q-28 -1 -47.5 -1t-29.5 1 q-16 2 -30.5 11t-15.5 20q-1 5 -1 10q0 30 23 87q10 23 42 72q6 9 17.5 30t17.5 30q18 33 43 67q67 92 90 139q3 6 9.5 18t11 19.5t8 19.5t4.5 23q-6 5 -11 8t-11 4.5t-9.5 2t-12.5 1t-13 0.5q-12 1 -38.5 1.5t-39.5 1.5h-50q-61 10 -68 45q-1 7 -1 14q0 17 8 35 q13 25 29 26q9 1 113 1h20.5h25.5q29 -1 40 -1q111 0 148 -13q39 -14 39 -42q0 -13 -6 -30q-7 -18 -16 -31l-23 -33q-15 -19 -20 -27q-26 -40 -69 -118.5t-71 -118.5t-44 -71z" />
<glyph unicode="[" horiz-adv-x="442" d="M161 595q-5 -40 -5 -182q-3 -139 -2.5 -214.5t2.5 -87.5q17 -20 86 -20q5 0 33 1q21 2 36 2h9q16 -1 35.5 -6t25.5 -16q8 -16 8 -32q0 -7 -1 -15q-6 -24 -22 -31q-27 -12 -93 -12q-39 0 -91 4q-13 1 -42.5 2t-42.5 2.5t-29.5 10t-23.5 25.5q-6 14 -8 38v22q0 16 1 36 q2 34 2 44q0 99 2 137q3 51 3.5 145t1.5 130q0 4 0.5 22t0.5 25t1 22t3 23.5t5 18.5t8 17q6 8 28 13t55.5 6.5t62.5 2.5h31h33q34 -1 44 -1q14 1 26 1h18q20 -2 30 -13q15 -19 15 -43q0 -7 -1 -14q-6 -34 -26 -45q-24 -10 -99 -10q-4 0 -8 1h-8q-76 0 -104 -9z" />
<glyph unicode="\" horiz-adv-x="428" d="M64 737q6 2 11 2l9 -1q10 -3 16 -3.5t12 -7.5l10 -11q4 -4 9 -14.5t7 -17.5l8 -18q4 -12 7 -19q47 -109 233 -499q4 -10 15 -29t16 -32.5t5 -22.5q-1 -37 -40 -58q-22 -12 -42 -12q-13 0 -24 6q-12 6 -42 81l-70 161l-88 190l-75 157q-3 7 -13 26t-16.5 34.5t-6.5 23.5 q1 25 19.5 43t39.5 21z" />
<glyph unicode="]" horiz-adv-x="386" d="M204 110q14 37 14 124v54q0 117 7 192q7 66 7 97q0 19 -3 24q-5 10 -34 11h-7q-26 0 -54 -4q-10 -1 -20 -1q-21 0 -42 5q-29 8 -36 31q-5 16 -5 29q0 15 7 28q11 22 45 24h31h50q59 -1 82 -1h9q79 0 92 -32q6 -15 6 -44.5t-6 -74.5q-4 -25 -6 -120q-1 -33 -3 -89.5 t-2 -80.5q-1 -8 -1 -19q0 -22 1 -55q2 -46 2 -81q0 -71 -8 -100q-1 -5 -5 -9t-12 -7.5t-13 -4.5l-17 -6l-16 -4q-24 -8 -141 -11h-12q-28 0 -42 8q-17 10 -23 34q-3 13 -3 23q0 22 16 32q24 14 74.5 17.5t67.5 10.5z" />
<glyph unicode="^" horiz-adv-x="480" d="M374 324q-19 8 -33.5 31.5t-33.5 73.5t-24 60q-1 2 -3 8l-4 9q-2 4 -5 9.5t-5.5 9t-5.5 7t-6 5.5t-7 2q-13 0 -28 -19t-31 -49t-17 -31l-11 -18l-12 -20l-13 -18l-13 -18l-12.5 -14.5t-11.5 -11t-10 -4.5h-10q-39 0 -52 23q-4 8 -4 18q0 23 23 60q54 94 74 123 q1 1 20 33.5t30 47.5t32.5 32.5t42.5 17.5t38 -8t31 -26t22.5 -31.5t21 -41t17.5 -36.5l55 -102q30 -57 30 -83q0 -25 -28 -37q-15 -5 -31 -5q-13 0 -26 3z" />
<glyph unicode="_" horiz-adv-x="771" d="M69 -23q43 11 113 11q41 0 92 -4q21 -1 50 -1q15 0 32 1q51 0 124.5 1t85.5 1q5 0 27.5 0.5t38 0.5t35.5 -2t33 -6q21 -7 30 -35q5 -15 5 -30q0 -12 -3 -24q-2 -6 -7.5 -11t-15.5 -8.5t-20.5 -6t-26 -4t-27.5 -2.5t-31 -1h-29h-29h-25q-201 0 -328 2q-88 0 -104 4 q-29 7 -41 33q-9 17 -9 33q0 9 3 18q7 25 27 30z" />
<glyph unicode="`" horiz-adv-x="335" d="M61 759h5q10 0 18 -3q10 -4 24.5 -14.5t22.5 -14.5l38 -23l48 -28q22 -13 40 -22l11 -6q8 -4 11 -6t9 -5.5t9 -6t6.5 -6t6 -7t3.5 -7.5q3 -10 3 -20q0 -16 -8 -32q-14 -26 -29 -30q-2 -2 -7 -2q-3 0 -8 1q-11 3 -15 3t-14.5 6t-13 8t-12 9t-11.5 8q-29 20 -74 45.5 t-66 38.5q-17 11 -24 16.5t-16 18.5q-7 12 -7 26q0 46 50 53z" />
<glyph unicode="a" d="M109 374q-22 8 -27 37v7q0 22 15 36q18 16 50 30q55 28 93 38q20 6 41 6q20 0 41 -5q27 -10 49.5 -42t28.5 -71q3 -15 4 -33v-17v-14q-1 -14 -3 -35l-3 -31l-6 -31q-3 -22 -4 -26q-22 -117 -37 -167q-6 -18 -23.5 -37.5t-33.5 -21.5q-4 -1 -10 -1q-11 0 -27 2 q-25 4 -38 10q-37 14 -56.5 23t-45 26t-46.5 39q-38 33 -41 60q-3 12 -3 24q0 46 40 86q28 28 77 44q19 6 55 9.5t62.5 7t33.5 12.5q9 14 9 29q0 13 -7 27q-14 30 -34 33q-39 -6 -87 -30q-47 -24 -66 -24h-1zM218 233q-66 -3 -87 -32q1 -68 123 -86q34 9 34 113q-7 6 -41 6 q-13 0 -29 -1z" />
<glyph unicode="b" horiz-adv-x="457" d="M184 471q12 -11 31.5 -14.5t46.5 -4.5t40 -3q59 -11 101 -47t45 -93v-7q0 -90 -98 -183q-54 -49 -116 -79q-26 -13 -71 -28q-37 -12 -58 -12h-7q-58 6 -67 85q-1 17 -1 31v18q2 20 6.5 56t5.5 52q3 40 31 295q1 8 3.5 45t6 63.5t9.5 42.5q14 24 46 27h7q27 0 41 -25 q4 -9 6 -20t1 -27.5t-2 -25t-4 -29t-3 -23.5q-3 -33 -2.5 -56t2.5 -38zM142 229l-9 -123q22 0 70 27.5t68 50.5l11 12q12 11 15 14l13 15q9 11 12.5 17t9.5 15.5t7.5 17.5t1.5 16q-3 40 -57 59q-36 13 -73 13q-18 0 -36 -3q-29 -29 -33 -131z" />
<glyph unicode="c" horiz-adv-x="435" d="M401 111q3 -8 3 -16q0 -26 -40 -47q-47 -25 -113 -25h-10q-155 3 -209 146q-7 24 -7 51q0 46 21 100q28 58 78.5 93t114.5 42q13 1 28 1q26 0 59 -4q50 -7 56 -30q2 -8 2 -16q0 -19 -10 -34q-14 -23 -35 -26q-10 -2 -24 -2q-10 0 -23 1q-23 2 -34 2h-7q-54 -7 -92 -51 q-28 -32 -28 -62q0 -11 3 -21q15 -44 52 -69q27 -19 65 -19q13 0 26 2t32 7t30.5 7.5t24 2t21.5 -8.5t16 -24z" />
<glyph unicode="d" horiz-adv-x="474" d="M331 -57q-13 6 -21.5 36t-12.5 36q-19 4 -51.5 8t-58 9.5t-46.5 16.5q-36 20 -68.5 54t-42.5 69q-6 26 -6 51q0 14 2 28q5 38 20 66q37 72 101 108q66 35 171 35q24 18 28.5 112t13.5 113q5 9 24 13q10 3 18 3t14 -2q11 -2 18 -9t10 -19.5t4 -25.5q1 -6 1 -14t-1 -17 l-2 -32q-1 -12 -4 -32l-3 -27q-2 -32 -9.5 -114.5t-10.5 -122.5q-1 -37 -1 -71v-32q1 -24 0.5 -48.5t-0.5 -51.5q-1 -53 -6 -87q-8 -56 -57 -56q-11 0 -24 3zM313 230q4 39 4 65q0 30 -5 44q-5 7 -14 9q-5 1 -11 1h-5q-8 -1 -25 -3.5t-30 -3.5q-56 -5 -83 -63 q-12 -25 -12 -49q0 -30 20 -57q22 -29 68 -49q33 -13 60 -13q11 0 21 2q4 10 6.5 31t3.5 49t2 37z" />
<glyph unicode="e" horiz-adv-x="448" d="M168 158q6 -23 23.5 -33t54.5 -18q11 -2 22 -2.5t22 2.5q21 5 33.5 12t28.5 10t27 -5q15 -17 15 -35q0 -21 -15 -33q-39 -28 -100 -36q-17 -2 -32 -2q-40 0 -68 15q-60 25 -87 53.5t-47 90.5q-9 43 -9 79q0 68 33 114q18 34 48.5 60.5t60.5 35.5q38 14 73 14q31 0 59 -12 q59 -24 91 -98q6 -10 13.5 -34t7.5 -36v-6q0 -18 -11 -36q-13 -21 -33 -28q-15 -5 -51.5 -20.5t-62.5 -22.5q-70 -20 -96 -29zM168 347q-18 -14 -24 -47q-3 -14 -3 -24q0 -14 5 -21h4q8 0 24 3q20 4 47 11.5t39 9.5q18 4 35.5 15.5t21.5 23.5q-13 37 -36 52q-16 11 -35 11 q-8 0 -17 -1q-29 -7 -61 -33z" />
<glyph unicode="f" horiz-adv-x="472" d="M219 227q-5 -11 -5 -70v-21v-16q0 -64 -7 -91q-7 -19 -29 -26q-11 -4 -22 -4q-10 0 -20 3q-21 7 -25 23q-5 21 -5 73v32v32q0 53 -5 76q-15 4 -28 4.5t-18.5 0.5t-14 5t-20.5 17q-9 10 -9 24q0 8 2 16q3 17 20.5 28t38.5 12q6 1 9.5 0t6 -0.5t3.5 0t2 0.5l1 1 q1 1 2.5 3.5t3.5 5.5q4 5 5 20t0 29.5t1 26.5q13 124 43 194q25 59 56.5 93t81.5 45q16 3 31 3q70 0 110 -78q14 -28 18 -58q2 -12 2 -22q0 -14 -4 -22q-6 -20 -26 -28q-11 -5 -23 -5q-8 0 -16 3q-5 0 -10 3t-9 10l-6 11q-3 5 -7 14.5t-5 12.5t-6.5 16.5t-9 20t-11 13.5 t-17.5 7q-20 0 -35.5 -24.5t-21.5 -48.5t-13 -58q-1 -8 -2 -11q-7 -33 -10 -90v-22q0 -42 8 -66q12 -5 32 -5q5 0 10 1h9q24 0 48 -7q16 -5 24 -19.5t7.5 -29.5t-8.5 -27.5t-21 -15.5q-11 -2 -50 -3.5t-56 -10.5z" />
<glyph unicode="g" horiz-adv-x="437" d="M22 -150q9 38 40 38q6 0 13 -2q3 -1 35 -14q27 -12 50 -12h7q14 1 34 15t31 27q42 64 42 128v9q-14 3 -40 3h-10q-11 -1 -19 -1q-18 0 -25 1q-52 4 -98 41t-54 111q-2 16 -2 32q0 56 22 103q28 72 102 115q63 38 128 38q10 0 21 -1q77 -8 96 -27q10 -9 13 -39 q1 -17 1 -31q0 -12 -1 -22q-2 -29 -6 -105t-7 -118q-2 -18 -4.5 -51.5t-5.5 -58.5t-8 -47q-14 -57 -43 -111q-42 -74 -116 -103q-30 -12 -61 -12q-41 0 -84 20q-26 12 -41 32q-11 16 -11 32q0 5 1 10zM232 379q-24 -8 -47.5 -32.5t-37.5 -56t-17 -62.5q-1 -5 -1 -10 q0 -26 16 -46q19 -25 60 -33q18 -4 33 -4q29 0 40 17q16 25 19 123q0 84 -4 100q-27 6 -44 6q-11 0 -17 -2z" />
<glyph unicode="h" horiz-adv-x="428" d="M190 450q22 1 62 24q31 18 57 18q8 0 15 -2q31 -6 48 -48.5t20 -100.5q1 -2 1 -30q0 -22 -1 -59q-1 -85 -1 -97v-31q0 -78 -9 -103q-4 -13 -12 -21q-15 -14 -36 -14h-6q-26 3 -35 18q-5 8 -5 35t2.5 84.5t2.5 94.5v31q0 27 -1 49.5t-4 45t-9 27.5q-39 0 -71 -32 q-26 -23 -41 -65q-9 -41 -15.5 -107t-9.5 -90q-6 -59 -16 -74q-12 -21 -44 -21h-8q-41 6 -41 76q0 18 3 42q5 41 16.5 114.5t18.5 130.5q4 38 11 94t10 85q1 9 2 28l3 32q1 12 3 29t5.5 28t8 22.5t12 18t16.5 8.5q7 2 14 2q10 0 20 -4q18 -6 26 -18q7 -11 8 -26.5t-1 -27.5 t-5.5 -28t-4.5 -24l-3 -20q-1 -11 -2.5 -21t-3 -21.5t-2.5 -20.5t-1.5 -16t0.5 -11t3 -4z" />
<glyph unicode="i" horiz-adv-x="199" d="M129 608q8 1 15 1q17 0 30 -9q18 -12 19 -39q0 -29 -27 -45q-18 -11 -36 -11q-9 0 -18 3q-28 7 -31 35v5q0 19 13 36q14 19 35 24zM120 438h5q11 0 27 -8q18 -9 21 -27q0 -3 0.5 -6.5t-0.5 -8.5q-1 -8 -6 -25.5t-6 -23.5q-21 -107 -24 -178q-1 -9 -1 -38t-2 -47.5 t-6 -27.5q-11 -22 -46 -32q-12 -3 -22 -3q-20 0 -32 12q-4 4 -6.5 10.5t-3.5 12.5v7v10q1 11 1.5 17t2.5 20t3 19l25 207q14 105 70 110z" />
<glyph unicode="j" horiz-adv-x="225" d="M128 708q12 4 23 4q10 0 19 -3q19 -6 23 -24q1 -6 1 -12q0 -24 -22 -43q-22 -20 -45 -20q-6 0 -13 2q-23 5 -27 27q-1 5 -1 11q0 16 10 32q12 21 32 26zM123 469q9 2 17 2q11 0 20 -3q18 -7 24 -22q6 -14 6 -32q0 -15 -4 -34q-3 -21 -3 -26q-5 -51 -10 -135 q-2 -35 -11.5 -105t-10.5 -82q-8 -63 -14 -90q-2 -10 -8 -44.5t-12 -49.5q-9 -21 -31.5 -53.5t-38.5 -45.5q-25 -20 -44 -30q-25 -13 -54 -19q-12 -3 -24 -3q-22 0 -43 10q-31 15 -31 43q0 20 20 32q19 11 47.5 17t33.5 8q13 6 24.5 18t19 24t15 33t11.5 34.5t9 41t7 40.5 l6 42q5 30 6 39q19 142 20 207q2 58 8 99q1 3 2 13.5t2 15.5t3.5 14t5 14t7 11.5t11 10t14.5 5.5z" />
<glyph unicode="k" horiz-adv-x="414" d="M179 758v-16q0 -36 -3 -79q-5 -53 -12 -118t-10 -99q-3 -37 -3 -64q0 -16 1 -28q13 5 58 33l63 43q3 2 15 12t17.5 13t16 6.5t21 -0.5t21.5 -15q9 -8 12 -17t-2 -19t-10 -17.5t-18 -18.5l-19 -16l-20 -15q-5 -4 -8 -6q-4 -2 -13 -9l-15 -10q-6 -4 -13 -10t-11 -12t-5 -12 q-1 -9 2.5 -15.5t13 -15.5t12.5 -13q39 -44 91 -96q2 -2 8.5 -8t9.5 -8.5t8 -8.5t7.5 -10.5t5 -11t3.5 -13.5v-6q0 -26 -15 -42q-13 -12 -33 -12q-9 0 -19 2q-15 6 -38.5 29t-51 53t-40.5 42l-6 6l-13 14l-15 16q-9 9 -17 16t-12 9q0 -99 -8 -133q-6 -29 -40 -38 q-10 -2 -18 -2q-18 0 -27 10q-15 14 -15 41v61q1 8 1 13q13 281 37 496q4 37 8 54.5t15.5 33.5t32.5 22q10 3 18 3q19 0 32 -14z" />
<glyph unicode="l" horiz-adv-x="208" d="M145 732q11 2 19 2q1 1 2 1q7 0 12 -6q6 -6 9.5 -11.5t4.5 -17t1 -20.5t-1 -23l-3 -24q-1 -10 -3 -23l-2 -21q-6 -88 -21 -235.5t-19 -193.5q-10 -101 -21 -129q-10 -25 -37 -41q-14 -8 -27 -8q-10 0 -20 6q-10 5 -13 22q-3 13 -3 28q0 7 1 14q1 25 4 47.5t7.5 49 t5.5 36.5q31 273 36 332q1 12 3 50.5t4.5 56.5t9 45.5t19.5 42t32 20.5z" />
<glyph unicode="m" horiz-adv-x="670" d="M155 300q8 5 43 52q1 2 12 16l14 20q3 5 13.5 18t17 19t16 13.5t18.5 11.5q16 9 29 9q3 0 6 -1q16 -3 27.5 -8.5t19.5 -22.5t13 -32.5t8 -39t4 -42.5t1 -42q43 39 56 59q7 11 23.5 32t21.5 28l8 12l11 14l11 15q7 9 13 14t14.5 11t16 8t17 2t19.5 -4q9 -4 15 -13.5 t8 -25.5t3 -31v-12v-24q-2 -21 -4 -34l-4 -34q-2 -21 -3 -26q0 -2 -9 -104q-9 -93 -14 -105q-14 -34 -52 -37h-5q-35 0 -44 41q-2 8 -2 23q0 31 8 94q1 4 4 25t4 30t1 25.5t-2 30.5q-23 -12 -40 -46l-21 -37l-25 -42q-9 -17 -23.5 -37.5t-28.5 -33.5q-16 -15 -38 -22 q-9 -3 -18 -3q-12 0 -22 4q-13 6 -18 17.5t-5 19.5q0 11 6 55q2 14 7 41.5l8 44.5q1 11 1 26v12q-1 21 -7 36q-10 -2 -19 -9.5t-13.5 -14t-13 -21.5t-10.5 -19l-16 -26l-17 -28l-15 -26q-9 -15 -16 -30t-13 -32q-25 -61 -45 -72q-12 -7 -32.5 -7.5t-28.5 4.5q-14 8 -15 34 q-1 6 -1 12q0 21 4 44q1 11 3.5 55t5.5 69q5 50 9 113q2 81 11 103q10 25 33 36q7 4 18 4h5q14 -1 22 -8q18 -14 19 -57v-13q0 -37 -5 -76q-4 -34 -4 -48q0 -5 1 -7z" />
<glyph unicode="n" horiz-adv-x="461" d="M164 293q31 30 42 46q36 55 84 91q41 30 72 30q17 0 32 -10q9 -5 19 -28.5t12 -47.5q1 -8 1 -18q0 -40 -10 -114q-11 -95 -11 -124q0 -6 1 -18.5t1 -21t-2 -13.5q-10 -27 -48 -33q-8 -2 -14 -2q-28 0 -42 21q-1 15 -1 31q0 52 10 120q7 55 7 90q0 18 -2 31 q-9 -1 -17 -5.5t-16 -13.5l-13 -15q-5 -6 -13.5 -19t-11.5 -17q-23 -30 -33 -45.5t-20.5 -35t-19.5 -34.5q-3 -5 -19.5 -40.5t-31 -57.5t-26.5 -24q-11 -2 -20 -2q-17 0 -26 8q-13 13 -13 35q0 13 5 61q1 7 1 11q2 23 7 64t8.5 73.5t4.5 64.5q0 5 0.5 19t1 20.5t1 19 t2.5 19.5l3 17q2 10 5 16l8 12q4 6 10.5 9.5t13.5 4.5t12 1q15 0 24 -7q12 -10 15.5 -31t3.5 -43v-51q0 -28 3 -44z" />
<glyph unicode="o" horiz-adv-x="467" d="M200 490q27 5 51 5q72 0 123 -42q67 -56 70 -155q2 -12 2 -25q0 -44 -22 -87q-29 -54 -81 -92q-56 -37 -119 -37q-13 0 -26 2q-37 4 -76 23.5t-62 43.5q-36 53 -36 121v9q3 72 38 123l7 11q5 8 6.5 10t5.5 8t5 8l6 7q4 5 7 8t8 7.5t10 8.5l11 9q38 29 72 34zM133 231 q6 -39 40 -61q22 -15 50 -15q15 0 31 4q25 7 51 33.5t32 58.5q3 17 3 32q0 43 -26 77q-30 39 -71 39q-9 0 -18 -2q-40 -7 -70 -63q-24 -43 -24 -82q0 -11 2 -21z" />
<glyph unicode="p" horiz-adv-x="494" d="M149 23q-4 -12 -5.5 -28t-3 -37.5t-2.5 -33.5q-4 -43 -26 -69q-16 -19 -41 -19q-9 0 -20 3q-10 3 -16 10t-7.5 19.5t-1.5 22.5t1.5 27t1.5 26q1 46 8 204q11 161 37 283q20 45 120 50q88 -4 140.5 -20t97.5 -65q33 -40 39 -100q1 -10 1 -20q0 -49 -24 -93 q-18 -33 -56.5 -68t-77.5 -54q-23 -16 -48 -22t-61.5 -9t-55.5 -7zM348 224q13 29 13 53q0 36 -27 63q-40 42 -103 42q-8 0 -17 -1t-15 -2t-11 -1.5t-8 -4t-5 -5t-4 -8t-2.5 -9t-2 -13t-2.5 -15.5q-20 -117 -20 -179q0 -12 1 -23h9q60 0 114 26q58 28 80 77z" />
<glyph unicode="q" d="M330 475h11q57 0 65 -30q1 -7 0.5 -13t-0.5 -10q-1 -7 -6 -29t-6 -30q-6 -39 -14.5 -126t-15.5 -131q-16 -156 -17 -164q-5 -23 -11.5 -77t-9.5 -70q-7 -29 -32 -39q-11 -4 -22 -4q-15 0 -30 8q-21 10 -21 50q0 33 7 68q1 13 4.5 33t4.5 31t0.5 24t-4.5 22 q-5 11 -16.5 19.5t-39 21t-31.5 14.5q-34 16 -74 52q-47 31 -56 114q-2 15 -2 29q0 65 36 117q24 33 55.5 51.5t87.5 38.5q72 27 137 30zM154 315q-26 -34 -28 -73v-6q0 -35 21 -62q29 -35 105 -52q15 56 21 120q2 17 6 42.5t6 43.5q1 13 1 24v11q-38 -1 -77.5 -15 t-54.5 -33z" />
<glyph unicode="r" horiz-adv-x="411" d="M160 489q4 -12 5.5 -25.5t1 -21.5t-2 -26t-1.5 -23q11 -4 25.5 2t32.5 17.5t26 14.5q59 22 92 22q7 0 12 -1q17 -2 31.5 -11t17.5 -23q1 -5 1 -10q0 -20 -15 -35q-17 -18 -37 -23q-57 -14 -81 -22q-31 -9 -70 -35.5t-39 -39.5q-1 -12 -2 -60t-4 -85.5t-8 -56.5 q-7 -24 -21 -30q-10 -5 -31 -5q-7 0 -15 1q-12 1 -24.5 8.5t-16.5 16.5q-1 3 -1 11q0 14 4 45q3 34 8.5 143.5t10.5 154.5q1 7 2.5 23t2.5 21l3 18q2 11 3 15l5 11q3 8 7 10.5t9.5 6.5t12.5 5.5t16 1.5h5q22 0 35 -15z" />
<glyph unicode="s" horiz-adv-x="393" d="M207 490h4q9 0 31 -2q29 -3 42 -8q78 -31 83 -76v-6q0 -13 -8 -25q-10 -14 -21 -21q-5 -7 -19 -3.5t-24 8t-24 13t-19 10.5q-27 7 -46 7q-41 0 -43 -33q-1 -10 7.5 -20.5t17.5 -17.5t21 -14.5t13 -8.5t14 -11t16 -12l14 -13q12 -10 16 -15t13 -15t13 -18l8 -19 q5 -11 6.5 -22t1.5 -23q-3 -76 -73 -123q-21 -14 -57 -20q-16 -2 -32 -2t-30 3q-64 14 -80 29q-12 11 -12 33q0 10 2 21q4 16 24 24q9 4 20 4q13 0 28 -6q24 -9 47 -9q3 0 7 1q25 1 51 37q2 12 -3.5 24t-18 23.5t-22.5 19t-26 18t-20 13.5q-76 56 -79 100q-1 7 -1 14 q0 16 3 35q5 26 15 39q46 57 140 67z" />
<glyph unicode="t" horiz-adv-x="449" d="M285 479q11 -8 29 -8q9 0 18 1q24 5 48 5q9 0 18 -1q35 -2 39 -22q1 -7 1 -14q0 -13 -4 -26q-8 -19 -24 -27q-15 -8 -68.5 -12.5t-62.5 -12.5q-7 -6 -12.5 -28.5t-8 -43.5t-5.5 -50t-3 -31q-5 -51 -15 -117q-1 -5 -4 -27.5t-7 -39.5t-10 -37.5t-17 -33t-25 -14.5h-9 q-13 0 -27 4q-20 6 -25 16q-1 3 -1 9q0 9 2 23q4 26 10 54t7 32q15 88 16 112q2 14 11 142q-5 11 -32 11q-11 0 -26 -2q-26 -3 -41.5 -3t-21.5 3q-15 8 -21 27q-4 11 -4 20q0 6 2 12q2 14 13.5 27.5t26.5 19.5q5 1 51 5t55 10q6 4 11 17.5t7 25t5 30.5t3 22q1 8 4 34t5.5 36 t10.5 26.5t22.5 23.5t37.5 8h7q28 0 33 -15q1 -6 1 -13q0 -13 -6 -30q-2 -16 -9 -47q-8 -34 -8 -49t3 -52z" />
<glyph unicode="u" horiz-adv-x="428" d="M135 440q18 -11 19 -38q1 -5 1 -11q0 -20 -5 -38q-1 -9 -3 -29q-4 -30 -5.5 -46.5t-2.5 -45.5v-10q0 -22 3 -36q5 -16 13 -32.5t25 -21.5q9 -3 19 -3q11 0 24 3q27 4 47.5 54t24.5 99q1 11 1 44v39v20q0 48 4 55q6 21 34 30q13 4 23 4q11 0 18 -5q30 -17 30 -128v-21 q-2 -67 -19 -126q-26 -93 -80 -135q-38 -30 -101 -30q-25 0 -55 5q-100 24 -112 123q-3 27 -3 72q0 27 1 61q2 36 5.5 57.5t13 45.5t29.5 34q18 10 46 10h5z" />
<glyph unicode="v" horiz-adv-x="455" d="M188 169q16 27 47.5 91t48.5 91q7 13 19 42t23 46.5t26 28.5q15 12 32 12q8 0 16 -2q25 -8 33 -36q5 -26 5 -28q0 -8 -4 -18q-6 -13 -10 -20l-12 -18l-12 -20l-131 -238q-37 -63 -61 -80q-17 -13 -34 -13l-14 2q-14 3 -23 15.5t-12.5 25t-9.5 38.5q-1 6 -2 9 q-10 38 -45 143t-38 133q-5 15 -5 27q0 17 9 30q13 18 42 24q7 1 13 1q20 0 34 -14q9 -10 29 -94q26 -106 36 -178z" />
<glyph unicode="w" horiz-adv-x="680" d="M167 131q24 6 46 46.5t40 84.5t30 53q19 9 34 9q18 0 30 -14q12 -15 25.5 -61.5t25.5 -83.5t23 -39h1q17 0 52 52q36 55 48 103q6 25 16.5 94.5t18.5 87.5q14 21 45 23q3 1 5 1q28 0 45 -24q1 -13 1 -27q0 -109 -45 -216q-49 -120 -121 -169q-49 -32 -85 -32 q-26 0 -45 16q-9 8 -31.5 51.5t-25.5 44.5q-2 1 -7.5 -6t-13.5 -19l-17 -23q-8 -12 -17 -23t-15 -15q-28 -24 -75.5 -24t-69.5 35q-7 10 -12 22.5t-9.5 34t-6.5 30t-7 38.5t-5 32q-4 29 -7 69q-3 26 -3 57q0 17 1 37q2 52 14 67q14 17 41 17h5q31 -2 42 -20q6 -9 6 -40 t-2 -70q-1 -25 -1 -39v-11q10 -128 26 -149z" />
<glyph unicode="x" horiz-adv-x="447" d="M215 151q-23 -10 -64.5 -66t-71.5 -64q-11 -3 -21 -3q-26 0 -38 26q-2 6 -2 12q-1 4 -1 7t1 5q0 5 3 12t5 11t6.5 10.5t6.5 8.5l7 10q5 6 6 7q10 12 22.5 24.5t26.5 28.5q51 56 56 64l-51 63q-52 63 -59 92q-2 8 -2 15q0 18 11 31q16 18 35 19h2q18 0 27 -8q16 -8 52 -66 l28 -36q23 -31 31 -39q7 3 40 45.5t71 76.5q28 26 50 26q6 0 12 -2q32 -13 32 -36q0 -24 -29 -62q-32 -42 -70 -80.5t-42 -45.5q15 -36 71 -106l12 -15l12 -17q5 -6 11.5 -15.5t10 -17.5t4.5 -16q1 -5 1 -10q0 -21 -19 -34q-13 -9 -27 -9q-11 0 -24 6q-26 13 -69.5 73 t-62.5 75z" />
<glyph unicode="y" horiz-adv-x="450" d="M250 156q6 10 45 143t60 158q6 8 16 13t21 6h3q10 0 20 -6q11 -7 18 -23q3 -7 3 -20q0 -48 -42 -179q-55 -167 -111 -268l-29 -58q-26 -51 -47 -75q-1 -1 -7 -9l-11 -13q-5 -6 -14.5 -15t-18 -15t-19.5 -12t-21 -7q-4 -1 -9 -1q-6 0 -13 1q-12 3 -23 11 q-15 11 -17.5 23.5t5.5 25t17.5 22.5t22.5 20.5t16 14.5q53 59 71 139q1 14 -6 28.5t-19 32t-17 27.5q-9 20 -41 77.5t-46 98.5l-10 24q-8 20 -11.5 30t-6.5 26q-2 10 -2 18q0 6 1 11q5 36 32 53q13 10 28 10q14 0 28 -8q3 -2 6 -5t6 -8l4 -9q2 -4 4 -11.5t3.5 -12 t3.5 -12.5l3 -13q55 -168 104 -233z" />
<glyph unicode="z" horiz-adv-x="410" d="M364 428q2 -11 2 -21q0 -12 -3 -23q-6 -20 -13 -29t-25 -24.5t-24 -21.5q-10 -11 -43.5 -42t-59.5 -58.5t-37 -47.5q9 -6 97 -11q13 0 34 0.5t30.5 0.5t21.5 -3t17.5 -11t8.5 -22q1 -5 1 -9q0 -21 -17 -32q-19 -14 -49 -15h-7q-32 0 -156 6q-5 0 -20 1l-22 2 q-7 0 -19.5 1.5t-19.5 4t-15 6t-12.5 9.5t-5.5 13v6q0 9 2 20q3 13 7.5 23t13.5 23t15 19l16 17q10 12 11 14q25 30 70.5 75.5t68.5 63.5q-13 5 -54 5h-9q-5 -1 -10 -1q-43 0 -77 5q-38 4 -42 22q-1 6 -1 12q0 25 15 35q27 18 144 18q30 0 67 -1q82 0 99 -30z" />
<glyph unicode="{" horiz-adv-x="399" d="M150 412q-9 25 -31.5 39.5t-43 29.5t-26.5 43q-4 17 -4 35q0 47 30 93q41 63 99 99q20 13 68 29q46 14 74 14h4q20 -1 37 -11.5t21 -24.5q1 -5 1 -10q0 -14 -9 -31q-14 -23 -30 -30q-12 -6 -30 -6q-4 0 -8 1h-19q-11 0 -21 -1q-34 -7 -68 -39q-33 -31 -33 -59 q0 -22 21 -47q18 -22 39 -37.5t37 -38.5t16 -48q0 -17 -19 -40t-37 -39l-19 -16q7 -4 18 -11t30 -24.5t19 -34.5q0 -41 -51 -104q-6 -7 -21 -22l-24 -25q-9 -11 -16 -24.5t-6 -23.5q5 -40 86 -40q9 0 19 1q11 1 27 3l24 3q8 1 16 -1.5t12 -10.5q7 -12 7 -25.5t-7 -27.5 q-14 -29 -38 -34q-24 -6 -53 -6q-44 0 -99 15q-90 25 -107 68q-6 22 -6 41q0 11 1 21q6 28 20 50q7 11 34.5 36t46.5 47q17 21 17 36q0 14 -12 21q-10 6 -26.5 9t-21.5 5q-34 15 -50 30q-17 16 -17 44q0 22 12 33q13 12 44 23q14 5 35 10t38 13z" />
<glyph unicode="|" horiz-adv-x="201" d="M174 813v-63q0 -65 -1 -138q-2 -110 -5 -190l-8 -216q-6 -136 -8 -206q-1 -14 -1 -36.5t-0.5 -34.5t-2 -28t-5.5 -30q-6 -20 -27 -35q-19 -14 -41 -14h-5q-24 2 -38 26q-8 15 -8 104q0 29 4 90.5t4 85.5q0 113 10 318q1 24 2.5 86t3.5 97q1 16 1.5 46t1 47t4.5 40 t10.5 36t20 23t32.5 12h7q29 0 49 -20z" />
<glyph unicode="}" horiz-adv-x="357" d="M164 331q-40 55 -40 92q0 4 1 8q2 21 31 68q25 43 25 69v6q-4 31 -48 49q-11 5 -44.5 10t-53 16t-19.5 36t18 43q15 15 46 15q8 0 18 -1q13 -1 72 -22q46 -18 85 -46.5t44 -61.5q4 -4 1 -18t-3 -18t-5 -18l-6 -17l-8.5 -17t-7.5 -16l-9 -18l-10 -21q-4 -8 -6.5 -19 t-1.5 -19q2 -32 35 -47q59 -22 62 -47v-6q0 -35 -48 -61q-11 -6 -30 -11.5t-30 -10.5q-12 -7 -12 -20q0 -10 16 -30q18 -22 37 -52t19 -57q0 -104 -127 -156q-17 -7 -39 -8h-3q-20 0 -37 9q-20 12 -20 37q0 20 10 31q12 13 37 22l16 6q13 4 18 6t15 7t15 9t9 11t4 15 q0 34 -45 68q-47 33 -54 74q-2 9 -2 18q0 28 18 50q23 29 57 43z" />
<glyph unicode="~" horiz-adv-x="667" d="M598 360q29 -22 29 -52q0 -9 -3 -19q-11 -42 -59 -87q-74 -67 -150 -67q-16 0 -32 3q-17 3 -36.5 14.5t-30.5 23.5q-14 14 -34.5 55.5t-37.5 44.5q-8 2 -20 -1.5t-20 -8.5l-22 -12l-19 -11q-11 -5 -31.5 -18t-36 -20t-28.5 -7q-28 1 -39 34q-3 11 -3 21q0 19 12 33 q27 32 73 62q88 56 164 58h4q27 0 44 -14q19 -16 28 -38l18 -46q8 -22 25 -36q15 -13 38 -13h6q24 2 48.5 22.5t40.5 43t35 34.5q10 6 20 6q8 0 17 -5z" />
<glyph unicode="&#xa1;" horiz-adv-x="250" d="M99 -12q-11 -5 -31 -5h-7q-25 1 -33 13q-8 10 -8 30q0 13 3 24q3 14 7.5 31.5t5.5 25.5q4 29 13.5 109.5t15.5 123.5q13 86 26 103q11 15 35 25q16 8 33 8q8 0 15 -2q25 -5 31 -30q2 -15 2 -26q0 -9 -1 -15q-3 -14 -12 -48t-12 -52q-23 -139 -23 -142q-2 -15 -3.5 -42 t-3.5 -44t-7 -36.5t-16.5 -32t-29.5 -18.5zM170 632q-8 -2 -15 -2q-27 0 -41 20q-7 12 -7 25q0 16 11 33q14 21 44 26q8 2 16 2q21 0 38 -10q24 -14 24 -41q0 -19 -12 -30t-24 -15t-34 -8z" />
<glyph unicode="&#xa2;" horiz-adv-x="470" d="M403 321q-29 -12 -88 -12q-3 -14 -6 -62t-6 -67q8 -5 21 -5q10 0 22 3q25 6 52 6h12q33 -2 40 -23q2 -6 2 -13q0 -18 -12 -40q-15 -29 -39 -34q-13 -3 -47.5 -4.5t-48.5 -5.5h-1q-11 -4 -17 -16t-10 -29.5t-9 -25.5q-11 -20 -42 -20q-14 0 -33 5q-16 4 -16 24 q0 1 0.5 5.5t0.5 7.5q0 18 -5 29q-8 11 -37 22.5t-33 14.5q-62 41 -71 125q-1 12 -1 24q0 68 44 118q52 58 142 89q2 7 8 35.5t11 36.5t22 17q16 9 37 9q1 0 2 -1q22 0 33 -19q4 -3 4 -15q0 -10 -2 -25q-6 -29 -6 -40q0 -3 1 -4t6 -3t17 -4q22 -4 46.5 -13.5t28.5 -26.5 q3 -12 3 -22q0 -29 -25 -41zM196 184q14 38 14 102v16h-6q-15 0 -28 -9q-15 -11 -21 -28q-6 -16 -6 -32q0 -19 13 -33t34 -16z" />
<glyph unicode="&#xa3;" horiz-adv-x="621" d="M249 154q18 -6 46 -10.5t40 -9.5q28 -13 49 -33t39 -33t51 -15q6 0 42 5q16 2 26 2q13 0 18 -3q8 -2 17 -17q8 -13 8 -28q0 -22 -20 -39q-18 -15 -34 -19q-37 -10 -70 -10q-53 0 -94 27q-11 7 -33.5 25t-42 31t-34.5 16q-9 2 -19 2q-24 0 -55 -11q-44 -17 -60 -17 q-22 0 -43 15t-22 33q0 18 27.5 46.5t34.5 45.5q9 21 12 59q2 17 2 28q0 12 -2 15q-5 10 -30 14t-30 7q-12 6 -22 21q-9 14 -9 26q0 25 21 35q20 9 42 12q25 2 25 12q0 9 -5 34l-14 74q-8 41 -9 57v8q0 88 63 133q64 46 155 46h4q66 -1 108 -25.5t85 -75.5q46 -53 46 -82 q0 -23 -28 -39q-21 -12 -40 -12q-4 0 -8 1q-15 3 -28 19l-36 46q-24 29 -57 53q-20 15 -54 15q-9 0 -20 -2q-48 -5 -60 -26q-8 -19 -8 -56q0 -28 5 -66q11 -89 23 -102q1 -1 8 -1q11 0 36 3q18 1 35 1q23 0 46 -3q39 -6 43 -33v-8q0 -41 -46 -54q-8 -2 -34 -4t-48 -6.5 t-29 -13.5q-9 -12 -12 -29q-2 -10 -2 -27v-17q1 -18 1 -28v-12z" />
<glyph unicode="&#xa5;" horiz-adv-x="621" d="M374 383q7 -10 29 -10q6 0 12 1q32 3 57 6h5q21 0 32 -18q4 -12 4 -23q0 -13 -5 -25q-10 -24 -29 -32q-10 -4 -48.5 -7t-64.5 -11q-22 -7 -22 -22q0 -19 36 -21q33 -2 67.5 -5t39.5 -19q6 -14 6 -29q0 -9 -3 -19q-5 -26 -26 -35q-5 -2 -34 -2h-35q-11 1 -20 1 q-41 0 -43 -6q-1 -1 -2.5 -39.5t-13.5 -55.5q-9 -14 -41 -14q-8 0 -17 1q-15 2 -22.5 13t-8.5 23.5t-2.5 36t-3.5 38.5q-13 13 -41 13q-3 0 -6 -1q-33 -1 -56 -4q-3 -1 -7 -1q-19 0 -33 17q-8 16 -8 31q0 7 2 13q5 20 20 31q8 6 44.5 7.5t66.5 7.5q31 6 31 26q0 17 -30 20 q-13 2 -26 2q-19 0 -39 -3q-17 -4 -34 -4q-11 0 -23 2q-28 4 -41 26q-1 9 -1 17q0 35 14 50q13 15 36 18q11 2 25 2q16 0 35 -2q36 -4 43 -4q-10 19 -46 102.5t-61 119.5q-2 5 -8.5 15.5t-10 17t-6.5 17t-3 21.5q2 29 26 51q17 14 36 14q9 0 18 -3q18 -6 44 -63l22 -46 l27 -52l24 -48q28 -53 39 -53q6 0 15 7t20 20l20 24q9 11 18.5 24t10.5 14l38 48q24 33 42 54t40 39q14 12 34 17q6 1 13 1q13 0 25 -7q19 -9 22 -36v-6q0 -41 -78 -113q-85 -87 -140 -170z" />
<glyph unicode="&#xa8;" horiz-adv-x="364" d="M111 680q7 1 13 1q31 0 36 -33q1 -7 1 -14q0 -29 -21 -54q-17 -19 -37 -19h-6q-22 2 -33 19q-10 13 -10 32q0 5 1 10q3 23 19 38.5t37 19.5zM260 555h-4q-33 0 -38 37q-1 6 -1 13q0 30 20 53q15 16 31 16q12 0 25 -8q19 -12 25 -38q2 -7 2 -15q0 -18 -11 -34 q-15 -23 -49 -24z" />
<glyph unicode="&#xa9;" horiz-adv-x="803" d="M362 748q19 3 39 3q49 0 100 -18q71 -25 126 -72.5t91.5 -112t39.5 -130.5q1 -14 1 -27q0 -152 -85 -264q-91 -122 -236 -135q-21 -2 -42 -2q-72 0 -138 24q-85 32 -143 103.5t-63 170.5q-1 20 -1 41q0 36 3 72q6 55 26 114.5t53.5 105.5t92.5 81t136 46zM282 602 q-75 -46 -104 -154q-15 -54 -15 -104q0 -48 14 -92q13 -40 52.5 -75.5t88.5 -53.5t101 -21h9q46 0 79 24q79 52 111 153q15 44 15 89q0 59 -24 120q-37 83 -144 121q-49 17 -91 17q-51 0 -92 -24zM410 511q8 1 16 1q23 0 44 -6q29 -9 33 -30q2 -8 2 -15q0 -16 -8 -29 q-11 -18 -27 -22q-15 -3 -42 -5.5t-41 -7.5t-21 -20q-4 -12 -4 -24q0 -8 2 -17q5 -19 17 -27q15 -10 71.5 -10t61.5 -18q2 -8 2 -15q0 -18 -11 -36q-16 -27 -43 -33q-7 -2 -17 -2q-21 0 -55 7q-51 11 -72 19q-33 13 -52 51q-19 35 -19 78q0 4 1 7q1 47 25 84q17 27 57.5 47 t79.5 23z" />
<glyph unicode="&#xaa;" d="M109 374q-22 8 -27 37v7q0 22 15 36q18 16 50 30q55 28 93 38q20 6 41 6q20 0 41 -5q27 -10 49.5 -42t28.5 -71q3 -15 4 -33v-17v-14q-1 -14 -3 -35l-3 -31l-6 -31q-3 -22 -4 -26q-22 -117 -37 -167q-6 -18 -23.5 -37.5t-33.5 -21.5q-4 -1 -10 -1q-11 0 -27 2 q-25 4 -38 10q-37 14 -56.5 23t-45 26t-46.5 39q-38 33 -41 60q-3 12 -3 24q0 46 40 86q28 28 77 44q19 6 55 9.5t62.5 7t33.5 12.5q9 14 9 29q0 13 -7 27q-14 30 -34 33q-39 -6 -87 -30q-47 -24 -66 -24h-1zM218 233q-66 -3 -87 -32q1 -68 123 -86q34 9 34 113q-7 6 -41 6 q-13 0 -29 -1z" />
<glyph unicode="&#xab;" horiz-adv-x="545" d="M165 262q9 -12 19.5 -20.5t26.5 -18.5t24 -16q43 -29 50 -51q3 -8 3 -16q0 -18 -15 -32q-18 -18 -47 -18h-9q-6 0 -17.5 6.5t-23.5 15t-14 9.5q-42 28 -81 64q-42 39 -42 64q0 41 95 107q59 41 108 66q10 7 27 7q3 0 7 -1q21 -1 27 -14t6 -24q0 -21 -21 -36 q-11 -9 -40 -27.5t-52.5 -35.5t-30.5 -29zM383 252q0 -2 29.5 -16.5t60.5 -34.5t33 -36v-7q0 -17 -13 -30t-35 -13h-8q-15 1 -45 17q-1 0 -17 10l-26 16l-28 18q-18 12 -28.5 21.5t-22.5 21.5t-17 23q-4 9 -4 17q0 13 17 31q16 16 30 24q67 38 141 67q5 2 10 2q11 0 24 -8 q19 -11 21 -24v-5q0 -20 -27 -40q-30 -21 -62.5 -35.5t-32.5 -18.5z" />
<glyph unicode="&#xad;" horiz-adv-x="521" d="M83 321q20 3 176 3q13 0 61 2h42.5h33.5q29 -2 47 -7q26 -8 37 -37q6 -13 6 -28q0 -14 -6 -29q-4 -9 -17.5 -15.5t-38 -9.5t-40.5 -4t-48.5 -1.5t-38.5 -0.5q-59 -2 -104 -2q-104 0 -129 10q-18 6 -28 26t-9 44q0 43 56 49z" />
<glyph unicode="&#xae;" horiz-adv-x="833" d="M433 743q94 -1 180.5 -65t135.5 -162q42 -84 42 -168q0 -13 -1 -27q-9 -96 -36.5 -160.5t-78 -101t-117.5 -50.5q-58 -12 -137 -12h-23q-170 3 -268 106q-83 86 -83 224q0 27 3 55q41 361 376 361h7zM340 625q-58 -12 -104 -69.5t-65 -133.5q-10 -40 -10 -77q0 -33 8 -64 q15 -58 54.5 -100t88.5 -59t104 -24q20 -2 38 -2q35 0 65 8q99 18 133 121q15 44 15 91q0 60 -24 125q-44 117 -139 165q-49 25 -106 25q-28 0 -58 -6zM368 530q22 5 46 7q9 1 19 1q15 0 32 -2q26 -4 45.5 -19t23.5 -40q2 -12 2 -23q0 -14 -4 -27q-5 -22 -15 -32 t-18.5 -17.5t-8.5 -9.5q8 -22 47 -62t47 -63q-6 -24 -28 -33q-17 -6 -33 -6h-12q-22 4 -33 14q-10 9 -25.5 36.5t-31.5 45.5q-15 18 -31 18h-2q-13 -1 -18.5 -16.5t-8 -40.5t-6.5 -35q-5 -12 -21 -14q-6 -1 -13 -1q-11 0 -22 2q-11 0 -18.5 5.5t-10.5 15.5t-5 20q-1 6 -1 13 v12q2 15 3 26t3.5 27t3.5 23q11 88 22 114q20 48 72 61zM378 433q-2 -14 -2 -21q5 -3 14 -3q11 0 28 5q30 11 31 25q0 19 -17 24q-7 2 -13 2q-11 0 -23 -7q-18 -9 -18 -25z" />
<glyph unicode="&#xb0;" horiz-adv-x="409" d="M253 685q61 -3 97 -48q32 -41 32 -90v-11q-2 -26 -26.5 -67.5t-45.5 -60.5q-34 -31 -82 -40q-15 -3 -31 -3q-33 0 -67 13q-32 13 -61 45q-26 29 -26 65v7q1 21 14.5 49.5t30.5 49.5q75 91 157 91h8zM188 482q21 -12 42 -12h12q28 5 33 31q2 8 2 15q0 26 -19.5 45.5 t-41.5 19.5q-6 0 -13 -2q-18 -4 -31 -20q-11 -15 -11 -32q0 -28 27 -45z" />
<glyph unicode="&#xb2;" horiz-adv-x="468" d="M205 151q9 -3 30 -3q31 0 87 6q32 3 55 3q46 0 56 -13q9 -11 9 -30q0 -12 -4 -27q-10 -38 -35 -46q-49 -8 -160 -8q-51 0 -114 2q-29 1 -49 11q-22 11 -22 30q0 16 6 34q7 22 16 36.5t23 34.5t17 26q16 27 40 62l40 63q18 28 34 63q3 7 11.5 21.5t13.5 25t10 24.5t5 28 t-6 27q-4 8 -8.5 13t-10.5 6t-12 0.5t-13.5 -4.5t-13.5 -7.5t-14 -10.5l-13 -10q-5 -4 -12 -10.5t-10 -8.5q-10 -8 -28.5 -30t-35 -35t-33.5 -14h-3q-22 0 -33.5 14t-11.5 35q0 32 50 83q50 49 87 69q24 21 69 28q15 2 30 2q30 0 60 -9q44 -15 57 -53q4 -25 4 -49 q0 -43 -13 -83q-22 -63 -67 -139l-39 -63q-37 -58 -49 -94z" />
<glyph unicode="&#xb3;" horiz-adv-x="483" d="M259 661q10 1 21 1q46 0 96 -24q63 -30 68 -79q2 -8 2 -18q0 -34 -36 -79q-46 -55 -73 -64q10 -4 24.5 -11t42 -30.5t34.5 -48.5q8 -28 8 -54q0 -33 -12 -63q-22 -55 -60 -93q-26 -26 -69.5 -49t-87.5 -29q-44 -8 -76 -8q-80 0 -86 48v6q0 18 9 32q11 17 30 24h24h26 q6 0 22.5 0.5t25 2.5t22.5 5t24 7.5t22.5 11.5t23.5 16q55 46 55 92q0 7 -1 13q-5 30 -36 43t-65.5 13.5t-63 10.5t-29.5 35q-1 13 1.5 23.5t5 17t12 13t13.5 9t19.5 9.5t21.5 10q110 55 110 87q0 26 -49 27q-6 1 -11 1q-35 0 -50 -9q-20 -6 -63.5 -32t-56.5 -31 q-10 -2 -19 -2q-16 0 -29 6q-21 9 -25 25q0 9 -1 15.5t-1 7.5q0 6 4 12q5 8 8.5 12.5t11.5 10.5l13 10l14 8t13 8q71 39 173 51z" />
<glyph unicode="&#xb4;" horiz-adv-x="364" d="M308 695q7 1 14 1q30 0 38 -28q1 -7 1 -13q0 -26 -25 -48q-23 -16 -50.5 -28.5t-73.5 -28t-61 -21.5q-3 -1 -16.5 -6.5t-19 -7.5t-17.5 -3q-4 -1 -7 -1q-6 0 -10 1q-6 3 -13.5 10.5t-11.5 20.5q-2 8 -2 15q0 11 5 20q9 17 30 29t42 21t48.5 19t38.5 15q70 30 90 33z" />
<glyph unicode="&#xb8;" horiz-adv-x="333" d="M172 21q41 -2 69.5 -15.5t42.5 -34.5t19.5 -41.5t5.5 -43.5q0 -42 -32 -84q-34 -46 -74 -63q-21 -9 -59 -14q-22 -3 -39 -3q-14 0 -26 2q-22 3 -30.5 14t-11.5 30v5q0 17 11 31q13 16 31 23q15 5 41 5h5q3 -1 6 -1q26 0 39 4q28 7 40 33q5 9 5 17q0 13 -12 22 q-16 7 -29.5 6t-36.5 -4.5t-31 -3.5q-30 1 -35 25q-2 9 -2 19q0 17 5 38q1 5 2 16t1.5 15.5t2 14t2.5 14t2.5 12t3 11.5t4 9.5t5 9t5.5 6.5q17 15 38 15q1 1 2 1q19 0 27 -13q4 -1 4 -18q0 -6 -1 -16q-1 -17 -1 -28q0 -10 1 -15z" />
<glyph unicode="&#xb9;" horiz-adv-x="287" d="M134 624q11 6 27 6q8 0 19 -2q28 -5 38 -29q3 -14 3 -25q0 -5 -1 -10q-2 -14 -9 -45t-9 -44q-6 -45 -14 -146.5t-13 -140.5q-2 -11 -3 -66.5t-10 -74.5q-9 -18 -33 -33q-20 -12 -37 -12h-6q-12 2 -20.5 9t-11.5 21t-4 24q-1 4 -1 10q0 8 1 21q3 20 4.5 27t4.5 26 q12 67 21.5 187t13.5 151q1 11 2 33l3 37q1 15 4.5 32t11 28t19.5 16z" />
<glyph unicode="&#xba;" horiz-adv-x="467" d="M200 490q27 5 51 5q72 0 123 -42q67 -56 70 -155q2 -12 2 -25q0 -44 -22 -87q-29 -54 -81 -92q-56 -37 -119 -37q-13 0 -26 2q-37 4 -76 23.5t-62 43.5q-36 53 -36 121v9q3 72 38 123l7 11q5 8 6.5 10t5.5 8t5 8l6 7q4 5 7 8t8 7.5t10 8.5l11 9q38 29 72 34zM133 231 q6 -39 40 -61q22 -15 50 -15q15 0 31 4q25 7 51 33.5t32 58.5q3 17 3 32q0 43 -26 77q-30 39 -71 39q-9 0 -18 -2q-40 -7 -70 -63q-24 -43 -24 -82q0 -11 2 -21z" />
<glyph unicode="&#xbb;" horiz-adv-x="606" d="M333 452q17 -2 68.5 -25t83.5 -45q3 -2 18 -11t24.5 -15.5t21.5 -15.5t19 -16.5t8 -14.5q1 -4 1 -7q0 -23 -21 -51q-88 -113 -181 -175q-14 -7 -27 -7q-9 0 -18 3q-21 8 -26 27q-1 5 -1 11q0 10 4 20q6 15 12.5 22.5t23.5 21.5t18 15q71 68 71 82q0 6 -71 47t-79 64 q-2 4 -2 9q0 14 11 35q13 26 36 26h6zM176 256q-8 13 -72 50q-64 36 -64 53q0 22 24 41q23 18 43 18q25 -4 52 -18.5t57.5 -36t43.5 -28.5q44 -28 55 -48q7 -12 7 -27q0 -13 -6 -27q-23 -37 -85.5 -73.5t-121.5 -56.5q-15 1 -27 13t-15 25q-1 6 -1 11q0 19 16 34 q20 21 52.5 39.5t41.5 30.5z" />
<glyph unicode="&#xbf;" horiz-adv-x="468" d="M245 546q21 5 36 5q42 0 48 -37q14 -91 14 -126v-11q-2 -9 -6 -16t-12 -13.5t-13 -10t-18 -10t-18 -9.5q-14 -10 -44 -27l-48 -28q-18 -11 -36.5 -31.5t-25.5 -44.5q-1 -28 19 -46.5t45 -20.5h6q37 0 76 35q42 38 61 73q5 9 9.5 28t12 30t23.5 15q5 1 10 1q17 0 36 -11 q25 -14 29 -31q1 -4 1 -10q0 -34 -46 -104q-40 -61 -120 -96q-43 -18 -85 -18q-37 0 -74 15q-49 19 -81 55q-30 33 -30 79v9q4 54 39.5 93t93 75t76.5 56q1 5 1 12q0 14 -4 36q-3 20 -3 36q0 11 1 20q4 22 27 28zM288 624q-12 -3 -23 -3q-25 0 -43 19q-14 14 -14 29 q0 14 10 28q14 19 40 19q10 0 22 -2q41 -11 45 -40q1 -4 1 -8q0 -31 -38 -42z" />
<glyph unicode="&#xc0;" horiz-adv-x="488" d="M176 190q-10 -36 -32 -92t-40 -84q-18 -17 -40 -17q-8 0 -16 3q-36 9 -36 35q0 8 2 19q4 14 12 37t11 31q53 160 155 418q6 15 18 54t20.5 59.5t27 40.5t43.5 22h8q34 0 42 -31q3 -9 8 -65q10 -88 39 -227t37 -190q4 -24 16.5 -82.5t16.5 -80.5q-1 -21 -25 -36 q-22 -13 -42 -13h-3q-26 3 -37.5 47t-19.5 100.5t-21 76.5q-7 -1 -43.5 -5t-60 -8.5t-40.5 -11.5zM275 473h-9q-13 -25 -30.5 -82t-21.5 -92q8 -2 19 -2q13 0 29 3q31 5 41 14v6q0 31 -9 82q-9 55 -19 71zM145 963h5q10 0 18 -3q10 -4 24.5 -14.5t22.5 -14.5l38 -23l48 -28 q22 -13 40 -22l11 -6q8 -4 11 -6t9 -5.5t9 -6t6.5 -6t6 -7t3.5 -7.5q3 -10 3 -20q0 -16 -8 -32q-14 -26 -29 -30q-2 -2 -7 -2q-3 0 -8 1q-11 3 -15 3t-14.5 6t-13 8t-12 9t-11.5 8q-29 20 -74 45.5t-66 38.5q-17 11 -24 16.5t-16 18.5q-7 12 -7 26q0 46 50 53z" />
<glyph unicode="&#xc1;" horiz-adv-x="488" d="M176 190q-10 -36 -32 -92t-40 -84q-18 -17 -40 -17q-8 0 -16 3q-36 9 -36 35q0 8 2 19q4 14 12 37t11 31q53 160 155 418q6 15 18 54t20.5 59.5t27 40.5t43.5 22h8q34 0 42 -31q3 -9 8 -65q10 -88 39 -227t37 -190q4 -24 16.5 -82.5t16.5 -80.5q-1 -21 -25 -36 q-22 -13 -42 -13h-3q-26 3 -37.5 47t-19.5 100.5t-21 76.5q-7 -1 -43.5 -5t-60 -8.5t-40.5 -11.5zM275 473h-9q-13 -25 -30.5 -82t-21.5 -92q8 -2 19 -2q13 0 29 3q31 5 41 14v6q0 31 -9 82q-9 55 -19 71zM381 911q7 1 14 1q30 0 37 -28q2 -7 2 -13q0 -26 -25 -48 q-23 -16 -50.5 -28.5t-73.5 -28t-61 -21.5q-3 -1 -16.5 -6.5t-19 -7.5t-16.5 -3q-5 -1 -8 -1q-6 0 -10 1q-6 3 -13.5 10.5t-11.5 20.5q-2 8 -2 15q0 11 5 20q9 17 30 29t42 21t48.5 19t38.5 15q70 30 90 33z" />
<glyph unicode="&#xc2;" horiz-adv-x="488" d="M176 190q-10 -36 -32 -92t-40 -84q-18 -17 -40 -17q-8 0 -16 3q-36 9 -36 35q0 8 2 19q4 14 12 37t11 31q53 160 155 418q6 15 18 54t20.5 59.5t27 40.5t43.5 22h8q34 0 42 -31q3 -9 8 -65q10 -88 39 -227t37 -190q4 -24 16.5 -82.5t16.5 -80.5q-1 -21 -25 -36 q-22 -13 -42 -13h-3q-26 3 -37.5 47t-19.5 100.5t-21 76.5q-7 -1 -43.5 -5t-60 -8.5t-40.5 -11.5zM275 473h-9q-13 -25 -30.5 -82t-21.5 -92q8 -2 19 -2q13 0 29 3q31 5 41 14v6q0 31 -9 82q-9 55 -19 71zM283 955q48 -4 119 -68q60 -53 68 -94q1 -5 1 -9q0 -20 -15 -36 q-16 -19 -39 -19h-5q-14 1 -26 9t-18 14l-19 24q-2 3 -7.5 9.5t-9 11l-8.5 10.5l-10 10q-4 4 -8.5 8t-8.5 6t-7 2q-15 0 -40 -27.5t-37 -47.5q-15 -25 -38 -26q-2 -1 -3 -1q-21 0 -35 18q-5 6 -5 17.5t5 27.5q10 33 22 52q23 37 63 74q37 35 59 35h2z" />
<glyph unicode="&#xc3;" horiz-adv-x="488" d="M176 190q-10 -36 -32 -92t-40 -84q-18 -17 -40 -17q-8 0 -16 3q-36 9 -36 35q0 8 2 19q4 14 12 37t11 31q53 160 155 418q6 15 18 54t20.5 59.5t27 40.5t43.5 22h8q34 0 42 -31q3 -9 8 -65q10 -88 39 -227t37 -190q4 -24 16.5 -82.5t16.5 -80.5q-1 -21 -25 -36 q-22 -13 -42 -13h-3q-26 3 -37.5 47t-19.5 100.5t-21 76.5q-7 -1 -43.5 -5t-60 -8.5t-40.5 -11.5zM275 473h-9q-13 -25 -30.5 -82t-21.5 -92q8 -2 19 -2q13 0 29 3q31 5 41 14v6q0 31 -9 82q-9 55 -19 71zM427 872q17 -9 17 -25v-6q-4 -21 -15.5 -40.5t-25.5 -31.5 q-37 -32 -70 -32q-26 0 -49 20q-8 6 -18 27t-20 23q-9 1 -18.5 -5.5t-15 -13t-13.5 -18t-9 -13.5q-13 -14 -28 -14q-3 0 -6 1q-19 4 -22 23v6v10q2 8 4 13l8 12q4 7 5 9q12 21 35 44q11 12 28 21q17 8 38 8h2q23 -1 40 -16q5 -5 20 -33.5t29 -29.5q11 0 22 12t18 25.5 t18.5 21.5t25.5 2z" />
<glyph unicode="&#xc4;" horiz-adv-x="488" d="M176 190q-10 -36 -32 -92t-40 -84q-18 -17 -40 -17q-8 0 -16 3q-36 9 -36 35q0 8 2 19q4 14 12 37t11 31q53 160 155 418q6 15 18 54t20.5 59.5t27 40.5t43.5 22h8q34 0 42 -31q3 -9 8 -65q10 -88 39 -227t37 -190q4 -24 16.5 -82.5t16.5 -80.5q-1 -21 -25 -36 q-22 -13 -42 -13h-3q-26 3 -37.5 47t-19.5 100.5t-21 76.5q-7 -1 -43.5 -5t-60 -8.5t-40.5 -11.5zM275 473h-9q-13 -25 -30.5 -82t-21.5 -92q8 -2 19 -2q13 0 29 3q31 5 41 14v6q0 31 -9 82q-9 55 -19 71zM233 876q7 1 13 1q31 0 36 -33q1 -7 1 -14q0 -29 -21 -54 q-17 -19 -37 -19h-6q-22 2 -33 19q-10 13 -10 32q0 5 1 10q3 23 19 38.5t37 19.5zM382 751h-4q-33 0 -38 37q-1 6 -1 13q0 30 20 53q15 16 31 16q12 0 25 -8q19 -12 25 -38q2 -7 2 -15q0 -18 -11 -34q-15 -23 -49 -24z" />
<glyph unicode="&#xc5;" horiz-adv-x="488" d="M176 190q-10 -36 -32 -92t-40 -84q-18 -17 -40 -17q-8 0 -16 3q-36 9 -36 35q0 8 2 19q4 14 12 37t11 31q53 160 155 418q6 15 18 54t20.5 59.5t27 40.5t43.5 22h8q34 0 42 -31q3 -9 8 -65q10 -88 39 -227t37 -190q4 -24 16.5 -82.5t16.5 -80.5q-1 -21 -25 -36 q-22 -13 -42 -13h-3q-26 3 -37.5 47t-19.5 100.5t-21 76.5q-7 -1 -43.5 -5t-60 -8.5t-40.5 -11.5zM275 473h-9q-13 -25 -30.5 -82t-21.5 -92q8 -2 19 -2q13 0 29 3q31 5 41 14v6q0 31 -9 82q-9 55 -19 71zM343 970q61 -3 97 -48q32 -40 32 -90v-11q-2 -26 -26.5 -67.5 t-45.5 -60.5q-34 -31 -82 -40q-15 -3 -31 -3q-33 0 -67 13q-32 13 -61 45q-26 29 -26 65v7q1 21 14.5 49.5t30.5 49.5q75 91 157 91h8zM278 767q21 -12 42 -12q6 0 12 1q28 4 33 30q2 8 2 15q0 26 -19.5 45.5t-41.5 19.5q-6 0 -13 -2q-18 -4 -31 -20q-11 -15 -11 -32 q0 -28 27 -45z" />
<glyph unicode="&#xc6;" horiz-adv-x="879" d="M521 562q-1 -85 -1 -133.5t1 -60.5q35 -9 78 -9q10 0 21 1q39 1 80 1h32q57 -1 68 -13q12 -10 12 -32q0 -6 -1 -12q-4 -32 -28 -39q-28 -8 -125 -9.5t-125 -11.5q-10 -15 -10 -57q0 -6 1 -12q1 -52 9 -67q8 -7 29 -8h5q21 0 55 4q38 4 46 4q4 0 20 1l24 1q8 1 23 0.5 t24 -2t19.5 -4.5t17 -9t9.5 -14t3 -17q0 -10 -4 -22q-9 -21 -19 -24q-52 -14 -104 -14h-7q-12 0 -88 -4q-36 -2 -66 -2q-33 0 -58 2q-48 5 -48 25q0 9 -2 50q-2 29 -2 43v9q1 23 1 41q0 62 -13 73q-30 5 -57 5q-41 0 -74 -11q-20 -9 -54.5 -67.5t-38.5 -63.5q-3 -4 -11 -19 t-13.5 -23t-14 -19t-18.5 -17t-21 -7q-7 -1 -12 -1q-24 0 -36 10q-13 10 -13 28q0 3 1 6q2 22 14 48t32 55q159 268 266 478q52 79 106 85h8q15 0 22 -6q10 -7 17.5 -19.5t19.5 -18.5q15 -1 30 0t56 5.5t58 5.5q30 2 55 2q96 0 104 -34q2 -13 2 -23q0 -44 -44 -49 q-14 -2 -118 -8.5t-143 -20.5zM387 489q-4 -6 -15.5 -20.5l-17.5 -22.5l-13 -22q-8 -13 -13 -26.5t-8 -28.5q10 -7 34 -7q18 0 44 4q6 18 6 46v19q-3 42 -17 58z" />
<glyph unicode="&#xc7;" horiz-adv-x="519" d="M486 120q8 -13 8 -26q0 -15 -10 -30q-18 -29 -43 -40q-51 -24 -142 -28q-11 -1 -23 0t-23 -0.5t-20 -4.5t-13.5 -11.5t-2.5 -22.5q3 -14 16.5 -21t34.5 -11.5t30 -9.5q25 -14 40 -45q11 -23 11 -44q0 -9 -2 -17q-4 -21 -16 -38t-20.5 -24t-28.5 -21q-32 -21 -88 -21 t-61 37v7q0 16 13 26q15 12 35 15t37.5 9.5t18.5 17.5q-2 16 -14 23t-32 11t-28 8q-48 20 -51 77v9q0 51 30 82q-28 15 -56.5 51.5t-44.5 79.5q-8 21 -15 68t-7 75q0 117 16.5 180t67.5 125q45 53 112 80q37 16 78 16q32 0 66 -10q52 -15 85 -48q21 -21 21 -41q0 -11 -7 -22 q-15 -26 -40 -28h-8q-22 0 -46 9q-27 12 -62 16q-8 1 -16 1q-27 0 -53 -10q-98 -43 -100 -233q0 -81 23 -129.5t73 -75.5q43 -22 84 -23h4q16 0 41 8q29 8 51 16q19 7 37 7l7 -1q22 -1 33 -18z" />
<glyph unicode="&#xc8;" horiz-adv-x="449" d="M143 135l1 -1h20q43 0 108 6q8 1 38 7t47 8q7 1 14 1q11 0 24 -2q14 -4 22 -26q4 -11 4 -22.5t-4 -24.5q-6 -18 -18 -29t-33 -15.5t-35 -5.5t-41 -2q-63 0 -179 -8q-9 -1 -17 -1q-36 0 -46 15q-13 18 -15 78v8q0 35 7 129q3 68 16 262q1 40 1.5 57t6 43t15.5 37 q29 32 159 32q37 0 58 -1.5t46 -5.5t37.5 -13t14.5 -23v-12q0 -22 -6 -34q-8 -16 -35 -17q-11 -1 -42 -1q-109 -2 -130 -16q-12 -8 -16 -49q0 -2 -2.5 -19t-3.5 -27.5t-1.5 -26t2 -26t8.5 -16.5q10 -9 29 -9q15 0 49 7.5t49 7.5q32 0 41 -30q1 -8 1 -15q0 -39 -43 -53 q-13 -2 -44 -6q-80 -9 -97 -22q-13 -14 -13 -67q0 -45 2 -62q0 -2 0.5 -5.5t0.5 -4.5zM109 945h5q10 0 18 -3q10 -4 24.5 -14.5t22.5 -14.5l38 -23l48 -28q22 -13 40 -22l11 -6q8 -4 11 -6t9 -5.5t9 -6t6.5 -6t6 -7t3.5 -7.5q3 -10 3 -20q0 -16 -8 -32q-14 -26 -29 -30 q-2 -2 -7 -2q-3 0 -8 1q-11 3 -15 3t-14.5 6t-13 8t-12 9t-11.5 8q-29 20 -74 45.5t-66 38.5q-17 11 -24 16.5t-16 18.5q-7 12 -7 26q0 46 50 53z" />
<glyph unicode="&#xc9;" horiz-adv-x="449" d="M143 135l1 -1h20q43 0 108 6q8 1 38 7t47 8q7 1 14 1q11 0 24 -2q14 -4 22 -26q4 -11 4 -22.5t-4 -24.5q-6 -18 -18 -29t-33 -15.5t-35 -5.5t-41 -2q-63 0 -179 -8q-9 -1 -17 -1q-36 0 -46 15q-13 18 -15 78v8q0 35 7 129q3 68 16 262q1 40 1.5 57t6 43t15.5 37 q29 32 159 32q37 0 58 -1.5t46 -5.5t37.5 -13t14.5 -23v-12q0 -22 -6 -34q-8 -16 -35 -17q-11 -1 -42 -1q-109 -2 -130 -16q-12 -8 -16 -49q0 -2 -2.5 -19t-3.5 -27.5t-1.5 -26t2 -26t8.5 -16.5q10 -9 29 -9q15 0 49 7.5t49 7.5q32 0 41 -30q1 -8 1 -15q0 -39 -43 -53 q-13 -2 -44 -6q-80 -9 -97 -22q-13 -14 -13 -67q0 -45 2 -62q0 -2 0.5 -5.5t0.5 -4.5zM357 897q7 1 14 1q30 0 37 -28q2 -7 2 -13q0 -26 -25 -48q-23 -16 -50.5 -28.5t-73.5 -28t-61 -21.5q-3 -1 -16.5 -6.5t-19 -7.5t-16.5 -3q-5 -1 -8 -1q-6 0 -10 1q-6 3 -13.5 10.5 t-11.5 20.5q-2 8 -2 15q0 11 5 20q9 17 30 29t42 21t48.5 19t38.5 15q70 30 90 33z" />
<glyph unicode="&#xca;" horiz-adv-x="449" d="M143 135l1 -1h20q43 0 108 6q8 1 38 7t47 8q7 1 14 1q11 0 24 -2q14 -4 22 -26q4 -11 4 -22.5t-4 -24.5q-6 -18 -18 -29t-33 -15.5t-35 -5.5t-41 -2q-63 0 -179 -8q-9 -1 -17 -1q-36 0 -46 15q-13 18 -15 78v8q0 35 7 129q3 68 16 262q1 40 1.5 57t6 43t15.5 37 q29 32 159 32q37 0 58 -1.5t46 -5.5t37.5 -13t14.5 -23v-12q0 -22 -6 -34q-8 -16 -35 -17q-11 -1 -42 -1q-109 -2 -130 -16q-12 -8 -16 -49q0 -2 -2.5 -19t-3.5 -27.5t-1.5 -26t2 -26t8.5 -16.5q10 -9 29 -9q15 0 49 7.5t49 7.5q32 0 41 -30q1 -8 1 -15q0 -39 -43 -53 q-13 -2 -44 -6q-80 -9 -97 -22q-13 -14 -13 -67q0 -45 2 -62q0 -2 0.5 -5.5t0.5 -4.5zM209 934q48 -4 119 -68q60 -53 68 -94q1 -5 1 -9q0 -20 -15 -37q-16 -18 -39 -18h-5q-14 1 -26 9t-18 15l-19 23q-2 3 -7.5 9.5t-9 11l-8.5 10.5l-10 10q-4 4 -8.5 8t-8.5 6t-7 2 q-15 0 -40 -27.5t-37 -47.5q-15 -25 -38 -27h-3q-21 0 -35 18q-5 6 -5 17.5t5 28.5q10 32 22 51q23 37 63 74q37 35 59 35h2z" />
<glyph unicode="&#xcb;" horiz-adv-x="449" d="M143 135l1 -1h20q43 0 108 6q8 1 38 7t47 8q7 1 14 1q11 0 24 -2q14 -4 22 -26q4 -11 4 -22.5t-4 -24.5q-6 -18 -18 -29t-33 -15.5t-35 -5.5t-41 -2q-63 0 -179 -8q-9 -1 -17 -1q-36 0 -46 15q-13 18 -15 78v8q0 35 7 129q3 68 16 262q1 40 1.5 57t6 43t15.5 37 q29 32 159 32q37 0 58 -1.5t46 -5.5t37.5 -13t14.5 -23v-12q0 -22 -6 -34q-8 -16 -35 -17q-11 -1 -42 -1q-109 -2 -130 -16q-12 -8 -16 -49q0 -2 -2.5 -19t-3.5 -27.5t-1.5 -26t2 -26t8.5 -16.5q10 -9 29 -9q15 0 49 7.5t49 7.5q32 0 41 -30q1 -8 1 -15q0 -39 -43 -53 q-13 -2 -44 -6q-80 -9 -97 -22q-13 -14 -13 -67q0 -45 2 -62q0 -2 0.5 -5.5t0.5 -4.5zM143 843q7 1 13 1q31 0 36 -33q1 -7 1 -14q0 -29 -21 -54q-17 -19 -37 -19h-6q-22 2 -33 18q-10 14 -10 33q0 5 1 10q3 23 19 38.5t37 19.5zM292 718h-4q-33 0 -38 36q-1 7 -1 14 q0 30 20 53q15 16 31 16q12 0 25 -8q19 -12 25 -38q2 -7 2 -15q0 -18 -11 -34q-15 -23 -49 -24z" />
<glyph unicode="&#xcc;" horiz-adv-x="212" d="M132 724q36 0 44 -23q4 -22 5 -43q0 -7 -1 -14q-2 -29 -8 -80.5t-7 -65.5q-1 -21 -7.5 -125t-6.5 -164q0 -159 -14 -180q-11 -16 -38 -26q-16 -6 -28 -6q-8 0 -15 3q-21 8 -24 44q-2 16 -2 30q0 20 3 39q1 14 1.5 67.5t1.5 69.5q2 40 9.5 137t10.5 148q10 147 14 157 q7 13 26 22t36 10zM-5 993h5q10 0 18 -3q10 -4 24.5 -14.5t22.5 -14.5l38 -23l48 -28q22 -13 40 -22l11 -6q8 -4 11 -6t9 -5.5t9 -6t6.5 -6t6 -7t3.5 -7.5q3 -10 3 -20q0 -16 -8 -32q-14 -26 -29 -30q-2 -2 -7 -2q-3 0 -8 1q-11 3 -15 3t-14.5 6t-13 8t-12 9t-11.5 8 q-29 20 -74 45.5t-66 38.5q-17 11 -24 16.5t-16 18.5q-7 12 -7 26q0 46 50 53z" />
<glyph unicode="&#xcd;" horiz-adv-x="212" d="M132 724q36 0 44 -23q4 -22 5 -43q0 -7 -1 -14q-2 -29 -8 -80.5t-7 -65.5q-1 -21 -7.5 -125t-6.5 -164q0 -159 -14 -180q-11 -16 -38 -26q-16 -6 -28 -6q-8 0 -15 3q-21 8 -24 44q-2 16 -2 30q0 20 3 39q1 14 1.5 67.5t1.5 69.5q2 40 9.5 137t10.5 148q10 147 14 157 q7 13 26 22t36 10zM209 925q7 1 14 1q30 0 37 -28q2 -7 2 -13q0 -26 -25 -48q-23 -16 -50.5 -28.5t-73.5 -28t-61 -21.5q-3 -1 -16.5 -6.5t-19 -7.5t-16.5 -3q-5 -1 -8 -1q-6 0 -10 1q-6 3 -13.5 10.5t-11.5 20.5q-2 8 -2 15q0 11 5 20q9 17 30 29t42 21t48.5 19t38.5 15 q70 30 90 33z" />
<glyph unicode="&#xce;" horiz-adv-x="212" d="M132 724q36 0 44 -23q4 -22 5 -43q0 -7 -1 -14q-2 -29 -8 -80.5t-7 -65.5q-1 -21 -7.5 -125t-6.5 -164q0 -159 -14 -180q-11 -16 -38 -26q-16 -6 -28 -6q-8 0 -15 3q-21 8 -24 44q-2 16 -2 30q0 20 3 39q1 14 1.5 67.5t1.5 69.5q2 40 9.5 137t10.5 148q10 147 14 157 q7 13 26 22t36 10zM124 964q48 -4 119 -68q60 -53 68 -94q1 -5 1 -9q0 -20 -15 -37q-16 -18 -39 -18h-5q-14 1 -26 9t-17 15l-20 23q-2 3 -7.5 9.5t-9 11t-9.5 10.5l-9 10q-4 4 -8.5 8t-8.5 6t-7 2q-15 0 -40 -27.5t-37 -47.5q-15 -25 -38 -27h-3q-21 0 -35 18q-5 6 -5 17.5 t5 28.5q10 32 22 51q23 37 62 74q38 35 60 35h2z" />
<glyph unicode="&#xcf;" horiz-adv-x="212" d="M132 724q36 0 44 -23q4 -22 5 -43q0 -7 -1 -14q-2 -29 -8 -80.5t-7 -65.5q-1 -21 -7.5 -125t-6.5 -164q0 -159 -14 -180q-11 -16 -38 -26q-16 -6 -28 -6q-8 0 -15 3q-21 8 -24 44q-2 16 -2 30q0 20 3 39q1 14 1.5 67.5t1.5 69.5q2 40 9.5 137t10.5 148q10 147 14 157 q7 13 26 22t36 10zM48 898q7 1 13 1q31 0 36 -33q1 -7 1 -14q0 -29 -21 -54q-17 -19 -37 -19h-6q-22 2 -34 19q-9 13 -9 32q0 5 1 10q3 23 19 38.5t37 19.5zM197 773h-4q-33 0 -39 37v13q0 30 20 53q15 16 31 16q12 0 25 -8q19 -12 25 -38q2 -7 2 -15q0 -18 -11 -34 q-15 -23 -49 -24z" />
<glyph unicode="&#xd1;" horiz-adv-x="568" d="M403 236q8 29 13 141q2 32 4.5 85.5t4.5 89.5q1 6 1 14.5t-1 20t-1 22t1 19.5q1 19 5 31q4 11 16.5 23.5t28.5 15.5q13 2 23 2q25 0 34 -14q9 -12 9 -47q0 -37 -10 -101q-4 -26 -13 -199t-9 -201v-28q0 -24 -1 -34.5t-4 -26.5t-9 -25q-10 -15 -35 -22q-12 -4 -23 -4 q-13 0 -24 4q-14 6 -35 50q-13 25 -41 75t-48 89.5t-36 77.5q-4 10 -20.5 39.5t-31 60t-21.5 56.5q-7 -36 -14 -148.5t-10 -134.5q-9 -130 -30 -151q-11 -13 -35 -16q-5 -1 -10 -1q-18 0 -33 9q-14 9 -16 34v13q0 23 5 57q7 43 7 47q4 71 18.5 200.5t18.5 204.5 q8 107 22 122q9 10 33 16q11 2 21 2q12 0 22 -3q8 -3 14.5 -9.5t12.5 -18t10 -20t11 -25.5l10 -26l89 -206q61 -137 77 -160zM482 850q17 -9 17 -25q0 -3 -1 -6q-3 -21 -14.5 -40.5t-25.5 -31.5q-37 -32 -70 -32q-26 0 -49 20q-8 6 -18 27t-20 23q-9 1 -18.5 -5.5t-15 -13 t-13.5 -18t-9 -13.5q-13 -14 -28 -14q-3 0 -7 1q-18 4 -21 23v6q0 5 1 10q1 8 4 13l6 12q5 7 6 9q12 21 35 44q11 12 29 21q16 8 37 8h3q22 -1 39 -16q5 -5 20 -33.5t29 -29.5q11 0 22 12t18 25.5t18.5 21.5t25.5 2z" />
<glyph unicode="&#xd2;" horiz-adv-x="642" d="M334 696h7q53 0 105 -14q54 -16 84 -52q55 -53 72 -138q9 -47 9 -94q0 -39 -6 -78q-11 -65 -22 -98t-37 -71q-93 -151 -277 -152q-115 1 -182 104q-34 52 -45 93q-9 31 -9 81q0 17 1 37q11 196 101 280q85 101 199 102zM188 492q-17 -34 -28 -107q-7 -47 -7 -86 q0 -21 2 -40q4 -41 41.5 -89t72.5 -60q22 -8 42 -8q28 0 55 14q46 25 71 64q49 74 53 204q-2 58 -32 112t-68 66q-41 13 -78 13h-14q-32 -3 -63.5 -28.5t-46.5 -54.5zM211 962h5q10 0 18 -3q10 -4 24.5 -14.5t22.5 -14.5l38 -22l48 -29q22 -13 40 -22l11 -6q8 -4 11 -6 t9 -5.5t9 -6t6.5 -6t6 -7t3.5 -7.5q3 -10 3 -20q0 -16 -8 -33q-14 -25 -29 -29q-2 -2 -7 -2q-3 0 -8 1q-11 3 -15 3t-14.5 6t-13 8t-12 9t-11.5 8q-29 20 -74 45.5t-66 38.5q-17 11 -24 16.5t-16 18.5q-7 12 -7 26q0 46 50 53z" />
<glyph unicode="&#xd3;" horiz-adv-x="642" d="M334 696h7q53 0 105 -14q54 -16 84 -52q55 -53 72 -138q9 -47 9 -94q0 -39 -6 -78q-11 -65 -22 -98t-37 -71q-93 -151 -277 -152q-115 1 -182 104q-34 52 -45 93q-9 31 -9 81q0 17 1 37q11 196 101 280q85 101 199 102zM188 492q-17 -34 -28 -107q-7 -47 -7 -86 q0 -21 2 -40q4 -41 41.5 -89t72.5 -60q22 -8 42 -8q28 0 55 14q46 25 71 64q49 74 53 204q-2 58 -32 112t-68 66q-41 13 -78 13h-14q-32 -3 -63.5 -28.5t-46.5 -54.5zM433 898q7 1 14 1q30 0 37 -27q2 -8 2 -14q0 -26 -25 -48q-23 -16 -50.5 -28.5t-73.5 -28t-61 -21.5 q-3 -1 -16.5 -6.5t-19 -7.5t-16.5 -4h-8q-6 0 -10 2q-6 2 -13.5 9.5t-11.5 20.5q-2 8 -2 15q0 11 5 21q9 16 30 28t42 21t48.5 19t38.5 15q70 30 90 33z" />
<glyph unicode="&#xd4;" horiz-adv-x="642" d="M334 696h7q53 0 105 -14q54 -16 84 -52q55 -53 72 -138q9 -47 9 -94q0 -39 -6 -78q-11 -65 -22 -98t-37 -71q-93 -151 -277 -152q-115 1 -182 104q-34 52 -45 93q-9 31 -9 81q0 17 1 37q11 196 101 280q85 101 199 102zM188 492q-17 -34 -28 -107q-7 -47 -7 -86 q0 -21 2 -40q4 -41 41.5 -89t72.5 -60q22 -8 42 -8q28 0 55 14q46 25 71 64q49 74 53 204q-2 58 -32 112t-68 66q-41 13 -78 13h-14q-32 -3 -63.5 -28.5t-46.5 -54.5zM309 938q48 -4 119 -68q60 -53 68 -94q1 -5 1 -9q0 -20 -15 -37q-16 -18 -39 -18h-5q-14 1 -26 9t-18 15 l-19 23q-2 3 -7.5 9.5t-9 11l-8.5 10.5l-10 10q-4 4 -8.5 8t-8.5 6t-7 2q-15 0 -40 -27.5t-37 -47.5q-15 -25 -38 -27h-3q-21 0 -35 18q-5 6 -5 17.5t5 28.5q10 32 22 51q23 37 63 74q37 35 59 35h2z" />
<glyph unicode="&#xd5;" horiz-adv-x="642" d="M334 696h7q53 0 105 -14q54 -16 84 -52q55 -53 72 -138q9 -47 9 -94q0 -39 -6 -78q-11 -65 -22 -98t-37 -71q-93 -151 -277 -152q-115 1 -182 104q-34 52 -45 93q-9 31 -9 81q0 17 1 37q11 196 101 280q85 101 199 102zM188 492q-17 -34 -28 -107q-7 -47 -7 -86 q0 -21 2 -40q4 -41 41.5 -89t72.5 -60q22 -8 42 -8q28 0 55 14q46 25 71 64q49 74 53 204q-2 58 -32 112t-68 66q-41 13 -78 13h-14q-32 -3 -63.5 -28.5t-46.5 -54.5zM464 843q17 -9 17 -25q0 -3 -1 -6q-3 -21 -14.5 -40.5t-25.5 -31.5q-37 -32 -70 -32q-26 0 -49 20 q-8 6 -18 27t-20 23q-9 1 -18.5 -5.5t-15 -13t-13.5 -18t-9 -13.5q-13 -14 -28 -14q-3 0 -7 1q-18 4 -21 23v6q0 5 1 10q1 8 4 12l6 12q5 8 6 10q12 21 35 44q11 12 29 20q16 9 37 9q1 0 3 -1q22 0 39 -15q5 -5 20 -33.5t29 -29.5q11 0 22 12t18 25.5t18.5 21.5t25.5 2z" />
<glyph unicode="&#xd6;" horiz-adv-x="642" d="M334 696h7q53 0 105 -14q54 -16 84 -52q55 -53 72 -138q9 -47 9 -94q0 -39 -6 -78q-11 -65 -22 -98t-37 -71q-93 -151 -277 -152q-115 1 -182 104q-34 52 -45 93q-9 31 -9 81q0 17 1 37q11 196 101 280q85 101 199 102zM188 492q-17 -34 -28 -107q-7 -47 -7 -86 q0 -21 2 -40q4 -41 41.5 -89t72.5 -60q22 -8 42 -8q28 0 55 14q46 25 71 64q49 74 53 204q-2 58 -32 112t-68 66q-41 13 -78 13h-14q-32 -3 -63.5 -28.5t-46.5 -54.5zM289 858q7 1 13 1q31 0 36 -33q1 -7 1 -14q0 -29 -21 -54q-17 -19 -37 -19h-6q-22 2 -33 19 q-10 13 -10 32q0 5 1 10q3 23 19 38.5t37 19.5zM438 733h-4q-33 0 -38 37q-1 6 -1 13q0 30 20 53q15 16 31 16q12 0 25 -8q19 -12 25 -38q2 -7 2 -15q0 -18 -11 -34q-15 -23 -49 -24z" />
<glyph unicode="&#xd8;" horiz-adv-x="667" d="M582 661q36 -10 36 -41q0 -11 -22 -41t-22 -36q0 -11 21.5 -45t28.5 -61q14 -57 14 -107q0 -69 -26 -126q-47 -98 -152 -133q-56 -18 -121 -18q-45 0 -95 9q-5 1 -25.5 7t-30.5 5q-18 -2 -45 -24q-26 -22 -35 -22h-1q-26 3 -47 20q-19 15 -19 34q0 22 13.5 38.5 t27.5 28.5q14 13 14 21q0 12 -8 31q-10 21 -12 27q-12 43 -12 88q0 48 14 98q27 97 85 145q45 38 91 53q31 10 74 10q23 0 49 -3q14 -1 35 -7l36 -9q16 -4 20 -3q3 1 27 25.5t39 32.5q9 6 24 6q11 0 24 -3zM258 504q-35 -19 -57.5 -60t-29.5 -90q-3 -21 -3 -41q0 -28 6 -52 q5 -17 12 -14q20 14 103 110.5t112 138.5q-19 19 -66 22h-12q-39 0 -65 -14zM314 141q12 -1 24 -1q75 0 128 38q63 43 72 123v10q0 22 -6 52q-8 37 -20 61q-9 20 -14 20q-1 0 -2 -1q-42 -43 -115.5 -133t-114.5 -146q12 -21 48 -23z" />
<glyph unicode="&#xd9;" horiz-adv-x="540" d="M451 695q7 1 13 1q19 0 29 -11q11 -13 11 -35v-6q-2 -27 -5 -59q-1 -4 -1 -6q-6 -48 -10 -172.5t-15 -180.5q-26 -133 -101 -187q-33 -24 -80 -33q-19 -4 -39 -4q-29 0 -60 8q-38 12 -76 46t-53 71q-11 27 -19 58q-4 19 -9 55q-5 50 -5 104q0 90 14 194q1 9 3.5 29.5 l3.5 28.5l5 24q3 15 7 22.5t10 17t14.5 15t20.5 9.5q17 5 30 5q19 0 29 -11q6 -7 6 -24q1 -3 1 -7q0 -13 -2 -27q-2 -16 -6 -39t-5 -32l-8 -99q-2 -21 -2 -55v-29q1 -53 8 -99q12 -79 36 -114q12 -19 38 -33q18 -10 39 -10q10 0 21 2q29 6 47.5 52t24 97t6.5 108q0 22 2 48 q0 32 4 118q0 2 0.5 33t2 51t5.5 30q7 18 26 30.5t39 15.5zM152 941h5q10 0 18 -3q10 -4 24.5 -14.5t22.5 -14.5l38 -23l48 -28q22 -13 40 -22l12 -6q7 -4 10 -6t9 -5.5t9 -6t6.5 -6t6 -7t3.5 -7.5q3 -10 3 -20q0 -16 -9 -32q-13 -26 -28 -30q-2 -2 -7 -2q-3 0 -8 1 q-11 3 -15 3t-14.5 6t-13 8t-12 9t-11.5 8q-29 20 -74 45.5t-66 38.5q-17 11 -24 16.5t-15 18.5q-8 12 -8 26q0 46 50 53z" />
<glyph unicode="&#xda;" horiz-adv-x="540" d="M451 695q7 1 13 1q19 0 29 -11q11 -13 11 -35v-6q-2 -27 -5 -59q-1 -4 -1 -6q-6 -48 -10 -172.5t-15 -180.5q-26 -133 -101 -187q-33 -24 -80 -33q-19 -4 -39 -4q-29 0 -60 8q-38 12 -76 46t-53 71q-11 27 -19 58q-4 19 -9 55q-5 50 -5 104q0 90 14 194q1 9 3.5 29.5 l3.5 28.5l5 24q3 15 7 22.5t10 17t14.5 15t20.5 9.5q17 5 30 5q19 0 29 -11q6 -7 6 -24q1 -3 1 -7q0 -13 -2 -27q-2 -16 -6 -39t-5 -32l-8 -99q-2 -21 -2 -55v-29q1 -53 8 -99q12 -79 36 -114q12 -19 38 -33q18 -10 39 -10q10 0 21 2q29 6 47.5 52t24 97t6.5 108q0 22 2 48 q0 32 4 118q0 2 0.5 33t2 51t5.5 30q7 18 26 30.5t39 15.5zM457 913q7 1 14 1q30 0 37 -28q2 -7 2 -13q0 -26 -25 -48q-23 -16 -50.5 -28.5t-73.5 -28t-61 -21.5q-3 -1 -16.5 -6.5t-19 -7.5t-16.5 -3q-5 -1 -8 -1q-6 0 -10 1q-6 3 -13.5 10.5t-11.5 20.5q-2 8 -2 15 q0 11 5 20q9 17 30 29t42 21t48.5 19t38.5 15q70 30 90 33z" />
<glyph unicode="&#xdb;" horiz-adv-x="540" d="M451 695q7 1 13 1q19 0 29 -11q11 -13 11 -35v-6q-2 -27 -5 -59q-1 -4 -1 -6q-6 -48 -10 -172.5t-15 -180.5q-26 -133 -101 -187q-33 -24 -80 -33q-19 -4 -39 -4q-29 0 -60 8q-38 12 -76 46t-53 71q-11 27 -19 58q-4 19 -9 55q-5 50 -5 104q0 90 14 194q1 9 3.5 29.5 l3.5 28.5l5 24q3 15 7 22.5t10 17t14.5 15t20.5 9.5q17 5 30 5q19 0 29 -11q6 -7 6 -24q1 -3 1 -7q0 -13 -2 -27q-2 -16 -6 -39t-5 -32l-8 -99q-2 -21 -2 -55v-29q1 -53 8 -99q12 -79 36 -114q12 -19 38 -33q18 -10 39 -10q10 0 21 2q29 6 47.5 52t24 97t6.5 108q0 22 2 48 q0 32 4 118q0 2 0.5 33t2 51t5.5 30q7 18 26 30.5t39 15.5zM287 945q48 -4 119 -68q60 -53 68 -94q1 -5 1 -9q0 -20 -15 -36q-16 -19 -39 -19h-5q-14 1 -26 9t-18 14l-19 24q-2 3 -7.5 9.5t-9 11l-8.5 10.5l-10 10q-4 4 -8.5 8t-8.5 6t-7 2q-15 0 -40 -27.5t-37 -47.5 q-15 -25 -38 -26q-2 -1 -3 -1q-21 0 -35 18q-5 6 -5 17.5t5 27.5q10 33 22 52q23 37 63 74q37 35 59 35h2z" />
<glyph unicode="&#xdc;" horiz-adv-x="540" d="M451 695q7 1 13 1q19 0 29 -11q11 -13 11 -35v-6q-2 -27 -5 -59q-1 -4 -1 -6q-6 -48 -10 -172.5t-15 -180.5q-26 -133 -101 -187q-33 -24 -80 -33q-19 -4 -39 -4q-29 0 -60 8q-38 12 -76 46t-53 71q-11 27 -19 58q-4 19 -9 55q-5 50 -5 104q0 90 14 194q1 9 3.5 29.5 l3.5 28.5l5 24q3 15 7 22.5t10 17t14.5 15t20.5 9.5q17 5 30 5q19 0 29 -11q6 -7 6 -24q1 -3 1 -7q0 -13 -2 -27q-2 -16 -6 -39t-5 -32l-8 -99q-2 -21 -2 -55v-29q1 -53 8 -99q12 -79 36 -114q12 -19 38 -33q18 -10 39 -10q10 0 21 2q29 6 47.5 52t24 97t6.5 108q0 22 2 48 q0 32 4 118q0 2 0.5 33t2 51t5.5 30q7 18 26 30.5t39 15.5zM232 852q7 1 13 1q31 0 36 -33q1 -7 1 -14q0 -29 -21 -54q-17 -19 -37 -19h-6q-22 2 -34 19q-9 13 -9 32q0 5 1 10q3 23 19 38.5t37 19.5zM381 727h-4q-33 0 -39 37v13q0 30 20 53q15 16 31 16q12 0 25 -8 q19 -12 25 -38q2 -7 2 -15q0 -18 -11 -34q-15 -23 -49 -24z" />
<glyph unicode="&#xdd;" horiz-adv-x="583" d="M269 402q12 6 21.5 17t20 29t14.5 24l102 143q20 25 30 41q30 45 31 46q9 7 24 10h8q12 0 24 -6q17 -8 22 -26q2 -5 2 -11q0 -8 -4 -18q-6 -16 -13.5 -26.5t-20.5 -25t-14 -16.5l-49 -61q-31 -38 -51.5 -65.5t-45.5 -65.5q-15 -23 -31 -52q-27 -41 -30 -56q-5 -21 -8 -91 q-1 -29 -9 -105q-6 -60 -8 -68q-6 -15 -26 -27q-16 -10 -35 -10h-7q-17 2 -26 17t-10 39v12q0 18 2 34q1 23 5 50t4 38q1 21 1 40q0 60 -12 94q-4 11 -17 32t-18 32q-9 26 -35 70.5t-34 61.5l-33 67q-3 5 -9.5 17t-9.5 18.5t-6 16.5t-3 18q0 33 37 61q21 17 40 17 q14 0 26 -8q5 -3 11 -14t10 -21l10 -24q6 -14 7 -17l38 -79q8 -18 21.5 -54t25 -58.5t28.5 -39.5zM463 910q7 1 14 1q30 0 37 -27q2 -8 2 -14q0 -26 -25 -48q-23 -16 -50.5 -28.5t-73.5 -28t-61 -21.5q-3 -1 -16.5 -6.5t-19 -7.5t-16.5 -4h-8q-6 0 -10 2q-6 2 -13.5 9.5 t-11.5 20.5q-2 8 -2 15q0 11 5 21q9 16 30 28t42 21t48.5 19t38.5 15q70 30 90 33z" />
<glyph unicode="&#xdf;" horiz-adv-x="561" d="M196 19q-8 -17 -24.5 -31.5t-37.5 -19.5q-6 -2 -11 -2q-16 0 -31 12q-4 3 -7 8.5t-4 14.5t-1.5 16t-1 20t-0.5 21q-3 94 -17 212q-7 57 -7 110t7 102q15 99 68 169t139 79q9 1 19 1q95 0 183 -95q21 -23 31.5 -36.5t22.5 -36.5q11 -20 11 -42q0 -3 -1 -5q-1 -25 -15 -53 q-10 -19 -33.5 -48.5t-43.5 -47.5q-55 -47 -56 -73q-1 -8 7.5 -18t27.5 -28l26 -25q51 -53 51 -105q0 -56 -64 -102q-37 -26 -65 -26h-7q-31 5 -42 36q-3 10 -3 18q0 20 19 36q2 2 13 6t20 10q10 8 10 18q0 18 -26 46q-28 30 -57.5 65t-29.5 62q1 31 23.5 70t61.5 70 q44 36 49 68v5q0 31 -42 70q-46 42 -80 42q-24 0 -43 -23t-29.5 -59t-16.5 -73t-7 -71v-10q0 -56 10 -168q6 -77 6 -133q0 -32 -2 -56z" />
<glyph unicode="&#xe0;" d="M109 374q-22 8 -27 37v7q0 22 15 36q18 16 50 30q55 28 93 38q20 6 41 6q20 0 41 -5q27 -10 49.5 -42t28.5 -71q3 -15 4 -33v-17v-14q-1 -14 -3 -35l-3 -31l-6 -31q-3 -22 -4 -26q-22 -117 -37 -167q-6 -18 -23.5 -37.5t-33.5 -21.5q-4 -1 -10 -1q-11 0 -27 2 q-25 4 -38 10q-37 14 -56.5 23t-45 26t-46.5 39q-38 33 -41 60q-3 12 -3 24q0 46 40 86q28 28 77 44q19 6 55 9.5t62.5 7t33.5 12.5q9 14 9 29q0 13 -7 27q-14 30 -34 33q-39 -6 -87 -30q-47 -24 -66 -24h-1zM218 233q-66 -3 -87 -32q1 -68 123 -86q34 9 34 113q-7 6 -41 6 q-13 0 -29 -1zM121 778h5q10 0 18 -3q10 -4 24.5 -14.5t22.5 -14.5l38 -22l48 -29q22 -13 40 -22l11 -6q8 -4 11 -6t9 -5.5t9 -6t6.5 -6t6 -7t3.5 -7.5q3 -10 3 -20q0 -16 -8 -33q-14 -25 -29 -29q-2 -2 -7 -2q-3 0 -8 1q-11 3 -15 3t-14.5 6t-13 8t-12 9t-11.5 8 q-29 20 -74 45.5t-66 38.5q-17 11 -24 16.5t-16 18.5q-7 12 -7 26q0 46 50 53z" />
<glyph unicode="&#xe1;" d="M109 374q-22 8 -27 37v7q0 22 15 36q18 16 50 30q55 28 93 38q20 6 41 6q20 0 41 -5q27 -10 49.5 -42t28.5 -71q3 -15 4 -33v-17v-14q-1 -14 -3 -35l-3 -31l-6 -31q-3 -22 -4 -26q-22 -117 -37 -167q-6 -18 -23.5 -37.5t-33.5 -21.5q-4 -1 -10 -1q-11 0 -27 2 q-25 4 -38 10q-37 14 -56.5 23t-45 26t-46.5 39q-38 33 -41 60q-3 12 -3 24q0 46 40 86q28 28 77 44q19 6 55 9.5t62.5 7t33.5 12.5q9 14 9 29q0 13 -7 27q-14 30 -34 33q-39 -6 -87 -30q-47 -24 -66 -24h-1zM218 233q-66 -3 -87 -32q1 -68 123 -86q34 9 34 113q-7 6 -41 6 q-13 0 -29 -1zM369 716q7 1 14 1q30 0 37 -27q2 -8 2 -14q0 -26 -25 -48q-23 -16 -50.5 -28.5t-73.5 -28t-61 -21.5q-3 -1 -16.5 -6.5t-19 -7.5t-16.5 -4h-8q-6 0 -10 2q-6 2 -13.5 9.5t-11.5 20.5q-2 8 -2 15q0 11 5 21q9 16 30 28t42 21t48.5 19t38.5 15q70 30 90 33z" />
<glyph unicode="&#xe2;" d="M109 374q-22 8 -27 37v7q0 22 15 36q18 16 50 30q55 28 93 38q20 6 41 6q20 0 41 -5q27 -10 49.5 -42t28.5 -71q3 -15 4 -33v-17v-14q-1 -14 -3 -35l-3 -31l-6 -31q-3 -22 -4 -26q-22 -117 -37 -167q-6 -18 -23.5 -37.5t-33.5 -21.5q-4 -1 -10 -1q-11 0 -27 2 q-25 4 -38 10q-37 14 -56.5 23t-45 26t-46.5 39q-38 33 -41 60q-3 12 -3 24q0 46 40 86q28 28 77 44q19 6 55 9.5t62.5 7t33.5 12.5q9 14 9 29q0 13 -7 27q-14 30 -34 33q-39 -6 -87 -30q-47 -24 -66 -24h-1zM218 233q-66 -3 -87 -32q1 -68 123 -86q34 9 34 113q-7 6 -41 6 q-13 0 -29 -1zM250 746q48 -4 119 -68q60 -53 68 -94q1 -5 1 -9q0 -20 -15 -37q-16 -18 -39 -18h-5q-14 1 -26 9t-17 15l-20 23q-2 3 -7.5 9.5t-9 11t-9.5 10.5l-9 10q-4 4 -8.5 8t-8.5 6t-7 2q-15 0 -40 -27.5t-37 -47.5q-15 -25 -38 -27h-3q-21 0 -35 18q-5 6 -5 17.5 t5 28.5q10 32 22 51q23 37 62 74q38 35 60 35h2z" />
<glyph unicode="&#xe3;" d="M109 374q-22 8 -27 37v7q0 22 15 36q18 16 50 30q55 28 93 38q20 6 41 6q20 0 41 -5q27 -10 49.5 -42t28.5 -71q3 -15 4 -33v-17v-14q-1 -14 -3 -35l-3 -31l-6 -31q-3 -22 -4 -26q-22 -117 -37 -167q-6 -18 -23.5 -37.5t-33.5 -21.5q-4 -1 -10 -1q-11 0 -27 2 q-25 4 -38 10q-37 14 -56.5 23t-45 26t-46.5 39q-38 33 -41 60q-3 12 -3 24q0 46 40 86q28 28 77 44q19 6 55 9.5t62.5 7t33.5 12.5q9 14 9 29q0 13 -7 27q-14 30 -34 33q-39 -6 -87 -30q-47 -24 -66 -24h-1zM218 233q-66 -3 -87 -32q1 -68 123 -86q34 9 34 113q-7 6 -41 6 q-13 0 -29 -1zM383 696q17 -9 17 -25v-6q-4 -21 -15.5 -40.5t-25.5 -31.5q-37 -32 -70 -32q-26 0 -49 20q-8 6 -18 27t-20 23q-9 1 -18.5 -5.5t-15 -13t-13.5 -18t-9 -13.5q-13 -14 -28 -14q-3 0 -6 1q-19 4 -22 23v6v10q2 8 4 13l8 12q4 7 5 9q12 21 35 44q11 12 28 21 q17 8 38 8h2q23 -1 40 -16q5 -5 20 -33.5t29 -29.5q11 0 22 12t18 25.5t18.5 21.5t25.5 2z" />
<glyph unicode="&#xe4;" d="M109 374q-22 8 -27 37v7q0 22 15 36q18 16 50 30q55 28 93 38q20 6 41 6q20 0 41 -5q27 -10 49.5 -42t28.5 -71q3 -15 4 -33v-17v-14q-1 -14 -3 -35l-3 -31l-6 -31q-3 -22 -4 -26q-22 -117 -37 -167q-6 -18 -23.5 -37.5t-33.5 -21.5q-4 -1 -10 -1q-11 0 -27 2 q-25 4 -38 10q-37 14 -56.5 23t-45 26t-46.5 39q-38 33 -41 60q-3 12 -3 24q0 46 40 86q28 28 77 44q19 6 55 9.5t62.5 7t33.5 12.5q9 14 9 29q0 13 -7 27q-14 30 -34 33q-39 -6 -87 -30q-47 -24 -66 -24h-1zM218 233q-66 -3 -87 -32q1 -68 123 -86q34 9 34 113q-7 6 -41 6 q-13 0 -29 -1zM198 695q7 1 13 1q31 0 36 -33q1 -7 1 -14q0 -29 -21 -54q-17 -19 -37 -19h-6q-22 2 -34 18q-9 14 -9 33q0 5 1 10q3 23 19 38.5t37 19.5zM347 570h-4q-33 0 -39 36v14q0 30 20 53q15 16 31 16q12 0 25 -8q19 -12 25 -38q2 -7 2 -15q0 -18 -11 -34 q-15 -23 -49 -24z" />
<glyph unicode="&#xe5;" d="M109 374q-22 8 -27 37v7q0 22 15 36q18 16 50 30q55 28 93 38q20 6 41 6q20 0 41 -5q27 -10 49.5 -42t28.5 -71q3 -15 4 -33v-17v-14q-1 -14 -3 -35l-3 -31l-6 -31q-3 -22 -4 -26q-22 -117 -37 -167q-6 -18 -23.5 -37.5t-33.5 -21.5q-4 -1 -10 -1q-11 0 -27 2 q-25 4 -38 10q-37 14 -56.5 23t-45 26t-46.5 39q-38 33 -41 60q-3 12 -3 24q0 46 40 86q28 28 77 44q19 6 55 9.5t62.5 7t33.5 12.5q9 14 9 29q0 13 -7 27q-14 30 -34 33q-39 -6 -87 -30q-47 -24 -66 -24h-1zM218 233q-66 -3 -87 -32q1 -68 123 -86q34 9 34 113q-7 6 -41 6 q-13 0 -29 -1zM293 780q61 -3 97 -48q32 -40 32 -90v-11q-2 -26 -26.5 -67.5t-45.5 -60.5q-34 -31 -82 -40q-15 -3 -31 -3q-33 0 -67 13q-32 13 -61 45q-26 29 -26 65v7q1 21 14.5 49.5t30.5 49.5q75 91 157 91h8zM228 577q21 -12 42 -12q6 0 12 1q28 4 33 30q2 8 2 15 q0 26 -19.5 45.5t-41.5 19.5q-6 0 -13 -2q-18 -4 -31 -20q-11 -15 -11 -32q0 -28 27 -45z" />
<glyph unicode="&#xe6;" horiz-adv-x="636" d="M353 112q20 -11 43 -11q32 0 72 22q10 5 25 19l25 23q10 9 28 16q7 3 14 3q9 0 17 -5q16 -7 21 -26q1 -6 1 -11q0 -15 -8 -31q-21 -48 -83.5 -76t-145.5 -32h-2q-12 0 -45 7q-37 9 -43 9h-3q-13 0 -35 -7q-25 -7 -35 -7q-12 -1 -24 -1q-39 0 -71 13q-42 17 -56 55 q-10 26 -10 51q0 41 26 81q40 66 93 92q13 6 46.5 11.5t48.5 14.5q21 13 30 47q3 16 3 31q0 18 -5 35q-8 1 -15 1q-21 0 -35 -7q-18 -9 -44 -36q-5 -5 -20.5 -26t-27.5 -29t-31 -8q-41 2 -41 26q0 19 25 52q16 23 38 43q76 68 135 75q10 2 26 2h11q24 -1 32 -7 q14 -10 29 -30t27 -23q5 -1 11 -1q13 0 34 5q24 6 45 6h10q60 -4 95 -52q20 -27 20 -59q0 -25 -12 -53q-15 -38 -56.5 -64t-98.5 -36q-3 0 -15.5 -1t-21 -2t-18.5 -4t-15 -7q-4 -3 -6.5 -7.5t-4 -10.5t-2.5 -11.5t-1 -14.5v-14v-16v-14zM378 314q-1 -14 5.5 -19.5t25.5 -4 t53 14.5q16 6 32 23q13 16 13 29q0 10 -9 18.5t-31 8.5q-8 0 -18 -1q-25 -4 -47 -21.5t-24 -47.5zM146 127q3 -23 32 -31q12 -3 22 -3q16 0 30 8q18 10 26 47q6 27 6 50q0 8 -1 16q-12 4 -24 4q-27 0 -55 -20q-37 -27 -37 -62q0 -5 1 -9z" />
<glyph unicode="&#xe7;" horiz-adv-x="455" d="M390 351q1 -4 1 -8q0 -15 -9 -31q-12 -21 -31 -25q-15 -4 -56 -5t-60 -6q-28 -6 -51 -26q-25 -23 -25 -54q0 -27 22 -48q24 -23 54 -30q9 -4 24.5 -2.5t22 2.5t22 5t24.5 6q18 3 32 3q37 0 48 -23q6 -15 6 -28q0 -7 -2 -13q-5 -18 -14 -24q-32 -21 -74 -27t-72.5 -9.5 t-41.5 -18.5q9 -12 38 -27t42 -35q9 -13 9 -31q0 -12 -3 -25q-9 -38 -70 -58q-46 -15 -75 -15q-8 0 -15 1q-41 9 -41 40q0 17 17 26q16 8 34.5 10t33.5 8.5t15 19.5q0 14 -43 34q-44 21 -44 42q0 16 9 29q10 13 7 22q0 1 -15.5 13.5t-33 37t-24.5 55.5q-4 20 -4 38 q0 36 16 68q25 50 65 84q65 57 157 57q10 0 21 -1q81 -6 84 -31z" />
<glyph unicode="&#xe8;" horiz-adv-x="448" d="M168 158q6 -23 23.5 -33t54.5 -18q11 -2 22 -2.5t22 2.5q21 5 33.5 12t28.5 10t27 -5q15 -17 15 -35q0 -21 -15 -33q-39 -28 -100 -36q-17 -2 -32 -2q-40 0 -68 15q-60 25 -87 53.5t-47 90.5q-9 43 -9 79q0 68 33 114q18 34 48.5 60.5t60.5 35.5q38 14 73 14q31 0 59 -12 q59 -24 91 -98q6 -10 13.5 -34t7.5 -36v-6q0 -18 -11 -36q-13 -21 -33 -28q-15 -5 -51.5 -20.5t-62.5 -22.5q-70 -20 -96 -29zM168 347q-18 -14 -24 -47q-3 -14 -3 -24q0 -14 5 -21h4q8 0 24 3q20 4 47 11.5t39 9.5q18 4 35.5 15.5t21.5 23.5q-13 37 -36 52q-16 11 -35 11 q-8 0 -17 -1q-29 -7 -61 -33zM91 732h5q10 0 18 -3q10 -4 24.5 -14.5t22.5 -14.5l38 -22l48 -29q22 -13 40 -22l11 -6q8 -4 11 -6t9 -5.5t9 -6t6.5 -6t6 -7t3.5 -7.5q3 -10 3 -20q0 -16 -8 -33q-14 -25 -29 -29q-2 -2 -7 -2q-3 0 -8 1q-11 3 -15 3t-14.5 6t-13 8t-12 9 t-11.5 8q-29 20 -74 45.5t-66 38.5q-17 11 -24 16.5t-16 18.5q-7 12 -7 26q0 46 50 53z" />
<glyph unicode="&#xe9;" horiz-adv-x="448" d="M168 158q6 -23 23.5 -33t54.5 -18q11 -2 22 -2.5t22 2.5q21 5 33.5 12t28.5 10t27 -5q15 -17 15 -35q0 -21 -15 -33q-39 -28 -100 -36q-17 -2 -32 -2q-40 0 -68 15q-60 25 -87 53.5t-47 90.5q-9 43 -9 79q0 68 33 114q18 34 48.5 60.5t60.5 35.5q38 14 73 14q31 0 59 -12 q59 -24 91 -98q6 -10 13.5 -34t7.5 -36v-6q0 -18 -11 -36q-13 -21 -33 -28q-15 -5 -51.5 -20.5t-62.5 -22.5q-70 -20 -96 -29zM168 347q-18 -14 -24 -47q-3 -14 -3 -24q0 -14 5 -21h4q8 0 24 3q20 4 47 11.5t39 9.5q18 4 35.5 15.5t21.5 23.5q-13 37 -36 52q-16 11 -35 11 q-8 0 -17 -1q-29 -7 -61 -33zM328 678q7 1 14 1q30 0 38 -27q1 -8 1 -14q0 -26 -25 -48q-23 -16 -50.5 -28.5t-73.5 -28t-61 -21.5q-3 -1 -16.5 -6.5t-19 -7.5t-17.5 -4h-7q-6 0 -10 2q-6 2 -13.5 9.5t-11.5 20.5q-2 8 -2 15q0 11 5 21q9 16 30 28t42 21t48.5 19t38.5 15 q70 30 90 33z" />
<glyph unicode="&#xea;" horiz-adv-x="448" d="M168 158q6 -23 23.5 -33t54.5 -18q11 -2 22 -2.5t22 2.5q21 5 33.5 12t28.5 10t27 -5q15 -17 15 -35q0 -21 -15 -33q-39 -28 -100 -36q-17 -2 -32 -2q-40 0 -68 15q-60 25 -87 53.5t-47 90.5q-9 43 -9 79q0 68 33 114q18 34 48.5 60.5t60.5 35.5q38 14 73 14q31 0 59 -12 q59 -24 91 -98q6 -10 13.5 -34t7.5 -36v-6q0 -18 -11 -36q-13 -21 -33 -28q-15 -5 -51.5 -20.5t-62.5 -22.5q-70 -20 -96 -29zM168 347q-18 -14 -24 -47q-3 -14 -3 -24q0 -14 5 -21h4q8 0 24 3q20 4 47 11.5t39 9.5q18 4 35.5 15.5t21.5 23.5q-13 37 -36 52q-16 11 -35 11 q-8 0 -17 -1q-29 -7 -61 -33zM214 713q48 -4 119 -68q60 -53 68 -94q1 -5 1 -9q0 -20 -15 -36q-16 -19 -39 -19h-5q-14 1 -26 9t-17 14l-20 24q-2 3 -7.5 9.5t-9 11t-9.5 10.5l-9 10q-4 4 -8.5 8t-8.5 6t-7 2q-15 0 -40 -27.5t-37 -47.5q-15 -25 -38 -26q-2 -1 -3 -1 q-21 0 -35 18q-5 7 -5 18t5 27q10 33 22 52q23 37 62 74q38 35 60 35h2z" />
<glyph unicode="&#xeb;" horiz-adv-x="448" d="M168 158q6 -23 23.5 -33t54.5 -18q11 -2 22 -2.5t22 2.5q21 5 33.5 12t28.5 10t27 -5q15 -17 15 -35q0 -21 -15 -33q-39 -28 -100 -36q-17 -2 -32 -2q-40 0 -68 15q-60 25 -87 53.5t-47 90.5q-9 43 -9 79q0 68 33 114q18 34 48.5 60.5t60.5 35.5q38 14 73 14q31 0 59 -12 q59 -24 91 -98q6 -10 13.5 -34t7.5 -36v-6q0 -18 -11 -36q-13 -21 -33 -28q-15 -5 -51.5 -20.5t-62.5 -22.5q-70 -20 -96 -29zM168 347q-18 -14 -24 -47q-3 -14 -3 -24q0 -14 5 -21h4q8 0 24 3q20 4 47 11.5t39 9.5q18 4 35.5 15.5t21.5 23.5q-13 37 -36 52q-16 11 -35 11 q-8 0 -17 -1q-29 -7 -61 -33zM138 630q7 1 13 1q31 0 36 -33q1 -7 1 -14q0 -29 -21 -54q-17 -19 -37 -19h-6q-22 2 -34 19q-9 13 -9 32q0 5 1 10q3 23 19 38.5t37 19.5zM287 505h-4q-33 0 -39 37v13q0 30 20 53q15 16 31 16q12 0 25 -8q19 -12 25 -38q2 -7 2 -15 q0 -18 -11 -34q-15 -23 -49 -24z" />
<glyph unicode="&#xec;" horiz-adv-x="242" d="M131 438h5q11 0 26 -8q19 -9 22 -27q1 -6 0 -14.5t-6 -26t-6 -23.5q-21 -107 -24 -178q-1 -9 -1 -38t-2 -47.5t-6 -27.5q-11 -22 -43 -32q-12 -3 -21 -3q-19 0 -31 12q-4 4 -6.5 10.5t-3 12.5t0 17t1 17t2.5 20t3 19l25 207q3 24 6.5 39t10.5 33t19 27.5t29 10.5zM-3 719 h5q10 0 18 -3q10 -4 24.5 -14.5t22.5 -14.5l38 -23l48 -28q22 -13 40 -22l11 -6q8 -4 11 -6t9 -5.5t9 -6t6.5 -6t6 -7t3.5 -7.5q3 -10 3 -20q0 -16 -8 -32q-14 -26 -29 -30q-2 -2 -7 -2q-3 0 -8 1q-11 3 -15 3t-14.5 6t-13 8t-12 9t-11.5 8q-29 20 -74 45.5t-66 38.5 q-17 11 -24 16.5t-16 18.5q-7 12 -7 26q0 46 50 53z" />
<glyph unicode="&#xed;" horiz-adv-x="242" d="M131 438h5q11 0 26 -8q19 -9 22 -27q1 -6 0 -14.5t-6 -26t-6 -23.5q-21 -107 -24 -178q-1 -9 -1 -38t-2 -47.5t-6 -27.5q-11 -22 -43 -32q-12 -3 -21 -3q-19 0 -31 12q-4 4 -6.5 10.5t-3 12.5t0 17t1 17t2.5 20t3 19l25 207q3 24 6.5 39t10.5 33t19 27.5t29 10.5z M243 664q7 1 14 1q30 0 37 -27q2 -8 2 -14q0 -26 -25 -48q-23 -16 -50.5 -28.5t-73.5 -28t-61 -21.5q-3 -1 -16.5 -6.5t-19 -7.5t-16.5 -4h-8q-6 0 -10 2q-6 2 -13.5 9.5t-11.5 20.5q-2 8 -2 15q0 11 5 21q9 16 30 28t42 21t48.5 19t38.5 15q70 30 90 33z" />
<glyph unicode="&#xee;" horiz-adv-x="242" d="M131 438h5q11 0 26 -8q19 -9 22 -27q1 -6 0 -14.5t-6 -26t-6 -23.5q-21 -107 -24 -178q-1 -9 -1 -38t-2 -47.5t-6 -27.5q-11 -22 -43 -32q-12 -3 -21 -3q-19 0 -31 12q-4 4 -6.5 10.5t-3 12.5t0 17t1 17t2.5 20t3 19l25 207q3 24 6.5 39t10.5 33t19 27.5t29 10.5z M113 691q48 -4 119 -68q60 -53 68 -94q1 -5 1 -9q0 -20 -15 -36q-16 -19 -39 -19h-5q-14 1 -26 9t-18 14l-19 24q-2 3 -7.5 9.5t-9 11l-8.5 10.5l-10 10q-4 4 -8.5 8t-8.5 6t-7 2q-15 0 -40 -27.5t-37 -47.5q-15 -25 -38 -26q-2 -1 -3 -1q-21 0 -35 18q-5 7 -5 18t5 27 q10 33 22 52q23 37 63 74q37 35 59 35h2z" />
<glyph unicode="&#xef;" horiz-adv-x="242" d="M131 438h5q11 0 26 -8q19 -9 22 -27q1 -6 0 -14.5t-6 -26t-6 -23.5q-21 -107 -24 -178q-1 -9 -1 -38t-2 -47.5t-6 -27.5q-11 -22 -43 -32q-12 -3 -21 -3q-19 0 -31 12q-4 4 -6.5 10.5t-3 12.5t0 17t1 17t2.5 20t3 19l25 207q3 24 6.5 39t10.5 33t19 27.5t29 10.5zM51 629 q7 1 13 1q31 0 36 -33q1 -7 1 -14q0 -29 -21 -54q-17 -19 -37 -19h-6q-22 2 -33 18q-10 14 -10 33q0 5 1 10q3 23 19 38.5t37 19.5zM200 504h-4q-33 0 -38 36q-1 7 -1 14q0 30 20 53q15 16 31 16q12 0 25 -8q19 -12 25 -38q2 -7 2 -15q0 -18 -11 -34q-15 -23 -49 -24z" />
<glyph unicode="&#xf1;" horiz-adv-x="461" d="M164 293q31 30 42 46q36 55 84 91q41 30 72 30q17 0 32 -10q9 -5 19 -28.5t12 -47.5q1 -8 1 -18q0 -40 -10 -114q-11 -95 -11 -124q0 -6 1 -18.5t1 -21t-2 -13.5q-10 -27 -48 -33q-8 -2 -14 -2q-28 0 -42 21q-1 15 -1 31q0 52 10 120q7 55 7 90q0 18 -2 31 q-9 -1 -17 -5.5t-16 -13.5l-13 -15q-5 -6 -13.5 -19t-11.5 -17q-23 -30 -33 -45.5t-20.5 -35t-19.5 -34.5q-3 -5 -19.5 -40.5t-31 -57.5t-26.5 -24q-11 -2 -20 -2q-17 0 -26 8q-13 13 -13 35q0 13 5 61q1 7 1 11q2 23 7 64t8.5 73.5t4.5 64.5q0 5 0.5 19t1 20.5t1 19 t2.5 19.5l3 17q2 10 5 16l8 12q4 6 10.5 9.5t13.5 4.5t12 1q15 0 24 -7q12 -10 15.5 -31t3.5 -43v-51q0 -28 3 -44zM432 629q17 -9 17 -25q0 -3 -1 -6q-3 -21 -14.5 -40.5t-25.5 -31.5q-37 -32 -70 -32q-26 0 -49 20q-8 6 -18 27t-20 23q-9 1 -18.5 -5.5t-15 -13t-13.5 -18 t-9 -13.5q-13 -14 -28 -14q-3 0 -7 1q-18 4 -21 23v6q0 5 1 10q1 8 4 12l6 12q5 8 6 10q12 21 35 44q11 12 29 20q16 9 37 9q1 0 3 -1q22 0 39 -15q5 -5 20 -33.5t29 -29.5q11 0 22 12t18 25.5t18.5 21.5t25.5 2z" />
<glyph unicode="&#xf2;" horiz-adv-x="467" d="M200 490q27 5 51 5q72 0 123 -42q67 -56 70 -155q2 -12 2 -25q0 -44 -22 -87q-29 -54 -81 -92q-56 -37 -119 -37q-13 0 -26 2q-37 4 -76 23.5t-62 43.5q-36 53 -36 121v9q3 72 38 123l7 11q5 8 6.5 10t5.5 8t5 8l6 7q4 5 7 8t8 7.5t10 8.5l11 9q38 29 72 34zM133 231 q6 -39 40 -61q22 -15 50 -15q15 0 31 4q25 7 51 33.5t32 58.5q3 17 3 32q0 43 -26 77q-30 39 -71 39q-9 0 -18 -2q-40 -7 -70 -63q-24 -43 -24 -82q0 -11 2 -21zM124 744h5q10 0 18 -3q10 -4 24.5 -14.5t22.5 -14.5l38 -22l48 -29q22 -13 40 -22l12 -6q7 -4 10 -6t9 -5.5 t9 -6t6.5 -6t6 -7t3.5 -7.5q3 -10 3 -20q0 -16 -9 -33q-13 -25 -28 -29q-2 -2 -7 -2q-3 0 -8 1q-11 3 -15 3t-14.5 6t-13 8t-12 9t-11.5 8q-29 20 -74 45.5t-66 38.5q-17 11 -24 16.5t-15 18.5q-8 12 -8 26q0 46 50 53z" />
<glyph unicode="&#xf3;" horiz-adv-x="467" d="M200 490q27 5 51 5q72 0 123 -42q67 -56 70 -155q2 -12 2 -25q0 -44 -22 -87q-29 -54 -81 -92q-56 -37 -119 -37q-13 0 -26 2q-37 4 -76 23.5t-62 43.5q-36 53 -36 121v9q3 72 38 123l7 11q5 8 6.5 10t5.5 8t5 8l6 7q4 5 7 8t8 7.5t10 8.5l11 9q38 29 72 34zM133 231 q6 -39 40 -61q22 -15 50 -15q15 0 31 4q25 7 51 33.5t32 58.5q3 17 3 32q0 43 -26 77q-30 39 -71 39q-9 0 -18 -2q-40 -7 -70 -63q-24 -43 -24 -82q0 -11 2 -21zM336 695q7 1 14 1q30 0 38 -28q1 -7 1 -13q0 -26 -25 -48q-23 -16 -50.5 -28.5t-73.5 -28t-61 -21.5 q-3 -1 -16.5 -6.5t-19 -7.5t-17.5 -3q-4 -1 -7 -1q-6 0 -10 1q-6 3 -13.5 10.5t-11.5 20.5q-2 8 -2 15q0 11 5 20q9 17 30 29t42 21t48.5 19t38.5 15q70 30 90 33z" />
<glyph unicode="&#xf4;" horiz-adv-x="467" d="M200 490q27 5 51 5q72 0 123 -42q67 -56 70 -155q2 -12 2 -25q0 -44 -22 -87q-29 -54 -81 -92q-56 -37 -119 -37q-13 0 -26 2q-37 4 -76 23.5t-62 43.5q-36 53 -36 121v9q3 72 38 123l7 11q5 8 6.5 10t5.5 8t5 8l6 7q4 5 7 8t8 7.5t10 8.5l11 9q38 29 72 34zM133 231 q6 -39 40 -61q22 -15 50 -15q15 0 31 4q25 7 51 33.5t32 58.5q3 17 3 32q0 43 -26 77q-30 39 -71 39q-9 0 -18 -2q-40 -7 -70 -63q-24 -43 -24 -82q0 -11 2 -21zM218 733q48 -4 119 -68q60 -53 68 -94q1 -5 1 -9q0 -20 -15 -36q-16 -19 -39 -19h-5q-14 1 -26 9t-17 14 l-20 24q-2 3 -7.5 9.5t-9 11t-9.5 10.5l-9 10q-4 4 -8.5 8t-8.5 6t-7 2q-15 0 -40 -27.5t-37 -47.5q-15 -25 -38 -26q-2 -1 -3 -1q-21 0 -35 18q-5 6 -5 17.5t5 27.5q10 33 22 52q23 37 62 74q38 35 60 35h2z" />
<glyph unicode="&#xf5;" horiz-adv-x="467" d="M200 490q27 5 51 5q72 0 123 -42q67 -56 70 -155q2 -12 2 -25q0 -44 -22 -87q-29 -54 -81 -92q-56 -37 -119 -37q-13 0 -26 2q-37 4 -76 23.5t-62 43.5q-36 53 -36 121v9q3 72 38 123l7 11q5 8 6.5 10t5.5 8t5 8l6 7q4 5 7 8t8 7.5t10 8.5l11 9q38 29 72 34zM133 231 q6 -39 40 -61q22 -15 50 -15q15 0 31 4q25 7 51 33.5t32 58.5q3 17 3 32q0 43 -26 77q-30 39 -71 39q-9 0 -18 -2q-40 -7 -70 -63q-24 -43 -24 -82q0 -11 2 -21zM375 654q17 -9 17 -25v-6q-4 -21 -15.5 -40.5t-25.5 -31.5q-37 -32 -70 -32q-26 0 -49 20q-8 6 -18 27t-20 23 q-9 1 -18.5 -5.5t-15 -13t-13.5 -18t-9 -13.5q-13 -14 -28 -14q-3 0 -6 1q-19 4 -22 23v6v10q2 8 4 13l8 12q4 7 5 9q12 21 35 44q11 12 28 21q17 8 38 8h2q23 -1 40 -16q5 -5 20 -33.5t29 -29.5q11 0 22 12t18 25.5t18.5 21.5t25.5 2z" />
<glyph unicode="&#xf6;" horiz-adv-x="467" d="M200 490q27 5 51 5q72 0 123 -42q67 -56 70 -155q2 -12 2 -25q0 -44 -22 -87q-29 -54 -81 -92q-56 -37 -119 -37q-13 0 -26 2q-37 4 -76 23.5t-62 43.5q-36 53 -36 121v9q3 72 38 123l7 11q5 8 6.5 10t5.5 8t5 8l6 7q4 5 7 8t8 7.5t10 8.5l11 9q38 29 72 34zM133 231 q6 -39 40 -61q22 -15 50 -15q15 0 31 4q25 7 51 33.5t32 58.5q3 17 3 32q0 43 -26 77q-30 39 -71 39q-9 0 -18 -2q-40 -7 -70 -63q-24 -43 -24 -82q0 -11 2 -21zM152 657q7 1 13 1q31 0 36 -33q1 -7 1 -14q0 -29 -21 -54q-17 -19 -37 -19h-6q-22 2 -34 18q-9 14 -9 33 q0 5 1 10q3 23 19 38.5t37 19.5zM301 532h-4q-33 0 -39 36v14q0 30 20 53q15 16 31 16q12 0 25 -8q19 -12 25 -38q2 -7 2 -15q0 -18 -11 -34q-15 -23 -49 -24z" />
<glyph unicode="&#xf8;" horiz-adv-x="530" d="M391 491q5 1 9 1q13 0 26 -6q20 -7 26 -22q2 -6 2 -12q0 -15 -12 -34q-17 -25 -17 -38q0 -1 27 -41.5t31 -72.5q0 -27 2 -46v-9q0 -14 -5 -29q-6 -18 -9 -30t-13 -24l-18 -20q-6 -8 -19 -16l-21 -14q-7 -5 -21 -12q-38 -21 -99.5 -26.5t-68.5 -9.5q-3 -2 -9 -20 t-20.5 -35t-38.5 -20q-6 -1 -11 -1q-17 0 -29 10q-16 12 -18 30v6q0 15 7 30q10 18 10 29q0 17 -21.5 45.5t-23.5 32.5q-13 32 -13 65q0 30 11 62q23 66 66 104q53 46 132 53q5 0 29 -2q9 -1 16 -1q11 0 16 2q4 1 12 16.5t24 32.5t41 22zM176 172q9 8 18.5 23t19 33t13.5 24 q27 43 32 67q-8 3 -17 3q-14 0 -28 -8q-22 -15 -34.5 -41.5t-15.5 -54.5q-1 -5 -1 -10q0 -21 13 -36zM387 198q2 8 2 17q0 15 -5 33q-10 29 -25 40q-17 -13 -45.5 -60t-47.5 -94q42 1 76.5 17t44.5 47z" />
<glyph unicode="&#xf9;" horiz-adv-x="428" d="M135 440q18 -11 19 -38q1 -5 1 -11q0 -20 -5 -38q-1 -9 -3 -29q-4 -30 -5.5 -46.5t-2.5 -45.5v-10q0 -22 3 -36q5 -16 13 -32.5t25 -21.5q9 -3 19 -3q11 0 24 3q27 4 47.5 54t24.5 99q1 11 1 44v39v20q0 48 4 55q6 21 34 30q13 4 23 4q11 0 18 -5q30 -17 30 -128v-21 q-2 -67 -19 -126q-26 -93 -80 -135q-38 -30 -101 -30q-25 0 -55 5q-100 24 -112 123q-3 27 -3 72q0 27 1 61q2 36 5.5 57.5t13 45.5t29.5 34q18 10 46 10h5zM79 724h5q10 0 18 -3q10 -4 24.5 -14.5t22.5 -14.5l38 -22l48 -29q22 -13 40 -22l11 -6q8 -4 11 -6t9 -5.5t9 -6 t6.5 -6t6 -7t3.5 -7.5q3 -10 3 -20q0 -16 -8 -33q-14 -25 -29 -29q-2 -2 -7 -2q-3 0 -8 1q-11 3 -15 3t-14.5 6t-13 8t-12 9t-11.5 8q-29 20 -74 45.5t-66 38.5q-17 11 -24 16.5t-16 18.5q-7 12 -7 26q0 46 50 53z" />
<glyph unicode="&#xfa;" horiz-adv-x="428" d="M135 440q18 -11 19 -38q1 -5 1 -11q0 -20 -5 -38q-1 -9 -3 -29q-4 -30 -5.5 -46.5t-2.5 -45.5v-10q0 -22 3 -36q5 -16 13 -32.5t25 -21.5q9 -3 19 -3q11 0 24 3q27 4 47.5 54t24.5 99q1 11 1 44v39v20q0 48 4 55q6 21 34 30q13 4 23 4q11 0 18 -5q30 -17 30 -128v-21 q-2 -67 -19 -126q-26 -93 -80 -135q-38 -30 -101 -30q-25 0 -55 5q-100 24 -112 123q-3 27 -3 72q0 27 1 61q2 36 5.5 57.5t13 45.5t29.5 34q18 10 46 10h5zM339 683q7 1 14 1q30 0 37 -28q2 -7 2 -13q0 -26 -25 -48q-23 -16 -50.5 -28.5t-73.5 -28t-61 -21.5 q-3 -1 -16.5 -6.5t-19 -7.5t-16.5 -3q-5 -1 -8 -1q-6 0 -10 1q-6 3 -13.5 10.5t-11.5 20.5q-2 8 -2 15q0 11 5 20q9 17 30 29t42 21t48.5 19t38.5 15q70 30 90 33z" />
<glyph unicode="&#xfb;" horiz-adv-x="428" d="M135 440q18 -11 19 -38q1 -5 1 -11q0 -20 -5 -38q-1 -9 -3 -29q-4 -30 -5.5 -46.5t-2.5 -45.5v-10q0 -22 3 -36q5 -16 13 -32.5t25 -21.5q9 -3 19 -3q11 0 24 3q27 4 47.5 54t24.5 99q1 11 1 44v39v20q0 48 4 55q6 21 34 30q13 4 23 4q11 0 18 -5q30 -17 30 -128v-21 q-2 -67 -19 -126q-26 -93 -80 -135q-38 -30 -101 -30q-25 0 -55 5q-100 24 -112 123q-3 27 -3 72q0 27 1 61q2 36 5.5 57.5t13 45.5t29.5 34q18 10 46 10h5zM198 733q48 -4 119 -68q60 -53 68 -94q1 -5 1 -9q0 -20 -15 -36q-16 -19 -39 -19h-5q-14 1 -26 9t-17 14l-20 24 q-2 3 -7.5 9.5t-9 11t-9.5 10.5l-9 10q-4 4 -8.5 8t-8.5 6t-7 2q-15 0 -40 -27.5t-37 -47.5q-15 -25 -38 -26q-2 -1 -3 -1q-21 0 -35 18q-5 6 -5 17.5t5 27.5q10 33 22 52q23 37 62 74q38 35 60 35h2z" />
<glyph unicode="&#xfc;" horiz-adv-x="428" d="M135 440q18 -11 19 -38q1 -5 1 -11q0 -20 -5 -38q-1 -9 -3 -29q-4 -30 -5.5 -46.5t-2.5 -45.5v-10q0 -22 3 -36q5 -16 13 -32.5t25 -21.5q9 -3 19 -3q11 0 24 3q27 4 47.5 54t24.5 99q1 11 1 44v39v20q0 48 4 55q6 21 34 30q13 4 23 4q11 0 18 -5q30 -17 30 -128v-21 q-2 -67 -19 -126q-26 -93 -80 -135q-38 -30 -101 -30q-25 0 -55 5q-100 24 -112 123q-3 27 -3 72q0 27 1 61q2 36 5.5 57.5t13 45.5t29.5 34q18 10 46 10h5zM163 638q7 1 13 1q31 0 36 -33q1 -7 1 -14q0 -29 -21 -54q-17 -19 -37 -19h-6q-22 2 -33 19q-10 13 -10 32 q0 5 1 10q3 23 19 38.5t37 19.5zM312 513h-4q-33 0 -38 37q-1 6 -1 13q0 30 20 53q15 16 31 16q12 0 25 -8q19 -12 25 -38q2 -7 2 -15q0 -18 -11 -34q-15 -23 -49 -24z" />
<glyph unicode="&#xfd;" horiz-adv-x="450" d="M250 156q6 10 45 143t60 158q6 8 16 13t21.5 6t22.5 -6t18 -23q3 -7 3 -20q0 -48 -42 -179q-55 -167 -111 -268l-29 -58q-26 -51 -47 -75q-1 -1 -7 -9l-11 -13q-5 -6 -14.5 -15t-18 -15t-19.5 -12t-21 -7q-4 -1 -9 -1q-6 0 -13 1q-12 3 -23 11q-15 11 -17.5 23.5t5.5 25 t17.5 22.5t22.5 20.5t16 14.5q53 59 71 139q1 14 -6 28.5t-19 32t-17 27.5q-9 20 -41 77.5t-46 98.5l-10 24q-8 20 -11.5 30t-6.5 26q-2 10 -2 18q0 6 1 11q5 36 32 53q13 10 28 10q14 0 28 -8q3 -2 6 -5t6 -8l4 -9q2 -4 4 -11.5t3.5 -12t3.5 -12.5l3 -13q55 -168 104 -233z M377 695q7 1 14 1q30 0 37 -28q2 -7 2 -13q0 -26 -25 -48q-23 -16 -50.5 -28.5t-73.5 -28t-61 -21.5q-3 -1 -16.5 -6.5t-19 -7.5t-16.5 -3q-5 -1 -8 -1q-6 0 -10 1q-6 3 -13.5 10.5t-11.5 20.5q-2 8 -2 15q0 11 5 20q9 17 30 29t42 21t48.5 19t38.5 15q70 30 90 33z" />
<glyph unicode="&#xff;" horiz-adv-x="450" d="M250 156q6 10 45 143t60 158q6 8 16 13t21.5 6t22.5 -6t18 -23q3 -7 3 -20q0 -48 -42 -179q-55 -167 -111 -268l-29 -58q-26 -51 -47 -75q-1 -1 -7 -9l-11 -13q-5 -6 -14.5 -15t-18 -15t-19.5 -12t-21 -7q-4 -1 -9 -1q-6 0 -13 1q-12 3 -23 11q-15 11 -17.5 23.5t5.5 25 t17.5 22.5t22.5 20.5t16 14.5q53 59 71 139q1 14 -6 28.5t-19 32t-17 27.5q-9 20 -41 77.5t-46 98.5l-10 24q-8 20 -11.5 30t-6.5 26q-2 10 -2 18q0 6 1 11q5 36 32 53q13 10 28 10q14 0 28 -8q3 -2 6 -5t6 -8l4 -9q2 -4 4 -11.5t3.5 -12t3.5 -12.5l3 -13q55 -168 104 -233z M175 643q7 1 13 1q31 0 36 -33q1 -7 1 -14q0 -29 -21 -54q-17 -19 -37 -19h-6q-22 2 -33 18q-10 14 -10 33q0 5 1 10q3 23 19 38.5t37 19.5zM324 518h-4q-33 0 -38 36q-1 7 -1 14q0 30 20 53q15 16 31 16q12 0 25 -8q19 -12 25 -38q2 -7 2 -15q0 -18 -11 -34 q-15 -23 -49 -24z" />
<glyph unicode="&#x152;" horiz-adv-x="879" d="M523 542q27 -31 43 -67.5t23.5 -59.5t15.5 -28q21 -10 59 -11h8q33 0 66 4q10 1 20 1q24 0 44 -7q29 -10 31 -39v-9q0 -45 -39 -55q-14 -4 -55 -4q-16 0 -36 1h-19q-54 0 -66 -10q-16 -9 -23 -22t-13 -36.5t-12 -37.5q19 -17 62 -20q16 -1 33 -1q25 0 48 3q13 1 25 1 q24 0 45 -6q31 -9 33 -38v-10q0 -49 -37 -58q-20 -4 -45 -4q-31 0 -69 6q-12 1 -35.5 1t-36.5 2q-14 2 -49.5 8.5t-51.5 7.5q-6 1 -16 1q-14 0 -34 -1q-20 -2 -86 -22q-58 -16 -98 -16h-12q-75 4 -111 32q-27 21 -52.5 61t-31.5 79q-5 41 -5 80q0 71 18 133q27 96 86 149 q33 30 46.5 40t50.5 31q31 17 102 26q40 5 88 5q16 0 33 -1q13 0 33.5 -0.5t48.5 0.5q56 1 93 1h28h31l31 -2q15 0 29 -3t24.5 -7t17.5 -11t8 -17q1 -9 1 -17q0 -36 -25 -46q-28 -12 -82.5 -12t-98.5 5q-22 3 -43.5 2.5t-42.5 -2.5zM212 474q-24 -37 -40 -114q-9 -48 -9 -86 q0 -25 4 -47q11 -52 39 -84q26 -31 71 -31h3q90 2 151 49t67 138v12q0 91 -82 180q-48 49 -83 49h-7q-35 -5 -67 -23.5t-47 -42.5z" />
<glyph unicode="&#x153;" horiz-adv-x="621" d="M365 480q7 1 15 1q38 0 80 -18q51 -21 80 -67q15 -25 15 -52q0 -23 -11 -48q-17 -37 -60.5 -60t-93.5 -27q-25 -2 -36 -23q-10 -18 -10 -36q0 -4 1 -9q1 -22 23 -36q16 -10 31 -10q5 0 10 1q35 10 89 72q25 30 50 32h3q23 0 32 -26q2 -5 2 -12q0 -15 -11 -36 q-17 -30 -37 -52q-70 -79 -152 -79q-8 0 -17 1q-27 3 -70 23q-9 5 -21.5 13t-22.5 13.5t-20 6.5q-4 1 -11 1q-13 0 -33 -3q-13 -2 -27 -2q-21 0 -45 4q-35 6 -59.5 38t-29.5 72q-2 17 -2 34q0 55 18 110q23 73 62 107q10 9 30 21t32 14q7 2 23 2q10 0 24 -1q23 -1 35 -1h8 q6 1 38 15t68 17zM345 298q9 -1 18 -1q25 0 53 9q41 12 41 35q0 26 -43 37q-21 4 -39 4q-20 0 -37 -6q-2 -8 -2 -19q0 -23 9 -59zM256 302q-1 14 -24.5 31.5t-40.5 17.5q-32 0 -51 -49q-16 -42 -16 -86v-16q4 -51 25 -55q15 -3 27 -3q1 -1 2 -1q12 0 28 7q17 6 28 22t18 50 q5 23 5 54q0 13 -1 28z" />
<glyph unicode="&#x178;" horiz-adv-x="583" d="M269 402q12 6 21.5 17t20 29t14.5 24l102 143q20 25 30 41q30 45 31 46q9 7 24 10h8q12 0 24 -6q17 -8 22 -26q2 -5 2 -11q0 -8 -4 -18q-6 -16 -13.5 -26.5t-20.5 -25t-14 -16.5l-49 -61q-31 -38 -51.5 -65.5t-45.5 -65.5q-15 -23 -31 -52q-27 -41 -30 -56q-5 -21 -8 -91 q-1 -29 -9 -105q-6 -60 -8 -68q-6 -15 -26 -27q-16 -10 -35 -10h-7q-17 2 -26 17t-10 39v12q0 18 2 34q1 23 5 50t4 38q1 21 1 40q0 60 -12 94q-4 11 -17 32t-18 32q-9 26 -35 70.5t-34 61.5l-33 67q-3 5 -9.5 17t-9.5 18.5t-6 16.5t-3 18q0 33 37 61q21 17 40 17 q14 0 26 -8q5 -3 11 -14t10 -21l10 -24q6 -14 7 -17l38 -79q8 -18 21.5 -54t25 -58.5t28.5 -39.5zM229 849q7 1 13 1q31 0 36 -33q1 -7 1 -14q0 -29 -21 -54q-17 -19 -37 -19h-6q-22 2 -33 18q-10 14 -10 33q0 5 1 10q3 23 19 38.5t37 19.5zM378 724h-4q-33 0 -38 36 q-1 7 -1 14q0 30 20 53q15 16 31 16q12 0 25 -8q19 -12 25 -38q2 -7 2 -15q0 -18 -11 -34q-15 -23 -49 -24z" />
<glyph unicode="&#x2c6;" horiz-adv-x="409" d="M192 733q48 -4 119 -68q60 -53 68 -94q1 -5 1 -9q0 -20 -15 -36q-16 -19 -39 -19h-5q-14 1 -26 9t-17 14l-20 24q-2 3 -7.5 9.5t-9 11t-9.5 10.5l-9 10q-4 4 -8.5 8t-8.5 6t-7 2q-15 0 -40 -27.5t-37 -47.5q-15 -25 -38 -26q-2 -1 -3 -1q-21 0 -35 18q-5 6 -5 17.5 t5 27.5q10 33 22 52q23 37 62 74q38 35 60 35h2z" />
<glyph unicode="&#x2dc;" horiz-adv-x="414" d="M346 646q17 -9 17 -25q0 -3 -1 -6q-3 -21 -14.5 -40.5t-25.5 -31.5q-37 -32 -70 -32q-26 0 -49 20q-8 6 -18 27t-20 23q-9 1 -18.5 -5.5t-15 -13t-13.5 -18t-9 -13.5q-13 -14 -28 -14q-3 0 -7 1q-18 4 -21 23v6q0 5 1 10q1 8 4 13l6 12q5 7 6 9q12 21 35 44q11 12 29 21 q16 8 37 8h3q22 -1 39 -16q5 -5 20 -33.5t29 -29.5q11 0 22 12t18 25.5t18.5 21.5t25.5 2z" />
<glyph unicode="&#x2000;" horiz-adv-x="496" />
<glyph unicode="&#x2001;" horiz-adv-x="993" />
<glyph unicode="&#x2002;" horiz-adv-x="496" />
<glyph unicode="&#x2003;" horiz-adv-x="993" />
<glyph unicode="&#x2004;" horiz-adv-x="331" />
<glyph unicode="&#x2005;" horiz-adv-x="248" />
<glyph unicode="&#x2006;" horiz-adv-x="165" />
<glyph unicode="&#x2007;" horiz-adv-x="165" />
<glyph unicode="&#x2008;" horiz-adv-x="124" />
<glyph unicode="&#x2009;" horiz-adv-x="198" />
<glyph unicode="&#x200a;" horiz-adv-x="55" />
<glyph unicode="&#x2010;" horiz-adv-x="521" d="M83 321q20 3 176 3q13 0 61 2h42.5h33.5q29 -2 47 -7q26 -8 37 -37q6 -13 6 -28q0 -14 -6 -29q-4 -9 -17.5 -15.5t-38 -9.5t-40.5 -4t-48.5 -1.5t-38.5 -0.5q-59 -2 -104 -2q-104 0 -129 10q-18 6 -28 26t-9 44q0 43 56 49z" />
<glyph unicode="&#x2011;" horiz-adv-x="521" d="M83 321q20 3 176 3q13 0 61 2h42.5h33.5q29 -2 47 -7q26 -8 37 -37q6 -13 6 -28q0 -14 -6 -29q-4 -9 -17.5 -15.5t-38 -9.5t-40.5 -4t-48.5 -1.5t-38.5 -0.5q-59 -2 -104 -2q-104 0 -129 10q-18 6 -28 26t-9 44q0 43 56 49z" />
<glyph unicode="&#x2013;" horiz-adv-x="667" d="M591 313q25 -8 33 -41q3 -14 3 -25q0 -15 -7 -24q-2 -4 -7.5 -7.5t-13.5 -5.5l-16 -4q-8 -2 -20 -2.5t-20.5 -1.5t-22.5 -1h-21h-20h-17q-4 0 -147 -3q-79 -1 -125 -1q-36 0 -51 1q-41 4 -70 16q-18 8 -23 24q-2 9 -2 22q0 9 1 19t6.5 17.5t15.5 12.5t20 9t25.5 5.5 t27 2.5t28.5 1h28q9 0 26 -1t22 -1q105 -3 237 -3h22q59 0 88 -9z" />
<glyph unicode="&#x2014;" horiz-adv-x="788" d="M81 317q56 14 140 14q31 0 66 -2q48 -3 291 -3q5 0 28 0.5t38.5 0.5t35.5 -2t32 -6q21 -7 30 -34q5 -15 5 -30q0 -12 -3 -24q-1 -6 -6.5 -11.5t-15.5 -9t-20.5 -6t-26.5 -4.5l-27 -2q-12 -1 -31 -1h-29h-30h-25q-11 0 -328 5q-9 0 -33 -1t-42 -1t-29 3q-29 7 -41 33 q-9 17 -9 33q0 9 3 18q7 25 27 30z" />
<glyph unicode="&#x2018;" horiz-adv-x="455" d="M196 668q17 -18 17 -40v-6q-3 -25 -18 -47.5t-23 -54.5q-3 -15 -3 -30q0 -17 5 -36q4 -14 24.5 -47.5t22.5 -45.5v-7q0 -20 -14 -38q-17 -20 -36 -24q-3 -1 -6 -1q-25 0 -55 35q-33 38 -46 70q-15 34 -16 80q-1 6 -1 11q0 40 9 77q11 42 36 75.5t58 41.5q4 1 8 1 q16 0 38 -14z" />
<glyph unicode="&#x2019;" horiz-adv-x="294" d="M153 754h6q25 0 45 -32q23 -37 34 -88q8 -41 8 -78q0 -11 -1 -22q-4 -60 -30.5 -113.5t-58.5 -67.5q-13 -5 -25 -5t-22 4q-22 9 -27 26q-1 5 -1 11q0 11 5 23q7 19 20.5 41.5t17.5 32.5q6 17 7 50v10q0 25 -4 43q-4 17 -22 53q-17 33 -17 54q0 24 22 40q20 14 43 18z" />
<glyph unicode="&#x201a;" horiz-adv-x="267" d="M126 407h6q25 0 46 -33q22 -36 32 -88q9 -40 9 -77q0 -11 -1 -22q-4 -60 -30.5 -113.5t-58.5 -67.5q-13 -5 -25 -5t-22 4q-22 9 -27 26q-1 5 -1 11q0 11 4 23q8 19 21.5 41.5t17.5 32.5q6 17 7 49v11q0 25 -4 43q-4 17 -22 52q-17 34 -17 55q0 24 21 39t44 19z" />
<glyph unicode="&#x201c;" horiz-adv-x="455" d="M196 668q17 -18 17 -40v-6q-3 -25 -18 -47.5t-23 -54.5q-3 -15 -3 -30q0 -17 5 -36q4 -14 24.5 -47.5t22.5 -45.5v-7q0 -20 -14 -38q-17 -20 -36 -24q-3 -1 -6 -1q-25 0 -55 35q-33 38 -46 70q-15 34 -16 80q-1 6 -1 11q0 40 9 77q11 42 36 75.5t58 41.5q4 1 8 1 q16 0 38 -14zM404 668q9 -17 9 -36q0 -7 -1 -14q-5 -26 -16 -42.5t-21 -46.5q-8 -25 -8 -51v-10q2 -31 25 -64q24 -36 24 -46q0 -17 -14 -35q-15 -19 -32 -24q-8 -2 -17 -2q-35 0 -64 45q-36 57 -39 114q-1 11 -1 22q0 70 23 126q26 63 74 78q3 1 9 1q8 0 21 -2 q24 -4 28 -13z" />
<glyph unicode="&#x201d;" horiz-adv-x="470" d="M139 689q6 2 12 2q31 0 61 -48q27 -42 34 -82q4 -23 4 -47q0 -38 -11 -77q-18 -63 -52 -102q-52 -60 -90 -60h-5q-27 2 -35 19q-4 9 -4 19t4 21q8 21 26 40q3 4 15 17t18 21.5t10 16.5q10 22 12 52v13q0 21 -5 35q-7 19 -28 47q-22 28 -22 50q0 23 15 39q16 17 41 24z M329 694h6q25 0 45 -32q23 -37 34 -88q8 -41 8 -78q0 -11 -1 -22q-4 -60 -30.5 -113.5t-58.5 -67.5q-13 -5 -25 -5t-22 4q-22 9 -27 26q-1 5 -1 11q0 11 5 23q7 19 20.5 41.5t17.5 32.5q6 17 7 50v10q0 26 -4 43t-22 53q-17 33 -17 54q0 24 22 40q20 14 43 18z" />
<glyph unicode="&#x201e;" horiz-adv-x="470" d="M139 404q6 2 12 2q31 0 61 -48q27 -42 34 -82q4 -23 4 -47q0 -38 -11 -77q-18 -63 -52 -102q-52 -60 -90 -60h-5q-27 2 -35 20q-4 8 -4 18t4 20q8 22 26 41q3 4 15 17t18 21.5t10 16.5q10 22 12 52v13q0 21 -5 35q-7 19 -28 46q-22 29 -22 51q0 23 15 39q16 17 41 24z M329 409h6q25 0 45 -33q23 -36 34 -88q8 -40 8 -77q0 -11 -1 -22q-4 -60 -30.5 -113.5t-58.5 -67.5q-13 -5 -25 -5t-22 4q-22 9 -27 26q-1 5 -1 11q0 11 5 23q7 19 20.5 41.5t17.5 32.5q6 17 7 49v11q0 25 -4 43q-4 17 -22 52q-17 34 -17 55q0 24 22 39q20 15 43 19z" />
<glyph unicode="&#x2022;" horiz-adv-x="364" d="M195 369q9 1 17 1q51 0 82 -26q33 -28 33 -80v-12q-3 -41 -32 -75.5t-68 -52.5q-38 -18 -81 -18h-2q-44 1 -74 26q-29 24 -29 69q0 9 1 19q7 60 51.5 102t101.5 47z" />
<glyph unicode="&#x2026;" horiz-adv-x="242" d="M158 154q27 -14 36 -44q5 -16 5 -32q0 -14 -4 -28q-8 -30 -30.5 -53t-51.5 -24h-3l-45 14q-24 15 -25 38v5q0 42 30 88q27 38 67 38q10 0 21 -2zM404 154q27 -14 36 -44q5 -16 5 -32q0 -14 -4 -28q-8 -30 -30.5 -53t-51.5 -24h-3l-45 14q-24 15 -25 38v5q0 42 30 88 q27 38 67 38q10 0 21 -2zM649 154q27 -14 36 -44q5 -16 5 -32q0 -14 -4 -28q-8 -30 -30.5 -53t-51.5 -24h-3l-45 14q-24 15 -25 38v5q0 42 31 88q26 38 66 38q10 0 21 -2z" />
<glyph unicode="&#x202f;" horiz-adv-x="198" />
<glyph unicode="&#x2039;" horiz-adv-x="348" d="M186 252q0 -2 29.5 -16.5t60.5 -34.5t33 -36v-7q0 -17 -13 -30t-35 -13h-8q-15 1 -45 17q-1 0 -18 10l-26 16l-27 18q-18 12 -28.5 21.5t-22.5 21.5t-17 23q-4 9 -4 17q0 13 17 31q16 16 30 24q67 38 141 67q5 2 10 2q11 0 24 -8q19 -11 21 -24v-5q0 -20 -26 -40 q-31 -21 -63.5 -35.5t-32.5 -18.5z" />
<glyph unicode="&#x203a;" horiz-adv-x="379" d="M176 256q-8 13 -72 50q-64 36 -64 53q0 22 24 41q23 18 43 18q25 -4 52 -18.5t57.5 -36t43.5 -28.5q44 -28 55 -48q7 -12 7 -27q0 -13 -6 -27q-3 -8 -8 -15t-13.5 -14t-14 -12t-18.5 -12.5t-18.5 -11t-21 -12t-19.5 -10.5q-6 -3 -21.5 -13t-26 -15.5t-23.5 -10.5 q-12 -4 -20 -4h-3q-15 1 -27 13t-15 25q-1 6 -1 11q0 19 16 34q20 21 52.5 39.5t41.5 30.5z" />
<glyph unicode="&#x205f;" horiz-adv-x="248" />
<glyph unicode="&#x20ac;" horiz-adv-x="682" d="M315 474q3 -4 34 -4q18 0 45 2h24q54 0 71 -14q10 -29 10 -46q0 -13 -6 -20q-18 -13 -55.5 -19t-85.5 -9t-69 -7q-4 -7 -2.5 -22.5t4.5 -23.5q1 -5 38 -5h31q7 1 14 1q54 0 65 -19q5 -23 5 -38v-8q-2 -16 -19 -28q-15 -10 -59 -11.5t-50 -4.5q18 -46 81 -61q24 -6 47 -6 q36 0 68 15q11 4 29 15.5t26 13.5q15 5 27 5q19 0 30 -13q14 -16 14 -37q0 -8 -2 -16q-6 -31 -29 -48q-17 -13 -61 -27.5t-74 -18.5q-26 -3 -51 -3q-79 0 -139 34q-78 45 -110 141q-24 -4 -45 -4q-34 0 -59 11q-20 15 -20 38t14 42q13 8 50.5 11t48.5 7q5 3 6 9t-0.5 16.5 t-1.5 14.5q-10 6 -41.5 7.5t-56 9t-26.5 28.5q-1 6 -1 12q0 36 28 54q10 6 58 8.5t58 7.5q47 84 116 145.5t154 75.5q20 4 45 4q30 0 67 -7q65 -12 72 -40q1 -4 1 -8q0 -14 -11 -30q-14 -20 -30 -24q-10 -5 -28 -5q-13 0 -32 3q-36 5 -51 5h-4q-5 1 -9 1q-37 0 -92 -40 q-62 -45 -61 -70z" />
<glyph unicode="&#x2122;" horiz-adv-x="848" d="M272 566q-9 -23 -12 -88t-18 -102q-11 -30 -42 -30q-7 0 -14 1q-25 5 -30 31q-3 12 -3 25q0 16 4 35q8 34 8 69q0 32 -12 50q-14 -1 -31 -0.5t-32 2.5t-26 9.5t-15 20.5q-3 13 -3 24q0 51 69 65q21 4 122 9q6 1 11 1h18q33 0 68 -5q46 -7 54 -27q3 -9 3 -18 q0 -17 -11 -35q-16 -28 -45 -32q-7 -1 -31 -1q-2 1 -4 1q-21 0 -28 -5zM668 507q-13 -11 -23 -35.5t-16.5 -44t-24.5 -32.5q-15 -10 -36 -10q-7 0 -14 1q-20 10 -31.5 59.5t-25.5 61.5q-18 -13 -29.5 -53t-27.5 -68q-14 -25 -43 -25h-6q-14 1 -21.5 9.5t-7.5 23.5q-1 4 -1 9 q0 10 1 20q1 15 7 35l10 32q4 12 10 28t7 18q13 37 20 53.5t22.5 41t39.5 33.5q17 7 40 7q7 0 15 -1q20 -2 39.5 -33t22.5 -31h1q11 0 32 21q21 22 29 26q14 7 26.5 10.5t22.5 1.5t17.5 -4.5t14.5 -12.5l12 -15q4 -6 9.5 -20.5t7.5 -21.5l7 -25l8 -24q16 -45 23 -70 q5 -18 7 -38q1 -9 1 -19t-1 -19q-2 -20 -14 -33t-32 -13h-3q-24 0 -37 18q-15 20 -19.5 45t-14 53t-24.5 41z" />
</font>
</defs>
</svg>
