<?xml version="1.0" standalone="no"?>
<!DOCTYPE svg PUBLIC "-//W3C//DTD SVG 1.1//EN" "http://www.w3.org/Graphics/SVG/1.1/DTD/svg11.dtd" >
<svg xmlns="http://www.w3.org/2000/svg">
<metadata>
This is a custom SVG webfont generated by Fontspring.
Designer    : FontSite.com
Foundry URL : http://www.fontsite.com
</metadata>
<defs>
<font id="webfont" horiz-adv-x="467" >
<font-face units-per-em="1000" ascent="800" descent="-200" />
<missing-glyph horiz-adv-x="187" />
<glyph unicode=" "  horiz-adv-x="187" />
<glyph unicode="&#x09;" horiz-adv-x="187" />
<glyph unicode="&#xa0;" horiz-adv-x="187" />
<glyph unicode="!" horiz-adv-x="199" d="M54 149l133 518h92l-175 -518h-50zM-9 0l26 85h85l-26 -85h-85z" />
<glyph unicode="&#x22;" horiz-adv-x="332" d="M309 399l-14 268h93l-14 -268h-65zM157 399l-14 268h93l-14 -268h-65z" />
<glyph unicode="#" horiz-adv-x="683" d="M135 37l75 186h-137l26 64h137l40 99h-137l26 65h137l75 186h69l-75 -186h100l75 186h69l-75 -186h137l-26 -65h-137l-41 -99h137l-26 -64h-137l-75 -186h-68l75 186h-100l-75 -186h-69zM305 287h99l41 99h-100z" />
<glyph unicode="$" horiz-adv-x="469" d="M129 -44l26 82q-57 8 -82.5 32.5t-25.5 73.5q0 37 19 75h77q-12 -41 -12 -62q0 -24 17 -38.5t45 -14.5q62 0 98 36q16 16 27.5 44.5t11.5 53.5q0 33 -28 58q-7 6 -55 38q-64 42 -83 66t-19 64q0 49 22.5 94.5t57.5 69.5q43 29 121 35l21 70h48l-22 -72q49 -7 76 -33 t27 -67q0 -19 -15 -72h-78q9 49 9 61q0 47 -64 47q-49 0 -79 -27q-17 -15 -28.5 -42t-11.5 -53q0 -22 12.5 -36t54.5 -41q68 -44 93 -75t25 -72q0 -52 -24.5 -101.5t-62.5 -74.5q-47 -31 -124 -37l-26 -82h-48z" />
<glyph unicode="%" horiz-adv-x="609" d="M175 323q-94 0 -94 66q0 11 4 27l54 177q24 78 114 78q44 0 70.5 -18t26.5 -49q0 -13 -6 -32l-54 -176q-12 -38 -39 -55.5t-76 -17.5zM55 0l502 667h60l-502 -667h-60zM178 367q25 0 39 11t22 38l48 156q7 22 7 28q0 11 -12.5 19.5t-30.5 8.5q-43 0 -61 -56l-48 -156 q-4 -16 -4 -20q0 -29 40 -29zM325 62q0 11 4 27l54 177q24 78 114 78q44 0 70.5 -18t26.5 -49q0 -13 -6 -32l-54 -176q-12 -38 -39 -55.5t-76 -17.5q-94 0 -94 66zM382 69q-1 -14 10 -21.5t30 -7.5q25 0 39 11t22 38l48 156q7 22 7 28q0 11 -12.5 19.5t-30.5 8.5 q-43 0 -61 -56l-48 -156q-4 -16 -4 -20z" />
<glyph unicode="&#x26;" horiz-adv-x="535" d="M23 108q0 58 25.5 124.5t62.5 104.5q27 27 69 26l22 -1q-64 17 -64 71q0 55 25 114.5t60 89.5q36 30 117 30h124l-21 -70h-101q-41 0 -63 -19q-22 -18 -36.5 -56.5t-14.5 -78.5q0 -31 17.5 -43t61.5 -12h95l32 104h83l-30 -104h88l-22 -70h-89l-96 -318h-214 q-63 0 -97 28t-34 80zM111 114q0 -24 16 -34t56 -10h122l75 248h-114q-70 0 -101 -41q-20 -27 -37 -78t-17 -85z" />
<glyph unicode="'" horiz-adv-x="180" d="M151 399l-14 268h93l-14 -268h-65z" />
<glyph unicode="(" horiz-adv-x="232" d="M15 -32q0 44 6.5 121t12.5 111q25 128 141 324q72 121 91 143h56l-39 -75q-118 -221 -158 -373t-45 -391h-60q-5 39 -5 140z" />
<glyph unicode=")" horiz-adv-x="232" d="M73 -29q-70 -119 -91 -143h-56l39 75q119 222 158.5 373t44.5 391h60q5 -35 5 -165q0 -29 -7 -105.5t-12 -101.5q-24 -123 -141 -324z" />
<glyph unicode="*" horiz-adv-x="347" d="M178 437l-34 46l73 53l-76 51l32 47l76 -50l26 86l55 -16l-27 -89l89 2l3 -56l-89 -3l29 -84l-53 -20l-32 85z" />
<glyph unicode="+" d="M235 163v146h-153v68h153v146h68v-146h152v-68h-152v-146h-68z" />
<glyph unicode="," horiz-adv-x="180" d="M25 79h88l-116 -168h-61z" />
<glyph unicode="-" horiz-adv-x="174" d="M-2 223l20 66h174l-20 -66h-174z" />
<glyph unicode="." horiz-adv-x="180" d="M-22 0l27 87h88l-26 -87h-89z" />
<glyph unicode="/" horiz-adv-x="319" d="M-20 -107h-59l458 774h60z" />
<glyph unicode="0" d="M23 107q0 29 18 89l98 322q19 64 65 108q51 50 143 50q76 0 120 -31q45 -30 45 -88q0 -36 -15 -86l-98 -320q-24 -75 -68 -113q-55 -47 -146 -47q-77 0 -119.5 30.5t-42.5 85.5zM111 118q0 -26 21.5 -42t57.5 -16q46 0 79 25q17 13 27 30t21 54l103 335q4 12 4 40 q0 29 -22 46t-59 17q-48 0 -77 -26t-47 -85l-99 -327q-9 -33 -9 -51z" />
<glyph unicode="1" d="M145 0l169 553q-62 -52 -116 -52l24 81q97 32 151 91h65l-206 -673h-87z" />
<glyph unicode="2" d="M-10 0l23 76q80 59 242 223q148 148 148 248q0 60 -72 60q-41 0 -63.5 -20.5t-33.5 -67.5q0 -5 -3 -12h-86q9 60 42 103q50 66 161 66q68 0 103.5 -32.5t35.5 -93.5q0 -58 -44 -134.5t-120 -152.5q-55 -55 -120.5 -111.5t-94.5 -75.5h248l-23 -76h-343z" />
<glyph unicode="3" d="M62 11q-52 29 -52 83q0 21 17 75h85l-3 -20q-4 -26 -4 -36q0 -53 73 -53q61 0 91 54q15 28 29.5 76t14.5 71q0 48 -72 47l-36 -1l23 74q9 -1 20 -1q63 0 90 33q18 21 35 66.5t17 71.5q0 23 -18.5 39.5t-45.5 16.5q-53 0 -79 -38q-11 -19 -19 -60h-87q13 67 32 95 q50 72 158 72q62 0 99 -22q20 -12 32 -35.5t12 -48.5q0 -65 -35 -146q-26 -61 -101 -84q59 -19 59 -70q0 -38 -17.5 -95.5t-39.5 -94.5q-30 -50 -70.5 -69.5t-112.5 -19.5q-59 0 -95 20z" />
<glyph unicode="4" d="M2 160l21 70l332 437h132l-134 -437h100l-22 -70h-99l-49 -160h-87l49 160h-243zM111 230h155l107 349z" />
<glyph unicode="5" horiz-adv-x="470" d="M34 100q0 37 22 75h83q-15 -45 -15 -65q0 -26 20 -41t54 -15q38 0 67 22.5t40 59.5l34 112q10 33 10 56q0 24 -15.5 38t-41.5 14q-50 0 -85 -33q-14 -14 -33 -51h-89l132 395h296l-24 -76h-212l-72 -217q33 29 57 40t58 11q55 0 88.5 -28t33.5 -74q0 -25 -14 -70 l-39 -129q-13 -45 -60 -88q-48 -45 -136 -45q-74 0 -116.5 29t-42.5 80z" />
<glyph unicode="6" d="M33 110q0 31 13 75l101 331q49 160 202 160q70 0 108.5 -24t38.5 -67q0 -30 -12 -69h-83l1 14q2 24 2 30q0 22 -16 34.5t-44 12.5q-39 0 -68 -24t-42 -67l-45 -150q58 58 132 58q55 0 84.5 -26t29.5 -73q0 -38 -13 -81l-27 -88q-27 -88 -75 -126.5t-130 -38.5 q-73 0 -115 32t-42 87zM121 116q0 -25 20.5 -40.5t54.5 -15.5q82 0 114 104l30 98q7 23 7 48q0 45 -66 45q-45 0 -78 -24.5t-46 -68.5l-30 -98q-6 -21 -6 -48z" />
<glyph unicode="7" d="M64 0l336 591h-245l24 76h338l-23 -76l-334 -591h-96z" />
<glyph unicode="8" d="M65 24q-38 31 -38 77q0 24 7 45l33 107q19 46 45 68.5t82 41.5q-1 1 -4 3t-4 2q-38 24 -47.5 35.5t-9.5 35.5q0 16 6 36l32 104q14 46 61.5 71.5t117.5 25.5q65 0 101 -29t36 -82q0 -18 -5 -36l-22 -72q-11 -37 -34 -57.5t-67 -32.5q-1 0 -3 -1t-5 -1.5t-5 -1.5 q29 -13 41 -21q36 -22 36 -67q0 -20 -6 -41l-38 -122q-19 -62 -78 -93q-55 -28 -120 -28q-70 0 -112 33zM274 392q77 0 97 65l22 72q6 19 6 31q0 21 -20.5 34t-53.5 13q-63 0 -80 -58l-28 -92q-1 -22 -1 -23q0 -18 16.5 -30t41.5 -12zM114 112q0 -23 21.5 -37.5t55.5 -14.5 q42 0 70 20q24 18 38 66l27 88q6 20 6 35q0 23 -22 38t-57 15q-77 0 -99 -69l-33 -107q-7 -23 -7 -34z" />
<glyph unicode="9" d="M23 90q0 45 18 88h85q-16 -43 -16 -68q0 -50 68 -50q49 0 74 20.5t41 71.5l49 160q-66 -52 -127 -52q-46 0 -78 29.5t-32 70.5q0 23 11 57l36 118q22 73 82 113q40 28 116 28q68 0 108 -29.5t40 -79.5q0 -26 -15 -77l-103 -338q-17 -57 -32 -81.5t-44 -44.5 q-51 -35 -127 -35q-69 0 -111.5 27t-42.5 72zM259 329q38 0 71 25.5t44 62.5l30 98q7 22 7 35q0 26 -19.5 41.5t-50.5 15.5q-34 0 -62.5 -19.5t-37.5 -48.5l-38 -122q-11 -36 -11 -39q0 -22 18.5 -35.5t48.5 -13.5z" />
<glyph unicode=":" horiz-adv-x="180" d="M92 370l27 87h88l-26 -87h-89zM-21 0l27 87h88l-26 -87h-89z" />
<glyph unicode=";" horiz-adv-x="180" d="M91 370l27 87h89l-27 -87h-89zM25 79h88l-116 -168h-61z" />
<glyph unicode="&#x3c;" horiz-adv-x="500" d="M33 302v71l433 206v-83l-344 -159l344 -159v-83z" />
<glyph unicode="=" d="M82 369v68h373v-68h-373zM82 249v68h373v-68h-373z" />
<glyph unicode="&#x3e;" horiz-adv-x="500" d="M34 95v83l344 159l-344 160v82l433 -206v-72z" />
<glyph unicode="?" horiz-adv-x="358" d="M126 150l19 96q6 33 25.5 64.5t79.5 101.5q78 93 78 154q0 21 -13 33.5t-35 12.5q-39 0 -61 -37q-12 -20 -22 -72q0 -1 -0.5 -3t-1.5 -5.5t-2 -6.5h-79q2 14 3 16q10 55 22.5 82t39.5 51q48 40 123 40q122 0 122 -103q0 -28 -13 -67.5t-33 -68.5q-9 -15 -17 -23.5 t-47 -46.5l-57 -58q-28 -28 -36.5 -42t-13.5 -43l-14 -75h-67zM74 0l25 81h87l-27 -81h-85z" />
<glyph unicode="@" horiz-adv-x="733" d="M161 -5q-48 47 -75 113.5t-27 136.5q0 146 101.5 247.5t249.5 101.5q136 0 226.5 -85t90.5 -212q0 -94 -50 -165t-115 -71q-29 0 -49.5 17.5t-24.5 46.5q-45 -69 -125 -69q-61 0 -101 45.5t-40 115.5q0 82 52 142t123 60q78 0 107 -67l11 55h64l-40 -205q-6 -30 -6 -47 q0 -18 9 -29.5t23 -11.5q40 0 72.5 56t32.5 126q0 105 -72.5 172.5t-185.5 67.5q-122 0 -206 -84.5t-84 -208.5q0 -119 79 -203q79 -82 213 -82q114 0 205 42l17 -57q-98 -43 -220 -43q-157 0 -255 95zM294 219q0 -43 23.5 -70.5t60.5 -27.5q44 0 75 41t31 99q0 41 -21.5 66 t-57.5 25q-45 0 -78 -39.5t-33 -93.5z" />
<glyph unicode="A" horiz-adv-x="489" d="M31 0h-88l394 667h102l-17 -667h-87l5 154h-221zM161 226h181l15 349z" />
<glyph unicode="B" horiz-adv-x="476" d="M-12 0l204 667h193q66 0 91 -36q25 -34 25 -74q0 -50 -20 -96.5t-54 -75.5q-21 -18 -83 -34l8 -2q79 -19 79 -86q0 -22 -9.5 -69t-19.5 -73q-49 -121 -189 -121h-225zM194 388h92q60 0 90 39q17 22 29.5 56t12.5 57q0 28 -20 44t-54 16h-86zM97 72h88q88 0 124 59 q14 24 24 60.5t10 65.5q0 28 -16 44q-15 15 -56 15h-99z" />
<glyph unicode="C" horiz-adv-x="439" d="M19 105q0 35 13 79l96 314q26 87 86.5 133t148.5 46q61 0 98.5 -32.5t37.5 -84.5q0 -23 -13 -62l-4 -12h-86q15 50 15 67q0 24 -20 39.5t-51 15.5q-44 0 -81 -36q-30 -28 -57 -116l-83 -272q-12 -39 -12 -63q0 -29 18.5 -45.5t49.5 -16.5q25 0 51 13.5t40 33.5 q31 42 42 91h85q-34 -207 -237 -207q-137 0 -137 115z" />
<glyph unicode="D" horiz-adv-x="484" d="M-10 0l204 667h177q73 0 106 -28q19 -16 31.5 -42t12.5 -50q0 -45 -38.5 -183t-75.5 -226q-30 -71 -78 -104.5t-121 -33.5h-218zM99 72h99q51 0 79.5 22t54.5 81q24 57 66 201q35 118 35 163q0 30 -17.5 43t-57.5 13h-99z" />
<glyph unicode="E" horiz-adv-x="394" d="M-10 0l204 667h288l-22 -72h-201l-67 -218h192l-22 -72h-192l-71 -233h214l-22 -72h-301z" />
<glyph unicode="F" horiz-adv-x="371" d="M-11 0l204 667h283l-22 -72h-196l-67 -218h191l-22 -72h-191l-93 -305h-87z" />
<glyph unicode="G" horiz-adv-x="472" d="M24 114q0 44 18 101l77 254q35 114 81 154q28 24 74.5 39t93.5 15q70 0 108 -28.5t38 -81.5q0 -28 -17 -79h-86q15 45 15 67q0 53 -66 53q-63 0 -96.5 -30t-57.5 -109l-84 -276q-10 -34 -10 -64q0 -35 21 -53q22 -17 71 -17q42 0 88 20l63 205h-104l22 72h191l-101 -328 q-73 -38 -165 -38q-82 0 -128 32.5t-46 91.5z" />
<glyph unicode="H" horiz-adv-x="493" d="M-11 0l204 667h87l-87 -285h204l87 285h87l-204 -667h-87l95 310h-204l-95 -310h-87z" />
<glyph unicode="I" horiz-adv-x="207" d="M-9 0l204 667h87l-204 -667h-87z" />
<glyph unicode="J" horiz-adv-x="384" d="M-32 89q0 25 6 45l19 62h90l-19 -62q-8 -26 -8 -36q0 -39 57 -39q42 0 65.5 22.5t41.5 80.5l154 505h87l-163 -533q-23 -77 -71 -108q-53 -36 -129 -36q-63 0 -96.5 25.5t-33.5 73.5z" />
<glyph unicode="K" horiz-adv-x="454" d="M292 0l-96 375l273 292h106l-284 -303l97 -364h-96zM-11 0l204 667h87l-204 -667h-87z" />
<glyph unicode="L" horiz-adv-x="350" d="M-11 0l204 667h87l-182 -595h208l-22 -72h-295z" />
<glyph unicode="M" horiz-adv-x="682" d="M-10 0l219 667h136l-34 -522l295 522h144l-191 -667h-83l171 591l-334 -591h-85l38 591l-192 -591h-84z" />
<glyph unicode="N" horiz-adv-x="515" d="M-9 0l204 667h133l1 -590l180 590h81l-204 -667h-134l1 591l-181 -591h-81z" />
<glyph unicode="O" horiz-adv-x="470" d="M64 21q-49 32 -49 79q0 30 16 82l108 352q21 68 77.5 105.5t137.5 37.5q77 0 117 -30q47 -36 47 -88q0 -28 -14 -72l-97 -320q-18 -60 -37 -90t-51 -52q-51 -35 -135 -35q-74 0 -120 31zM103 119q0 -27 23 -43.5t61 -16.5q54 0 87 33.5t58 113.5l79 260q19 63 19 80 q0 65 -76 65q-63 0 -100 -40q-25 -25 -49 -105l-87 -284q-15 -50 -15 -63z" />
<glyph unicode="P" horiz-adv-x="443" d="M-12 0l204 667h183q65 0 94 -33q13 -14 22.5 -40t9.5 -48q0 -45 -23.5 -104.5t-52.5 -87.5q-56 -53 -162 -53h-96l-92 -301h-87zM189 373h80q73 0 106 50q38 57 38 117q0 31 -21 46q-14 9 -48 9h-87z" />
<glyph unicode="Q" horiz-adv-x="477" d="M66 15q-51 34 -51 94q0 21 5 36l116 379q47 153 215 153q85 0 121 -30q46 -36 46 -92q0 -22 -16 -73l-100 -326q-11 -36 -27 -66q-1 -1 -7 -13q28 5 42 5q15 0 29 -5l-25 -82q-31 11 -70 11q-18 0 -122 -14q-20 -2 -40 -2q-77 0 -116 25zM103 116q0 -25 22.5 -40.5 t59.5 -15.5q59 0 96 40q26 28 45 91l84 275l7 22q13 42 13 58q0 61 -75 61q-106 0 -143 -119l-89 -291q-20 -67 -20 -81z" />
<glyph unicode="R" horiz-adv-x="493" d="M-10 0l204 667h200q36 0 56 -6.5t36 -23.5q29 -32 29 -82q0 -54 -24.5 -110.5t-57.5 -79.5q-24 -17 -91 -28q41 -15 55 -26q26 -18 26 -60q0 -19 -8 -49l-32 -126q-8 -31 -8 -48q0 -12 8 -28h-71q-25 0 -25 22q0 7 8 39l32 132q8 30 8 57q0 22 -18 37t-45 15h-103 l-92 -302h-87zM191 374h82q82 0 118 52q14 20 25 53.5t11 53.5q0 29 -21 45.5t-58 16.5h-89z" />
<glyph unicode="S" horiz-adv-x="445" d="M9 108q0 39 21 82h84q-17 -46 -17 -72t19.5 -42.5t50.5 -16.5q68 0 107 41q19 19 31.5 51t12.5 59q0 36 -30 63q-8 8 -57 42q-73 50 -91.5 74t-18.5 69q0 92 62 159q26 28 71.5 44t98.5 16q66 0 106 -30.5t40 -82.5q0 -22 -16 -79h-86q2 11 3 13q0 1 1 4.5t2.5 10 t2.5 12.5q5 20 5 31q0 52 -72 52q-52 0 -86 -31q-19 -17 -31.5 -48t-12.5 -60q0 -22 13.5 -38t57.5 -46q76 -51 101 -83t25 -77q0 -46 -19 -93.5t-50 -79.5q-28 -28 -78.5 -45t-107.5 -17q-142 0 -142 118z" />
<glyph unicode="T" horiz-adv-x="406" d="M93 0l182 595h-163l22 72h406l-22 -72h-156l-182 -595h-87z" />
<glyph unicode="U" horiz-adv-x="492" d="M31 96q0 46 17 99l144 472h87l-148 -486q-12 -39 -12 -60q0 -25 22 -43.5t53 -18.5q65 0 101 41q22 27 43 95l144 472h87l-149 -486q-19 -62 -38.5 -95t-52.5 -56q-55 -40 -144 -40q-69 0 -111.5 29.5t-42.5 76.5z" />
<glyph unicode="V" horiz-adv-x="447" d="M108 0l26 667h85l-27 -549l285 549h94l-353 -667h-110z" />
<glyph unicode="W" horiz-adv-x="718" d="M86 0l48 667h82l-43 -545l254 545h114l-61 -545l270 545h91l-334 -667h-108l59 574l-265 -574h-107z" />
<glyph unicode="X" horiz-adv-x="441" d="M30 0h-91l269 358l-74 309h83l59 -248l186 248h90l-257 -338l79 -329h-84l-61 264z" />
<glyph unicode="Y" horiz-adv-x="440" d="M108 0l88 287l-62 380h86l45 -293l207 293h94l-291 -404l-80 -263h-87z" />
<glyph unicode="Z" horiz-adv-x="433" d="M-33 0l28 90l395 505h-244l22 72h348l-27 -88l-399 -507h271l-22 -72h-372z" />
<glyph unicode="[" horiz-adv-x="278" d="M45 -96h110l-20 -66h-194l253 829h194l-19 -64h-110z" />
<glyph unicode="\" horiz-adv-x="482" d="M352 -107l-219 774h54l219 -774h-54z" />
<glyph unicode="]" horiz-adv-x="278" d="M33 -96l214 699h-110l21 64h193l-254 -829h-194l21 66h109z" />
<glyph unicode="^" horiz-adv-x="500" d="M21 359l174 310h109l174 -310h-90l-139 244l-139 -244h-89z" />
<glyph unicode="_" horiz-adv-x="500" d="M0 -62h500v-76h-500v76z" />
<glyph unicode="`" horiz-adv-x="500" d="M384 527l-83 146h103l39 -146h-59z" />
<glyph unicode="a" horiz-adv-x="388" d="M-2 70q0 37 18.5 83.5t44.5 75.5q46 52 150 52q33 0 65 -7l21 68q4 16 4 25q0 43 -62 43t-80 -83h-80q14 68 56.5 103.5t108.5 35.5q59 0 94.5 -28t35.5 -74q0 -28 -10 -64l-52 -189q-17 -62 -17 -102q0 -4 1 -9h-82l-1 50q-52 -59 -117 -59q-47 0 -72.5 21t-25.5 58z M82 81q0 -19 12 -29.5t33 -10.5q39 0 73 36q24 26 38 72l22 73q-26 3 -36 3q-67 0 -100 -37q-15 -17 -28.5 -51t-13.5 -56z" />
<glyph unicode="b" horiz-adv-x="389" d="M-21 0l204 667h84l-75 -245q50 44 113 44q87 0 87 -75q0 -37 -19 -99l-46 -149q-27 -87 -56 -115q-40 -37 -96 -37q-32 0 -54.5 12.5t-47.5 44.5l-15 -48h-79zM97 90q0 -20 14.5 -31.5t39.5 -11.5q63 0 92 96l61 197q4 12 4 27q0 49 -45 49q-33 0 -61.5 -28t-42.5 -75 l-52 -170q-10 -30 -10 -53z" />
<glyph unicode="c" horiz-adv-x="345" d="M3 86q0 25 7 46l67 218q17 55 59 85.5t101 30.5q55 0 85.5 -24t30.5 -66q0 -20 -9 -48h-82q7 30 7 51q0 31 -40 31q-50 0 -68 -60l-67 -218q-7 -21 -7 -44q0 -17 13.5 -29t33.5 -12q58 0 77 85h82q-10 -64 -56 -102.5t-112 -38.5q-53 0 -87.5 26.5t-34.5 68.5z" />
<glyph unicode="d" horiz-adv-x="391" d="M3 74q0 18 7 44l60 213q19 65 58.5 101t94.5 36q32 0 51.5 -13t41.5 -47l79 259h84l-204 -667h-79l14 46l-10 -8q-60 -47 -112 -47q-38 0 -61.5 23t-23.5 60zM87 80q0 -18 11.5 -28.5t31.5 -10.5q35 0 64 31.5t47 90.5l45 147q9 28 9 52q0 23 -14.5 36.5t-39.5 13.5 q-60 0 -85 -81l-65 -213q-4 -20 -4 -38z" />
<glyph unicode="e" horiz-adv-x="370" d="M5 85q0 27 11 66l56 186q12 39 26.5 61t40.5 39q45 30 105 30q59 0 92.5 -25t33.5 -69q0 -32 -9 -61l-32 -105h-212l-23 -75q-5 -18 -5 -43q0 -42 56 -42q70 0 77 85h84q-14 -76 -54.5 -108.5t-119.5 -32.5q-60 0 -93.5 25t-33.5 69zM134 264h128l22 73q2 4 2 31 q0 49 -52 49q-29 0 -47 -18.5t-31 -61.5z" />
<glyph unicode="f" horiz-adv-x="236" d="M1 0l122 400h-69l17 57h70l27 89q12 39 23 58t31 35q38 31 96 31h46l-18 -57h-24q-30 0 -51 -24q-11 -14 -25 -61l-21 -71h73l-17 -57h-74l-122 -400h-84z" />
<glyph unicode="g" horiz-adv-x="388" d="M-39 -56h80q-5 -16 -5 -30q0 -44 51 -44q63 0 85 74l29 95q-49 -48 -103 -48q-43 0 -71 24t-28 61q0 23 5 38l73 237q17 55 54 85t89 30q65 0 97 -63l16 54h79l-156 -513q-16 -52 -57 -88q-46 -42 -121 -42q-59 0 -92.5 24.5t-33.5 67.5q0 17 9 38zM83 86q0 -19 13.5 -32 t32.5 -13q44 0 72 35q18 22 35 77l43 142q11 35 11 52q0 30 -14 46.5t-40 16.5q-31 0 -52 -27t-40 -88l-52 -170q-9 -28 -9 -39z" />
<glyph unicode="h" horiz-adv-x="397" d="M-21 0l204 667h84l-74 -241q54 40 107 40q42 0 67 -23.5t25 -62.5q0 -26 -6 -44l-103 -336h-84l93 304q16 52 16 66q0 20 -13.5 33t-33.5 13q-71 0 -105 -112l-93 -304h-84z" />
<glyph unicode="i" horiz-adv-x="178" d="M155 582l26 85h84l-26 -85h-84zM-23 0l140 457h84l-140 -457h-84z" />
<glyph unicode="j" horiz-adv-x="181" d="M155 582l26 85h84l-26 -85h-84zM-43 -67l160 524h84l-167 -546q-14 -47 -43.5 -68t-82.5 -21q-17 0 -34 4l17 56h9q28 0 37 8.5t20 42.5z" />
<glyph unicode="k" horiz-adv-x="369" d="M-23 0l204 667h84l-120 -392l157 182h106l-184 -195l78 -262h-89l-72 262l-80 -262h-84z" />
<glyph unicode="l" horiz-adv-x="179" d="M-23 0l204 667h84l-204 -667h-84z" />
<glyph unicode="m" horiz-adv-x="601" d="M-21 0l140 457h79l-14 -45q59 54 108 54q72 0 86 -69q50 69 117 69q43 0 71.5 -24t28.5 -61q0 -21 -12 -63l-97 -318h-84l91 298q18 60 18 74q0 19 -12.5 31.5t-30.5 12.5q-39 0 -67 -36q-19 -24 -36 -82l-91 -298h-84l98 318q11 35 11 52q0 22 -12.5 34t-34.5 12 q-38 0 -67 -40q-11 -13 -31 -78l-91 -298h-84z" />
<glyph unicode="n" horiz-adv-x="399" d="M-21 0l140 457h79l-13 -43q31 29 55.5 40.5t54.5 11.5q44 0 69.5 -24.5t25.5 -67.5q0 -26 -8 -52l-98 -322h-84l95 310q11 35 11 57q0 21 -14 35t-36 14q-30 0 -56 -25.5t-39 -68.5l-98 -322h-84z" />
<glyph unicode="o" horiz-adv-x="385" d="M2 87q0 19 8 45l63 208q18 58 63.5 92t105.5 34t100.5 -30t40.5 -75q0 -23 -11 -58l-61 -198q-17 -55 -62.5 -84.5t-114.5 -29.5q-60 0 -96 26t-36 70zM86 90q0 -20 14.5 -31.5t39.5 -11.5q69 0 100 98l52 170q7 24 7 43q0 25 -14 38.5t-40 13.5q-66 0 -91 -82l-64 -208 q-4 -14 -4 -30z" />
<glyph unicode="p" horiz-adv-x="388" d="M80 55l-72 -235h-84l195 637h79l-13 -40q65 49 113 49q40 0 64.5 -25t24.5 -66q0 -35 -14 -80l-53 -173q-19 -62 -56 -96.5t-85 -34.5q-32 0 -59 17t-40 47zM97 94q0 -23 16 -38t40 -15q31 0 53 26.5t40 86.5l43 141q14 47 14 65q0 23 -12.5 36.5t-33.5 13.5 q-31 0 -57.5 -26.5t-40.5 -70.5l-54 -176q-8 -26 -8 -43z" />
<glyph unicode="q" horiz-adv-x="390" d="M2 79q0 15 5 35l67 219q12 41 22.5 59.5t31.5 34.5q41 32 96 32q56 0 95 -58l17 56h79l-195 -637h-84l67 218q-45 -47 -109 -47q-41 0 -66.5 24t-25.5 64zM86 86q0 -17 13.5 -28t34.5 -11q33 0 61 28.5t43 77.5l45 148q10 34 10 55t-15 34t-40 13q-59 0 -87 -92l-58 -190 q-7 -25 -7 -35z" />
<glyph unicode="r" horiz-adv-x="261" d="M-22 0l140 457h79l-17 -54l11 9q31 27 53.5 36.5t53.5 9.5q10 0 20 -1l-21 -68h-20q-58 0 -91 -33q-15 -15 -22.5 -31t-21.5 -62l-80 -263h-84z" />
<glyph unicode="s" horiz-adv-x="329" d="M-15 78q0 22 11 52h79l-2 -12q-4 -24 -4 -32q0 -39 50 -39q33 0 51 21q24 30 24 70q0 15 -10 28t-45 43q-36 31 -48 46q-26 32 -26 71q0 60 44.5 100t110.5 40q55 0 88.5 -25.5t33.5 -66.5q0 -16 -8 -45h-79q7 25 7 39q0 19 -13 30.5t-34 11.5q-28 0 -47 -21.5t-19 -53.5 q0 -23 10.5 -36.5t56.5 -51.5q62 -52 62 -107q0 -65 -46 -107t-118 -42q-61 0 -95 23t-34 64z" />
<glyph unicode="t" horiz-adv-x="245" d="M42 13q-15 21 -15 43q0 18 7 39l94 305h-70l18 57h69l28 93l93 29l-37 -122h72l-17 -57h-72l-87 -283q-9 -29 -9 -48q-1 -14 11.5 -19t55.5 -6l-14 -44q-28 -12 -53 -12q-55 0 -74 25z" />
<glyph unicode="u" horiz-adv-x="407" d="M9 70q0 24 8 53l102 334h84l-98 -320q-12 -39 -12 -52q0 -17 15 -27.5t38 -10.5q36 0 64.5 27.5t43.5 75.5l94 307h84l-140 -457h-79l16 50q-34 -34 -60 -46.5t-61 -12.5q-46 0 -72.5 21t-26.5 58z" />
<glyph unicode="v" horiz-adv-x="359" d="M70 0v457h73v-367l193 367h80l-243 -457h-103z" />
<glyph unicode="w" horiz-adv-x="561" d="M24 0l46 457h72l-38 -352l192 352h105l-27 -352l167 352h77l-217 -457h-105l31 382l-200 -382h-103z" />
<glyph unicode="x" horiz-adv-x="342" d="M30 0h-79l175 248l-55 209h80l41 -153l109 153h82l-166 -236l58 -221h-83l-42 168z" />
<glyph unicode="y" horiz-adv-x="350" d="M71 -11v468h73v-336l179 336h85l-356 -637h-86z" />
<glyph unicode="z" horiz-adv-x="311" d="M-40 0l22 70l258 330h-158l18 57h249l-17 -57l-279 -343h188l-17 -57h-264z" />
<glyph unicode="{" horiz-adv-x="278" d="M-9 -16l44 145q9 30 9 48q0 33 -38 44l21 68q33 8 51.5 27t31.5 59l47 154q22 72 66.5 105t120.5 33q5 0 35 -1l-22 -71q-58 -1 -81.5 -17.5t-38.5 -66.5l-43 -141q-16 -50 -36.5 -75t-57.5 -43q32 -24 32 -59q0 -26 -11 -61l-41 -136q-11 -35 -11 -49q0 -20 18 -28.5 t61 -8.5l-22 -72h-35q-113 0 -113 76q0 28 13 70z" />
<glyph unicode="|" horiz-adv-x="500" d="M208 -167v834h83v-834h-83z" />
<glyph unicode="}" horiz-adv-x="278" d="M55 -6l43 141q16 50 36 75.5t58 42.5q-32 23 -32 59q0 22 11 61l41 136q11 35 11 48q0 21 -17.5 29.5t-61.5 8.5l22 72h35q113 0 113 -77q0 -30 -13 -70l-44 -144q-9 -30 -9 -49q0 -32 37 -43l-20 -68q-34 -8 -52.5 -27t-30.5 -59l-47 -154q-22 -73 -67 -106t-120 -33 q-13 0 -35 1l22 72q57 0 81 17t39 67z" />
<glyph unicode="~" horiz-adv-x="667" d="M140 579l-48 31q20 42 37 65q40 55 103 55q38 0 110 -33q69 -31 95 -31q28 0 46.5 14t40.5 51l50 -29q-30 -60 -59 -83q-39 -33 -88 -33q-33 0 -141 48q-38 16 -61 16q-26 0 -45.5 -16.5t-39.5 -54.5z" />
<glyph unicode="&#xa1;" horiz-adv-x="199" d="M99 372l26 85h85l-26 -85h-85zM14 -210h-92l175 518h50z" />
<glyph unicode="&#xa2;" d="M151 0l30 98q-86 22 -86 83q0 21 8 45l69 222q17 57 53.5 86t98.5 34l30 99h48l-30 -99q81 -14 81 -86q0 -24 -11 -61h-82q9 32 9 49q0 20 -13.5 31.5t-35.5 11.5q-24 0 -40 -16q-9 -9 -21 -49l-69 -222q-8 -28 -8 -36q0 -16 13 -26t35 -10q28 0 44 16t26 54l5 18h82 q-5 -62 -45 -103t-97 -41h-16l-30 -98h-48z" />
<glyph unicode="&#xa3;" d="M-38 0l24 77h61l76 250h-74l24 77h74l36 121q22 73 73 112t125 39q73 0 113 -28.5t40 -80.5q0 -20 -10 -55h-84q4 19 4 40q0 26 -19 40.5t-52 14.5q-77 0 -106 -95l-33 -108h156l-23 -77h-157l-76 -250h257l-23 -77h-406z" />
<glyph unicode="&#xa4;" horiz-adv-x="667" d="M89 126l95 97q-49 65 -49 141q0 73 50 140l-98 97l48 48l96 -97q71 50 144 50q74 0 141 -49l97 95l47 -47l-96 -96q50 -69 50 -142t-49 -140l97 -96l-47 -48l-96 97q-68 -50 -143 -50q-71 0 -144 49l-96 -96zM214 364q0 -67 47 -114t113 -47q67 0 114 47t47 114 q0 66 -46.5 113.5t-111.5 47.5q-68 0 -115.5 -47t-47.5 -114z" />
<glyph unicode="&#xa5;" d="M122 0l73 240h-144l23 76h132l-12 68h-99l23 76h64l-34 207h85l46 -293l206 293h95l-150 -207h59l-23 -76h-90l-50 -68h120l-24 -76h-140l-73 -240h-87z" />
<glyph unicode="&#xa6;" horiz-adv-x="500" d="M208 331v336h83v-336h-83zM208 153h83v-320h-83v320z" />
<glyph unicode="&#xa7;" horiz-adv-x="500" d="M17 -24l32 59q8 -6 10 -6q81 -52 169 -52q55 0 86 25.5t31 69.5q0 23 -11 38t-40 29l-134 67q-83 42 -83 117q0 74 83 121q2 1 12 7q-38 46 -38 92q0 64 44.5 99t127.5 35q50 0 101.5 -15t79.5 -38l-32 -60q-26 19 -71 31.5t-84 12.5t-63 -11q-14 -7 -23 -21.5t-9 -29.5 q0 -39 77 -78l113 -58q41 -21 58.5 -46.5t17.5 -65.5q0 -58 -42 -97q-13 -13 -45 -34q35 -43 35 -92q0 -69 -56 -118t-134 -49q-49 0 -107 18.5t-105 49.5zM196 270l138 -68q32 15 50.5 38t18.5 47q0 21 -10 33.5t-37 26.5l-140 71q-27 -15 -46.5 -41.5t-19.5 -48.5 q0 -36 46 -58z" />
<glyph unicode="&#xa8;" horiz-adv-x="500" d="M384 555l26 85h85l-26 -85h-85zM233 555l26 85h85l-26 -85h-85z" />
<glyph unicode="&#xa9;" horiz-adv-x="767" d="M75 336q0 141 101 239.5t244 98.5q137 0 236 -100.5t99 -239.5q0 -141 -99.5 -241t-240.5 -100q-142 0 -241 100t-99 243zM125 336q0 -122 84.5 -207.5t205.5 -85.5q120 0 205 85t85 206q0 118 -84.5 204t-200.5 86q-133 0 -220 -96q-75 -83 -75 -192zM311 196 q-8 28 -8 140q0 122 14 147q28 49 99 49q111 0 111 -114q0 -6 -1 -10h-63q1 5 1 13q0 60 -47 60q-33 0 -44 -23q-6 -13 -6 -99q0 -133 6 -150q11 -24 44 -24q28 0 39 20q7 14 7 64h63q1 -6 1 -15q0 -62 -26.5 -91t-83.5 -29q-88 0 -106 62z" />
<glyph unicode="&#xaa;" horiz-adv-x="285" d="M166 389q-29 0 -46 13.5t-17 36.5t11.5 50.5t27.5 45.5q29 32 96 32q16 0 34 -3l11 35q3 7 3 13q1 11 -9 17t-27 6q-35 0 -43 -49h-57q17 90 106 90q38 0 60.5 -17.5t22.5 -46.5q0 -13 -7 -38l-30 -111q-9 -36 -9 -58v-11h-58l-1 24q-33 -29 -68 -29zM187 426q44 0 62 59 l12 40q-8 1 -18 1q-38 0 -57 -20q-8 -9 -15.5 -28t-7.5 -31q0 -21 24 -21zM55 289l13 42h212l-13 -42h-212z" />
<glyph unicode="&#xab;" horiz-adv-x="357" d="M180 183l35 120l161 106l-32 -108l-109 -74l62 -92l-26 -91zM114 44l-91 139l35 120l161 106l-32 -108l-108 -74l62 -92z" />
<glyph unicode="&#xac;" horiz-adv-x="500" d="M33 189v78h433v-267h-83v189h-350z" />
<glyph unicode="&#xad;" horiz-adv-x="174" d="M-2 223l20 66h174l-20 -66h-174z" />
<glyph unicode="&#xae;" horiz-adv-x="767" d="M75 336q0 141 101 239.5t244 98.5q137 0 236 -100.5t99 -239.5q0 -141 -99.5 -241t-240.5 -100q-142 0 -241 100t-99 243zM125 336q0 -122 84.5 -207.5t205.5 -85.5q120 0 205 85t85 206q0 118 -84.5 204t-200.5 86q-133 0 -220 -96q-75 -83 -75 -192zM300 140v387h111 q65 0 91.5 -23t26.5 -79q0 -35 -12 -53.5t-42 -31.5q28 -10 36 -30.5t13 -97.5q2 -38 16 -72h-70q-8 16 -9 37l-3 39l-4 40q-4 36 -15 46t-48 10h-27v-172h-64zM364 363h36q35 0 50 13.5t15 45.5q0 31 -14 42.5t-51 11.5h-36v-113z" />
<glyph unicode="&#xaf;" horiz-adv-x="500" d="M233 564l17 63h253l-17 -63h-253z" />
<glyph unicode="&#xb0;" horiz-adv-x="360" d="M278 410q-56 0 -95 39.5t-39 95.5q0 55 39.5 93.5t96.5 38.5q53 0 92 -39.5t39 -93.5q0 -55 -39 -94.5t-94 -39.5zM277 460q35 0 59.5 24.5t24.5 59.5q0 34 -24.5 58.5t-57.5 24.5q-35 0 -60 -24.5t-25 -58.5q0 -35 24.5 -59.5t58.5 -24.5z" />
<glyph unicode="&#xb1;" d="M192 163v146h-153v68h153v146h68v-146h152v-68h-152v-146h-68zM39 29v68h373v-68h-373z" />
<glyph unicode="&#xb2;" horiz-adv-x="305" d="M54 267l15 51q48 33 147 131q87 84 87 141q0 33 -41 33q-23 0 -34.5 -11t-18.5 -36q-1 -1 -3 -11h-60q14 107 129 107q43 0 65.5 -20t22.5 -58q0 -31 -23 -73t-61 -82q-49 -50 -135 -119h143l-16 -53h-217z" />
<glyph unicode="&#xb3;" horiz-adv-x="305" d="M160 261q-44 0 -68.5 17t-24.5 47q0 12 12 49h59q-5 -26 -5 -35q0 -29 42 -29q33 0 50 29q8 15 16.5 43t8.5 41q0 19 -18 23q-21 4 -48 2l16 52q14 -2 15 -2q37 0 51 17q10 11 19.5 37t9.5 40q0 13 -10.5 22t-25.5 9q-30 0 -43 -20q-6 -8 -11 -37h-61l2 12q8 43 32 65 q34 29 86 29q43 0 67 -17t24 -49q0 -24 -9 -56t-21 -47q-14 -18 -43 -32q28 -14 28 -41q0 -23 -10.5 -57.5t-23.5 -56.5q-19 -31 -44.5 -43t-71.5 -12z" />
<glyph unicode="&#xb4;" horiz-adv-x="500" d="M295 527l76 146h113l-127 -146h-62z" />
<glyph unicode="&#xb5;" horiz-adv-x="407" d="M53 1l-45 -181h-84l195 637h84l-98 -320q-12 -39 -12 -52q0 -17 15 -27.5t38 -10.5q36 0 64.5 27.5t43.5 75.5l94 307h84l-140 -457h-79l16 50q-34 -34 -60.5 -46.5t-61.5 -12.5q-29 0 -54 10z" />
<glyph unicode="&#xb6;" horiz-adv-x="500" d="M89 -96l126 413h-13q-46 0 -73.5 28t-27.5 75q0 56 24.5 111t63.5 86q61 50 161 50h242l-21 -70h-51l-212 -693h-77l212 693h-65l-212 -693h-77z" />
<glyph unicode="&#xb7;" horiz-adv-x="180" d="M39 200l27 87h89l-27 -87h-89z" />
<glyph unicode="&#xb8;" horiz-adv-x="480" d="M147 -53h67l-74 -133h-94z" />
<glyph unicode="&#xb9;" horiz-adv-x="305" d="M149 267l98 319q-36 -25 -69 -25l16 55q63 20 94 55h46l-124 -404h-61z" />
<glyph unicode="&#xba;" horiz-adv-x="285" d="M200 389q-38 0 -61 16.5t-23 43.5q0 10 5 27l37 122q11 36 40 57t67 21t64 -18.5t26 -46.5q0 -12 -7 -35l-35 -116q-22 -71 -113 -71zM206 430q39 0 55 54l30 99q4 16 4 24q0 28 -30 28q-37 0 -50 -44l-37 -122q-2 -6 -2 -15q0 -24 30 -24zM55 289l13 42h212l-13 -42 h-212z" />
<glyph unicode="&#xbb;" horiz-adv-x="357" d="M147 64l31 108l109 73l-62 93l27 91l91 -139l-35 -120zM-10 64l32 108l108 73l-61 93l26 91l91 -139l-35 -120z" />
<glyph unicode="&#xbc;" horiz-adv-x="801" d="M149 267l98 319q-36 -25 -69 -25l16 55q63 20 94 55h46l-124 -404h-61zM163 0l502 667h64l-502 -667h-64zM476 94l14 46l202 260h87l-79 -257h61l-15 -49h-61l-29 -94h-61l29 94h-148zM554 143h85l56 183z" />
<glyph unicode="&#xbd;" horiz-adv-x="801" d="M149 267l98 319q-36 -25 -69 -25l16 55q63 20 94 55h46l-124 -404h-61zM150 0l502 667h64l-502 -667h-64zM469 0l16 51q42 30 146 131q87 87 87 141q0 33 -41 33q-23 0 -35 -10.5t-18 -36.5q0 -1 -2 -11h-61q15 107 130 107q42 0 64.5 -20t22.5 -58q0 -31 -23 -73.5 t-61 -81.5q-44 -47 -135 -119h144l-16 -53h-218z" />
<glyph unicode="&#xbe;" horiz-adv-x="801" d="M160 261q-44 0 -68.5 17t-24.5 47q0 12 12 49h59q-5 -26 -5 -35q0 -29 42 -29q33 0 50 29q8 15 16.5 43t8.5 41q0 19 -18 23q-21 4 -48 2l16 52q14 -2 15 -2q37 0 51 17q10 11 19.5 37t9.5 40q0 13 -10.5 22t-25.5 9q-30 0 -43 -20q-6 -8 -11 -37h-61l2 12q8 43 32 65 q34 29 86 29q43 0 67 -17t24 -49q0 -24 -9 -56t-21 -47q-14 -18 -43 -32q28 -14 28 -41q0 -23 -10.5 -57.5t-23.5 -56.5q-19 -31 -44.5 -43t-71.5 -12zM163 0l502 667h64l-502 -667h-64zM476 94l14 46l202 260h87l-79 -257h61l-15 -49h-61l-29 -94h-61l29 94h-148zM554 143 h85l56 183z" />
<glyph unicode="&#xbf;" horiz-adv-x="358" d="M170 376l27 81h85l-25 -81h-87zM-22 19q13 20 64 70l57 58q28 29 36.5 43t13.5 42l14 75h67l-19 -96q-6 -34 -25.5 -65.5t-79.5 -100.5q-78 -91 -78 -154q0 -21 13 -33.5t35 -12.5q39 0 61 37q11 19 22 72q0 4 4 15h79q-2 -14 -3 -16q-10 -55 -22.5 -82t-39.5 -51 q-48 -40 -123 -40q-122 0 -122 103q0 28 13 67.5t33 68.5z" />
<glyph unicode="&#xc0;" horiz-adv-x="489" d="M366 724l-93 145h109l54 -145h-70zM31 0h-88l394 667h102l-17 -667h-87l5 154h-221zM161 226h181l15 349z" />
<glyph unicode="&#xc1;" horiz-adv-x="489" d="M373 724l90 145h116l-133 -145h-73zM31 0h-88l394 667h102l-17 -667h-87l5 154h-221zM161 226h181l15 349z" />
<glyph unicode="&#xc2;" horiz-adv-x="489" d="M277 725l111 144h107l43 -144h-66l-40 89l-86 -89h-69zM31 0h-88l394 667h102l-17 -667h-87l5 154h-221zM161 226h181l15 349z" />
<glyph unicode="&#xc3;" horiz-adv-x="489" d="M283 747q7 49 34 77t68 28q18 0 29.5 -4.5t33.5 -20.5q30 -23 42 -23q22 0 36 44h56q-9 -50 -35.5 -79t-63.5 -29q-18 0 -27.5 4.5t-49.5 32.5q-20 14 -30 14q-21 0 -31 -29q-2 -3 -5 -15h-57zM31 0h-88l394 667h102l-17 -667h-87l5 154h-221zM161 226h181l15 349z" />
<glyph unicode="&#xc4;" horiz-adv-x="489" d="M453 745l27 90h91l-28 -90h-90zM286 745l27 90h91l-28 -90h-90zM31 0h-88l394 667h102l-17 -667h-87l5 154h-221zM161 226h181l15 349z" />
<glyph unicode="&#xc5;" horiz-adv-x="489" d="M420 703q-39 0 -66.5 27.5t-27.5 66.5t27.5 66t67.5 27q37 0 64.5 -27.5t27.5 -65.5q0 -39 -27.5 -66.5t-65.5 -27.5zM419 750q19 0 33 14t14 33t-13.5 32.5t-32.5 13.5t-33 -13.5t-14 -32.5t13.5 -33t32.5 -14zM31 0h-88l394 667h102l-17 -667h-87l5 154h-221zM161 226 h181l15 349z" />
<glyph unicode="&#xc6;" horiz-adv-x="682" d="M27 0h-94l478 667h356l-22 -72h-202l-66 -218h192l-22 -72h-192l-72 -233h217l-22 -72h-304l58 188h-170zM212 260h142l108 352z" />
<glyph unicode="&#xc7;" horiz-adv-x="439" d="M18 104q0 33 14 80l95 314q26 87 87 133t149 46q60 0 97.5 -32.5t37.5 -84.5q0 -24 -17 -74h-86q15 46 15 67q0 24 -20 39.5t-50 15.5q-45 0 -82 -36q-28 -27 -56 -116l-83 -272q-13 -42 -13 -63q0 -29 18.5 -45.5t49.5 -16.5q25 0 51 13.5t41 33.5q32 44 41 91h86 q-35 -207 -237 -207q-138 0 -138 114zM120 -53h69l-77 -133h-101z" />
<glyph unicode="&#xc8;" horiz-adv-x="394" d="M324 724l-93 145h109l54 -145h-70zM-10 0l204 667h288l-22 -72h-201l-67 -218h192l-22 -72h-192l-71 -233h214l-22 -72h-301z" />
<glyph unicode="&#xc9;" horiz-adv-x="394" d="M323 724l90 145h116l-133 -145h-73zM-10 0l204 667h288l-22 -72h-201l-67 -218h192l-22 -72h-192l-71 -233h214l-22 -72h-301z" />
<glyph unicode="&#xca;" horiz-adv-x="394" d="M235 725l111 144h107l43 -144h-66l-40 89l-86 -89h-69zM-10 0l204 667h288l-22 -72h-201l-67 -218h192l-22 -72h-192l-71 -233h214l-22 -72h-301z" />
<glyph unicode="&#xcb;" horiz-adv-x="394" d="M406 745l27 90h91l-28 -90h-90zM239 745l27 90h91l-28 -90h-90zM-10 0l204 667h288l-22 -72h-201l-67 -218h192l-22 -72h-192l-71 -233h214l-22 -72h-301z" />
<glyph unicode="&#xcc;" horiz-adv-x="207" d="M219 725l-87 144h106l47 -144h-66zM-9 0l204 667h87l-204 -667h-87z" />
<glyph unicode="&#xcd;" horiz-adv-x="207" d="M220 724l84 145h116l-127 -145h-73zM-9 0l204 667h87l-204 -667h-87z" />
<glyph unicode="&#xce;" horiz-adv-x="207" d="M135 725l104 144h107l36 -144h-66l-33 89l-79 -89h-69zM-9 0l204 667h87l-204 -667h-87z" />
<glyph unicode="&#xcf;" horiz-adv-x="207" d="M292 745l27 90h87l-27 -90h-87zM155 745l27 90h88l-28 -90h-87zM-9 0l204 667h87l-204 -667h-87z" />
<glyph unicode="&#xd0;" horiz-adv-x="484" d="M-10 0l95 310h-60l21 70h60l88 287h177q73 0 106 -28q20 -17 32 -42.5t12 -50.5q0 -44 -38.5 -182t-75.5 -227q-58 -137 -199 -137h-218zM99 72h99q51 0 79.5 22t54.5 81q22 52 66 200q35 118 35 164q0 30 -17.5 43t-57.5 13h-99l-66 -215h124l-21 -70h-124z" />
<glyph unicode="&#xd1;" horiz-adv-x="515" d="M304 747q7 49 34 77t68 28q18 0 29.5 -4.5t33.5 -20.5q30 -23 42 -23q22 0 36 44h56q-9 -50 -35.5 -79t-63.5 -29q-18 0 -27.5 4.5t-49.5 32.5q-20 14 -30 14q-21 0 -31 -29q-2 -3 -5 -15h-57zM-9 0l204 667h133l1 -590l180 590h81l-204 -667h-134l1 591l-181 -591h-81z " />
<glyph unicode="&#xd2;" horiz-adv-x="470" d="M353 724l-93 145h109l54 -145h-70zM64 21q-49 32 -49 79q0 30 16 82l108 352q21 68 77.5 105.5t137.5 37.5q77 0 117 -30q47 -36 47 -88q0 -28 -14 -72l-97 -320q-18 -60 -37 -90t-51 -52q-51 -35 -135 -35q-74 0 -120 31zM103 119q0 -27 23 -43.5t61 -16.5q54 0 87 33.5 t58 113.5l79 260q19 63 19 80q0 65 -76 65q-63 0 -100 -40q-25 -25 -49 -105l-87 -284q-15 -50 -15 -63z" />
<glyph unicode="&#xd3;" horiz-adv-x="470" d="M351 724l90 145h116l-133 -145h-73zM64 21q-49 32 -49 79q0 30 16 82l108 352q21 68 77.5 105.5t137.5 37.5q77 0 117 -30q47 -36 47 -88q0 -28 -14 -72l-97 -320q-18 -60 -37 -90t-51 -52q-51 -35 -135 -35q-74 0 -120 31zM103 119q0 -27 23 -43.5t61 -16.5 q54 0 87 33.5t58 113.5l79 260q19 63 19 80q0 65 -76 65q-63 0 -100 -40q-25 -25 -49 -105l-87 -284q-15 -50 -15 -63z" />
<glyph unicode="&#xd4;" horiz-adv-x="470" d="M269 725l111 144h107l43 -144h-66l-40 89l-86 -89h-69zM64 21q-49 32 -49 79q0 30 16 82l108 352q21 68 77.5 105.5t137.5 37.5q77 0 117 -30q47 -36 47 -88q0 -28 -14 -72l-97 -320q-18 -60 -37 -90t-51 -52q-51 -35 -135 -35q-74 0 -120 31zM103 119q0 -27 23 -43.5 t61 -16.5q54 0 87 33.5t58 113.5l79 260q19 63 19 80q0 65 -76 65q-63 0 -100 -40q-25 -25 -49 -105l-87 -284q-15 -50 -15 -63z" />
<glyph unicode="&#xd5;" horiz-adv-x="470" d="M283 747q7 49 34 77t68 28q18 0 29.5 -4.5t33.5 -20.5q30 -23 42 -23q22 0 36 44h56q-9 -50 -35.5 -79t-63.5 -29q-18 0 -27.5 4.5t-49.5 32.5q-20 14 -30 14q-21 0 -31 -29q-2 -3 -5 -15h-57zM64 21q-49 32 -49 79q0 30 16 82l108 352q21 68 77.5 105.5t137.5 37.5 q77 0 117 -30q47 -36 47 -88q0 -28 -14 -72l-97 -320q-18 -60 -37 -90t-51 -52q-51 -35 -135 -35q-74 0 -120 31zM103 119q0 -27 23 -43.5t61 -16.5q54 0 87 33.5t58 113.5l79 260q19 63 19 80q0 65 -76 65q-63 0 -100 -40q-25 -25 -49 -105l-87 -284q-15 -50 -15 -63z" />
<glyph unicode="&#xd6;" horiz-adv-x="470" d="M438 745l27 90h91l-28 -90h-90zM271 745l27 90h91l-28 -90h-90zM64 21q-49 32 -49 79q0 30 16 82l108 352q21 68 77.5 105.5t137.5 37.5q77 0 117 -30q47 -36 47 -88q0 -28 -14 -72l-97 -320q-18 -60 -37 -90t-51 -52q-51 -35 -135 -35q-74 0 -120 31zM103 119 q0 -27 23 -43.5t61 -16.5q54 0 87 33.5t58 113.5l79 260q19 63 19 80q0 65 -76 65q-63 0 -100 -40q-25 -25 -49 -105l-87 -284q-15 -50 -15 -63z" />
<glyph unicode="&#xd7;" d="M141 168l-48 49l127 126l-127 127l48 48l127 -127l127 127l48 -48l-127 -127l127 -126l-48 -49l-127 127z" />
<glyph unicode="&#xd8;" horiz-adv-x="470" d="M3 -34l-39 33l56 69q-5 16 -5 30q0 34 16 84l108 352q20 67 77 105t136 38q94 0 134 -43l44 50l38 -33l-53 -65q4 -17 4 -28q0 -23 -15 -71l-97 -320q-18 -59 -36.5 -89.5t-50.5 -52.5q-52 -35 -136 -35q-86 0 -129 39zM99 142l325 437q-17 32 -70 32q-62 0 -100 -40 q-15 -16 -23.5 -34t-25.5 -71l-59 -186l-9 -28t-8 -23.5t-4 -11.5zM116 85q22 -26 72 -26q55 0 96 45q26 31 48 102l49 158q21 66 54 151z" />
<glyph unicode="&#xd9;" horiz-adv-x="492" d="M368 724l-93 145h109l54 -145h-70zM31 96q0 46 17 99l144 472h87l-148 -486q-12 -39 -12 -60q0 -25 22 -43.5t53 -18.5q65 0 101 41q22 27 43 95l144 472h87l-149 -486q-19 -62 -38.5 -95t-52.5 -56q-55 -40 -144 -40q-69 0 -111.5 29.5t-42.5 76.5z" />
<glyph unicode="&#xda;" horiz-adv-x="492" d="M367 724l90 145h116l-133 -145h-73zM31 96q0 46 17 99l144 472h87l-148 -486q-12 -39 -12 -60q0 -25 22 -43.5t53 -18.5q65 0 101 41q22 27 43 95l144 472h87l-149 -486q-19 -62 -38.5 -95t-52.5 -56q-55 -40 -144 -40q-69 0 -111.5 29.5t-42.5 76.5z" />
<glyph unicode="&#xdb;" horiz-adv-x="492" d="M280 725l111 144h107l43 -144h-66l-40 89l-86 -89h-69zM31 96q0 46 17 99l144 472h87l-148 -486q-12 -39 -12 -60q0 -25 22 -43.5t53 -18.5q65 0 101 41q22 27 43 95l144 472h87l-149 -486q-19 -62 -38.5 -95t-52.5 -56q-55 -40 -144 -40q-69 0 -111.5 29.5t-42.5 76.5z " />
<glyph unicode="&#xdc;" horiz-adv-x="492" d="M451 745l27 90h91l-28 -90h-90zM284 745l27 90h91l-28 -90h-90zM31 96q0 46 17 99l144 472h87l-148 -486q-12 -39 -12 -60q0 -25 22 -43.5t53 -18.5q65 0 101 41q22 27 43 95l144 472h87l-149 -486q-19 -62 -38.5 -95t-52.5 -56q-55 -40 -144 -40q-69 0 -111.5 29.5 t-42.5 76.5z" />
<glyph unicode="&#xdd;" horiz-adv-x="440" d="M327 724l90 145h116l-133 -145h-73zM108 0l88 287l-62 380h86l45 -293l207 293h94l-291 -404l-80 -263h-87z" />
<glyph unicode="&#xde;" horiz-adv-x="443" d="M-12 0l204 667h87l-33 -107h96q66 0 94 -33q13 -14 22.5 -40t9.5 -48q0 -45 -23.5 -104.5t-52.5 -87.5q-56 -53 -162 -53h-96l-59 -194h-87zM156 266h80q75 0 106 50q38 57 38 117q0 29 -16 42t-53 13h-87z" />
<glyph unicode="&#xdf;" horiz-adv-x="432" d="M-20 0l162 532q19 64 47 93q49 51 131 51q66 0 99 -41q23 -28 23 -64q0 -56 -36 -95q-14 -15 -26.5 -24.5t-53.5 -35.5q-38 -23 -38 -49q0 -17 45 -87q27 -42 36 -66t9 -52q0 -34 -15.5 -70.5t-40.5 -58.5q-44 -42 -109 -42q-46 0 -95 23l21 70l8 -3l17 -7q25 -11 48 -11 q37 0 59.5 27t22.5 70q0 26 -11.5 52t-47.5 78q-31 43 -31 77q0 35 29 66q14 14 58 44q39 27 53 45t14 41t-13.5 35.5t-37.5 12.5q-33 0 -60 -32q-10 -12 -27 -68l-156 -511h-84z" />
<glyph unicode="&#xe0;" horiz-adv-x="388" d="M251 527l-83 146h103l39 -146h-59zM-2 70q0 37 18.5 83.5t44.5 75.5q46 52 150 52q33 0 65 -7l21 68q4 16 4 25q0 43 -62 43t-80 -83h-80q14 68 56.5 103.5t108.5 35.5q59 0 94.5 -28t35.5 -74q0 -28 -10 -64l-52 -189q-17 -62 -17 -102q0 -4 1 -9h-82l-1 50 q-52 -59 -117 -59q-47 0 -72.5 21t-25.5 58zM82 81q0 -19 12 -29.5t33 -10.5q39 0 73 36q24 26 38 72l22 73q-26 3 -36 3q-67 0 -100 -37q-15 -17 -28.5 -51t-13.5 -56z" />
<glyph unicode="&#xe1;" horiz-adv-x="388" d="M249 527l76 146h113l-127 -146h-62zM-2 70q0 37 18.5 83.5t44.5 75.5q46 52 150 52q33 0 65 -7l21 68q4 16 4 25q0 43 -62 43t-80 -83h-80q14 68 56.5 103.5t108.5 35.5q59 0 94.5 -28t35.5 -74q0 -28 -10 -64l-52 -189q-17 -62 -17 -102q0 -4 1 -9h-82l-1 50 q-52 -59 -117 -59q-47 0 -72.5 21t-25.5 58zM82 81q0 -19 12 -29.5t33 -10.5q39 0 73 36q24 26 38 72l22 73q-26 3 -36 3q-67 0 -100 -37q-15 -17 -28.5 -51t-13.5 -56z" />
<glyph unicode="&#xe2;" horiz-adv-x="388" d="M164 527l108 147h104l36 -147h-54l-44 91l-92 -91h-58zM-2 70q0 37 18.5 83.5t44.5 75.5q46 52 150 52q33 0 65 -7l21 68q4 16 4 25q0 43 -62 43t-80 -83h-80q14 68 56.5 103.5t108.5 35.5q59 0 94.5 -28t35.5 -74q0 -28 -10 -64l-52 -189q-17 -62 -17 -102q0 -4 1 -9 h-82l-1 50q-52 -59 -117 -59q-47 0 -72.5 21t-25.5 58zM82 81q0 -19 12 -29.5t33 -10.5q39 0 73 36q24 26 38 72l22 73q-26 3 -36 3q-67 0 -100 -37q-15 -17 -28.5 -51t-13.5 -56z" />
<glyph unicode="&#xe3;" horiz-adv-x="388" d="M183 551q9 49 34 77t60 28q18 0 31.5 -7t44.5 -34q7 -6 17 -6q21 0 32 43h57q-9 -47 -35.5 -77.5t-58.5 -30.5q-14 0 -26 6.5t-44 31.5q-16 13 -26 13q-17 0 -25 -29l-4 -15h-57zM-2 70q0 37 18.5 83.5t44.5 75.5q46 52 150 52q33 0 65 -7l21 68q4 16 4 25q0 43 -62 43 t-80 -83h-80q14 68 56.5 103.5t108.5 35.5q59 0 94.5 -28t35.5 -74q0 -28 -10 -64l-52 -189q-17 -62 -17 -102q0 -4 1 -9h-82l-1 50q-52 -59 -117 -59q-47 0 -72.5 21t-25.5 58zM82 81q0 -19 12 -29.5t33 -10.5q39 0 73 36q24 26 38 72l22 73q-26 3 -36 3q-67 0 -100 -37 q-15 -17 -28.5 -51t-13.5 -56z" />
<glyph unicode="&#xe4;" horiz-adv-x="388" d="M330 555l26 85h85l-26 -85h-85zM179 555l26 85h85l-26 -85h-85zM-2 70q0 37 18.5 83.5t44.5 75.5q46 52 150 52q33 0 65 -7l21 68q4 16 4 25q0 43 -62 43t-80 -83h-80q14 68 56.5 103.5t108.5 35.5q59 0 94.5 -28t35.5 -74q0 -28 -10 -64l-52 -189q-17 -62 -17 -102 q0 -4 1 -9h-82l-1 50q-52 -59 -117 -59q-47 0 -72.5 21t-25.5 58zM82 81q0 -19 12 -29.5t33 -10.5q39 0 73 36q24 26 38 72l22 73q-26 3 -36 3q-67 0 -100 -37q-15 -17 -28.5 -51t-13.5 -56z" />
<glyph unicode="&#xe5;" horiz-adv-x="388" d="M300 511q-38 0 -65 27t-27 65t27.5 64.5t65.5 26.5q37 0 63.5 -27t26.5 -64q0 -38 -26.5 -65t-64.5 -27zM299 556q19 0 33 14t14 33t-13.5 32.5t-32.5 13.5t-33 -13.5t-14 -32.5t13.5 -33t32.5 -14zM-2 70q0 37 18.5 83.5t44.5 75.5q46 52 150 52q33 0 65 -7l21 68 q4 16 4 25q0 43 -62 43t-80 -83h-80q14 68 56.5 103.5t108.5 35.5q59 0 94.5 -28t35.5 -74q0 -28 -10 -64l-52 -189q-17 -62 -17 -102q0 -4 1 -9h-82l-1 50q-52 -59 -117 -59q-47 0 -72.5 21t-25.5 58zM82 81q0 -19 12 -29.5t33 -10.5q39 0 73 36q24 26 38 72l22 73 q-26 3 -36 3q-67 0 -100 -37q-15 -17 -28.5 -51t-13.5 -56z" />
<glyph unicode="&#xe6;" horiz-adv-x="595" d="M0 75q0 42 19.5 89t47.5 73q50 45 136 45q42 0 74 -7l19 61q6 18 6 31q0 20 -16.5 31.5t-44.5 11.5q-31 0 -50 -19t-30 -63h-81q13 64 57 101t106 37q79 0 104 -52q45 52 119 52q54 0 88.5 -27t34.5 -70q0 -34 -19 -99q-14 -50 -17 -63h-212l-23 -75q-9 -28 -9 -44 q0 -41 53 -41q35 0 51.5 17.5t29.5 67.5h87q-10 -72 -51 -106.5t-115 -34.5q-53 0 -81 14t-40 46q-56 -60 -140 -60q-103 0 -103 84zM358 264h125l19 64q7 26 7 39q0 20 -14 31.5t-37 11.5q-32 0 -48.5 -18.5t-33.5 -70.5zM84 83q0 -20 12 -31t33 -11q41 0 76 38 q5 5 7.5 8.5t5 6.5t4.5 7.5t3.5 7t4 10t4 12.5l5 17.5t6.5 21.5l16 52q-20 4 -41 4q-61 0 -97 -41q-16 -18 -27.5 -48.5t-11.5 -53.5z" />
<glyph unicode="&#xe7;" horiz-adv-x="345" d="M3 86q0 19 8 46l66 218q16 55 58.5 85.5t102.5 30.5q54 0 85 -24t31 -66q0 -20 -10 -48h-81q7 32 7 51q0 31 -40 31q-51 0 -69 -60l-66 -218q-8 -28 -8 -44q0 -17 14 -29t34 -12q57 0 77 85h82q-10 -64 -56 -102.5t-113 -38.5q-53 0 -87.5 26.5t-34.5 68.5zM86 -53h67 l-74 -133h-94z" />
<glyph unicode="&#xe8;" horiz-adv-x="370" d="M246 527l-83 146h103l39 -146h-59zM5 85q0 27 11 66l56 186q12 39 26.5 61t40.5 39q45 30 105 30q59 0 92.5 -25t33.5 -69q0 -32 -9 -61l-32 -105h-212l-23 -75q-5 -18 -5 -43q0 -42 56 -42q70 0 77 85h84q-14 -76 -54.5 -108.5t-119.5 -32.5q-60 0 -93.5 25t-33.5 69z M134 264h128l22 73q2 4 2 31q0 49 -52 49q-29 0 -47 -18.5t-31 -61.5z" />
<glyph unicode="&#xe9;" horiz-adv-x="370" d="M244 527l76 146h113l-127 -146h-62zM5 85q0 27 11 66l56 186q12 39 26.5 61t40.5 39q45 30 105 30q59 0 92.5 -25t33.5 -69q0 -32 -9 -61l-32 -105h-212l-23 -75q-5 -18 -5 -43q0 -42 56 -42q70 0 77 85h84q-14 -76 -54.5 -108.5t-119.5 -32.5q-60 0 -93.5 25t-33.5 69z M134 264h128l22 73q2 4 2 31q0 49 -52 49q-29 0 -47 -18.5t-31 -61.5z" />
<glyph unicode="&#xea;" horiz-adv-x="370" d="M155 527l108 147h104l36 -147h-54l-44 91l-92 -91h-58zM5 85q0 27 11 66l56 186q12 39 26.5 61t40.5 39q45 30 105 30q59 0 92.5 -25t33.5 -69q0 -32 -9 -61l-32 -105h-212l-23 -75q-5 -18 -5 -43q0 -42 56 -42q70 0 77 85h84q-14 -76 -54.5 -108.5t-119.5 -32.5 q-60 0 -93.5 25t-33.5 69zM134 264h128l22 73q2 4 2 31q0 49 -52 49q-29 0 -47 -18.5t-31 -61.5z" />
<glyph unicode="&#xeb;" horiz-adv-x="370" d="M323 555l26 85h85l-26 -85h-85zM172 555l26 85h85l-26 -85h-85zM5 85q0 27 11 66l56 186q12 39 26.5 61t40.5 39q45 30 105 30q59 0 92.5 -25t33.5 -69q0 -32 -9 -61l-32 -105h-212l-23 -75q-5 -18 -5 -43q0 -42 56 -42q70 0 77 85h84q-14 -76 -54.5 -108.5t-119.5 -32.5 q-60 0 -93.5 25t-33.5 69zM134 264h128l22 73q2 4 2 31q0 49 -52 49q-29 0 -47 -18.5t-31 -61.5z" />
<glyph unicode="&#xec;" horiz-adv-x="178" d="M147 527l-80 146h103l32 -146h-55zM-23 0l140 457h84l-140 -457h-84z" />
<glyph unicode="&#xed;" horiz-adv-x="178" d="M147 527l76 146h113l-127 -146h-62zM-23 0l140 457h84l-140 -457h-84z" />
<glyph unicode="&#xee;" horiz-adv-x="178" d="M65 527l98 147h104l26 -147h-54l-34 91l-82 -91h-58zM-23 0l140 457h84l-140 -457h-84z" />
<glyph unicode="&#xef;" horiz-adv-x="178" d="M216 555l26 85h85l-26 -85h-85zM85 555l26 85h85l-26 -85h-85zM-23 0l140 457h84l-140 -457h-84z" />
<glyph unicode="&#xf0;" horiz-adv-x="385" d="M2 87q0 19 8 45l62 205q19 61 63.5 95t105.5 34q34 0 53.5 -9.5t34.5 -34.5q4 20 4 32q0 52 -30 103l-79 -39l-29 44l76 38q-23 21 -72 49l37 33q19 -7 47 -24.5t42 -31.5l80 40l32 -42l-77 -40q43 -60 43 -124q0 -54 -31 -157l-61 -198q-17 -55 -62.5 -84.5 t-114.5 -29.5q-60 0 -96 26t-36 70zM86 90q0 -20 14.5 -31.5t39.5 -11.5q69 0 100 98l52 170q7 24 7 43q0 25 -14 38.5t-40 13.5q-66 0 -91 -82l-64 -208q-4 -14 -4 -30z" />
<glyph unicode="&#xf1;" horiz-adv-x="399" d="M190 551q9 49 34 77t60 28q18 0 31.5 -7t44.5 -34q8 -6 17 -6q21 0 32 43h57q-9 -47 -35.5 -77.5t-58.5 -30.5q-14 0 -26 6.5t-44 31.5q-16 13 -26 13q-17 0 -25 -29l-4 -15h-57zM-21 0l140 457h79l-13 -43q31 29 55.5 40.5t54.5 11.5q44 0 69.5 -24.5t25.5 -67.5 q0 -26 -8 -52l-98 -322h-84l95 310q11 35 11 57q0 21 -14 35t-36 14q-30 0 -56 -25.5t-39 -68.5l-98 -322h-84z" />
<glyph unicode="&#xf2;" horiz-adv-x="385" d="M250 527l-83 146h103l39 -146h-59zM2 87q0 19 8 45l63 208q18 58 63.5 92t105.5 34t100.5 -30t40.5 -75q0 -23 -11 -58l-61 -198q-17 -55 -62.5 -84.5t-114.5 -29.5q-60 0 -96 26t-36 70zM86 90q0 -20 14.5 -31.5t39.5 -11.5q69 0 100 98l52 170q7 24 7 43q0 25 -14 38.5 t-40 13.5q-66 0 -91 -82l-64 -208q-4 -14 -4 -30z" />
<glyph unicode="&#xf3;" horiz-adv-x="386" d="M253 527l76 146h113l-127 -146h-62zM2 87q0 19 8 45l63 208q18 58 63.5 92t105.5 34t100.5 -30t40.5 -75q0 -23 -11 -58l-61 -198q-17 -55 -62.5 -84.5t-114.5 -29.5q-60 0 -96 26t-36 70zM86 90q0 -20 14.5 -31.5t39.5 -11.5q69 0 100 98l52 170q7 24 7 43 q0 25 -14 38.5t-40 13.5q-66 0 -91 -82l-64 -208q-4 -14 -4 -30z" />
<glyph unicode="&#xf4;" horiz-adv-x="386" d="M162 527l108 147h104l36 -147h-54l-44 91l-92 -91h-58zM2 87q0 19 8 45l63 208q18 58 63.5 92t105.5 34t100.5 -30t40.5 -75q0 -23 -11 -58l-61 -198q-17 -55 -62.5 -84.5t-114.5 -29.5q-60 0 -96 26t-36 70zM86 90q0 -20 14.5 -31.5t39.5 -11.5q69 0 100 98l52 170 q7 24 7 43q0 25 -14 38.5t-40 13.5q-66 0 -91 -82l-64 -208q-4 -14 -4 -30z" />
<glyph unicode="&#xf5;" horiz-adv-x="386" d="M188 551q9 49 34 77t60 28q18 0 31.5 -7t44.5 -34q8 -6 17 -6q21 0 32 43h57q-9 -47 -35.5 -77.5t-58.5 -30.5q-14 0 -26 6.5t-44 31.5q-16 13 -26 13q-17 0 -25 -29l-4 -15h-57zM2 87q0 19 8 45l63 208q18 58 63.5 92t105.5 34t100.5 -30t40.5 -75q0 -23 -11 -58 l-61 -198q-17 -55 -62.5 -84.5t-114.5 -29.5q-60 0 -96 26t-36 70zM86 90q0 -20 14.5 -31.5t39.5 -11.5q69 0 100 98l52 170q7 24 7 43q0 25 -14 38.5t-40 13.5q-66 0 -91 -82l-64 -208q-4 -14 -4 -30z" />
<glyph unicode="&#xf6;" horiz-adv-x="386" d="M333 555l26 85h85l-26 -85h-85zM182 555l26 85h85l-26 -85h-85zM2 87q0 19 8 45l63 208q18 58 63.5 92t105.5 34t100.5 -30t40.5 -75q0 -23 -11 -58l-61 -198q-17 -55 -62.5 -84.5t-114.5 -29.5q-60 0 -96 26t-36 70zM86 90q0 -20 14.5 -31.5t39.5 -11.5q69 0 100 98 l52 170q7 24 7 43q0 25 -14 38.5t-40 13.5q-66 0 -91 -82l-64 -208q-4 -14 -4 -30z" />
<glyph unicode="&#xf7;" d="M228 451v83h81v-83h-81zM82 309v68h373v-68h-373zM228 153v84h81v-84h-81z" />
<glyph unicode="&#xf8;" horiz-adv-x="385" d="M-27 -9l41 52q-12 25 -12 45q0 17 8 44l64 208q18 58 63 92t105 34q51 0 95 -25l38 46l33 -25l-41 -50q17 -25 17 -47q0 -21 -12 -62l-60 -198q-34 -114 -177 -114q-51 0 -91 22l-38 -47zM85 113l203 280q-16 17 -44 17q-66 0 -90 -82l-35 -115q-14 -47 -34 -100zM97 62 q20 -15 44 -15q68 0 99 98l44 143q7 24 24 65z" />
<glyph unicode="&#xf9;" horiz-adv-x="407" d="M271 527l-83 146h103l39 -146h-59zM9 70q0 24 8 53l102 334h84l-98 -320q-12 -39 -12 -52q0 -17 15 -27.5t38 -10.5q36 0 64.5 27.5t43.5 75.5l94 307h84l-140 -457h-79l16 50q-34 -34 -60 -46.5t-61 -12.5q-46 0 -72.5 21t-26.5 58z" />
<glyph unicode="&#xfa;" horiz-adv-x="407" d="M266 527l76 146h113l-127 -146h-62zM9 70q0 24 8 53l102 334h84l-98 -320q-12 -39 -12 -52q0 -17 15 -27.5t38 -10.5q36 0 64.5 27.5t43.5 75.5l94 307h84l-140 -457h-79l16 50q-34 -34 -60 -46.5t-61 -12.5q-46 0 -72.5 21t-26.5 58z" />
<glyph unicode="&#xfb;" horiz-adv-x="407" d="M180 527l108 147h104l36 -147h-54l-44 91l-92 -91h-58zM9 70q0 24 8 53l102 334h84l-98 -320q-12 -39 -12 -52q0 -17 15 -27.5t38 -10.5q36 0 64.5 27.5t43.5 75.5l94 307h84l-140 -457h-79l16 50q-34 -34 -60 -46.5t-61 -12.5q-46 0 -72.5 21t-26.5 58z" />
<glyph unicode="&#xfc;" horiz-adv-x="407" d="M345 555l26 85h85l-26 -85h-85zM194 555l26 85h85l-26 -85h-85zM9 70q0 24 8 53l102 334h84l-98 -320q-12 -39 -12 -52q0 -17 15 -27.5t38 -10.5q36 0 64.5 27.5t43.5 75.5l94 307h84l-140 -457h-79l16 50q-34 -34 -60 -46.5t-61 -12.5q-46 0 -72.5 21t-26.5 58z" />
<glyph unicode="&#xfd;" horiz-adv-x="350" d="M224 527l76 146h113l-127 -146h-62zM71 -11v468h73v-336l179 336h85l-356 -637h-86z" />
<glyph unicode="&#xfe;" horiz-adv-x="388" d="M80 55l-72 -235h-84l259 847h84l-77 -250q55 49 108 49q40 0 64.5 -25t24.5 -66q0 -35 -14 -80l-53 -173q-19 -62 -56 -96.5t-85 -34.5q-32 0 -59 17t-40 47zM97 94q0 -23 16 -38t40 -15q31 0 53 26.5t40 86.5l43 141q14 47 14 65q0 23 -12.5 36.5t-33.5 13.5 q-31 0 -57.5 -26.5t-40.5 -70.5l-54 -176q-8 -26 -8 -43z" />
<glyph unicode="&#xff;" horiz-adv-x="350" d="M310 555l26 85h85l-26 -85h-85zM159 555l26 85h85l-26 -85h-85zM71 -11v468h73v-336l179 336h85l-356 -637h-86z" />
<glyph unicode="&#x152;" horiz-adv-x="647" d="M39 40q-25 25 -25 61q0 21 7 45l117 383q22 72 79.5 110t144.5 38q23 0 71 -7q23 -3 40 -3h264l-22 -72h-202l-67 -218h191l-22 -72h-191l-71 -233h212l-22 -72h-212q-29 0 -95 -7q-32 -3 -60 -3q-84 0 -137 50zM102 116q0 -28 23.5 -45t63.5 -17q48 0 76 14l161 527 q-31 17 -67 17q-45 0 -76 -18q-47 -26 -71 -106l-90 -294l-9 -29q-11 -34 -11 -49z" />
<glyph unicode="&#x153;" horiz-adv-x="597" d="M1 88q0 14 11 51l60 198q19 61 64.5 95t109.5 34q69 0 105 -45q39 45 115 45q58 0 91.5 -26.5t33.5 -72.5q0 -35 -37 -160h-212l-23 -75q-8 -25 -8 -41q0 -44 55 -44q37 0 54.5 19t24.5 66h87q-3 -53 -39 -95q-40 -46 -139 -46q-75 0 -99 44q-34 -44 -129 -44 q-56 0 -90.5 27t-34.5 70zM360 264h125l21 68q7 21 7 36q0 19 -14.5 30.5t-37.5 11.5q-32 0 -50 -18.5t-33 -68.5zM85 91q0 -20 14.5 -32t38.5 -12q37 0 62 25t42 81l55 179q5 18 5 29q0 21 -16.5 35t-41.5 14q-31 0 -54.5 -19.5t-33.5 -53.5l-67 -218q-4 -20 -4 -28z" />
<glyph unicode="&#x178;" horiz-adv-x="440" d="M422 745l27 90h91l-28 -90h-90zM255 745l27 90h91l-28 -90h-90zM108 0l88 287l-62 380h86l45 -293l207 293h94l-291 -404l-80 -263h-87z" />
<glyph unicode="&#x2c6;" horiz-adv-x="500" d="M226 527l108 147h104l36 -147h-54l-44 91l-92 -91h-58z" />
<glyph unicode="&#x2dc;" horiz-adv-x="500" d="M224 551q9 49 34 77t60 28q18 0 31.5 -7t44.5 -34q8 -6 17 -6q21 0 32 43h57q-9 -47 -35.5 -77.5t-58.5 -30.5q-14 0 -26 6.5t-44 31.5q-16 13 -26 13q-17 0 -25 -29l-4 -15h-57z" />
<glyph unicode="&#x2000;" horiz-adv-x="445" />
<glyph unicode="&#x2001;" horiz-adv-x="890" />
<glyph unicode="&#x2002;" horiz-adv-x="445" />
<glyph unicode="&#x2003;" horiz-adv-x="890" />
<glyph unicode="&#x2004;" horiz-adv-x="296" />
<glyph unicode="&#x2005;" horiz-adv-x="222" />
<glyph unicode="&#x2006;" horiz-adv-x="148" />
<glyph unicode="&#x2007;" horiz-adv-x="148" />
<glyph unicode="&#x2008;" horiz-adv-x="111" />
<glyph unicode="&#x2009;" horiz-adv-x="178" />
<glyph unicode="&#x200a;" horiz-adv-x="49" />
<glyph unicode="&#x2010;" horiz-adv-x="174" d="M-2 223l20 66h174l-20 -66h-174z" />
<glyph unicode="&#x2011;" horiz-adv-x="174" d="M-2 223l20 66h174l-20 -66h-174z" />
<glyph unicode="&#x2013;" horiz-adv-x="441" d="M49 223l20 66h345l-20 -66h-345z" />
<glyph unicode="&#x2014;" horiz-adv-x="544" d="M-2 223l20 66h544l-20 -66h-544z" />
<glyph unicode="&#x2018;" horiz-adv-x="207" d="M118 436l101 231h67l-67 -231h-101z" />
<glyph unicode="&#x2019;" horiz-adv-x="207" d="M120 436l68 231h100l-100 -231h-68z" />
<glyph unicode="&#x201a;" horiz-adv-x="207" d="M14 100h100l-100 -231h-68z" />
<glyph unicode="&#x201c;" horiz-adv-x="368" d="M280 436l99 231h68l-68 -231h-99zM118 436l101 231h64l-64 -231h-101z" />
<glyph unicode="&#x201d;" horiz-adv-x="368" d="M283 436l65 231h101l-101 -231h-65zM120 436l68 231h99l-100 -231h-67z" />
<glyph unicode="&#x201e;" horiz-adv-x="368" d="M112 -131l65 231h101l-101 -231h-65zM16 100h100l-100 -231h-67z" />
<glyph unicode="&#x2022;" horiz-adv-x="667" d="M335 200q-57 0 -98 40.5t-41 97.5q0 58 41 98.5t100 40.5q55 0 95.5 -41t40.5 -97q0 -58 -40.5 -98.5t-97.5 -40.5z" />
<glyph unicode="&#x2026;" horiz-adv-x="540" d="M338 0l27 87h88l-26 -87h-89zM158 0l27 87h88l-26 -87h-89zM-22 0l27 87h88l-26 -87h-89z" />
<glyph unicode="&#x202f;" horiz-adv-x="178" />
<glyph unicode="&#x2039;" horiz-adv-x="200" d="M114 44l-91 139l35 120l161 106l-32 -108l-108 -74l62 -92z" />
<glyph unicode="&#x203a;" horiz-adv-x="200" d="M-10 64l32 108l108 73l-61 93l26 91l91 -139l-35 -120z" />
<glyph unicode="&#x205f;" horiz-adv-x="222" />
<glyph unicode="&#x20ac;" horiz-adv-x="487" d="M53 105q0 37 13 79l19 60h-62l41 66h41l14 48h-62l42 66h41l22 74q26 87 87 133t149 46q60 0 97.5 -32t37.5 -84q0 -24 -17 -75h-86q15 52 15 67q0 24 -19.5 39.5t-50.5 15.5q-45 0 -82 -36q-34 -32 -57 -116l-9 -32h148l-41 -66h-128l-14 -48h112l-41 -66h-91l-19 -60 q-12 -39 -12 -63q0 -29 18.5 -45.5t49.5 -16.5q25 0 51 13.5t40 33.5q31 42 42 91h86q-36 -207 -237 -207q-138 0 -138 115z" />
<glyph unicode="&#x2122;" horiz-adv-x="658" d="M292 287l125 380h85l-17 -282l163 282h89l-109 -380h-54l89 311l-178 -311h-54l17 309l-101 -309h-55zM116 287l102 333h-95l15 47h242l-14 -47h-91l-102 -333h-57z" />
</font>
</defs>
</svg>
