<?xml version="1.0" standalone="no"?>
<!DOCTYPE svg PUBLIC "-//W3C//DTD SVG 1.1//EN" "http://www.w3.org/Graphics/SVG/1.1/DTD/svg11.dtd" >
<svg xmlns="http://www.w3.org/2000/svg">
<metadata>
This is a custom SVG webfont generated by Fontspring.
Designer    : FontSite.com
Foundry URL : http://www.fontsite.com
</metadata>
<defs>
<font id="webfont" horiz-adv-x="500" >
<font-face units-per-em="1000" ascent="800" descent="-200" />
<missing-glyph horiz-adv-x="300" />
<glyph unicode=" "  horiz-adv-x="300" />
<glyph unicode="&#x09;" horiz-adv-x="300" />
<glyph unicode="&#xa0;" horiz-adv-x="300" />
<glyph unicode="!" horiz-adv-x="386" d="M116 196l-46 471h246l-40 -471h-160zM96 0v143h201v-143h-201z" />
<glyph unicode="&#x22;" horiz-adv-x="523" d="M317 399l-42 268h239l-43 -268h-154zM51 399l-42 268h238l-42 -268h-154z" />
<glyph unicode="#" horiz-adv-x="660" d="M112 0l33 191h-98v94h115l19 110h-98v94h115l31 178h108l-32 -178h112l31 178h109l-31 -178h88v-94h-105l-19 -110h88v-94h-105l-34 -191h-109l34 191h-111l-34 -191h-107zM269 285h111l20 110h-111z" />
<glyph unicode="$" horiz-adv-x="767" d="M31 215h218l-1 -21q-2 -42 31 -63t99 -21q61 0 94 18t33 50q0 26 -18.5 39.5t-72.5 27.5l-139 37q-67 18 -94.5 28.5t-54.5 28.5q-75 49 -75 141q0 130 136 180q45 17 125 24v100h130v-98q141 -7 205.5 -55.5t66.5 -149.5h-210l1 16q2 32 -30 49.5t-91 17.5 q-52 0 -81 -15t-29 -42q0 -26 27 -40q18 -11 86 -30l142 -40q101 -28 145 -66q28 -24 44.5 -61t16.5 -76q0 -66 -40.5 -115.5t-114.5 -74.5q-43 -14 -126 -22v-109h-133v109q-150 10 -219 65.5t-71 167.5z" />
<glyph unicode="%" horiz-adv-x="1115" d="M248 240q-208 0 -208 217t208 217q209 0 209 -221q0 -105 -53 -159t-156 -54zM291 0l435 667h98l-434 -667h-99zM200 356q17 -26 49 -26q34 0 52 32q13 23 13 94q0 78 -16 102q-18 26 -49 26q-36 0 -53 -32q-13 -23 -13 -95q0 -78 17 -101zM659 210q0 217 207 217 q209 0 209 -221q0 -105 -53 -159t-155 -54q-208 0 -208 217zM818 109q18 -26 49 -26q36 0 52 32q13 23 13 94q0 78 -16 102q-17 26 -49 26q-36 0 -52 -32q-13 -23 -13 -95q0 -77 16 -101z" />
<glyph unicode="&#x26;" horiz-adv-x="943" d="M130 45q-35 20 -56 57.5t-21 83.5q0 78 58 127q32 26 92 40q-128 35 -128 145q0 106 113 146q69 24 194 24q50 0 127 -5v-116q-81 7 -120 7q-43 0 -67 -19.5t-24 -54.5q0 -22 11.5 -39t30.5 -24q35 -13 120 -13h92v120h210v-120h161v-110h-161v-286q-98 -8 -327 -8 q-126 0 -192.5 10t-112.5 35zM270 212q0 -54 58 -78q32 -12 132 -12h92v172h-88q-87 0 -107.5 -1.5t-38.5 -9.5q-48 -21 -48 -71z" />
<glyph unicode="'" horiz-adv-x="264" d="M51 399l-42 268h245l-42 -268h-161z" />
<glyph unicode="(" horiz-adv-x="400" d="M124 14q-51 153 -51 246q0 98 52 266q16 52 55 141h153q-37 -110 -50 -168q-30 -132 -30 -227q0 -83 24.5 -200t62.5 -215h-154q-28 53 -62 157z" />
<glyph unicode=")" horiz-adv-x="400" d="M60 -143q38 98 62.5 215t24.5 200q0 105 -35 247q-13 52 -45 148h153q40 -92 61 -161q46 -156 46 -246q0 -99 -58 -266q-32 -93 -55 -137h-154z" />
<glyph unicode="*" horiz-adv-x="474" d="M199 333v101l-88 -51l-38 66l88 51l-88 50l38 66l88 -50v101h76v-101l87 50l38 -65l-87 -51l87 -50l-37 -66l-88 50v-101h-76z" />
<glyph unicode="+" d="M198 119v206h-200v98h200v206h102v-206h201v-98h-201v-206h-102z" />
<glyph unicode="," horiz-adv-x="333" d="M-1 -100l73 253h226l-138 -253h-161z" />
<glyph unicode="-" horiz-adv-x="338" d="M0 189v137h338v-137h-338z" />
<glyph unicode="." horiz-adv-x="333" d="M66 0v152h201v-152h-201z" />
<glyph unicode="/" horiz-adv-x="473" d="M27 -73l293 740h120l-293 -740h-120z" />
<glyph unicode="0" horiz-adv-x="767" d="M155 47q-110 84 -110 287t110 286q88 67 228 67q142 0 229 -67q110 -83 110 -293q0 -196 -110 -280q-86 -67 -229 -67q-142 0 -228 67zM384 107q62 0 90 53t28 172q0 122 -27.5 175t-90.5 53t-91 -53.5t-28 -172.5q0 -120 28 -173.5t91 -53.5z" />
<glyph unicode="1" horiz-adv-x="767" d="M328 0v481q-33 -27 -88 -53.5t-111 -42.5v168q27 5 95 41t122 73h192v-667h-210z" />
<glyph unicode="2" horiz-adv-x="767" d="M83 0v152l203 136q107 71 150 121q29 33 29 71q0 36 -24 58t-64 22q-44 0 -68 -24.5t-24 -69.5q0 -11 1 -19h-203q-1 12 -1 28q0 91 52 143q69 69 236 69q152 0 233.5 -51.5t81.5 -147.5q0 -73 -52.5 -134.5t-183.5 -143.5l-112 -70h348v-140h-602z" />
<glyph unicode="3" horiz-adv-x="767" d="M65 181q0 12 1 21h213q-1 -2 -1 -5q-1 -14 5 -32.5t15 -28.5q28 -29 85 -29q100 0 100 87q0 44 -28 68t-79 24q-49 0 -79 -3v118q14 -2 30 -2q69 0 96 12q41 18 41 74q0 36 -21.5 55.5t-61.5 19.5q-84 0 -84 -78h-215v9q0 77 45 123q70 73 249 73q150 0 227.5 -47 t77.5 -138q0 -87 -72 -129q-32 -19 -90 -27q76 -12 109 -32q33 -19 52.5 -54.5t19.5 -76.5q0 -96 -86 -149.5t-240 -53.5q-309 0 -309 201z" />
<glyph unicode="4" horiz-adv-x="767" d="M31 138v151l316 378h251v-404h137v-125h-137v-138h-200v138h-367zM181 263h217v262z" />
<glyph unicode="5" horiz-adv-x="767" d="M80 182h221q0 -38 23 -58.5t65 -20.5q97 0 97 112q0 52 -25 80.5t-71 28.5q-68 0 -81 -63l-206 5l11 401h540v-127h-353l-8 -170q38 42 74.5 58t93.5 16q112 0 175 -60t63 -166q0 -109 -78 -172q-84 -66 -246 -66q-295 0 -295 202z" />
<glyph unicode="6" horiz-adv-x="767" d="M54 321q0 180 88.5 273t260.5 93t243 -69q44 -41 47 -115h-215q-6 39 -25 55t-59 16q-61 0 -89 -39q-39 -53 -39 -145v-21q40 42 84 59.5t111 17.5q121 0 190 -58.5t69 -161.5q0 -115 -85 -180.5t-233 -65.5q-179 0 -263.5 82.5t-84.5 258.5zM274 215q0 -52 31 -83.5 t82 -31.5q50 0 81.5 31.5t31.5 81.5q0 52 -31 84t-82 32t-82 -31.5t-31 -82.5z" />
<glyph unicode="7" horiz-adv-x="767" d="M144 0l320 530h-399v137h628v-138l-295 -529h-254z" />
<glyph unicode="8" horiz-adv-x="767" d="M47 181q0 81 75 128q50 31 120 38q-81 13 -124.5 54t-43.5 105q0 43 23 79.5t63 58.5q80 43 223 43q144 0 224 -43q40 -22 63 -58.5t23 -79.5q0 -64 -43.5 -105t-125.5 -54q78 -7 133 -46q63 -45 63 -120q0 -95 -88.5 -148t-248.5 -53q-159 0 -247.5 53t-88.5 148z M384 403q46 0 74 22.5t28 59.5t-28 59.5t-74 22.5t-74.5 -22.5t-28.5 -59.5t28.5 -59.5t74.5 -22.5zM260 196q0 -43 34.5 -69.5t89.5 -26.5t89 26.5t34 68.5q0 44 -34 70.5t-90 26.5q-55 0 -89 -26.5t-34 -69.5z" />
<glyph unicode="9" horiz-adv-x="767" d="M57 176h219q8 -46 23 -62q24 -27 79 -27q134 0 134 203v22q-39 -38 -82.5 -53.5t-113.5 -15.5q-130 0 -197.5 52.5t-67.5 153.5q0 113 87 175.5t246 62.5q162 0 243 -74q90 -80 90 -272q0 -191 -88 -276t-284 -85q-147 0 -217 47.5t-71 148.5zM384 366q49 0 81 28t32 72 t-31.5 72.5t-81.5 28.5t-81.5 -28.5t-31.5 -72.5t32 -72t81 -28z" />
<glyph unicode=":" horiz-adv-x="333" d="M66 308v152h201v-152h-201zM66 0v152h201v-152h-201z" />
<glyph unicode=";" horiz-adv-x="333" d="M68 311v152h201v-152h-201zM-1 -100l73 253h226l-138 -253h-161z" />
<glyph unicode="&#x3c;" d="M33 249v181l433 250v-218l-202 -123l201 -124l1 -216z" />
<glyph unicode="=" d="M-2 406v95h504v-95h-504zM-2 248v95h504v-95h-504z" />
<glyph unicode="&#x3e;" d="M33 -1v217l203 124l-202 124l-1 216l433 -250v-182z" />
<glyph unicode="?" horiz-adv-x="598" d="M166 194q-2 16 -2 32q0 34 10 54t39 46l84 75q29 26 40 43t11 37q0 38 -41 58.5t-118 20.5q-57 0 -122 -13v126q103 14 173 14q170 0 247.5 -41t77.5 -131q0 -47 -23.5 -82.5t-89.5 -88.5l-55 -44q-30 -24 -42 -46.5t-11 -53.5q0 -3 -1 -6h-177zM153 0v143h211v-143h-211 z" />
<glyph unicode="@" horiz-adv-x="789" d="M67 244q0 142 100 242t243 100q128 0 220 -83.5t92 -200.5q0 -67 -31 -124t-87 -93q-53 -34 -102 -34q-56 0 -77 43q-36 -27 -58 -36.5t-50 -9.5q-51 0 -86.5 40t-35.5 97q0 92 66 176q61 75 138 75q61 0 97 -45l10 29h93l-93 -287l-1 -11q0 -10 6.5 -16t17.5 -6 q16 0 41.5 17.5t47.5 42.5q51 60 51 137q0 97 -76.5 166t-184.5 69q-119 0 -202.5 -83.5t-83.5 -203.5q0 -119 85.5 -204t204.5 -85q71 0 134.5 34.5t103.5 95.5h64q-45 -86 -126.5 -136t-178.5 -50q-141 0 -241.5 101t-100.5 243zM287 143q0 -23 12.5 -37.5t32.5 -14.5 q26 0 50.5 24t37.5 62l48 142q4 11 4 22q0 22 -13 36.5t-32 14.5q-55 0 -97 -89q-43 -88 -43 -160z" />
<glyph unicode="A" horiz-adv-x="965" d="M7 0l345 667h254l353 -667h-241l-64 130h-371l-61 -130h-215zM342 260h249l-125 264z" />
<glyph unicode="B" horiz-adv-x="811" d="M75 0v667h382q135 0 199 -36q36 -19 57.5 -56t21.5 -78q0 -119 -153 -152q85 -18 120 -45q60 -45 60 -122q0 -110 -103 -151q-71 -27 -196 -27h-388zM285 399h114q119 0 119 73q0 37 -28.5 54.5t-90.5 17.5h-114v-145zM285 123h112q80 0 105 12q43 21 43 66q0 51 -51 69 q-26 9 -97 9h-112v-156z" />
<glyph unicode="C" horiz-adv-x="870" d="M47 323q0 95 32.5 168.5t93.5 116.5q112 79 302 79q105 0 185.5 -27t124.5 -77q47 -53 47 -134h-237q-2 50 -38.5 77.5t-100.5 27.5q-84 0 -131.5 -58t-47.5 -161q0 -119 64 -181q41 -41 116 -41q68 0 108.5 31t41.5 84h236q-2 -62 -25 -105t-73 -75q-106 -69 -290 -69 q-198 0 -303 88.5t-105 255.5z" />
<glyph unicode="D" horiz-adv-x="915" d="M75 0v667h321q125 0 196.5 -13t129.5 -45q69 -39 107.5 -112t38.5 -164q0 -164 -110 -254q-59 -49 -130.5 -64t-241.5 -15h-311zM292 137h97q125 0 178 36q71 47 71 159q0 99 -60 150q-55 48 -180 48h-106v-393z" />
<glyph unicode="E" horiz-adv-x="708" d="M75 0v667h580v-137h-370v-124h346v-133h-346v-136h374v-137h-584z" />
<glyph unicode="F" horiz-adv-x="689" d="M75 0v667h576v-137h-359v-143h330v-137h-330v-250h-217z" />
<glyph unicode="G" horiz-adv-x="910" d="M184 46q-65 41 -101.5 114.5t-36.5 162.5q0 85 33.5 158t94.5 119q112 87 319 87q203 0 291 -91q57 -57 66 -136h-234q-15 97 -140 97q-92 0 -146 -61t-54 -167t57.5 -162.5t166.5 -56.5q76 0 140 21v114h-172v123h382v-342q-126 -27 -200 -36.5t-164 -9.5 q-196 0 -302 66z" />
<glyph unicode="H" horiz-adv-x="901" d="M75 0v667h217v-261h317v261h217v-667h-217v269h-317v-269h-217z" />
<glyph unicode="I" horiz-adv-x="367" d="M75 0v667h217v-667h-217z" />
<glyph unicode="J" horiz-adv-x="719" d="M67 58q-30 32 -43 72t-12 102h222v-8q0 -48 26 -76.5t69 -28.5q49 0 73 34q25 37 25 139v375h217v-379q0 -91 -17 -141t-61 -90q-87 -78 -243 -78q-179 0 -256 79z" />
<glyph unicode="K" horiz-adv-x="891" d="M298 365l277 302h275l-297 -289l326 -378h-280zM75 0v667h217v-667h-217z" />
<glyph unicode="L" horiz-adv-x="661" d="M75 0v667h217v-530h346v-137h-563z" />
<glyph unicode="M" horiz-adv-x="1129" d="M75 0v667h345l86 -240q31 -86 60 -191q21 98 55 194l82 237h350v-667h-217v287q0 155 10 278q-27 -97 -39.5 -137t-49.5 -139l-106 -289h-193l-111 302l-27.5 76.5t-19 56t-11.5 37t-11.5 43l-13.5 50.5q11 -171 11 -266v-299h-200z" />
<glyph unicode="N" horiz-adv-x="937" d="M75 0v667h293l209 -319l91 -141q-6 119 -6 184v276h200v-667h-285l-243 359q-6 8 -27 44l-19.5 32t-15.5 25q3 -78 3 -147v-313h-200z" />
<glyph unicode="O" horiz-adv-x="929" d="M148 78q-101 92 -101 256q0 163 101 255q108 98 320 98q204 0 314 -98q101 -92 101 -261q0 -157 -101 -250q-108 -98 -311 -98q-112 0 -189 23.5t-134 74.5zM270 334q0 -104 52 -164t143 -60q90 0 142.5 59.5t52.5 160.5q0 107 -51.5 167t-143.5 60q-91 0 -143 -59.5 t-52 -163.5z" />
<glyph unicode="P" horiz-adv-x="763" d="M75 0v667h351q87 0 138 -10t90 -34q39 -25 61 -69t22 -97q0 -65 -29.5 -113.5t-81.5 -70.5q-71 -30 -222 -30h-119v-243h-210zM285 366h59q87 0 120 16q43 20 43 71q0 44 -35 65q-30 19 -106 19h-81v-171z" />
<glyph unicode="Q" horiz-adv-x="1024" d="M147 78q-101 92 -101 255t101 255q108 98 317 98t317 -98q101 -92 101 -254q0 -79 -18 -128t-71 -116l4 -5q80 53 206 53q15 0 49 -3v-135h-246q-92 0 -179 -9q-97 -11 -159 -11q-213 0 -321 98zM269 333q0 -104 52 -163.5t143 -59.5q90 0 142.5 59.5t52.5 160.5 q0 107 -51.5 166.5t-143.5 59.5q-91 0 -143 -59.5t-52 -163.5z" />
<glyph unicode="R" horiz-adv-x="841" d="M75 0v667h400q79 0 122 -6.5t80 -23.5q41 -20 65.5 -58.5t24.5 -84.5q0 -84 -69 -129q-36 -22 -94 -34q83 -4 115.5 -40t39.5 -128q6 -77 14 -111t25 -52h-235q-19 41 -24 119q-5 94 -26 118.5t-95 24.5h-126v-262h-217zM292 385h111q70 0 99 16q35 19 35 63q0 45 -35 64 q-29 16 -99 16h-111v-159z" />
<glyph unicode="S" horiz-adv-x="801" d="M105 61q-28 27 -40.5 62t-15.5 92h218q-1 -8 -1 -21q0 -84 129 -84q61 0 94.5 18t33.5 50q0 26 -21 41q-17 12 -70 26l-139 37q-67 18 -94.5 28.5t-54.5 28.5q-75 49 -75 141q0 101 78 151q88 56 256 56q174 0 250.5 -48t79.5 -158h-211q1 6 1 16q0 67 -121 67 q-52 0 -81 -15t-29 -42q0 -24 21 -37t92 -33l143 -40q101 -28 144 -66q28 -24 44.5 -61t16.5 -76q0 -50 -25 -93.5t-70 -69.5q-89 -51 -252 -51q-218 0 -301 81z" />
<glyph unicode="T" horiz-adv-x="746" d="M265 0v530h-253v137h722v-137h-252v-530h-217z" />
<glyph unicode="U" horiz-adv-x="899" d="M148 65q-39 35 -56 92t-17 151v359h223v-310q0 -87 8 -128.5t31 -70.5q37 -48 113 -48q78 0 119 47q23 28 30.5 66.5t7.5 133.5v310h217v-359q0 -169 -76 -240q-93 -88 -304 -88q-204 0 -296 85z" />
<glyph unicode="V" horiz-adv-x="871" d="M299 0l-299 667h242l141 -326q38 -90 66 -164q62 159 65 165l135 325h222l-294 -667h-278z" />
<glyph unicode="W" horiz-adv-x="1073" d="M173 0l-158 667h217l43 -207q39 -190 48 -304q13 137 55 296l58 215h220l52 -201q41 -158 50.5 -201.5t19.5 -108.5q9 157 45 323l40 188h195l-158 -667h-250l-58 203q-12 40 -30.5 128t-25.5 135q-12 -115 -54 -263l-58 -203h-251z" />
<glyph unicode="X" horiz-adv-x="900" d="M7 0l304 347l-284 320h278l157 -180l144 180h268l-288 -324l308 -343h-272l-185 207l-172 -207h-258z" />
<glyph unicode="Y" horiz-adv-x="864" d="M324 0v234l-324 433h272l177 -256l178 256h237l-323 -433v-234h-217z" />
<glyph unicode="Z" horiz-adv-x="753" d="M42 0v174l395 353h-371v140h632v-171l-401 -359h414v-137h-669z" />
<glyph unicode="[" horiz-adv-x="450" d="M73 -141v808h317v-97h-147v-614h147v-97h-317z" />
<glyph unicode="\" horiz-adv-x="473" d="M326 -73l-293 740h120l293 -740h-120z" />
<glyph unicode="]" horiz-adv-x="450" d="M60 -44h147v614h-147v97h317v-808h-317v97z" />
<glyph unicode="^" d="M0 328l130 344h241l130 -344h-189l-61 198l-62 -198h-189z" />
<glyph unicode="_" d="M0 -42h500v-126h-500v126z" />
<glyph unicode="`" d="M147 534l-119 133h256l82 -133h-219z" />
<glyph unicode="a" horiz-adv-x="754" d="M57 130q0 101 124 140q84 25 245 25q23 0 41 -1q-2 50 -20.5 69.5t-62.5 19.5q-40 0 -60.5 -13.5t-24.5 -43.5h-209q7 84 75.5 119t226.5 35q145 0 211 -40q53 -33 67 -88q7 -25 7 -99v-173q0 -41 3 -80h-210l-2 29q-1 11 -1 30q-31 -38 -77.5 -55t-122.5 -17 q-210 0 -210 143zM264 138q0 -54 77 -54q82 0 112 47q14 21 14 74h-11q-9 1 -22 1q-85 0 -133 -17q-37 -13 -37 -51z" />
<glyph unicode="b" horiz-adv-x="775" d="M72 0l1 27q2 42 2 73v567h210v-247q43 33 81.5 46.5t90.5 13.5q129 0 201.5 -67.5t72.5 -188.5q0 -110 -69 -173.5t-188 -63.5q-61 0 -104 15.5t-85 52.5l-1 -14l-2 -20v-21h-210zM281 235q0 -65 33 -103t88 -38q52 0 82 36.5t30 99.5q0 67 -31 105t-86 38 q-53 0 -84.5 -37.5t-31.5 -100.5z" />
<glyph unicode="c" horiz-adv-x="724" d="M138 34q-95 58 -95 193q0 123 87.5 188t253.5 65q144 0 223.5 -52t81.5 -147h-209q-14 92 -101 92q-55 0 -87 -39t-32 -104q0 -67 31.5 -105t87.5 -38q89 0 101 98h213q-3 -47 -16 -76.5t-42 -55.5q-82 -73 -258 -73q-153 0 -239 54z" />
<glyph unicode="d" horiz-adv-x="775" d="M43 225q0 120 72.5 187.5t201.5 67.5q53 0 91.5 -13.5t80.5 -46.5v247h210v-567q0 -39 3 -100h-210v21l-2 20l-1 14q-42 -37 -85 -52.5t-104 -15.5q-120 0 -188.5 63.5t-68.5 174.5zM260 232q0 -65 30 -101.5t82 -36.5q55 0 88 38t33 101q0 64 -31.5 102t-84.5 38 q-54 0 -85.5 -38t-31.5 -103z" />
<glyph unicode="e" horiz-adv-x="710" d="M111 51q-68 65 -68 179q0 116 84 182.5t230 66.5q96 0 168.5 -29.5t106.5 -82.5q35 -56 35 -146q0 -20 -2 -38h-416q1 -47 16 -68q26 -38 91 -38q92 0 101 63h208q-7 -37 -23 -61.5t-47 -46.5q-76 -52 -244 -52q-163 0 -240 71zM248 280h217q-4 103 -109 103 q-104 0 -108 -103z" />
<glyph unicode="f" horiz-adv-x="466" d="M120 0v350h-119v110h119v52q0 82 47.5 118.5t154.5 36.5q54 0 139 -11v-104q-23 2 -48 2q-48 0 -65.5 -13t-17.5 -48v-33h131v-110h-131v-350h-210z" />
<glyph unicode="g" horiz-adv-x="759" d="M68 -32h213q3 -64 84 -64q67 0 93 41q18 29 18 86v46q-68 -71 -191 -71q-116 0 -179 59t-63 168t71 176q67 64 187 64q62 0 103.5 -14.5t78.5 -49.5v51h203v-345q0 -124 -27.5 -181t-101.5 -89q-90 -38 -248 -38q-118 0 -175 32q-31 16 -49 46.5t-18 65.5q0 10 1 17z M260 245q0 -62 27.5 -97t76.5 -35q58 0 87 39q26 35 26 89q0 59 -28.5 92t-78.5 33q-52 0 -81 -32.5t-29 -88.5z" />
<glyph unicode="h" horiz-adv-x="759" d="M75 0v667h210v-265q66 78 188 78q62 0 113 -23.5t76 -63.5q20 -32 23 -78q1 -11 1 -92v-223h-210v203q0 83 -14 113q-22 44 -77 44q-54 0 -81 -44q-19 -34 -19 -108v-208h-210z" />
<glyph unicode="i" horiz-adv-x="361" d="M75 540v127h210v-127h-210zM75 0v460h210v-460h-210z" />
<glyph unicode="j" horiz-adv-x="365" d="M80 540v127h210v-127h-210zM-24 -75q64 0 85 24q12 13 15.5 33.5t3.5 74.5v403h210v-442q0 -63 -1.5 -81.5t-9.5 -36.5q-40 -93 -210 -93q-51 0 -110 10v109q7 -1 17 -1z" />
<glyph unicode="k" horiz-adv-x="775" d="M75 0v667h210v-667h-210zM292 263l182 197h260l-227 -197l273 -263h-273z" />
<glyph unicode="l" horiz-adv-x="361" d="M75 0v667h210v-667h-210z" />
<glyph unicode="m" horiz-adv-x="1130" d="M78 0v323q0 83 -2 106q0 17 -1 31h210q2 -46 3 -64q43 43 83 60t96 17q133 0 184 -95q67 95 200 95q116 0 166 -64q22 -28 31 -66t9 -106v-237h-210v235q0 64 -14 87q-17 31 -64 31q-58 0 -82 -48q-15 -30 -15 -97v-208h-210v229q0 46 -2.5 63t-11.5 30q-20 31 -65 31 q-60 0 -83 -52q-12 -29 -12 -93v-208h-210z" />
<glyph unicode="n" horiz-adv-x="764" d="M78 0v317q0 33 -3 143h213q0 -20 1 -23q0 -12 1 -24l1 -20q74 80 183 80q108 0 167 -62q29 -32 39 -71t10 -122v-218h-210v216q0 73 -15 99q-22 38 -73 38q-61 0 -85 -55q-19 -41 -19 -133v-165h-210z" />
<glyph unicode="o" horiz-adv-x="769" d="M43 230q0 117 90.5 183.5t249.5 66.5q164 0 253.5 -66.5t89.5 -187.5q0 -114 -91.5 -180t-250.5 -66q-160 0 -250.5 66t-90.5 184zM260 230q0 -68 33 -105.5t92 -37.5q58 0 91 37.5t33 103.5q0 70 -32.5 107.5t-92.5 37.5q-59 0 -91.5 -38t-32.5 -105z" />
<glyph unicode="p" horiz-adv-x="774" d="M75 -173v503q0 46 -3 130h210q0 -16 1 -19l1 -19q0 -13 1 -25q44 42 86.5 59t102.5 17q119 0 188 -64.5t69 -174.5q0 -115 -72 -184.5t-192 -69.5q-60 0 -109 20.5t-73 55.5v-229h-210zM285 221q0 -59 30.5 -93.5t82.5 -34.5t84 38.5t32 100.5q0 58 -30 93t-80 35 q-53 0 -86 -39t-33 -100z" />
<glyph unicode="q" horiz-adv-x="777" d="M43 224q0 115 70.5 182t190.5 67q122 0 187 -75q3 56 3 62h210q-3 -114 -3 -130v-503h-210v223q-41 -38 -82 -54t-102 -16q-123 0 -193.5 65.5t-70.5 178.5zM260 224q0 -58 30.5 -94.5t80.5 -36.5q51 0 85.5 41t34.5 102q0 56 -32 90t-85 34q-52 0 -83 -37t-31 -99z" />
<glyph unicode="r" horiz-adv-x="518" d="M75 0v350q0 41 -3 110h210q0 -20 1 -24l1 -25l1 -28q29 49 68 70t98 21q11 0 37 -3v-152q-26 2 -30 2q-76 0 -119 -23q-30 -16 -42 -41.5t-12 -72.5v-184h-210z" />
<glyph unicode="s" horiz-adv-x="654" d="M41 131q0 11 1 18h188q-1 -5 -1 -14q0 -28 23.5 -43t65.5 -15q41 0 65 12.5t24 34.5q0 18 -15 28t-51 17l-111 20q-86 15 -121 37q-56 37 -56 100q0 34 18.5 64t50.5 49q69 41 208 41q192 0 240 -71q21 -29 21 -83h-200q-1 32 -17.5 44.5t-56.5 12.5q-64 0 -64 -38 q0 -18 15.5 -27.5t59.5 -18.5l110 -23q94 -19 135 -51t41 -86q0 -76 -77 -117.5t-217 -41.5q-279 0 -279 151z" />
<glyph unicode="t" horiz-adv-x="488" d="M133 98q-3 15 -3 102v150h-113v110h113v89l205 65v-154h142v-110h-142v-155q0 -34 3 -46.5t13 -22.5q19 -20 61 -20q34 0 65 7v-108q-77 -12 -145 -12q-118 0 -155 27q-36 26 -44 78z" />
<glyph unicode="u" horiz-adv-x="754" d="M122 35q-29 25 -39 61.5t-10 113.5v250h210v-221q0 -66 2 -81.5t12 -29.5q24 -34 76 -34q51 0 78 49q17 31 17 106v211h210v-377q0 -47 3 -83h-201q-1 10 -1 20l-2 24q0 11 -1 23q-63 -80 -194 -80q-104 0 -160 48z" />
<glyph unicode="v" horiz-adv-x="690" d="M230 0l-223 460h229l122 -296l125 296h200l-224 -460h-229z" />
<glyph unicode="w" horiz-adv-x="1060" d="M196 0l-189 460h223l36 -99l66 -180q5 12 13 35.5l20.5 61.5t24.5 71l39 111h238l49 -144l47 -140l7 17q1 2 27 80l7 21q4 10 6 16l2 6l54 144h188l-188 -460h-224l-51 151q-15 44 -29 93.5t-22 71.5q-18 -46 -41 -116q-14 -42 -16 -47l-54 -153h-233z" />
<glyph unicode="x" horiz-adv-x="724" d="M8 0l233 239l-207 221h245l98 -112l94 112h237l-216 -221l224 -239h-245l-115 136l-115 -136h-233z" />
<glyph unicode="y" horiz-adv-x="688" d="M171 -173l85 170l-249 463h224l127 -289l125 289h199l-243 -490l-55 -143h-213z" />
<glyph unicode="z" horiz-adv-x="603" d="M37 0v109l268 238h-252v113h494v-113l-251 -227h270v-120h-529z" />
<glyph unicode="{" d="M112 -53v124q0 40 -12.5 59.5t-42.5 25.5v177q31 6 43 21t12 53v122q0 88 45 120q23 16 50.5 21t96.5 5q10 0 33 -1.5t55 -1.5h36v-204q-12 1 -26 1q-52 0 -63 -10t-11 -56v-36q0 -65 -21 -93q-11 -15 -39 -35q35 -23 47.5 -50t12.5 -78v-48q0 -46 11.5 -55.5t65.5 -9.5 h23v-192l-36 -1l-33 -2q-18 -1 -56 -1q-70 0 -100 6t-53 25q-38 32 -38 114z" />
<glyph unicode="|" d="M140 -167v834h220v-834h-220z" />
<glyph unicode="}" d="M72 9h26q52 0 63 10t11 56v35q0 64 21 94q9 13 39 35q-35 23 -47.5 50t-12.5 78v47q0 46 -11.5 56t-65.5 10q-12 0 -23 -1v192q18 1 36 1l33 2q19 1 57 1q70 0 99.5 -6t52.5 -25q38 -31 38 -114v-124q0 -41 12.5 -60t42.5 -24v-178q-31 -5 -42 -23q-13 -17 -13 -50v-122 q0 -88 -45 -120q-23 -16 -50.5 -21t-96.5 -5q-32 0 -88 2q-6 1 -36 1v203z" />
<glyph unicode="~" horiz-adv-x="667" d="M194 525l-103 88q32 85 70 122t92 37q18 0 36.5 -5.5t105.5 -34.5q18 -7 29 -7q18 0 32 17q6 6 20 33l103 -87q-33 -84 -69 -121q-39 -41 -92 -41q-25 0 -147 43q-15 5 -27 5q-25 0 -50 -49z" />
<glyph unicode="&#xa1;" horiz-adv-x="386" d="M96 317v143h201v-143h-201zM70 -207l46 471h160l40 -471h-246z" />
<glyph unicode="&#xa2;" horiz-adv-x="767" d="M185 121q-127 56 -127 210q0 157 142 220q48 21 124 30v108h130v-106q117 -8 184 -61t66 -136h-209q-14 93 -102 93q-53 0 -85.5 -39.5t-32.5 -104.5q0 -68 31.5 -106t86.5 -38q88 0 102 98h212q0 -86 -65 -138t-188 -64v-109h-133v110q-86 10 -136 33z" />
<glyph unicode="&#xa3;" horiz-adv-x="690" d="M82 160q42 25 60 49t18 56q0 13 -5 24h-72v77h33q-32 42 -32 91t27.5 98t74.5 81q74 51 191 51q165 0 238 -103q35 -50 43 -158h-203q-3 35 -9 48q-16 39 -64 39q-28 0 -47.5 -17t-19.5 -43q0 -14 5 -24t25 -38q15 -21 17 -25h80v-77h-61q-9 -31 -27 -53t-51 -42l-8 -5 l15 5q34 11 61 11q28 0 89 -20q22 -8 38 -8q32 0 71 46l73 -180q-37 -33 -69.5 -46.5t-74.5 -13.5q-48 0 -119 27q-77 30 -107 30q-37 0 -85 -39z" />
<glyph unicode="&#xa4;" horiz-adv-x="740" d="M22 107l108 108q-28 59 -28 121q0 67 32 129l-110 110l111 112l113 -113q60 28 122 28t121 -27l112 110l110 -110l-107 -108q34 -62 34 -130q0 -63 -28 -122l107 -107l-110 -111l-106 106q-65 -34 -141 -34q-57 0 -123 33l-107 -105zM292 339q0 -34 23.5 -57.5 t55.5 -23.5q33 0 56.5 23.5t23.5 57.5q0 33 -23.5 56.5t-55.5 23.5q-34 0 -57 -23t-23 -57z" />
<glyph unicode="&#xa5;" horiz-adv-x="767" d="M113 234v137h90l-158 296h246l110 -329l104 329h217l-157 -296h89v-137h-161v-234h-217v234h-163z" />
<glyph unicode="&#xa6;" d="M140 298v369h220v-369h-220zM140 153h220v-320h-220v320z" />
<glyph unicode="&#xa7;" horiz-adv-x="535" d="M69 11v111q8 -1 14 -4q85 -24 132 -24q62 0 62 37q0 14 -7 20.5t-37 19.5l-60 27q-56 25 -81 55t-25 71q0 96 106 135q-30 12 -45 23q-39 31 -39 79q0 49 44 82q48 37 139 37q75 0 162 -21v-110q-69 24 -121 24q-47 0 -47 -30q0 -19 40 -37l47 -20q116 -49 116 -135 q0 -75 -96 -131q81 -41 81 -103q0 -61 -53 -95.5t-147 -34.5q-76 0 -185 24zM278 265q44 34 44 80q0 24 -14.5 40.5t-48.5 30.5q-45 -42 -45 -82q0 -41 64 -69z" />
<glyph unicode="&#xa8;" d="M290 530v143h178v-143h-178zM32 530v143h178v-143h-178z" />
<glyph unicode="&#xa9;" horiz-adv-x="757" d="M31 333q0 147 102.5 248.5t250.5 101.5q140 0 240.5 -103.5t100.5 -246.5q0 -144 -101.5 -246.5t-244.5 -102.5t-245.5 102.5t-102.5 246.5zM127 333q0 -107 74 -183.5t178 -76.5q103 0 176.5 76.5t73.5 183.5t-73 184t-174 77q-107 0 -181 -75.5t-74 -185.5zM190 338 q0 87 53.5 142.5t137.5 55.5q70 0 118.5 -42t51.5 -106h-94q-11 40 -74 40q-32 0 -49.5 -23.5t-17.5 -67.5t17.5 -67.5t49.5 -23.5q64 0 75 50h96q-6 -74 -52.5 -116t-123.5 -42q-85 0 -136.5 55t-51.5 145z" />
<glyph unicode="&#xaa;" horiz-adv-x="507" d="M194 392q-59 0 -91 21t-32 61q0 58 73 81q48 14 161 14q-1 28 -10.5 38.5t-33.5 10.5q-43 0 -47 -33h-124q5 52 43.5 72.5t131.5 20.5q97 0 138 -35q17 -15 22.5 -34t5.5 -63v-98q0 -32 2 -48h-126v8l-1 16v5l-2 -2q-35 -35 -110 -35zM236 452q37 0 53 15t16 49h-4h-12 q-95 0 -95 -36q0 -28 42 -28zM48 297v33h415v-33h-415z" />
<glyph unicode="&#xab;" horiz-adv-x="689" d="M290 230l214 230h145l-170 -230l170 -230h-145zM30 230l214 230h145l-170 -230l170 -230h-145z" />
<glyph unicode="&#xac;" d="M33 112v191h433v-303h-213v112h-220z" />
<glyph unicode="&#xad;" horiz-adv-x="338" d="M0 189v137h338v-137h-338z" />
<glyph unicode="&#xae;" horiz-adv-x="757" d="M31 333q0 147 102.5 248.5t250.5 101.5q140 0 240.5 -103.5t100.5 -246.5q0 -144 -101.5 -246.5t-244.5 -102.5t-245.5 102.5t-102.5 246.5zM127 333q0 -107 74 -183.5t178 -76.5q103 0 176.5 76.5t73.5 183.5t-73 184t-174 77q-107 0 -181 -75.5t-74 -185.5zM233 152 v378h161q59 0 88 -17q54 -29 54 -91q0 -65 -58 -92q28 -12 39 -38t13 -86q1 -17 9 -54h-118q-6 15 -9 54q-3 53 -17 72q-14 18 -36 18h-1v-144h-125zM358 365h13q22 0 31.5 10.5t9.5 35.5q0 45 -38 45h-16v-91z" />
<glyph unicode="&#xaf;" d="M75 540v110h349v-110h-349z" />
<glyph unicode="&#xb0;" d="M251 336q-71 0 -121.5 50t-50.5 121q0 72 50.5 122.5t121.5 50.5q72 0 121.5 -50.5t49.5 -123.5q0 -70 -50.5 -120t-120.5 -50zM250 414q36 0 63.5 27.5t27.5 63.5q0 40 -27 68.5t-65 28.5q-35 0 -62 -28.5t-27 -65.5q0 -38 26.5 -66t63.5 -28z" />
<glyph unicode="&#xb1;" d="M198 128v196h-200v98h200v205h102v-205h202v-98h-202v-196h-102zM-2 -8v98h504v-98h-504z" />
<glyph unicode="&#xb2;" horiz-adv-x="523" d="M62 267v91l134 82q68 41 93.5 66t25.5 49q0 22 -16 35t-42 13q-29 0 -46.5 -16t-15.5 -41l1 -11h-134q-1 7 -1 17q0 127 190 127q101 0 155 -30.5t54 -88.5q0 -44 -34.5 -80.5t-121.5 -86.5l-74 -42h230v-84h-398z" />
<glyph unicode="&#xb3;" horiz-adv-x="523" d="M256 255q-204 0 -204 120v13h141v-4q0 -53 69 -53q66 0 66 53q0 26 -18.5 40.5t-51.5 14.5q-29 0 -53 -2v70q10 -1 21 -1q45 0 63 7q27 12 27 45q0 45 -55 45q-56 0 -56 -47h-142q0 64 46.5 93.5t147.5 29.5q202 0 202 -111q0 -79 -107 -94q47 -6 71 -19q48 -24 48 -78 q0 -58 -56.5 -90t-158.5 -32z" />
<glyph unicode="&#xb4;" d="M128 533l79 134h258l-116 -134h-221z" />
<glyph unicode="&#xb5;" d="M12 -173v653h184v-232q0 -44 3 -59q4 -19 20 -31t36 -12q28 0 40 21q13 18 11 34q-2 30 -2 46v233h184v-480h-184v44q-18 -51 -53 -51q-34 0 -55 47v-213h-184z" />
<glyph unicode="&#xb6;" horiz-adv-x="627" d="M257 -92v413h-13q-79 0 -128 47t-49 123q0 105 82 149q52 27 149 27h289v-66h-49v-693h-98v693h-83v-693h-100z" />
<glyph unicode="&#xb7;" horiz-adv-x="333" d="M66 171v152h201v-152h-201z" />
<glyph unicode="&#xb8;" d="M195 -64h171l-75 -141h-210z" />
<glyph unicode="&#xb9;" horiz-adv-x="523" d="M223 267v289q-47 -37 -131 -58v101q18 3 62.5 24t80.5 44h127v-400h-139z" />
<glyph unicode="&#xba;" horiz-adv-x="507" d="M253 389q-93 0 -145.5 38t-52.5 106t52.5 106.5t144.5 38.5q94 0 146.5 -38.5t52.5 -108.5q0 -66 -53 -104t-145 -38zM253 455q32 0 50.5 20.5t18.5 57.5q0 38 -18 58.5t-51 20.5t-51 -20.5t-18 -58.5q0 -37 18 -57.5t51 -20.5zM36 297v33h435v-33h-435z" />
<glyph unicode="&#xbb;" horiz-adv-x="689" d="M300 0l169 230l-169 230h145l214 -230l-214 -230h-145zM40 0l169 230l-169 230h145l214 -230l-214 -230h-145z" />
<glyph unicode="&#xbc;" horiz-adv-x="1232" d="M349 0l435 667h99l-435 -667h-99zM223 267v289q-47 -37 -131 -58v101q18 3 62.5 24t80.5 44h127v-400h-139zM738 83v91l209 226h166v-242h90v-75h-90v-83h-132v83h-243zM837 158h144v157z" />
<glyph unicode="&#xbd;" horiz-adv-x="1232" d="M349 0l435 667h99l-435 -667h-99zM223 267v289q-47 -37 -131 -58v101q18 3 62.5 24t80.5 44h127v-400h-139zM772 0v91l134 82q66 40 92 65.5t26 49.5q0 22 -16 35t-42 13q-29 0 -45 -15t-16 -42q0 -7 1 -11h-134q-1 8 -1 17q0 127 190 127q101 0 154.5 -30.5t53.5 -88.5 q0 -44 -34.5 -80.5t-121.5 -86.5l-74 -42h230v-84h-397z" />
<glyph unicode="&#xbe;" horiz-adv-x="1232" d="M256 255q-204 0 -204 120v13h141v-4q0 -53 69 -53q66 0 66 53q0 26 -18.5 40.5t-51.5 14.5q-29 0 -53 -2v70q10 -1 21 -1q45 0 63 7q27 12 27 45q0 45 -55 45q-56 0 -56 -47h-142q0 64 46.5 93.5t147.5 29.5q202 0 202 -111q0 -79 -107 -94q47 -6 71 -19q48 -24 48 -78 q0 -58 -56.5 -90t-158.5 -32zM349 0l435 667h99l-435 -667h-99zM738 83v91l209 226h166v-242h90v-75h-90v-83h-132v83h-243zM837 158h144v157z" />
<glyph unicode="&#xbf;" horiz-adv-x="598" d="M234 317v143h211v-143h-211zM33 -55q0 47 23.5 82.5t89.5 88.5l55 44q30 24 42 46.5t11 53.5q0 3 1 6h177q2 -16 2 -32q0 -34 -10 -54t-39 -46l-84 -75q-29 -26 -40 -43t-11 -37q0 -38 41 -58.5t118 -20.5q57 0 122 13v-126q-103 -14 -173 -14q-170 0 -247.5 41 t-77.5 131z" />
<glyph unicode="&#xc0;" horiz-adv-x="965" d="M366 717l-119 133h256l82 -133h-219zM7 0l345 667h254l353 -667h-241l-64 130h-371l-61 -130h-215zM342 260h249l-125 264z" />
<glyph unicode="&#xc1;" horiz-adv-x="965" d="M378 716l79 134h258l-116 -134h-221zM7 0l345 667h254l353 -667h-241l-64 130h-371l-61 -130h-215zM342 260h249l-125 264z" />
<glyph unicode="&#xc2;" horiz-adv-x="965" d="M278 715l93 136h217l93 -136h-145l-57 72l-56 -72h-145zM7 0l345 667h254l353 -667h-241l-64 130h-371l-61 -130h-215zM342 260h249l-125 264z" />
<glyph unicode="&#xc3;" horiz-adv-x="965" d="M310 725q-1 67 25.5 101.5t77.5 34.5q29 0 71 -17q7 -3 36 -17q5 -3 21 -8q13 -5 21 -5q7 0 12 8.5t4 20.5q0 3 -1 5h99q1 -7 1 -17q0 -58 -24 -88.5t-70 -30.5q-30 0 -91 27q-52 23 -63 23q-20 0 -20 -24q0 -7 1 -13h-100zM7 0l345 667h254l353 -667h-241l-64 130h-371 l-61 -130h-215zM342 260h249l-125 264z" />
<glyph unicode="&#xc4;" horiz-adv-x="965" d="M516 717v110h169v-110h-169zM267 717v110h169v-110h-169zM7 0l345 667h254l353 -667h-241l-64 130h-371l-61 -130h-215zM342 260h249l-125 264z" />
<glyph unicode="&#xc5;" horiz-adv-x="965" d="M398 718q-43 20 -43 62t43 62q31 15 88 15t90 -15q42 -21 42 -63q0 -18 -11.5 -35t-30.5 -26q-33 -15 -90 -15t-88 15zM444 780q0 -26 43 -26q42 0 42 26t-43 26q-42 0 -42 -26zM7 0l345 667h254l353 -667h-241l-64 130h-371l-61 -130h-215zM342 260h249l-125 264z" />
<glyph unicode="&#xc6;" horiz-adv-x="1112" d="M5 0l368 667h690v-137h-379l21 -124h336v-133h-311l24 -136h308v-137h-473l-22 127h-292l-63 -127h-207zM344 260h202l-47 278h-14z" />
<glyph unicode="&#xc7;" horiz-adv-x="870" d="M47 323q0 95 32.5 168.5t93.5 116.5q112 79 302 79q105 0 185.5 -27t124.5 -77q47 -53 47 -134h-237q-2 50 -38.5 77.5t-100.5 27.5q-84 0 -131.5 -58t-47.5 -161q0 -119 64 -181q41 -41 116 -41q68 0 108.5 31t41.5 84h236q-2 -62 -25 -105t-73 -75q-106 -69 -290 -69 q-198 0 -303 88.5t-105 255.5zM230 -213l127 157h190l-83 -157h-234z" />
<glyph unicode="&#xc8;" horiz-adv-x="708" d="M260 717l-119 133h256l82 -133h-219zM75 0v667h580v-137h-370v-124h346v-133h-346v-136h374v-137h-584z" />
<glyph unicode="&#xc9;" horiz-adv-x="708" d="M255 716l79 134h258l-116 -134h-221zM75 0v667h580v-137h-370v-124h346v-133h-346v-136h374v-137h-584z" />
<glyph unicode="&#xca;" horiz-adv-x="708" d="M169 715l93 136h217l93 -136h-145l-57 72l-56 -72h-145zM75 0v667h580v-137h-370v-124h346v-133h-346v-136h374v-137h-584z" />
<glyph unicode="&#xcb;" horiz-adv-x="708" d="M407 717v110h169v-110h-169zM158 717v110h169v-110h-169zM75 0v667h580v-137h-370v-124h346v-133h-346v-136h374v-137h-584z" />
<glyph unicode="&#xcc;" horiz-adv-x="367" d="M74 717l-119 133h256l82 -133h-219zM76 0v667h217v-667h-217z" />
<glyph unicode="&#xcd;" horiz-adv-x="367" d="M82 716l79 134h258l-116 -134h-221zM75 0v667h217v-667h-217z" />
<glyph unicode="&#xce;" horiz-adv-x="367" d="M-14 715l93 136h217l93 -136h-145l-57 72l-56 -72h-145zM76 0v667h217v-667h-217z" />
<glyph unicode="&#xcf;" horiz-adv-x="367" d="M210 717v110h169v-110h-169zM1 717v110h169v-110h-169zM75 0v667h217v-667h-217z" />
<glyph unicode="&#xd0;" horiz-adv-x="923" d="M83 0v269h-76v137h76v261h321q125 0 196.5 -13t129.5 -45q69 -39 107.5 -112t38.5 -164q0 -164 -110 -254q-59 -49 -130.5 -64t-241.5 -15h-311zM300 137h96q126 0 179 36q71 47 71 158q0 100 -60 151q-55 48 -180 48h-106v-124h152v-137h-152v-132z" />
<glyph unicode="&#xd1;" horiz-adv-x="937" d="M319 725q-1 67 25.5 101.5t77.5 34.5q28 0 71 -17q7 -3 36 -17q5 -3 21 -8q13 -5 21 -5q16 0 16 29v5h98q1 -7 1 -17q0 -57 -24 -88t-69 -31q-22 0 -38 5t-79 33q-25 12 -37 12q-20 0 -20 -24v-13h-100zM75 0v667h293l209 -319l91 -141q-6 119 -6 184v276h200v-667h-285 l-243 359q-6 8 -27 44l-19.5 32t-15.5 25q3 -78 3 -147v-313h-200z" />
<glyph unicode="&#xd2;" horiz-adv-x="929" d="M361 717l-119 133h256l82 -133h-219zM148 78q-101 92 -101 256q0 163 101 255q108 98 320 98q204 0 314 -98q101 -92 101 -261q0 -157 -101 -250q-108 -98 -311 -98q-112 0 -189 23.5t-134 74.5zM270 334q0 -104 52 -164t143 -60q90 0 142.5 59.5t52.5 160.5 q0 107 -51.5 167t-143.5 60q-91 0 -143 -59.5t-52 -163.5z" />
<glyph unicode="&#xd3;" horiz-adv-x="929" d="M360 716l79 134h258l-116 -134h-221zM148 78q-101 92 -101 256q0 163 101 255q108 98 320 98q204 0 314 -98q101 -92 101 -261q0 -157 -101 -250q-108 -98 -311 -98q-112 0 -189 23.5t-134 74.5zM270 334q0 -104 52 -164t143 -60q90 0 142.5 59.5t52.5 160.5 q0 107 -51.5 167t-143.5 60q-91 0 -143 -59.5t-52 -163.5z" />
<glyph unicode="&#xd4;" horiz-adv-x="929" d="M267 715l93 136h217l93 -136h-145l-57 72l-56 -72h-145zM148 78q-101 92 -101 256q0 163 101 255q108 98 320 98q204 0 314 -98q101 -92 101 -261q0 -157 -101 -250q-108 -98 -311 -98q-112 0 -189 23.5t-134 74.5zM270 334q0 -104 52 -164t143 -60q90 0 142.5 59.5 t52.5 160.5q0 107 -51.5 167t-143.5 60q-91 0 -143 -59.5t-52 -163.5z" />
<glyph unicode="&#xd5;" horiz-adv-x="929" d="M306 725q-1 67 25.5 101.5t77.5 34.5q29 0 71 -17q7 -3 36 -17q5 -3 21 -8q13 -5 21 -5q16 0 16 29v5h98q1 -7 1 -17q0 -57 -24 -88t-69 -31q-22 0 -38 5t-79 33q-25 12 -37 12q-20 0 -20 -24v-13h-100zM148 78q-101 92 -101 256q0 163 101 255q108 98 320 98 q204 0 314 -98q101 -92 101 -261q0 -157 -101 -250q-108 -98 -311 -98q-112 0 -189 23.5t-134 74.5zM270 334q0 -104 52 -164t143 -60q90 0 142.5 59.5t52.5 160.5q0 107 -51.5 167t-143.5 60q-91 0 -143 -59.5t-52 -163.5z" />
<glyph unicode="&#xd6;" horiz-adv-x="929" d="M511 717v110h169v-110h-169zM262 717v110h169v-110h-169zM148 78q-101 92 -101 256q0 163 101 255q108 98 320 98q204 0 314 -98q101 -92 101 -261q0 -157 -101 -250q-108 -98 -311 -98q-112 0 -189 23.5t-134 74.5zM270 334q0 -104 52 -164t143 -60q90 0 142.5 59.5 t52.5 160.5q0 107 -51.5 167t-143.5 60q-91 0 -143 -59.5t-52 -163.5z" />
<glyph unicode="&#xd7;" d="M109 161l-72 73l144 142l-141 140l70 69l139 -141l142 144l73 -72l-144 -142l142 -141l-69 -70l-141 143z" />
<glyph unicode="&#xd8;" horiz-adv-x="929" d="M132 -36l56 83q-141 100 -141 286q0 164 101 256q108 98 310 98q71 0 151 -14l71 103l118 -80l-53 -78q138 -100 138 -285q0 -163 -101 -255q-108 -98 -312 -98q-74 0 -146 13l-74 -109zM306 190l238 352q-38 15 -80 15q-90 0 -142 -60t-52 -163q0 -78 36 -144zM390 123 q39 -13 76 -13q90 0 142 59.5t52 162.5q0 79 -34 141z" />
<glyph unicode="&#xd9;" horiz-adv-x="899" d="M349 717l-119 133h256l82 -133h-219zM148 65q-39 35 -56 92t-17 151v359h223v-310q0 -87 8 -128.5t31 -70.5q37 -48 113 -48q78 0 119 47q23 28 30.5 66.5t7.5 133.5v310h217v-359q0 -169 -76 -240q-93 -88 -304 -88q-204 0 -296 85z" />
<glyph unicode="&#xda;" horiz-adv-x="899" d="M351 716l79 134h258l-116 -134h-221zM148 65q-39 35 -56 92t-17 151v359h223v-310q0 -87 8 -128.5t31 -70.5q37 -48 113 -48q78 0 119 47q23 28 30.5 66.5t7.5 133.5v310h217v-359q0 -169 -76 -240q-93 -88 -304 -88q-204 0 -296 85z" />
<glyph unicode="&#xdb;" horiz-adv-x="899" d="M255 715l93 136h217l93 -136h-145l-57 72l-56 -72h-145zM148 65q-39 35 -56 92t-17 151v359h223v-310q0 -87 8 -128.5t31 -70.5q37 -48 113 -48q78 0 119 47q23 28 30.5 66.5t7.5 133.5v310h217v-359q0 -169 -76 -240q-93 -88 -304 -88q-204 0 -296 85z" />
<glyph unicode="&#xdc;" horiz-adv-x="899" d="M496 717v110h169v-110h-169zM247 717v110h169v-110h-169zM148 65q-39 35 -56 92t-17 151v359h223v-310q0 -87 8 -128.5t31 -70.5q37 -48 113 -48q78 0 119 47q23 28 30.5 66.5t7.5 133.5v310h217v-359q0 -169 -76 -240q-93 -88 -304 -88q-204 0 -296 85z" />
<glyph unicode="&#xdd;" horiz-adv-x="864" d="M344 716l79 134h258l-116 -134h-221zM324 0v234l-324 433h272l177 -256l178 256h237l-323 -433v-234h-217z" />
<glyph unicode="&#xde;" horiz-adv-x="763" d="M75 0v667h210v-114h141q87 0 138 -10t90 -34q39 -25 61 -69t22 -97q0 -65 -29.5 -113.5t-81.5 -70.5q-71 -30 -222 -30h-119v-129h-210zM285 252h59q87 0 120 16q43 20 43 71q0 44 -35 65q-30 19 -106 19h-81v-171z" />
<glyph unicode="&#xdf;" horiz-adv-x="926" d="M75 0v353q0 101 12.5 151.5t47.5 88.5q87 93 313 93q162 0 250.5 -42t88.5 -119q0 -38 -23 -63t-74 -41q-42 -13 -57 -22q-23 -15 -23 -36q0 -32 79 -59l44 -15q81 -28 115.5 -62t34.5 -85q0 -35 -19 -66.5t-51 -51.5q-73 -44 -216 -44t-205 41q-23 16 -37 43.5t-14 55.5 q0 9 1 16h194l-1 -4q-2 -23 18.5 -39t52.5 -16q30 0 50 14.5t20 36.5q0 16 -14.5 27.5t-50.5 25.5l-75 28q-70 26 -101.5 58t-31.5 78q0 44 27 71t94 52q46 18 46 47q0 22 -32.5 36.5t-82.5 14.5q-100 0 -141 -52q-17 -22 -23 -55t-6 -106v-353h-210z" />
<glyph unicode="&#xe0;" horiz-adv-x="754" d="M270 534l-119 133h256l82 -133h-219zM57 130q0 101 124 140q84 25 245 25q23 0 41 -1q-2 50 -20.5 69.5t-62.5 19.5q-40 0 -60.5 -13.5t-24.5 -43.5h-209q7 84 75.5 119t226.5 35q145 0 211 -40q53 -33 67 -88q7 -25 7 -99v-173q0 -41 3 -80h-210l-2 29q-1 11 -1 30 q-31 -38 -77.5 -55t-122.5 -17q-210 0 -210 143zM264 138q0 -54 77 -54q82 0 112 47q14 21 14 74h-11q-9 1 -22 1q-85 0 -133 -17q-37 -13 -37 -51z" />
<glyph unicode="&#xe1;" horiz-adv-x="754" d="M281 533l79 134h258l-116 -134h-221zM57 130q0 101 124 140q84 25 245 25q23 0 41 -1q-2 50 -20.5 69.5t-62.5 19.5q-40 0 -60.5 -13.5t-24.5 -43.5h-209q7 84 75.5 119t226.5 35q145 0 211 -40q53 -33 67 -88q7 -25 7 -99v-173q0 -41 3 -80h-210l-2 29q-1 11 -1 30 q-31 -38 -77.5 -55t-122.5 -17q-210 0 -210 143zM264 138q0 -54 77 -54q82 0 112 47q14 21 14 74h-11q-9 1 -22 1q-85 0 -133 -17q-37 -13 -37 -51z" />
<glyph unicode="&#xe2;" horiz-adv-x="754" d="M185 531l93 136h217l93 -136h-145l-57 72l-56 -72h-145zM57 130q0 101 124 140q84 25 245 25q23 0 41 -1q-2 50 -20.5 69.5t-62.5 19.5q-40 0 -60.5 -13.5t-24.5 -43.5h-209q7 84 75.5 119t226.5 35q145 0 211 -40q53 -33 67 -88q7 -25 7 -99v-173q0 -41 3 -80h-210 l-2 29q-1 11 -1 30q-31 -38 -77.5 -55t-122.5 -17q-210 0 -210 143zM264 138q0 -54 77 -54q82 0 112 47q14 21 14 74h-11q-9 1 -22 1q-85 0 -133 -17q-37 -13 -37 -51z" />
<glyph unicode="&#xe3;" horiz-adv-x="754" d="M218 535q-1 65 24.5 99t75.5 34q35 0 108 -37q22 -10 36 -10q16 0 16 29v5h95q1 -7 1 -16q0 -56 -23.5 -86.5t-67.5 -30.5q-21 0 -37.5 5.5t-74.5 32.5q-26 11 -36 11q-20 0 -20 -23v-13h-97zM57 130q0 101 124 140q84 25 245 25q23 0 41 -1q-2 50 -20.5 69.5t-62.5 19.5 q-40 0 -60.5 -13.5t-24.5 -43.5h-209q7 84 75.5 119t226.5 35q145 0 211 -40q53 -33 67 -88q7 -25 7 -99v-173q0 -41 3 -80h-210l-2 29q-1 11 -1 30q-31 -38 -77.5 -55t-122.5 -17q-210 0 -210 143zM264 138q0 -54 77 -54q82 0 112 47q14 21 14 74h-11q-9 1 -22 1 q-85 0 -133 -17q-37 -13 -37 -51z" />
<glyph unicode="&#xe4;" horiz-adv-x="754" d="M427 530v143h178v-143h-178zM169 530v143h178v-143h-178zM57 130q0 101 124 140q84 25 245 25q23 0 41 -1q-2 50 -20.5 69.5t-62.5 19.5q-40 0 -60.5 -13.5t-24.5 -43.5h-209q7 84 75.5 119t226.5 35q145 0 211 -40q53 -33 67 -88q7 -25 7 -99v-173q0 -41 3 -80h-210 l-2 29q-1 11 -1 30q-31 -38 -77.5 -55t-122.5 -17q-210 0 -210 143zM264 138q0 -54 77 -54q82 0 112 47q14 21 14 74h-11q-9 1 -22 1q-85 0 -133 -17q-37 -13 -37 -51z" />
<glyph unicode="&#xe5;" horiz-adv-x="754" d="M389 520q-52 0 -82.5 23t-30.5 62t30.5 62t82.5 23q53 0 83.5 -23t30.5 -63q0 -38 -31 -61t-83 -23zM389 572q17 0 28.5 9.5t11.5 23.5q0 15 -11 24.5t-29 9.5q-17 0 -28 -9.5t-11 -23.5q0 -15 11 -24.5t28 -9.5zM57 130q0 101 124 140q84 25 245 25q23 0 41 -1 q-2 50 -20.5 69.5t-62.5 19.5q-40 0 -60.5 -13.5t-24.5 -43.5h-209q7 84 75.5 119t226.5 35q145 0 211 -40q53 -33 67 -88q7 -25 7 -99v-173q0 -41 3 -80h-210l-2 29q-1 11 -1 30q-31 -38 -77.5 -55t-122.5 -17q-210 0 -210 143zM264 138q0 -54 77 -54q82 0 112 47 q14 21 14 74h-11q-9 1 -22 1q-85 0 -133 -17q-37 -13 -37 -51z" />
<glyph unicode="&#xe6;" horiz-adv-x="1131" d="M57 126q0 54 38 88t118 52q92 21 254 21q-1 55 -19 76t-65 21q-76 0 -84 -58h-209q7 84 75.5 119t226.5 35q76 0 115.5 -7.5t87.5 -30.5q50 22 87.5 29.5t93.5 7.5q97 0 169.5 -29.5t106.5 -83.5q35 -54 35 -143q0 -18 -2 -33h-416q2 -60 27.5 -86.5t80.5 -26.5 q91 0 101 63h207q-7 -37 -23 -61.5t-47 -46.5q-76 -52 -243 -52q-98 0 -158.5 21.5t-97.5 69.5q-57 -51 -105 -67.5t-141 -16.5q-104 0 -158.5 35.5t-54.5 103.5zM669 287h216q-3 95 -108 95t-108 -95zM264 136q0 -52 77 -52q82 0 112 47q14 20 14 66q-6 0 -11 1h-24 q-81 0 -131 -15q-37 -12 -37 -47z" />
<glyph unicode="&#xe7;" horiz-adv-x="724" d="M138 34q-95 58 -95 193q0 123 87.5 188t253.5 65q144 0 223.5 -52t81.5 -147h-209q-14 92 -101 92q-55 0 -87 -39t-32 -104q0 -67 31.5 -105t87.5 -38q89 0 101 98h213q-3 -47 -16 -76.5t-42 -55.5q-82 -73 -258 -73q-153 0 -239 54zM153 -213l127 157h190l-84 -157h-233 z" />
<glyph unicode="&#xe8;" horiz-adv-x="710" d="M248 534l-119 133h256l82 -133h-219zM111 51q-68 65 -68 179q0 116 84 182.5t230 66.5q96 0 168.5 -29.5t106.5 -82.5q35 -56 35 -146q0 -20 -2 -38h-416q1 -47 16 -68q26 -38 91 -38q92 0 101 63h208q-7 -37 -23 -61.5t-47 -46.5q-76 -52 -244 -52q-163 0 -240 71z M248 280h217q-4 103 -109 103q-104 0 -108 -103z" />
<glyph unicode="&#xe9;" horiz-adv-x="710" d="M256 533l79 134h258l-116 -134h-221zM111 51q-68 65 -68 179q0 116 84 182.5t230 66.5q96 0 168.5 -29.5t106.5 -82.5q35 -56 35 -146q0 -20 -2 -38h-416q1 -47 16 -68q26 -38 91 -38q92 0 101 63h208q-7 -37 -23 -61.5t-47 -46.5q-76 -52 -244 -52q-163 0 -240 71z M248 280h217q-4 103 -109 103q-104 0 -108 -103z" />
<glyph unicode="&#xea;" horiz-adv-x="710" d="M163 531l93 136h217l93 -136h-145l-57 72l-56 -72h-145zM111 51q-68 65 -68 179q0 116 84 182.5t230 66.5q96 0 168.5 -29.5t106.5 -82.5q35 -56 35 -146q0 -20 -2 -38h-416q1 -47 16 -68q26 -38 91 -38q92 0 101 63h208q-7 -37 -23 -61.5t-47 -46.5q-76 -52 -244 -52 q-163 0 -240 71zM248 280h217q-4 103 -109 103q-104 0 -108 -103z" />
<glyph unicode="&#xeb;" horiz-adv-x="710" d="M402 530v143h178v-143h-178zM144 530v143h178v-143h-178zM111 51q-68 65 -68 179q0 116 84 182.5t230 66.5q96 0 168.5 -29.5t106.5 -82.5q35 -56 35 -146q0 -20 -2 -38h-416q1 -47 16 -68q26 -38 91 -38q92 0 101 63h208q-7 -37 -23 -61.5t-47 -46.5q-76 -52 -244 -52 q-163 0 -240 71zM248 280h217q-4 103 -109 103q-104 0 -108 -103z" />
<glyph unicode="&#xec;" horiz-adv-x="361" d="M70 534l-119 133h256l82 -133h-219zM75 0v460h210v-460h-210z" />
<glyph unicode="&#xed;" horiz-adv-x="361" d="M78 533l79 134h258l-116 -134h-221zM75 0v460h210v-460h-210z" />
<glyph unicode="&#xee;" horiz-adv-x="361" d="M-21 531l93 136h217l93 -136h-145l-57 72l-56 -72h-145zM75 0v460h210v-460h-210z" />
<glyph unicode="&#xef;" horiz-adv-x="361" d="M207 530v143h178v-143h-178zM-11 530v143h178v-143h-178zM75 0v460h210v-460h-210z" />
<glyph unicode="&#xf0;" horiz-adv-x="769" d="M43 234q0 115 73.5 180.5t202.5 65.5q72 0 137 -26q-84 67 -112 87t-102 66l77 93q114 -72 174.5 -117t104.5 -90q128 -129 128 -264q0 -117 -90.5 -183t-251.5 -66q-162 0 -251.5 66.5t-89.5 187.5zM260 230q0 -68 33 -105.5t92 -37.5q58 0 91 37.5t33 103.5 q0 70 -32.5 107.5t-92.5 37.5q-59 0 -91.5 -38t-32.5 -105z" />
<glyph unicode="&#xf1;" horiz-adv-x="764" d="M222 535q-1 65 24.5 99t75.5 34q35 0 108 -37q22 -10 36 -10q16 0 16 29v5h95q1 -7 1 -16q0 -56 -23.5 -86.5t-67.5 -30.5q-21 0 -37.5 5.5t-74.5 32.5q-26 11 -36 11q-20 0 -20 -23v-13h-97zM78 0v317q0 33 -3 143h213q0 -20 1 -23q0 -12 1 -24l1 -20q74 80 183 80 q108 0 167 -62q29 -32 39 -71t10 -122v-218h-210v216q0 73 -15 99q-22 38 -73 38q-61 0 -85 -55q-19 -41 -19 -133v-165h-210z" />
<glyph unicode="&#xf2;" horiz-adv-x="769" d="M281 534l-119 133h256l82 -133h-219zM43 230q0 117 90.5 183.5t249.5 66.5q164 0 253.5 -66.5t89.5 -187.5q0 -114 -91.5 -180t-250.5 -66q-160 0 -250.5 66t-90.5 184zM260 230q0 -68 33 -105.5t92 -37.5q58 0 91 37.5t33 103.5q0 70 -32.5 107.5t-92.5 37.5 q-59 0 -91.5 -38t-32.5 -105z" />
<glyph unicode="&#xf3;" horiz-adv-x="769" d="M286 533l79 134h258l-116 -134h-221zM43 230q0 117 90.5 183.5t249.5 66.5q164 0 253.5 -66.5t89.5 -187.5q0 -114 -91.5 -180t-250.5 -66q-160 0 -250.5 66t-90.5 184zM260 230q0 -68 33 -105.5t92 -37.5q58 0 91 37.5t33 103.5q0 70 -32.5 107.5t-92.5 37.5 q-59 0 -91.5 -38t-32.5 -105z" />
<glyph unicode="&#xf4;" horiz-adv-x="769" d="M190 531l93 136h217l93 -136h-145l-57 72l-56 -72h-145zM43 230q0 117 90.5 183.5t249.5 66.5q164 0 253.5 -66.5t89.5 -187.5q0 -114 -91.5 -180t-250.5 -66q-160 0 -250.5 66t-90.5 184zM260 230q0 -68 33 -105.5t92 -37.5q58 0 91 37.5t33 103.5q0 70 -32.5 107.5 t-92.5 37.5q-59 0 -91.5 -38t-32.5 -105z" />
<glyph unicode="&#xf5;" horiz-adv-x="769" d="M227 535q-1 65 24.5 99t75.5 34q30 0 69 -18q7 -2 34 -16q8 -4 21 -8q13 -5 20 -5t12 8.5t4 20.5q0 3 -1 5h96q1 -7 1 -16q0 -117 -91 -117q-22 0 -37.5 5.5t-75.5 32.5q-26 11 -36 11q-20 0 -20 -23q0 -7 1 -13h-97zM43 230q0 117 90.5 183.5t249.5 66.5 q164 0 253.5 -66.5t89.5 -187.5q0 -114 -91.5 -180t-250.5 -66q-160 0 -250.5 66t-90.5 184zM260 230q0 -68 33 -105.5t92 -37.5q58 0 91 37.5t33 103.5q0 70 -32.5 107.5t-92.5 37.5q-59 0 -91.5 -38t-32.5 -105z" />
<glyph unicode="&#xf6;" horiz-adv-x="769" d="M431 530v143h178v-143h-178zM173 530v143h178v-143h-178zM43 230q0 117 90.5 183.5t249.5 66.5q164 0 253.5 -66.5t89.5 -187.5q0 -114 -91.5 -180t-250.5 -66q-160 0 -250.5 66t-90.5 184zM260 230q0 -68 33 -105.5t92 -37.5q58 0 91 37.5t33 103.5q0 70 -32.5 107.5 t-92.5 37.5q-59 0 -91.5 -38t-32.5 -105z" />
<glyph unicode="&#xf7;" d="M250 466q-29 0 -50 21t-21 50t21 50t51 21q29 0 49.5 -21t20.5 -50t-21 -50t-50 -21zM-2 325v98h504v-98h-504zM179 211q0 29 21 50t51 21q29 0 49.5 -21t20.5 -50t-21 -50t-50 -21t-50 21t-21 50z" />
<glyph unicode="&#xf8;" horiz-adv-x="769" d="M99 -55l59 85q-115 68 -115 200q0 118 91 184t252 66q42 0 83 -6l89 126l112 -78l-63 -90q119 -68 119 -202q0 -117 -90.5 -183.5t-250.5 -66.5q-44 0 -90 6l-84 -120zM271 159l148 210q-21 4 -34 4q-59 0 -92 -37.5t-33 -104.5q0 -39 11 -72zM346 92q22 -5 38 -5 q59 0 92 37.5t33 105.5q0 37 -13 75z" />
<glyph unicode="&#xf9;" horiz-adv-x="754" d="M266 534l-119 133h256l82 -133h-219zM122 35q-29 25 -39 61.5t-10 113.5v250h210v-221q0 -66 2 -81.5t12 -29.5q24 -34 76 -34q51 0 78 49q17 31 17 106v211h210v-377q0 -47 3 -83h-201q-1 10 -1 20l-2 24q0 11 -1 23q-63 -80 -194 -80q-104 0 -160 48z" />
<glyph unicode="&#xfa;" horiz-adv-x="754" d="M268 533l79 134h258l-116 -134h-221zM122 35q-29 25 -39 61.5t-10 113.5v250h210v-221q0 -66 2 -81.5t12 -29.5q24 -34 76 -34q51 0 78 49q17 31 17 106v211h210v-377q0 -47 3 -83h-201q-1 10 -1 20l-2 24q0 11 -1 23q-63 -80 -194 -80q-104 0 -160 48z" />
<glyph unicode="&#xfb;" horiz-adv-x="754" d="M182 531l93 136h217l93 -136h-145l-57 72l-56 -72h-145zM122 35q-29 25 -39 61.5t-10 113.5v250h210v-221q0 -66 2 -81.5t12 -29.5q24 -34 76 -34q51 0 78 49q17 31 17 106v211h210v-377q0 -47 3 -83h-201q-1 10 -1 20l-2 24q0 11 -1 23q-63 -80 -194 -80q-104 0 -160 48 z" />
<glyph unicode="&#xfc;" horiz-adv-x="754" d="M423 530v143h178v-143h-178zM165 530v143h178v-143h-178zM122 35q-29 25 -39 61.5t-10 113.5v250h210v-221q0 -66 2 -81.5t12 -29.5q24 -34 76 -34q51 0 78 49q17 31 17 106v211h210v-377q0 -47 3 -83h-201q-1 10 -1 20l-2 24q0 11 -1 23q-63 -80 -194 -80 q-104 0 -160 48z" />
<glyph unicode="&#xfd;" horiz-adv-x="688" d="M256 533l79 134h258l-116 -134h-221zM171 -173l85 170l-249 463h224l127 -289l125 289h199l-243 -490l-55 -143h-213z" />
<glyph unicode="&#xfe;" horiz-adv-x="774" d="M75 -173v840h210v-270q43 42 86 59t103 17q119 0 188 -64.5t69 -174.5q0 -115 -72 -184.5t-192 -69.5q-60 0 -109 20.5t-73 55.5v-229h-210zM285 221q0 -59 30.5 -93.5t82.5 -34.5t84 38.5t32 100.5q0 58 -30 93t-80 35q-53 0 -86 -39t-33 -100z" />
<glyph unicode="&#xff;" horiz-adv-x="688" d="M398 530v143h178v-143h-178zM140 530v143h178v-143h-178zM171 -173l85 170l-249 463h224l127 -289l125 289h199l-243 -490l-55 -143h-213z" />
<glyph unicode="&#x152;" horiz-adv-x="1102" d="M123 101q-76 82 -76 219q0 82 29 152.5t81 113.5q100 84 290 81l65 -1l65 1h474v-133h-321v-128h295v-133h-295v-136h324v-137h-437l-93 1l-104 -1q-105 -1 -176 23.5t-121 77.5zM314 184q57 -54 169 -54q19 0 47 3v402q-38 2 -46 2q-115 0 -170 -55q-57 -57 -57 -149 q0 -94 57 -149z" />
<glyph unicode="&#x153;" horiz-adv-x="1176" d="M43 231q0 117 90.5 183t252.5 66q131 0 229 -53q86 52 208 52q96 0 168.5 -29.5t106.5 -82.5q35 -56 35 -146q0 -20 -2 -38h-416q1 -47 16 -68q26 -38 91 -38q92 0 101 63h208q-7 -37 -23 -61.5t-47 -46.5q-76 -52 -241 -52q-135 0 -214 48q-97 -48 -220 -48 q-162 0 -252.5 66t-90.5 185zM714 280h217q-4 103 -108 103q-105 0 -109 -103zM260 231q0 -68 33 -106t92 -38q58 0 91 37.5t33 104.5q0 70 -32.5 107.5t-92.5 37.5q-59 0 -91.5 -38t-32.5 -105z" />
<glyph unicode="&#x178;" horiz-adv-x="864" d="M485 717v110h169v-110h-169zM236 717v110h169v-110h-169zM324 0v234l-324 433h272l177 -256l178 256h237l-323 -433v-234h-217z" />
<glyph unicode="&#x2c6;" d="M52 531l93 136h217l93 -136h-145l-57 72l-56 -72h-145z" />
<glyph unicode="&#x2dc;" d="M59 535q-1 65 24.5 99t75.5 34q35 0 108 -37q23 -10 36 -10q16 0 16 29v5h95q1 -7 1 -16q0 -56 -23.5 -86.5t-67.5 -30.5q-21 0 -37.5 5.5t-74.5 32.5q-26 11 -36 11q-20 0 -20 -23v-13h-97z" />
<glyph unicode="&#x2000;" horiz-adv-x="430" />
<glyph unicode="&#x2001;" horiz-adv-x="861" />
<glyph unicode="&#x2002;" horiz-adv-x="430" />
<glyph unicode="&#x2003;" horiz-adv-x="861" />
<glyph unicode="&#x2004;" horiz-adv-x="287" />
<glyph unicode="&#x2005;" horiz-adv-x="215" />
<glyph unicode="&#x2006;" horiz-adv-x="143" />
<glyph unicode="&#x2007;" horiz-adv-x="143" />
<glyph unicode="&#x2008;" horiz-adv-x="107" />
<glyph unicode="&#x2009;" horiz-adv-x="172" />
<glyph unicode="&#x200a;" horiz-adv-x="47" />
<glyph unicode="&#x2010;" horiz-adv-x="338" d="M0 189v137h338v-137h-338z" />
<glyph unicode="&#x2011;" horiz-adv-x="338" d="M0 189v137h338v-137h-338z" />
<glyph unicode="&#x2013;" horiz-adv-x="767" d="M67 189v137h633v-137h-633z" />
<glyph unicode="&#x2014;" horiz-adv-x="977" d="M0 189v137h977v-137h-977z" />
<glyph unicode="&#x2018;" horiz-adv-x="385" d="M40 419l135 248h157l-72 -248h-220z" />
<glyph unicode="&#x2019;" horiz-adv-x="385" d="M53 419l72 248h220l-136 -248h-156z" />
<glyph unicode="&#x201a;" horiz-adv-x="392" d="M53 -100l73 253h226l-138 -253h-161z" />
<glyph unicode="&#x201c;" horiz-adv-x="653" d="M308 419l135 248h156l-71 -248h-220zM40 419l135 248h157l-72 -248h-220z" />
<glyph unicode="&#x201d;" horiz-adv-x="653" d="M321 419l72 248h219l-135 -248h-156zM53 419l72 248h220l-136 -248h-156z" />
<glyph unicode="&#x201e;" horiz-adv-x="653" d="M321 -100l72 248h219l-135 -248h-156zM53 -100l72 248h220l-136 -248h-156z" />
<glyph unicode="&#x2022;" horiz-adv-x="667" d="M335 200q-57 0 -98 40.5t-41 97.5q0 58 41 98.5t100 40.5q55 0 95.5 -41t40.5 -97q0 -58 -40.5 -98.5t-97.5 -40.5z" />
<glyph unicode="&#x2026;" horiz-adv-x="1000" d="M733 0v152h201v-152h-201zM399 0v152h201v-152h-201zM66 0v152h201v-152h-201z" />
<glyph unicode="&#x202f;" horiz-adv-x="172" />
<glyph unicode="&#x2039;" horiz-adv-x="429" d="M30 230l214 230h145l-170 -230l170 -230h-145z" />
<glyph unicode="&#x203a;" horiz-adv-x="429" d="M40 0l169 230l-169 230h145l214 -230l-214 -230h-145z" />
<glyph unicode="&#x205f;" horiz-adv-x="215" />
<glyph unicode="&#x20ac;" horiz-adv-x="1002" d="M241 91q-67 71 -78 189h-118l56 110h65q17 111 72 174q50 59 142 91t209 32q105 0 185.5 -27t124.5 -77q47 -53 47 -134h-237q-2 50 -38.5 77.5t-100.5 27.5q-148 0 -174 -164h223l-56 -110h-167q25 -167 175 -167q68 0 109 31.5t41 83.5h237q-2 -63 -25.5 -105.5 t-73.5 -74.5q-49 -32 -126 -50.5t-163 -18.5q-223 0 -329 112z" />
<glyph unicode="&#x2122;" horiz-adv-x="1197" d="M531 267v400h221l55 -143q17 -45 33 -99q15 59 30 100l53 142h223v-400h-142v173q0 82 3 125q-13 -42 -45 -126l-66 -172h-126l-70 180q-18 45 -41 120q4 -69 4 -121v-179h-132zM169 267v313h-157v87h456v-87h-157v-313h-142z" />
</font>
</defs>
</svg>
