<?xml version="1.0" standalone="no"?>
<!DOCTYPE svg PUBLIC "-//W3C//DTD SVG 1.1//EN" "http://www.w3.org/Graphics/SVG/1.1/DTD/svg11.dtd" >
<svg xmlns="http://www.w3.org/2000/svg">
<metadata>
This is a custom SVG webfont generated by Fontspring.
Designer    : FontSite.com
Foundry URL : http://www.fontsite.com
</metadata>
<defs>
<font id="webfont" horiz-adv-x="628" >
<font-face units-per-em="1000" ascent="800" descent="-200" />
<missing-glyph horiz-adv-x="250" />
<glyph unicode=" "  horiz-adv-x="250" />
<glyph unicode="&#x09;" horiz-adv-x="250" />
<glyph unicode="&#xa0;" horiz-adv-x="250" />
<glyph unicode="!" horiz-adv-x="333" d="M87 164l113 503h200l-189 -503h-124zM23 0l36 118h157l-36 -118h-157z" />
<glyph unicode="&#x22;" horiz-adv-x="504" d="M399 400l-35 267h200l-35 -267h-130zM162 400l-35 267h200l-35 -267h-130z" />
<glyph unicode="#" horiz-adv-x="659" d="M97 43l73 163h-100l36 81h100l39 88h-100l37 81h99l67 149h84l-67 -149h93l67 149h83l-66 -149h109l-37 -81h-109l-39 -88h109l-36 -81h-109l-72 -163h-84l72 163h-93l-72 -163h-84zM290 287h93l39 88h-93z" />
<glyph unicode="$" d="M130 -2q-64 21 -99 58.5t-35 86.5q0 25 11 57h180q-7 -17 -7 -26q0 -32 30.5 -51.5t82.5 -19.5q57 0 92.5 22.5t35.5 58.5q0 25 -22 43.5t-91 52.5q-72 34 -95.5 47t-45.5 31q-59 46 -59 120q0 90 79.5 146.5t209.5 59.5l31 99h101l-32 -106q83 -14 128.5 -55t45.5 -103 q0 -17 -5 -39h-181q2 9 2 17q0 67 -90 67q-46 0 -75.5 -19.5t-29.5 -50.5q0 -32 42 -58q6 -4 20 -11l56.5 -28l94.5 -48q99 -49 99 -144q0 -53 -31 -101t-84 -77q-73 -39 -205 -44l-33 -108h-101l35 113q-27 1 -55 10z" />
<glyph unicode="%" horiz-adv-x="806" d="M216 325q-110 0 -110 108q0 57 28 127q47 116 154 116q114 0 114 -113q0 -67 -38 -143q-26 -50 -61 -72.5t-87 -22.5zM188 0l421 667h72l-421 -667h-72zM226 383q35 0 65 78q24 66 24 110q0 46 -32 46q-37 0 -60 -58q-31 -77 -31 -126q0 -50 34 -50zM465 100q0 56 28 126 q47 116 155 116q56 0 85 -28.5t29 -83.5q0 -69 -38 -143q-26 -50 -61 -72.5t-87 -22.5q-111 0 -111 108zM551 100q0 -50 34 -50q19 0 34 18t31 60q25 68 25 110q0 45 -32 45q-37 0 -61 -58q-31 -73 -31 -125z" />
<glyph unicode="&#x26;" horiz-adv-x="757" d="M129 19q-104 51 -104 148q0 105 108 161q51 25 139 40q-61 11 -87 34q-35 30 -35 83q0 83 78.5 139t195.5 56q53 0 105 -15l-38 -127q-42 7 -63 7q-49 0 -77.5 -20.5t-28.5 -55.5q0 -29 25.5 -42t83.5 -13h77l34 113h164l-35 -113h126l-40 -130h-126l-83 -272 q-111 -26 -222 -26q-130 0 -197 33zM192 188q0 -83 128 -83q52 0 100 21l48 158h-91q-122 0 -160 -35q-25 -23 -25 -61z" />
<glyph unicode="'" horiz-adv-x="273" d="M183 400l-35 267h206l-35 -267h-136z" />
<glyph unicode="(" horiz-adv-x="347" d="M58 86q0 134 19.5 223t70.5 187q53 101 146 224h140q-124 -177 -179 -329q-72 -197 -72 -460q0 -17 1 -30h-115q-11 73 -11 185z" />
<glyph unicode=")" horiz-adv-x="347" d="M-37 -99q121 170 179 329q34 90 53 212.5t19 243.5q0 19 -1 34h115q11 -69 11 -184q0 -134 -19.5 -223.5t-70.5 -187.5q-53 -101 -146 -224h-140z" />
<glyph unicode="*" horiz-adv-x="465" d="M190 343l-52 69l100 76l-103 73l50 71l103 -72l37 120l83 -25l-37 -121l126 3l2 -88l-126 -2l41 -119l-82 -28l-41 119z" />
<glyph unicode="+" d="M72 293v99h229v221h97v-221h227v-99h-227v-232h-97v232h-229z" />
<glyph unicode="," horiz-adv-x="273" d="M51 -83h-132l119 206h163z" />
<glyph unicode="-" horiz-adv-x="265" d="M-12 188l33 108h265l-33 -108h-265z" />
<glyph unicode="." horiz-adv-x="273" d="M-15 0l38 123h163l-38 -123h-163z" />
<glyph unicode="/" horiz-adv-x="423" d="M40 -79h-111l492 779h112z" />
<glyph unicode="0" d="M52 197q0 113 56 255q91 232 305 232q110 0 167 -56.5t57 -166.5q0 -62 -21 -142t-55 -146q-52 -101 -120.5 -145.5t-171.5 -44.5q-217 0 -217 214zM216 198q0 -49 19 -77t53 -28q40 0 71.5 38t62.5 122q50 134 50 224q0 44 -18.5 70t-49.5 26q-77 0 -125 -120 q-63 -157 -63 -255z" />
<glyph unicode="1" d="M200 0l156 510q-40 -33 -93.5 -57.5t-97.5 -30.5l46 150q51 9 108.5 35.5t99.5 59.5h156l-204 -667h-171z" />
<glyph unicode="2" d="M10 0l31 125q21 14 22 15l98 62q59 37 136 100t105 97q51 60 51 112q0 28 -21 45.5t-55 17.5q-40 0 -66 -23.5t-23 -59.5l1 -12h-167q4 101 72.5 153t196.5 52q106 0 171 -46.5t65 -121.5q0 -58 -34.5 -113t-112.5 -119q-53 -44 -90 -69.5t-117 -73.5q-1 -1 -4.5 -3 t-9 -5.5l-11.5 -7.5h310l-38 -125h-510z" />
<glyph unicode="3" d="M58 62q-25 31 -25 81q0 22 8 47h159q-4 -16 -4 -24q0 -31 26 -52t65 -21q49 0 83 31.5t34 76.5q0 43 -31.5 66.5t-88.5 23.5q-14 0 -27 -1l32 108q21 -4 38 -4q63 0 103.5 30t40.5 78q0 31 -23 51.5t-58 20.5q-41 0 -68.5 -25t-31.5 -65h-159q11 83 59 128q74 72 208 72 q105 0 167 -46t62 -123q0 -71 -54 -120t-142 -57q42 -11 60 -19q35 -15 55.5 -48.5t20.5 -73.5q0 -91 -85.5 -152.5t-212.5 -61.5q-148 0 -211 79z" />
<glyph unicode="4" d="M5 135l50 162l353 370h221l-130 -426h120l-33 -106h-119l-41 -135h-157l41 135h-305zM153 241h190l87 285z" />
<glyph unicode="5" d="M78 60q-29 40 -29 89q0 17 5 36h168q-3 -13 -3 -19q0 -33 19.5 -53t53.5 -20q60 0 97 64q30 51 30 103q0 36 -20.5 57.5t-54.5 21.5q-60 0 -96 -67h-167l120 395h446l-38 -125h-294l-50 -162q59 69 155 69q76 0 122.5 -49t46.5 -128q0 -60 -25.5 -119t-68.5 -97 q-81 -73 -221 -73q-141 0 -196 77z" />
<glyph unicode="6" d="M112 48q-52 58 -52 159q0 67 26.5 155t67.5 159q50 85 121.5 124t177.5 39q94 0 146 -36t52 -100q0 -10 -3 -33h-153v13q0 23 -17 37.5t-45 14.5q-74 0 -124 -88q-19 -34 -39 -99q56 46 135 46q86 0 136 -46t50 -125q0 -56 -23 -114.5t-60 -98.5q-69 -72 -206 -72 q-133 0 -190 65zM223 176q0 -43 20.5 -66.5t57.5 -23.5q61 0 92 56q28 53 28 106q0 35 -22 58t-55 23q-65 0 -102 -74q-19 -38 -19 -79z" />
<glyph unicode="7" d="M99 0l355 542h-322l38 125h494l-39 -125l-326 -542h-200z" />
<glyph unicode="8" d="M28 161q0 41 19 80.5t52 65.5q25 20 54.5 31.5t81.5 22.5q-92 38 -92 130q0 38 20.5 76t52.5 61q80 56 207 56q100 0 161 -45t61 -118q0 -44 -25 -83.5t-69 -63.5q-33 -18 -81 -28q61 -22 87 -55t26 -86q0 -97 -85.5 -159.5t-219.5 -62.5q-113 0 -181.5 49t-68.5 129z M383 404q50 0 82 27t32 69q0 34 -25.5 54t-67.5 20q-47 0 -80 -27t-33 -66q0 -35 25 -56t67 -21zM183 186q0 -43 29 -68t79 -25q61 0 99 31.5t38 82.5q0 42 -29 65.5t-81 23.5q-61 0 -98 -30t-37 -80z" />
<glyph unicode="9" d="M42 122q0 23 8 50h156q-1 -12 -1 -21q0 -29 17 -46.5t46 -17.5q58 0 98.5 55t56.5 154q-63 -42 -137 -42q-83 0 -132.5 46.5t-49.5 123.5q0 115 79 187.5t203 72.5q132 0 194 -76q46 -56 46 -149q0 -79 -26 -171t-67 -161q-86 -144 -289 -144q-93 0 -147.5 37.5 t-54.5 101.5zM352 352q45 0 77.5 41t32.5 98q0 40 -22 64.5t-57 24.5q-44 0 -76.5 -40.5t-32.5 -95.5q0 -43 21 -67.5t57 -24.5z" />
<glyph unicode=":" horiz-adv-x="273" d="M88 337l38 123h163l-38 -123h-163zM-15 0l38 123h163l-38 -123h-163z" />
<glyph unicode=";" horiz-adv-x="273" d="M85 337l38 123h164l-38 -123h-164zM51 -83h-132l119 206h163z" />
<glyph unicode="&#x3c;" horiz-adv-x="500" d="M33 262v153l433 238v-182l-239 -133l238 -133l1 -182z" />
<glyph unicode="=" d="M68 363v99h552v-99h-552zM68 194v98h552v-98h-552z" />
<glyph unicode="&#x3e;" horiz-adv-x="500" d="M33 23v183l239 133l-238 133l-1 181l433 -238v-153z" />
<glyph unicode="?" horiz-adv-x="492" d="M112 159l32 104q6 20 11 25t29 17q87 40 138.5 93t51.5 101q0 39 -30.5 60t-86.5 21q-59 0 -126 -20l32 106q72 20 156 20q102 0 163 -46.5t61 -125.5q0 -96 -115 -185q-39 -31 -136 -87q-15 -8 -19 -23q0 -3 -1 -5q-2 -3 -2 -5v-2l-15 -48h-143zM53 0l35 113h163 l-35 -113h-163z" />
<glyph unicode="@" horiz-adv-x="845" d="M75 275q0 153 110 263t271 110q142 0 237.5 -84.5t95.5 -210.5q0 -112 -77 -194t-181 -82q-68 0 -71 53q-36 -29 -60.5 -40t-53.5 -11q-49 0 -78.5 34t-29.5 90q0 106 66 190t149 84q37 0 72 -31l5 14h113l-94 -245q-11 -28 -11 -41q0 -7 7 -12t16 -5q55 0 109 73 q41 57 41 123q0 101 -79 159q-81 62 -180 62q-122 0 -210.5 -89t-88.5 -213q0 -126 89 -211.5t220 -85.5q104 0 185 56q35 24 73 78h67q-23 -54 -44 -82.5t-57 -54.5q-95 -72 -229 -72q-163 0 -272.5 108t-109.5 267zM356 179q0 -9 5.5 -15.5t12.5 -6.5q17 0 39 34 q24 35 47 93t28 93q2 18 -15 20q-28 3 -66 -66q-21 -38 -36 -83t-15 -69z" />
<glyph unicode="A" horiz-adv-x="739" d="M-46 0l460 667h200l57 -667h-178l-6 133h-259l-89 -133h-185zM304 246h177l-11 256z" />
<glyph unicode="B" horiz-adv-x="683" d="M-1 0l204 667h242q111 0 167 -21q37 -13 58 -44.5t21 -72.5q0 -69 -52.5 -119t-141.5 -65q68 -9 100.5 -41.5t32.5 -93.5q0 -102 -82 -156t-237 -54h-312zM299 404h71q55 0 91 14q23 10 38 31t15 44q0 26 -17.5 40t-48.5 14h-105zM216 130h72q55 0 81.5 5.5t48.5 22.5 q36 27 36 67q0 34 -25 53q-18 13 -56 13h-108z" />
<glyph unicode="C" horiz-adv-x="706" d="M129 46q-67 62 -67 170q0 90 36.5 187.5t94.5 164.5q102 116 296 116q153 0 213 -75q35 -44 35 -102q0 -19 -7 -53h-177q8 23 8 36q0 33 -24 53.5t-62 20.5q-44 0 -85 -25.5t-69 -70.5q-34 -55 -55 -124t-21 -124q0 -52 28.5 -84.5t74.5 -32.5q43 0 76.5 24.5t49.5 67.5 h191q-28 -99 -117.5 -155.5t-217.5 -56.5q-133 0 -201 63z" />
<glyph unicode="D" horiz-adv-x="757" d="M-1 0l204 667h264q133 0 200 -45q41 -29 64 -78t23 -110q0 -72 -23 -147.5t-63 -135.5q-44 -65 -102 -96t-157 -44q-93 -11 -168 -11h-242zM223 120h51q139 0 197 51q42 35 71 106.5t29 139.5q0 61 -36 100q-30 30 -89 30h-93z" />
<glyph unicode="E" horiz-adv-x="594" d="M-1 0l204 667h473l-37 -120h-296l-45 -147h284l-37 -120h-283l-49 -160h311l-37 -120h-488z" />
<glyph unicode="F" horiz-adv-x="566" d="M-1 0l204 667h466l-37 -120h-279l-50 -165h270l-36 -120h-271l-80 -262h-187z" />
<glyph unicode="G" horiz-adv-x="741" d="M63 231q0 74 28 156.5t75 147.5q108 149 329 149q137 0 204 -53q64 -52 64 -120q0 -16 -8 -51h-166q6 16 6 30q0 35 -27 54.5t-74 19.5q-133 0 -202 -149q-46 -98 -46 -172q0 -140 151 -140q49 0 91 14l39 128h-146l35 113h305l-103 -340q-122 -35 -261 -35 q-141 0 -217.5 64.5t-76.5 183.5z" />
<glyph unicode="H" horiz-adv-x="746" d="M-1 0l204 667h187l-79 -257h236l78 257h187l-204 -667h-187l86 280h-236l-85 -280h-187z" />
<glyph unicode="I" horiz-adv-x="324" d="M-1 0l204 667h187l-204 -667h-187z" />
<glyph unicode="J" horiz-adv-x="602" d="M-12 142q0 30 11 68h194q-10 -31 -10 -46q0 -25 16.5 -40t43.5 -15q35 0 58.5 24t39.5 77l140 457h186l-134 -442q-41 -136 -112 -189t-211 -53q-222 0 -222 159z" />
<glyph unicode="K" horiz-adv-x="698" d="M429 0l-121 374l283 293h222l-314 -301l136 -366h-206zM-1 0l204 667h187l-204 -667h-187z" />
<glyph unicode="L" horiz-adv-x="551" d="M-1 0l204 667h190l-167 -547h288l-37 -120h-478z" />
<glyph unicode="M" horiz-adv-x="1004" d="M-1 0l204 667h279l18 -398l262 398h287l-183 -667h-184l139 496l-329 -496h-149l-18 541l-166 -541h-160z" />
<glyph unicode="N" horiz-adv-x="737" d="M-1 0l204 667h214l94 -430l132 430h160l-204 -667h-207l-97 446l-136 -446h-160z" />
<glyph unicode="O" horiz-adv-x="765" d="M62 227q0 77 32.5 167.5t83.5 154.5q106 135 308 135q129 0 203.5 -65t74.5 -177q0 -82 -31 -170t-84 -156q-104 -133 -301 -133q-137 0 -211.5 63.5t-74.5 180.5zM245 239q0 -65 29.5 -100.5t82.5 -35.5q101 0 161 110q28 52 45.5 113t17.5 108q0 59 -31.5 94.5 t-83.5 35.5q-97 0 -164 -125q-25 -46 -41 -102t-16 -98z" />
<glyph unicode="P" horiz-adv-x="671" d="M-1 0l204 667h290q88 0 137 -25q36 -19 56.5 -57.5t20.5 -87.5q0 -78 -45.5 -144t-118.5 -93q-42 -16 -77 -20.5t-116 -4.5h-92l-72 -235h-187zM295 355h34q80 0 115 12q35 13 57.5 44t22.5 66q0 70 -94 70h-77z" />
<glyph unicode="Q" horiz-adv-x="818" d="M144 42q-83 67 -83 187q0 67 26 148t68 144q53 79 136.5 121t187.5 42q72 0 133.5 -22.5t99.5 -62.5q57 -61 57 -161q0 -77 -32.5 -161t-82.5 -136q-25 -27 -67 -54q74 21 136 21h81l-33 -108h-165q-99 0 -150 -8q-64 -9 -105 -9q-134 0 -207 59zM244 232q0 -61 31 -95 t87 -34q98 0 157 105q29 54 48 117.5t19 111.5q0 59 -31.5 93t-85.5 34q-112 0 -179 -150q-46 -100 -46 -182z" />
<glyph unicode="R" horiz-adv-x="696" d="M-1 0l204 667h280q89 0 147 -24q36 -15 57 -47.5t21 -73.5q0 -57 -34 -105.5t-92 -74.5q-36 -17 -84 -24q55 -8 76 -35q19 -22 19 -89v-20l-7 -174h-185l9 193v12q0 56 -68 56h-76l-80 -261h-187zM302 381h89q59 0 96.5 28.5t37.5 72.5q0 65 -87 65h-85z" />
<glyph unicode="S" horiz-adv-x="668" d="M83 34q-64 46 -64 111q0 23 11 55h180q-8 -16 -8 -26q0 -32 31 -51.5t83 -19.5q57 0 92.5 22.5t35.5 59.5q0 24 -22 42.5t-91 52.5q-72 34 -95.5 47t-45.5 31q-59 46 -59 120q0 92 84 149t218 57q119 0 189.5 -45t70.5 -121q0 -13 -4 -38h-181q0 3 1 8.5t1 8.5 q0 67 -90 67q-46 0 -75.5 -19.5t-29.5 -50.5q0 -32 42 -58q6 -4 20 -11l55.5 -27.5l95.5 -48.5q99 -51 99 -144q0 -75 -55 -132q-87 -90 -276 -90q-142 0 -213 51z" />
<glyph unicode="T" horiz-adv-x="613" d="M153 0l168 547h-220l37 120h598l-37 -120h-192l-167 -547h-187z" />
<glyph unicode="U" horiz-adv-x="737" d="M67 180q0 41 23 117l113 370h186l-127 -418q-12 -41 -12 -62q0 -38 25.5 -61t66.5 -23q70 0 107 52q19 29 42 102l125 410h187l-130 -426q-41 -132 -124.5 -195t-219.5 -63q-122 0 -192 53t-70 144z" />
<glyph unicode="V" horiz-adv-x="704" d="M218 0l-97 667h186l58 -443l258 443h190l-411 -667h-184z" />
<glyph unicode="W" horiz-adv-x="1051" d="M183 0l-62 667h178l34 -404l211 404h189l38 -412l206 412h177l-342 -667h-183l-41 416l-225 -416h-180z" />
<glyph unicode="X" horiz-adv-x="746" d="M-14 0l319 355l-167 312h203l94 -184l156 184h225l-308 -340l176 -327h-200l-107 203l-172 -203h-219z" />
<glyph unicode="Y" horiz-adv-x="684" d="M176 0l72 237l-130 430h187l72 -291l227 291h204l-375 -438l-71 -229h-186z" />
<glyph unicode="Z" horiz-adv-x="705" d="M9 0l31 162l450 375h-350l40 130h574l-27 -155l-456 -382h370l-40 -130h-592z" />
<glyph unicode="[" horiz-adv-x="380" d="M-31 -79l238 779h247l-34 -112h-104l-169 -555h103l-34 -112h-247z" />
<glyph unicode="\" horiz-adv-x="723" d="M551 -79l-411 779h109l410 -779h-108z" />
<glyph unicode="]" horiz-adv-x="380" d="M10 33h104l169 555h-103l34 112h247l-238 -779h-247z" />
<glyph unicode="^" horiz-adv-x="500" d="M7 339l141 332h203l141 -332h-160l-82 209l-82 -209h-161z" />
<glyph unicode="_" horiz-adv-x="500" d="M0 -50h500v-107h-500v107z" />
<glyph unicode="`" horiz-adv-x="500" d="M282 522l-106 145h150l88 -145h-132z" />
<glyph unicode="a" horiz-adv-x="589" d="M6 107q0 63 42.5 106.5t121.5 62.5q73 18 209 18l6 24q5 18 5 34q0 38 -50 38q-29 0 -49 -16t-25 -43h-172q12 67 79.5 105t176.5 38q100 0 154.5 -30t54.5 -85q0 -27 -16 -81l-85 -278h-160l21 68q-84 -81 -178 -81q-64 0 -99.5 32t-35.5 88zM176 136q0 -23 15 -38 t39 -15q28 0 55 17.5t44 46.5t25 76q-75 0 -106 -10q-72 -21 -72 -77z" />
<glyph unicode="b" horiz-adv-x="605" d="M-9 0l204 667h170l-78 -254q73 61 142 61q71 0 112 -42.5t41 -116.5q0 -54 -21 -116t-56 -111q-72 -101 -192 -101q-97 0 -143 80l-21 -67h-158zM204 159q0 -38 18 -60.5t49 -22.5q49 0 88 65q21 34 36.5 84t15.5 82q0 35 -17.5 57t-44.5 22q-51 0 -98 -73.5t-47 -153.5z " />
<glyph unicode="c" horiz-adv-x="568" d="M26 156q0 54 21.5 114t56.5 103q83 101 248 101q98 0 151 -34.5t53 -98.5q0 -17 -5 -40h-169q4 21 4 33q0 25 -14.5 40.5t-38.5 15.5q-47 0 -87 -73q-22 -40 -36 -89.5t-14 -84.5q0 -67 52 -67q61 0 93 83h177q-12 -64 -64 -110q-70 -62 -201 -62q-107 0 -167 44.5 t-60 124.5z" />
<glyph unicode="d" horiz-adv-x="605" d="M26 151q0 108 70 211q76 111 198 111q95 0 133 -70l81 264h170l-204 -667h-161l17 57q-71 -70 -156 -70q-65 0 -106.5 46t-41.5 118zM196 163q0 -37 17 -58.5t45 -21.5q65 0 111 93q34 68 34 133q0 29 -18 48.5t-45 19.5q-60 0 -105 -81q-39 -69 -39 -133z" />
<glyph unicode="e" horiz-adv-x="596" d="M26 158q0 96 60 185q86 130 267 130q129 0 187 -61q32 -35 32 -94q0 -54 -25 -122h-342q-9 -32 -9 -55q0 -28 19 -46.5t48 -18.5q32 0 54 18.5t40 59.5h181q-59 -167 -283 -167q-112 0 -170.5 43.5t-58.5 127.5zM233 286h160q9 27 9 45q0 53 -58 53q-71 0 -111 -98z" />
<glyph unicode="f" horiz-adv-x="388" d="M30 0l108 353h-91l33 107h91l13 44q25 85 53 117q50 57 178 57q55 0 101 -10l-32 -106q-22 3 -33 3q-46 0 -67.5 -16.5t-35.5 -64.5l-7 -24h96l-33 -107h-96l-108 -353h-170z" />
<glyph unicode="g" horiz-adv-x="601" d="M-32 -29h180q-3 -17 -3 -22q0 -50 57 -50q56 0 81 45q18 32 38 92l11 34q-66 -57 -142 -57t-117.5 41.5t-41.5 117.5q0 90 51 175q76 126 200 126q53 0 92 -23t54 -64l23 74h160l-124 -405q-24 -81 -34 -104t-31 -51q-71 -93 -246 -93q-106 0 -162 30.5t-56 88.5 q0 21 10 45zM201 180q0 -38 17 -60.5t46 -22.5q54 0 90 65q41 75 41 140q0 37 -18.5 59.5t-49.5 22.5q-46 0 -83 -58q-43 -69 -43 -146z" />
<glyph unicode="h" horiz-adv-x="608" d="M-9 0l204 667h170l-81 -266q74 72 172 72q57 0 91.5 -30t34.5 -79q0 -33 -18 -93l-83 -271h-170l80 261q14 48 14 61q0 20 -13.5 33t-33.5 13q-84 0 -138 -174l-59 -194h-170z" />
<glyph unicode="i" horiz-adv-x="291" d="M159 550l36 117h170l-36 -117h-170zM-9 0l141 460h170l-141 -460h-170z" />
<glyph unicode="j" horiz-adv-x="309" d="M176 550l36 117h170l-36 -117h-170zM23 48l126 412h170l-135 -442q-32 -102 -60 -140q-47 -66 -178 -66q-51 0 -96 6l35 115q19 -3 28 -3q36 0 63 21q15 12 23.5 29.5t23.5 67.5z" />
<glyph unicode="k" horiz-adv-x="611" d="M-9 0l204 667h170l-204 -667h-170zM250 265l197 195h197l-225 -201l130 -259h-180z" />
<glyph unicode="l" horiz-adv-x="291" d="M-9 0l204 667h170l-204 -667h-170z" />
<glyph unicode="m" horiz-adv-x="909" d="M-9 0l141 460h170l-20 -65q76 78 168 78t126 -91q72 91 180 91q57 0 91.5 -31t34.5 -82q0 -34 -12 -76l-87 -284h-170l77 251q15 47 15 73q0 20 -11 32t-29 12q-80 0 -136 -183l-57 -185h-170l77 251q16 51 16 71q0 46 -40 46q-48 0 -81 -50q-32 -52 -49 -108l-64 -210 h-170z" />
<glyph unicode="n" horiz-adv-x="610" d="M-9 0l141 460h170l-20 -65q88 79 170 79q60 0 94.5 -31.5t34.5 -85.5q0 -33 -15 -85l-83 -272h-170l76 250q15 48 15 71q0 21 -11.5 34.5t-29.5 13.5q-49 0 -93 -64q-28 -40 -51 -115l-58 -190h-170z" />
<glyph unicode="o" horiz-adv-x="600" d="M26 165q0 45 19 98.5t49 94.5q88 116 259 116q102 0 161.5 -46t59.5 -125q0 -46 -18.5 -101t-49.5 -98q-82 -117 -251 -117q-111 0 -170 46t-59 132zM196 145q0 -33 16 -51t45 -18q75 0 124 136q23 67 23 109q0 30 -15.5 47t-43.5 17q-71 0 -119 -113q-30 -70 -30 -127z " />
<glyph unicode="p" horiz-adv-x="603" d="M-60 -167l192 627h165l-18 -60q63 74 149 74q69 0 110.5 -44t41.5 -116q0 -47 -19 -107.5t-49 -108.5q-69 -111 -196 -111q-95 0 -139 65l-67 -219h-170zM206 152q0 -34 17 -55t45 -21q56 0 94 72q48 87 48 155q0 35 -18 56t-48 21q-58 0 -99 -83q-39 -82 -39 -145z" />
<glyph unicode="q" horiz-adv-x="605" d="M25 151q0 77 39 161q74 161 225 161q102 0 143 -78l20 65h163l-192 -627h-170l66 214q-73 -60 -144 -60q-68 0 -109 44.5t-41 119.5zM195 159q0 -83 65 -83q50 0 88 66q21 36 35 84.5t14 84.5q0 34 -16 53.5t-43 19.5q-64 0 -108 -96q-35 -75 -35 -129z" />
<glyph unicode="r" horiz-adv-x="402" d="M-9 0l141 460h163l-29 -89q43 53 81.5 71.5t104.5 17.5l-40 -132q-13 1 -25 1q-68 0 -107 -34.5t-65 -117.5l-54 -177h-170z" />
<glyph unicode="s" horiz-adv-x="539" d="M4 110q0 17 7 38h163v-9v-10q0 -25 18 -39t49 -14q27 0 45 13t18 33q0 21 -15 34q-12 10 -74 41q-76 38 -103.5 67t-27.5 70q0 62 65.5 100.5t172.5 38.5q199 0 199 -119q0 -13 -5 -32h-160q4 17 4 24q0 18 -15.5 30.5t-37.5 12.5q-23 0 -38 -12.5t-15 -31.5 q0 -20 14 -31q11 -11 86 -49q68 -35 84 -50q36 -32 36 -81q0 -67 -70.5 -107t-189.5 -40q-102 0 -156 31.5t-54 91.5z" />
<glyph unicode="t" horiz-adv-x="427" d="M80 98q0 33 20 99l48 156h-97l33 107h96l31 101l176 39l-43 -140h107l-33 -107h-107l-41 -134q-15 -51 -15 -68q0 -45 65 -45q26 0 58 8l-32 -104q-65 -17 -123 -17q-61 0 -102 30t-41 75z" />
<glyph unicode="u" horiz-adv-x="596" d="M34 114q0 37 16 89l78 257h170l-85 -279q-9 -29 -9 -48t11 -30t29 -11q26 0 52 20t43 53q18 34 38 100l59 195h170l-141 -460h-159l24 76q-74 -89 -172 -89q-57 0 -90.5 34.5t-33.5 92.5z" />
<glyph unicode="v" horiz-adv-x="540" d="M109 0l-56 460h173l11 -298l184 298h170l-289 -460h-193z" />
<glyph unicode="w" horiz-adv-x="872" d="M112 0l-59 460h170l14 -267l153 267h188l29 -250l136 250h179l-279 -460h-175l-33 259l-147 -259h-176z" />
<glyph unicode="x" horiz-adv-x="600" d="M-32 0l235 241l-149 219h196l65 -104l93 104h201l-214 -219l163 -241h-198l-75 123l-120 -123h-197z" />
<glyph unicode="y" horiz-adv-x="564" d="M167 -8l-114 468h176l51 -274l161 274h173l-272 -447l-99 -180h-176z" />
<glyph unicode="z" horiz-adv-x="503" d="M-27 0l32 125l294 228h-224l32 107h399l-25 -130l-288 -223h242l-33 -107h-429z" />
<glyph unicode="{" horiz-adv-x="380" d="M13 -3q0 30 12 69l30 96q9 28 9 48q0 32 -38 41l38 125q33 8 51 25.5t30 56.5l31 102q23 74 68 107q28 20 58 26.5t97 6.5q45 0 72 -1l-44 -144q-64 -1 -85 -14.5t-36 -62.5l-14 -46q-15 -51 -35.5 -76.5t-60.5 -45.5q33 -25 33 -60q0 -24 -12 -62l-16 -51 q-10 -33 -10 -47q0 -33 70 -33q8 0 14 1l-41 -136q-43 -1 -75 -1q-89 0 -114 16q-32 21 -32 60z" />
<glyph unicode="|" horiz-adv-x="500" d="M157 -167v834h185v-834h-185z" />
<glyph unicode="}" horiz-adv-x="380" d="M2 65q5 1 12 1q55 1 74.5 15t34.5 62l15 46q16 51 36.5 76.5t58.5 45.5q-32 24 -32 59q0 30 11 63l16 51q10 32 10 46q0 19 -17.5 26t-66.5 7l42 136q31 1 74 1q89 0 114 -16q32 -21 32 -60q0 -32 -12 -69l-29 -96q-9 -31 -9 -49q0 -32 37 -41l-38 -125q-33 -7 -51 -24.5 t-30 -57.5l-31 -101q-24 -76 -68 -107q-28 -20 -58 -26.5t-97 -6.5q-47 0 -72 1z" />
<glyph unicode="~" horiz-adv-x="667" d="M180 539l-88 74q30 76 67.5 111.5t87.5 35.5q20 0 44.5 -7.5t102.5 -37.5q21 -7 34 -7q33 0 62 55l88 -74q-32 -79 -68 -112.5t-89 -33.5q-34 0 -112 31q-51 20 -69 20q-31 0 -60 -55z" />
<glyph unicode="&#xa1;" horiz-adv-x="360" d="M132 342l36 118h156l-36 -118h-156zM-53 -207l189 503h124l-113 -503h-200z" />
<glyph unicode="&#xa2;" d="M181 -3l37 120q-69 17 -99.5 55.5t-30.5 107.5q0 79 36.5 154.5t93.5 114.5q73 49 157 54l31 100h99l-31 -100q69 -6 105 -38t36 -88q0 -20 -6 -43h-167q3 15 3 25q0 28 -12.5 44t-34.5 16q-60 0 -103 -99q-37 -87 -37 -151q0 -72 54 -72q63 0 94 91h172q-9 -57 -52 -103 q-31 -33 -86.5 -54.5t-110.5 -21.5q-7 0 -14 1l-35 -113h-99z" />
<glyph unicode="&#xa3;" d="M-12 0l33 106h64l62 204h-99l32 106h100l9 29q20 65 34 95t38 56q80 88 255 88q98 0 150.5 -33t52.5 -94q0 -32 -18 -76h-181q16 40 16 58q0 35 -53 35q-44 0 -69.5 -25.5t-44.5 -89.5l-13 -43h145l-33 -106h-144l-63 -204h313l-32 -106h-554z" />
<glyph unicode="&#xa4;" horiz-adv-x="727" d="M67 107l104 104q-33 63 -33 127q0 63 36 131l-106 106l94 95l109 -109q65 34 127 34q59 0 125 -33l108 107l93 -94l-104 -104q38 -66 38 -133q0 -62 -34 -126l104 -104l-93 -94l-103 103q-66 -38 -131 -38q-68 0 -137 38l-104 -103zM298 339q0 -41 29.5 -71t70.5 -30 q42 0 71.5 30t29.5 72q0 41 -29.5 71t-69.5 30q-43 0 -72.5 -29.5t-29.5 -72.5z" />
<glyph unicode="&#xa5;" d="M152 0l65 210h-202l29 96h166l-19 81h-122l29 96h72l-42 184h182l40 -284l192 284h199l-144 -184h75l-30 -96h-120l-63 -81h159l-30 -96h-195l-64 -210h-177z" />
<glyph unicode="&#xa6;" horiz-adv-x="500" d="M157 307v360h185v-360h-185zM157 153h185v-320h-185v320z" />
<glyph unicode="&#xa7;" d="M3 -68l40 132q75 -44 120.5 -62t85.5 -18q34 0 54.5 13t20.5 34q0 36 -54 65q-91 51 -128 78q-56 42 -56 103q0 103 130 168q-21 31 -21 69q0 72 61 121t151 49q105 0 200 -49l-34 -112q-97 56 -167 56q-32 0 -52 -12t-20 -32q0 -29 53 -55q118 -59 154.5 -93t36.5 -85 q0 -94 -119 -180q16 -31 16 -62q0 -81 -68 -135.5t-169 -54.5q-115 0 -235 62zM299 245q34 -17 87 -53q48 35 48 74q0 34 -70 70q-38 20 -77 45q-34 -17 -47 -31t-13 -35q0 -19 15.5 -33.5t56.5 -36.5z" />
<glyph unicode="&#xa8;" horiz-adv-x="500" d="M383 527l42 136h132l-42 -136h-132zM171 527l42 136h133l-42 -136h-133z" />
<glyph unicode="&#xa9;" horiz-adv-x="763" d="M65 336q0 144 103.5 245t250.5 101q140 0 241.5 -103t101.5 -245q0 -145 -102 -247t-246 -102q-145 0 -247 102.5t-102 248.5zM127 336q0 -121 83.5 -205t203.5 -84q118 0 202 84.5t84 202.5q0 116 -83.5 201t-198.5 85q-131 0 -217 -95q-74 -82 -74 -189zM223 327 q0 95 51 146.5t146 51.5q154 0 166 -129h-115q-4 52 -54 52q-38 0 -58.5 -30t-20.5 -85q0 -114 77 -114q50 0 59 55h116q-5 -64 -49.5 -98t-124.5 -34q-93 0 -143 48t-50 137z" />
<glyph unicode="&#xaa;" horiz-adv-x="420" d="M209 389q-40 0 -63.5 20t-23.5 55q0 38 27 65.5t77 37.5q44 10 126 10l3 11q3 14 3 18q0 21 -28 21q-33 0 -39 -28h-115q7 40 50 62.5t111 22.5q64 0 99 -19t35 -53q0 -14 -10 -48l-51 -167h-107l10 33q-54 -41 -104 -41zM266 453q26 0 45 21t25 55q-101 0 -101 -47 q0 -13 8.5 -21t22.5 -8zM50 277l18 59h349l-18 -59h-349z" />
<glyph unicode="&#xab;" horiz-adv-x="529" d="M304 28l-61 201l138 223h142l-132 -229l44 -195h-131zM87 28l-60 201l140 223h141l-131 -229l39 -195h-129z" />
<glyph unicode="&#xac;" horiz-adv-x="500" d="M33 136v161h433v-297h-179v136h-254z" />
<glyph unicode="&#xad;" horiz-adv-x="265" d="M-12 188l33 108h265l-33 -108h-265z" />
<glyph unicode="&#xae;" horiz-adv-x="763" d="M65 336q0 144 103.5 245t250.5 101q140 0 241.5 -103t101.5 -245q0 -145 -102 -247t-246 -102q-145 0 -247 102.5t-102 248.5zM127 336q0 -121 83.5 -205t203.5 -84q118 0 202 84.5t84 202.5q0 116 -83.5 201t-198.5 85q-131 0 -217 -95q-74 -82 -74 -189zM247 150v367 h161q77 0 113 -14q23 -10 37.5 -32t14.5 -49q0 -46 -32 -70q-14 -9 -39 -19q40 -11 50.5 -28.5t18.5 -84.5q6 -46 22 -70h-124q-11 26 -16 75q-4 44 -12.5 54t-43.5 10h-41v-139h-109zM356 364h41q35 0 47 6q20 10 20 34q0 39 -63 39h-45v-79z" />
<glyph unicode="&#xaf;" horiz-adv-x="500" d="M188 549l29 96h328l-29 -96h-328z" />
<glyph unicode="&#xb0;" horiz-adv-x="429" d="M301 346q-68 0 -116.5 48t-48.5 116q0 69 48.5 117.5t116.5 48.5q69 0 116.5 -48.5t47.5 -118.5q0 -67 -48.5 -115t-115.5 -48zM300 415q38 0 66.5 28t28.5 66q0 41 -28 69.5t-68 28.5q-37 0 -65 -29t-28 -67q0 -39 28 -67.5t66 -28.5z" />
<glyph unicode="&#xb1;" d="M263 132v194h-201v84h201v202h88v-202h202v-84h-202v-194h-88zM62 8v84h491v-84h-491z" />
<glyph unicode="&#xb2;" horiz-adv-x="409" d="M68 267l19 78q15 10 16 10q27 18 61 37q35 22 82 58.5t64 56.5q29 35 29 62q0 16 -12.5 26t-32.5 10q-23 0 -36 -12t-13 -32q0 -2 2 -12h-113q3 128 170 128q68 0 109.5 -29t41.5 -75q0 -48 -49 -94.5t-170 -127.5l-6 -4h186l-24 -80h-324z" />
<glyph unicode="&#xb3;" horiz-adv-x="409" d="M232 257q-69 0 -110 26.5t-41 70.5q0 14 5 31h107q-3 -13 -3 -16q0 -17 15.5 -28.5t38.5 -11.5q28 0 47 17t19 41t-19 37.5t-53 13.5q-11 0 -21 -1l22 71q13 -2 28 -2q35 0 58.5 16t23.5 41q0 19 -13.5 30.5t-34.5 11.5q-25 0 -39.5 -14t-16.5 -39h-107q15 125 171 125 q66 0 105.5 -28t39.5 -75q0 -80 -105 -106q71 -20 71 -82q0 -55 -54 -92t-134 -37z" />
<glyph unicode="&#xb4;" horiz-adv-x="500" d="M256 523l115 144h153l-137 -144h-131z" />
<glyph unicode="&#xb5;" horiz-adv-x="596" d="M130 -11l-24 -156h-170l192 627h170l-86 -279q-9 -27 -9 -48q0 -19 11 -30t29 -11q26 0 52 20t43 53q18 34 38 100l60 195h170l-141 -460h-160l24 76q-74 -90 -172 -90q-9 0 -27 3z" />
<glyph unicode="&#xb6;" d="M149 -113l133 435h-15q-64 0 -99 30t-35 84q0 49 25.5 100t65.5 81q36 28 81 39t120 11h264l-20 -66h-49l-218 -714h-86l218 714h-81l-218 -714h-86z" />
<glyph unicode="&#xb7;" horiz-adv-x="274" d="M41 182l38 123h163l-38 -123h-163z" />
<glyph unicode="&#xb8;" horiz-adv-x="500" d="M117 -60h138l-81 -157h-153z" />
<glyph unicode="&#xb9;" horiz-adv-x="409" d="M185 267l90 295q-55 -40 -116 -47l29 95q73 12 130 57h103l-122 -400h-114z" />
<glyph unicode="&#xba;" horiz-adv-x="420" d="M276 389q-71 0 -108.5 28.5t-37.5 81.5q0 61 42 115q54 70 163 70q65 0 103.5 -28.5t38.5 -77.5q0 -62 -41 -118q-52 -71 -160 -71zM279 448q43 0 71 78q13 37 13 62q0 37 -34 37q-39 0 -68 -65q-17 -39 -17 -72q0 -40 35 -40zM50 277l18 59h349l-18 -59h-349z" />
<glyph unicode="&#xbb;" horiz-adv-x="529" d="M228 28l131 229l-39 195h129l60 -201l-140 -223h-141zM13 28l132 229l-43 195h130l62 -201l-139 -223h-142z" />
<glyph unicode="&#xbc;" horiz-adv-x="1030" d="M289 0l421 667h94l-421 -667h-94zM185 267l90 295q-55 -40 -116 -47l29 95q73 12 130 57h103l-122 -400h-114zM602 80l30 100l218 220h144l-77 -251h74l-21 -69h-74l-24 -80h-105l24 80h-189zM702 149h110l48 157z" />
<glyph unicode="&#xbd;" horiz-adv-x="1030" d="M276 0l420 667h95l-421 -667h-94zM185 267l90 295q-55 -40 -116 -47l29 95q73 12 130 57h103l-122 -400h-114zM607 0l19 78q8 6 16 10q20 13 60 37q36 22 82.5 58.5t63.5 55.5q29 35 29 63q0 16 -12.5 25.5t-32.5 9.5q-22 0 -35 -12t-13 -32q0 -6 1 -11h-113 q5 127 170 127q67 0 109 -28.5t42 -74.5q0 -51 -52 -104t-167 -118l-5 -4h186l-25 -80h-323z" />
<glyph unicode="&#xbe;" horiz-adv-x="1030" d="M232 257q-69 0 -110 26.5t-41 70.5q0 14 5 31h107q-3 -13 -3 -16q0 -17 15.5 -28.5t38.5 -11.5q28 0 47 17t19 41t-19 37.5t-53 13.5q-11 0 -21 -1l22 71q13 -2 28 -2q35 0 58.5 16t23.5 41q0 19 -13.5 30.5t-34.5 11.5q-25 0 -39.5 -14t-16.5 -39h-107q15 125 171 125 q66 0 105.5 -28t39.5 -75q0 -80 -105 -106q71 -20 71 -82q0 -55 -54 -92t-134 -37zM303 0l420 667h95l-421 -667h-94zM602 80l31 100l218 220h143l-76 -251h74l-21 -69h-74l-25 -80h-105l25 80h-190zM702 149h111l48 157z" />
<glyph unicode="&#xbf;" horiz-adv-x="513" d="M262 347l35 113h163l-35 -113h-163zM-30 -54q0 96 115 185q37 29 136 87q15 8 19 23q0 3 1 5.5t1 4.5l1 2l15 48h143l-32 -104q-6 -20 -11 -25t-29 -17q-87 -41 -138.5 -93.5t-51.5 -100.5q0 -39 30.5 -60t86.5 -21q59 0 126 20l-32 -106q-72 -20 -156 -20 q-102 0 -163 46.5t-61 125.5z" />
<glyph unicode="&#xc0;" horiz-adv-x="739" d="M461 728l-106 134h154l88 -134h-136zM-46 0l460 667h200l57 -667h-178l-6 133h-259l-89 -133h-185zM304 246h177l-11 256z" />
<glyph unicode="&#xc1;" horiz-adv-x="739" d="M462 728l115 134h161l-136 -134h-140zM-46 0l460 667h200l57 -667h-178l-6 133h-259l-89 -133h-185zM304 246h177l-11 256z" />
<glyph unicode="&#xc2;" horiz-adv-x="739" d="M341 722l154 145h182l56 -145h-124l-37 80l-98 -80h-133zM-46 0l460 667h200l57 -667h-178l-6 133h-259l-89 -133h-185zM304 246h177l-11 256z" />
<glyph unicode="&#xc3;" horiz-adv-x="739" d="M365 724q14 54 29 84q30 58 91 58q36 0 78 -23q40 -21 55 -21t21.5 7.5t16.5 36.5h96q-17 -74 -45.5 -108t-73.5 -34q-35 0 -84 25q-34 18 -51 18q-13 0 -20.5 -9t-15.5 -34h-97zM-46 0l460 667h200l57 -667h-178l-6 133h-259l-89 -133h-185zM304 246h177l-11 256z" />
<glyph unicode="&#xc4;" horiz-adv-x="739" d="M575 727l42 136h132l-42 -136h-132zM356 727l42 136h133l-42 -136h-133zM-46 0l460 667h200l57 -667h-178l-6 133h-259l-89 -133h-185zM304 246h177l-11 256z" />
<glyph unicode="&#xc5;" horiz-adv-x="739" d="M545 710q-60 0 -96.5 27.5t-36.5 71.5q0 41 37.5 68.5t94.5 27.5q61 0 98.5 -27.5t37.5 -71.5q0 -42 -37.5 -69t-97.5 -27zM546 763q21 0 34.5 12.5t13.5 32.5q0 21 -13.5 33.5t-35.5 12.5t-35 -12t-13 -33q0 -20 13.5 -33t35.5 -13zM-46 0l460 667h200l57 -667h-178 l-6 133h-259l-89 -133h-185zM304 246h177l-11 256z" />
<glyph unicode="&#xc6;" horiz-adv-x="984" d="M-66 0l530 667h606l-37 -120h-342l-16 -147h294l-37 -120h-271l-18 -160h270l-37 -120h-411l19 135h-255l-104 -135h-191zM318 248h182l39 299z" />
<glyph unicode="&#xc7;" horiz-adv-x="706" d="M129 46q-67 62 -67 170q0 90 36.5 187.5t94.5 164.5q102 116 296 116q153 0 213 -75q35 -43 35 -102q0 -18 -7 -53h-177q7 21 7 37q0 32 -23.5 52.5t-61.5 20.5q-44 0 -85 -25.5t-69 -70.5q-34 -55 -55 -124t-21 -124q0 -52 28.5 -84.5t74.5 -32.5q43 0 76.5 24.5 t49.5 67.5h191q-28 -99 -117.5 -155.5t-217.5 -56.5q-133 0 -201 63zM242 -60h138l-80 -157h-154z" />
<glyph unicode="&#xc8;" horiz-adv-x="594" d="M402 728l-106 134h154l88 -134h-136zM-1 0l204 667h473l-37 -120h-296l-45 -147h284l-37 -120h-283l-49 -160h311l-37 -120h-488z" />
<glyph unicode="&#xc9;" horiz-adv-x="594" d="M379 728l115 134h161l-136 -134h-140zM-1 0l204 667h473l-37 -120h-296l-45 -147h284l-37 -120h-283l-49 -160h311l-37 -120h-488z" />
<glyph unicode="&#xca;" horiz-adv-x="594" d="M267 722l154 145h182l56 -145h-124l-37 80l-98 -80h-133zM-1 0l204 667h473l-37 -120h-296l-45 -147h284l-37 -120h-283l-49 -160h311l-37 -120h-488z" />
<glyph unicode="&#xcb;" horiz-adv-x="594" d="M510 727l42 136h132l-42 -136h-132zM291 727l42 136h133l-42 -136h-133zM-1 0l204 667h473l-37 -120h-296l-45 -147h284l-37 -120h-283l-49 -160h311l-37 -120h-488z" />
<glyph unicode="&#xcc;" horiz-adv-x="324" d="M240 728l-106 134h154l88 -134h-136zM-1 0l204 667h187l-204 -667h-187z" />
<glyph unicode="&#xcd;" horiz-adv-x="324" d="M244 728l115 134h161l-136 -134h-140zM-1 0l204 667h187l-204 -667h-187z" />
<glyph unicode="&#xce;" horiz-adv-x="324" d="M124 722l147 145h182l50 -145h-125l-30 80l-91 -80h-133zM-1 0l204 667h187l-204 -667h-187z" />
<glyph unicode="&#xcf;" horiz-adv-x="324" d="M353 730l40 130h125l-40 -130h-125zM161 730l40 130h126l-40 -130h-126zM-1 0l204 667h187l-204 -667h-187z" />
<glyph unicode="&#xd0;" horiz-adv-x="757" d="M-1 0l90 293h-64l33 107h63l82 267h264q133 0 200 -45q41 -29 64 -78t23 -110q0 -73 -23 -148t-63 -135q-44 -65 -102 -96t-157 -44q-93 -11 -168 -11h-242zM223 120h51q138 0 197 50q42 36 71 107.5t29 139.5q0 61 -36 100q-30 30 -89 30h-93l-45 -147h134l-33 -107 h-133z" />
<glyph unicode="&#xd1;" horiz-adv-x="737" d="M368 724q14 54 29 84q30 58 91 58q36 0 78 -23q40 -21 55 -21t21.5 7.5t16.5 36.5h96q-17 -74 -45.5 -108t-73.5 -34q-35 0 -84 25q-34 18 -51 18q-13 0 -20.5 -9t-15.5 -34h-97zM-1 0l204 667h214l94 -430l132 430h160l-204 -667h-207l-97 446l-136 -446h-160z" />
<glyph unicode="&#xd2;" horiz-adv-x="765" d="M467 728l-106 134h154l88 -134h-136zM62 227q0 77 32.5 167.5t83.5 154.5q106 135 308 135q129 0 203.5 -65t74.5 -177q0 -82 -31 -170t-84 -156q-104 -133 -301 -133q-137 0 -211.5 63.5t-74.5 180.5zM245 239q0 -65 29.5 -100.5t82.5 -35.5q101 0 161 110 q28 52 45.5 113t17.5 108q0 59 -31.5 94.5t-83.5 35.5q-97 0 -164 -125q-25 -46 -41 -102t-16 -98z" />
<glyph unicode="&#xd3;" horiz-adv-x="765" d="M451 728l115 134h161l-136 -134h-140zM62 227q0 77 32.5 167.5t83.5 154.5q106 135 308 135q129 0 203.5 -65t74.5 -177q0 -82 -31 -170t-84 -156q-104 -133 -301 -133q-137 0 -211.5 63.5t-74.5 180.5zM245 239q0 -65 29.5 -100.5t82.5 -35.5q101 0 161 110 q28 52 45.5 113t17.5 108q0 59 -31.5 94.5t-83.5 35.5q-97 0 -164 -125q-25 -46 -41 -102t-16 -98z" />
<glyph unicode="&#xd4;" horiz-adv-x="765" d="M331 722l154 145h182l56 -145h-124l-37 80l-98 -80h-133zM62 227q0 77 32.5 167.5t83.5 154.5q106 135 308 135q129 0 203.5 -65t74.5 -177q0 -82 -31 -170t-84 -156q-104 -133 -301 -133q-137 0 -211.5 63.5t-74.5 180.5zM245 239q0 -65 29.5 -100.5t82.5 -35.5 q101 0 161 110q28 52 45.5 113t17.5 108q0 59 -31.5 94.5t-83.5 35.5q-97 0 -164 -125q-25 -46 -41 -102t-16 -98z" />
<glyph unicode="&#xd5;" horiz-adv-x="765" d="M353 724q14 54 29 84q30 58 91 58q36 0 78 -23q40 -21 55 -21t21.5 7.5t16.5 36.5h96q-17 -74 -45.5 -108t-73.5 -34q-35 0 -84 25q-34 18 -51 18q-13 0 -20.5 -9t-15.5 -34h-97zM62 227q0 77 32.5 167.5t83.5 154.5q106 135 308 135q129 0 203.5 -65t74.5 -177 q0 -82 -31 -170t-84 -156q-104 -133 -301 -133q-137 0 -211.5 63.5t-74.5 180.5zM245 239q0 -65 29.5 -100.5t82.5 -35.5q101 0 161 110q28 52 45.5 113t17.5 108q0 59 -31.5 94.5t-83.5 35.5q-97 0 -164 -125q-25 -46 -41 -102t-16 -98z" />
<glyph unicode="&#xd6;" horiz-adv-x="765" d="M568 727l42 136h132l-42 -136h-132zM349 727l42 136h133l-42 -136h-133zM62 227q0 77 32.5 167.5t83.5 154.5q106 135 308 135q129 0 203.5 -65t74.5 -177q0 -82 -31 -170t-84 -156q-104 -133 -301 -133q-137 0 -211.5 63.5t-74.5 180.5zM245 239q0 -65 29.5 -100.5 t82.5 -35.5q101 0 161 110q28 52 45.5 113t17.5 108q0 59 -31.5 94.5t-83.5 35.5q-97 0 -164 -125q-25 -46 -41 -102t-16 -98z" />
<glyph unicode="&#xd7;" d="M102 162l177 177l-176 176l71 70l176 -176l171 171l68 -69l-171 -170l175 -175l-70 -70l-175 174l-177 -177z" />
<glyph unicode="&#xd8;" horiz-adv-x="765" d="M37 -14l76 87q-51 62 -51 152q0 78 32 167t84 157q49 64 129.5 99.5t175.5 35.5q87 0 151 -29l90 102l66 -60l-83 -94q58 -63 58 -167q0 -77 -32 -165.5t-84 -154.5q-104 -133 -301 -133q-98 0 -166 33l-78 -88zM248 215l282 330q-26 18 -62 18q-99 0 -166 -125 q-23 -42 -40 -98.5t-17 -90.5q0 -11 3 -34zM288 126q30 -23 69 -23q101 0 161 110q28 51 45.5 110.5t17.5 102.5q0 10 -3 39z" />
<glyph unicode="&#xd9;" horiz-adv-x="737" d="M443 728l-106 134h154l88 -134h-136zM67 180q0 41 23 117l113 370h186l-127 -418q-12 -41 -12 -62q0 -38 25.5 -61t66.5 -23q70 0 107 52q19 29 42 102l125 410h187l-130 -426q-41 -132 -124.5 -195t-219.5 -63q-122 0 -192 53t-70 144z" />
<glyph unicode="&#xda;" horiz-adv-x="737" d="M447 728l115 134h161l-136 -134h-140zM67 180q0 41 23 117l113 370h186l-127 -418q-12 -41 -12 -62q0 -38 25.5 -61t66.5 -23q70 0 107 52q19 29 42 102l125 410h187l-130 -426q-41 -132 -124.5 -195t-219.5 -63q-122 0 -192 53t-70 144z" />
<glyph unicode="&#xdb;" horiz-adv-x="737" d="M327 722l154 145h182l56 -145h-124l-37 80l-98 -80h-133zM67 180q0 41 23 117l113 370h186l-127 -418q-12 -41 -12 -62q0 -38 25.5 -61t66.5 -23q70 0 107 52q19 29 42 102l125 410h187l-130 -426q-41 -132 -124.5 -195t-219.5 -63q-122 0 -192 53t-70 144z" />
<glyph unicode="&#xdc;" horiz-adv-x="737" d="M568 727l42 136h132l-42 -136h-132zM349 727l42 136h133l-42 -136h-133zM67 180q0 41 23 117l113 370h186l-127 -418q-12 -41 -12 -62q0 -38 25.5 -61t66.5 -23q70 0 107 52q19 29 42 102l125 410h187l-130 -426q-41 -132 -124.5 -195t-219.5 -63q-122 0 -192 53t-70 144 z" />
<glyph unicode="&#xdd;" horiz-adv-x="684" d="M401 728l115 134h161l-136 -134h-140zM176 0l72 237l-130 430h187l72 -291l227 291h204l-375 -438l-71 -229h-186z" />
<glyph unicode="&#xde;" horiz-adv-x="671" d="M-1 0l204 667h187l-31 -100h104q88 0 137 -25q36 -19 56.5 -57.5t20.5 -87.5q0 -78 -45.5 -144t-118.5 -93q-43 -16 -78 -20.5t-115 -4.5h-93l-41 -135h-187zM264 255h34q83 0 116 12q34 12 57 43.5t23 66.5q0 70 -94 70h-78z" />
<glyph unicode="&#xdf;" horiz-adv-x="707" d="M-9 0l135 442q35 112 76 156q73 78 248 78q206 0 206 -139q0 -78 -84 -106q-44 -16 -56 -26q-23 -18 -23 -49q0 -23 13 -39t53 -41q53 -35 74.5 -64t21.5 -68q0 -76 -68 -123q-59 -39 -182 -39q-183 0 -183 100q0 17 10 48h154q-6 -12 -6 -20q0 -14 12.5 -23t32.5 -9 q26 0 43 15t17 38q0 18 -11 31t-46 38q-62 44 -83.5 71.5t-21.5 64.5q0 84 105 128q58 23 58 69q0 47 -61 47q-64 0 -94 -51q-17 -28 -40 -105l-130 -424h-170z" />
<glyph unicode="&#xe0;" horiz-adv-x="589" d="M318 522l-106 145h150l88 -145h-132zM6 107q0 63 42.5 106.5t121.5 62.5q73 18 209 18l6 24q5 18 5 34q0 38 -50 38q-29 0 -49 -16t-25 -43h-172q12 67 79.5 105t176.5 38q100 0 154.5 -30t54.5 -85q0 -27 -16 -81l-85 -278h-160l21 68q-84 -81 -178 -81q-64 0 -99.5 32 t-35.5 88zM176 136q0 -23 15 -38t39 -15q28 0 55 17.5t44 46.5t25 76q-75 0 -106 -10q-72 -21 -72 -77z" />
<glyph unicode="&#xe1;" horiz-adv-x="589" d="M306 523l115 144h153l-137 -144h-131zM6 107q0 63 42.5 106.5t121.5 62.5q73 18 209 18l6 24q5 18 5 34q0 38 -50 38q-29 0 -49 -16t-25 -43h-172q12 67 79.5 105t176.5 38q100 0 154.5 -30t54.5 -85q0 -27 -16 -81l-85 -278h-160l21 68q-84 -81 -178 -81q-64 0 -99.5 32 t-35.5 88zM176 136q0 -23 15 -38t39 -15q28 0 55 17.5t44 46.5t25 76q-75 0 -106 -10q-72 -21 -72 -77z" />
<glyph unicode="&#xe2;" horiz-adv-x="589" d="M186 522l154 145h182l56 -145h-124l-37 80l-98 -80h-133zM6 107q0 63 42.5 106.5t121.5 62.5q73 18 209 18l6 24q5 18 5 34q0 38 -50 38q-29 0 -49 -16t-25 -43h-172q12 67 79.5 105t176.5 38q100 0 154.5 -30t54.5 -85q0 -27 -16 -81l-85 -278h-160l21 68 q-84 -81 -178 -81q-64 0 -99.5 32t-35.5 88zM176 136q0 -23 15 -38t39 -15q28 0 55 17.5t44 46.5t25 76q-75 0 -106 -10q-72 -21 -72 -77z" />
<glyph unicode="&#xe3;" horiz-adv-x="589" d="M211 525q14 56 29 84q30 59 91 59q34 0 78 -23q40 -21 55 -21t22 8t16 36h96q-16 -74 -45 -108.5t-74 -34.5q-35 0 -84 25q-36 19 -51 19q-13 0 -20.5 -9t-15.5 -35h-97zM6 107q0 63 42.5 106.5t121.5 62.5q73 18 209 18l6 24q5 18 5 34q0 38 -50 38q-29 0 -49 -16 t-25 -43h-172q12 67 79.5 105t176.5 38q100 0 154.5 -30t54.5 -85q0 -27 -16 -81l-85 -278h-160l21 68q-84 -81 -178 -81q-64 0 -99.5 32t-35.5 88zM176 136q0 -23 15 -38t39 -15q28 0 55 17.5t44 46.5t25 76q-75 0 -106 -10q-72 -21 -72 -77z" />
<glyph unicode="&#xe4;" horiz-adv-x="589" d="M431 527l42 136h132l-42 -136h-132zM219 527l42 136h133l-42 -136h-133zM6 107q0 63 42.5 106.5t121.5 62.5q73 18 209 18l6 24q5 18 5 34q0 38 -50 38q-29 0 -49 -16t-25 -43h-172q12 67 79.5 105t176.5 38q100 0 154.5 -30t54.5 -85q0 -27 -16 -81l-85 -278h-160l21 68 q-84 -81 -178 -81q-64 0 -99.5 32t-35.5 88zM176 136q0 -23 15 -38t39 -15q28 0 55 17.5t44 46.5t25 76q-75 0 -106 -10q-72 -21 -72 -77z" />
<glyph unicode="&#xe5;" horiz-adv-x="589" d="M387 513q-60 0 -96.5 27.5t-36.5 71.5q0 41 37.5 68.5t94.5 27.5q61 0 98.5 -27.5t37.5 -71.5q0 -42 -37.5 -69t-97.5 -27zM388 566q21 0 34.5 12.5t13.5 32.5q0 21 -13.5 33.5t-35.5 12.5t-35 -12t-13 -33q0 -20 13.5 -33t35.5 -13zM6 107q0 63 42.5 106.5t121.5 62.5 q73 18 209 18l6 24q5 18 5 34q0 38 -50 38q-29 0 -49 -16t-25 -43h-172q12 67 79.5 105t176.5 38q100 0 154.5 -30t54.5 -85q0 -27 -16 -81l-85 -278h-160l21 68q-84 -81 -178 -81q-64 0 -99.5 32t-35.5 88zM176 136q0 -23 15 -38t39 -15q28 0 55 17.5t44 46.5t25 76 q-75 0 -106 -10q-72 -21 -72 -77z" />
<glyph unicode="&#xe6;" horiz-adv-x="888" d="M10 116q0 50 31 90.5t85 61.5q58 23 176 23q24 0 85 -1q8 27 8 40q0 27 -16 43.5t-43 16.5q-50 0 -77 -58h-163q12 43 32 65q65 77 207 77q112 0 155 -62q68 62 181 62q93 0 143.5 -42t50.5 -120q0 -52 -22 -112h-337q-12 -28 -12 -54q0 -32 18.5 -51t50.5 -19 q68 0 94 65h168q-37 -80 -101 -117t-164 -37q-144 0 -189 87q-32 -40 -86.5 -63.5t-115.5 -23.5q-73 0 -116 35t-43 94zM540 290h160q9 26 9 40q0 24 -18 39.5t-46 15.5q-68 0 -105 -95zM175 131q0 -21 17.5 -34.5t45.5 -13.5q43 0 76 30.5t51 86.5l-40 1q-85 3 -120 -19 q-30 -18 -30 -51z" />
<glyph unicode="&#xe7;" horiz-adv-x="568" d="M26 156q0 54 21.5 114t56.5 103q83 101 248 101q99 0 151.5 -34.5t52.5 -99.5q0 -18 -5 -39h-169q4 21 4 33q0 25 -14.5 40.5t-38.5 15.5q-47 0 -87 -73q-22 -40 -36 -89.5t-14 -84.5q0 -67 52 -67q60 0 93 83h177q-12 -64 -64 -110q-70 -62 -201 -62q-107 0 -167 44.5 t-60 124.5zM161 -60h138l-81 -157h-153z" />
<glyph unicode="&#xe8;" horiz-adv-x="596" d="M319 522l-106 145h150l88 -145h-132zM26 158q0 96 60 185q86 130 267 130q129 0 187 -61q32 -35 32 -94q0 -54 -25 -122h-342q-9 -32 -9 -55q0 -28 19 -46.5t48 -18.5q32 0 54 18.5t40 59.5h181q-59 -167 -283 -167q-112 0 -170.5 43.5t-58.5 127.5zM233 286h160 q9 27 9 45q0 53 -58 53q-71 0 -111 -98z" />
<glyph unicode="&#xe9;" horiz-adv-x="596" d="M312 523l115 144h153l-137 -144h-131zM26 158q0 96 60 185q86 130 267 130q129 0 187 -61q32 -35 32 -94q0 -54 -25 -122h-342q-9 -32 -9 -55q0 -28 19 -46.5t48 -18.5q32 0 54 18.5t40 59.5h181q-59 -167 -283 -167q-112 0 -170.5 43.5t-58.5 127.5zM233 286h160 q9 27 9 45q0 53 -58 53q-71 0 -111 -98z" />
<glyph unicode="&#xea;" horiz-adv-x="596" d="M197 522l154 145h182l56 -145h-124l-37 80l-98 -80h-133zM26 158q0 96 60 185q86 130 267 130q129 0 187 -61q32 -35 32 -94q0 -54 -25 -122h-342q-9 -32 -9 -55q0 -28 19 -46.5t48 -18.5q32 0 54 18.5t40 59.5h181q-59 -167 -283 -167q-112 0 -170.5 43.5t-58.5 127.5z M233 286h160q9 27 9 45q0 53 -58 53q-71 0 -111 -98z" />
<glyph unicode="&#xeb;" horiz-adv-x="596" d="M432 527l42 136h132l-42 -136h-132zM220 527l42 136h133l-42 -136h-133zM26 158q0 96 60 185q86 130 267 130q129 0 187 -61q32 -35 32 -94q0 -54 -25 -122h-342q-9 -32 -9 -55q0 -28 19 -46.5t48 -18.5q32 0 54 18.5t40 59.5h181q-59 -167 -283 -167q-112 0 -170.5 43.5 t-58.5 127.5zM233 286h160q9 27 9 45q0 53 -58 53q-71 0 -111 -98z" />
<glyph unicode="&#xec;" horiz-adv-x="292" d="M167 522l-100 145h150l81 -145h-131zM-9 0l141 460h170l-141 -460h-170z" />
<glyph unicode="&#xed;" horiz-adv-x="291" d="M170 523l115 144h153l-137 -144h-131zM-9 0l141 460h170l-141 -460h-170z" />
<glyph unicode="&#xee;" horiz-adv-x="291" d="M58 522l137 145h182l43 -145h-124l-24 80l-85 -80h-129zM-9 0l141 460h170l-141 -460h-170z" />
<glyph unicode="&#xef;" horiz-adv-x="291" d="M272 531l39 130h125l-39 -130h-125zM86 531l40 130h126l-40 -130h-126zM-9 0l141 460h170l-141 -460h-170z" />
<glyph unicode="&#xf0;" horiz-adv-x="600" d="M26 159q0 50 18.5 104.5t49.5 94.5q40 52 101 84t120 32q61 0 107 -43q-12 37 -32.5 72t-39.5 51l-101 -42l-33 46l93 39q-12 14 -36 32q-1 0 -5.5 4t-7.5 6l62 51q41 -22 80 -54l105 43l33 -46l-92 -38q61 -55 94 -128t33 -151q0 -117 -68 -212q-84 -117 -256 -117 q-106 0 -165.5 45.5t-59.5 126.5zM196 145q0 -33 16 -51t45 -18q75 0 124 136q23 67 23 109q0 30 -15.5 47t-43.5 17q-71 0 -119 -113q-30 -70 -30 -127z" />
<glyph unicode="&#xf1;" horiz-adv-x="610" d="M209 525q14 56 29 84q30 59 91 59q34 0 78 -23q40 -21 55 -21t22 8t16 36h96q-16 -74 -45 -108.5t-74 -34.5q-35 0 -84 25q-36 19 -51 19q-13 0 -20.5 -9t-15.5 -35h-97zM-9 0l141 460h170l-20 -65q88 79 170 79q60 0 94.5 -31.5t34.5 -85.5q0 -33 -15 -85l-83 -272h-170 l76 250q15 48 15 71q0 21 -11.5 34.5t-29.5 13.5q-49 0 -93 -64q-28 -40 -51 -115l-58 -190h-170z" />
<glyph unicode="&#xf2;" horiz-adv-x="600" d="M327 522l-106 145h150l88 -145h-132zM26 165q0 45 19 98.5t49 94.5q88 116 259 116q102 0 161.5 -46t59.5 -125q0 -46 -18.5 -101t-49.5 -98q-82 -117 -251 -117q-111 0 -170 46t-59 132zM196 145q0 -33 16 -51t45 -18q75 0 124 136q23 67 23 109q0 30 -15.5 47t-43.5 17 q-71 0 -119 -113q-30 -70 -30 -127z" />
<glyph unicode="&#xf3;" horiz-adv-x="600" d="M316 523l115 144h153l-137 -144h-131zM26 165q0 45 19 98.5t49 94.5q88 116 259 116q102 0 161.5 -46t59.5 -125q0 -46 -18.5 -101t-49.5 -98q-82 -117 -251 -117q-111 0 -170 46t-59 132zM196 145q0 -33 16 -51t45 -18q75 0 124 136q23 67 23 109q0 30 -15.5 47 t-43.5 17q-71 0 -119 -113q-30 -70 -30 -127z" />
<glyph unicode="&#xf4;" horiz-adv-x="600" d="M191 522l154 145h182l56 -145h-124l-37 80l-98 -80h-133zM26 165q0 45 19 98.5t49 94.5q88 116 259 116q102 0 161.5 -46t59.5 -125q0 -46 -18.5 -101t-49.5 -98q-82 -117 -251 -117q-111 0 -170 46t-59 132zM196 145q0 -33 16 -51t45 -18q75 0 124 136q23 67 23 109 q0 30 -15.5 47t-43.5 17q-71 0 -119 -113q-30 -70 -30 -127z" />
<glyph unicode="&#xf5;" horiz-adv-x="600" d="M215 525q14 56 29 84q30 59 91 59q34 0 78 -23q40 -21 55 -21t22 8t16 36h96q-16 -74 -45 -108.5t-74 -34.5q-35 0 -84 25q-36 19 -51 19q-13 0 -20.5 -9t-15.5 -35h-97zM26 165q0 45 19 98.5t49 94.5q88 116 259 116q102 0 161.5 -46t59.5 -125q0 -46 -18.5 -101 t-49.5 -98q-82 -117 -251 -117q-111 0 -170 46t-59 132zM196 145q0 -33 16 -51t45 -18q75 0 124 136q23 67 23 109q0 30 -15.5 47t-43.5 17q-71 0 -119 -113q-30 -70 -30 -127z" />
<glyph unicode="&#xf6;" horiz-adv-x="600" d="M433 527l42 136h132l-42 -136h-132zM221 527l42 136h133l-42 -136h-133zM26 165q0 45 19 98.5t49 94.5q88 116 259 116q102 0 161.5 -46t59.5 -125q0 -46 -18.5 -101t-49.5 -98q-82 -117 -251 -117q-111 0 -170 46t-59 132zM196 145q0 -33 16 -51t45 -18q75 0 124 136 q23 67 23 109q0 30 -15.5 47t-43.5 17q-71 0 -119 -113q-30 -70 -30 -127z" />
<glyph unicode="&#xf7;" d="M269 442v129h155v-129h-155zM71 285v99h551v-99h-551zM274 96v132h155v-132h-155z" />
<glyph unicode="&#xf8;" horiz-adv-x="600" d="M0 -9l64 61q-37 44 -37 109q0 105 68 197q87 116 255 116q70 0 128 -24l79 75l44 -45l-69 -67q43 -43 43 -111q0 -46 -18.5 -100.5t-49.5 -97.5q-82 -117 -256 -117q-69 0 -132 25l-74 -71zM193 170l194 202q-16 16 -40 16q-57 0 -100 -61t-54 -157zM209 92 q22 -21 49 -21q38 0 71.5 33.5t57.5 95.5q16 42 25 105z" />
<glyph unicode="&#xf9;" horiz-adv-x="596" d="M312 522l-106 145h150l88 -145h-132zM34 114q0 37 16 89l78 257h170l-85 -279q-9 -29 -9 -48t11 -30t29 -11q26 0 52 20t43 53q18 34 38 100l59 195h170l-141 -460h-159l24 76q-74 -89 -172 -89q-57 0 -90.5 34.5t-33.5 92.5z" />
<glyph unicode="&#xfa;" horiz-adv-x="596" d="M316 523l115 144h153l-137 -144h-131zM34 114q0 37 16 89l78 257h170l-85 -279q-9 -29 -9 -48t11 -30t29 -11q26 0 52 20t43 53q18 34 38 100l59 195h170l-141 -460h-159l24 76q-74 -89 -172 -89q-57 0 -90.5 34.5t-33.5 92.5z" />
<glyph unicode="&#xfb;" horiz-adv-x="596" d="M190 522l154 145h182l56 -145h-124l-37 80l-98 -80h-133zM34 114q0 37 16 89l78 257h170l-85 -279q-9 -29 -9 -48t11 -30t29 -11q26 0 52 20t43 53q18 34 38 100l59 195h170l-141 -460h-159l24 76q-74 -89 -172 -89q-57 0 -90.5 34.5t-33.5 92.5z" />
<glyph unicode="&#xfc;" horiz-adv-x="596" d="M435 527l42 136h132l-42 -136h-132zM223 527l42 136h133l-42 -136h-133zM34 114q0 37 16 89l78 257h170l-85 -279q-9 -29 -9 -48t11 -30t29 -11q26 0 52 20t43 53q18 34 38 100l59 195h170l-141 -460h-159l24 76q-74 -89 -172 -89q-57 0 -90.5 34.5t-33.5 92.5z" />
<glyph unicode="&#xfd;" horiz-adv-x="564" d="M285 523l115 144h153l-137 -144h-131zM167 -8l-114 468h176l51 -274l161 274h173l-272 -447l-99 -180h-176z" />
<glyph unicode="&#xfe;" horiz-adv-x="603" d="M-60 -167l255 834h166l-82 -267q65 74 149 74q69 0 110.5 -44t41.5 -116q0 -47 -19 -107.5t-49 -108.5q-69 -111 -196 -111q-95 0 -139 65l-67 -219h-170zM206 152q0 -34 17 -55t45 -21q56 0 94 72q48 87 48 155q0 35 -18 56t-48 21q-58 0 -99 -83q-39 -82 -39 -145z" />
<glyph unicode="&#xff;" horiz-adv-x="564" d="M395 527l42 136h132l-42 -136h-132zM183 527l42 136h133l-42 -136h-133zM167 -8l-114 468h176l51 -274l161 274h173l-272 -447l-99 -180h-176z" />
<glyph unicode="&#x152;" horiz-adv-x="1018" d="M126 60q-62 62 -62 166q0 91 40 192.5t101 163.5q47 49 115 71t171 22q32 0 121 -6q20 -2 100 -2h382l-36 -120h-295l-45 -147h282l-37 -120h-282l-49 -160h316l-37 -120h-383q-79 0 -140 -6q-26 -2 -45 -2q-147 0 -217 68zM240 239q0 -69 34.5 -107t98.5 -38q49 0 95 17 l137 448q-65 14 -102 14q-151 0 -219 -154q-44 -98 -44 -180z" />
<glyph unicode="&#x153;" horiz-adv-x="900" d="M26 154q0 53 22 113.5t57 104.5q82 102 233 102q121 0 167 -66q63 65 176 65q92 0 145.5 -42t53.5 -115q0 -46 -26 -120h-344q-9 -32 -9 -53q0 -29 21 -48t52 -19q69 0 91 77h177q-56 -166 -255 -166q-131 0 -189 73q-64 -73 -177 -73q-89 0 -142 45.5t-53 121.5z M196 153q0 -36 15.5 -56.5t43.5 -20.5q69 0 110 116q26 73 26 129q0 64 -59 64q-48 0 -86 -65q-20 -34 -35 -84.5t-15 -82.5zM539 286h167q8 25 8 38q0 25 -19 42.5t-47 17.5q-35 0 -63.5 -25.5t-45.5 -72.5z" />
<glyph unicode="&#x178;" horiz-adv-x="684" d="M521 727l42 136h132l-42 -136h-132zM302 727l42 136h133l-42 -136h-133zM176 0l72 237l-130 430h187l72 -291l227 291h204l-375 -438l-71 -229h-186z" />
<glyph unicode="&#x2c6;" horiz-adv-x="500" d="M142 522l154 145h182l56 -145h-124l-37 80l-98 -80h-133z" />
<glyph unicode="&#x2dc;" horiz-adv-x="500" d="M166 528q14 56 29 84q29 59 91 59q34 0 78 -23q40 -21 55 -21t22 8t16 36h96q-16 -74 -45 -108.5t-74 -34.5q-35 0 -84 25q-36 19 -51 19q-13 0 -20.5 -9t-15.5 -35h-97z" />
<glyph unicode="&#x2000;" horiz-adv-x="452" />
<glyph unicode="&#x2001;" horiz-adv-x="905" />
<glyph unicode="&#x2002;" horiz-adv-x="452" />
<glyph unicode="&#x2003;" horiz-adv-x="905" />
<glyph unicode="&#x2004;" horiz-adv-x="301" />
<glyph unicode="&#x2005;" horiz-adv-x="226" />
<glyph unicode="&#x2006;" horiz-adv-x="150" />
<glyph unicode="&#x2007;" horiz-adv-x="150" />
<glyph unicode="&#x2008;" horiz-adv-x="113" />
<glyph unicode="&#x2009;" horiz-adv-x="181" />
<glyph unicode="&#x200a;" horiz-adv-x="50" />
<glyph unicode="&#x2010;" horiz-adv-x="265" d="M-12 188l33 108h265l-33 -108h-265z" />
<glyph unicode="&#x2011;" horiz-adv-x="265" d="M-12 188l33 108h265l-33 -108h-265z" />
<glyph unicode="&#x2013;" horiz-adv-x="641" d="M39 188l33 108h538l-33 -108h-538z" />
<glyph unicode="&#x2014;" horiz-adv-x="793" d="M-12 188l33 108h793l-33 -108h-793z" />
<glyph unicode="&#x2018;" horiz-adv-x="305" d="M114 460l150 207h132l-119 -207h-163z" />
<glyph unicode="&#x2019;" horiz-adv-x="299" d="M121 460l119 207h163l-150 -207h-132z" />
<glyph unicode="&#x201a;" horiz-adv-x="302" d="M-49 -83l120 206h165l-151 -206h-134z" />
<glyph unicode="&#x201c;" horiz-adv-x="520" d="M327 460l150 207h134l-120 -207h-164zM114 460l151 207h134l-121 -207h-164z" />
<glyph unicode="&#x201d;" horiz-adv-x="519" d="M325 460l120 207h165l-152 -207h-133zM114 460l119 207h163l-150 -207h-132z" />
<glyph unicode="&#x201e;" horiz-adv-x="519" d="M159 -83l120 206h165l-152 -206h-133zM-52 -83l119 206h163l-150 -206h-132z" />
<glyph unicode="&#x2022;" horiz-adv-x="667" d="M335 200q-57 0 -98 40.5t-41 97.5q0 58 41 98.5t100 40.5q55 0 95.5 -41t40.5 -97q0 -58 -40.5 -98.5t-97.5 -40.5z" />
<glyph unicode="&#x2026;" horiz-adv-x="820" d="M532 0l37 123h164l-38 -123h-163zM258 0l38 123h163l-37 -123h-164zM-15 0l38 123h163l-38 -123h-163z" />
<glyph unicode="&#x202f;" horiz-adv-x="181" />
<glyph unicode="&#x2039;" horiz-adv-x="311" d="M87 28l-60 201l140 223h141l-131 -229l39 -195h-129z" />
<glyph unicode="&#x203a;" horiz-adv-x="311" d="M10 28l130 229l-38 195h129l60 -201l-140 -223h-141z" />
<glyph unicode="&#x205f;" horiz-adv-x="226" />
<glyph unicode="&#x20ac;" horiz-adv-x="816" d="M216 46q-68 63 -68 171q0 33 5 63h-101l80 110h47q21 61 57 120q109 174 339 174q153 0 213 -75q35 -43 35 -102q0 -19 -7 -53h-177q7 21 7 37q0 32 -23.5 52.5t-61.5 20.5q-121 0 -193 -174h181l-80 -110h-132q-6 -34 -6 -60q0 -52 28.5 -84.5t74.5 -32.5 q43 0 76.5 24.5t49.5 67.5h190q-28 -99 -117 -155.5t-217 -56.5q-131 0 -200 63z" />
<glyph unicode="&#x2122;" horiz-adv-x="938" d="M409 287l116 380h168l12 -216l146 216h172l-104 -380h-114l74 264l-178 -264h-92l-13 287l-87 -287h-100zM144 287l93 306h-127l23 74h353l-23 -74h-111l-93 -306h-115z" />
</font>
</defs>
</svg>
