<?xml version="1.0" standalone="no"?>
<!DOCTYPE svg PUBLIC "-//W3C//DTD SVG 1.1//EN" "http://www.w3.org/Graphics/SVG/1.1/DTD/svg11.dtd" >
<svg xmlns="http://www.w3.org/2000/svg">
<metadata>
This is a custom SVG webfont generated by Fontspring.
Designer    : FontSite.com
Foundry URL : http://www.fontsite.com
</metadata>
<defs>
<font id="webfont" horiz-adv-x="500" >
<font-face units-per-em="1000" ascent="800" descent="-200" />
<missing-glyph horiz-adv-x="300" />
<glyph unicode=" "  horiz-adv-x="300" />
<glyph unicode="&#x09;" horiz-adv-x="300" />
<glyph unicode="&#xa0;" horiz-adv-x="300" />
<glyph unicode="!" horiz-adv-x="279" d="M108 152l-21 515h105l-17 -515h-67zM99 0v95h86v-95h-86z" />
<glyph unicode="&#x22;" horiz-adv-x="349" d="M221 400l-15 267h98l-15 -267h-68zM60 400l-15 267h99l-16 -267h-68z" />
<glyph unicode="#" horiz-adv-x="612" d="M159 34l27 194h-121l6 46h121l16 109h-121l6 46h121l25 178h48l-26 -178h115l25 178h47l-25 -178h125l-6 -46h-125l-16 -109h125l-6 -46h-125l-27 -194h-48l28 194h-115l-27 -194h-47zM240 274h114l15 109h-114z" />
<glyph unicode="$" horiz-adv-x="740" d="M163 16q-47 22 -74 66.5t-27 99.5v11h100q4 -46 17 -69.5t42 -38.5q53 -30 112 -30q9 0 15 1v239q-119 16 -166 36q-105 43 -105 148q0 55 35 100t97 70q47 18 139 27v93h44v-93q137 -10 198.5 -55t62.5 -137h-101q0 52 -43.5 83.5t-116.5 31.5v-220q132 -19 171 -34 q114 -43 114 -158q0 -125 -133 -178q-51 -21 -152 -28v-96h-44v96q-120 3 -185 35zM254 400q28 -8 94 -17v216q-79 -1 -125.5 -31.5t-46.5 -80.5q0 -63 78 -87zM392 56q57 1 108 22q79 30 79 101q0 31 -16.5 54.5t-43.5 32.5q-40 12 -127 24v-234z" />
<glyph unicode="%" horiz-adv-x="868" d="M201 320q-72 0 -120 51t-48 127t49 128.5t120 52.5q70 0 118 -53t48 -131q0 -74 -48.5 -124.5t-118.5 -50.5zM226 0l363 667h57l-361 -667h-59zM201 373q46 0 73 33t27 90q0 60 -27 95.5t-73 35.5q-45 0 -72.5 -35.5t-27.5 -93.5t26.5 -91.5t73.5 -33.5zM499 160 q0 76 49 128.5t120 52.5t119 -53t48 -131q0 -73 -48.5 -124t-119.5 -51q-72 0 -120 51t-48 127zM567 160q0 -58 27 -91.5t74 -33.5q46 0 73 33t27 90q0 60 -27.5 95.5t-73.5 35.5q-45 0 -72.5 -35.5t-27.5 -93.5z" />
<glyph unicode="&#x26;" horiz-adv-x="715" d="M128 40q-34 19 -54.5 59t-20.5 84q0 46 20.5 83t56.5 56q29 15 79 23q-127 36 -127 149q0 54 29 93.5t82 59.5q55 20 154 20h207v-70h-205q-170 0 -170 -107q0 -36 20.5 -64t53.5 -36q49 -11 151 -11h131v100h95v-98h58v-72h-58v-309h-265q-169 0 -237 40zM202 95 q42 -25 169 -25h164v239h-128q-100 0 -141 -5t-66 -21q-48 -31 -48 -92q0 -66 50 -96z" />
<glyph unicode="'" horiz-adv-x="191" d="M60 400l-15 267h101l-15 -267h-71z" />
<glyph unicode="(" horiz-adv-x="336" d="M104 56q-37 106 -37 203q0 98 37 204q16 44 31 73t64 111l12 20h65q-62 -136 -78 -182q-42 -123 -42 -226q0 -113 51 -248q12 -34 69 -159h-65l-12 20q-47 77 -63 108t-32 76z" />
<glyph unicode=")" horiz-adv-x="336" d="M138 34q42 119 42 226q0 112 -51 248q-16 45 -69 159h65l12 -20q50 -83 65 -112t31 -72q36 -103 36 -204q0 -138 -64 -271q-14 -30 -80 -136h-65q60 129 78 182z" />
<glyph unicode="*" horiz-adv-x="518" d="M183 303l-68 48l94 114l-142 33l25 80l136 -54l-11 143h85l-11 -143l134 54l26 -76l-142 -37l95 -114l-66 -48l-79 125z" />
<glyph unicode="+" d="M225 126v194h-204v48h204v194h49v-194h206v-48h-206v-194h-49z" />
<glyph unicode="," horiz-adv-x="230" d="M22 -81l45 176h100l-83 -176h-62z" />
<glyph unicode="-" horiz-adv-x="285" d="M0 221v51h285v-51h-285z" />
<glyph unicode="." horiz-adv-x="230" d="M72 0v95h86v-95h-86z" />
<glyph unicode="/" horiz-adv-x="429" d="M33 -121l294 788h62l-290 -788h-66z" />
<glyph unicode="0" horiz-adv-x="740" d="M116 97q-72 97 -72 231q0 138 72 233q87 116 259 116q144 0 232.5 -96t88.5 -252q0 -137 -72 -232q-85 -116 -254 -116q-170 0 -254 116zM185 142q27 -40 76.5 -63.5t108.5 -23.5t108.5 23.5t75.5 63.5q49 73 49 187q0 116 -49 187q-26 40 -75 63.5t-105 23.5 q-129 0 -189 -87q-48 -72 -48 -188q0 -112 48 -186z" />
<glyph unicode="1" horiz-adv-x="740" d="M399 0v568q-69 -63 -189 -113v78q92 50 128 73t79 61h68v-667h-86z" />
<glyph unicode="2" horiz-adv-x="740" d="M88 0v90q21 15 27 17l67 39q75 44 155 101t118 93q73 72 73 136q0 57 -46.5 93t-121.5 36q-80 0 -121 -31.5t-48 -99.5h-97q1 52 17 86t51 63q68 54 194 54q131 0 203 -59q29 -23 46.5 -62.5t17.5 -79.5q0 -73 -56.5 -142.5t-181.5 -150.5q-87 -57 -194 -110h461v-73 h-564z" />
<glyph unicode="3" horiz-adv-x="740" d="M80 160q0 7 1 12h89q12 -55 44 -80q48 -39 151 -39q93 0 144 34.5t51 96.5q0 95 -129 117q-43 7 -133 7v66q111 3 136 8q53 10 82 37t29 68q0 54 -48.5 86t-130.5 32q-163 0 -181 -113h-92q1 46 18 77t54 57q73 51 207 51q121 0 196.5 -51.5t75.5 -133.5q0 -56 -39 -95 t-110 -55q59 -16 92 -36q71 -44 71 -126q0 -90 -89 -148q-80 -51 -215 -51q-127 0 -200.5 48t-73.5 131z" />
<glyph unicode="4" horiz-adv-x="740" d="M24 160v83l391 424h121v-436h153v-71h-153v-160h-88v160h-424zM114 231h334v363z" />
<glyph unicode="5" horiz-adv-x="740" d="M131 69q-32 42 -33 107h102q18 -123 171 -123q95 0 148.5 42t53.5 115q0 69 -40 111q-49 49 -150 49q-143 0 -180 -99h-88l17 396h494v-71h-408l-15 -227q67 76 201 76q119 0 191.5 -63.5t72.5 -167.5q0 -110 -79.5 -171.5t-221.5 -61.5q-168 0 -236 88z" />
<glyph unicode="6" horiz-adv-x="740" d="M133 80q-55 72 -55 220q0 377 317 377q141 0 212 -77q37 -41 38 -113h-92q-5 52 -28 76q-43 43 -134 43q-103 0 -160 -67.5t-59 -192.5q88 98 223 98q117 0 192 -62t75 -159q0 -107 -81.5 -174.5t-209.5 -67.5q-78 0 -140 26t-98 73zM179 213q0 -73 50.5 -116t136.5 -43 q93 0 147 44.5t54 121.5q0 71 -49 112t-134 41q-95 0 -150 -43t-55 -117z" />
<glyph unicode="7" horiz-adv-x="740" d="M217 0l328 595h-448v72h547v-72l-314 -595h-113z" />
<glyph unicode="8" horiz-adv-x="740" d="M69 175q0 86 77 135q36 22 87 37q-48 14 -72 30q-33 20 -52 54.5t-19 72.5q0 80 75 126.5t205 46.5q129 0 204 -46.5t75 -126.5q0 -38 -19 -72.5t-52 -54.5q-24 -16 -72 -30q51 -15 87 -37q77 -49 77 -135q0 -88 -82 -141t-219 -53t-218.5 53t-81.5 141zM185 495 q0 -55 47.5 -84t136.5 -29q90 0 137.5 29.5t47.5 84.5q0 110 -181 110q-188 0 -188 -111zM166 185q0 -77 77 -109q54 -23 126 -23q86 0 145 32q59 33 59 99q0 59 -52.5 92.5t-146.5 33.5q-110 0 -161 -37q-47 -35 -47 -88z" />
<glyph unicode="9" horiz-adv-x="740" d="M125 65q-30 40 -31 104h91q7 -45 29 -67q50 -50 146 -50q57 0 103 23.5t68 64.5q38 69 38 168q0 16 -1 29q-24 -39 -48 -58q-63 -49 -169 -49q-107 0 -186 51q-85 56 -85 168q0 105 76.5 166.5t208.5 61.5q173 0 243 -107q53 -83 53 -245q0 -344 -303 -344 q-79 0 -141.5 22.5t-91.5 61.5zM359 301q87 0 139 42t52 112q0 68 -50.5 109.5t-135.5 41.5q-88 0 -139 -41t-51 -112q0 -70 50 -111t135 -41z" />
<glyph unicode=":" horiz-adv-x="230" d="M72 372v95h86v-95h-86zM72 0v95h86v-95h-86z" />
<glyph unicode=";" horiz-adv-x="230" d="M74 372v95h86v-95h-86zM22 -81l45 176h100l-83 -176h-62z" />
<glyph unicode="&#x3c;" d="M33 296v79l433 209v-92l-335 -157l335 -157v-91z" />
<glyph unicode="=" d="M21 393v46h459v-46h-459zM21 249v47h459v-47h-459z" />
<glyph unicode="&#x3e;" d="M34 87v92l335 157l-335 157v91l433 -209v-79z" />
<glyph unicode="?" horiz-adv-x="488" d="M146 149v64q0 48 9.5 64.5t60.5 61.5l45 39q47 41 64 68t17 62q0 55 -39 84t-111 29q-70 0 -159 -22v68q96 17 174 17q108 0 167.5 -44.5t59.5 -124.5q0 -51 -27.5 -93.5t-87.5 -84.5l-46 -32q-38 -26 -47.5 -43.5t-9.5 -60.5v-52h-70zM138 0v95h86v-95h-86z" />
<glyph unicode="@" horiz-adv-x="687" d="M27 231q0 140 97 237.5t237 97.5q125 0 211.5 -79t86.5 -194t-86 -186q-62 -51 -122 -51q-59 0 -68 53q-53 -53 -108 -53q-47 0 -76.5 34t-29.5 88q0 87 59 159.5t130 72.5q64 0 91 -61l17 46h50l-80 -236q-9 -25 -9 -41q0 -32 37 -32q49 0 97 50q63 63 63 154 q0 103 -75.5 173t-186.5 70q-125 0 -211 -87.5t-86 -214.5q0 -125 85 -211t208 -86q77 0 145 39t105 103l38 -1q-35 -78 -115.5 -126.5t-174.5 -48.5q-137 0 -233 96.5t-96 234.5zM223 163q0 -36 16 -57t44 -21q40 0 70 32q21 22 42 78l23 63q12 32 12 54q0 28 -17.5 48 t-42.5 20q-53 0 -100 -69t-47 -148z" />
<glyph unicode="A" horiz-adv-x="833" d="M12 0l352 667h106l351 -667h-109l-89 172h-422l-86 -172h-103zM240 247h346l-174 344z" />
<glyph unicode="B" horiz-adv-x="732" d="M85 0v667h294q117 0 176 -22q102 -40 102 -150q0 -114 -128 -149q151 -26 151 -159q0 -134 -130 -171q-58 -16 -188 -16h-277zM180 384h178q109 0 138 10q64 21 64 95q0 71 -68 93q-26 9 -123 9h-189v-207zM180 76h194q105 0 141 14q68 26 68 102q0 83 -80 106 q-33 9 -123 9h-200v-231z" />
<glyph unicode="C" horiz-adv-x="742" d="M52 327q0 169 94.5 264t262.5 95q146 0 231 -76q29 -25 41.5 -52t16.5 -70h-101q-3 45 -37 74q-57 46 -156 46q-121 0 -187 -71.5t-66 -203.5q0 -134 66 -204.5t191 -70.5q115 0 163 50q22 22 36 75h100q-5 -74 -48 -118q-79 -84 -257 -84q-170 0 -260 89t-90 257z" />
<glyph unicode="D" horiz-adv-x="808" d="M85 0v667h260q173 0 255 -44q74 -40 114.5 -116t40.5 -174q0 -101 -43 -178.5t-120 -115.5q-78 -39 -239 -39h-268zM180 76h172q158 0 218 49q87 71 87 213q0 165 -121 222q-63 31 -192 31h-164v-515z" />
<glyph unicode="E" horiz-adv-x="657" d="M85 0v667h505v-76h-410v-211h380v-78h-380v-226h425v-76h-520z" />
<glyph unicode="F" horiz-adv-x="632" d="M85 0v667h495v-76h-400v-213h381v-77h-381v-301h-95z" />
<glyph unicode="G" horiz-adv-x="808" d="M172 50q-58 42 -89 113t-31 161q0 169 104 265.5t285 96.5q168 0 253 -79q27 -24 38.5 -50t16.5 -69h-100q-9 49 -38 73q-56 49 -173 49q-139 0 -213 -73t-74 -210q0 -135 74 -204q73 -68 216 -68q114 0 217 37v182h-212v76h303v-319q-156 -50 -308 -50q-176 0 -269 69z " />
<glyph unicode="H" horiz-adv-x="815" d="M85 0v667h95v-282h454v282h95v-667h-95v309h-454v-309h-95z" />
<glyph unicode="I" horiz-adv-x="266" d="M85 0v667h95v-667h-95z" />
<glyph unicode="J" horiz-adv-x="626" d="M12 170q0 10 1 18h102q-1 -3 -1 -8q0 -57 42.5 -89.5t117.5 -32.5q127 0 159 99q13 40 13 140v370h95v-370q0 -86 -4.5 -121t-18.5 -67q-26 -59 -92.5 -93.5t-154.5 -34.5q-116 0 -187.5 52t-71.5 137z" />
<glyph unicode="K" horiz-adv-x="722" d="M183 369l360 298h129l-368 -294l406 -373h-141zM85 0v667h95v-667h-95z" />
<glyph unicode="L" horiz-adv-x="592" d="M85 0v667h95v-591h399v-76h-494z" />
<glyph unicode="M" horiz-adv-x="1043" d="M85 0v667h158l277 -566l279 566h159v-667h-92v611l-301 -611h-95l-303 611v-611h-82z" />
<glyph unicode="N" horiz-adv-x="812" d="M85 0v667h134l424 -572v572h83v-667h-125l-434 585v-585h-82z" />
<glyph unicode="O" horiz-adv-x="829" d="M138 89q-86 91 -86 244q0 156 86 245q105 108 280 108q161 0 260 -97t99 -256t-99.5 -255.5t-263.5 -96.5q-174 0 -276 108zM151 333q0 -128 69 -201t191 -73q124 0 196 74t72 200t-72 200.5t-194 74.5q-124 0 -193 -72t-69 -203z" />
<glyph unicode="P" horiz-adv-x="683" d="M85 0v667h238q51 0 109 -3q65 -2 103.5 -15t66.5 -41q49 -47 49 -123q0 -54 -24.5 -97.5t-66.5 -64.5q-59 -30 -174 -29l-63 1h-143v-295h-95zM177 371h143q94 0 121 2.5t50 11.5q63 26 63 98t-76 96q-37 12 -153 12h-148v-220z" />
<glyph unicode="Q" horiz-adv-x="842" d="M167 62q-54 46 -84.5 119t-30.5 154q0 155 101 253t261 98q159 0 260.5 -97.5t101.5 -250.5q0 -128 -76 -215q-38 -43 -98 -75q42 15 73.5 18.5t116.5 3.5h80v-77h-166q-79 0 -201 -8q-48 -4 -103 -4q-141 0 -235 81zM152 334q0 -131 69.5 -205t191.5 -74q128 0 199 86 q66 83 66 198q0 119 -72 194t-185 75q-123 0 -196 -74.5t-73 -199.5z" />
<glyph unicode="R" horiz-adv-x="746" d="M85 0v667h284q131 0 187 -18t86.5 -59.5t30.5 -100.5q0 -58 -38.5 -100.5t-104.5 -56.5q64 -10 88 -49.5t41 -158.5q8 -58 13.5 -77.5t20.5 -46.5h-101q-14 44 -22 96q-18 108 -26 132q-10 28 -33.5 46.5t-55.5 22.5q-29 3 -97 3h-182v-300h-91zM176 375h185 q113 0 144 10q34 11 53 37t19 61q0 60 -47.5 84t-165.5 24h-188v-216z" />
<glyph unicode="S" horiz-adv-x="730" d="M52 194h99q7 -136 205 -136q107 0 165.5 32t58.5 91q0 70 -82 92q-30 9 -94 17l-64 8q-104 13 -157 33q-114 45 -114 155q0 93 81 146.5t221 53.5q153 0 227 -62q28 -23 41 -53.5t17 -80.5h-104q-1 32 -11 51t-36 36q-51 33 -140 33q-91 0 -144.5 -31.5t-53.5 -84.5 q0 -30 19 -52.5t53 -33.5q36 -11 93 -18l77 -10q113 -14 164 -36q105 -45 105 -157q0 -99 -85 -152.5t-243 -53.5q-152 0 -224.5 52t-73.5 161z" />
<glyph unicode="T" horiz-adv-x="702" d="M306 0v591h-294v76h678v-76h-294v-591h-90z" />
<glyph unicode="U" horiz-adv-x="815" d="M116 122q-31 59 -31 226v319h91v-319q0 -147 31 -198q60 -94 201 -94q80 0 136 28.5t79 80.5q20 46 20 154v348h87v-348q0 -85 -9.5 -129.5t-35.5 -84.5q-40 -60 -114 -92t-172 -32q-100 0 -173.5 36.5t-109.5 104.5z" />
<glyph unicode="V" horiz-adv-x="771" d="M332 0l-320 667h107l275 -583l273 583h92l-315 -667h-112z" />
<glyph unicode="W" horiz-adv-x="1222" d="M273 0l-261 667h103l223 -586l215 586h117l224 -591l221 591h95l-256 -667h-124l-221 575l-213 -575h-123z" />
<glyph unicode="X" horiz-adv-x="806" d="M12 0l331 350l-310 317h119l245 -260l239 260h129l-307 -323l336 -344h-119l-271 287l-261 -287h-131z" />
<glyph unicode="Y" horiz-adv-x="772" d="M342 0v276l-338 391h128l259 -314l260 314h116l-335 -391v-276h-90z" />
<glyph unicode="Z" horiz-adv-x="706" d="M42 0v95l497 501h-483v71h593v-94l-496 -492h511v-81h-622z" />
<glyph unicode="[" horiz-adv-x="328" d="M87 -148v815h175v-58h-91v-699h91v-58h-175z" />
<glyph unicode="\" horiz-adv-x="429" d="M330 -121l-290 788h61l295 -788h-66z" />
<glyph unicode="]" horiz-adv-x="328" d="M67 -90h91v699h-91v58h175v-815h-175v58z" />
<glyph unicode="^" d="M28 369l170 300h104l170 -300h-86l-137 237l-136 -237h-85z" />
<glyph unicode="_" d="M0 -68h500v-59h-500v59z" />
<glyph unicode="`" d="M303 527l-177 153h116l133 -153h-72z" />
<glyph unicode="a" horiz-adv-x="625" d="M57 134q0 58 38.5 95.5t110.5 50.5q54 9 160 9h91q-1 54 -8 71q-22 61 -142 61q-119 0 -128 -80h-89q1 69 69 107q60 33 157 33q70 0 122 -18.5t76 -52.5q27 -38 27 -130v-280h-84v56q-41 -39 -83 -54.5t-106 -15.5q-97 0 -154 40t-57 108zM150 137q0 -41 36 -65t100 -24 q85 0 128.5 40.5t43.5 118.5q0 13 -1 23h-111q-69 0 -107 -8q-89 -17 -89 -85z" />
<glyph unicode="b" horiz-adv-x="682" d="M84 0l1 667h83v-276q36 42 77 62q63 29 129 29q110 0 183.5 -68.5t73.5 -171.5q0 -112 -76 -184t-193 -72q-55 0 -97.5 15.5t-96.5 55.5v-57h-84zM165 230q0 -83 49.5 -133t131.5 -50q86 0 140 51.5t54 134.5q0 80 -51.5 132.5t-129.5 52.5q-87 0 -143 -57 q-51 -54 -51 -131z" />
<glyph unicode="c" horiz-adv-x="593" d="M51 231q0 113 75 181.5t199 68.5q130 0 189 -67q30 -34 39 -99h-85q-3 51 -41 80.5t-101 29.5q-84 0 -135 -50.5t-51 -133.5q0 -86 50.5 -139.5t131.5 -53.5q60 0 96.5 28t44.5 79l87 -1q-9 -61 -41 -95q-65 -73 -189 -73q-119 0 -194 68t-75 177z" />
<glyph unicode="d" horiz-adv-x="684" d="M133 46q-82 68 -82 182q0 123 79 187q80 66 197 66q58 0 102 -17.5t87 -57.5v261h85v-667h-86v66q-49 -46 -91 -63t-109 -17q-109 0 -182 60zM137 233q0 -80 53.5 -132t135.5 -52q87 0 137 51t50 140q0 79 -46 125q-22 23 -58 37t-73 14q-90 0 -145 -55q-54 -54 -54 -128 z" />
<glyph unicode="e" horiz-adv-x="628" d="M149 145q35 -99 169 -99q133 0 151 92h92q-4 -36 -16.5 -58.5t-41.5 -43.5q-70 -50 -191 -50q-126 0 -193.5 60.5t-67.5 173.5q0 121 68 186q78 76 208 76q81 0 141.5 -32t85.5 -89q23 -49 24 -150h-438q0 -41 9 -66zM146 271h341q-3 52 -22 84q-19 31 -58 48.5t-87 17.5 q-77 0 -122 -39t-52 -111z" />
<glyph unicode="f" horiz-adv-x="384" d="M132 0v410h-115v57h115v39q0 88 26 120q44 52 140 52q32 0 74 -9v-62q-42 5 -64 5q-58 0 -76 -32q-14 -22 -14 -80v-33h145v-57h-145v-410h-86z" />
<glyph unicode="g" horiz-adv-x="678" d="M72 -27h92q5 -51 39 -72t110 -21q79 0 123 23t61 74q14 39 14 132q-68 -94 -209 -94q-115 0 -182.5 58.5t-67.5 157.5q0 111 74 181t192 70q122 0 193 -72v57h87v-352q0 -83 -8.5 -128t-29.5 -76q-65 -94 -256 -94q-148 0 -200 58q-29 32 -32 98zM141 237 q0 -74 47.5 -117.5t129.5 -43.5q88 0 142.5 51.5t54.5 134.5q0 78 -55 120q-54 42 -129 42q-85 0 -137.5 -52t-52.5 -135z" />
<glyph unicode="h" horiz-adv-x="662" d="M84 0v667h86v-284q63 98 196 98q70 0 123 -29t75 -79q17 -39 17 -154v-219h-86v212q0 72 -2 94t-11 42q-14 34 -48.5 52.5t-81.5 18.5q-59 0 -103.5 -29.5t-60.5 -78.5q-18 -53 -18 -180v-131h-86z" />
<glyph unicode="i" horiz-adv-x="254" d="M84 577v90h86v-90h-86zM84 0v467h86v-467h-86z" />
<glyph unicode="j" horiz-adv-x="254" d="M84 577v90h86v-90h-86zM84 30v437h86v-443q0 -76 -4 -107t-15 -50q-31 -50 -138 -50q-23 0 -55 4l3 68q30 -1 45 -1q58 0 69 27q3 8 4.5 11t2.5 15t1.5 32t0.5 57z" />
<glyph unicode="k" horiz-adv-x="612" d="M84 0v667h86v-667h-86zM171 263l269 204h128l-270 -203l309 -264h-135z" />
<glyph unicode="l" horiz-adv-x="254" d="M84 0v667h86v-667h-86z" />
<glyph unicode="m" horiz-adv-x="1021" d="M84 0v467h86v-73q60 87 181 87q66 0 114 -26.5t71 -76.5q68 103 194 103q63 0 112.5 -24t72.5 -66q15 -26 20 -57t5 -96v-238h-85v203q0 115 -20 155q-32 61 -117 61q-54 0 -94 -24t-54 -66q-17 -50 -17 -160v-169h-85v180q0 130 -16 169q-31 72 -119 72q-56 0 -97 -29.5 t-56 -80.5q-10 -36 -10 -131v-180h-86z" />
<glyph unicode="n" horiz-adv-x="666" d="M84 0v467h86v-78q68 92 194 92q71 0 124.5 -27t75.5 -75q21 -43 21 -157v-222h-86v222q0 98 -24 139q-35 57 -127 57q-61 0 -104 -29t-60 -80q-14 -45 -14 -170v-139h-86z" />
<glyph unicode="o" horiz-adv-x="684" d="M51 233q0 118 78 183t218 65q134 0 210.5 -66.5t76.5 -181.5q0 -116 -77.5 -181.5t-213.5 -65.5q-137 0 -214.5 65.5t-77.5 181.5zM140 233q0 -87 54.5 -137.5t148.5 -50.5t148 50.5t54 137.5q0 85 -48 133q-58 56 -152 56q-97 0 -151 -50t-54 -139z" />
<glyph unicode="p" horiz-adv-x="681" d="M170 49v-226h-86l1 637l85 2l-1 -70q49 51 92.5 70t110.5 19q112 0 186 -70q73 -70 73 -174q0 -113 -75 -182t-198 -69q-58 0 -100.5 14t-87.5 49zM163 238q0 -84 55 -138t141 -54q83 0 134 51.5t51 135.5q0 86 -49.5 137.5t-132.5 51.5q-89 0 -144 -50.5t-55 -133.5z " />
<glyph unicode="q" horiz-adv-x="684" d="M51 223q0 116 77 187t201 71q62 0 104.5 -17.5t81.5 -58.5l1 58h84l1 -639h-85v253q-32 -37 -57 -54q-57 -38 -145 -38q-113 0 -188 67.5t-75 170.5zM139 235q0 -86 50.5 -137t136.5 -51t139.5 52t53.5 136q0 81 -53.5 134t-135.5 53q-95 0 -147 -62q-44 -52 -44 -125z " />
<glyph unicode="r" horiz-adv-x="410" d="M84 0v467h86v-93q33 52 72.5 75t94.5 23q20 0 49 -5v-77q-28 6 -50 6q-92 0 -136 -65q-30 -44 -30 -185v-146h-86z" />
<glyph unicode="s" horiz-adv-x="559" d="M81 41q-34 34 -37 96h93q9 -49 43 -71.5t101 -22.5q66 0 104 22.5t38 62.5q0 31 -24.5 45.5t-89.5 23.5l-64 9q-78 12 -114 28q-71 31 -71 101q0 68 59.5 107t163.5 39q117 0 174 -46q37 -28 38 -94h-86q-4 35 -22 50q-35 30 -111 30q-57 0 -91.5 -19.5t-34.5 -51.5 q0 -28 23.5 -43t80.5 -23l68 -10q93 -14 127 -32q66 -34 66 -101q0 -76 -62 -115.5t-180 -39.5q-140 0 -192 55z" />
<glyph unicode="t" horiz-adv-x="372" d="M161 19q-19 20 -23.5 44t-4.5 99v248h-116v57h116v81l85 36v-117h136v-57h-136v-248q0 -69 12.5 -90t53.5 -21q29 0 70 10v-65q-38 -10 -77 -10q-84 0 -116 33z" />
<glyph unicode="u" horiz-adv-x="647" d="M105 77q-15 26 -19.5 54.5t-4.5 92.5v243h84v-193q0 -96 2 -116.5t13 -42.5q33 -67 129 -67q122 0 156 105q16 50 16 121v193h82v-467h-82v84q-24 -39 -48 -58q-52 -40 -141 -40q-135 0 -187 91z" />
<glyph unicode="v" horiz-adv-x="619" d="M253 0l-236 467h101l198 -386l196 386h89l-233 -467h-115z" />
<glyph unicode="w" horiz-adv-x="1014" d="M224 0l-207 467h95l169 -389l172 389h108l182 -389l167 389h87l-205 -467h-105l-181 392l-177 -392h-105z" />
<glyph unicode="x" horiz-adv-x="631" d="M17 0l237 245l-215 222h120l162 -168l161 168h110l-214 -222l236 -245h-121l-186 192l-180 -192h-110z" />
<glyph unicode="y" horiz-adv-x="622" d="M169 -171l96 179l-248 459h100l200 -368l199 368h88l-343 -638h-92z" />
<glyph unicode="z" horiz-adv-x="533" d="M41 0v76l344 334h-326v57h423v-80l-336 -327h347v-60h-452z" />
<glyph unicode="{" d="M185 -39v156q0 43 -12.5 64t-44.5 31v71q31 8 44 29t13 62v169q0 72 34 105q35 32 135 32q10 0 17 -1v-82q-56 -1 -75.5 -19.5t-19.5 -70.5v-147q0 -48 -12 -73t-43 -42q31 -17 43 -43t12 -74v-143q0 -56 19 -74.5t76 -19.5v-79h-17q-61 0 -90 7t-47 27q-32 33 -32 115z " />
<glyph unicode="|" d="M204 -167v834h92v-834h-92z" />
<glyph unicode="}" d="M128 -105q56 1 75.5 19.5t19.5 70.5v147q0 47 12 72.5t43 42.5q-31 17 -43 43t-12 73v144q0 56 -19 74.5t-76 19.5v78q7 1 17 1q61 0 90 -7t47 -27q32 -33 32 -115v-156q0 -43 13 -64.5t44 -30.5v-71q-31 -9 -44 -30t-13 -61v-170q0 -71 -34 -104q-35 -32 -135 -32h-17 v83z" />
<glyph unicode="~" horiz-adv-x="667" d="M142 575l-48 38q52 117 138 117q36 0 115 -38q65 -32 90 -32q50 0 89 73l48 -39q-51 -116 -147 -116q-19 0 -39 7.5t-79 35.5q-53 26 -81 26q-25 0 -44.5 -16.5t-41.5 -55.5z" />
<glyph unicode="&#xa1;" horiz-adv-x="279" d="M99 372v95h86v-95h-86zM87 -200l21 514h67l17 -514h-105z" />
<glyph unicode="&#xa2;" horiz-adv-x="740" d="M124 336q0 225 243 249v93h44v-93q94 -1 149 -42.5t56 -112.5h-86q-4 42 -36.5 67.5t-82.5 26.5v-371q55 7 84 33.5t35 74.5h86q-2 -74 -55 -118t-150 -51v-97h-44v97q-125 12 -184 71t-59 173zM212 331q0 -81 40.5 -127t114.5 -51v371q-70 -4 -112.5 -57t-42.5 -136z " />
<glyph unicode="&#xa3;" horiz-adv-x="740" d="M99 0v71h82v261h-90v64h90q0 77 5 112t21 66q24 49 83.5 76t141.5 27q120 0 183 -63q31 -31 34 -100h-94q-5 39 -35 63q-38 30 -98 30q-85 0 -119 -53q-22 -34 -22 -119v-39h171v-64h-171v-261h368v-71h-550z" />
<glyph unicode="&#xa4;" horiz-adv-x="693" d="M64 109l93 94q-46 66 -46 139q0 61 47 138l-96 95l49 49l97 -96q43 28 72.5 38t66.5 10t65.5 -10t72.5 -38l96 96l49 -49l-95 -95q48 -69 48 -140q0 -36 -10 -65t-36 -72l95 -94l-49 -49l-94 94q-65 -48 -137 -48q-68 0 -146 48l-94 -94zM193 342q0 -64 45.5 -110 t109.5 -46t109 45.5t45 110.5q0 64 -45 110t-108 46q-65 0 -110.5 -45.5t-45.5 -110.5z" />
<glyph unicode="&#xa5;" horiz-adv-x="598" d="M250 0v244h-185v41h175l-72 117h-145v40h123l-133 223l100 1l185 -324l185 325h102l-135 -225h124v-40h-146l-71 -117h183v-41h-195v-244h-95z" />
<glyph unicode="&#xa6;" d="M204 329v338h92v-338h-92zM204 153h92v-320h-92v320z" />
<glyph unicode="&#xa7;" horiz-adv-x="657" d="M90 25q114 -74 245 -74q140 0 140 67q0 25 -17 37.5t-85 37.5l-161 59q-71 26 -101 46q-44 29 -44 94q0 49 24.5 80.5t83.5 57.5q-34 20 -49 43.5t-15 58.5q0 71 57 107q66 41 162 41q109 0 198 -57v-77q-74 38 -114.5 51t-88.5 13q-59 0 -94 -18.5t-35 -49.5 q0 -18 11 -26q16 -15 76 -36l156 -55q75 -27 102 -47q49 -36 49 -107q0 -50 -24 -80.5t-79 -50.5q44 -22 62 -46.5t18 -62.5q0 -74 -61.5 -113.5t-176.5 -39.5q-110 0 -239 65v82zM165 271q12 -8 53 -24l161 -59l22 -8q22 -8 37 -16q52 31 67.5 47.5t15.5 41.5q0 36 -36 54 q-23 11 -53 23l-159 58l-18 7q-11 4 -29 12q-4 -2 -8.5 -5l-7.5 -5t-4 -2q-37 -23 -49 -38.5t-12 -39.5q0 -31 20 -46z" />
<glyph unicode="&#xa8;" d="M317 557v93h89v-93h-89zM94 557v93h89v-93h-89z" />
<glyph unicode="&#xa9;" horiz-adv-x="780" d="M45 333q0 145 101.5 245.5t247.5 100.5q139 0 239.5 -102t100.5 -244q0 -143 -101 -244t-243 -101t-243.5 101t-101.5 244zM93 333q0 -124 87.5 -212.5t209.5 -88.5t209 88.5t87 212.5t-86.5 213t-205.5 89q-126 0 -213.5 -87.5t-87.5 -214.5zM202 335q0 90 54 147 t139 57q69 0 118 -39.5t54 -99.5h-46q-9 41 -43 65t-83 24q-61 0 -98 -42.5t-37 -111.5t36.5 -111t97.5 -42q55 0 90 30.5t43 83.5h46q-6 -74 -55.5 -119.5t-124.5 -45.5q-85 0 -138 56.5t-53 147.5z" />
<glyph unicode="&#xaa;" horiz-adv-x="347" d="M136 385q-47 0 -74.5 21.5t-27.5 58.5q0 41 29 62q17 13 34 17t80 11q33 4 46 12q10 4 10 23q0 24 -17.5 37.5t-47.5 13.5q-61 0 -67 -59h-52q6 98 122 98q53 0 84 -25q19 -15 30 -56q1 -3 2 -134q0 -56 18 -72h-62q-6 13 -8 43q-28 -32 -46.5 -41.5t-52.5 -9.5zM144 421 q84 0 90 100l1 15q-12 -7 -22 -8q-9 -3 -20 -3l-39 -4q-70 -7 -70 -52q0 -22 16 -35t44 -13zM31 293v43h296v-43h-296z" />
<glyph unicode="&#xab;" horiz-adv-x="535" d="M230 234l182 233h77l-163 -233l163 -234h-77zM222 0l-182 234l182 233h76l-163 -233l163 -234h-76z" />
<glyph unicode="&#xac;" d="M33 199v81h433v-280h-90v199h-343z" />
<glyph unicode="&#xad;" horiz-adv-x="285" d="M0 221v51h285v-51h-285z" />
<glyph unicode="&#xae;" horiz-adv-x="780" d="M45 333q0 145 101.5 245.5t247.5 100.5q139 0 239.5 -102t100.5 -244q0 -143 -101 -244t-243 -101t-243.5 101t-101.5 244zM93 333q0 -124 87.5 -212.5t209.5 -88.5t209 88.5t87 212.5t-86.5 213t-206.5 89q-126 0 -213 -87.5t-87 -214.5zM242 136v392h165 q139 0 139 -108q0 -69 -70 -96q38 -13 50.5 -37.5t14.5 -87.5q1 -45 10 -63h-56q-6 11 -10 74q-1 37 -7 54t-20 26q-22 15 -72 15h-86v-169h-58zM300 342h89q99 0 99 75q0 73 -91 73h-97v-148z" />
<glyph unicode="&#xaf;" d="M107 600v42h286v-42h-286z" />
<glyph unicode="&#xb0;" d="M251 376q-60 0 -102.5 42.5t-42.5 102.5t42.5 102t102.5 42t102 -42.5t42 -103.5q0 -59 -42.5 -101t-101.5 -42zM251 417q41 0 72 30.5t31 70.5q0 44 -30.5 75t-74.5 31q-41 0 -71.5 -30.5t-30.5 -72.5q0 -43 30.5 -73.5t73.5 -30.5z" />
<glyph unicode="&#xb1;" d="M225 141v189h-204v48h204v194h49v-194h206v-48h-206v-189h-49zM21 49v48h459v-48h-459z" />
<glyph unicode="&#xb2;" horiz-adv-x="487" d="M58 264v61q16 10 20 11q21 12 43 23q116 62 174 114q45 41 45 77q0 31 -28.5 51t-73.5 20q-52 0 -76 -18t-29 -59h-71q0 63 46 96t126 33q81 0 128.5 -33.5t47.5 -89.5q0 -74 -108 -147q-46 -32 -152 -86h278v-53h-370z" />
<glyph unicode="&#xb3;" horiz-adv-x="487" d="M70 313q-16 22 -16 62h65q9 -38 37 -54t85 -16t88.5 18.5t31.5 52.5q0 40 -36.5 55t-131.5 15v48q85 2 111 9q21 6 34 20.5t13 31.5q0 30 -30 48t-80 18q-102 0 -112 -67h-68q1 57 49 88q46 31 135 31q79 0 129 -32t50 -82q0 -31 -18.5 -51.5t-61.5 -37.5q47 -16 68 -38 t21 -57q0 -55 -54.5 -88.5t-144.5 -33.5q-120 0 -164 60z" />
<glyph unicode="&#xb4;" d="M126 527l132 153h117l-177 -153h-72z" />
<glyph unicode="&#xb5;" d="M126 59v-226h-79v647h79v-268q0 -48 6 -71.5t24 -43.5q37 -42 89 -42q58 0 93.5 46t35.5 120v259h79v-480h-79v88q-40 -100 -130 -100q-75 0 -118 71z" />
<glyph unicode="&#xb6;" horiz-adv-x="566" d="M232 -113v428h-15q-82 0 -133 48.5t-51 125.5q0 49 22.5 89.5t61.5 62.5q46 26 135 26h239v-39h-57v-741h-49v741h-104v-741h-49z" />
<glyph unicode="&#xb7;" horiz-adv-x="219" d="M67 191v95h86v-95h-86z" />
<glyph unicode="&#xb8;" d="M162 -180l106 123h70l-83 -123h-93z" />
<glyph unicode="&#xb9;" horiz-adv-x="487" d="M259 264v330q-51 -37 -122 -63v55q95 47 137 81h49v-403h-64z" />
<glyph unicode="&#xba;" horiz-adv-x="347" d="M174 384q-62 0 -102 41.5t-40 105.5q0 67 40.5 108t105.5 41q61 0 99.5 -42t38.5 -108q0 -65 -39.5 -105.5t-102.5 -40.5zM174 425q40 0 63 28.5t23 77.5q0 50 -22.5 79t-61.5 29q-41 0 -64.5 -29t-23.5 -79q0 -49 23 -77.5t63 -28.5zM26 293v43h296v-43h-296z" />
<glyph unicode="&#xbb;" horiz-adv-x="535" d="M237 0l163 234l-163 233h77l182 -233l-182 -234h-77zM47 0l163 234l-163 233h76l182 -233l-182 -234h-76z" />
<glyph unicode="&#xbc;" horiz-adv-x="1107" d="M344 0l363 667h57l-361 -667h-59zM258 264v330q-48 -36 -121 -63v55q89 44 136 81h49v-403h-64zM639 94v56l253 253h84v-257h97v-52h-97v-94h-66v94h-271zM713 146h197v198z" />
<glyph unicode="&#xbd;" horiz-adv-x="1107" d="M344 0l363 667h57l-361 -667h-59zM258 264v330q-48 -36 -121 -63v55q89 44 136 81h49v-403h-64zM679 0v61q16 10 20 11q21 12 43 23q116 62 174 114q45 41 45 77q0 31 -28.5 51t-73.5 20q-52 0 -76.5 -18t-28.5 -59h-71q0 63 46 96t126 33q81 0 128.5 -33.5t47.5 -89.5 q0 -74 -108 -147q-46 -32 -152 -86h278v-53h-370z" />
<glyph unicode="&#xbe;" horiz-adv-x="1107" d="M70 313q-16 22 -16 62h65q9 -38 37 -54t85 -16t88.5 18.5t31.5 52.5q0 40 -36.5 55t-131.5 15v48q85 2 111 9q21 6 34 20.5t13 31.5q0 30 -30 48t-80 18q-102 0 -112 -67h-68q1 57 49 88q46 31 135 31q79 0 129 -32t50 -82q0 -31 -18.5 -51.5t-61.5 -37.5q47 -16 68 -38 t21 -57q0 -55 -54.5 -88.5t-144.5 -33.5q-120 0 -164 60zM344 0l363 667h57l-361 -667h-59zM638 94v56l253 253h84v-257h98v-52h-98v-94h-66v94h-271zM712 146h197v198z" />
<glyph unicode="&#xbf;" horiz-adv-x="488" d="M263 372v95h86v-95h-86zM53 -48q0 51 27.5 93.5t87.5 84.5l46 32q38 26 47.5 43.5t9.5 60.5v52h70v-64q0 -49 -9 -65t-61 -61l-45 -39q-47 -41 -64 -68t-17 -62q0 -55 39 -84t112 -29q70 0 158 22v-68q-99 -17 -174 -17q-108 0 -167.5 44.5t-59.5 124.5z" />
<glyph unicode="&#xc0;" horiz-adv-x="833" d="M385 729l-102 136h104l64 -136h-66zM12 0l352 667h106l351 -667h-109l-89 172h-422l-86 -172h-103zM240 247h346l-174 344z" />
<glyph unicode="&#xc1;" horiz-adv-x="833" d="M386 729l64 136h104l-102 -136h-66zM12 0l352 667h106l351 -667h-109l-89 172h-422l-86 -172h-103zM240 247h346l-174 344z" />
<glyph unicode="&#xc2;" horiz-adv-x="833" d="M243 727l122 140h116l123 -140h-82l-99 99l-98 -99h-82zM12 0l352 667h106l351 -667h-109l-89 172h-422l-86 -172h-103zM240 247h346l-174 344z" />
<glyph unicode="&#xc3;" horiz-adv-x="833" d="M253 740q4 53 15 76q9 19 30 31.5t44 12.5q20 0 56 -14l67 -26q43 -17 56 -17q33 0 45 55h47v-18q0 -49 -23 -78t-62 -29q-20 0 -53 13l-77 30q-37 14 -53 14q-24 0 -35 -19q-3 -4 -9 -31h-48zM12 0l352 667h106l351 -667h-109l-89 172h-422l-86 -172h-103zM240 247h346 l-174 344z" />
<glyph unicode="&#xc4;" horiz-adv-x="833" d="M496 750v94h94v-94h-94zM250 750v94h94v-94h-94zM12 0l352 667h106l351 -667h-109l-89 172h-422l-86 -172h-103zM240 247h346l-174 344z" />
<glyph unicode="&#xc5;" horiz-adv-x="833" d="M420 714q-41 0 -70.5 29.5t-29.5 71.5q0 41 29.5 70t72.5 29q40 0 69 -29.5t29 -70.5t-29.5 -70.5t-70.5 -29.5zM420 771q18 0 30.5 12.5t12.5 30.5q0 17 -12.5 30t-29.5 13q-19 0 -31.5 -12.5t-12.5 -30.5t12.5 -30.5t30.5 -12.5zM12 0l352 667h106l351 -667h-109 l-89 172h-422l-86 -172h-103zM240 247h346l-174 344z" />
<glyph unicode="&#xc6;" horiz-adv-x="1161" d="M5 0l491 667h592v-76h-431l39 -209h366v-76h-353l41 -230h358v-76h-438l-37 183h-384l-136 -183h-108zM305 259h317l-58 332h-19z" />
<glyph unicode="&#xc7;" horiz-adv-x="742" d="M52 327q0 169 94.5 264t262.5 95q146 0 231 -76q29 -25 41.5 -52t16.5 -70h-101q-3 45 -37 74q-57 46 -156 46q-121 0 -187 -71.5t-66 -203.5q0 -134 66 -204.5t191 -70.5q115 0 163 50q22 22 36 75h100q-5 -74 -48 -118q-79 -84 -257 -84q-170 0 -260 89t-90 257z M253 -177l104 120h85l-82 -120h-107z" />
<glyph unicode="&#xc8;" horiz-adv-x="657" d="M326 729l-102 136h104l64 -136h-66zM85 0v667h505v-76h-410v-211h380v-78h-380v-226h425v-76h-520z" />
<glyph unicode="&#xc9;" horiz-adv-x="657" d="M301 729l64 136h104l-102 -136h-66zM85 0v667h505v-76h-410v-211h380v-78h-380v-226h425v-76h-520z" />
<glyph unicode="&#xca;" horiz-adv-x="657" d="M161 727l122 140h116l123 -140h-82l-99 99l-98 -99h-82zM85 0v667h505v-76h-410v-211h380v-78h-380v-226h425v-76h-520z" />
<glyph unicode="&#xcb;" horiz-adv-x="657" d="M414 750v94h94v-94h-94zM168 750v94h94v-94h-94zM85 0v667h505v-76h-410v-211h380v-78h-380v-226h425v-76h-520z" />
<glyph unicode="&#xcc;" horiz-adv-x="266" d="M104 729l-102 136h104l64 -136h-66zM85 0v667h95v-667h-95z" />
<glyph unicode="&#xcd;" horiz-adv-x="266" d="M99 729l64 136h104l-102 -136h-66zM85 0v667h95v-667h-95z" />
<glyph unicode="&#xce;" horiz-adv-x="266" d="M38 727h-82l122 140h116l123 -140h-82l-99 99zM86 0v667h95v-667h-95z" />
<glyph unicode="&#xcf;" horiz-adv-x="266" d="M189 750v94h94v-94h-94zM-10 750v94h94v-94h-94zM85 0v667h95v-667h-95z" />
<glyph unicode="&#xd0;" horiz-adv-x="808" d="M86 0v310h-67v73h67v284h259q173 0 256 -44q74 -40 114.5 -116t40.5 -174q0 -101 -43 -178.5t-120 -115.5q-78 -39 -239 -39h-268zM181 76h172q158 0 218 49q87 72 87 212q0 166 -121 223q-65 31 -193 31h-163v-208h166v-73h-166v-234z" />
<glyph unicode="&#xd1;" horiz-adv-x="812" d="M252 740q4 53 15 76q9 19 30 31.5t44 12.5q20 0 56 -14l67 -26q43 -17 56 -17q33 0 45 55h47v-18q0 -49 -23 -78t-62 -29q-20 0 -53 13l-77 30q-37 14 -53 14q-24 0 -35 -19q-3 -4 -9 -31h-48zM85 0v667h134l424 -572v572h83v-667h-125l-434 585v-585h-82z" />
<glyph unicode="&#xd2;" horiz-adv-x="829" d="M389 729l-102 136h104l64 -136h-66zM138 89q-86 91 -86 244q0 156 86 245q105 108 280 108q161 0 260 -97t99 -256t-99.5 -255.5t-263.5 -96.5q-174 0 -276 108zM151 333q0 -128 69 -201t191 -73q124 0 196 74t72 200t-72 200.5t-194 74.5q-124 0 -193 -72t-69 -203z" />
<glyph unicode="&#xd3;" horiz-adv-x="829" d="M387 729l64 136h104l-102 -136h-66zM138 89q-86 91 -86 244q0 156 86 245q105 108 280 108q161 0 260 -97t99 -256t-99.5 -255.5t-263.5 -96.5q-174 0 -276 108zM151 333q0 -128 69 -201t191 -73q124 0 196 74t72 200t-72 200.5t-194 74.5q-124 0 -193 -72t-69 -203z" />
<glyph unicode="&#xd4;" horiz-adv-x="829" d="M241 727l122 140h116l123 -140h-82l-99 99l-98 -99h-82zM138 89q-86 91 -86 244q0 156 86 245q105 108 280 108q161 0 260 -97t99 -256t-99.5 -255.5t-263.5 -96.5q-174 0 -276 108zM151 333q0 -128 69 -201t191 -73q124 0 196 74t72 200t-72 200.5t-194 74.5 q-124 0 -193 -72t-69 -203z" />
<glyph unicode="&#xd5;" horiz-adv-x="829" d="M255 740q4 53 15 76q9 19 30 31.5t44 12.5q20 0 56 -14l67 -26q43 -17 56 -17q33 0 45 55h47v-18q0 -49 -23 -78t-62 -29q-20 0 -53 13l-77 30q-37 14 -53 14q-24 0 -35 -19q-3 -4 -9 -31h-48zM138 89q-86 91 -86 244q0 156 86 245q105 108 280 108q161 0 260 -97 t99 -256t-99.5 -255.5t-263.5 -96.5q-174 0 -276 108zM151 333q0 -128 69 -201t191 -73q124 0 196 74t72 200t-72 200.5t-194 74.5q-124 0 -193 -72t-69 -203z" />
<glyph unicode="&#xd6;" horiz-adv-x="829" d="M497 750v94h94v-94h-94zM251 750v94h94v-94h-94zM138 89q-86 91 -86 244q0 156 86 245q105 108 280 108q161 0 260 -97t99 -256t-99.5 -255.5t-263.5 -96.5q-174 0 -276 108zM151 333q0 -128 69 -201t191 -73q124 0 196 74t72 200t-72 200.5t-194 74.5q-124 0 -193 -72 t-69 -203z" />
<glyph unicode="&#xd7;" d="M94 153l-35 34l158 158l-157 156l34 33l156 -156l157 157l35 -34l-158 -157l157 -157l-34 -33l-156 157z" />
<glyph unicode="&#xd8;" horiz-adv-x="830" d="M52 -71l105 141q-55 54 -79 114t-24 146q0 162 90 254q102 102 273 102q83 0 178 -37l70 94h93l-101 -133q27 -20 41.5 -36.5t32.5 -47.5q47 -81 47 -191q0 -154 -90 -247q-104 -107 -274 -107q-113 0 -198 46l-74 -98h-90zM212 143l331 437q-52 28 -130 28 q-121 0 -191.5 -74t-70.5 -199q0 -119 61 -192zM268 97q74 -40 147 -40q65 0 122 26.5t92 73.5q51 70 51 179q0 133 -78 202z" />
<glyph unicode="&#xd9;" horiz-adv-x="815" d="M399 729l-102 136h104l64 -136h-66zM116 122q-31 59 -31 226v319h91v-319q0 -147 31 -198q60 -94 201 -94q80 0 136 28.5t79 80.5q20 46 20 154v348h87v-348q0 -85 -9.5 -129.5t-35.5 -84.5q-40 -60 -114 -92t-172 -32q-100 0 -173.5 36.5t-109.5 104.5z" />
<glyph unicode="&#xda;" horiz-adv-x="815" d="M377 729l64 136h104l-102 -136h-66zM116 122q-31 59 -31 226v319h91v-319q0 -147 31 -198q60 -94 201 -94q80 0 136 28.5t79 80.5q20 46 20 154v348h87v-348q0 -85 -9.5 -129.5t-35.5 -84.5q-40 -60 -114 -92t-172 -32q-100 0 -173.5 36.5t-109.5 104.5z" />
<glyph unicode="&#xdb;" horiz-adv-x="815" d="M237 727l122 140h116l123 -140h-82l-99 99l-98 -99h-82zM116 122q-31 59 -31 226v319h91v-319q0 -147 31 -198q60 -94 201 -94q80 0 136 28.5t79 80.5q20 46 20 154v348h87v-348q0 -85 -9.5 -129.5t-35.5 -84.5q-40 -60 -114 -92t-172 -32q-100 0 -173.5 36.5 t-109.5 104.5z" />
<glyph unicode="&#xdc;" horiz-adv-x="815" d="M497 750v94h94v-94h-94zM251 750v94h94v-94h-94zM116 122q-31 59 -31 226v319h91v-319q0 -147 31 -198q60 -94 201 -94q80 0 136 28.5t79 80.5q20 46 20 154v348h87v-348q0 -85 -9.5 -129.5t-35.5 -84.5q-40 -60 -114 -92t-172 -32q-100 0 -173.5 36.5t-109.5 104.5z" />
<glyph unicode="&#xdd;" horiz-adv-x="772" d="M362 729l64 136h104l-102 -136h-66zM342 0v276l-338 391h128l259 -314l260 314h116l-335 -391v-276h-90z" />
<glyph unicode="&#xde;" horiz-adv-x="683" d="M85 0v667h95v-94h143q51 0 109 -3q65 -2 103.5 -15t66.5 -41q49 -47 49 -123q0 -54 -24.5 -97.5t-66.5 -64.5q-59 -30 -174 -29l-63 1h-143v-201h-95zM177 277h143q94 0 121 2.5t50 11.5q63 26 63 98t-76 96q-37 12 -153 12h-148v-220z" />
<glyph unicode="&#xdf;" horiz-adv-x="727" d="M84 0v340q0 96 11 145.5t42 91.5q73 97 236 97q97 0 151 -32q32 -19 50 -51.5t18 -70.5q0 -49 -24 -70q-14 -12 -51 -23l-29 -9q-38 -12 -53.5 -26t-15.5 -36q0 -26 25 -43q8 -5 46 -18l35 -12q1 0 4 -1.5t7.5 -3t9.5 -2.5q69 -20 100 -53.5t31 -86.5q0 -70 -56 -110 t-153 -40q-91 0 -138.5 35t-47.5 100v11h86q-1 -2 -1 -5q-1 -10 4 -26.5t12 -23.5q23 -32 86 -32q55 0 88.5 24.5t33.5 64.5q0 31 -17.5 46t-72.5 35l-36 13q-76 28 -98 46q-40 34 -40 84q0 42 29.5 69.5t98.5 55.5l17 7q21 9 27.5 16t6.5 24q0 37 -35.5 59.5t-92.5 22.5 q-132 0 -178 -82q-31 -58 -31 -197v-30l1 -303h-86z" />
<glyph unicode="&#xe0;" horiz-adv-x="625" d="M298 527l-177 153h116l133 -153h-72zM57 134q0 58 38.5 95.5t110.5 50.5q54 9 160 9h91q-1 54 -8 71q-22 61 -142 61q-119 0 -128 -80h-89q1 69 69 107q60 33 157 33q70 0 122 -18.5t76 -52.5q27 -38 27 -130v-280h-84v56q-41 -39 -83 -54.5t-106 -15.5q-97 0 -154 40 t-57 108zM150 137q0 -41 36 -65t100 -24q85 0 128.5 40.5t43.5 118.5q0 13 -1 23h-111q-69 0 -107 -8q-89 -17 -89 -85z" />
<glyph unicode="&#xe1;" horiz-adv-x="625" d="M285 527l132 153h117l-177 -153h-72zM57 134q0 58 38.5 95.5t110.5 50.5q54 9 160 9h91q-1 54 -8 71q-22 61 -142 61q-119 0 -128 -80h-89q1 69 69 107q60 33 157 33q70 0 122 -18.5t76 -52.5q27 -38 27 -130v-280h-84v56q-41 -39 -83 -54.5t-106 -15.5q-97 0 -154 40 t-57 108zM150 137q0 -41 36 -65t100 -24q85 0 128.5 40.5t43.5 118.5q0 13 -1 23h-111q-69 0 -107 -8q-89 -17 -89 -85z" />
<glyph unicode="&#xe2;" horiz-adv-x="625" d="M148 526l113 154h116l113 -154h-73l-98 118l-98 -118h-73zM57 134q0 58 38.5 95.5t110.5 50.5q54 9 160 9h91q-1 54 -8 71q-22 61 -142 61q-119 0 -128 -80h-89q1 69 69 107q60 33 157 33q70 0 122 -18.5t76 -52.5q27 -38 27 -130v-280h-84v56q-41 -39 -83 -54.5 t-106 -15.5q-97 0 -154 40t-57 108zM150 137q0 -41 36 -65t100 -24q85 0 128.5 40.5t43.5 118.5q0 13 -1 23h-111q-69 0 -107 -8q-89 -17 -89 -85z" />
<glyph unicode="&#xe3;" horiz-adv-x="625" d="M145 547q4 52 15 76q9 18 30.5 31t43.5 13q17 0 56 -15l67 -26q41 -16 55 -16q34 0 46 54h47v-18q0 -48 -23 -77t-62 -29q-17 0 -53 13l-77 29q-39 15 -53 15q-24 0 -35 -19q-3 -4 -9 -31h-48zM57 134q0 58 38.5 95.5t110.5 50.5q54 9 160 9h91q-1 54 -8 71 q-22 61 -142 61q-119 0 -128 -80h-89q1 69 69 107q60 33 157 33q70 0 122 -18.5t76 -52.5q27 -38 27 -130v-280h-84v56q-41 -39 -83 -54.5t-106 -15.5q-97 0 -154 40t-57 108zM150 137q0 -41 36 -65t100 -24q85 0 128.5 40.5t43.5 118.5q0 13 -1 23h-111q-69 0 -107 -8 q-89 -17 -89 -85z" />
<glyph unicode="&#xe4;" horiz-adv-x="625" d="M390 557v93h89v-93h-89zM167 557v93h89v-93h-89zM57 134q0 58 38.5 95.5t110.5 50.5q54 9 160 9h91q-1 54 -8 71q-22 61 -142 61q-119 0 -128 -80h-89q1 69 69 107q60 33 157 33q70 0 122 -18.5t76 -52.5q27 -38 27 -130v-280h-84v56q-41 -39 -83 -54.5t-106 -15.5 q-97 0 -154 40t-57 108zM150 137q0 -41 36 -65t100 -24q85 0 128.5 40.5t43.5 118.5q0 13 -1 23h-111q-69 0 -107 -8q-89 -17 -89 -85z" />
<glyph unicode="&#xe5;" horiz-adv-x="625" d="M316 529q-46 0 -78 32t-32 78t32.5 77.5t78.5 31.5q44 0 76 -32.5t32 -76.5q0 -46 -32 -78t-77 -32zM316 586q21 0 36.5 15.5t15.5 37.5q0 21 -15.5 36.5t-36.5 15.5q-22 0 -37.5 -15t-15.5 -37t15.5 -37.5t37.5 -15.5zM57 134q0 58 38.5 95.5t110.5 50.5q54 9 160 9h91 q-1 54 -8 71q-22 61 -142 61q-119 0 -128 -80h-89q1 69 69 107q60 33 157 33q70 0 122 -18.5t76 -52.5q27 -38 27 -130v-280h-84v56q-41 -39 -83 -54.5t-106 -15.5q-97 0 -154 40t-57 108zM150 137q0 -41 36 -65t100 -24q85 0 128.5 40.5t43.5 118.5q0 13 -1 23h-111 q-69 0 -107 -8q-89 -17 -89 -85z" />
<glyph unicode="&#xe6;" horiz-adv-x="989" d="M57 131q0 109 144 137q58 12 229 12h29q-3 45 -9 66t-21 37q-36 39 -121 39q-57 0 -87 -18.5t-42 -61.5h-91q4 39 19.5 62t49.5 43q61 35 155 35q148 0 200 -84q72 83 193 83q113 0 173 -60t60 -174v-24h-394q5 -87 46 -132.5t114 -45.5q101 0 127 88h90q-8 -58 -36 -87 q-57 -60 -175 -60q-150 0 -209 102q-23 -36 -51 -55q-70 -47 -173 -47q-100 0 -160 39.5t-60 105.5zM551 280h295q0 39 -9 61q-15 37 -52 59t-84 22q-67 0 -106.5 -37.5t-43.5 -104.5zM147 129q0 -39 36.5 -61.5t100.5 -22.5q119 0 157 74q15 29 18 104h-22h-81 q-209 0 -209 -94z" />
<glyph unicode="&#xe7;" horiz-adv-x="593" d="M51 231q0 113 75 181.5t199 68.5q130 0 189 -67q30 -34 39 -99h-85q-3 51 -41 80.5t-101 29.5q-84 0 -135 -50.5t-51 -133.5q0 -86 50.5 -139.5t131.5 -53.5q60 0 96.5 28t44.5 79l87 -1q-9 -61 -41 -95q-65 -73 -189 -73q-119 0 -194 68t-75 177zM173 -180l106 123h70 l-83 -123h-93z" />
<glyph unicode="&#xe8;" horiz-adv-x="628" d="M297 527l-177 153h116l133 -153h-72zM149 145q35 -99 169 -99q133 0 151 92h92q-4 -36 -16.5 -58.5t-41.5 -43.5q-70 -50 -191 -50q-126 0 -193.5 60.5t-67.5 173.5q0 121 68 186q78 76 208 76q81 0 141.5 -32t85.5 -89q23 -49 24 -150h-438q0 -41 9 -66zM146 271h341 q-3 52 -22 84q-19 31 -58 48.5t-87 17.5q-77 0 -122 -39t-52 -111z" />
<glyph unicode="&#xe9;" horiz-adv-x="628" d="M290 527l132 153h117l-177 -153h-72zM149 145q35 -99 169 -99q133 0 151 92h92q-4 -36 -16.5 -58.5t-41.5 -43.5q-70 -50 -191 -50q-126 0 -193.5 60.5t-67.5 173.5q0 121 68 186q78 76 208 76q81 0 141.5 -32t85.5 -89q23 -49 24 -150h-438q0 -41 9 -66zM146 271h341 q-3 52 -22 84q-19 31 -58 48.5t-87 17.5q-77 0 -122 -39t-52 -111z" />
<glyph unicode="&#xea;" horiz-adv-x="628" d="M153 526l113 154h116l113 -154h-73l-98 118l-98 -118h-73zM149 145q35 -99 169 -99q133 0 151 92h92q-4 -36 -16.5 -58.5t-41.5 -43.5q-70 -50 -191 -50q-126 0 -193.5 60.5t-67.5 173.5q0 121 68 186q78 76 208 76q81 0 141.5 -32t85.5 -89q23 -49 24 -150h-438 q0 -41 9 -66zM146 271h341q-3 52 -22 84q-19 31 -58 48.5t-87 17.5q-77 0 -122 -39t-52 -111z" />
<glyph unicode="&#xeb;" horiz-adv-x="628" d="M388 557v93h89v-93h-89zM165 557v93h89v-93h-89zM149 145q35 -99 169 -99q133 0 151 92h92q-4 -36 -16.5 -58.5t-41.5 -43.5q-70 -50 -191 -50q-126 0 -193.5 60.5t-67.5 173.5q0 121 68 186q78 76 208 76q81 0 141.5 -32t85.5 -89q23 -49 24 -150h-438q0 -41 9 -66z M146 271h341q-3 52 -22 84q-19 31 -58 48.5t-87 17.5q-77 0 -122 -39t-52 -111z" />
<glyph unicode="&#xec;" horiz-adv-x="254" d="M96 527l-177 153h116l133 -153h-72zM84 0v467h86v-467h-86z" />
<glyph unicode="&#xed;" horiz-adv-x="254" d="M92 527l132 153h117l-177 -153h-72zM84 0v467h86v-467h-86z" />
<glyph unicode="&#xee;" horiz-adv-x="254" d="M32 526h-73l113 154h116l113 -154h-73l-98 118zM84 0v467h86v-467h-86z" />
<glyph unicode="&#xef;" horiz-adv-x="254" d="M173 557v93h89v-93h-89zM-2 557v93h89v-93h-89zM84 0v467h86v-467h-86z" />
<glyph unicode="&#xf0;" horiz-adv-x="684" d="M52 232q0 118 76 183.5t213 65.5q56 0 111 -13q-59 76 -199 140l-140 -89l-25 41l110 70q-50 17 -147 34l14 42q138 -20 184 -42l144 92l24 -40l-111 -71q161 -72 244.5 -175t83.5 -229q0 -121 -76 -188t-214 -67t-215 65t-77 181zM141 234q0 -89 53.5 -139t148.5 -50 q94 0 147.5 50.5t53.5 139.5q0 82 -47 129q-58 58 -150 58q-100 0 -159 -57q-47 -47 -47 -131z" />
<glyph unicode="&#xf1;" horiz-adv-x="666" d="M183 547q4 52 15 76q9 18 30.5 31t43.5 13q17 0 56 -15l67 -26q41 -16 55 -16q34 0 46 54h47v-18q0 -48 -23 -77t-62 -29q-17 0 -53 13l-77 29q-39 15 -53 15q-24 0 -35 -19q-3 -4 -9 -31h-48zM84 0v467h86v-78q68 92 194 92q71 0 124.5 -27t75.5 -75q21 -43 21 -157 v-222h-86v222q0 98 -24 139q-35 57 -127 57q-61 0 -104 -29t-60 -80q-14 -45 -14 -170v-139h-86z" />
<glyph unicode="&#xf2;" horiz-adv-x="684" d="M318 527l-177 153h116l133 -153h-72zM51 233q0 118 78 183t218 65q134 0 210.5 -66.5t76.5 -181.5q0 -116 -77.5 -181.5t-213.5 -65.5q-137 0 -214.5 65.5t-77.5 181.5zM140 233q0 -87 54.5 -137.5t148.5 -50.5t148 50.5t54 137.5q0 85 -48 133q-58 56 -152 56 q-97 0 -151 -50t-54 -139z" />
<glyph unicode="&#xf3;" horiz-adv-x="684" d="M315 527l132 153h117l-177 -153h-72zM51 233q0 118 78 183t218 65q134 0 210.5 -66.5t76.5 -181.5q0 -116 -77.5 -181.5t-213.5 -65.5q-137 0 -214.5 65.5t-77.5 181.5zM140 233q0 -87 54.5 -137.5t148.5 -50.5t148 50.5t54 137.5q0 85 -48 133q-58 56 -152 56 q-97 0 -151 -50t-54 -139z" />
<glyph unicode="&#xf4;" horiz-adv-x="684" d="M178 526l113 154h116l113 -154h-73l-98 118l-98 -118h-73zM51 233q0 118 78 183t218 65q134 0 210.5 -66.5t76.5 -181.5q0 -116 -77.5 -181.5t-213.5 -65.5q-137 0 -214.5 65.5t-77.5 181.5zM140 233q0 -87 54.5 -137.5t148.5 -50.5t148 50.5t54 137.5q0 85 -48 133 q-58 56 -152 56q-97 0 -151 -50t-54 -139z" />
<glyph unicode="&#xf5;" horiz-adv-x="684" d="M186 547q4 52 15 76q9 18 30.5 31t43.5 13q17 0 56 -15l67 -26q41 -16 55 -16q34 0 46 54h47v-18q0 -48 -23 -77t-62 -29q-17 0 -53 13l-77 29q-39 15 -53 15q-24 0 -35 -19q-3 -4 -9 -31h-48zM51 233q0 118 78 183t218 65q134 0 210.5 -66.5t76.5 -181.5 q0 -116 -77.5 -181.5t-213.5 -65.5q-137 0 -214.5 65.5t-77.5 181.5zM140 233q0 -87 54.5 -137.5t148.5 -50.5t148 50.5t54 137.5q0 85 -48 133q-58 56 -152 56q-97 0 -151 -50t-54 -139z" />
<glyph unicode="&#xf6;" horiz-adv-x="684" d="M416 557v93h89v-93h-89zM193 557v93h89v-93h-89zM51 233q0 118 78 183t218 65q134 0 210.5 -66.5t76.5 -181.5q0 -116 -77.5 -181.5t-213.5 -65.5q-137 0 -214.5 65.5t-77.5 181.5zM140 233q0 -87 54.5 -137.5t148.5 -50.5t148 50.5t54 137.5q0 85 -48 133 q-58 56 -152 56q-97 0 -151 -50t-54 -139z" />
<glyph unicode="&#xf7;" d="M250 484q-17 0 -29.5 13t-12.5 30t12.5 29.5t30.5 12.5q17 0 29.5 -12.5t12.5 -29.5q0 -18 -12.5 -30.5t-30.5 -12.5zM21 320v48h459v-48h-459zM208 162q0 17 12.5 29.5t30.5 12.5q17 0 29.5 -13t12.5 -30t-12.5 -29.5t-30.5 -12.5q-17 0 -29.5 12.5t-12.5 30.5z" />
<glyph unicode="&#xf8;" horiz-adv-x="724" d="M51 -41l94 99q-65 72 -65 173q0 120 75 185t214 65q93 0 155 -28l57 58h92l-92 -94q82 -75 82 -190q0 -109 -76 -176q-74 -65 -211 -65q-114 0 -175 32l-56 -59h-94zM201 115l273 285q-44 22 -98 22q-97 0 -152 -49.5t-55 -135.5q0 -73 32 -122zM253 72q51 -27 118 -27 q97 0 150 49.5t53 138.5q0 81 -45 127z" />
<glyph unicode="&#xf9;" horiz-adv-x="647" d="M316 527l-177 153h116l133 -153h-72zM105 77q-15 26 -19.5 54.5t-4.5 92.5v243h84v-193q0 -96 2 -116.5t13 -42.5q33 -67 129 -67q122 0 156 105q16 50 16 121v193h82v-467h-82v84q-24 -39 -48 -58q-52 -40 -141 -40q-135 0 -187 91z" />
<glyph unicode="&#xfa;" horiz-adv-x="647" d="M286 527l132 153h117l-177 -153h-72zM105 77q-15 26 -19.5 54.5t-4.5 92.5v243h84v-193q0 -96 2 -116.5t13 -42.5q33 -67 129 -67q122 0 156 105q16 50 16 121v193h82v-467h-82v84q-24 -39 -48 -58q-52 -40 -141 -40q-135 0 -187 91z" />
<glyph unicode="&#xfb;" horiz-adv-x="647" d="M159 526l113 154h116l113 -154h-73l-98 118l-98 -118h-73zM105 77q-15 26 -19.5 54.5t-4.5 92.5v243h84v-193q0 -96 2 -116.5t13 -42.5q33 -67 129 -67q122 0 156 105q16 50 16 121v193h82v-467h-82v84q-24 -39 -48 -58q-52 -40 -141 -40q-135 0 -187 91z" />
<glyph unicode="&#xfc;" horiz-adv-x="647" d="M398 557v93h89v-93h-89zM175 557v93h89v-93h-89zM105 77q-15 26 -19.5 54.5t-4.5 92.5v243h84v-193q0 -96 2 -116.5t13 -42.5q33 -67 129 -67q122 0 156 105q16 50 16 121v193h82v-467h-82v84q-24 -39 -48 -58q-52 -40 -141 -40q-135 0 -187 91z" />
<glyph unicode="&#xfd;" horiz-adv-x="622" d="M283 527l132 153h117l-177 -153h-72zM169 -171l96 179l-248 459h100l200 -368l199 368h88l-343 -638h-92z" />
<glyph unicode="&#xfe;" horiz-adv-x="681" d="M170 49v-226h-86l1 844h85l-1 -275q49 51 92.5 70t110.5 19q112 0 186 -70q73 -70 73 -174q0 -113 -75 -182t-198 -69q-58 0 -100.5 14t-87.5 49zM163 238q0 -84 55 -138t141 -54q83 0 134 51.5t51 135.5q0 86 -49.5 137.5t-132.5 51.5q-89 0 -144 -50.5t-55 -133.5z" />
<glyph unicode="&#xff;" horiz-adv-x="622" d="M388 557v93h89v-93h-89zM165 557v93h89v-93h-89zM169 -171l96 179l-248 459h100l200 -368l199 368h88l-343 -638h-92z" />
<glyph unicode="&#x152;" horiz-adv-x="1156" d="M199 59q-70 43 -108.5 115.5t-38.5 159.5q0 81 34 150.5t96 114.5q102 73 274 73q35 0 92 -3q56 -2 126 -2h416v-76h-403v-208h374v-77h-374v-230h417v-76h-427q-81 0 -144 -2q-27 -1 -61 -1q-173 0 -273 62zM266 115q78 -46 218 -46q52 0 108 8v514q-67 9 -116 9 q-85 0 -140.5 -16t-100.5 -53q-85 -72 -85 -192q0 -153 116 -224z" />
<glyph unicode="&#x153;" horiz-adv-x="1036" d="M51 235q0 108 75 177t193 69q147 0 231 -99q38 52 86 75.5t116 23.5q82 0 138 -36t79 -103q16 -49 17 -137h-395q5 -76 47.5 -118.5t115.5 -42.5q70 0 107 40q15 17 24 53h88q-6 -38 -17.5 -60t-34.5 -42q-58 -49 -161 -49q-139 0 -210 101q-84 -101 -227 -101 q-121 0 -196.5 69t-75.5 180zM593 264h300q-4 68 -22 97q-38 60 -125 60q-73 0 -112.5 -40.5t-40.5 -116.5zM141 227q0 -82 51 -132.5t133 -50.5q83 0 131 49.5t48 136.5q0 95 -54 143q-52 47 -126 47q-82 0 -132.5 -53t-50.5 -140z" />
<glyph unicode="&#x178;" horiz-adv-x="772" d="M472 750v94h94v-94h-94zM226 750v94h94v-94h-94zM342 0v276l-338 391h128l259 -314l260 314h116l-335 -391v-276h-90z" />
<glyph unicode="&#x2c6;" d="M79 526l113 154h116l113 -154h-73l-98 118l-98 -118h-73z" />
<glyph unicode="&#x2dc;" d="M70 547q4 52 15 76q9 18 30.5 31t43.5 13q17 0 56 -15l67 -26q41 -16 55 -16q34 0 46 54h47v-18q0 -48 -23 -77t-62 -29q-17 0 -53 13l-77 29q-39 15 -53 15q-24 0 -35 -19q-3 -4 -9 -31h-48z" />
<glyph unicode="&#x2000;" horiz-adv-x="457" />
<glyph unicode="&#x2001;" horiz-adv-x="914" />
<glyph unicode="&#x2002;" horiz-adv-x="457" />
<glyph unicode="&#x2003;" horiz-adv-x="914" />
<glyph unicode="&#x2004;" horiz-adv-x="304" />
<glyph unicode="&#x2005;" horiz-adv-x="228" />
<glyph unicode="&#x2006;" horiz-adv-x="152" />
<glyph unicode="&#x2007;" horiz-adv-x="152" />
<glyph unicode="&#x2008;" horiz-adv-x="114" />
<glyph unicode="&#x2009;" horiz-adv-x="182" />
<glyph unicode="&#x200a;" horiz-adv-x="50" />
<glyph unicode="&#x2010;" horiz-adv-x="285" d="M0 221v51h285v-51h-285z" />
<glyph unicode="&#x2011;" horiz-adv-x="285" d="M0 221v51h285v-51h-285z" />
<glyph unicode="&#x2013;" horiz-adv-x="648" d="M73 221v51h501v-51h-501z" />
<glyph unicode="&#x2014;" horiz-adv-x="856" d="M0 221v51h856v-51h-856z" />
<glyph unicode="&#x2018;" horiz-adv-x="268" d="M57 491l83 176h62l-45 -176h-100z" />
<glyph unicode="&#x2019;" horiz-adv-x="268" d="M67 491l45 176h100l-83 -176h-62z" />
<glyph unicode="&#x201a;" horiz-adv-x="230" d="M22 -81l45 176h100l-83 -176h-62z" />
<glyph unicode="&#x201c;" horiz-adv-x="447" d="M235 491l84 176h61l-45 -176h-100zM57 491l83 176h62l-45 -176h-100z" />
<glyph unicode="&#x201d;" horiz-adv-x="447" d="M245 491l45 176h100l-83 -176h-62zM67 491l45 176h100l-83 -176h-62z" />
<glyph unicode="&#x201e;" horiz-adv-x="447" d="M245 -81l45 176h100l-83 -176h-62zM67 -81l45 176h100l-83 -176h-62z" />
<glyph unicode="&#x2022;" horiz-adv-x="667" d="M335 201q-57 0 -98 40.5t-41 97.5q0 58 41 98.5t100 40.5q55 0 95.5 -41t40.5 -97q0 -58 -40.5 -98.5t-97.5 -40.5z" />
<glyph unicode="&#x2026;" horiz-adv-x="689" d="M531 0v95h86v-95h-86zM302 0v95h86v-95h-86zM72 0v95h86v-95h-86z" />
<glyph unicode="&#x202f;" horiz-adv-x="182" />
<glyph unicode="&#x2039;" horiz-adv-x="345" d="M222 0l-182 234l182 233h76l-163 -233l163 -234h-76z" />
<glyph unicode="&#x203a;" horiz-adv-x="345" d="M47 0l163 234l-163 233h76l182 -233l-182 -234h-76z" />
<glyph unicode="&#x205f;" horiz-adv-x="228" />
<glyph unicode="&#x20ac;" horiz-adv-x="840" d="M44 244l34 66h63v19q0 19 1 29h-98l34 66h72q25 126 115.5 194t231.5 68q147 0 231 -76q53 -46 58 -122h-100q-3 45 -37 74q-57 46 -156 46q-98 0 -161 -47.5t-83 -136.5h351l-34 -66h-326v-26v-22h302l-33 -66h-260q6 -32 23 -66q61 -120 225 -120q115 0 163 50 q23 24 35 75h101q-5 -73 -48 -118q-79 -84 -258 -84q-294 0 -343 263h-103z" />
<glyph unicode="&#x2122;" horiz-adv-x="1117" d="M510 267v400h105l169 -329l170 329h105v-400h-65v347l-180 -347h-64l-181 348v-348h-59zM194 267v348h-182v52h428v-52h-182v-348h-64z" />
</font>
</defs>
</svg>
