<?xml version="1.0" standalone="no"?>
<!DOCTYPE svg PUBLIC "-//W3C//DTD SVG 1.1//EN" "http://www.w3.org/Graphics/SVG/1.1/DTD/svg11.dtd" >
<svg xmlns="http://www.w3.org/2000/svg">
<metadata>
This is a custom SVG webfont generated by Fontspring.
Designer    : FontSite.com
Foundry URL : http://www.fontsite.com
</metadata>
<defs>
<font id="webfont" horiz-adv-x="353" >
<font-face units-per-em="1000" ascent="800" descent="-200" />
<missing-glyph horiz-adv-x="157" />
<glyph unicode=" "  horiz-adv-x="157" />
<glyph unicode="&#x09;" horiz-adv-x="157" />
<glyph unicode="&#xa0;" horiz-adv-x="157" />
<glyph unicode="!" horiz-adv-x="191" d="M60 149l-13 518h98l-16 -518h-69zM47 0v88h98v-88h-98z" />
<glyph unicode="&#x22;" horiz-adv-x="298" d="M182 399l-14 268h92l-14 -268h-64zM52 399l-14 268h92l-14 -268h-64z" />
<glyph unicode="#" d="M42 36l25 184h-59l8 57h59l15 106h-59l8 57h59l26 184h61l-25 -184h66l25 184h62l-26 -184h59l-8 -57h-59l-15 -106h59l-8 -57h-59l-26 -184h-61l26 184h-66l-26 -184h-61zM137 277h66l15 106h-67z" />
<glyph unicode="$" d="M141 -2q-61 7 -85.5 38t-24.5 102v55h88v-43q0 -47 12 -64t44 -17t46.5 19t14.5 62q0 39 -10 61.5t-48 63.5l-71 78q-42 46 -58 82.5t-16 85.5q0 70 28 104t93 44v77h60v-77q56 -7 78.5 -35.5t22.5 -94.5v-50h-86v46q0 33 -12 48t-39 15q-58 0 -58 -66q0 -41 16 -70 q3 -6 5 -9t6 -8l7.5 -9l13 -15l19.5 -23l64 -75q46 -55 59 -85t13 -86q0 -80 -36 -119q-27 -30 -86 -35v-84h-60v84z" />
<glyph unicode="%" horiz-adv-x="509" d="M104 331q-44 0 -59 18t-15 70v163q0 51 15.5 69t59.5 18q43 0 58.5 -18t15.5 -69v-163q0 -52 -15.5 -70t-59.5 -18zM133 0l195 667h48l-195 -667h-48zM105 370q15 0 19.5 7.5t4.5 32.5v179q0 23 -5 31.5t-19 8.5q-15 0 -20 -8.5t-5 -31.5v-179q0 -24 5 -32t20 -8zM330 85 v163q0 52 15 70t59 18t59 -18t15 -70v-163q0 -51 -15.5 -69t-58.5 -18t-58.5 18t-15.5 69zM380 77q0 -24 5 -32t20 -8q14 0 18.5 7.5t4.5 32.5v178q0 24 -5 32.5t-19 8.5t-19 -8.5t-5 -32.5v-178z" />
<glyph unicode="&#x26;" horiz-adv-x="398" d="M175 0q-81 0 -108 37.5t-27 149.5q0 56 5 82t18 42q18 22 61 30q-49 13 -64 44t-15 118q0 123 51 152q21 12 66 12h108v-73h-86q-34 0 -42.5 -21.5t-8.5 -102.5q0 -59 12.5 -76t55.5 -17h48v96h87v-96h45v-73h-45v-304h-161zM201 73h48v231h-63q-36 0 -47 -21.5 t-11 -91.5q0 -77 12.5 -97.5t60.5 -20.5z" />
<glyph unicode="'" horiz-adv-x="168" d="M52 399l-14 268h92l-14 -268h-64z" />
<glyph unicode="(" horiz-adv-x="229" d="M76 -18q-36 142 -36 263q0 122 36 264q6 24 47 158h59q-61 -283 -61 -421q0 -140 61 -422h-59q-28 90 -47 158z" />
<glyph unicode=")" horiz-adv-x="229" d="M153 -18q-5 -21 -47 -158h-59q61 282 61 422q0 138 -61 421h59q42 -137 47 -158q36 -142 36 -264q0 -121 -36 -263z" />
<glyph unicode="*" horiz-adv-x="453" d="M162 374l-51 36l65 89l-104 33l19 59l104 -33v109h62v-109l104 33l19 -59l-104 -33l64 -89l-50 -36l-64 88z" />
<glyph unicode="+" d="M143 200v109h-106v68h106v110h68v-110h106v-68h-106v-109h-68z" />
<glyph unicode="," horiz-adv-x="178" d="M21 -84l24 164h98l-56 -164h-66z" />
<glyph unicode="-" horiz-adv-x="131" d="M0 200v73h131v-73h-131z" />
<glyph unicode="." horiz-adv-x="178" d="M39 0v105h101v-105h-101z" />
<glyph unicode="/" horiz-adv-x="297" d="M-37 -176l247 843h73l-245 -843h-75z" />
<glyph unicode="0" d="M60 38q-22 33 -22 130v331q0 97 22 130q30 43 117 43q86 0 116 -43q22 -33 22 -130v-331q0 -97 -22 -130q-29 -43 -116 -43q-88 0 -117 43zM177 62q31 0 41 17t10 71v364q0 50 -11 68.5t-41 18.5q-29 0 -40 -18.5t-11 -69.5v-363q0 -52 10.5 -70t41.5 -18z" />
<glyph unicode="1" d="M150 0v557q-28 -50 -73 -79v84q45 44 84 105h76v-667h-87z" />
<glyph unicode="2" d="M34 0v80l138 261q31 59 41.5 94.5t10.5 81.5q0 49 -10 67.5t-37 18.5q-25 0 -35 -15.5t-10 -52.5v-34h-83v38q0 46 5 66.5t20 36.5q30 30 108 30q74 0 102.5 -34t28.5 -123q0 -60 -15.5 -108.5t-62.5 -131.5l-115 -205h200v-70h-286z" />
<glyph unicode="3" d="M30 131v51h88v-44q0 -41 12 -57.5t40 -16.5q31 0 41 21t10 83q0 37 -0.5 56.5t-4.5 38t-9 25t-19 12.5t-28 6.5t-42 0.5v77q10 -1 24 -1q47 0 59 17t12 83q0 71 -10 95.5t-40 24.5q-24 0 -34.5 -15.5t-10.5 -52.5v-33h-88v41q0 70 26 95q34 34 118 34q77 0 102.5 -35 t25.5 -138q0 -86 -14.5 -113t-66.5 -40q34 -7 47.5 -14.5t22.5 -23.5q19 -32 19 -125q0 -120 -31 -152q-35 -36 -118 -36q-72 0 -101.5 31t-29.5 105z" />
<glyph unicode="4" d="M12 162v79l147 426h116v-435h66v-70h-66v-162h-87v162h-176zM91 232h97v293z" />
<glyph unicode="5" d="M44 140v43h87v-40q0 -45 11 -62t39 -17q31 0 41.5 18.5t10.5 71.5v122q0 52 -10 70.5t-39 18.5q-53 0 -53 -72v-24h-87v398h261v-70h-174v-205q17 23 36.5 32.5t50.5 9.5q60 0 83 -35q21 -31 21 -200q0 -75 -6 -111t-22 -54q-34 -39 -115 -39q-73 0 -104 33t-31 112z" />
<glyph unicode="6" d="M61 34q-23 29 -23 144v312q0 66 5.5 94t21.5 47q35 41 117 41q71 0 100 -31.5t29 -108.5v-31h-85v28q0 46 -9 60t-38 14q-32 0 -43 -20.5t-11 -81.5v-105q35 38 83 38q60 0 86 -40q22 -34 22 -179q0 -89 -6 -127t-22 -56q-33 -37 -113 -37q-81 0 -114 39zM176 64 q50 0 50 63v30v115q0 56 -8 71q-10 22 -41 22q-34 0 -45 -25q-7 -14 -7 -68v-115q0 -56 10 -74.5t41 -18.5z" />
<glyph unicode="7" d="M89 0l121 597h-166v70h253v-70l-111 -597h-97z" />
<glyph unicode="8" d="M60 36q-23 30 -23 139q0 112 27 142q20 23 59 27q-49 11 -64.5 42.5t-15.5 117.5q0 95 24 129q28 39 110 39t110 -39q24 -34 24 -129q0 -86 -15.5 -117.5t-64.5 -42.5q44 -4 66 -35q20 -29 20 -134q0 -114 -27 -144q-33 -36 -112 -36q-86 0 -118 41zM177 382 q28 0 36.5 15.5t8.5 62.5v74q0 40 -9.5 54.5t-35.5 14.5q-28 0 -36.5 -13.5t-8.5 -55.5v-74q0 -47 8.5 -62.5t36.5 -15.5zM177 64q29 0 40 16t11 60v79q0 52 -10 69.5t-41 17.5t-41 -17.5t-10 -69.5v-79q0 -44 11 -60t40 -16z" />
<glyph unicode="9" d="M41 135v31h85v-27q0 -43 10 -59t38 -16q32 0 43 20.5t11 81.5v105q-35 -38 -83 -38q-59 0 -87 40q-21 31 -21 180q0 91 5.5 127.5t21.5 54.5q33 37 115 37q83 0 114 -39q23 -29 23 -144v-312q0 -66 -5.5 -94t-21.5 -47q-35 -41 -117 -41q-73 0 -102 31t-29 109zM178 302 q30 0 40 18.5t10 74.5v114q0 56 -10 75t-41 19q-33 0 -44 -25q-7 -15 -7 -69v-114q0 -56 10.5 -74.5t41.5 -18.5z" />
<glyph unicode=":" horiz-adv-x="178" d="M39 354v105h101v-105h-101zM39 0v105h101v-105h-101z" />
<glyph unicode=";" horiz-adv-x="178" d="M44 354v105h101v-105h-101zM19 -84l24 164h101l-55 -164h-70z" />
<glyph unicode="&#x3c;" horiz-adv-x="500" d="M33 301v73l433 207v-85l-342 -159l342 -159v-84z" />
<glyph unicode="=" d="M37 369v68h280v-68h-280zM37 249v68h280v-68h-280z" />
<glyph unicode="&#x3e;" horiz-adv-x="500" d="M34 94v85l342 158l-342 159v84l433 -206v-73z" />
<glyph unicode="?" horiz-adv-x="299" d="M108 149v138v13.5v11.5t0.5 9t1.5 10.5t3 11.5t5 15.5l8 19.5l27 68q15 39 19 55t4 43q0 37 -7.5 51.5t-26.5 14.5q-16 0 -22 -11.5t-6 -44.5v-50h-87v36q0 46 4.5 67t18.5 35q28 30 100 30q65 0 89 -29t24 -107q0 -42 -3.5 -58.5t-23.5 -60.5l-30 -69q-18 -41 -22 -56 t-4 -52v-91h-72zM95 0v88h98v-88h-98z" />
<glyph unicode="@" horiz-adv-x="621" d="M113 -7q-75 93 -75 229q0 148 86.5 251.5t210.5 103.5q107 0 177.5 -78.5t70.5 -198.5q0 -95 -45.5 -169.5t-104.5 -74.5q-49 0 -69 53q-14 -27 -37.5 -43t-47.5 -16q-46 0 -75.5 42.5t-29.5 107.5q0 82 43.5 145t100.5 63q24 0 39.5 -12.5t28.5 -41.5l8 43l68 -1 l-38 -201q-7 -37 -7 -48q0 -14 6 -23.5t14 -9.5q31 0 57 57.5t26 125.5q0 96 -52 156.5t-134 60.5q-96 0 -162.5 -85t-66.5 -207q0 -108 53 -182q53 -77 159 -77q88 0 160 42l15 -63q-81 -42 -175 -42q-131 0 -204 93zM294 119q28 0 49.5 42.5t21.5 97.5q0 75 -42 77 q-29 2 -52 -39.5t-23 -93.5q0 -37 13 -60.5t33 -23.5z" />
<glyph unicode="A" horiz-adv-x="407" d="M5 0l150 667h98l148 -667h-97l-35 171h-138l-37 -171h-89zM147 244h107l-53 271z" />
<glyph unicode="B" horiz-adv-x="383" d="M48 0v667h156q84 0 108 -27q29 -34 29 -143q0 -80 -14.5 -109t-63.5 -46q54 -12 68.5 -41.5t14.5 -126.5q0 -107 -32 -140.5t-135 -33.5h-131zM138 379h46q43 0 57 18t14 74q0 75 -9 100q-7 21 -55 21h-53v-213zM138 75h43q49 0 63.5 20.5t14.5 90.5q0 77 -12 98.5 t-54 21.5h-55v-231z" />
<glyph unicode="C" horiz-adv-x="345" d="M62 43q-24 37 -24 140v317q0 54 5.5 79.5t20.5 44.5q39 48 124 48q73 0 107 -34q30 -30 30 -106v-47h-88v36q0 43 -11.5 60t-40.5 17q-31 0 -44 -19.5t-13 -67.5v-342q0 -59 12 -80t44 -21q29 0 41 17.5t12 58.5v49h88v-48q0 -49 -7.5 -74t-28.5 -43q-38 -33 -108 -33 q-86 0 -119 48z" />
<glyph unicode="D" horiz-adv-x="389" d="M48 0v667h131q65 0 91 -5t44 -22q37 -36 37 -193v-225q0 -83 -6 -119t-23 -59q-18 -25 -53 -34.5t-105 -9.5h-116zM138 75h35q60 0 74 18.5t14 97.5v283q0 81 -13 99.5t-70 18.5h-40v-517z" />
<glyph unicode="E" horiz-adv-x="333" d="M48 0v667h250v-75h-160v-210h155v-75h-155v-232h168v-75h-258z" />
<glyph unicode="F" horiz-adv-x="319" d="M48 0v667h251v-75h-161v-219h155v-75h-155v-298h-90z" />
<glyph unicode="G" horiz-adv-x="387" d="M75 33q-22 21 -29.5 51t-7.5 95v310q0 96 24 131q36 52 139 52q83 0 115 -32q29 -30 29 -109v-42h-86v18q0 56 -10 70q-16 21 -50 21q-39 0 -57 -24q-14 -18 -14 -68v-334q0 -62 15.5 -83t61.5 -21q19 0 54 7v202h-64v75h154v-339q-98 -18 -153 -18q-83 0 -121 38z" />
<glyph unicode="H" horiz-adv-x="398" d="M48 0v667h90v-288h122v288h90v-667h-90v304h-122v-304h-90z" />
<glyph unicode="I" horiz-adv-x="186" d="M48 0v667h90v-667h-90z" />
<glyph unicode="J" horiz-adv-x="312" d="M97 83q8 -15 34 -15q27 0 35 17t8 75v507h90v-509q0 -59 -4.5 -83t-19.5 -43q-28 -37 -111 -37q-77 0 -103 33.5t-26 130.5v36h90v-32q0 -51 1 -61t6 -19z" />
<glyph unicode="K" horiz-adv-x="392" d="M291 0l-143 358l131 309h93l-135 -301l155 -366h-101zM48 0v667h90v-667h-90z" />
<glyph unicode="L" horiz-adv-x="298" d="M48 0v667h90v-592h160v-75h-250z" />
<glyph unicode="M" horiz-adv-x="550" d="M48 0v667h147l83 -464l78 464h146v-667h-90v556l-96 -556h-88l-100 556v-556h-80z" />
<glyph unicode="N" horiz-adv-x="428" d="M48 0v667h123l128 -485v485h81v-667h-122l-130 491v-491h-80z" />
<glyph unicode="O" horiz-adv-x="383" d="M67 38q-29 36 -29 145v301q0 109 29 145q34 43 125 43q90 0 124 -43q29 -36 29 -145v-301q0 -109 -29 -145q-34 -43 -124 -43q-91 0 -125 43zM139 95q16 -27 52 -27q40 0 54 30q10 21 10 86v299q0 68 -11 89q-16 27 -52 27q-40 0 -54 -30q-10 -21 -10 -86v-299 q0 -68 11 -89z" />
<glyph unicode="P" horiz-adv-x="371" d="M48 0v667h147q53 0 78 -5.5t40 -21.5q35 -35 35 -168q0 -118 -41 -156q-16 -15 -45 -20t-95 -5h-29v-291h-90zM138 366h53q40 0 55 23.5t15 88.5q0 71 -12 92.5t-53 21.5h-58v-226z" />
<glyph unicode="Q" horiz-adv-x="393" d="M67 38q-29 37 -29 147v301q0 108 29 144q35 42 126 42t124 -42q28 -35 28 -143v-256q0 -83 -12 -117.5t-53 -66.5q31 17 49 21.5t50 4.5h21v-73h-39q-62 0 -122 -3q-40 -2 -52 -2q-87 0 -120 43zM139 96q16 -27 52 -27q41 0 54 31q10 20 10 84v301q0 67 -11 87 q-14 27 -52 27q-45 0 -57 -37q-7 -20 -7 -78v-300q0 -69 11 -88z" />
<glyph unicode="R" horiz-adv-x="391" d="M48 0v667h144q93 0 120 -24q36 -30 36 -144q0 -89 -18 -120.5t-77 -44.5q55 -7 73 -29t18 -82v-182q0 -31 9 -41h-89q-10 10 -10 41v165q0 56 -13 73t-56 17h-47v-296h-90zM138 372h42q51 0 66 19t15 84q0 79 -12 98t-63 19h-48v-220z" />
<glyph unicode="S" horiz-adv-x="347" d="M61 29q-31 31 -31 109v55h88v-43q0 -46 12.5 -64t44.5 -18t46 19t14 62q0 39 -10.5 62.5t-47.5 63.5l-71 78q-42 47 -58 83.5t-16 85.5q0 150 152 150q70 0 100 -30.5t30 -102.5v-50h-86v46q0 34 -12 48.5t-39 14.5q-58 0 -58 -67q0 -38 11 -59t56 -74l64 -75 q46 -55 59 -85t13 -86q0 -83 -35.5 -120t-115.5 -37q-75 0 -110 34z" />
<glyph unicode="T" horiz-adv-x="324" d="M117 0v592h-117v75h324v-75h-117v-592h-90z" />
<glyph unicode="U" horiz-adv-x="402" d="M74 41q-26 35 -26 142v484h90v-498q0 -60 13 -80.5t50 -20.5t50 20.5t13 80.5v498h90v-484q0 -107 -26 -142q-35 -46 -127 -46t-127 46z" />
<glyph unicode="V" horiz-adv-x="390" d="M147 0l-142 667h96l103 -529l97 529h84l-133 -667h-105z" />
<glyph unicode="W" horiz-adv-x="604" d="M121 0l-112 667h95l72 -481l82 481h102l78 -481l74 481h84l-114 -667h-102l-78 482l-84 -482h-97z" />
<glyph unicode="X" horiz-adv-x="385" d="M0 0l143 341l-136 326h105l85 -224l86 224h92l-133 -326l143 -341h-102l-96 239l-93 -239h-94z" />
<glyph unicode="Y" horiz-adv-x="363" d="M138 0v271l-138 396h98l90 -269l86 269h89l-135 -396v-271h-90z" />
<glyph unicode="Z" horiz-adv-x="350" d="M23 0v78l205 514h-198v75h294v-76l-207 -516h216v-75h-310z" />
<glyph unicode="[" horiz-adv-x="246" d="M137 -120h79v-56h-159v843h159v-56h-79v-731z" />
<glyph unicode="\" horiz-adv-x="297" d="M259 -176l-246 843h73l247 -843h-74z" />
<glyph unicode="]" horiz-adv-x="243" d="M30 -120h79v731h-79v56h159v-843h-159v56z" />
<glyph unicode="^" horiz-adv-x="500" d="M21 359l173 310h112l173 -310h-91l-138 243l-138 -243h-91z" />
<glyph unicode="_" horiz-adv-x="500" d="M0 -61h500v-78h-500v78z" />
<glyph unicode="`" horiz-adv-x="500" d="M232 517l-83 140h88l54 -140h-59z" />
<glyph unicode="a" horiz-adv-x="312" d="M43 30q-11 19 -11 103q0 69 10 99.5t36 40.5q17 7 34 9t76 4v51q0 40 -6.5 54.5t-25.5 14.5q-20 0 -26.5 -14.5t-6.5 -56.5v-9h-83v21l-1 4v3q0 52 14 72q26 38 109 38q63 0 86.5 -28t23.5 -102v-334h-79v43q-18 -27 -36 -37.5t-46 -10.5q-50 0 -68 35zM149 53 q26 0 35 19q4 12 4 42v115q-47 -1 -60 -16t-13 -70q0 -60 5.5 -75t28.5 -15z" />
<glyph unicode="b" horiz-adv-x="311" d="M40 0v667h84v-241q26 38 71 38q44 0 65 -26q17 -23 17 -101v-202q0 -90 -14 -110q-21 -30 -65 -30q-27 0 -44.5 10.5t-35.5 37.5v-43h-78zM159 53q20 0 27 12.5t7 49.5v225q0 40 -7 53t-27 13t-27.5 -14t-7.5 -52v-225q0 -36 7.5 -49t27.5 -13z" />
<glyph unicode="c" horiz-adv-x="286" d="M33 142v183q0 82 21 107q26 32 96 32q62 0 87 -27.5t25 -95.5v-33h-81v32q0 38 -6.5 52t-25.5 14t-27 -16q-5 -12 -5 -51v-220q0 -38 6.5 -52t24.5 -14q19 0 26 15.5t7 54.5v35h81v-32q0 -49 -3.5 -67.5t-16.5 -33.5q-26 -30 -92 -30q-70 0 -93.5 29.5t-23.5 117.5z" />
<glyph unicode="d" horiz-adv-x="311" d="M44 28q-11 19 -11 107v202q0 82 19 104q21 23 63 23q45 0 71 -38v241h84v-667h-78v43q-18 -27 -36 -37.5t-44 -10.5q-49 0 -68 33zM152 53q20 0 27 12.5t7 49.5v225q0 40 -7 53t-27 13t-27.5 -14t-7.5 -52v-225q0 -36 7.5 -49t27.5 -13z" />
<glyph unicode="e" horiz-adv-x="306" d="M33 120v197q0 85 25 114q28 33 98 33t93 -30.5t23 -120.5v-107h-155v-88q0 -38 7 -51.5t28 -13.5q20 0 28 14t8 51v33h84v-33q0 -65 -27.5 -94t-90.5 -29q-67 0 -94 28t-27 97zM117 264h71v63q0 49 -6.5 64t-28.5 15t-29 -15.5t-7 -63.5v-63z" />
<glyph unicode="f" horiz-adv-x="188" d="M49 0v401h-49v58h49v111q0 59 22.5 78t93.5 19h26v-61q-40 -1 -49 -11.5t-9 -55.5v-80h58v-58h-58v-401h-84z" />
<glyph unicode="g" horiz-adv-x="315" d="M43 46q-10 25 -10 102v177q0 90 15 109q22 30 70 30q33 0 50.5 -14t27.5 -49v58h78v-474q0 -66 -5.5 -94.5t-21.5 -43.5q-30 -27 -98 -27q-61 0 -84.5 23.5t-23.5 82.5v22h82v-20q0 -29 7 -39.5t26 -10.5q21 0 27.5 11.5t6.5 48.5v113q-13 -26 -30.5 -37t-46.5 -11 q-54 0 -70 43zM151 61q22 0 30.5 13.5t8.5 46.5v222q0 35 -8 49t-29 14q-22 0 -29 -12.5t-7 -50.5v-222q0 -36 7 -48t27 -12z" />
<glyph unicode="h" horiz-adv-x="315" d="M40 0v667h84v-233q34 30 71 30q48 0 67 -31q13 -22 13 -95v-338h-84v341q0 39 -6.5 52t-25.5 13q-20 0 -27.5 -13t-7.5 -50v-343h-84z" />
<glyph unicode="i" horiz-adv-x="164" d="M40 579v88h84v-88h-84zM40 0v459h84v-459h-84z" />
<glyph unicode="j" horiz-adv-x="164" d="M40 579v88h84v-88h-84zM40 -36v495h84v-496q0 -65 -3.5 -87.5t-15.5 -33.5q-18 -18 -71 -18h-40v59q4 -1 12 -1q24 0 30 18q4 11 4 64z" />
<glyph unicode="k" horiz-adv-x="296" d="M40 0v667h84v-667h-84zM206 0l-74 249l74 210h77l-72 -202l81 -257h-86z" />
<glyph unicode="l" horiz-adv-x="164" d="M40 0v667h84v-667h-84z" />
<glyph unicode="m" horiz-adv-x="473" d="M40 0v459h78v-46q25 31 42 41t44 10q29 0 45.5 -11t29.5 -40q19 29 35.5 40t43.5 11q43 0 59 -26.5t16 -97.5v-340h-84v341q0 38 -7 51.5t-27 13.5t-28 -14.5t-8 -50.5v-341h-84v339q0 39 -7.5 53t-27.5 14t-28 -14t-8 -51v-341h-84z" />
<glyph unicode="n" horiz-adv-x="319" d="M40 0v459h79v-45q23 29 40.5 39.5t44.5 10.5q44 0 59.5 -25.5t15.5 -98.5v-340h-84v340q0 40 -7 53t-27 13q-21 0 -29 -13.5t-8 -50.5v-342h-84z" />
<glyph unicode="o" horiz-adv-x="307" d="M33 148v163q0 93 23.5 123t97.5 30q73 0 96.5 -30t23.5 -123v-163q0 -93 -23.5 -123t-97.5 -30q-73 0 -96.5 30t-23.5 123zM153 53q22 0 29.5 15.5t7.5 59.5v203q0 44 -7.5 59.5t-29.5 15.5q-21 0 -28.5 -15.5t-7.5 -59.5v-203q0 -44 7.5 -59.5t28.5 -15.5z" />
<glyph unicode="p" horiz-adv-x="313" d="M124 35v-211h-84v635h78v-41q20 26 37 36t42 10q48 0 69 -33q14 -21 14 -106v-200q0 -80 -16 -103q-20 -27 -66 -27q-25 0 -41 8.5t-33 31.5zM157 53q25 0 34 19q5 12 5 51v217q0 35 -9 50.5t-29 15.5q-22 0 -30 -19q-4 -9 -4 -48v-216q0 -43 6.5 -56.5t26.5 -13.5z" />
<glyph unicode="q" horiz-adv-x="313" d="M47 26q-14 22 -14 99v200q0 52 3.5 74t13.5 35q22 30 66 30q46 0 78 -46v41h79v-635h-84v211q-17 -23 -33 -31.5t-41 -8.5q-48 0 -68 31zM150 53q24 0 34 19q5 12 5 51v217q0 35 -9 50.5t-29 15.5q-22 0 -30 -19q-4 -9 -4 -48v-216q0 -43 6.5 -56.5t26.5 -13.5z" />
<glyph unicode="r" horiz-adv-x="202" d="M40 0v459h77v-54q21 31 37.5 43t44.5 16v-91h-13q-40 0 -53 -24q-9 -12 -9 -61v-288h-84z" />
<glyph unicode="s" horiz-adv-x="277" d="M45 21q-20 21 -20 85v45h80v-37q0 -36 7 -48.5t27 -12.5q19 0 26.5 11.5t7.5 41.5q0 35 -10 50.5t-63 60.5q-49 43 -63 67t-14 67q0 113 122 113q57 0 79 -24.5t22 -88.5v-36h-77v29q0 34 -7 48t-24 14q-32 0 -32 -47q0 -27 11 -44t55 -54q53 -45 62 -57q22 -31 22 -91 q0 -66 -26.5 -92t-93.5 -26q-66 0 -91 26z" />
<glyph unicode="t" horiz-adv-x="203" d="M50 95v306h-47v58h47v94l84 30v-124h60v-58h-60v-284q0 -35 9 -46.5t38 -11.5q11 0 19 1v-61q-27 -4 -46 -4q-64 0 -84 19.5t-20 80.5z" />
<glyph unicode="u" horiz-adv-x="318" d="M40 105v354h84v-345q0 -35 7.5 -48t27.5 -13t27.5 14t7.5 49v343h84v-459h-79v49q-18 -32 -34.5 -43t-45.5 -11q-44 0 -61.5 24t-17.5 86z" />
<glyph unicode="v" horiz-adv-x="295" d="M97 0l-94 459h89l60 -317l63 317h76l-99 -459h-95z" />
<glyph unicode="w" horiz-adv-x="488" d="M91 0l-86 459h88l54 -313l59 313h91l58 -313l52 313h76l-85 -459h-96l-55 315l-62 -315h-94z" />
<glyph unicode="x" horiz-adv-x="291" d="M0 0l102 239l-94 220h94l49 -134l54 134h78l-91 -220l99 -239h-96l-54 151l-60 -151h-81z" />
<glyph unicode="y" horiz-adv-x="294" d="M107 -1l-104 460h89l58 -277l66 277h74l-147 -635h-77z" />
<glyph unicode="z" horiz-adv-x="248" d="M13 0v68l133 333h-128v58h216v-65l-135 -336h135v-58h-221z" />
<glyph unicode="{" horiz-adv-x="262" d="M64 -30v151q0 47 -12.5 69.5t-43.5 30.5v56q30 8 43 30t13 64v157q0 74 35.5 106.5t114.5 32.5q14 0 25 -1v-56q-59 0 -77 -15.5t-18 -65.5v-164q0 -48 -11.5 -73.5t-43.5 -45.5q31 -20 43 -46t12 -74v-162q0 -55 21 -71q16 -13 64 -13h10v-56h-27q-79 0 -113.5 34 t-34.5 112z" />
<glyph unicode="|" horiz-adv-x="500" d="M207 -167v834h85v-834h-85z" />
<glyph unicode="}" horiz-adv-x="262" d="M23 -119q59 0 77 15.5t18 65.5v164q0 48 11.5 73.5t43.5 45.5q-31 20 -43 46t-12 74v162q0 55 -21 71q-16 13 -64 13h-10v56h27q79 0 113.5 -34t34.5 -112v-151q0 -47 12.5 -69.5t43.5 -30.5v-56q-30 -8 -43 -30t-13 -64v-157q0 -74 -35.5 -106.5t-114.5 -32.5 q-14 0 -25 1v56z" />
<glyph unicode="~" horiz-adv-x="667" d="M141 578l-49 32q21 44 37 65q40 55 103 55q38 0 110 -32q70 -30 95 -30q27 0 46 13.5t41 50.5l50 -30q-29 -59 -59 -83q-39 -33 -89 -33q-30 0 -141 47q-35 15 -60 15t-44 -16t-40 -54z" />
<glyph unicode="&#xa1;" horiz-adv-x="191" d="M47 371v88h98v-88h-98zM47 -208l13 518h69l16 -518h-98z" />
<glyph unicode="&#xa2;" d="M148 19v83q-52 7 -69 35.5t-17 108.5v184q0 77 17.5 103.5t72.5 33.5v76h60v-78q46 -8 62.5 -33t16.5 -86v-33h-81v32q0 39 -6.5 52.5t-25.5 13.5t-27 -16q-5 -9 -5 -51v-221q0 -38 6.5 -51.5t24.5 -13.5q19 0 26 15t7 54v35h81v-32q0 -49 -3.5 -66.5t-16.5 -33.5 q-18 -23 -63 -28v-83h-60z" />
<glyph unicode="&#xa3;" d="M22 0v75h23v256h-30v60h30v95q0 72 8.5 105.5t31.5 52.5q34 28 113 28q89 0 122 -34.5t33 -126.5v-25h-88v26q0 48 -15 68t-50 20q-51 0 -63 -40q-5 -18 -5 -74v-95h96v-60h-96v-256h204v-75h-314z" />
<glyph unicode="&#xa4;" d="M60 213l-38 38l48 48q-21 38 -21 68t21 68l-49 48l38 39l49 -49q38 21 69 21q32 0 68 -21l49 48l38 -38l-48 -48q21 -38 21 -68q0 -32 -21 -68l49 -48l-38 -39l-49 49q-35 -21 -68 -21q-30 0 -69 21zM177 299q28 0 48 20t20 48t-19.5 48t-47.5 20q-29 0 -49 -19.5 t-20 -48.5q0 -28 20 -48t48 -20z" />
<glyph unicode="&#xa5;" d="M135 0v247h-112v60h100l-24 73h-83v60h63l-74 227h95l82 -275l81 275h84l-71 -227h60v-60h-79l-24 -73h97v-60h-108v-247h-87z" />
<glyph unicode="&#xa6;" horiz-adv-x="500" d="M207 331v336h85v-336h-85zM207 153h85v-320h-85v320z" />
<glyph unicode="&#xa7;" horiz-adv-x="453" d="M67 3q50 -32 82 -44t72 -12q45 0 71 22.5t26 62.5q0 32 -18.5 48.5t-82.5 38.5q-89 32 -123.5 65.5t-34.5 88.5q0 48 20 76t77 60q-52 22 -73 49.5t-21 73.5q0 65 44.5 102.5t121.5 37.5q73 0 142 -36v-85q-61 49 -136 49q-44 0 -67.5 -16t-23.5 -45q0 -27 17.5 -41 t82.5 -38q77 -29 102 -48q51 -39 51 -108q0 -42 -22 -73t-71 -59q52 -25 73.5 -56.5t21.5 -84.5q0 -73 -46 -114t-128 -41q-86 0 -157 40v87zM241 195q76 56 76 103q0 44 -41 65q-20 9 -61 24q-41 -29 -58.5 -53t-17.5 -52q0 -29 20 -46.5t82 -40.5z" />
<glyph unicode="&#xa8;" horiz-adv-x="500" d="M273 539v88h77v-88h-77zM149 539v88h77v-88h-77z" />
<glyph unicode="&#xa9;" horiz-adv-x="689" d="M38 336q0 141 91 239.5t220 98.5q124 0 213 -100.5t89 -239.5q0 -141 -89.5 -241t-216.5 -100q-128 0 -217.5 100t-89.5 243zM88 336q0 -122 75 -207.5t182 -85.5q106 0 181 85.5t75 205.5q0 118 -74.5 204t-177.5 86q-119 0 -195 -97q-66 -83 -66 -191zM274 172 q-15 20 -15 80v178q0 54 16 71q23 28 75 28q44 0 63.5 -19.5t19.5 -62.5v-29h-58v23q0 22 -6 31t-21 9q-17 0 -23.5 -9.5t-6.5 -35.5v-192q0 -31 6 -41.5t24 -10.5q15 0 21 8.5t6 29.5v31h58v-30q0 -50 -22 -68q-24 -19 -65 -19q-53 0 -72 28z" />
<glyph unicode="&#xaa;" horiz-adv-x="245" d="M94 388q-32 0 -46 22q-7 14 -7 64q0 41 7 59.5t24 25.5q16 7 67 8v27q0 23 -3.5 30t-13.5 7t-13.5 -7.5t-3.5 -30.5v-9h-59v16v2v2v6q0 34 18.5 48t61.5 14q41 0 57 -17.5t16 -62.5v-201h-57v19q-19 -22 -48 -22zM118 429q13 0 17 6.5t4 26.5v64q-25 0 -32 -8.5t-7 -38.5 q0 -34 3 -42t15 -8zM38 307v45h169v-45h-169z" />
<glyph unicode="&#xab;" horiz-adv-x="335" d="M246 8l-92 229l92 229h62l-68 -229l68 -229h-62zM120 8l-93 229l93 229h62l-68 -229l68 -229h-62z" />
<glyph unicode="&#xac;" horiz-adv-x="500" d="M33 187v79h433v-266h-85v187h-348z" />
<glyph unicode="&#xad;" horiz-adv-x="131" d="M0 200v73h131v-73h-131z" />
<glyph unicode="&#xae;" horiz-adv-x="689" d="M38 336q0 141 91 239.5t220 98.5q124 0 213 -100.5t89 -239.5q0 -141 -89.5 -241t-216.5 -100q-128 0 -217.5 100t-89.5 243zM88 336q0 -122 75 -207.5t182 -85.5q106 0 181 85.5t75 205.5q0 118 -74.5 204t-177.5 86q-119 0 -195 -97q-66 -83 -66 -191zM256 147v380h87 q58 0 75.5 -18t17.5 -80q0 -45 -8 -62.5t-34 -28.5q23 -7 31.5 -19.5t8.5 -42.5v-102q0 -19 10 -27h-61q-8 7 -8 26v93q0 30 -6.5 38.5t-30.5 8.5h-23v-166h-59zM315 362h21q27 0 35 10t8 44q0 43 -6 52.5t-34 9.5h-24v-116z" />
<glyph unicode="&#xaf;" horiz-adv-x="500" d="M145 553v56h209v-56h-209z" />
<glyph unicode="&#xb0;" horiz-adv-x="339" d="M169 405q-54 0 -92.5 39.5t-38.5 95.5q0 55 39 93.5t95 38.5q52 0 90.5 -39.5t38.5 -93.5q0 -56 -38.5 -95t-93.5 -39zM169 461q31 0 53.5 23t22.5 55t-22 54.5t-53 22.5q-32 0 -54.5 -22.5t-22.5 -54.5t22.5 -55t53.5 -23z" />
<glyph unicode="&#xb1;" d="M143 233v110h-106v68h106v109h68v-109h106v-68h-106v-110h-68zM37 129v68h280v-68h-280z" />
<glyph unicode="&#xb2;" horiz-adv-x="247" d="M31 267v51l86 155q31 56 31 102q0 28 -5.5 38t-20.5 10q-14 0 -19 -8t-5 -29v-24h-58v26q0 48 18 65t68 17q47 0 65.5 -21.5t18.5 -74.5q0 -35 -10 -65t-39 -78l-68 -116h122v-48h-184z" />
<glyph unicode="&#xb3;" horiz-adv-x="247" d="M113 264q-46 0 -65 19t-19 65v33h61v-29q0 -23 6 -32t21 -9q19 0 24.5 11t5.5 49q0 56 -8.5 66.5t-55.5 10.5v52q7 -1 18 -1q28 0 34.5 9t6.5 48q0 40 -5.5 53.5t-21.5 13.5q-14 0 -19.5 -8.5t-5.5 -28.5v-23h-61v27q0 44 20.5 62t71.5 18q49 0 66 -21.5t17 -83.5 q0 -47 -7 -64t-32 -26q26 -7 35 -27t9 -70q0 -68 -19.5 -91t-76.5 -23z" />
<glyph unicode="&#xb4;" horiz-adv-x="500" d="M209 517l53 140h89l-83 -140h-59z" />
<glyph unicode="&#xb5;" horiz-adv-x="500" d="M127 59v-228h-85v649h85v-268q0 -52 8 -79t29 -47q35 -33 84 -33q56 0 92 45q33 43 33 122v260h85v-480h-85v79q-42 -91 -127 -91q-75 0 -119 71z" />
<glyph unicode="&#xb6;" d="M126 -176v553q-35 0 -54 9q-30 14 -47.5 49.5t-17.5 82.5q0 73 37.5 111t109.5 38h190v-70h-38v-773h-62v773h-56v-773h-62z" />
<glyph unicode="&#xb7;" horiz-adv-x="178" d="M39 185v105h101v-105h-101z" />
<glyph unicode="&#xb8;" horiz-adv-x="500" d="M231 -50h60l-35 -138h-87z" />
<glyph unicode="&#xb9;" horiz-adv-x="247" d="M103 267v320q-19 -25 -45 -41v57q32 30 53 64h52v-400h-60z" />
<glyph unicode="&#xba;" horiz-adv-x="245" d="M122 389q-47 0 -63 18.5t-16 74.5v96q0 56 16 75t63 19t63 -19t16 -75v-96q0 -56 -16 -74.5t-63 -18.5zM122 430q11 0 15 8t4 32v120q0 25 -4 33t-15 8t-15 -8t-4 -33v-120q0 -24 4 -32t15 -8zM38 307v45h169v-45h-169z" />
<glyph unicode="&#xbb;" horiz-adv-x="335" d="M154 8l68 229l-68 229h62l92 -229l-92 -229h-62zM27 8l68 229l-68 229h62l93 -229l-93 -229h-62z" />
<glyph unicode="&#xbc;" horiz-adv-x="586" d="M168 0l196 667h54l-195 -667h-55zM103 267v320q-19 -25 -45 -41v57q32 30 53 64h52v-400h-60zM357 96v51l92 253h77v-256h42v-48h-42v-96h-60v96h-109zM414 144h52v150z" />
<glyph unicode="&#xbd;" horiz-adv-x="586" d="M168 0l196 667h54l-195 -667h-55zM103 267v320q-19 -25 -45 -41v57q32 30 53 64h52v-400h-60zM370 0v51l87 156q31 56 31 101q0 28 -5.5 38t-20.5 10q-14 0 -19 -8t-5 -28v-24h-58v25q0 48 17.5 65t67.5 17q47 0 65.5 -21t18.5 -74q0 -35 -10 -65.5t-38 -78.5l-68 -116 h121v-48h-184z" />
<glyph unicode="&#xbe;" horiz-adv-x="586" d="M113 264q-46 0 -65 19t-19 65v33h61v-29q0 -23 6 -32t21 -9q19 0 24.5 11t5.5 49q0 56 -8.5 66.5t-55.5 10.5v52q7 -1 18 -1q28 0 34.5 9t6.5 48q0 40 -5.5 53.5t-21.5 13.5q-14 0 -19.5 -8.5t-5.5 -28.5v-23h-61v27q0 44 20.5 62t71.5 18q49 0 66 -21.5t17 -83.5 q0 -47 -7 -64t-32 -26q26 -7 35 -27t9 -70q0 -68 -19.5 -91t-76.5 -23zM168 0l195 667h54l-194 -667h-55zM357 96v51l92 253h77v-256h42v-48h-42v-96h-60v96h-109zM414 144h52v150z" />
<glyph unicode="&#xbf;" horiz-adv-x="299" d="M107 371v88h98v-88h-98zM64 42l30 69q18 41 22 56t4 52v91h72v-138v-13.5v-11.5t-0.5 -9t-1.5 -10.5t-3 -11.5t-5 -15.5l-8 -19.5l-27 -68q-15 -39 -19 -55t-4 -43q0 -36 7.5 -50.5t26.5 -14.5q16 0 22 11.5t6 43.5v50h87v-36q0 -46 -4.5 -66.5t-18.5 -34.5 q-27 -30 -100 -30q-65 0 -89 29t-24 106q0 42 3.5 57.5t23.5 61.5z" />
<glyph unicode="&#xc0;" horiz-adv-x="407" d="M175 717l-83 140h88l54 -140h-59zM5 0l150 667h98l148 -667h-97l-35 171h-138l-37 -171h-89zM147 244h107l-53 271z" />
<glyph unicode="&#xc1;" horiz-adv-x="407" d="M179 717l53 140h89l-83 -140h-59zM5 0l150 667h98l148 -667h-97l-35 171h-138l-37 -171h-89zM147 244h107l-53 271z" />
<glyph unicode="&#xc2;" horiz-adv-x="407" d="M97 717l56 141h108l56 -141h-63l-47 99l-47 -99h-63zM5 0l150 667h98l148 -667h-97l-35 171h-138l-37 -171h-89zM147 244h107l-53 271z" />
<glyph unicode="&#xc3;" horiz-adv-x="407" d="M106 736q5 104 63 104q23 0 64 -34q14 -11 24 -11q18 0 18 35q0 4 -1 7h49q0 -103 -59 -103q-11 0 -23 6.5t-52 34.5q-8 5 -14 5q-17 0 -20 -44h-49zM5 0l150 667h98l148 -667h-97l-35 171h-138l-37 -171h-89zM147 244h107l-53 271z" />
<glyph unicode="&#xc4;" horiz-adv-x="407" d="M237 737v88h77v-88h-77zM106 737v88h77v-88h-77zM5 0l150 667h98l148 -667h-97l-35 171h-138l-37 -171h-89zM147 244h107l-53 271z" />
<glyph unicode="&#xc5;" horiz-adv-x="407" d="M207 700q-36 0 -61.5 25.5t-25.5 62.5q0 36 25.5 61t62.5 25q34 0 59.5 -26t25.5 -61q0 -36 -25.5 -61.5t-60.5 -25.5zM207 748q16 0 27 11.5t11 27.5t-11 27.5t-27 11.5q-17 0 -28 -11t-11 -28q0 -16 11.5 -27.5t27.5 -11.5zM5 0l150 667h98l148 -667h-97l-35 171h-138 l-37 -171h-89zM147 244h107l-53 271z" />
<glyph unicode="&#xc6;" horiz-adv-x="577" d="M0 0l222 667h328v-77h-217l21 -209h186v-75h-177l24 -231h163v-75h-246l-16 169h-145l-55 -169h-88zM167 244h115l-26 284z" />
<glyph unicode="&#xc7;" horiz-adv-x="345" d="M62 43q-24 37 -24 140v317q0 54 5.5 79.5t20.5 44.5q39 48 124 48q73 0 107 -34q30 -30 30 -106v-47h-88v36q0 43 -11.5 60t-40.5 17q-31 0 -44 -19.5t-13 -67.5v-342q0 -59 12 -80t44 -21q29 0 41 17.5t12 58.5v49h88v-48q0 -49 -7.5 -74t-28.5 -43q-38 -33 -108 -33 q-86 0 -119 48zM148 -50h60l-36 -138h-86z" />
<glyph unicode="&#xc8;" horiz-adv-x="333" d="M153 717l-83 140h88l54 -140h-59zM48 0v667h250v-75h-160v-210h155v-75h-155v-232h168v-75h-258z" />
<glyph unicode="&#xc9;" horiz-adv-x="333" d="M152 717l53 140h89l-83 -140h-59zM48 0v667h250v-75h-160v-210h155v-75h-155v-232h168v-75h-258z" />
<glyph unicode="&#xca;" horiz-adv-x="333" d="M71 717l56 141h108l56 -141h-63l-47 99l-47 -99h-63zM48 0v667h250v-75h-160v-210h155v-75h-155v-232h168v-75h-258z" />
<glyph unicode="&#xcb;" horiz-adv-x="333" d="M207 737v88h77v-88h-77zM76 737v88h77v-88h-77zM48 0v667h250v-75h-160v-210h155v-75h-155v-232h168v-75h-258z" />
<glyph unicode="&#xcc;" horiz-adv-x="186" d="M67 717l-83 140h88l54 -140h-59zM48 0v667h90v-667h-90z" />
<glyph unicode="&#xcd;" horiz-adv-x="186" d="M67 717l53 140h89l-83 -140h-59zM48 0v667h90v-667h-90z" />
<glyph unicode="&#xce;" horiz-adv-x="186" d="M-7 717l52 141h102l52 -141h-63l-40 99l-40 -99h-63zM48 0v667h90v-667h-90z" />
<glyph unicode="&#xcf;" horiz-adv-x="186" d="M113 737v88h74v-88h-74zM6 737v88h74v-88h-74zM48 0v667h90v-667h-90z" />
<glyph unicode="&#xd0;" horiz-adv-x="389" d="M48 0v310h-45v67h45v290h132q64 0 90 -5t44 -22q37 -36 37 -192v-226q0 -83 -6 -119t-23 -59q-18 -25 -53 -34.5t-105 -9.5h-116zM138 75h35q60 0 74 18.5t14 97.5v283q0 81 -13 99.5t-70 18.5h-40v-215h70v-67h-70v-235z" />
<glyph unicode="&#xd1;" horiz-adv-x="428" d="M129 736q3 104 62 104q23 0 65 -34q14 -11 23 -11q17 0 18 42h49q0 -49 -15.5 -76t-44.5 -27q-16 0 -75 41q-7 5 -13 5q-17 0 -21 -44h-48zM48 0v667h123l128 -485v485h81v-667h-122l-130 491v-491h-80z" />
<glyph unicode="&#xd2;" horiz-adv-x="383" d="M164 717l-83 140h88l54 -140h-59zM67 38q-29 36 -29 145v301q0 109 29 145q34 43 125 43q90 0 124 -43q29 -36 29 -145v-301q0 -109 -29 -145q-34 -43 -124 -43q-91 0 -125 43zM139 95q16 -27 52 -27q40 0 54 30q10 21 10 86v299q0 68 -11 89q-16 27 -52 27 q-40 0 -54 -30q-10 -21 -10 -86v-299q0 -68 11 -89z" />
<glyph unicode="&#xd3;" horiz-adv-x="383" d="M168 717l53 140h89l-83 -140h-59zM67 38q-29 36 -29 145v301q0 109 29 145q34 43 125 43q90 0 124 -43q29 -36 29 -145v-301q0 -109 -29 -145q-34 -43 -124 -43q-91 0 -125 43zM139 95q16 -27 52 -27q40 0 54 30q10 21 10 86v299q0 68 -11 89q-16 27 -52 27 q-40 0 -54 -30q-10 -21 -10 -86v-299q0 -68 11 -89z" />
<glyph unicode="&#xd4;" horiz-adv-x="383" d="M89 717l56 141h108l56 -141h-63l-47 99l-47 -99h-63zM67 38q-29 36 -29 145v301q0 109 29 145q34 43 125 43q90 0 124 -43q29 -36 29 -145v-301q0 -109 -29 -145q-34 -43 -124 -43q-91 0 -125 43zM139 95q16 -27 52 -27q40 0 54 30q10 21 10 86v299q0 68 -11 89 q-16 27 -52 27q-40 0 -54 -30q-10 -21 -10 -86v-299q0 -68 11 -89z" />
<glyph unicode="&#xd5;" horiz-adv-x="383" d="M100 736q5 104 63 104q23 0 64 -34q14 -11 24 -11q18 0 18 35q0 4 -1 7h49q0 -103 -59 -103q-11 0 -23 6.5t-52 34.5q-8 5 -14 5q-17 0 -20 -44h-49zM67 38q-29 36 -29 145v301q0 109 29 145q34 43 125 43q90 0 124 -43q29 -36 29 -145v-301q0 -109 -29 -145 q-34 -43 -124 -43q-91 0 -125 43zM139 95q16 -27 52 -27q40 0 54 30q10 21 10 86v299q0 68 -11 89q-16 27 -52 27q-40 0 -54 -30q-10 -21 -10 -86v-299q0 -68 11 -89z" />
<glyph unicode="&#xd6;" horiz-adv-x="383" d="M222 737v88h77v-88h-77zM91 737v88h77v-88h-77zM67 38q-29 36 -29 145v301q0 109 29 145q34 43 125 43q90 0 124 -43q29 -36 29 -145v-301q0 -109 -29 -145q-34 -43 -124 -43q-91 0 -125 43zM139 95q16 -27 52 -27q40 0 54 30q10 21 10 86v299q0 68 -11 89q-16 27 -52 27 q-40 0 -54 -30q-10 -21 -10 -86v-299q0 -68 11 -89z" />
<glyph unicode="&#xd7;" d="M83 201l-48 49l94 93l-94 94l48 48l94 -94l94 94l48 -48l-94 -94l94 -94l-48 -48l-94 94z" />
<glyph unicode="&#xd8;" horiz-adv-x="383" d="M-2 -10l45 99q-5 60 -5 93v302q0 65 5.5 94.5t21.5 50.5q33 43 126 43q62 0 104 -26l30 65l49 -22l-42 -93q12 -37 12 -112v-301q0 -110 -29 -146q-33 -42 -125 -42q-80 0 -114 38l-32 -69zM121 225l128 343q-16 31 -56 31q-42 0 -56 -29q-9 -18 -9 -85l-1 -160 q0 -21 -6 -100zM130 126q8 -56 61 -56q38 0 51 23t13 90v172q0 5 6 123z" />
<glyph unicode="&#xd9;" horiz-adv-x="402" d="M177 717l-83 140h88l54 -140h-59zM74 41q-26 35 -26 142v484h90v-498q0 -60 13 -80.5t50 -20.5t50 20.5t13 80.5v498h90v-484q0 -107 -26 -142q-35 -46 -127 -46t-127 46z" />
<glyph unicode="&#xda;" horiz-adv-x="402" d="M177 717l53 140h89l-83 -140h-59zM74 41q-26 35 -26 142v484h90v-498q0 -60 13 -80.5t50 -20.5t50 20.5t13 80.5v498h90v-484q0 -107 -26 -142q-35 -46 -127 -46t-127 46z" />
<glyph unicode="&#xdb;" horiz-adv-x="402" d="M98 717l56 141h108l56 -141h-63l-47 99l-47 -99h-63zM74 41q-26 35 -26 142v484h90v-498q0 -60 13 -80.5t50 -20.5t50 20.5t13 80.5v498h90v-484q0 -107 -26 -142q-35 -46 -127 -46t-127 46z" />
<glyph unicode="&#xdc;" horiz-adv-x="402" d="M231 737v88h77v-88h-77zM100 737v88h77v-88h-77zM74 41q-26 35 -26 142v484h90v-498q0 -60 13 -80.5t50 -20.5t50 20.5t13 80.5v498h90v-484q0 -107 -26 -142q-35 -46 -127 -46t-127 46z" />
<glyph unicode="&#xdd;" horiz-adv-x="363" d="M161 717l53 140h89l-83 -140h-59zM138 0v271l-138 396h98l90 -269l86 269h89l-135 -396v-271h-90z" />
<glyph unicode="&#xde;" horiz-adv-x="371" d="M48 0v667h90v-94h57q53 0 78 -5.5t40 -21.5q35 -35 35 -168q0 -117 -41 -155q-16 -15 -45 -20t-95 -5h-29v-198h-90zM138 273h53q40 0 55 23.5t15 87.5q0 71 -12 92.5t-53 21.5h-58v-225z" />
<glyph unicode="&#xdf;" horiz-adv-x="347" d="M40 0v511q0 61 6 88t23 44q31 29 94 29t88.5 -29.5t25.5 -101.5v-47q0 -30 -1.5 -36.5t-9.5 -15.5q-23 -26 -23 -49q0 -22 24 -73q57 -118 57 -200q0 -64 -27 -97q-23 -28 -85 -28q-30 0 -63 5v58q24 -5 42 -5q28 0 39 15t11 53q0 55 -36 132q-28 59 -37 87.5t-9 58.5 q0 44 23 64q9 8 10.5 13.5t1.5 27.5v53q0 32 -7.5 44.5t-27.5 12.5t-27.5 -12t-7.5 -44v-558h-84z" />
<glyph unicode="&#xe0;" horiz-adv-x="312" d="M131 517l-83 140h88l54 -140h-59zM43 30q-11 19 -11 103q0 69 10 99.5t36 40.5q17 7 34 9t76 4v51q0 40 -6.5 54.5t-25.5 14.5q-20 0 -26.5 -14.5t-6.5 -56.5v-9h-83v21l-1 4v3q0 52 14 72q26 38 109 38q63 0 86.5 -28t23.5 -102v-334h-79v43q-18 -27 -36 -37.5 t-46 -10.5q-50 0 -68 35zM149 53q26 0 35 19q4 12 4 42v115q-47 -1 -60 -16t-13 -70q0 -60 5.5 -75t28.5 -15z" />
<glyph unicode="&#xe1;" horiz-adv-x="312" d="M137 517l53 140h89l-83 -140h-59zM43 30q-11 19 -11 103q0 69 10 99.5t36 40.5q17 7 34 9t76 4v51q0 40 -6.5 54.5t-25.5 14.5q-20 0 -26.5 -14.5t-6.5 -56.5v-9h-83v21l-1 4v3q0 52 14 72q26 38 109 38q63 0 86.5 -28t23.5 -102v-334h-79v43q-18 -27 -36 -37.5 t-46 -10.5q-50 0 -68 35zM149 53q26 0 35 19q4 12 4 42v115q-47 -1 -60 -16t-13 -70q0 -60 5.5 -75t28.5 -15z" />
<glyph unicode="&#xe2;" horiz-adv-x="312" d="M51 517l56 141h108l56 -141h-63l-47 99l-47 -99h-63zM43 30q-11 19 -11 103q0 69 10 99.5t36 40.5q17 7 34 9t76 4v51q0 40 -6.5 54.5t-25.5 14.5q-20 0 -26.5 -14.5t-6.5 -56.5v-9h-83v21l-1 4v3q0 52 14 72q26 38 109 38q63 0 86.5 -28t23.5 -102v-334h-79v43 q-18 -27 -36 -37.5t-46 -10.5q-50 0 -68 35zM149 53q26 0 35 19q4 12 4 42v115q-47 -1 -60 -16t-13 -70q0 -60 5.5 -75t28.5 -15z" />
<glyph unicode="&#xe3;" horiz-adv-x="312" d="M61 536q5 104 61 104q22 0 63 -34q15 -11 21 -11q14 0 17 42h52q0 -49 -15.5 -76t-44.5 -27q-10 0 -22 6.5t-53 34.5q-7 5 -11 5q-16 0 -19 -44h-49zM43 30q-11 19 -11 103q0 69 10 99.5t36 40.5q17 7 34 9t76 4v51q0 40 -6.5 54.5t-25.5 14.5q-20 0 -26.5 -14.5 t-6.5 -56.5v-9h-83v21l-1 4v3q0 52 14 72q26 38 109 38q63 0 86.5 -28t23.5 -102v-334h-79v43q-18 -27 -36 -37.5t-46 -10.5q-50 0 -68 35zM149 53q26 0 35 19q4 12 4 42v115q-47 -1 -60 -16t-13 -70q0 -60 5.5 -75t28.5 -15z" />
<glyph unicode="&#xe4;" horiz-adv-x="312" d="M188 539v88h77v-88h-77zM64 539v88h77v-88h-77zM43 30q-11 19 -11 103q0 69 10 99.5t36 40.5q17 7 34 9t76 4v51q0 40 -6.5 54.5t-25.5 14.5q-20 0 -26.5 -14.5t-6.5 -56.5v-9h-83v21l-1 4v3q0 52 14 72q26 38 109 38q63 0 86.5 -28t23.5 -102v-334h-79v43 q-18 -27 -36 -37.5t-46 -10.5q-50 0 -68 35zM149 53q26 0 35 19q4 12 4 42v115q-47 -1 -60 -16t-13 -70q0 -60 5.5 -75t28.5 -15z" />
<glyph unicode="&#xe5;" horiz-adv-x="312" d="M160 504q-36 0 -61.5 25.5t-25.5 61.5t25.5 61t62.5 25q35 0 60 -25.5t25 -60.5q0 -36 -25.5 -61.5t-60.5 -25.5zM160 552q16 0 27 11.5t11 27.5q0 15 -11 26.5t-27 11.5t-27.5 -11t-11.5 -27q0 -17 11.5 -28t27.5 -11zM43 30q-11 19 -11 103q0 69 10 99.5t36 40.5 q17 7 34 9t76 4v51q0 40 -6.5 54.5t-25.5 14.5q-20 0 -26.5 -14.5t-6.5 -56.5v-9h-83v21l-1 4v3q0 52 14 72q26 38 109 38q63 0 86.5 -28t23.5 -102v-334h-79v43q-18 -27 -36 -37.5t-46 -10.5q-50 0 -68 35zM149 53q26 0 35 19q4 12 4 42v115q-47 -1 -60 -16t-13 -70 q0 -60 5.5 -75t28.5 -15z" />
<glyph unicode="&#xe6;" horiz-adv-x="463" d="M141 -5q-63 0 -85.5 31t-22.5 117q0 74 28.5 103t102.5 29h27v71q0 34 -7.5 47t-27.5 13t-27.5 -13t-7.5 -46v-21h-83v22q0 39 5 57t20 31q30 28 87 28q52 0 82 -34q19 19 38.5 26.5t54.5 7.5q59 0 81.5 -25.5t22.5 -90.5v-131h-155v-101q0 -36 7.5 -49.5t28.5 -13.5 q20 0 27.5 13.5t7.5 48.5v25h84v-18q0 -70 -21 -95q-24 -32 -83 -32q-56 0 -93 37q-23 -22 -41.5 -29.5t-49.5 -7.5zM274 275h71v76q0 31 -7.5 43t-27.5 12q-21 0 -28.5 -11.5t-7.5 -43.5v-76zM151 53q23 0 31.5 14.5t8.5 54.5v95h-17q-38 0 -48 -15.5t-10 -71.5 q0 -46 7 -61.5t28 -15.5z" />
<glyph unicode="&#xe7;" horiz-adv-x="286" d="M33 142v183q0 82 21 107q26 32 96 32q62 0 87 -27.5t25 -95.5v-33h-81v32q0 38 -6.5 52t-25.5 14t-27 -16q-5 -12 -5 -51v-220q0 -38 6.5 -52t24.5 -14q19 0 26 15.5t7 54.5v35h81v-32q0 -49 -3.5 -67.5t-16.5 -33.5q-26 -30 -92 -30q-70 0 -93.5 29.5t-23.5 117.5z M114 -50h60l-36 -138h-86z" />
<glyph unicode="&#xe8;" horiz-adv-x="306" d="M131 517l-83 140h88l54 -140h-59zM33 120v197q0 85 25 114q28 33 98 33t93 -30.5t23 -120.5v-107h-155v-88q0 -38 7 -51.5t28 -13.5q20 0 28 14t8 51v33h84v-33q0 -65 -27.5 -94t-90.5 -29q-67 0 -94 28t-27 97zM117 264h71v63q0 49 -6.5 64t-28.5 15t-29 -15.5t-7 -63.5 v-63z" />
<glyph unicode="&#xe9;" horiz-adv-x="306" d="M135 517l53 140h89l-83 -140h-59zM33 120v197q0 85 25 114q28 33 98 33t93 -30.5t23 -120.5v-107h-155v-88q0 -38 7 -51.5t28 -13.5q20 0 28 14t8 51v33h84v-33q0 -65 -27.5 -94t-90.5 -29q-67 0 -94 28t-27 97zM117 264h71v63q0 49 -6.5 64t-28.5 15t-29 -15.5t-7 -63.5 v-63z" />
<glyph unicode="&#xea;" horiz-adv-x="306" d="M53 517l56 141h108l56 -141h-63l-47 99l-47 -99h-63zM33 120v197q0 85 25 114q28 33 98 33t93 -30.5t23 -120.5v-107h-155v-88q0 -38 7 -51.5t28 -13.5q20 0 28 14t8 51v33h84v-33q0 -65 -27.5 -94t-90.5 -29q-67 0 -94 28t-27 97zM117 264h71v63q0 49 -6.5 64t-28.5 15 t-29 -15.5t-7 -63.5v-63z" />
<glyph unicode="&#xeb;" horiz-adv-x="306" d="M189 539v88h77v-88h-77zM65 539v88h77v-88h-77zM33 120v197q0 85 25 114q28 33 98 33t93 -30.5t23 -120.5v-107h-155v-88q0 -38 7 -51.5t28 -13.5q20 0 28 14t8 51v33h84v-33q0 -65 -27.5 -94t-90.5 -29q-67 0 -94 28t-27 97zM117 264h71v63q0 49 -6.5 64t-28.5 15 t-29 -15.5t-7 -63.5v-63z" />
<glyph unicode="&#xec;" horiz-adv-x="164" d="M54 517l-76 140h88l47 -140h-59zM40 0v459h84v-459h-84z" />
<glyph unicode="&#xed;" horiz-adv-x="164" d="M57 517l47 140h88l-76 -140h-59zM40 0v459h84v-459h-84z" />
<glyph unicode="&#xee;" horiz-adv-x="164" d="M-18 517l52 141h102l52 -141h-63l-40 99l-40 -99h-63zM40 0v459h84v-459h-84z" />
<glyph unicode="&#xef;" horiz-adv-x="164" d="M102 539v88h69v-88h-69zM0 539v88h69v-88h-69zM40 0v459h84v-459h-84z" />
<glyph unicode="&#xf0;" horiz-adv-x="307" d="M150 -5q-71 0 -94 30t-23 124v163q0 85 17 112q10 17 32.5 28t46.5 11q35 0 58 -26q-8 50 -17 75.5t-25 45.5l-64 -42l-34 37l65 43q-35 25 -64 41l27 42q34 -11 87 -50l65 42l33 -37l-63 -43q77 -91 77 -279v-164q0 -94 -24 -123.5t-100 -29.5zM152 53q22 0 32 18 q6 11 6 56v205q0 18 -4 52v10q-12 13 -31 13q-22 0 -29.5 -15.5t-7.5 -60.5v-203q0 -46 6.5 -60.5t27.5 -14.5z" />
<glyph unicode="&#xf1;" horiz-adv-x="319" d="M68 536q5 104 61 104q22 0 63 -34q15 -11 21 -11q14 0 17 42h52q0 -49 -15.5 -76t-44.5 -27q-10 0 -22 6.5t-53 34.5q-7 5 -11 5q-16 0 -19 -44h-49zM40 0v459h79v-45q23 29 40.5 39.5t44.5 10.5q44 0 59.5 -25.5t15.5 -98.5v-340h-84v340q0 40 -7 53t-27 13 q-21 0 -29 -13.5t-8 -50.5v-342h-84z" />
<glyph unicode="&#xf2;" horiz-adv-x="307" d="M125 517l-83 140h88l54 -140h-59zM33 148v163q0 93 23.5 123t97.5 30q73 0 96.5 -30t23.5 -123v-163q0 -93 -23.5 -123t-97.5 -30q-73 0 -96.5 30t-23.5 123zM153 53q22 0 29.5 15.5t7.5 59.5v203q0 44 -7.5 59.5t-29.5 15.5q-21 0 -28.5 -15.5t-7.5 -59.5v-203 q0 -44 7.5 -59.5t28.5 -15.5z" />
<glyph unicode="&#xf3;" horiz-adv-x="307" d="M129 517l53 140h89l-83 -140h-59zM33 148v163q0 93 23.5 123t97.5 30q73 0 96.5 -30t23.5 -123v-163q0 -93 -23.5 -123t-97.5 -30q-73 0 -96.5 30t-23.5 123zM153 53q22 0 29.5 15.5t7.5 59.5v203q0 44 -7.5 59.5t-29.5 15.5q-21 0 -28.5 -15.5t-7.5 -59.5v-203 q0 -44 7.5 -59.5t28.5 -15.5z" />
<glyph unicode="&#xf4;" horiz-adv-x="307" d="M50 517l56 141h108l56 -141h-63l-47 99l-47 -99h-63zM33 148v163q0 93 23.5 123t97.5 30q73 0 96.5 -30t23.5 -123v-163q0 -93 -23.5 -123t-97.5 -30q-73 0 -96.5 30t-23.5 123zM153 53q22 0 29.5 15.5t7.5 59.5v203q0 44 -7.5 59.5t-29.5 15.5q-21 0 -28.5 -15.5 t-7.5 -59.5v-203q0 -44 7.5 -59.5t28.5 -15.5z" />
<glyph unicode="&#xf5;" horiz-adv-x="307" d="M68 536q5 104 61 104q22 0 63 -34q15 -11 21 -11q14 0 17 42h52q0 -49 -15.5 -76t-44.5 -27q-10 0 -22 6.5t-53 34.5q-7 5 -11 5q-16 0 -19 -44h-49zM33 148v163q0 93 23.5 123t97.5 30q73 0 96.5 -30t23.5 -123v-163q0 -93 -23.5 -123t-97.5 -30q-73 0 -96.5 30 t-23.5 123zM153 53q22 0 29.5 15.5t7.5 59.5v203q0 44 -7.5 59.5t-29.5 15.5q-21 0 -28.5 -15.5t-7.5 -59.5v-203q0 -44 7.5 -59.5t28.5 -15.5z" />
<glyph unicode="&#xf6;" horiz-adv-x="307" d="M180 539v88h77v-88h-77zM56 539v88h77v-88h-77zM33 148v163q0 93 23.5 123t97.5 30q73 0 96.5 -30t23.5 -123v-163q0 -93 -23.5 -123t-97.5 -30q-73 0 -96.5 30t-23.5 123zM153 53q22 0 29.5 15.5t7.5 59.5v203q0 44 -7.5 59.5t-29.5 15.5q-21 0 -28.5 -15.5t-7.5 -59.5 v-203q0 -44 7.5 -59.5t28.5 -15.5z" />
<glyph unicode="&#xf7;" d="M137 424v83h81v-83h-81zM37 309v68h280v-68h-280zM137 180v84h81v-84h-81z" />
<glyph unicode="&#xf8;" horiz-adv-x="307" d="M-8 -15l47 88q-5 38 -5 78v162q0 102 27 126q29 25 91 25q51 0 83 -14l30 59l42 -21l-42 -79q9 -32 9 -96v-163q0 -94 -23.5 -124.5t-96.5 -30.5q-61 0 -89 25l-32 -58zM112 182l75 198q-6 26 -31 26q-23 0 -30.5 -15t-7.5 -60v-57q0 -30 -1 -38zM119 94q4 -41 35 -41 q12 0 21.5 7.5t11.5 19.5q3 14 3 48v76q0 14 5 86z" />
<glyph unicode="&#xf9;" horiz-adv-x="318" d="M134 517l-83 140h88l54 -140h-59zM40 105v354h84v-345q0 -35 7.5 -48t27.5 -13t27.5 14t7.5 49v343h84v-459h-79v49q-18 -32 -34.5 -43t-45.5 -11q-44 0 -61.5 24t-17.5 86z" />
<glyph unicode="&#xfa;" horiz-adv-x="318" d="M131 517l53 140h89l-83 -140h-59zM40 105v354h84v-345q0 -35 7.5 -48t27.5 -13t27.5 14t7.5 49v343h84v-459h-79v49q-18 -32 -34.5 -43t-45.5 -11q-44 0 -61.5 24t-17.5 86z" />
<glyph unicode="&#xfb;" horiz-adv-x="318" d="M56 517l56 141h108l56 -141h-63l-47 99l-47 -99h-63zM40 105v354h84v-345q0 -35 7.5 -48t27.5 -13t27.5 14t7.5 49v343h84v-459h-79v49q-18 -32 -34.5 -43t-45.5 -11q-44 0 -61.5 24t-17.5 86z" />
<glyph unicode="&#xfc;" horiz-adv-x="318" d="M186 539v88h77v-88h-77zM62 539v88h77v-88h-77zM40 105v354h84v-345q0 -35 7.5 -48t27.5 -13t27.5 14t7.5 49v343h84v-459h-79v49q-18 -32 -34.5 -43t-45.5 -11q-44 0 -61.5 24t-17.5 86z" />
<glyph unicode="&#xfd;" horiz-adv-x="294" d="M126 517l53 140h89l-83 -140h-59zM107 -1l-104 460h89l58 -277l66 277h74l-147 -635h-77z" />
<glyph unicode="&#xfe;" horiz-adv-x="313" d="M124 35v-211h-84v843h78v-249q20 26 37 36t42 10q48 0 69 -33q14 -21 14 -106v-200q0 -80 -16 -103q-20 -27 -66 -27q-25 0 -41 8.5t-33 31.5zM157 53q25 0 34 19q5 12 5 51v217q0 35 -9 50.5t-29 15.5q-22 0 -30 -19q-4 -9 -4 -48v-216q0 -43 6.5 -56.5t26.5 -13.5z" />
<glyph unicode="&#xff;" horiz-adv-x="294" d="M177 539v88h77v-88h-77zM53 539v88h77v-88h-77zM107 -1l-104 460h89l58 -277l66 277h74l-147 -635h-77z" />
<glyph unicode="&#x152;" horiz-adv-x="539" d="M74 27q-20 19 -28 52.5t-8 102.5v302q0 109 28 145q34 43 122 43q22 0 35 -1q74 -4 117 -4h166v-76h-161v-209h155v-76h-155v-231h167v-75h-172q-22 0 -84.5 -2.5t-65.5 -2.5q-83 0 -116 32zM197 67q18 0 59 8v516q-36 7 -58 7q-51 0 -63 -37q-7 -24 -7 -78v-301 q0 -70 13.5 -92.5t55.5 -22.5z" />
<glyph unicode="&#x153;" horiz-adv-x="464" d="M146 -5q-67 0 -90 31.5t-23 121.5v163q0 60 6 86.5t22 41.5q28 25 90 25q31 0 48.5 -6.5t34.5 -25.5q29 32 91 32q63 0 87 -37q18 -29 18 -113v-106h-155v-88q0 -37 7 -51t27 -14t28 14.5t8 49.5v20h85v-20q0 -124 -110 -124q-55 0 -86 35q-19 -21 -37 -28t-51 -7z M275 266h70v63q0 49 -6.5 64t-28.5 15t-28.5 -14.5t-6.5 -64.5v-63zM121 81q2 -11 12 -18.5t22 -7.5q27 0 33 26q3 12 3 48v205q0 43 -7.5 58.5t-28.5 15.5q-13 0 -22.5 -7.5t-11.5 -18.5q-3 -15 -3 -49v-204q0 -35 3 -48z" />
<glyph unicode="&#x178;" horiz-adv-x="363" d="M217 737v88h77v-88h-77zM86 737v88h77v-88h-77zM138 0v271l-138 396h98l90 -269l86 269h89l-135 -396v-271h-90z" />
<glyph unicode="&#x2c6;" horiz-adv-x="500" d="M140 517l56 141h108l56 -141h-63l-47 99l-47 -99h-63z" />
<glyph unicode="&#x2dc;" horiz-adv-x="500" d="M145 536q5 104 61 104q22 0 63 -34q15 -11 21 -11q14 0 17 42h52q0 -49 -15.5 -76t-44.5 -27q-10 0 -22 6.5t-53 34.5q-7 5 -11 5q-16 0 -19 -44h-49z" />
<glyph unicode="&#x2000;" horiz-adv-x="437" />
<glyph unicode="&#x2001;" horiz-adv-x="874" />
<glyph unicode="&#x2002;" horiz-adv-x="437" />
<glyph unicode="&#x2003;" horiz-adv-x="874" />
<glyph unicode="&#x2004;" horiz-adv-x="291" />
<glyph unicode="&#x2005;" horiz-adv-x="218" />
<glyph unicode="&#x2006;" horiz-adv-x="145" />
<glyph unicode="&#x2007;" horiz-adv-x="145" />
<glyph unicode="&#x2008;" horiz-adv-x="109" />
<glyph unicode="&#x2009;" horiz-adv-x="174" />
<glyph unicode="&#x200a;" horiz-adv-x="48" />
<glyph unicode="&#x2010;" horiz-adv-x="131" d="M0 200v73h131v-73h-131z" />
<glyph unicode="&#x2011;" horiz-adv-x="131" d="M0 200v73h131v-73h-131z" />
<glyph unicode="&#x2013;" d="M57 200v73h239v-73h-239z" />
<glyph unicode="&#x2014;" horiz-adv-x="393" d="M0 200v73h393v-73h-393z" />
<glyph unicode="&#x2018;" horiz-adv-x="190" d="M33 499l61 168h62l-31 -168h-92z" />
<glyph unicode="&#x2019;" horiz-adv-x="190" d="M33 499l32 168h91l-61 -168h-62z" />
<glyph unicode="&#x201a;" horiz-adv-x="190" d="M33 -88l32 168h91l-61 -168h-62z" />
<glyph unicode="&#x201c;" horiz-adv-x="322" d="M165 499l61 168h62l-31 -168h-92zM33 499l61 168h62l-31 -168h-92z" />
<glyph unicode="&#x201d;" horiz-adv-x="322" d="M165 499l31 168h92l-61 -168h-62zM33 499l32 168h91l-61 -168h-62z" />
<glyph unicode="&#x201e;" horiz-adv-x="305" d="M155 -91l31 168h92l-61 -168h-62zM23 -91l32 168h91l-61 -168h-62z" />
<glyph unicode="&#x2022;" horiz-adv-x="667" d="M335 200q-57 0 -98 40.5t-41 97.5q0 58 41 98.5t100 40.5q55 0 95.5 -41t40.5 -97q0 -58 -40.5 -98.5t-97.5 -40.5z" />
<glyph unicode="&#x2026;" horiz-adv-x="534" d="M395 0v105h101v-105h-101zM217 0v105h101v-105h-101zM39 0v105h101v-105h-101z" />
<glyph unicode="&#x202f;" horiz-adv-x="174" />
<glyph unicode="&#x2039;" horiz-adv-x="208" d="M120 8l-93 229l93 229h62l-68 -229l68 -229h-62z" />
<glyph unicode="&#x203a;" horiz-adv-x="208" d="M27 8l68 229l-68 229h62l93 -229l-93 -229h-62z" />
<glyph unicode="&#x205f;" horiz-adv-x="218" />
<glyph unicode="&#x20ac;" horiz-adv-x="412" d="M110 43q-24 37 -24 140v61h-48l17 66h31v48h-48l17 66h31v76q0 54 5.5 80t20.5 44q39 48 125 48q73 0 107 -34q30 -31 30 -106v-47h-88v36q0 43 -11.5 60t-40.5 17q-32 0 -45 -19.5t-13 -67.5v-87h101l-17 -66h-84v-48h72l-18 -66h-54v-75q0 -59 12 -80t45 -21 q29 0 41 17.5t12 58.5v49h88v-48q0 -49 -7.5 -74t-28.5 -43q-38 -33 -108 -33q-87 0 -120 48z" />
<glyph unicode="&#x2122;" horiz-adv-x="531" d="M224 287v380h92l45 -244l43 244h91v-380h-59v277l-50 -277h-57l-52 279v-279h-53zM76 287v331h-68v49h194v-49h-67v-331h-59z" />
</font>
</defs>
</svg>
