<?xml version="1.0" standalone="no"?>
<!DOCTYPE svg PUBLIC "-//W3C//DTD SVG 1.1//EN" "http://www.w3.org/Graphics/SVG/1.1/DTD/svg11.dtd" >
<svg xmlns="http://www.w3.org/2000/svg">
<metadata>
This is a custom SVG webfont generated by Fontspring.
Designer    : FontSite.com
Foundry URL : http://www.fontsite.com
</metadata>
<defs>
<font id="webfont" horiz-adv-x="613" >
<font-face units-per-em="1000" ascent="800" descent="-200" />
<missing-glyph horiz-adv-x="250" />
<glyph unicode=" "  horiz-adv-x="250" />
<glyph unicode="&#x09;" horiz-adv-x="250" />
<glyph unicode="&#xa0;" horiz-adv-x="250" />
<glyph unicode="!" horiz-adv-x="320" d="M97 195l-37 472h200l-34 -472h-129zM80 0v138h162v-138h-162z" />
<glyph unicode="&#x22;" horiz-adv-x="504" d="M305 400l-35 267h200l-35 -267h-130zM68 400l-35 267h200l-35 -267h-130z" />
<glyph unicode="#" horiz-adv-x="698" d="M137 124l41 118h-111l25 71h109l33 93h-109l25 72h109l42 122h79l-43 -122h101l42 122h79l-41 -122h113l-25 -72h-113l-32 -93h114l-25 -71h-115l-41 -118h-79l41 118h-100l-41 -118h-78zM280 313h101l32 93h-101z" />
<glyph unicode="$" d="M15 211h184q3 -43 17 -64q26 -41 93 -41q45 0 72.5 20.5t27.5 54.5q0 36 -27.5 52.5t-122.5 39.5q-75 17 -114.5 33t-66.5 41q-23 20 -37 54t-14 69q0 55 31.5 103.5t84.5 74.5q52 25 120 31v94h91v-94q119 -15 169.5 -63.5t49.5 -145.5h-184q-4 50 -23.5 69.5 t-63.5 19.5q-87 0 -87 -67q0 -34 28.5 -51.5t117.5 -38.5q74 -18 109 -31.5t64 -35.5q63 -48 63 -134q0 -89 -63 -146.5t-180 -73.5v-103h-91v103q-124 10 -188 69t-60 161z" />
<glyph unicode="%" horiz-adv-x="739" d="M184 313q-70 0 -110.5 47t-40.5 130q0 87 42 137.5t114 50.5q70 0 110 -49t40 -135q0 -69 -36 -122q-40 -59 -119 -59zM174 0l336 667h54l-334 -667h-56zM189 375q27 0 43 34t16 92q0 113 -60 113q-29 0 -45.5 -30.5t-16.5 -85.5q0 -56 11 -83q7 -17 21.5 -28.5 t30.5 -11.5zM400 167q0 87 42 137.5t114 50.5q70 0 110 -49t40 -135q0 -69 -36 -122q-40 -59 -119 -59q-70 0 -110.5 47t-40.5 130zM504 92q7 -17 21.5 -28.5t30.5 -11.5q27 0 43 34t16 92q0 113 -60 113q-29 0 -45.5 -30.5t-16.5 -85.5t11 -83z" />
<glyph unicode="&#x26;" horiz-adv-x="774" d="M128 24q-42 20 -68.5 62.5t-26.5 91.5q0 80 64 130q34 27 96 42q-50 11 -79 34q-50 42 -50 110q0 85 83 132q66 37 145 37q64 0 120 -7v-124q-4 1 -10 1l-24 2q-12 1 -31 1q-104 0 -104 -62q0 -35 30 -54t84 -18l55 1h40v107h172v-107h133v-123h-133v-280l-285 -8h-19 q-122 0 -192 32zM219 198q0 -41 31 -59.5t101 -18.5h101v160h-99q-134 0 -134 -82z" />
<glyph unicode="'" horiz-adv-x="272" d="M68 400l-35 267h206l-35 -267h-136z" />
<glyph unicode="(" horiz-adv-x="314" d="M91 24q-51 137 -51 256q0 74 29.5 185t77.5 215h120q-83 -262 -83 -400q0 -154 83 -409h-120q-2 5 -3.5 10t-2.5 7.5t-1 3.5z" />
<glyph unicode=")" horiz-adv-x="314" d="M47 -129q83 255 83 409q0 138 -83 400h120q47 -104 77 -215t30 -185q0 -90 -32 -198q-5 -18 -68 -190l-7 -21h-120z" />
<glyph unicode="*" horiz-adv-x="378" d="M136 374l-64 43l56 81l-95 23l19 71l97 -25v100h77v-100l93 33l26 -69l-95 -33l62 -81l-62 -43l-59 83z" />
<glyph unicode="+" d="M259 61v232h-229v99h229v221h97v-221h227v-99h-227v-232h-97z" />
<glyph unicode="," horiz-adv-x="280" d="M9 -106l58 250h176l-108 -250h-126z" />
<glyph unicode="-" horiz-adv-x="272" d="M0 184v135h272v-135h-272z" />
<glyph unicode="." horiz-adv-x="280" d="M59 0v135h162v-135h-162z" />
<glyph unicode="/" horiz-adv-x="466" d="M-20 -118l334 785h149l-331 -785h-152z" />
<glyph unicode="0" d="M305 -15q-129 0 -200 91t-71 257q0 156 66 246q36 48 92 75.5t118 27.5q64 0 118 -26.5t87 -73.5q65 -95 65 -248q0 -75 -20.5 -145t-55.5 -116q-68 -88 -199 -88zM239 147q26 -45 70 -45q47 0 73 58t26 164q0 127 -24 184t-77 57q-101 0 -101 -222q0 -140 33 -196z" />
<glyph unicode="1" d="M290 0v496q-41 -31 -155 -84v149q9 5 40.5 20l54.5 26q57 28 91 60h144v-667h-175z" />
<glyph unicode="2" d="M53 0v143q183 141 252.5 216t69.5 133q0 34 -19 53.5t-52 19.5q-36 0 -51.5 -20t-18.5 -70h-181q5 57 16 86.5t36 53.5q69 67 205 67q113 0 178.5 -50t65.5 -136q0 -59 -29 -107t-108 -117q-64 -57 -183 -142h326v-130h-507z" />
<glyph unicode="3" d="M78 62q-35 43 -40 130h176q10 -90 89 -90q41 0 67 26t26 68q0 54 -40 80q-29 17 -93 17h-34v112h34q62 0 89 12q17 8 28.5 27.5t11.5 41.5q0 35 -23 57t-59 22q-78 0 -81 -72h-173q3 54 16.5 84t44.5 54q68 52 189 52q119 0 188.5 -48.5t69.5 -132.5q0 -77 -55 -119 q-31 -22 -88 -36q62 -15 90 -33q64 -39 64 -127q0 -97 -84 -150q-83 -52 -203 -52q-145 0 -210 77z" />
<glyph unicode="4" d="M14 136v145l277 386h201v-414h108v-117h-108v-136h-159v136h-319zM141 253h192v151q0 50 12 151z" />
<glyph unicode="5" d="M96 61q-38 51 -41 120h166q5 -43 23 -61t55 -18q44 0 68.5 29t24.5 82t-21 81.5t-61 28.5q-64 0 -72 -60h-170l11 404h448v-130h-297v-166q50 69 142 69q85 0 138.5 -58.5t53.5 -152.5q0 -109 -76.5 -176.5t-201.5 -67.5q-135 0 -190 76z" />
<glyph unicode="6" d="M96 81q-54 76 -54 231q0 187 71 278.5t216 91.5q130 0 189 -70q34 -41 39 -111h-170q-3 27 -12 39q-18 25 -57 25q-33 0 -58.5 -23.5t-35.5 -63.5q-11 -42 -13 -126q58 90 163 90q85 0 141 -60.5t56 -152.5q0 -109 -72.5 -176.5t-188.5 -67.5q-69 0 -125.5 25t-88.5 71z M221 217q0 -52 24.5 -83.5t65.5 -31.5t64.5 29t23.5 79q0 115 -86 115q-43 0 -67.5 -28.5t-24.5 -79.5z" />
<glyph unicode="7" d="M130 0l252 537h-324v130h497v-130l-228 -537h-197z" />
<glyph unicode="8" d="M131 22q-96 46 -96 153q0 69 41 111t132 64q-72 11 -110 50.5t-38 102.5q0 85 64.5 132t181.5 47q116 0 183 -47t67 -128q0 -58 -34 -95.5t-109 -61.5q164 -31 164 -168q0 -100 -83 -149q-79 -48 -188 -48q-98 0 -175 37zM309 403q38 0 64 25.5t26 62.5q0 35 -25.5 58 t-64.5 23q-42 0 -67 -22t-25 -59q0 -39 25.5 -63.5t66.5 -24.5zM200 200q0 -47 28.5 -72.5t80.5 -25.5q48 0 75.5 25.5t27.5 70.5q0 44 -29.5 70.5t-77.5 26.5t-76.5 -26t-28.5 -69z" />
<glyph unicode="9" d="M40 169h169q4 -38 24 -55t59 -17q45 0 71.5 25.5t39.5 81.5q11 49 13 131q-59 -85 -173 -85q-87 0 -143.5 59.5t-56.5 150.5q0 98 73.5 160t188.5 62q67 0 124 -25.5t87 -69.5q58 -84 58 -256q0 -176 -69.5 -261t-214.5 -85q-237 0 -250 184zM304 372q45 0 71.5 26 t26.5 70q0 43 -26.5 70t-69.5 27q-46 0 -72 -27t-26 -74q0 -44 25 -68t71 -24z" />
<glyph unicode=":" horiz-adv-x="280" d="M59 322v135h162v-135h-162zM59 0v135h162v-135h-162z" />
<glyph unicode=";" horiz-adv-x="280" d="M56 322v135h162v-135h-162zM9 -106l58 250h176l-108 -250h-126z" />
<glyph unicode="&#x3c;" horiz-adv-x="500" d="M33 262v153l433 238v-182l-239 -133l238 -133l1 -182z" />
<glyph unicode="=" d="M30 363v99h552v-99h-552zM30 194v98h552v-98h-552z" />
<glyph unicode="&#x3e;" horiz-adv-x="500" d="M33 23v183l239 133l-238 133l-1 181l433 -238v-153z" />
<glyph unicode="?" horiz-adv-x="475" d="M119 175v52q0 57 7.5 74.5t45.5 54.5q85 82 85 133q0 73 -114 73q-37 0 -106 -14v119q91 13 164 13q107 0 172 -48t65 -127q0 -81 -96 -156q-61 -47 -71 -64t-10 -72v-38h-142zM112 0v139h161v-139h-161z" />
<glyph unicode="@" horiz-adv-x="787" d="M37 275q0 153 110 263t271 110q142 0 237.5 -84.5t95.5 -210.5q0 -112 -77 -194t-181 -82q-68 0 -71 53q-36 -29 -60.5 -40t-53.5 -11q-49 0 -78.5 34t-29.5 90q0 106 66 190t149 84q37 0 72 -31l5 14h113l-94 -245q-11 -28 -11 -41q0 -7 7 -12t16 -5q55 0 109 73 q41 57 41 123q0 101 -79 159q-81 62 -180 62q-122 0 -210.5 -89t-88.5 -213q0 -126 89 -211.5t220 -85.5q104 0 185 56q35 24 73 78h67q-23 -54 -44 -82.5t-57 -54.5q-95 -72 -229 -72q-162 0 -272 108t-110 267zM318 179q0 -9 5.5 -15.5t12.5 -6.5q17 0 39 34q24 35 47 93 t28 93q2 18 -15 20q-28 3 -66 -66q-21 -38 -36 -83t-15 -69z" />
<glyph unicode="A" horiz-adv-x="748" d="M-5 0l273 667h210l275 -667h-200l-51 134h-276l-48 -134h-183zM274 258h185l-93 281z" />
<glyph unicode="B" horiz-adv-x="674" d="M65 0v667h287q112 0 176 -32q38 -20 60 -56.5t22 -79.5q0 -75 -56 -115q-26 -20 -84 -36q61 -9 100 -38q63 -48 63 -122q0 -46 -25.5 -88.5t-65.5 -63.5q-70 -36 -189 -36h-288zM245 400h84q54 0 75 16q27 19 27 59q0 76 -103 76h-83v-151zM245 124h95q108 0 108 80 t-108 80h-95v-160z" />
<glyph unicode="C" horiz-adv-x="699" d="M41 321q0 152 66 243q41 57 112 87.5t163 30.5q165 0 237 -94q36 -46 45 -131h-189q-11 95 -100 95q-68 0 -106 -57.5t-38 -161.5q0 -218 140 -218q93 0 109 102h192q-7 -80 -43 -128q-37 -50 -104 -77t-154 -27q-159 0 -244.5 87t-85.5 249z" />
<glyph unicode="D" horiz-adv-x="746" d="M65 0v667h249q113 0 183.5 -21t121.5 -70q86 -83 86 -243q0 -175 -101 -256q-52 -41 -119.5 -59t-172.5 -18h-247zM255 130h63q77 0 120 27q77 47 77 173q0 101 -48.5 154t-142.5 53h-69v-407z" />
<glyph unicode="E" horiz-adv-x="575" d="M65 0v667h470v-130h-290v-130h270v-130h-270v-147h297v-130h-477z" />
<glyph unicode="F" horiz-adv-x="555" d="M65 0v667h463v-130h-273v-143h258v-130h-258v-264h-190z" />
<glyph unicode="G" horiz-adv-x="740" d="M127 75q-87 87 -87 248q0 171 95 265t267 94q263 0 284 -217h-188q-10 43 -30 60q-32 27 -81 27q-76 0 -116.5 -54.5t-40.5 -155.5q0 -140 67 -193q43 -34 133 -34q36 0 70 7v128h-121v124h301v-356q-136 -33 -278 -33q-185 0 -275 90z" />
<glyph unicode="H" horiz-adv-x="752" d="M65 0v667h190v-263h242v263h190v-667h-190v274h-242v-274h-190z" />
<glyph unicode="I" horiz-adv-x="319" d="M65 0v667h190v-667h-190z" />
<glyph unicode="J" horiz-adv-x="580" d="M32 72q-27 41 -32 137h191q2 -53 16 -73.5t47 -20.5q42 0 60 29q11 18 11 90v433h190v-384q0 -83 -9.5 -128t-33.5 -78q-69 -92 -225 -92q-158 0 -215 87z" />
<glyph unicode="K" horiz-adv-x="724" d="M260 373l214 294h217l-227 -285l260 -382h-232zM65 0v667h190v-667h-190z" />
<glyph unicode="L" horiz-adv-x="549" d="M65 0v667h190v-537h295v-130h-485z" />
<glyph unicode="M" horiz-adv-x="969" d="M65 0v667h287l87 -266l7 -21.5l5.5 -17.5t4.5 -18t3.5 -16t4 -19l3.5 -18.5t4 -24.5t4 -27.5t5 -35l6 -40.5q25 161 49 238l82 266h287v-667h-169v547l-177 -547h-151l-179 514v-514h-163z" />
<glyph unicode="N" horiz-adv-x="766" d="M65 0v667h250l71 -145q52 -105 147 -370v515h169v-667h-269l-71 146q-67 137 -134 349v-495h-163z" />
<glyph unicode="O" horiz-adv-x="750" d="M135 71q-94 91 -94 263q0 164 87.5 256t242.5 92q161 0 249.5 -92.5t88.5 -261.5q0 -158 -89 -250.5t-243 -92.5q-153 0 -242 86zM375 115q44 0 76.5 23.5t47.5 66.5q20 55 20 129q0 103 -38.5 160.5t-106.5 57.5q-69 0 -106 -56.5t-37 -160.5q0 -106 37.5 -163 t106.5 -57z" />
<glyph unicode="P" horiz-adv-x="630" d="M65 0v667h248q92 0 135 -8t79 -31q84 -54 84 -171q0 -112 -77 -167q-35 -25 -75.5 -34t-122.5 -9h-91v-247h-180zM245 373h81q55 0 80 20t25 64q0 86 -105 86h-81v-170z" />
<glyph unicode="Q" horiz-adv-x="795" d="M117 90q-76 88 -76 245q0 165 87 256t244 91q153 0 243.5 -88t90.5 -236q0 -93 -32 -155t-105 -109q86 27 183 27h56v-126l-106 5q-80 4 -108 4q-30 0 -116 -9q-82 -10 -120 -10q-69 0 -134.5 28.5t-106.5 76.5zM374 115q43 0 75 23.5t47 66.5q20 60 20 129 q0 103 -38 160.5t-106 57.5t-104.5 -56.5t-36.5 -160.5q0 -106 37 -163t106 -57z" />
<glyph unicode="R" horiz-adv-x="697" d="M65 0v667h278q131 0 195 -26q40 -17 64 -56t24 -88q0 -78 -55 -124q-31 -26 -93 -38q71 -14 99 -42t35 -93q11 -98 19.5 -136t24.5 -64h-204q-17 44 -25 134q-5 58 -9.5 77t-16.5 30q-19 18 -78 18h-78v-259h-180zM245 385h78q62 0 85 12q38 20 38 68q0 45 -34 64 q-25 14 -81 14h-86v-158z" />
<glyph unicode="S" horiz-adv-x="659" d="M87 69q-40 47 -46 145h186q4 -50 20 -70q28 -35 84 -35q44 0 73.5 23t29.5 57q0 28 -22.5 45t-76.5 30q-115 27 -159.5 43t-68.5 38q-54 51 -54 129q0 96 75 152t204 56q163 0 227 -75q36 -40 40 -134h-184q-2 42 -14 57q-23 29 -72 29q-39 0 -62.5 -17t-23.5 -45 q0 -37 25 -53.5t106 -34.5q137 -30 192 -72q58 -45 58 -131q0 -102 -82.5 -161.5t-223.5 -59.5q-159 0 -231 84z" />
<glyph unicode="T" horiz-adv-x="608" d="M212 0v537h-212v130h608v-130h-206v-537h-190z" />
<glyph unicode="U" horiz-adv-x="747" d="M150 47q-45 37 -65 96t-20 154v370h190v-370q0 -66 4 -92.5t16 -43.5q32 -46 104 -46q37 0 66.5 16t42.5 44q15 33 15 122v370h180v-370q0 -160 -68 -229q-81 -83 -250 -83q-139 0 -215 62z" />
<glyph unicode="V" horiz-adv-x="702" d="M247 0l-250 667h207l76 -236q49 -155 83 -284q32 137 85 291l78 229h179l-243 -667h-215z" />
<glyph unicode="W" horiz-adv-x="1077" d="M195 0l-195 667h195l84 -334q24 -99 30 -206q2 19 5 32l6 39q9 61 30 135l94 334h216l97 -334q28 -98 38 -212q13 120 34 212l75 334h173l-188 -667h-203l-97 333q-30 104 -41 215l-8 -47q-35 -152 -40 -168l-97 -333h-208z" />
<glyph unicode="X" horiz-adv-x="751" d="M0 0l257 349l-240 318h240l40 -60q60 -91 83 -154q26 63 90 164l32 50h212l-225 -318l262 -349h-243l-40 59q-62 91 -108 186l-31 -61l-11.5 -18.5l-26 -42.5l-34.5 -56l-41 -67h-216z" />
<glyph unicode="Y" horiz-adv-x="676" d="M252 0v233l-259 434h219l37 -81q89 -193 101 -222q28 81 101 222l42 81h189l-250 -434v-233h-180z" />
<glyph unicode="Z" horiz-adv-x="652" d="M41 0v144l334 393h-316v130h538v-141l-336 -396h356v-130h-576z" />
<glyph unicode="[" horiz-adv-x="354" d="M57 -120v793h237v-125h-91v-539h98v-129h-244z" />
<glyph unicode="\" horiz-adv-x="466" d="M333 -118l-330 785h149l334 -785h-153z" />
<glyph unicode="]" horiz-adv-x="354" d="M53 9h98v539h-91v125h237v-793h-244v129z" />
<glyph unicode="^" horiz-adv-x="500" d="M7 339l141 332h203l141 -332h-160l-82 209l-82 -209h-161z" />
<glyph unicode="_" horiz-adv-x="500" d="M0 -50h500v-107h-500v107z" />
<glyph unicode="`" horiz-adv-x="500" d="M201 520l-132 156h163l92 -156h-123z" />
<glyph unicode="a" horiz-adv-x="575" d="M41 134q0 106 127 136q45 11 184 16q-1 71 -14 88q-15 18 -48 18q-32 0 -45.5 -15.5t-13.5 -55.5h-161q1 62 28 93q49 57 174 57q138 0 202 -62q23 -23 31.5 -56.5t8.5 -98.5v-114q0 -93 8 -140h-162q-4 26 -5 36q-1 2 -1.5 8.5t-0.5 9.5l-1 12q-25 -43 -57.5 -61 t-84.5 -18q-79 0 -124 39t-45 108zM205 141q0 -27 18 -44.5t46 -17.5q83 0 83 120v16q-59 0 -90 -8q-57 -15 -57 -66z" />
<glyph unicode="b" horiz-adv-x="621" d="M61 0v667h169v-275q58 78 157 78q89 0 141.5 -65.5t52.5 -175.5q0 -107 -56 -175t-144 -68q-94 0 -151 77v-63h-169zM224 223q0 -66 25 -103t69 -37q43 0 68 38t25 103q0 68 -26 108.5t-69 40.5q-44 0 -68 -39t-24 -111z" />
<glyph unicode="c" horiz-adv-x="567" d="M107 46q-67 62 -67 177q0 113 69.5 180t185.5 67q107 0 168 -47.5t61 -129.5h-165l-2 14q-5 36 -20.5 51t-47.5 15q-43 0 -61 -34.5t-18 -115.5q0 -72 20 -105.5t64 -33.5q41 0 58 28q8 13 12 60h171q-6 -55 -18 -83t-40 -51q-63 -51 -182 -51q-126 0 -188 59z" />
<glyph unicode="d" horiz-adv-x="621" d="M41 220q0 116 53.5 183t147.5 67q99 0 149 -75v272h169v-667h-169v66q-55 -79 -157 -79q-91 0 -142 61.5t-51 171.5zM211 227q0 -67 25 -105t68 -38q44 0 68.5 38t24.5 108q0 68 -24.5 105.5t-67.5 37.5q-44 0 -69 -38.5t-25 -107.5z" />
<glyph unicode="e" horiz-adv-x="583" d="M41 225q0 117 66.5 181t188.5 64q80 0 138.5 -30t83.5 -83q21 -45 24 -162h-332v-8v-4q0 -47 22.5 -73t62.5 -26q77 0 77 66h161q-8 -163 -234 -163q-127 0 -192.5 60.5t-65.5 177.5zM212 283h163q-3 95 -82 95q-75 0 -81 -95z" />
<glyph unicode="f" horiz-adv-x="389" d="M102 0v347h-93v110h93v71q0 42 10 66.5t34 41.5q43 31 132 31q62 0 104 -10v-108q-21 8 -45 8q-37 0 -51.5 -13t-14.5 -46v-41h106v-110h-106v-347h-169z" />
<glyph unicode="g" horiz-adv-x="621" d="M60 -30h165q10 -62 75 -62q50 0 70.5 28.5t20.5 99.5v48q-37 -38 -72.5 -54t-85.5 -16q-93 0 -142.5 57t-49.5 164q0 100 45 159q26 34 70 55t90 21q92 0 145 -67v54h169v-388q0 -71 -11 -109t-41 -69q-77 -80 -232 -80q-131 0 -180 55q-30 33 -36 104zM297 111 q24 0 45.5 13t31.5 34q18 41 18 90q0 60 -24 95t-65 35q-42 0 -67 -36t-25 -95q0 -65 22.5 -100.5t63.5 -35.5z" />
<glyph unicode="h" horiz-adv-x="620" d="M61 0v667h169v-278q62 81 160 81q85 0 134 -60q36 -45 36 -133v-277h-169v257q0 105 -74 105q-27 0 -48 -14t-29 -38q-10 -26 -10 -92v-218h-169z" />
<glyph unicode="i" horiz-adv-x="290" d="M61 544v123h169v-123h-169zM61 0v457h169v-457h-169z" />
<glyph unicode="j" horiz-adv-x="306" d="M76 544v123h169v-123h-169zM4 -67q31 0 42.5 3.5t19.5 14.5q10 12 10 49v457h169v-457q0 -68 -9 -97.5t-35 -49.5q-42 -31 -135 -31q-27 0 -75 3v108h13z" />
<glyph unicode="k" horiz-adv-x="624" d="M61 0v667h169v-667h-169zM238 258l151 199h198l-169 -185l197 -272h-215z" />
<glyph unicode="l" horiz-adv-x="290" d="M61 0v667h169v-667h-169z" />
<glyph unicode="m" horiz-adv-x="939" d="M61 0v457h169v-64q25 36 66 56.5t90 20.5q53 0 90 -21.5t67 -69.5q51 92 160 92q43 0 82 -15t59 -40q35 -42 35 -132v-284h-169v256q0 59 -16 81q-18 25 -57 25q-21 0 -41 -10.5t-29 -26.5q-10 -19 -10 -69v-256h-169v256q0 63 -15 82q-19 24 -59 24q-84 0 -84 -106v-256 h-169z" />
<glyph unicode="n" horiz-adv-x="625" d="M61 0v457h169v-62q34 40 70.5 57.5t85.5 17.5q88 0 138 -52q23 -24 31.5 -55t8.5 -91v-272h-169v258q0 55 -14 76q-20 28 -63 28q-48 0 -73 -37q-15 -24 -15 -75v-250h-169z" />
<glyph unicode="o" horiz-adv-x="612" d="M41 230q0 127 82 186q73 54 183 54q128 0 197 -64t69 -183q0 -115 -72 -175q-74 -61 -197 -61q-124 0 -193 64t-69 179zM210 233q0 -149 96 -149q97 0 97 146q0 143 -98 143q-95 0 -95 -140z" />
<glyph unicode="p" horiz-adv-x="622" d="M61 -173v630h169v-64q46 77 149 77q94 0 148.5 -65t54.5 -176q0 -116 -51.5 -179t-145.5 -63q-54 0 -89 17.5t-66 59.5v-237h-169zM225 232q0 -70 24.5 -109t68.5 -39q43 0 68.5 38.5t25.5 102.5q0 59 -22 101q-23 47 -73 47q-44 0 -68 -37t-24 -104z" />
<glyph unicode="q" horiz-adv-x="621" d="M41 228q0 112 51.5 177t140.5 65q97 0 159 -77v64h169v-630h-169v237q-56 -78 -147 -78t-147.5 67t-56.5 175zM211 223q0 -65 24.5 -102.5t67.5 -37.5q44 0 69 39t25 109q0 68 -24.5 105t-68.5 37q-43 0 -68 -41t-25 -109z" />
<glyph unicode="r" horiz-adv-x="395" d="M61 0v457h169v-90q22 49 58 72t95 25v-146q-51 0 -76 -5.5t-43 -20.5q-21 -18 -27.5 -40t-6.5 -75v-177h-169z" />
<glyph unicode="s" horiz-adv-x="542" d="M106 21q-28 17 -46.5 51t-18.5 69q0 8 1 14h162q2 -11 3 -13q5 -37 20 -52t45 -15q27 0 43.5 12.5t16.5 32.5q0 24 -21 38q-14 10 -29.5 15t-94.5 26q-124 32 -124 123q0 68 57 108t154 40q104 0 159.5 -38.5t55.5 -109.5v-9h-159q0 31 -7 45q-15 24 -52 24 q-23 0 -37.5 -12t-14.5 -32q0 -18 19.5 -28t91.5 -30q100 -27 133 -52q39 -29 39 -84q0 -76 -60 -116.5t-172 -40.5q-108 0 -164 34z" />
<glyph unicode="t" horiz-adv-x="399" d="M127 26q-14 18 -19 50.5t-5 105.5v165h-94v110h94v69l169 69v-138h104v-110h-104v-173q0 -50 14 -65t61 -15q13 0 29 6v-105q-60 -9 -124 -9q-95 0 -125 40z" />
<glyph unicode="u" horiz-adv-x="612" d="M97 36q-28 34 -34 93q-2 28 -2 91v237h169v-237q0 -48 3.5 -67.5t14.5 -35.5q17 -23 50 -23q25 0 47 14t30 36t8 88v225h169v-457h-169v72q-49 -86 -154 -86q-90 0 -132 50z" />
<glyph unicode="v" horiz-adv-x="583" d="M201 0l-192 457h192l108 -302l104 302h161l-190 -457h-183z" />
<glyph unicode="w" horiz-adv-x="877" d="M181 0l-172 457h169l72 -249q11 -39 16 -90q6 60 16 90l76 249h176l88 -252q14 -40 18 -89q6 47 13 71l74 270h141l-150 -457h-171l-94 265q-12 33 -15 83q-4 -37 -20 -82l-94 -266h-143z" />
<glyph unicode="x" horiz-adv-x="567" d="M9 0l172 243l-157 214h204q37 -61 64 -125q15 30 19 37l18 32l22 39l11 17h174l-156 -214l177 -243h-205q-44 74 -81 158l-30 -58q-1 -2 -46 -77q-2 -5 -14 -23h-172z" />
<glyph unicode="y" horiz-adv-x="582" d="M218 -6l-209 463h192q30 -72 62.5 -169.5t41.5 -142.5q37 119 53 162q21 60 57 150h157l-267 -632h-155z" />
<glyph unicode="z" horiz-adv-x="495" d="M31 0v108l234 245h-220v104h404v-112l-224 -237h238v-108h-432z" />
<glyph unicode="{" horiz-adv-x="354" d="M78 19v102q0 42 -12.5 62t-43.5 27v127q56 13 56 82v107q0 76 35 108q22 20 50 26.5t94 6.5q45 0 75 -1v-146h-13q-54 0 -69.5 -14.5t-15.5 -62.5v-51q0 -49 -12 -74.5t-46 -47.5q33 -21 45.5 -47.5t12.5 -75.5v-56q0 -52 17 -65.5t81 -13.5v-138q-59 -1 -82 -1 q-63 0 -92.5 8.5t-50.5 31.5q-29 32 -29 106z" />
<glyph unicode="|" horiz-adv-x="500" d="M157 -167v834h185v-834h-185z" />
<glyph unicode="}" horiz-adv-x="354" d="M22 12q64 0 81 13.5t17 65.5v56q0 49 12.5 75.5t45.5 47.5q-34 22 -46 47.5t-12 74.5v51q0 49 -15.5 63t-70.5 14h-12v146q30 1 75 1q69 0 98.5 -8t51.5 -31q29 -32 29 -102v-107q0 -69 56 -82v-127q-31 -7 -43.5 -27t-12.5 -62v-102q0 -78 -35 -112q-21 -20 -49 -27 t-92 -7q-28 0 -78 1v138z" />
<glyph unicode="~" horiz-adv-x="667" d="M180 539l-88 74q30 76 67.5 111.5t87.5 35.5q20 0 44.5 -7.5t102.5 -37.5q21 -7 34 -7q33 0 62 55l88 -74q-32 -79 -68 -112.5t-89 -33.5q-34 0 -112 31q-51 20 -69 20q-31 0 -60 -55z" />
<glyph unicode="&#xa1;" horiz-adv-x="320" d="M78 355v138h162v-138h-162zM60 -173l34 471h129l37 -471h-200z" />
<glyph unicode="&#xa2;" d="M141 139q-85 63 -85 195q0 131 88 200q42 33 121 47v64h88v-64q61 -10 94 -25.5t57 -45.5q34 -45 34 -94v-11h-165q-2 35 -9 50q-13 34 -58 34q-42 0 -60 -37.5t-18 -124.5q0 -137 79 -137q45 0 60 29q9 16 12 63h171q-4 -85 -52.5 -130t-144.5 -55v-71h-88v71 q-83 12 -124 42z" />
<glyph unicode="&#xa3;" d="M38 0v109h72v208h-92v109h92v53q0 203 258 203q152 0 202 -82q19 -32 24 -121h-168q-1 59 -14.5 79t-54.5 20q-37 0 -58 -19t-20 -52l1 -28v-53h132v-109h-132v-208h291v-109h-533z" />
<glyph unicode="&#xa4;" horiz-adv-x="726" d="M33 108l104 104q-33 61 -33 126t36 131l-106 106l94 95l109 -109q65 34 127 34q59 0 125 -33l108 107l93 -94l-104 -104q38 -66 38 -133q0 -61 -34 -126l104 -104l-93 -94l-103 103q-66 -38 -131 -38q-67 0 -137 38l-104 -103zM264 339q0 -41 29.5 -71t70.5 -30 q42 0 71.5 30t29.5 72q0 41 -29.5 71t-69.5 30q-43 0 -72.5 -29.5t-29.5 -72.5z" />
<glyph unicode="&#xa5;" d="M28 213v96h159l-35 77h-124v96h82l-82 185h195l30 -81q20 -55 33 -94q4 -11 28 -95q39 128 64 189l33 81h174l-82 -185h82v-96h-125l-35 -77h160v-96h-194v-213h-170v213h-193z" />
<glyph unicode="&#xa6;" horiz-adv-x="500" d="M157 307v360h185v-360h-185zM157 153h185v-320h-185v320z" />
<glyph unicode="&#xa7;" horiz-adv-x="601" d="M81 -55v115q138 -81 231 -81q25 0 41.5 10t16.5 26q0 19 -15 29q-19 14 -158 77q-80 37 -112 75t-32 98q0 62 36 109q15 19 44 49q-40 37 -40 89q0 64 50 101.5t134 37.5q104 0 216 -61v-101q-64 35 -109 49t-94 14q-28 0 -45 -9.5t-17 -26.5q0 -14 22.5 -27.5 t94.5 -43.5q139 -58 173 -102q29 -40 29 -97q0 -95 -81 -168q38 -38 38 -88q0 -64 -50 -105t-130 -41q-103 0 -243 72zM219 255l176 -86q28 33 35.5 47.5t7.5 33.5q0 22 -16.5 38.5t-57.5 36.5l-157 75q-26 -30 -33.5 -44t-7.5 -36q0 -40 53 -65z" />
<glyph unicode="&#xa8;" horiz-adv-x="500" d="M287 533v127h127v-127h-127zM85 533v127h126v-127h-126z" />
<glyph unicode="&#xa9;" horiz-adv-x="763" d="M33 336q0 144 103.5 245t250.5 101q140 0 241.5 -103t101.5 -245q0 -145 -102 -247t-246 -102q-145 0 -247 102.5t-102 248.5zM95 336q0 -121 83.5 -205t203.5 -84q118 0 202 84.5t84 202.5q0 116 -83.5 201t-198.5 85q-131 0 -217 -95q-74 -82 -74 -189zM191 327 q0 95 51 146.5t146 51.5q154 0 166 -129h-115q-4 52 -54 52q-38 0 -58.5 -30t-20.5 -85q0 -114 77 -114q50 0 59 55h116q-5 -64 -49.5 -98t-124.5 -34q-93 0 -143 48t-50 137z" />
<glyph unicode="&#xaa;" horiz-adv-x="418" d="M162 376q-52 0 -82.5 25t-30.5 69q0 68 85 87q32 7 117 10q-1 37 -7.5 48t-29.5 11q-20 0 -27.5 -9.5t-7.5 -34.5h-111v1v4q0 95 134 95q92 0 134 -40q27 -26 27 -98v-70q0 -61 6 -90h-112q-3 13 -4 25l-1 9q-29 -42 -90 -42zM200 440q51 0 51 70v7q-48 0 -68.5 -9.5 t-20.5 -32.5q0 -15 11 -25t27 -10zM35 270v59h349v-59h-349z" />
<glyph unicode="&#xab;" horiz-adv-x="565" d="M286 229l115 183h123l-78 -183l78 -179h-123zM149 50l-116 179l116 183h123l-79 -183l79 -179h-123z" />
<glyph unicode="&#xac;" horiz-adv-x="500" d="M33 136v161h433v-297h-179v136h-254z" />
<glyph unicode="&#xad;" horiz-adv-x="272" d="M0 184v135h272v-135h-272z" />
<glyph unicode="&#xae;" horiz-adv-x="763" d="M33 336q0 144 103 245t251 101q140 0 241.5 -103t101.5 -246q0 -144 -102 -246t-246 -102q-145 0 -247 102.5t-102 248.5zM95 335q0 -120 83.5 -204t203.5 -84q118 0 202 84t84 202q0 117 -83.5 202t-198.5 85q-131 0 -217 -95q-74 -82 -74 -190zM215 150v367h161 q77 0 113 -14q24 -10 38 -32t14 -49q0 -47 -32 -69q-14 -9 -39 -19q40 -12 50.5 -29.5t18.5 -84.5q6 -46 22 -70h-124q-11 26 -16 76q-4 44 -12.5 54t-43.5 10h-41v-140h-109zM324 364h41q35 0 47 6q20 10 20 34q0 39 -63 39h-45v-79z" />
<glyph unicode="&#xaf;" horiz-adv-x="500" d="M86 549v96h328v-96h-328z" />
<glyph unicode="&#xb0;" horiz-adv-x="324" d="M162 423q-53 0 -91 37.5t-38 90.5t38 91t91 38q54 0 91 -37.5t37 -92.5q0 -52 -38 -89.5t-90 -37.5zM162 496q22 0 38.5 16t16.5 39t-16 39.5t-39 16.5t-39.5 -16t-16.5 -39t16.5 -39.5t39.5 -16.5z" />
<glyph unicode="&#xb1;" horiz-adv-x="500" d="M205 132v194h-201v84h201v202h88v-202h202v-84h-202v-194h-88zM4 8v84h491v-84h-491z" />
<glyph unicode="&#xb2;" horiz-adv-x="400" d="M39 267v89q115 84 157.5 127.5t42.5 76.5q0 40 -40 40q-21 0 -29.5 -11t-10.5 -42h-120q4 62 34 89q45 40 130 40q71 0 113 -30.5t42 -82.5q0 -47 -41 -93t-150 -120h195v-83h-323z" />
<glyph unicode="&#xb3;" horiz-adv-x="400" d="M56 305q-25 27 -26 82h116q4 -28 16 -40.5t36 -12.5q23 0 38 14.5t15 37.5q0 29 -18 41t-60 12h-25v73h25q40 0 54 7q22 10 22 38q0 19 -13.5 31t-33.5 12q-46 0 -46 -42h-115q1 34 10 53t30 34q43 31 118 31q77 0 121 -29.5t44 -80.5q0 -71 -79 -92q85 -22 85 -93 q0 -56 -50 -89.5t-132 -33.5q-93 0 -132 47z" />
<glyph unicode="&#xb4;" horiz-adv-x="500" d="M176 520l92 156h163l-132 -156h-123z" />
<glyph unicode="&#xb5;" horiz-adv-x="500" d="M22 -172v652h155v-242q0 -54 10 -75q21 -43 66 -43q37 0 54 29t17 91v240h155v-480h-155v56q-25 -65 -74 -65q-46 0 -73 54v-217h-155z" />
<glyph unicode="&#xb6;" horiz-adv-x="650" d="M255 -113v435h-12q-80 0 -130 47.5t-50 123.5q0 104 83 148q48 26 146 26h264v-66h-49v-714h-86v714h-80v-714h-86z" />
<glyph unicode="&#xb7;" horiz-adv-x="280" d="M59 169v135h162v-135h-162z" />
<glyph unicode="&#xb8;" horiz-adv-x="500" d="M218 -54h84l-40 -163h-137z" />
<glyph unicode="&#xb9;" horiz-adv-x="400" d="M186 267v289q-26 -18 -96 -48v95l21 10l40 19q37 19 57 35h95v-400h-117z" />
<glyph unicode="&#xba;" horiz-adv-x="418" d="M207 376q-82 0 -128 40.5t-46 113.5q0 71 46.5 111.5t129.5 40.5q85 0 130.5 -40.5t45.5 -116.5q0 -70 -47.5 -109.5t-130.5 -39.5zM209 443q59 0 59 87q0 85 -60 85q-58 0 -58 -83q0 -89 59 -89zM34 270v59h349v-59h-349z" />
<glyph unicode="&#xbb;" horiz-adv-x="565" d="M293 48l79 181l-79 184h124l115 -184l-115 -181h-124zM40 48l79 181l-79 184h125l114 -184l-114 -181h-125z" />
<glyph unicode="&#xbc;" horiz-adv-x="1006" d="M282 0l336 667h107l-334 -667h-109zM186 267v289q-26 -18 -96 -48v95l21 10l40 19q37 19 57 35h95v-400h-117zM621 80v90l173 230h131v-244h67v-76h-67v-80h-107v80h-197zM710 156h108v86q0 29 6 74z" />
<glyph unicode="&#xbd;" horiz-adv-x="1006" d="M282 0l336 667h107l-334 -667h-109zM186 267v289q-26 -18 -96 -48v95l21 10l40 19q37 19 57 35h95v-400h-117zM645 0v89q116 85 158 128t42 77q0 18 -10.5 28.5t-29.5 10.5q-21 0 -29.5 -11t-10.5 -41h-120q4 37 10.5 55t23.5 33q45 40 130 40q71 0 113 -30.5t42 -82.5 q0 -47 -40.5 -92.5t-150.5 -120.5h195v-83h-323z" />
<glyph unicode="&#xbe;" horiz-adv-x="1006" d="M56 305q-25 27 -26 82h116q4 -28 16 -40.5t36 -12.5q23 0 38 14.5t15 37.5q0 29 -18 41t-60 12h-25v73h25q40 0 54 7q22 10 22 38q0 19 -13.5 31t-33.5 12q-46 0 -46 -42h-115q1 34 10 53t30 34q43 31 118 31q77 0 121 -29.5t44 -80.5q0 -71 -79 -92q85 -22 85 -93 q0 -56 -50 -89.5t-132 -33.5q-93 0 -132 47zM282 0l336 667h107l-334 -667h-109zM621 80v90l173 230h131v-244h67v-76h-67v-80h-107v80h-197zM710 156h108v86q0 29 6 74z" />
<glyph unicode="&#xbf;" horiz-adv-x="475" d="M202 354v139h161v-139h-161zM37 -12q0 43 22.5 80t73.5 76q61 47 71 64t10 72v38h142v-52q0 -57 -7.5 -74.5t-45.5 -54.5q-85 -81 -85 -132q0 -73 114 -73q36 0 106 13v-118q-91 -13 -164 -13q-107 0 -172 47.5t-65 126.5z" />
<glyph unicode="&#xc0;" horiz-adv-x="748" d="M312 727l-132 156h163l92 -156h-123zM-5 0l273 667h210l275 -667h-200l-51 134h-276l-48 -134h-183zM274 258h185l-93 281z" />
<glyph unicode="&#xc1;" horiz-adv-x="748" d="M320 727l92 156h163l-132 -156h-123zM-5 0l273 667h210l275 -667h-200l-51 134h-276l-48 -134h-183zM274 258h185l-93 281z" />
<glyph unicode="&#xc2;" horiz-adv-x="748" d="M185 727l112 160h170l97 -160h-131l-55 87l-59 -87h-134zM-5 0l273 667h210l275 -667h-200l-51 134h-276l-48 -134h-183zM274 258h185l-93 281z" />
<glyph unicode="&#xc3;" horiz-adv-x="748" d="M206 740q1 52 21 82q34 53 102 53q20 0 30 -3t48 -21q28 -13 50 -13q24 0 27 35h85q-1 -61 -31 -99t-77 -38q-29 0 -89 25q-33 13 -49 13q-28 0 -32 -34h-85zM-5 0l273 667h210l275 -667h-200l-51 134h-276l-48 -134h-183zM274 258h185l-93 281z" />
<glyph unicode="&#xc4;" horiz-adv-x="748" d="M415 746v127h127v-127h-127zM213 746v127h126v-127h-126zM-5 0l273 667h210l275 -667h-200l-51 134h-276l-48 -134h-183zM274 258h185l-93 281z" />
<glyph unicode="&#xc5;" horiz-adv-x="748" d="M378 713q-58 0 -93.5 26t-35.5 70q0 40 36 66.5t91 26.5q58 0 94 -26.5t36 -68.5q0 -41 -36 -67.5t-92 -26.5zM377 762q19 0 32 13t13 32q0 22 -12.5 34.5t-33.5 12.5q-20 0 -32 -12.5t-12 -33.5q0 -20 12.5 -33t32.5 -13zM-5 0l273 667h210l275 -667h-200l-51 134h-276 l-48 -134h-183zM274 258h185l-93 281z" />
<glyph unicode="&#xc6;" horiz-adv-x="989" d="M0 0l377 667h560v-130h-306l18 -130h273v-130h-258l20 -147h272v-130h-428l-17 136h-254l-73 -136h-184zM321 260h175l-33 291z" />
<glyph unicode="&#xc7;" horiz-adv-x="699" d="M41 321q0 152 66 243q41 57 112 87.5t163 30.5q165 0 237 -94q36 -46 45 -131h-189q-11 95 -100 95q-68 0 -106 -57.5t-38 -161.5q0 -218 140 -218q93 0 109 102h192q-7 -80 -43 -128q-37 -50 -104 -77t-154 -27q-159 0 -244.5 87t-85.5 249zM204 -220l113 167h97 l-50 -167h-160z" />
<glyph unicode="&#xc8;" horiz-adv-x="575" d="M244 727l-132 156h163l92 -156h-123zM65 0v667h470v-130h-290v-130h270v-130h-270v-147h297v-130h-477z" />
<glyph unicode="&#xc9;" horiz-adv-x="575" d="M242 727l92 156h163l-132 -156h-123zM65 0v667h470v-130h-290v-130h270v-130h-270v-147h297v-130h-477z" />
<glyph unicode="&#xca;" horiz-adv-x="575" d="M114 727l112 160h170l97 -160h-131l-55 87l-59 -87h-134zM65 0v667h470v-130h-290v-130h270v-130h-270v-147h297v-130h-477z" />
<glyph unicode="&#xcb;" horiz-adv-x="575" d="M341 746v127h127v-127h-127zM139 746v127h126v-127h-126zM65 0v667h470v-130h-290v-130h270v-130h-270v-147h297v-130h-477z" />
<glyph unicode="&#xcc;" horiz-adv-x="319" d="M104 727l-125 156h157l92 -156h-124zM64 0v667h190v-667h-190z" />
<glyph unicode="&#xcd;" horiz-adv-x="319" d="M108 727l92 156h157l-125 -156h-124zM65 0v667h190v-667h-190z" />
<glyph unicode="&#xce;" horiz-adv-x="319" d="M-10 727l99 160h170l87 -160h-131l-45 87l-49 -87h-131zM65 0v667h190v-667h-190z" />
<glyph unicode="&#xcf;" horiz-adv-x="319" d="M193 746v127h120v-127h-120zM20 746v127h120v-127h-120zM65 0v667h190v-667h-190z" />
<glyph unicode="&#xd0;" horiz-adv-x="746" d="M62 0v293h-63v107h63v267h250q115 0 185.5 -21t121.5 -70q86 -83 86 -244q0 -174 -101 -255q-52 -42 -119 -59.5t-174 -17.5h-249zM252 130h64q78 0 122 27q77 47 77 173q0 102 -49 154.5t-144 52.5h-70v-137h126v-107h-126v-163z" />
<glyph unicode="&#xd1;" horiz-adv-x="766" d="M235 740q1 52 21 82q34 53 102 53q20 0 30 -3t48 -21q28 -13 50 -13q24 0 27 35h85q-1 -61 -31 -99t-77 -38q-29 0 -89 25q-33 13 -49 13q-28 0 -32 -34h-85zM65 0v667h250l71 -145q52 -105 147 -370v515h169v-667h-269l-71 146q-67 137 -134 349v-495h-163z" />
<glyph unicode="&#xd2;" horiz-adv-x="750" d="M316 727l-132 156h163l92 -156h-123zM135 71q-94 91 -94 263q0 164 87.5 256t242.5 92q161 0 249.5 -92.5t88.5 -261.5q0 -158 -89 -250.5t-243 -92.5q-153 0 -242 86zM375 115q44 0 76.5 23.5t47.5 66.5q20 55 20 129q0 103 -38.5 160.5t-106.5 57.5q-69 0 -106 -56.5 t-37 -160.5q0 -106 37.5 -163t106.5 -57z" />
<glyph unicode="&#xd3;" horiz-adv-x="750" d="M317 727l92 156h163l-132 -156h-123zM135 71q-94 91 -94 263q0 164 87.5 256t242.5 92q161 0 249.5 -92.5t88.5 -261.5q0 -158 -89 -250.5t-243 -92.5q-153 0 -242 86zM375 115q44 0 76.5 23.5t47.5 66.5q20 55 20 129q0 103 -38.5 160.5t-106.5 57.5q-69 0 -106 -56.5 t-37 -160.5q0 -106 37.5 -163t106.5 -57z" />
<glyph unicode="&#xd4;" horiz-adv-x="750" d="M189 727l112 160h170l97 -160h-131l-55 87l-59 -87h-134zM135 71q-94 91 -94 263q0 164 87.5 256t242.5 92q161 0 249.5 -92.5t88.5 -261.5q0 -158 -89 -250.5t-243 -92.5q-153 0 -242 86zM375 115q44 0 76.5 23.5t47.5 66.5q20 55 20 129q0 103 -38.5 160.5t-106.5 57.5 q-69 0 -106 -56.5t-37 -160.5q0 -106 37.5 -163t106.5 -57z" />
<glyph unicode="&#xd5;" horiz-adv-x="750" d="M217 740q1 52 21 82q34 53 102 53q20 0 30 -3t48 -21q28 -13 50 -13q24 0 27 35h85q-1 -61 -31 -99t-77 -38q-29 0 -89 25q-33 13 -49 13q-28 0 -32 -34h-85zM135 71q-94 91 -94 263q0 164 87.5 256t242.5 92q161 0 249.5 -92.5t88.5 -261.5q0 -158 -89 -250.5 t-243 -92.5q-153 0 -242 86zM375 115q44 0 76.5 23.5t47.5 66.5q20 55 20 129q0 103 -38.5 160.5t-106.5 57.5q-69 0 -106 -56.5t-37 -160.5q0 -106 37.5 -163t106.5 -57z" />
<glyph unicode="&#xd6;" horiz-adv-x="750" d="M416 746v127h127v-127h-127zM214 746v127h126v-127h-126zM135 71q-94 91 -94 263q0 164 87.5 256t242.5 92q161 0 249.5 -92.5t88.5 -261.5q0 -158 -89 -250.5t-243 -92.5q-153 0 -242 86zM375 115q44 0 76.5 23.5t47.5 66.5q20 55 20 129q0 103 -38.5 160.5t-106.5 57.5 q-69 0 -106 -56.5t-37 -160.5q0 -106 37.5 -163t106.5 -57z" />
<glyph unicode="&#xd7;" d="M133 93l-69 69l177 177l-176 176l71 70l176 -176l171 171l68 -69l-171 -170l175 -175l-70 -70l-175 174z" />
<glyph unicode="&#xd8;" horiz-adv-x="750" d="M28 26l75 82q-63 82 -63 219q0 162 91.5 258.5t244.5 96.5q116 0 215 -65l75 75l59 -60l-75 -75q32 -53 45 -99.5t13 -110.5q0 -76 -21 -144t-58 -112q-41 -49 -108 -77.5t-142 -28.5q-130 0 -217 62l-73 -79zM236 240l243 265q-33 47 -95 47q-97 0 -137 -111 q-16 -43 -16 -121q0 -13 5 -80zM276 158q29 -43 96 -43q79 0 116 74q30 62 30 141q0 66 -6 89z" />
<glyph unicode="&#xd9;" horiz-adv-x="747" d="M325 727l-132 156h163l92 -156h-123zM150 47q-45 37 -65 96t-20 154v370h190v-370q0 -66 4 -92.5t16 -43.5q32 -46 104 -46q37 0 66.5 16t42.5 44q15 33 15 122v370h180v-370q0 -160 -68 -229q-81 -83 -250 -83q-139 0 -215 62z" />
<glyph unicode="&#xda;" horiz-adv-x="747" d="M330 727l92 156h163l-132 -156h-123zM150 47q-45 37 -65 96t-20 154v370h190v-370q0 -66 4 -92.5t16 -43.5q32 -46 104 -46q37 0 66.5 16t42.5 44q15 33 15 122v370h180v-370q0 -160 -68 -229q-81 -83 -250 -83q-139 0 -215 62z" />
<glyph unicode="&#xdb;" horiz-adv-x="747" d="M195 727l112 160h170l97 -160h-131l-55 87l-59 -87h-134zM150 47q-45 37 -65 96t-20 154v370h190v-370q0 -66 4 -92.5t16 -43.5q32 -46 104 -46q37 0 66.5 16t42.5 44q15 33 15 122v370h180v-370q0 -160 -68 -229q-81 -83 -250 -83q-139 0 -215 62z" />
<glyph unicode="&#xdc;" horiz-adv-x="747" d="M418 746v127h127v-127h-127zM216 746v127h126v-127h-126zM150 47q-45 37 -65 96t-20 154v370h190v-370q0 -66 4 -92.5t16 -43.5q32 -46 104 -46q37 0 66.5 16t42.5 44q15 33 15 122v370h180v-370q0 -160 -68 -229q-81 -83 -250 -83q-139 0 -215 62z" />
<glyph unicode="&#xdd;" horiz-adv-x="676" d="M300 727l92 156h163l-132 -156h-123zM252 0v233l-259 434h219l37 -81q89 -193 101 -222q28 81 101 222l42 81h189l-250 -434v-233h-180z" />
<glyph unicode="&#xde;" horiz-adv-x="634" d="M65 0v667h180v-94h68q92 0 135 -8t79 -31q40 -26 62 -71t22 -100q0 -111 -77 -166q-35 -25 -75.5 -34t-122.5 -9h-91v-154h-180zM245 280h81q55 0 80 20t25 63q0 85 -105 85h-81v-168z" />
<glyph unicode="&#xdf;" horiz-adv-x="708" d="M61 0v474q0 113 57 160q67 54 219 54q112 0 173 -38t61 -106q0 -34 -20 -63q-12 -16 -53 -52q-29 -26 -29 -51q0 -32 37 -58q9 -6 76 -42q46 -25 66 -55.5t20 -75.5q0 -78 -57 -122.5t-157 -44.5q-119 0 -165 57q-25 32 -29 95h151q0 -55 43 -55q25 0 39.5 17t14.5 45 q0 31 -20.5 51t-85.5 51q-58 28 -80.5 55t-22.5 67q0 39 24 66q13 14 56 42q32 22 32 50q0 32 -22.5 51t-60.5 19q-52 0 -75 -32.5t-23 -104.5v-454h-169z" />
<glyph unicode="&#xe0;" horiz-adv-x="575" d="M236 520l-132 156h163l92 -156h-123zM41 134q0 106 127 136q45 11 184 16q-1 71 -14 88q-15 18 -48 18q-32 0 -45.5 -15.5t-13.5 -55.5h-161q1 62 28 93q49 57 174 57q138 0 202 -62q23 -23 31.5 -56.5t8.5 -98.5v-114q0 -93 8 -140h-162q-4 26 -5 36q-1 2 -1.5 8.5 t-0.5 9.5l-1 12q-25 -43 -57.5 -61t-84.5 -18q-79 0 -124 39t-45 108zM205 141q0 -27 18 -44.5t46 -17.5q83 0 83 120v16q-59 0 -90 -8q-57 -15 -57 -66z" />
<glyph unicode="&#xe1;" horiz-adv-x="575" d="M241 520l92 156h163l-132 -156h-123zM41 134q0 106 127 136q45 11 184 16q-1 71 -14 88q-15 18 -48 18q-32 0 -45.5 -15.5t-13.5 -55.5h-161q1 62 28 93q49 57 174 57q138 0 202 -62q23 -23 31.5 -56.5t8.5 -98.5v-114q0 -93 8 -140h-162q-4 26 -5 36q-1 2 -1.5 8.5 t-0.5 9.5l-1 12q-25 -43 -57.5 -61t-84.5 -18q-79 0 -124 39t-45 108zM205 141q0 -27 18 -44.5t46 -17.5q83 0 83 120v16q-59 0 -90 -8q-57 -15 -57 -66z" />
<glyph unicode="&#xe2;" horiz-adv-x="575" d="M105 520l112 153h170l97 -153h-131l-55 84l-59 -84h-134zM41 134q0 106 127 136q45 11 184 16q-1 71 -14 88q-15 18 -48 18q-32 0 -45.5 -15.5t-13.5 -55.5h-161q1 62 28 93q49 57 174 57q138 0 202 -62q23 -23 31.5 -56.5t8.5 -98.5v-114q0 -93 8 -140h-162q-4 26 -5 36 q-1 2 -1.5 8.5t-0.5 9.5l-1 12q-25 -43 -57.5 -61t-84.5 -18q-79 0 -124 39t-45 108zM205 141q0 -27 18 -44.5t46 -17.5q83 0 83 120v16q-59 0 -90 -8q-57 -15 -57 -66z" />
<glyph unicode="&#xe3;" horiz-adv-x="575" d="M130 533q3 47 21 76q16 24 41.5 38.5t51.5 14.5q16 0 26 -3t54 -21q32 -13 46 -13q22 0 25 35h85q-2 -56 -32 -93.5t-73 -37.5q-25 0 -86 25q-32 14 -46 14q-24 0 -28 -35h-85zM41 134q0 106 127 136q45 11 184 16q-1 71 -14 88q-15 18 -48 18q-32 0 -45.5 -15.5 t-13.5 -55.5h-161q1 62 28 93q49 57 174 57q138 0 202 -62q23 -23 31.5 -56.5t8.5 -98.5v-114q0 -93 8 -140h-162q-4 26 -5 36q-1 2 -1.5 8.5t-0.5 9.5l-1 12q-25 -43 -57.5 -61t-84.5 -18q-79 0 -124 39t-45 108zM205 141q0 -27 18 -44.5t46 -17.5q83 0 83 120v16 q-59 0 -90 -8q-57 -15 -57 -66z" />
<glyph unicode="&#xe4;" horiz-adv-x="575" d="M335 533v127h127v-127h-127zM133 533v127h126v-127h-126zM41 134q0 106 127 136q45 11 184 16q-1 71 -14 88q-15 18 -48 18q-32 0 -45.5 -15.5t-13.5 -55.5h-161q1 62 28 93q49 57 174 57q138 0 202 -62q23 -23 31.5 -56.5t8.5 -98.5v-114q0 -93 8 -140h-162q-4 26 -5 36 q-1 2 -1.5 8.5t-0.5 9.5l-1 12q-25 -43 -57.5 -61t-84.5 -18q-79 0 -124 39t-45 108zM205 141q0 -27 18 -44.5t46 -17.5q83 0 83 120v16q-59 0 -90 -8q-57 -15 -57 -66z" />
<glyph unicode="&#xe5;" horiz-adv-x="575" d="M296 510q-57 0 -91.5 25t-34.5 67q0 39 35.5 64.5t88.5 25.5q56 0 91.5 -25.5t35.5 -66.5q0 -40 -35 -65t-90 -25zM295 556q19 0 32 13t13 32q0 21 -12.5 33.5t-33.5 12.5q-20 0 -32 -12t-12 -33q0 -20 12.5 -33t32.5 -13zM41 134q0 106 127 136q45 11 184 16 q-1 71 -14 88q-15 18 -48 18q-32 0 -45.5 -15.5t-13.5 -55.5h-161q1 62 28 93q49 57 174 57q138 0 202 -62q23 -23 31.5 -56.5t8.5 -98.5v-114q0 -93 8 -140h-162q-4 26 -5 36q-1 2 -1.5 8.5t-0.5 9.5l-1 12q-25 -43 -57.5 -61t-84.5 -18q-79 0 -124 39t-45 108zM205 141 q0 -27 18 -44.5t46 -17.5q83 0 83 120v16q-59 0 -90 -8q-57 -15 -57 -66z" />
<glyph unicode="&#xe6;" horiz-adv-x="876" d="M41 131q0 114 142 144q49 10 178 12q-2 55 -13 74q-17 30 -60 30q-41 0 -58 -29q-8 -16 -8 -41h-157q5 47 16 70.5t36 40.5q55 38 152 38q133 0 171 -70q57 70 173 70q76 0 130 -32t76 -90q17 -44 17 -153h-321q1 -61 21 -86t65 -25q33 0 50.5 16t21.5 50h154 q-10 -66 -47 -106q-25 -26 -71 -41.5t-97 -15.5q-77 0 -134 31q-33 18 -53 54q-63 -85 -190 -85q-91 0 -142.5 38.5t-51.5 105.5zM517 283h158q-2 40 -8 55q-7 17 -26 28.5t-42 11.5q-48 0 -68 -36q-10 -17 -13 -48zM211 130q0 -23 16 -37t44 -14q39 0 64 31.5t25 80.5v15 h-10h-5h-8q-68 0 -97 -17.5t-29 -58.5z" />
<glyph unicode="&#xe7;" horiz-adv-x="567" d="M107 46q-67 62 -67 177q0 113 69.5 180t185.5 67q107 0 168 -47.5t61 -129.5h-165l-2 14q-5 36 -20.5 51t-47.5 15q-43 0 -61 -34.5t-18 -115.5q0 -72 20 -105.5t64 -33.5q41 0 58 28q8 13 12 60h171q-6 -55 -18 -83t-40 -51q-63 -51 -182 -51q-126 0 -188 59zM252 -54 h83l-39 -163h-137z" />
<glyph unicode="&#xe8;" horiz-adv-x="583" d="M236 520l-132 156h163l92 -156h-123zM41 225q0 117 66.5 181t188.5 64q80 0 138.5 -30t83.5 -83q21 -45 24 -162h-332v-8v-4q0 -47 22.5 -73t62.5 -26q77 0 77 66h161q-8 -163 -234 -163q-127 0 -192.5 60.5t-65.5 177.5zM212 283h163q-3 95 -82 95q-75 0 -81 -95z" />
<glyph unicode="&#xe9;" horiz-adv-x="583" d="M247 520l92 156h163l-132 -156h-123zM41 225q0 117 66.5 181t188.5 64q80 0 138.5 -30t83.5 -83q21 -45 24 -162h-332v-8v-4q0 -47 22.5 -73t62.5 -26q77 0 77 66h161q-8 -163 -234 -163q-127 0 -192.5 60.5t-65.5 177.5zM212 283h163q-3 95 -82 95q-75 0 -81 -95z" />
<glyph unicode="&#xea;" horiz-adv-x="583" d="M112 520l112 153h170l97 -153h-131l-55 84l-59 -84h-134zM41 225q0 117 66.5 181t188.5 64q80 0 138.5 -30t83.5 -83q21 -45 24 -162h-332v-8v-4q0 -47 22.5 -73t62.5 -26q77 0 77 66h161q-8 -163 -234 -163q-127 0 -192.5 60.5t-65.5 177.5zM212 283h163q-3 95 -82 95 q-75 0 -81 -95z" />
<glyph unicode="&#xeb;" horiz-adv-x="583" d="M339 533v127h127v-127h-127zM137 533v127h126v-127h-126zM41 225q0 117 66.5 181t188.5 64q80 0 138.5 -30t83.5 -83q21 -45 24 -162h-332v-8v-4q0 -47 22.5 -73t62.5 -26q77 0 77 66h161q-8 -163 -234 -163q-127 0 -192.5 60.5t-65.5 177.5zM212 283h163q-3 95 -82 95 q-75 0 -81 -95z" />
<glyph unicode="&#xec;" horiz-adv-x="290" d="M89 520l-125 156h157l92 -156h-124zM61 0v457h169v-457h-169z" />
<glyph unicode="&#xed;" horiz-adv-x="290" d="M91 520l92 156h157l-125 -156h-124zM61 0v457h169v-457h-169z" />
<glyph unicode="&#xee;" horiz-adv-x="290" d="M-21 520l96 153h170l83 -153h-131l-41 84l-46 -84h-131zM61 0v457h169v-457h-169z" />
<glyph unicode="&#xef;" horiz-adv-x="290" d="M175 533v127h120v-127h-120zM8 533v127h120v-127h-120zM60 0v457h169v-457h-169z" />
<glyph unicode="&#xf0;" d="M41 236q0 127 81 185q77 57 171 57q17 0 52 -6q-41 66 -84 92l-127 -75l-31 57l85 49q-26 8 -52 11q-29 3 -31 4q-1 0 -15 2l34 65h18q19 0 70.5 -8.5t82.5 -16.5l126 73l34 -54l-83 -47q63 -38 121 -124q80 -122 80 -269q0 -123 -72 -182q-73 -62 -198 -62t-193.5 65.5 t-68.5 183.5zM211 238q0 -154 96 -154t96 151q0 72 -25 110t-72 38q-95 0 -95 -145z" />
<glyph unicode="&#xf1;" horiz-adv-x="625" d="M154 533q3 47 21 76q16 24 41.5 38.5t51.5 14.5q16 0 26 -3t54 -21q32 -13 46 -13q22 0 25 35h85q-2 -56 -32 -93.5t-73 -37.5q-25 0 -86 25q-32 14 -46 14q-24 0 -28 -35h-85zM61 0v457h169v-62q34 40 70.5 57.5t85.5 17.5q88 0 138 -52q23 -24 31.5 -55t8.5 -91v-272 h-169v258q0 55 -14 76q-20 28 -63 28q-48 0 -73 -37q-15 -24 -15 -75v-250h-169z" />
<glyph unicode="&#xf2;" horiz-adv-x="612" d="M251 520l-132 156h163l92 -156h-123zM41 230q0 127 82 186q73 54 183 54q128 0 197 -64t69 -183q0 -115 -72 -175q-74 -61 -197 -61q-124 0 -193 64t-69 179zM210 233q0 -149 96 -149q97 0 97 146q0 143 -98 143q-95 0 -95 -140z" />
<glyph unicode="&#xf3;" horiz-adv-x="612" d="M255 520l92 156h163l-132 -156h-123zM41 230q0 127 82 186q73 54 183 54q128 0 197 -64t69 -183q0 -115 -72 -175q-74 -61 -197 -61q-124 0 -193 64t-69 179zM210 233q0 -149 96 -149q97 0 97 146q0 143 -98 143q-95 0 -95 -140z" />
<glyph unicode="&#xf4;" horiz-adv-x="612" d="M120 520l112 153h170l97 -153h-131l-55 84l-59 -84h-134zM41 230q0 127 82 186q73 54 183 54q128 0 197 -64t69 -183q0 -115 -72 -175q-74 -61 -197 -61q-124 0 -193 64t-69 179zM210 233q0 -149 96 -149q97 0 97 146q0 143 -98 143q-95 0 -95 -140z" />
<glyph unicode="&#xf5;" horiz-adv-x="612" d="M151 533q3 47 21 76q16 24 41.5 38.5t51.5 14.5q16 0 26 -3t54 -21q32 -13 46 -13q22 0 25 35h85q-2 -56 -32 -93.5t-73 -37.5q-25 0 -86 25q-32 14 -46 14q-24 0 -28 -35h-85zM41 230q0 127 82 186q73 54 183 54q128 0 197 -64t69 -183q0 -115 -72 -175 q-74 -61 -197 -61q-124 0 -193 64t-69 179zM210 233q0 -149 96 -149q97 0 97 146q0 143 -98 143q-95 0 -95 -140z" />
<glyph unicode="&#xf6;" horiz-adv-x="612" d="M350 533v127h127v-127h-127zM148 533v127h126v-127h-126zM41 230q0 127 82 186q73 54 183 54q128 0 197 -64t69 -183q0 -115 -72 -175q-74 -61 -197 -61q-124 0 -193 64t-69 179zM210 233q0 -149 96 -149q97 0 97 146q0 143 -98 143q-95 0 -95 -140z" />
<glyph unicode="&#xf7;" d="M229 442v129h155v-129h-155zM31 285v99h551v-99h-551zM234 96v132h155v-132h-155z" />
<glyph unicode="&#xf8;" horiz-adv-x="612" d="M59 3l45 49q-37 50 -50 87t-13 91q0 112 70 176t194 64q101 0 163 -38l52 53l41 -38l-47 -46q35 -51 46.5 -86.5t11.5 -89.5q0 -117 -72 -177q-74 -61 -195 -61q-94 0 -152 33l-53 -55zM218 160l155 182q-26 31 -68 31q-46 0 -70.5 -36t-24.5 -101q0 -29 8 -76zM244 110 q20 -26 62 -26q97 0 97 145q0 25 -4 58z" />
<glyph unicode="&#xf9;" horiz-adv-x="612" d="M251 520l-132 156h163l92 -156h-123zM97 36q-28 34 -34 93q-2 28 -2 91v237h169v-237q0 -48 3.5 -67.5t14.5 -35.5q17 -23 50 -23q25 0 47 14t30 36t8 88v225h169v-457h-169v72q-49 -86 -154 -86q-90 0 -132 50z" />
<glyph unicode="&#xfa;" horiz-adv-x="612" d="M252 527l92 156h163l-132 -156h-123zM97 36q-28 34 -34 93q-2 28 -2 91v237h169v-237q0 -48 3.5 -67.5t14.5 -35.5q17 -23 50 -23q25 0 47 14t30 36t8 88v225h169v-457h-169v72q-49 -86 -154 -86q-90 0 -132 50z" />
<glyph unicode="&#xfb;" horiz-adv-x="612" d="M121 520l112 153h170l97 -153h-131l-55 84l-59 -84h-134zM97 36q-28 34 -34 93q-2 28 -2 91v237h169v-237q0 -48 3.5 -67.5t14.5 -35.5q17 -23 50 -23q25 0 47 14t30 36t8 88v225h169v-457h-169v72q-49 -86 -154 -86q-90 0 -132 50z" />
<glyph unicode="&#xfc;" horiz-adv-x="612" d="M351 533v127h127v-127h-127zM149 533v127h126v-127h-126zM97 36q-28 34 -34 93q-2 28 -2 91v237h169v-237q0 -48 3.5 -67.5t14.5 -35.5q17 -23 50 -23q25 0 47 14t30 36t8 88v225h169v-457h-169v72q-49 -86 -154 -86q-90 0 -132 50z" />
<glyph unicode="&#xfd;" horiz-adv-x="582" d="M253 520l92 156h163l-132 -156h-123zM218 -6l-209 463h192q30 -72 62.5 -169.5t41.5 -142.5q37 119 53 162q21 60 57 150h157l-267 -632h-155z" />
<glyph unicode="&#xfe;" horiz-adv-x="622" d="M61 -173v840h169v-274q46 77 149 77q94 0 148.5 -65t54.5 -176q0 -116 -51.5 -179t-145.5 -63q-54 0 -89 17.5t-66 59.5v-237h-169zM225 232q0 -70 24.5 -109t68.5 -39q43 0 68.5 38.5t25.5 102.5q0 59 -22 101q-23 47 -73 47q-44 0 -68 -37t-24 -104z" />
<glyph unicode="&#xff;" horiz-adv-x="582" d="M345 533v127h127v-127h-127zM143 533v127h126v-127h-126zM218 -6l-209 463h192q30 -72 62.5 -169.5t41.5 -142.5q37 119 53 162q21 60 57 150h157l-267 -632h-155z" />
<glyph unicode="&#x152;" horiz-adv-x="967" d="M138 71q-97 88 -97 261q0 178 102 270q84 77 214 77q33 0 147 -12h420v-130h-289v-130h269v-130h-269v-147h298v-130h-429q-86 -11 -134 -11q-141 0 -232 82zM270 175q34 -52 116 -52q24 0 69 7v413q-34 6 -67 6q-76 0 -109 -41q-48 -61 -48 -170q0 -103 39 -163z" />
<glyph unicode="&#x153;" horiz-adv-x="942" d="M41 230q0 132 88 191q73 50 175 50q115 0 182 -68q38 37 78 52t98 15q83 0 142.5 -35t81.5 -96q16 -46 16 -121v-23h-332q1 -58 21.5 -84.5t63.5 -26.5q75 0 77 66h162q-9 -163 -226 -163q-78 0 -126 23q-26 12 -56 43q-38 -37 -76.5 -51.5t-99.5 -14.5q-129 0 -199 63.5 t-70 179.5zM572 283h165q-7 52 -25.5 73.5t-57.5 21.5q-37 0 -56.5 -22.5t-25.5 -72.5zM218 231q0 -147 92 -147q94 0 94 141q0 73 -24.5 111t-71.5 38q-90 0 -90 -143z" />
<glyph unicode="&#x178;" horiz-adv-x="676" d="M388 746v127h127v-127h-127zM186 746v127h126v-127h-126zM252 0v233l-259 434h219l37 -81q89 -193 101 -222q28 81 101 222l42 81h189l-250 -434v-233h-180z" />
<glyph unicode="&#x2c6;" horiz-adv-x="500" d="M61 520l112 153h170l97 -153h-131l-55 84l-59 -84h-134z" />
<glyph unicode="&#x2dc;" horiz-adv-x="500" d="M75 533q3 47 21 76q16 24 41.5 38.5t51.5 14.5q16 0 26 -3t54 -21q32 -13 46 -13q22 0 25 35h85q-2 -56 -32 -93.5t-73 -37.5q-25 0 -86 25q-32 14 -46 14q-24 0 -28 -35h-85z" />
<glyph unicode="&#x2000;" horiz-adv-x="451" />
<glyph unicode="&#x2001;" horiz-adv-x="902" />
<glyph unicode="&#x2002;" horiz-adv-x="451" />
<glyph unicode="&#x2003;" horiz-adv-x="902" />
<glyph unicode="&#x2004;" horiz-adv-x="300" />
<glyph unicode="&#x2005;" horiz-adv-x="225" />
<glyph unicode="&#x2006;" horiz-adv-x="150" />
<glyph unicode="&#x2007;" horiz-adv-x="150" />
<glyph unicode="&#x2008;" horiz-adv-x="112" />
<glyph unicode="&#x2009;" horiz-adv-x="180" />
<glyph unicode="&#x200a;" horiz-adv-x="50" />
<glyph unicode="&#x2010;" horiz-adv-x="272" d="M0 184v135h272v-135h-272z" />
<glyph unicode="&#x2011;" horiz-adv-x="272" d="M0 184v135h272v-135h-272z" />
<glyph unicode="&#x2013;" horiz-adv-x="578" d="M51 184v135h475v-135h-475z" />
<glyph unicode="&#x2014;" horiz-adv-x="822" d="M0 184v135h822v-135h-822z" />
<glyph unicode="&#x2018;" horiz-adv-x="298" d="M43 442l98 225h113l-53 -225h-158z" />
<glyph unicode="&#x2019;" horiz-adv-x="298" d="M43 442l53 225h158l-98 -225h-113z" />
<glyph unicode="&#x201a;" horiz-adv-x="298" d="M43 -81l53 225h158l-98 -225h-113z" />
<glyph unicode="&#x201c;" horiz-adv-x="506" d="M251 442l98 225h113l-52 -225h-159zM43 442l98 225h113l-53 -225h-158z" />
<glyph unicode="&#x201d;" horiz-adv-x="506" d="M251 442l53 225h158l-97 -225h-114zM43 442l53 225h158l-98 -225h-113z" />
<glyph unicode="&#x201e;" horiz-adv-x="506" d="M251 -96l53 225h158l-97 -225h-114zM43 -96l53 225h158l-98 -225h-113z" />
<glyph unicode="&#x2022;" horiz-adv-x="667" d="M335 200q-57 0 -98 40.5t-41 97.5q0 58 41 98.5t100 40.5q55 0 95.5 -41t40.5 -97q0 -58 -40.5 -98.5t-97.5 -40.5z" />
<glyph unicode="&#x2026;" horiz-adv-x="840" d="M619 0v135h162v-135h-162zM339 0v135h162v-135h-162zM59 0v135h162v-135h-162z" />
<glyph unicode="&#x202f;" horiz-adv-x="180" />
<glyph unicode="&#x2039;" horiz-adv-x="311" d="M148 50l-115 179l115 183h123l-79 -183l79 -179h-123z" />
<glyph unicode="&#x203a;" horiz-adv-x="312" d="M40 48l79 181l-79 184h124l115 -184l-115 -181h-124z" />
<glyph unicode="&#x205f;" horiz-adv-x="225" />
<glyph unicode="&#x20ac;" horiz-adv-x="797" d="M34 280l47 110h56q9 74 35 129q37 79 115 121t187 42q78 0 140.5 -24.5t96.5 -69.5q37 -48 45 -131h-189q-12 95 -100 95q-117 0 -141 -162h172l-47 -110h-125q15 -165 137 -165q91 0 109 102h192q-7 -80 -43 -128q-37 -50 -104 -77t-154 -27q-149 0 -233 75.5t-96 219.5 h-100z" />
<glyph unicode="&#x2122;" horiz-adv-x="957" d="M407 287v380h175l52 -151q14 -41 25 -113q14 77 26 113l49 151h175v-380h-106v289l-99 -289h-94l-100 272v-272h-103zM135 287v301h-125v79h365v-79h-121v-301h-119z" />
</font>
</defs>
</svg>
